<?xml version="1.0" encoding="UTF-8"?>
<svg xmlns="http://www.w3.org/2000/svg" xmlns:xlink="http://www.w3.org/1999/xlink" xml:space="preserve" height="380px" viewBox="0 0 16665 7046" version="1.1" baseProfile="full" style="clip-rule:evenodd;fill-rule:evenodd;image-rendering:optimizeQuality;shape-rendering:geometricPrecision;text-rendering:optimizeLegibility">
	<defs>
		<style type="text/css"><![CDATA[
			.str0 {stroke:white;stroke-width:6.76394}
			.fil6 {fill:none}
			.fil0 {fill:black}
			.fil3 {fill:#AD5C51}
			.fil4 {fill:#C3E4D8}
			.fil1 {fill:#F4CBB2}
			.fil2 {fill:white}
			.fil5 {fill:black;fill-rule:nonzero}
		]]></style>
	</defs>
	<g>
		<g>
			<g>
				<path class="fil0" d="M7408 1810l2-9c-198-40-400-40-523-35 20-73 26-156 26-249 0-134-50-241-132-322 14-46 33-148-19-279 0 0-92-29-301 110-82-20-169-30-256-30-96 0-193 12-283 37-215-147-310-117-310-117-62 155-24 270-12 298-73 79-117 179-117 302 0 93 11 176 36 249-124-5-319-3-510 35l2 9c192-38 388-40 511-35 6 15 12 30 19 44-122 4-329 19-528 76l2 9c201-57 410-72 531-75 73 135 216 223 471 250-36 24-73 66-88 136-49 24-205 81-299-80 0 0-52-96-153-103 0 0-97-2-7 61 0 0 65 31 110 146 0 0 59 197 341 134l0 203c0 0-6 72-72 96 0 0-39 27 3 42 0 0 183 15 183-135l0-222c0 0-7-88 36-118l0 364c0 0-3 87-48 120 0 0-30 54 36 39 0 0 126-18 132-165l3-368 30 0 3 368c6 147 132 165 132 165 66 15 36-39 36-39-45-33-48-120-48-120l0-361c43 34 36 115 36 115l0 222c0 150 183 135 183 135 42-15 3-42 3-42-66-24-72-96-72-96l0-290c0-113-48-173-94-205 272-27 402-115 462-251 119 3 333 18 538 76l2-9c-204-57-417-72-537-76 6-14 11-28 15-43 122-5 326-5 524 35l0 0z"/>
				<path class="fil1" d="M6647 1511c59 53 93 117 93 186 0 322-240 331-536 331-296 0-537-45-537-331 0-69 34-132 92-185 96-88 260-41 445-41 184 0 347-47 444 40l0 0z"/>
				<path class="fil2" d="M6025 1713c0 89-50 161-112 161-62 0-112-72-112-161 0-89 50-161 112-161 62 0 112 72 112 161zm599 0c0 89-50 161-112 161-62 0-112-72-112-161 0-89 50-161 112-161 62 0 112 72 112 161z"/>
				<path class="fil3" d="M5989 1715c0 59-33 107-74 107-41 0-74-48-74-107 0-59 33-107 74-107 41 0 74 48 74 107l0 0zm599 0c0 59-33 107-74 107-41 0-74-48-74-107 0-59 33-107 74-107 41 0 74 48 74 107l0 0z"/>
				<circle class="fil3" cx="6205" cy="1856" r="28"/>
				<path class="fil3" d="M6140 1926c-2-5 1-10 5-11 5-2 10 1 11 5 7 20 26 34 48 34 21 0 41-14 48-34 2-5 7-7 11-5 5 2 7 7 5 11-10 27-36 46-65 46-29 0-55-18-65-46l0 0z"/>
				<path class="fil4" d="M5521 2054c0 7-9 13-19 13-11 0-19-6-19-13 0-7 9-13 19-13 11 0 19 6 19 14l0 0zm54 30c0 7-9 13-19 13-11 0-19-6-19-13 0-7 9-13 19-13 11 0 19 6 19 14l0 0zm33 39c0 7-9 13-19 13-11 0-19-6-19-13 0-7 9-13 19-13 11 0 19 6 19 14l0 0zm30 45c0 7-9 13-19 13-11 0-19-6-19-13 0-7 9-13 19-13 11 0 19 6 19 14l0 0zm33 42c0 7-9 13-19 13-11 0-19-6-19-13 0-7 9-13 19-13 11 0 19 6 19 14l0 0zm45 36c0 7-9 13-19 13-11 0-19-6-19-13 0-7 9-13 19-13 11 0 19 6 19 14l0 0zm63 24c0 7-9 13-19 13-11 0-19-6-19-13 0-7 9-13 19-13 11 0 19 6 19 14l0 0zm63 0c0 7-9 13-19 13-11 0-19-6-19-13 0-7 9-13 19-13 11 0 19 6 19 14l0 0zm63-10c0 7-9 13-19 13-11 0-19-6-19-13 0-7 9-13 19-13 11 0 19 6 19 14l0 0z"/>
			</g>
			<path class="fil5" d="M4631 2072l0 292-20 0c-3 0-6-1-8-2-2-1-4-3-6-6l-169-220c0 3 0 7 1 10 0 3 0 6 0 9l0 208-35 0 0-292 20 0c2 0 3 0 4 0 1 0 2 1 3 1 1 0 2 1 3 2 1 1 2 2 3 3l169 220c0-4 0-7-1-10 0-3 0-6 0-9l0-207 35 0z"/>
			<path class="fil5" d="M4803 2271c-17 1-31 2-43 4-12 2-21 5-29 8-7 3-13 7-16 12-3 5-5 10-5 15 0 5 1 10 3 14 2 4 4 7 7 10 3 3 7 4 11 5 4 1 9 2 13 2 6 0 12-1 18-2 5-1 10-3 15-6 5-2 9-5 13-9 4-3 8-7 12-12l0-43zm-117-84c11-11 24-19 37-25 13-5 28-8 44-8 12 0 22 2 31 6 9 4 16 9 23 16 6 7 11 15 14 25 3 10 5 20 5 32l0 132-16 0c-4 0-6-1-8-2-2-1-3-3-4-7l-4-20c-5 5-11 9-16 13-5 4-11 7-16 10-6 3-12 5-18 6-6 1-14 2-22 2-8 0-16-1-23-3-7-2-13-6-18-10-5-4-9-10-12-17-3-7-5-15-5-24 0-8 2-16 7-24 4-8 12-14 22-20 10-6 23-11 39-14 16-4 36-6 59-6l0-16c0-16-3-28-10-36-7-8-17-12-30-12-9 0-16 1-22 3-6 2-11 5-16 8-4 3-8 5-11 8-3 2-6 3-9 3-2 0-5-1-6-2-2-1-3-3-4-5l-7-12z"/>
			<path class="fil5" d="M5082 2364l-36 0 0-176-106 0 0 124c0 9 2 15 6 19 4 4 10 6 16 6 4 0 7-1 10-2 3-1 5-2 7-3 2-1 4-2 5-3 1-1 3-2 4-2 2 0 4 1 5 3l11 17c-6 6-14 10-23 14-9 3-18 5-27 5-16 0-29-5-38-14-9-9-13-22-13-39l0-126-25 0c-2 0-4-1-5-2-1-1-2-3-2-6l0-14 34-4 8-64c0-2 1-4 3-5 1-1 3-2 6-2l18 0 0 71 142 0 0 202zm9-272c0 4-1 7-2 10-1 3-3 6-6 8-2 2-5 4-8 5-3 1-6 2-10 2-4 0-7-1-10-2-3-1-6-3-8-5-2-2-4-5-5-8-1-3-2-6-2-10 0-4 1-7 2-10 1-3 3-6 5-8 2-2 5-4 8-6 3-1 6-2 10-2 4 0 7 1 10 2 3 1 6 3 8 6 2 2 4 5 6 8 1 3 2 7 2 10z"/>
			<path class="fil5" d="M5318 2158l-84 206-33 0-84-206 30 0c3 0 5 1 7 2 2 1 3 3 4 5l52 133c2 5 3 10 4 15 1 5 2 9 3 14 1-5 2-9 3-14 1-5 3-10 4-15l53-133c1-2 2-4 4-5 2-1 4-2 7-2l28 0z"/>
			<path class="fil5" d="M5484 2238c0-8-1-16-4-23-2-7-6-13-10-18-5-5-10-9-17-12-7-3-14-4-22-4-17 0-31 5-41 15-10 10-16 24-19 42l113 0zm29 97c-4 5-10 10-16 14-6 4-13 7-20 10-7 3-15 4-22 6-8 1-15 2-23 2-14 0-27-2-39-7-12-5-22-12-31-21-9-9-16-21-20-34-5-14-7-29-7-47 0-14 2-28 7-40 4-12 11-23 19-32 8-9 18-16 30-22 12-5 25-8 40-8 12 0 24 2 34 6 11 4 20 10 27 18 8 8 14 17 18 29 4 11 7 25 7 39 0 6-1 9-2 11-1 2-4 3-7 3l-138 0c0 13 2 24 5 34 3 10 8 18 13 24 6 6 12 11 20 14 8 3 17 5 26 5 9 0 17-1 24-3 7-2 12-4 17-7 5-2 9-5 12-7 3-2 6-3 8-3 3 0 5 1 7 3l10 13z"/>
		</g>
		<path class="fil5" d="M8344 5009c0 30-5 58-14 83-10 25-23 47-41 65-17 18-38 32-63 42-25 10-52 15-81 15-30 0-57-5-81-15-24-10-45-24-63-42-17-18-31-40-41-65-10-25-14-53-14-83 0-30 5-58 14-83 10-25 23-47 41-65 17-18 38-33 63-43 24-10 51-15 81-15 30 0 57 5 81 15 25 10 45 24 63 43 17 18 31 40 41 65 10 25 14 53 14 83zm-56 0c0-25-3-47-10-67-7-20-16-36-29-50-12-14-27-24-45-31-18-7-37-11-59-11-22 0-41 4-59 11-18 7-33 18-45 31-12 14-22 30-29 50-7 20-10 42-10 67 0 25 3 47 10 67 7 20 16 36 29 50 12 14 28 24 45 31 18 7 37 11 59 11 22 0 42-4 59-11 18-7 33-18 45-31 12-14 22-30 29-50 7-20 10-42 10-67z"/>
		<path class="fil5" d="M8533 5002c16 0 30-2 42-6 12-4 22-9 30-16 8-7 14-15 18-25 4-10 6-21 6-32 0-24-8-42-24-54-16-12-39-18-71-18l-60 0 0 152 57 0zm187 208l-48 0c-10 0-17-4-22-12l-105-144c-3-5-7-8-10-10-4-2-9-3-17-3l-41 0 0 169-54 0 0-404 114 0c26 0 48 3 66 8 19 5 34 13 46 22 12 10 21 22 27 35 6 14 9 29 9 46 0 14-2 28-7 40-5 12-11 23-20 33-9 10-19 18-31 25-12 7-26 12-42 16 7 4 13 10 18 17l118 160z"/>
		<g>
			<image transform="matrix(0.163911 0 0 0.163911 6815.04 1806.91)" x="9387" y="-11024" width="49352" height="22421" xlink:href="comment-github.gif"/>
		</g>
		<path class="fil5" d="M4941 6563c-20 0-35-6-46-17-11-11-16-27-16-48l0-155-31 0c-3 0-5-1-7-2-2-2-3-4-3-7l0-18 42-5 10-78c0-3 2-5 3-6 2-2 4-2 7-2l23 0 0 87 73 0 0 32-73 0 0 152c0 11 3 19 8 24 5 5 12 8 20 8 5 0 9-1 12-2 3-1 6-3 9-4 3-2 5-3 6-4 2-1 3-2 5-2 2 0 4 1 6 4l13 21c-8 7-17 13-28 17-11 4-22 6-34 6z"/>
		<path class="fil5" d="M5190 6347c-2 4-5 6-9 6-3 0-5-1-9-3-3-2-7-4-12-6-5-2-10-4-16-6-6-2-14-3-23-3-8 0-14 1-20 3-6 2-11 5-15 8-4 3-8 7-10 12-2 4-3 9-3 14 0 7 2 12 6 16 4 4 9 8 15 11 6 3 13 6 21 8 8 2 16 5 24 8 8 3 16 6 24 9 8 3 15 8 21 13 6 5 11 11 15 18 4 7 6 16 6 26 0 12-2 22-6 32-4 10-10 19-19 26-8 7-18 13-30 17-12 4-26 6-41 6-18 0-34-3-48-9-14-6-27-13-37-22l11-17c1-2 3-4 5-5 2-1 4-2 7-2 3 0 6 1 10 4 3 2 7 5 12 8 5 3 11 5 17 8 7 2 15 4 26 4 9 0 16-1 23-3 7-2 12-5 16-9 4-4 8-8 10-13 2-5 3-10 3-16 0-7-2-13-6-17-4-5-9-9-15-12-6-3-13-6-21-9-8-2-16-5-24-8-8-3-16-6-24-9-8-3-15-8-21-13-6-5-11-12-15-19-4-8-6-17-6-28 0-10 2-19 6-28 4-9 10-17 18-24 8-7 17-12 28-16 11-4 24-6 38-6 17 0 32 3 45 8 13 5 25 13 34 22l-10 16z"/>
		<path class="fil5" d="M5307 6305l0 254-45 0 0-254 45 0zm10-80c0 4-1 8-3 12-2 4-4 7-7 10-3 3-6 5-10 7-4 2-8 3-12 3-4 0-8-1-12-3-4-2-7-4-10-7-3-3-5-6-7-10-2-4-3-8-3-12 0-4 1-9 3-12 2-4 4-7 7-10 3-3 6-5 10-7 4-2 8-3 12-3 4 0 9 1 12 3 4 2 7 4 10 7 3 3 5 6 7 10 2 4 3 8 3 12z"/>
		<path class="fil5" d="M5372 6532c0-4 1-8 2-12 2-4 4-7 7-10 3-3 6-5 10-7 4-2 8-3 12-3 4 0 8 1 12 3 4 2 7 4 10 7 3 3 5 6 7 10 2 4 3 8 3 12 0 5-1 9-3 12-2 4-4 7-7 10-3 3-6 5-10 7-4 2-8 2-12 2-4 0-8-1-12-2-4-2-7-4-10-7-3-3-5-6-7-10-2-4-2-8-2-12z"/>
		<path class="fil5" d="M5586 6435c9 0 17-1 24-4 7-3 13-6 17-11 5-5 8-10 11-16 2-6 4-13 4-21 0-16-5-28-14-37-9-9-23-14-41-14-18 0-32 5-41 14-9 9-14 22-14 37 0 8 1 14 4 21 2 6 6 12 11 16 5 5 10 8 17 11 7 3 15 4 24 4zm80 138c0-6-2-11-5-15-4-4-8-7-14-9-6-2-13-4-21-5-8-1-16-2-25-2-9-1-18-1-27-2-9-1-18-1-26-3-9 4-17 10-23 16-6 7-9 14-9 23 0 6 2 11 4 16 3 5 7 9 13 13 6 4 14 6 23 9 9 2 20 3 32 3 12 0 23-1 32-3 10-2 18-5 24-9 7-4 12-9 15-14 4-6 5-12 5-18zm45-258l0 17c0 6-4 9-11 11l-29 4c6 11 9 23 9 37 0 12-2 24-7 34-5 10-11 19-20 26-8 7-18 13-30 17-12 4-24 6-38 6-12 0-23-1-34-4-5 3-9 7-12 11-3 4-4 8-4 11 0 6 3 11 7 14 5 3 11 5 19 7 8 1 17 2 27 3 10 0 21 1 32 2 11 1 21 2 32 4 10 2 19 5 27 9 8 4 15 10 19 17 5 7 7 17 7 29 0 11-3 21-8 32-5 10-13 19-23 27-10 8-23 14-37 19-15 5-31 7-50 7-19 0-35-2-49-6-14-4-25-9-35-15-9-6-16-13-21-21-5-8-7-17-7-25 0-13 4-23 12-32 8-9 19-16 32-21-8-3-13-8-18-13-4-6-7-13-7-23 0-4 1-8 2-11 1-4 3-8 6-12 3-4 6-8 10-11 4-4 9-7 14-9-13-7-22-16-29-28-7-12-11-25-11-40 0-12 2-24 7-34 5-10 11-19 20-26 9-7 19-13 30-16 12-4 25-6 39-6 11 0 21 1 31 4 10 2 18 6 26 11l69 0z"/>
		<path class="fil5" d="M5806 6305l0 254-45 0 0-254 45 0zm10-80c0 4-1 8-3 12-2 4-4 7-7 10-3 3-6 5-10 7-4 2-8 3-12 3-4 0-8-1-12-3-4-2-7-4-10-7-3-3-5-6-7-10-2-4-3-8-3-12 0-4 1-9 3-12 2-4 4-7 7-10 3-3 6-5 10-7 4-2 8-3 12-3 4 0 9 1 12 3 4 2 7 4 10 7 3 3 5 6 7 10 2 4 3 8 3 12z"/>
		<path class="fil5" d="M5957 6563c-20 0-35-6-46-17-11-11-16-27-16-48l0-155-31 0c-3 0-5-1-7-2-2-2-3-4-3-7l0-18 42-5 10-78c0-3 2-5 3-6 2-2 4-2 7-2l23 0 0 87 73 0 0 32-73 0 0 152c0 11 3 19 8 24 5 5 12 8 20 8 5 0 9-1 12-2 3-1 6-3 9-4 3-2 5-3 6-4 2-1 3-2 5-2 2 0 4 1 6 4l13 21c-8 7-17 13-28 17-11 4-22 6-34 6z"/>
		<path class="fil5" d="M6103 6339c11-12 23-21 36-28 13-7 28-10 46-10 14 0 26 2 37 7 11 5 19 11 27 20 7 8 12 19 16 30 4 12 6 25 6 39l0 162-45 0 0-162c0-19-4-34-13-45-9-11-22-16-40-16-13 0-25 3-37 10-11 6-22 15-32 26l0 187-45 0 0-369 45 0 0 149z"/>
		<path class="fil5" d="M6547 6305l0 254-27 0c-6 0-10-3-12-9l-4-27c-11 12-23 22-37 29-14 7-29 11-47 11-14 0-26-2-37-7-11-5-20-11-27-19-7-8-13-18-16-30-4-12-5-25-5-39l0-162 45 0 0 162c0 19 4 34 13 45 9 11 22 16 40 16 13 0 26-3 37-9 11-6 22-15 32-26l0-187 45 0z"/>
		<path class="fil5" d="M6662 6498c8 11 17 19 27 23 10 5 20 7 32 7 24 0 42-8 55-25 13-17 19-42 19-75 0-31-6-54-17-69-11-15-27-22-48-22-15 0-27 3-38 10-11 7-21 16-30 28l0 123zm0-156c11-12 23-22 36-30 13-7 29-11 46-11 15 0 28 3 40 9 12 6 22 14 30 25 8 11 15 24 19 39 4 15 7 33 7 52 0 21-3 39-8 56-5 17-12 31-22 43-9 12-21 21-34 28-14 7-29 10-46 10-17 0-31-3-42-9-11-6-21-15-30-27l-2 23c-1 6-5 10-12 10l-29 0 0-369 45 0 0 152z"/>
		<path class="fil5" d="M6890 6532c0-4 1-8 2-12 2-4 4-7 7-10 3-3 6-5 10-7 4-2 8-3 12-3 4 0 8 1 12 3 4 2 7 4 10 7 3 3 5 6 7 10 2 4 3 8 3 12 0 5-1 9-3 12-2 4-4 7-7 10-3 3-6 5-10 7-4 2-8 2-12 2-4 0-8-1-12-2-4-2-7-4-10-7-3-3-5-6-7-10-2-4-2-8-2-12z"/>
		<path class="fil5" d="M7063 6305l0 254-45 0 0-254 45 0zm10-80c0 4-1 8-3 12-2 4-4 7-7 10-3 3-6 5-10 7-4 2-8 3-12 3-4 0-8-1-12-3-4-2-7-4-10-7-3-3-5-6-7-10-2-4-3-8-3-12 0-4 1-9 3-12 2-4 4-7 7-10 3-3 6-5 10-7 4-2 8-3 12-3 4 0 9 1 12 3 4 2 7 4 10 7 3 3 5 6 7 10 2 4 3 8 3 12z"/>
		<path class="fil5" d="M7243 6301c19 0 35 3 50 9 15 6 28 15 38 26 11 11 19 25 24 41 6 16 8 34 8 54 0 20-3 38-8 54-6 16-14 30-24 41-11 11-23 20-38 26-15 6-32 9-50 9-19 0-35-3-50-9-15-6-28-15-38-26-11-11-19-25-24-41-6-16-8-34-8-54 0-20 3-38 8-54 6-16 14-30 24-41 11-11 23-20 38-26 15-6 32-9 50-9zm0 226c25 0 44-8 56-25 12-17 19-40 19-70 0-30-6-54-19-71-12-17-31-25-56-25-13 0-24 2-33 7-9 4-17 11-24 19-6 8-11 18-14 30-3 12-5 25-5 41 0 30 6 53 19 70 12 17 31 25 57 25z"/>
		<path class="fil5" d="M7445 6564c-2 6-6 10-10 13-5 3-9 4-14 4l-19 0 151-375c2-5 5-9 9-12 4-3 9-4 14-4l19 0-150 374z"/>
		<path class="fil5" d="M7711 6301l0 258-69 0 0-258 69 0zm8-73c0 6-1 11-4 16-2 5-5 9-9 13-4 4-9 7-14 9-5 2-11 3-17 3-6 0-11-1-16-3-5-2-10-5-13-9-4-4-7-8-9-13-2-5-3-10-3-16 0-6 1-11 3-16 2-5 5-10 9-13 4-4 8-7 13-9 5-2 10-3 16-3 6 0 12 1 17 3 5 2 10 5 14 9 4 4 7 8 9 13 2 5 4 11 4 16z"/>
		<path class="fil5" d="M7835 6331c5-5 11-10 16-14 6-4 12-8 18-11 6-3 13-5 20-7 7-2 15-3 24-3 14 0 26 2 37 7 11 5 20 12 27 20 7 9 13 19 17 31 4 12 6 25 6 40l0 164-69 0 0-164c0-14-3-26-10-33-7-8-17-12-30-12-10 0-19 2-27 6-9 4-17 10-24 18l0 186-69 0 0-258 43 0c9 0 14 4 17 12l4 18z"/>
		<polygon class="fil5" points="8124 6186 8124 6559 8055 6559 8055 6186 "/>
		<path class="fil5" d="M8253 6301l0 258-69 0 0-258 69 0zm8-73c0 6-1 11-4 16-2 5-5 9-9 13-4 4-9 7-14 9-5 2-11 3-17 3-6 0-11-1-16-3-5-2-10-5-13-9-4-4-7-8-9-13-2-5-3-10-3-16 0-6 1-11 3-16 2-5 5-10 9-13 4-4 8-7 13-9 5-2 10-3 16-3 6 0 12 1 17 3 5 2 10 5 14 9 4 4 7 8 9 13 2 5 4 11 4 16z"/>
		<path class="fil5" d="M8376 6331c5-5 11-10 16-14 6-4 12-8 18-11 6-3 13-5 20-7 7-2 15-3 24-3 14 0 26 2 37 7 11 5 20 12 27 20 7 9 13 19 17 31 4 12 6 25 6 40l0 164-69 0 0-164c0-14-3-26-10-33-7-8-17-12-30-12-10 0-19 2-27 6-9 4-17 10-24 18l0 186-69 0 0-258 43 0c9 0 14 4 17 12l4 18z"/>
		<path class="fil5" d="M8760 6400c0-7-1-14-3-21-2-7-5-12-9-17-4-5-9-9-16-12-6-3-14-4-23-4-17 0-29 5-39 14-9 9-15 23-18 40l108 0zm-109 41c2 24 9 42 21 53 12 11 27 17 45 17 10 0 18-1 25-3 7-2 13-5 18-8 5-3 10-5 14-8 4-2 8-3 13-3 5 0 10 2 13 6l20 25c-7 9-15 16-24 21-9 6-18 10-28 13-10 3-19 6-29 7-10 1-19 2-28 2-18 0-35-3-50-9-16-6-29-15-41-26-12-12-21-26-27-43-7-17-10-37-10-60 0-18 3-34 9-50 6-16 14-29 25-41 11-12 24-21 40-27 16-7 33-10 53-10 17 0 32 3 46 8 14 5 26 13 36 23 10 10 18 22 24 37 6 15 8 31 8 50 0 5 0 9-1 13-1 3-1 6-3 8-1 2-3 3-5 4-2 1-5 1-8 1l-155 0z"/>
		<path class="fil5" d="M9194 6377c0 27-4 51-13 73-9 22-22 42-38 58-16 16-36 29-59 38-23 9-48 14-76 14l-140 0 0-363 140 0c28 0 53 5 76 14 23 9 43 22 59 38 16 16 29 35 38 58 9 22 13 47 13 73zm-77 0c0-19-3-36-8-51-5-15-12-28-22-39-9-11-21-19-34-24-13-6-29-9-46-9l-64 0 0 246 64 0c17 0 32-3 46-8 13-6 25-14 34-24 9-11 17-23 22-39 5-15 8-32 8-52z"/>
		<path class="fil5" d="M9307 6301l0 258-69 0 0-258 69 0zm8-73c0 6-1 11-4 16-2 5-5 9-9 13-4 4-9 7-14 9-5 2-11 3-17 3-6 0-11-1-16-3-5-2-10-5-13-9-4-4-7-8-9-13-2-5-3-10-3-16 0-6 1-11 3-16 2-5 5-10 9-13 4-4 8-7 13-9 5-2 10-3 16-3 6 0 12 1 17 3 5 2 10 5 14 9 4 4 7 8 9 13 2 5 4 11 4 16z"/>
		<path class="fil5" d="M9527 6354c-2 3-4 5-6 6-2 1-5 2-8 2-3 0-7-1-10-3-4-2-7-4-12-5-4-2-9-4-15-5-6-2-12-3-19-3-11 0-20 2-26 7-6 5-9 11-9 18 0 5 2 10 5 13 4 4 8 7 14 9 6 3 12 5 20 7 7 2 15 5 23 7 8 3 15 6 23 9 7 4 14 8 20 13 6 5 10 12 14 19 4 7 5 16 5 27 0 13-2 24-7 35-5 11-11 20-20 27-9 8-20 14-33 18-13 4-28 7-46 7-9 0-18-1-26-2-9-2-17-4-25-7-8-3-15-6-22-10-7-4-13-8-18-13l16-26c2-3 4-5 7-7 3-2 6-3 11-3 4 0 8 1 12 3 4 2 7 4 12 7 4 2 10 5 15 7 6 2 13 3 22 3 7 0 12-1 17-2 5-2 9-4 12-6 3-3 5-6 7-9 1-3 2-7 2-10 0-6-2-10-5-14-4-4-8-7-14-9-6-3-12-5-20-7-8-2-15-5-23-7-8-3-15-6-23-10-7-4-14-8-20-14-6-6-10-12-14-21-4-8-5-18-5-30 0-11 2-21 6-30 4-10 10-18 19-25 8-7 19-13 31-18 12-4 27-7 43-7 18 0 35 3 50 9 15 6 27 14 37 24l-16 25z"/>
		<path class="fil5" d="M9748 6368c-7-8-14-13-21-16-8-3-16-5-24-5-8 0-16 2-23 5-7 3-13 8-18 15-5 7-9 15-11 26-3 11-4 23-4 38 0 14 1 27 3 37 2 10 5 18 9 24 4 6 9 11 15 13 6 3 12 4 20 4 12 0 22-2 31-7 8-5 16-12 23-21l0-113zm69-67l0 342-69 0 0-114c-10 10-21 19-34 25-13 6-27 9-44 9-14 0-27-3-38-9-12-6-21-14-30-26-8-11-15-25-20-41-5-16-7-35-7-56 0-19 3-37 8-54 5-17 13-31 22-43 10-12 21-21 35-28 14-7 29-10 46-10 8 0 15 1 22 2 7 1 13 3 18 6 5 3 10 6 15 9 5 4 9 8 13 12l3-13c3-8 8-12 17-12l43 0z"/>
		<path class="fil5" d="M10100 6301l0 258-43 0c-9 0-15-4-17-12l-5-18c-5 5-11 10-16 14-6 4-11 8-18 11-6 3-13 5-20 7-7 2-15 3-24 3-14 0-26-2-37-7-11-5-20-12-27-20-7-9-13-19-17-31-4-12-6-25-6-40l0-164 69 0 0 164c0 14 3 25 10 33 7 8 16 12 29 12 10 0 19-2 27-6 9-4 17-10 24-17l0-186 69 0z"/>
		<path class="fil5" d="M10318 6354c-2 3-4 5-6 6-2 1-5 2-8 2-3 0-7-1-10-3-4-2-7-4-12-5-4-2-9-4-15-5-6-2-12-3-19-3-11 0-20 2-26 7-6 5-9 11-9 18 0 5 2 10 5 13 4 4 8 7 14 9 6 3 12 5 20 7 7 2 15 5 23 7 8 3 15 6 23 9 7 4 14 8 20 13 6 5 10 12 14 19 4 7 5 16 5 27 0 13-2 24-7 35-5 11-11 20-20 27-9 8-20 14-33 18-13 4-28 7-46 7-9 0-18-1-26-2-9-2-17-4-25-7-8-3-15-6-22-10-7-4-13-8-18-13l16-26c2-3 4-5 7-7 3-2 6-3 11-3 4 0 8 1 12 3 4 2 7 4 12 7 4 2 10 5 15 7 6 2 13 3 22 3 7 0 12-1 17-2 5-2 9-4 12-6 3-3 5-6 7-9 1-3 2-7 2-10 0-6-2-10-5-14-4-4-8-7-14-9-6-3-12-5-20-7-8-2-15-5-23-7-8-3-15-6-23-10-7-4-14-8-20-14-6-6-10-12-14-21-4-8-5-18-5-30 0-11 2-21 6-30 4-10 10-18 19-25 8-7 19-13 31-18 12-4 27-7 43-7 18 0 35 3 50 9 15 6 27 14 37 24l-16 25z"/>
		<path class="fil5" d="M10540 6354c-2 3-4 5-6 6-2 1-5 2-8 2-3 0-7-1-10-3-4-2-7-4-12-5-4-2-9-4-15-5-6-2-12-3-19-3-11 0-20 2-26 7-6 5-9 11-9 18 0 5 2 10 5 13 4 4 8 7 14 9 6 3 12 5 20 7 7 2 15 5 23 7 8 3 15 6 23 9 7 4 14 8 20 13 6 5 10 12 14 19 4 7 5 16 5 27 0 13-2 24-7 35-5 11-11 20-20 27-9 8-20 14-33 18-13 4-28 7-46 7-9 0-18-1-26-2-9-2-17-4-25-7-8-3-15-6-22-10-7-4-13-8-18-13l16-26c2-3 4-5 7-7 3-2 6-3 11-3 4 0 8 1 12 3 4 2 7 4 12 7 4 2 10 5 15 7 6 2 13 3 22 3 7 0 12-1 17-2 5-2 9-4 12-6 3-3 5-6 7-9 1-3 2-7 2-10 0-6-2-10-5-14-4-4-8-7-14-9-6-3-12-5-20-7-8-2-15-5-23-7-8-3-15-6-23-10-7-4-14-8-20-14-6-6-10-12-14-21-4-8-5-18-5-30 0-11 2-21 6-30 4-10 10-18 19-25 8-7 19-13 31-18 12-4 27-7 43-7 18 0 35 3 50 9 15 6 27 14 37 24l-16 25z"/>
		<path class="fil5" d="M10672 6301l0 258-69 0 0-258 69 0zm8-73c0 6-1 11-4 16-2 5-5 9-9 13-4 4-9 7-14 9-5 2-11 3-17 3-6 0-11-1-16-3-5-2-10-5-13-9-4-4-7-8-9-13-2-5-3-10-3-16 0-6 1-11 3-16 2-5 5-10 9-13 4-4 8-7 13-9 5-2 10-3 16-3 6 0 12 1 17 3 5 2 10 5 14 9 4 4 7 8 9 13 2 5 4 11 4 16z"/>
		<path class="fil5" d="M10848 6297c19 0 37 3 53 9 16 6 29 15 41 26 11 11 20 25 26 42 6 16 9 35 9 55 0 21-3 39-9 55-6 16-15 30-26 42-11 12-25 20-41 27-16 6-33 9-53 9-20 0-37-3-53-9-16-6-30-15-41-27-11-12-20-26-26-42-6-16-9-35-9-55 0-21 3-39 9-55 6-16 15-30 26-42 11-11 25-20 41-26 16-6 34-9 53-9zm0 214c20 0 34-7 44-20 10-14 14-34 14-61 0-27-5-47-14-61-10-14-24-20-44-20-20 0-35 7-45 20-10 14-14 34-14 61 0 27 5 47 14 61 10 14 24 20 45 20z"/>
		<path class="fil5" d="M11085 6331c5-5 11-10 16-14 6-4 12-8 18-11 6-3 13-5 20-7 7-2 15-3 24-3 14 0 26 2 37 7 11 5 20 12 27 20 7 9 13 19 17 31 4 12 6 25 6 40l0 164-69 0 0-164c0-14-3-26-10-33-7-8-17-12-30-12-10 0-19 2-27 6-9 4-17 10-24 18l0 186-69 0 0-258 43 0c9 0 14 4 17 12l4 18z"/>
		<path class="fil5" d="M11465 6354c-2 3-4 5-6 6-2 1-5 2-8 2-3 0-7-1-10-3-4-2-7-4-12-5-4-2-9-4-15-5-6-2-12-3-19-3-11 0-20 2-26 7-6 5-9 11-9 18 0 5 2 10 5 13 4 4 8 7 14 9 6 3 12 5 20 7 7 2 15 5 23 7 8 3 15 6 23 9 7 4 14 8 20 13 6 5 10 12 14 19 4 7 5 16 5 27 0 13-2 24-7 35-5 11-11 20-20 27-9 8-20 14-33 18-13 4-28 7-46 7-9 0-18-1-26-2-9-2-17-4-25-7-8-3-15-6-22-10-7-4-13-8-18-13l16-26c2-3 4-5 7-7 3-2 6-3 11-3 4 0 8 1 12 3 4 2 7 4 12 7 4 2 10 5 15 7 6 2 13 3 22 3 7 0 12-1 17-2 5-2 9-4 12-6 3-3 5-6 7-9 1-3 2-7 2-10 0-6-2-10-5-14-4-4-8-7-14-9-6-3-12-5-20-7-8-2-15-5-23-7-8-3-15-6-23-10-7-4-14-8-20-14-6-6-10-12-14-21-4-8-5-18-5-30 0-11 2-21 6-30 4-10 10-18 19-25 8-7 19-13 31-18 12-4 27-7 43-7 18 0 35 3 50 9 15 6 27 14 37 24l-16 25z"/>
		<path class="fil0" d="M12261 6157l-442 0c-79 0-143 64-143 143l0 251c0 79 64 143 143 143l227 0 171 196 0-196 44 0c79 0 143-64 143-143l0-251c0-79-64-143-143-143z"/>
	</g>
</svg>
