<?xml version="1.0" encoding="UTF-8"?>
<svg xmlns="http://www.w3.org/2000/svg" xmlns:xlink="http://www.w3.org/1999/xlink" xml:space="preserve" height="460px" viewBox="0 0 19336 12591" version="1.1" baseProfile="full" style="clip-rule:evenodd;fill-rule:evenodd;image-rendering:optimizeQuality;shape-rendering:geometricPrecision;text-rendering:optimizeLegibility">
	<defs>
		<style type="text/css"><![CDATA[
			.str1 {stroke:white;stroke-width:7.65931}
			.str0 {stroke:black;stroke-width:50.2579}
			.fil7 {fill:none}
			.fil3 {fill:black}
			.fil5 {fill:#010101}
			.fil0 {fill:#E44D26}
			.fil2 {fill:#EBEBEB}
			.fil1 {fill:#F16529}
			.fil4 {fill:white}
			.fil6 {fill:black;fill-rule:nonzero}
		]]></style>
	</defs>
	<g>
		<g>
			<polygon class="fil0" points="8245 4524 7928 967 11412 967 11095 4523 9668 4919 "/>
			<polygon class="fil1" points="9670 4616 10823 4297 11094 1257 9670 1257 "/>
			<polygon class="fil2" points="9670 2577 9093 2577 9053 2130 9670 2130 9670 1694 9668 1694 8576 1694 8587 1811 8694 3013 9670 3013 "/>
			<polygon class="fil2" points="9670 3710 9668 3710 9182 3579 9151 3231 8915 3231 8713 3231 8774 3916 9668 4164 9670 4164 "/>
			<polygon class="fil3" points="8252 0 8474 0 8474 219 8676 219 8676 0 8898 0 8898 663 8676 663 8676 441 8474 441 8474 663 8252 663 8252 0 "/>
			<polygon class="fil3" points="9190 220 8994 220 8994 0 9607 0 9607 220 9411 220 9411 663 9190 663 9190 220 "/>
			<polygon class="fil3" points="9704 0 9935 0 10077 233 10219 0 10450 0 10450 663 10230 663 10230 335 10077 570 10073 570 9921 335 9921 663 9704 663 "/>
			<polygon class="fil3" points="10561 0 10783 0 10783 444 11094 444 11094 663 10561 663 "/>
			<polygon class="fil4" points="9668 2577 9668 3013 10206 3013 10155 3579 9668 3710 9668 4164 10563 3916 10569 3842 10672 2694 10683 2577 10565 2577 "/>
			<polygon class="fil4" points="9668 1694 9668 1965 9668 2129 9668 2130 10721 2130 10721 2130 10722 2130 10731 2032 10751 1811 10761 1694 "/>
		</g>
		<g>
			<g>
				<path class="fil5" d="M8900 9691c0 51-38 83-85 83l-2215 0c-47 0-85-32-85-83l0 0c0-51 38-83 85-83l2215 0c47 0 85 32 85 83l0 0z"/>
				<path class="fil5" d="M8808 9968c0 51-38 83-85 83l-2123 0c-47 0-85-32-85-83l0 0c0-51 38-83 85-83l2123 0c47 0 85 32 85 83l0 0z"/>
				<path class="fil5" d="M9175 10245c0 51-38 83-85 83l-2490 0c-47 0-85-32-85-83l0 0c0-51 38-83 85-83l2490 0c47 0 85 32 85 83l0 0z"/>
				<path class="fil5" d="M8258 10522c0 51-38 83-85 83l-1573 0c-47 0-85-32-85-83l0 0c0-51 38-83 85-83l1573 0c47 0 85 32 85 83l0 0z"/>
				<path class="fil5" d="M8992 10800c0 51-38 83-85 83l-2307 0c-47 0-85-32-85-83l0 0c0-51 38-83 85-83l2307 0c47 0 85 32 85 83l0 0z"/>
				<path class="fil5" d="M8075 11077c0 51-38 83-85 83l-1390 0c-47 0-85-32-85-83l0 0c0-51 38-83 85-83l1390 0c47 0 85 32 85 83l0 0z"/>
			</g>
			<g>
				<path class="fil4" d="M5179 9518l0 0zm0 0c105 0 191 86 191 191 0 87-60 161-140 183l0 1286c21-21 44-37 69-50 100-52 219-49 330-49 111 0 215-3 281-37 58-30 98-78 106-197-79-23-138-97-138-183 0-87 60-161 140-183l0-110c-80-22-140-96-140-183 0-87 60-161 140-183l0-110c-64-18-115-69-133-133l-283 1 0 59-95-55-95-55 95-55 95-55 0 60 284-1c23-80 96-139 183-139 105 0 191 86 191 191 0 87-60 161-140 183l0 110c80 22 140 96 140 183 0 87-60 161-140 183l0 110c80 22 140 96 140 183 0 88-61 162-142 184-11 148-73 241-161 286-99 51-217 48-328 48-111 0-216 3-284 38-62 32-104 85-113 214 79 23 138 97 138 183 0 105-86 191-191 191-105 0-191-86-191-191 0-87 60-161 140-183l0-1540c-80-22-140-96-140-183 0-105 86-191 191-191z"/>
				<path class="fil3" d="M5179 9518c-105 0-191 86-191 191 0 87 60 161 140 183l0 1540c-80 22-140 96-140 183 0 105 86 191 191 191 105 0 191-86 191-191 0-86-59-160-138-183 9-129 52-182 113-214 68-35 173-38 284-38 111 0 229 3 328-48 88-45 149-139 161-286 81-22 142-96 142-184 0-87-60-161-140-183l0-110c80-22 140-96 140-183 0-87-60-161-140-183l0-110c80-22 140-96 140-183 0-105-86-191-191-191-87 0-161 59-183 139l-284 1 0-60-95 55-95 55 95 55 95 55 0-59 283-1c18 64 69 115 133 133l0 110c-80 22-140 96-140 183 0 87 60 161 140 183l0 110c-80 22-140 96-140 183 0 86 59 160 138 183-8 119-48 167-106 197-66 34-170 37-281 37-111 0-230-2-330 49-25 13-48 30-69 50l0-1286c80-22 140-96 140-183 0-105-86-191-191-191l0 0zm0 102c50 0 89 39 89 89 0 50-39 89-89 89-50 0-89-39-89-89 0-50 39-89 89-89zm890 0c50 0 89 39 89 89 0 50-39 89-89 89-50 0-89-39-89-89 0-50 39-89 89-89zm0 477c50 0 89 39 89 89 0 50-39 89-89 89-50 0-89-39-89-89 0-50 39-89 89-89zm0 477c50 0 89 39 89 89 0 50-39 89-89 89-50 0-89-39-89-89 0-50 39-89 89-89zm-890 953c50 0 89 39 89 89 0 50-39 89-89 89-50 0-89-39-89-89 0-50 39-89 89-89z"/>
			</g>
			<polygon class="fil6" points="6864 11551 6754 11551 6754 11800 6703 11800 6703 11551 6593 11551 6593 11512 6864 11512 "/>
			<path class="fil6" d="M7093 11625c0-12-2-23-5-32-3-10-8-18-14-25-6-7-14-13-23-16-9-4-19-6-31-6-24 0-43 7-57 21-14 14-23 34-26 59l157 0zm41 135c-6 8-14 14-22 20-9 6-18 10-28 14-10 4-20 6-31 8-11 2-21 3-31 3-20 0-38-3-55-10-17-7-31-17-43-30-12-13-22-29-29-48-7-19-10-41-10-66 0-20 3-39 9-56 6-17 15-33 26-45 12-13 26-23 42-30 17-7 35-11 56-11 17 0 33 3 48 9 15 6 27 14 38 25 11 11 19 24 25 40 6 16 9 34 9 55 0 8-1 13-3 16-2 3-5 4-10 4l-192 0c1 18 3 34 8 47 4 13 11 25 19 34 8 9 17 16 28 20 11 4 23 7 37 7 13 0 24-2 33-4 9-3 17-6 24-9 7-3 12-7 17-10 4-3 8-4 11-4 4 0 7 2 10 5l14 18z"/>
			<path class="fil6" d="M7375 11527c3-4 6-8 10-10 4-3 9-4 14-4l39 0-75 110c-5 7-9 13-14 17-5 4-11 8-18 10 9 2 17 6 23 11 6 5 12 12 17 20l75 119-35 0c-9 0-16-2-21-5-5-3-9-7-13-13l-56-89c-9-15-22-22-40-22l-31 0 0 129-51 0 0-288 51 0 0 124 27 0c15 0 27-6 35-19l61-91z"/>
			<path class="fil6" d="M7682 11564c-2 2-3 4-5 5-2 1-4 2-6 2-3 0-6-1-9-4-3-2-8-5-13-8-5-3-11-5-18-8-7-2-16-3-27-3-14 0-27 2-37 7-11 5-20 12-27 22-7 9-13 21-16 34-4 13-6 28-6 45 0 17 2 33 6 46 4 14 10 25 17 34 7 9 16 16 26 21 10 5 22 7 35 7 12 0 22-2 30-4 8-3 15-6 20-10 5-4 10-7 13-10 3-3 7-4 10-4 4 0 7 2 10 5l14 18c-6 8-13 14-21 20-8 5-16 10-26 14-9 4-19 6-29 8-10 2-20 3-31 3-18 0-35-3-50-10-15-7-29-16-40-29-11-13-20-28-27-46-6-18-10-39-10-63 0-21 3-41 9-59 6-18 15-34 26-47 11-13 26-23 42-31 17-7 36-11 58-11 20 0 38 3 54 10 15 7 29 16 41 28l-13 18z"/>
			<polygon class="fil6" points="7992 11551 7882 11551 7882 11800 7831 11800 7831 11551 7721 11551 7721 11512 7992 11512 "/>
		</g>
		<g>
			<g>
				<path class="fil4" d="M237 9340l2313 0c22 0 40 18 40 40l0 1719c0 22-18 40-40 40l-2313 0c-22 0-40-18-40-40l0-1719c0-22 18-40 40-40z"/>
				<polygon class="fil7" points="1289 10645 1359 10645 1509 10139 1438 10139 "/>
				<polygon class="fil7" points="1549 10320 1808 10431 1808 10433 1549 10544 1549 10618 1885 10464 1885 10400 1549 10246 "/>
				<path class="fil7" d="M2398 9572c-2-2-4-2-6-3 0 0 0 0 0 0l-1817 0c-5 0-9 4-9 9l0 61c0 5 4 9 9 9l1817 0c5 0 9-4 9-9l0 0 0-61c0 0 0 0 0 0 0 0 0 0 0 0 0-2-1-5-3-6 0 0 0 0 0 0z"/>
				<polygon class="fil7" points="295 9575 257 9608 295 9641 295 9627 325 9627 325 9590 295 9590 "/>
				<polygon class="fil7" points="388 9575 388 9590 388 9590 358 9590 358 9590 358 9627 388 9627 388 9641 388 9641 426 9608 426 9608 388 9575 "/>
				<polygon class="fil7" points="902 10462 1237 10618 1237 10544 984 10433 984 10431 1237 10320 1237 10246 902 10402 "/>
				<polygon class="fil7" points="447 9606 460 9606 460 9644 480 9644 480 9622 494 9622 494 9644 514 9644 514 9644 514 9606 527 9606 527 9606 487 9569 "/>
				<path class="fil7" d="M2518 9575c-1 0-1 0-2 0l-6 4-1 0c-3-3-7-6-12-8-5-2-9-3-14-3-5 0-10 1-14 3-5 2-8 5-12 8-3 3-6 7-8 12-2 4-3 9-3 14 0 5 1 10 3 14 2 4 5 8 8 12 3 3 7 6 12 8 5 2 9 3 14 3 3 0 6 0 9-1 3-1 6-2 8-3 3-1 5-3 7-5 2-2 4-4 6-7 0 0 0-1 0-1 0-1 0-1-1-1l-9-6c0 0-1 0-2 0-1 0-1 0-1 1-2 3-5 5-8 7-3 2-7 3-10 3-3 0-6-1-8-2-3-1-5-3-7-5-2-2-4-4-5-7-1-3-2-6-2-9 0-3 1-6 2-8 1-3 3-5 5-7 2-2 4-4 7-5 3-1 6-2 8-2 3 0 5 0 7 1 2 1 4 2 6 3l-1 1-6 4c0 0-1 1-1 2 0 1 1 1 1 1l27 9c1 0 1 0 2 0 0 0 1-1 1-1l0-28c0-1 0-1-1-1z"/>
				<path class="fil7" d="M2557 11116c6-3 11-9 11-17 0 7-4 14-11 17z"/>
				<path class="fil7" d="M2568 9380c0-10-8-18-18-18l-2313 0c-10 0-18 8-18 18l0 128 2349 0 0-128zm-207 77c-12 0-22-10-22-22 0-12 10-22 22-22 12 0 22 10 22 22 0 12-10 22-22 22zm68 0c-12 0-22-10-22-22 0-12 10-22 22-22 12 0 22 10 22 22 0 12-10 22-22 22zm68 0c-12 0-23-10-23-22 0-12 10-22 23-22 12 0 22 10 22 22 0 12-10 22-22 22z"/>
				<polygon class="fil7" points="2568 11099 2568 9708 2568 9708 "/>
				<circle class="fil3" cx="2361" cy="9435" r="22"/>
				<circle class="fil3" cx="2428" cy="9435" r="22"/>
				<circle class="fil3" cx="2496" cy="9435" r="22"/>
				<path class="fil3" d="M2550 9340l-2313 0c-22 0-40 18-40 40l0 1719c0 22 18 40 40 40l2313 0c22 0 40-18 40-40l0-1719c0-22-18-40-40-40zm-2225 287l-30 0 0 15-38-33 38-33 0 15 30 0 0 37zm101-18l-38 33 0 0 0-15-30 0 0-37 0 0 30 0 0 0 0-15 0 0 38 33 0 0zm101-2l-13 0 0 37 0 0-21 0 0-21-14 0 0 21-20 0 0-37-13 0 40-37 40 37 0 0zm710 714l-253 111 0 1 253 111 0 74-335-156 0-60 335-156 0 74zm122 325l-71 0 149-506 70 0-149 506zm525-182l-335 154 0-74 259-111 0-1-259-111 0-74 335 154 0 64zm516-886c0 0 0 0 0 0l0 61 0 0c0 5-4 9-9 9l-1817 0c-5 0-9-4-9-9l0-61c0-5 4-9 9-9l1817 0c0 0 0 0 0 0 2 0 5 1 6 3 0 0 0 0 0 0 2 2 3 4 3 6 0 0 0 0 0 0zm117 28c-1 0-1 0-2 0l-27-9c-1 0-1-1-1-1 0-1 0-1 1-2l6-4 1-1c-2-1-4-3-6-3-2-1-5-1-7-1-3 0-6 1-8 2-3 1-5 3-7 5-2 2-4 4-5 7-1 3-2 6-2 8 0 3 1 6 2 9 1 3 3 5 5 7 2 2 4 4 7 5 3 1 6 2 8 2 4 0 7-1 10-3 3-2 6-4 8-7 0 0 1-1 1-1 1 0 1 0 2 0l9 6c0 0 1 1 1 1 0 0 0 1 0 1-2 3-4 5-6 7-2 2-5 4-7 5-3 1-5 2-8 3-3 1-6 1-9 1-5 0-10-1-14-3-5-2-8-5-12-8-3-3-6-7-8-12-2-5-3-9-3-14 0-5 1-10 3-14 2-4 5-8 8-12 3-3 7-6 12-8 5-2 9-3 14-3 5 0 10 1 14 3 4 2 8 5 12 8l1 0 6-4c1 0 1 0 2 0 1 0 1 1 1 1l0 28c0 1 0 1-1 1zm-2299-98l0-128c0-10 8-18 18-18l2313 0c10 0 18 8 18 18l0 128-2349 0zm2349 1591c0 7-4 14-11 17 6-3 11-9 11-17l0-1392 0 0 0 1392z"/>
			</g>
			<path class="fil6" d="M627 11677c25 0 44-8 56-24 13-16 19-38 19-66 0-28-6-50-18-66-12-16-30-24-55-24-12 0-22 2-32 6-9 4-17 9-24 16-7 7-12 16-15 26-4 10-5 22-5 36 0 15 2 29 5 40 3 12 8 22 14 30 6 8 14 15 23 19 9 4 20 7 32 7zm17-281c-17 1-31 5-43 11-12 6-22 14-30 24-8 10-14 22-18 37-4 14-6 30-7 48 4-8 9-15 15-22 6-6 13-12 22-16 8-5 17-8 26-10 10-2 20-4 30-4 17 0 32 3 45 9 13 6 25 14 34 25 9 11 16 24 21 39 5 15 7 32 7 50 0 19-3 36-9 51-6 15-14 28-24 39-11 11-23 19-38 25-15 6-31 9-50 9-17 0-33-3-47-8-15-6-27-15-38-28-11-13-19-30-25-51-6-21-9-47-9-78 0-26 2-51 7-73 5-22 13-41 23-58 11-16 24-30 41-40 17-10 38-16 62-18l90-8 2 23c0 5 0 9-2 13-2 3-6 5-11 6l-76 6z"/>
			<path class="fil6" d="M849 11645c8 11 17 19 27 23 10 4 20 7 32 7 23 0 42-8 54-25 13-17 19-41 19-71 0-16-1-30-4-42-3-12-7-21-13-29-5-8-12-13-20-16-8-3-17-5-27-5-14 0-27 3-38 10-11 7-21 16-30 28l0 122zm-2-152c11-13 23-24 37-32 14-8 30-12 48-12 15 0 28 3 39 8 12 6 22 14 30 25 8 11 15 24 19 40 4 16 7 35 7 55 0 19-2 36-7 52-5 16-12 30-21 41-9 12-21 21-34 28-13 7-29 10-46 10-15 0-29-3-40-8-11-5-21-12-29-22l0 111-44 0 0-337 27 0c6 0 10 3 12 9l4 30z"/>
			<path class="fil6" d="M1219 11593c-20 1-38 2-52 5-14 3-26 6-35 10-9 4-16 9-20 15-4 6-6 12-6 19 0 7 1 12 3 17 2 5 5 9 9 12 4 3 8 5 13 7 5 1 10 2 16 2 8 0 15-1 21-2 6-2 13-4 18-7 6-3 11-7 16-11 5-4 10-9 15-14l0-52zm-143-103c14-13 29-23 45-30 16-7 34-10 53-10 14 0 27 2 37 7 11 5 20 11 28 19 7 8 13 18 17 30 4 12 6 25 6 39l0 161-20 0c-4 0-8-1-10-2-2-1-4-4-5-8l-5-24c-7 6-13 11-19 16-6 5-13 9-20 12-7 3-14 6-22 7-8 2-17 3-26 3-10 0-19-1-28-4-9-3-16-7-22-12-6-5-11-12-15-21-4-8-6-18-6-30 0-10 3-20 8-29 5-9 14-17 27-24 12-7 28-13 48-18 20-5 44-7 72-8l0-20c0-20-4-34-13-44-8-10-21-15-37-15-11 0-20 1-27 4-7 3-14 6-19 9-5 3-10 6-14 9-4 3-8 4-12 4-3 0-6-1-8-2-2-2-4-3-5-6l-8-14z"/>
			<path class="fil6" d="M1540 11455l-140 326c-1 3-3 6-6 8-2 2-6 3-10 3l-33 0 46-100-104-237 38 0c4 0 7 1 9 3 2 2 4 4 5 6l67 158c3 7 5 14 7 22 2-8 5-15 7-22l65-158c1-3 3-5 5-7 2-2 5-3 8-3l35 0z"/>
			<path class="fil6" d="M1561 11480c9-9 21-16 34-22 13-5 30-8 49-8 15 0 29 2 40 6 12 4 21 9 29 15 8 6 14 13 18 21 4 8 6 16 6 24 0 5-1 10-2 16-2 5-4 11-8 16-4 5-8 10-14 14-6 4-13 8-22 10 16 5 29 12 38 23 9 11 14 24 14 39 0 12-3 22-8 31-5 9-12 17-21 24-9 7-19 12-31 15-12 3-24 5-37 5-8 0-16-1-25-2-8-1-17-4-24-7-8-3-15-7-22-12-7-5-13-11-19-17l12-16c2-3 5-4 8-4 3 0 6 1 10 4 3 3 8 5 12 9 5 3 11 6 18 9 7 3 16 4 26 4 9 0 17-1 24-3 7-2 13-5 18-9 5-4 9-9 11-14 3-5 4-11 4-18 0-12-5-22-15-30-10-8-26-11-47-11l-29 0 0-29 29 0c9 0 17-1 25-3 7-2 13-4 19-8 5-3 9-7 12-12 3-5 4-10 4-15 0-5-1-10-3-14-2-4-6-8-10-12-5-3-10-6-17-8-7-2-15-3-24-3-10 0-18 1-25 3-7 2-13 4-17 6-5 2-9 4-12 6-3 2-6 3-8 3-2 0-4 0-5-1-1-1-3-3-5-5l-10-17z"/>
			<path class="fil6" d="M1968 11553c0-10-1-20-4-28-3-9-7-16-13-22-6-6-12-11-20-14-8-3-17-5-27-5-21 0-38 6-50 18-12 12-20 29-23 51l138 0zm36 118c-5 7-12 12-20 17-8 5-16 9-24 12-9 3-18 5-27 7-9 2-18 2-28 2-17 0-33-3-48-9-15-6-27-14-38-26-11-11-19-25-25-42-6-17-9-36-9-58 0-18 3-34 8-49 5-15 13-28 23-40 10-11 22-20 37-26 15-6 31-10 49-10 15 0 29 2 42 8 13 5 24 12 33 22 9 10 17 21 22 35 5 14 8 30 8 48 0 7-1 12-2 14-1 2-4 3-8 3l-168 0c0 16 3 30 7 41 4 12 9 22 16 29 7 8 15 14 25 18 10 4 20 6 32 6 11 0 21-1 29-4 8-3 15-5 21-8 6-3 11-6 15-8 4-3 7-4 10-4 4 0 6 1 8 4l12 16z"/>
			<path class="fil6" d="M2107 11645c8 11 17 19 27 23 10 4 20 7 32 7 23 0 42-8 54-25 13-17 19-41 19-71 0-16-1-30-4-42-3-12-7-21-13-29-5-8-12-13-20-16-8-3-17-5-27-5-14 0-27 3-38 10-11 7-21 16-30 28l0 122zm-2-152c11-13 23-24 37-32 14-8 30-12 48-12 15 0 28 3 39 8 12 6 22 14 30 25 8 11 15 24 19 40 4 16 7 35 7 55 0 19-2 36-7 52-5 16-12 30-21 41-9 12-21 21-34 28-13 7-29 10-46 10-15 0-29-3-40-8-11-5-21-12-29-22l0 111-44 0 0-337 27 0c6 0 10 3 12 9l4 30z"/>
		</g>
		<g>
			<path class="fil6" d="M10954 9524l95 53c5 3 8 5 10 7 2 2 2 5 2 8 0 4-1 7-4 10-3 3-6 4-10 4-3 0-6-1-12-4l-141-79 141-78c5-3 9-4 11-4 4 0 7 1 10 4 3 3 4 6 4 10 0 3-1 6-2 8-2 2-5 4-10 7l-95 53z"/>
			<path class="fil6" d="M11192 9512c-5-3-10-5-15-7-5-2-11-2-16-2-11 0-20 2-27 6-3 2-4 3-4 5 0 2 2 4 6 6 3 2 10 3 20 4 19 3 33 5 40 8 10 4 18 9 23 16 5 7 8 14 8 22 0 10-5 19-14 26-13 10-30 15-51 15-8 0-16-1-23-2-7-1-14-4-20-6-1 1-3 2-5 3-2 1-3 1-5 1-5 0-8-2-11-4-3-3-4-8-4-15l0-10c0-7 1-12 4-15 3-3 6-4 11-4 4 0 6 1 9 3 2 2 4 5 6 10 4 4 10 7 16 9 6 2 13 3 22 3 13 0 24-2 31-6 4-2 5-4 5-7 0-4-2-7-7-9-5-2-15-5-31-6-23-2-39-7-47-14-8-7-12-16-12-26 0-10 4-19 13-26 12-9 28-14 47-14 7 0 13 1 19 2 6 1 12 3 18 6 2-1 4-2 5-3 2-1 3-1 4-1 4 0 7 2 10 4 3 3 4 8 4 15l0 7c0 6-1 11-2 13-3 4-7 7-13 7-4 0-7-1-9-3-3-2-4-5-5-9z"/>
			<path class="fil6" d="M11409 9558l-120 0c3 8 8 14 16 18 8 5 18 7 32 7 11 0 25-2 43-7 7-2 13-3 15-3 4 0 7 1 10 4 3 3 4 6 4 10 0 4-1 7-4 10-4 4-13 7-28 10-15 3-29 5-43 5-23 0-42-7-56-20-14-13-21-29-21-49 0-21 8-37 23-50 15-13 33-19 52-19 12 0 23 2 33 6 10 4 17 9 22 14 7 7 13 16 17 26 3 7 5 16 5 25l0 12zm-32-29c-4-8-10-15-18-19-7-4-16-6-26-6-10 0-18 2-26 6-7 4-13 10-18 19l87 0z"/>
			<path class="fil6" d="M11557 9483c4-3 7-5 11-5 4 0 8 2 10 4 3 3 4 8 4 15l0 19c0 7-1 12-4 15-3 3-6 4-11 4-4 0-7-1-10-3-2-2-4-5-5-11-1-5-4-9-8-12-8-4-18-7-30-7-14 0-25 4-33 12-8 8-13 18-13 31 0 11 4 20 12 27 8 7 21 10 40 10 12 0 22-1 30-4 5-2 9-4 13-8 4-4 8-6 11-6 4 0 7 1 10 4 3 3 4 6 4 10 0 6-4 13-13 18-13 9-32 13-58 13-23 0-40-5-53-14-17-13-26-30-26-52 0-21 7-38 21-52 14-14 32-20 54-20 8 0 16 1 23 2 7 2 13 4 19 7z"/>
			<path class="fil6" d="M11680 9507l0 59c0 6 1 10 4 12 4 3 11 5 21 5 15 0 29-3 41-9 5-2 9-4 11-4 4 0 7 1 10 4 3 3 4 6 4 10 0 4-2 7-5 10-5 4-14 9-28 12-14 4-25 6-35 6-18 0-32-4-41-12-9-8-14-17-14-29l0-64-11 0c-7 0-12-1-15-4-3-3-4-6-4-11 0-4 2-8 4-10 3-3 8-4 15-4l11 0 0-26c0-7 1-12 4-15 3-3 6-4 11-4 4 0 8 2 10 4 3 3 4 8 4 15l0 26 54 0c7 0 12 1 15 4 3 3 4 6 4 11 0 4-2 8-4 11-3 3-8 4-15 4l-54 0z"/>
			<path class="fil6" d="M11873 9423l0 31-35 0 0-31 35 0zm4 56l0 100 35 0c7 0 12 1 15 4 3 3 4 6 4 11 0 4-2 8-4 11-3 3-8 4-15 4l-99 0c-7 0-12-1-15-4-3-3-4-6-4-11 0-4 2-8 4-11 3-3 8-4 15-4l35 0 0-71-24 0c-7 0-12-1-15-4-3-3-4-6-4-11 0-4 2-8 4-11 3-3 8-4 15-4l53 0z"/>
			<path class="fil6" d="M12114 9545c0 11-3 22-9 33-6 11-15 19-28 25-12 6-25 9-39 9-13 0-26-3-38-9-12-6-21-15-28-25-6-11-10-22-10-33 0-12 3-23 10-34 6-11 16-20 28-27 12-6 25-10 38-10 13 0 26 3 38 10 12 7 22 15 28 27 6 11 9 23 9 34zm-29 0c0-9-3-18-10-26-9-11-21-16-36-16-13 0-24 4-33 13-9 8-13 18-13 29 0 9 4 18 13 26 9 8 20 12 33 12 13 0 24-4 33-12 9-8 13-17 13-26z"/>
			<path class="fil6" d="M12184 9478l0 10c5-5 11-8 18-10 6-2 13-3 21-3 17 0 31 5 41 16 8 9 12 20 12 34l0 54c7 0 12 1 15 4 3 3 4 6 4 11 0 4-2 8-4 11-3 3-8 4-15 4l-29 0c-7 0-12-1-15-4-3-3-4-6-4-11 0-4 2-8 4-11 3-3 8-4 15-4l0-55c0-6-2-11-5-14-4-4-11-6-20-6-7 0-13 1-18 4-5 3-11 8-19 17l0 54c7 0 12 1 14 3 4 4 6 8 6 12 0 4-2 8-4 11-3 3-8 4-15 4l-29 0c-7 0-12-1-15-4-3-3-4-6-4-11 0-4 2-8 6-12 2-2 7-3 14-3l0-71c-7 0-12-1-15-4-3-3-4-6-4-11 0-4 2-8 4-11 3-3 8-4 15-4l29 0z"/>
			<path class="fil6" d="M12420 9524l-95-53c-5-3-8-5-10-7-2-2-2-5-2-8 0-4 1-8 4-10 3-3 6-4 10-4 2 0 6 1 11 4l141 78-141 79c-5 3-9 4-11 4-4 0-7-1-10-4-3-3-4-6-4-11 0-3 1-6 2-8 2-2 5-4 10-7l95-53z"/>
			<path class="fil6" d="M11305 9855l95 53c5 3 8 5 10 7 2 2 2 5 2 8 0 4-1 7-4 10-3 3-6 4-10 4-3 0-6-1-12-4l-141-79 141-78c5-3 9-4 11-4 4 0 7 1 10 4 3 3 4 6 4 10 0 3-1 6-2 8-2 2-5 4-10 7l-95 53z"/>
			<path class="fil6" d="M11481 9754l0 62c6-4 12-6 18-8 6-2 13-3 19-3 10 0 19 2 27 5 8 3 14 9 20 16 5 7 8 17 8 28l0 55c7 0 12 1 14 3 4 4 6 8 6 12 0 4-2 8-4 11-3 3-8 4-15 4l-29 0c-7 0-12-1-15-4-3-3-4-6-4-11 0-4 2-8 6-12 2-2 7-3 14-3l0-53c0-8-2-13-5-16-4-4-11-6-20-6-6 0-12 1-17 4-5 3-12 8-20 16l0 55c7 0 12 1 14 3 4 4 6 8 6 12 0 4-2 8-4 11-3 3-8 4-15 4l-29 0c-7 0-12-1-15-4-3-3-4-6-4-11 0-4 2-8 6-12 2-2 7-3 14-3l0-127-5 0c-7 0-12-1-15-4-3-3-4-6-4-11 0-4 2-8 4-11 3-3 8-4 15-4l34 0z"/>
			<path class="fil6" d="M11702 9749l0 160 30 0c7 0 12 1 15 4 3 3 4 6 4 11 0 4-2 8-4 11-3 3-8 4-15 4l-88 0c-7 0-12-1-15-4-3-3-4-6-4-11 0-4 2-8 4-11 3-3 8-4 15-4l30 0 0-122-26 7c-4 1-7 2-9 2-4 0-7-1-10-4-3-3-4-7-4-11 0-4 1-7 3-9 2-2 6-4 13-6l63-16z"/>
			<path class="fil6" d="M11894 9855l-95-53c-5-3-8-5-10-7-2-2-2-5-2-8 0-4 1-8 4-10 3-3 6-4 10-4 2 0 6 1 11 4l141 78-141 79c-5 3-9 4-11 4-4 0-7-1-10-4-3-3-4-6-4-11 0-3 1-6 2-8 2-2 5-4 10-7l95-53z"/>
			<path class="fil6" d="M12060 9924c0 5-2 10-6 14-4 4-9 6-16 6-7 0-12-2-16-6-4-4-6-8-6-14 0-6 2-10 6-14 4-4 9-6 16-6 7 0 12 2 16 6 4 4 6 8 6 14z"/>
			<path class="fil6" d="M12235 9924c0 5-2 10-6 14-4 4-9 6-16 6-7 0-12-2-16-6-4-4-6-8-6-14 0-6 2-10 6-14 4-4 9-6 16-6 7 0 12 2 16 6 4 4 6 8 6 14z"/>
			<path class="fil6" d="M12410 9924c0 5-2 10-6 14-4 4-9 6-16 6-7 0-12-2-16-6-4-4-6-8-6-14 0-6 2-10 6-14 4-4 9-6 16-6 7 0 12 2 16 6 4 4 6 8 6 14z"/>
			<path class="fil6" d="M12532 9855l95 53c5 3 8 5 10 7 2 2 2 5 2 8 0 4-1 7-4 10-3 3-6 4-10 4-3 0-6-1-12-4l-141-79 141-78c5-3 9-4 11-4 4 0 7 1 10 4 3 3 4 6 4 10 0 3-1 6-2 8-2 2-5 4-10 7l-95 53z"/>
			<path class="fil6" d="M12799 9758l-94 202c-2 5-5 8-6 10-2 2-5 3-9 3-4 0-7-1-10-4-3-3-4-6-4-10 0-3 1-6 3-11l94-202c2-5 4-8 6-10 3-2 6-3 9-3 4 0 7 1 10 4 3 3 4 6 4 10 0 3-1 6-3 11z"/>
			<path class="fil6" d="M12885 9754l0 62c6-4 12-6 18-8 6-2 13-3 19-3 10 0 19 2 27 5 8 3 14 9 20 16 5 7 8 17 8 28l0 55c7 0 12 1 14 3 4 4 6 8 6 12 0 4-2 8-4 11-3 3-8 4-15 4l-29 0c-7 0-12-1-15-4-3-3-4-6-4-11 0-4 2-8 6-12 2-2 7-3 14-3l0-53c0-8-2-13-5-16-4-4-11-6-20-6-6 0-12 1-17 4-5 3-12 8-20 16l0 55c7 0 12 1 14 3 4 4 6 8 6 12 0 4-2 8-4 11-3 3-8 4-15 4l-29 0c-7 0-12-1-15-4-3-3-4-6-4-11 0-4 2-8 6-12 2-2 7-3 14-3l0-127-5 0c-7 0-12-1-15-4-3-3-4-6-4-11 0-4 2-8 4-11 3-3 8-4 15-4l34 0z"/>
			<path class="fil6" d="M13105 9749l0 160 30 0c7 0 12 1 15 4 3 3 4 6 4 11 0 4-2 8-4 11-3 3-8 4-15 4l-88 0c-7 0-12-1-15-4-3-3-4-6-4-11 0-4 2-8 4-11 3-3 8-4 15-4l30 0 0-122-26 7c-4 1-7 2-9 2-4 0-7-1-10-4-3-3-4-7-4-11 0-4 1-7 3-9 2-2 6-4 13-6l63-16z"/>
			<path class="fil6" d="M13297 9855l-95-53c-5-3-8-5-10-7-2-2-2-5-2-8 0-4 1-8 4-10 3-3 6-4 10-4 2 0 6 1 11 4l141 78-141 79c-5 3-9 4-11 4-4 0-7-1-10-4-3-3-4-6-4-11 0-3 1-6 2-8 2-2 5-4 10-7l95-53z"/>
			<path class="fil6" d="M11305 10186l95 53c5 3 8 5 10 7 2 2 2 5 2 8 0 4-1 7-4 10-3 3-6 4-10 4-3 0-6-1-12-4l-141-79 141-78c5-3 9-4 11-4 4 0 7 1 10 4 3 3 4 6 4 10 0 3-1 6-2 8-2 2-5 4-10 7l-95 53z"/>
			<path class="fil6" d="M11543 10174c-5-3-10-5-15-7-5-2-11-2-16-2-11 0-20 2-27 6-3 2-4 3-4 5 0 2 2 4 6 6 3 2 10 3 20 4 19 3 33 5 40 8 10 4 18 9 23 16 5 7 8 14 8 22 0 10-5 19-14 26-13 10-30 15-51 15-8 0-16-1-23-2-7-1-14-4-20-6-1 1-3 2-5 3-2 1-3 1-5 1-5 0-8-2-11-4-3-3-4-8-4-15l0-10c0-7 1-12 4-15 3-3 6-4 11-4 4 0 6 1 9 3 2 2 4 5 6 10 4 4 10 7 16 9 6 2 13 3 22 3 13 0 24-2 31-6 4-2 5-4 5-7 0-4-2-7-7-9-5-2-15-5-31-6-23-2-39-7-47-14-8-7-12-16-12-26 0-10 4-19 13-26 12-9 28-14 47-14 7 0 13 1 19 2 6 1 12 3 18 6 2-1 4-2 5-3 2-1 3-1 4-1 4 0 7 2 10 4 3 3 4 8 4 15l0 7c0 6-1 11-2 13-3 4-7 7-13 7-4 0-7-1-9-3-3-2-4-5-5-9z"/>
			<path class="fil6" d="M11760 10220l-120 0c3 8 8 14 16 18 8 5 18 7 32 7 11 0 25-2 43-7 7-2 13-3 15-3 4 0 7 1 10 4 3 3 4 6 4 10 0 4-1 7-4 10-4 4-13 7-28 10-15 3-29 5-43 5-23 0-42-7-56-20-14-13-21-29-21-49 0-21 8-37 23-50 15-13 33-19 52-19 12 0 23 2 33 6 10 4 17 9 22 14 7 7 13 16 17 26 3 7 5 16 5 25l0 12zm-32-29c-4-8-10-15-18-19-7-4-16-6-26-6-10 0-18 2-26 6-7 4-13 10-18 19l87 0z"/>
			<path class="fil6" d="M11908 10145c4-3 7-5 11-5 4 0 8 2 10 4 3 3 4 8 4 15l0 19c0 7-1 12-4 15-3 3-6 4-11 4-4 0-7-1-10-3-2-2-4-5-5-11-1-5-4-9-8-12-8-4-18-7-30-7-14 0-25 4-33 12-8 8-13 18-13 31 0 11 4 20 12 27 8 7 21 10 40 10 12 0 22-1 30-4 5-2 9-4 13-8 4-4 8-6 11-6 4 0 7 1 10 4 3 3 4 6 4 10 0 6-4 13-13 18-13 9-32 13-58 13-23 0-40-5-53-14-17-13-26-30-26-52 0-21 7-38 21-52 14-14 32-20 54-20 8 0 16 1 23 2 7 2 13 4 19 7z"/>
			<path class="fil6" d="M12030 10170l0 59c0 6 1 10 4 12 4 3 11 5 21 5 15 0 29-3 41-9 5-2 9-4 11-4 4 0 7 1 10 4 3 3 4 6 4 10 0 4-2 7-5 10-5 4-14 9-28 12-14 4-25 6-35 6-18 0-32-4-41-12-9-8-14-17-14-29l0-64-11 0c-7 0-12-1-15-4-3-3-4-6-4-11 0-4 2-8 4-10 3-3 8-4 15-4l11 0 0-26c0-7 1-12 4-15 3-3 6-4 11-4 4 0 8 2 10 4 3 3 4 8 4 15l0 26 54 0c7 0 12 1 15 4 3 3 4 6 4 11 0 4-2 8-4 11-3 3-8 4-15 4l-54 0z"/>
			<path class="fil6" d="M12224 10085l0 31-35 0 0-31 35 0zm4 56l0 100 35 0c7 0 12 1 15 4 3 3 4 6 4 11 0 4-2 8-4 11-3 3-8 4-15 4l-99 0c-7 0-12-1-15-4-3-3-4-6-4-11 0-4 2-8 4-11 3-3 8-4 15-4l35 0 0-71-24 0c-7 0-12-1-15-4-3-3-4-6-4-11 0-4 2-8 4-11 3-3 8-4 15-4l53 0z"/>
			<path class="fil6" d="M12464 10207c0 11-3 22-9 33-6 11-15 19-28 25-12 6-25 9-39 9-13 0-26-3-38-9-12-6-21-15-28-25-6-11-10-22-10-33 0-12 3-23 10-34 6-11 16-20 28-27 12-6 25-10 38-10 13 0 26 3 38 10 12 7 22 15 28 27 6 11 9 23 9 34zm-29 0c0-9-3-18-10-26-9-11-21-16-36-16-13 0-24 4-33 13-9 8-13 18-13 29 0 9 4 18 13 26 9 8 20 12 33 12 13 0 24-4 33-12 9-8 13-17 13-26z"/>
			<path class="fil6" d="M12534 10140l0 10c5-5 11-8 18-10 6-2 13-3 21-3 17 0 31 5 41 16 8 9 12 20 12 34l0 54c7 0 12 1 15 4 3 3 4 6 4 11 0 4-2 8-4 11-3 3-8 4-15 4l-29 0c-7 0-12-1-15-4-3-3-4-6-4-11 0-4 2-8 4-11 3-3 8-4 15-4l0-55c0-6-2-11-5-14-4-4-11-6-20-6-7 0-13 1-18 4-5 3-11 8-19 17l0 54c7 0 12 1 14 3 4 4 6 8 6 12 0 4-2 8-4 11-3 3-8 4-15 4l-29 0c-7 0-12-1-15-4-3-3-4-6-4-11 0-4 2-8 6-12 2-2 7-3 14-3l0-71c-7 0-12-1-15-4-3-3-4-6-4-11 0-4 2-8 4-11 3-3 8-4 15-4l29 0z"/>
			<path class="fil6" d="M12771 10186l-95-53c-5-3-8-5-10-7-2-2-2-5-2-8 0-4 1-8 4-10 3-3 6-4 10-4 2 0 6 1 11 4l141 78-141 79c-5 3-9 4-11 4-4 0-7-1-10-4-3-3-4-6-4-11 0-3 1-6 2-8 2-2 5-4 10-7l95-53z"/>
			<path class="fil6" d="M11655 10518l95 53c5 3 8 5 10 7 2 2 2 5 2 8 0 4-1 7-4 10-3 3-6 4-10 4-3 0-6-1-12-4l-141-79 141-78c5-3 9-4 11-4 4 0 7 1 10 4 3 3 4 6 4 10 0 3-1 6-2 8-2 2-5 4-10 7l-95 53z"/>
			<path class="fil6" d="M11832 10416l0 62c6-4 12-6 18-8 6-2 13-3 19-3 10 0 19 2 27 5 8 3 14 9 20 16 5 7 8 17 8 28l0 55c7 0 12 1 14 3 4 4 6 8 6 12 0 4-2 8-4 11-3 3-8 4-15 4l-29 0c-7 0-12-1-15-4-3-3-4-6-4-11 0-4 2-8 6-12 2-2 7-3 14-3l0-53c0-8-2-13-5-16-4-4-11-6-20-6-6 0-12 1-17 4-5 3-12 8-20 16l0 55c7 0 12 1 14 3 4 4 6 8 6 12 0 4-2 8-4 11-3 3-8 4-15 4l-29 0c-7 0-12-1-15-4-3-3-4-6-4-11 0-4 2-8 6-12 2-2 7-3 14-3l0-127-5 0c-7 0-12-1-15-4-3-3-4-6-4-11 0-4 2-8 4-11 3-3 8-4 15-4l34 0z"/>
			<path class="fil6" d="M12053 10412l0 160 30 0c7 0 12 1 15 4 3 3 4 6 4 11 0 4-2 8-4 11-3 3-8 4-15 4l-88 0c-7 0-12-1-15-4-3-3-4-6-4-11 0-4 2-8 4-11 3-3 8-4 15-4l30 0 0-122-26 7c-4 1-7 2-9 2-4 0-7-1-10-4-3-3-4-7-4-11 0-4 1-7 3-9 2-2 6-4 13-6l63-16z"/>
			<path class="fil6" d="M12245 10518l-95-53c-5-3-8-5-10-7-2-2-2-5-2-8 0-4 1-8 4-10 3-3 6-4 10-4 2 0 6 1 11 4l141 78-141 79c-5 3-9 4-11 4-4 0-7-1-10-4-3-3-4-6-4-11 0-3 1-6 2-8 2-2 5-4 10-7l95-53z"/>
			<path class="fil6" d="M12410 10586c0 5-2 10-6 14-4 4-9 6-16 6-7 0-12-2-16-6-4-4-6-8-6-14 0-6 2-10 6-14 4-4 9-6 16-6 7 0 12 2 16 6 4 4 6 8 6 14z"/>
			<path class="fil6" d="M12586 10586c0 5-2 10-6 14-4 4-9 6-16 6-7 0-12-2-16-6-4-4-6-8-6-14 0-6 2-10 6-14 4-4 9-6 16-6 7 0 12 2 16 6 4 4 6 8 6 14z"/>
			<path class="fil6" d="M12761 10586c0 5-2 10-6 14-4 4-9 6-16 6-7 0-12-2-16-6-4-4-6-8-6-14 0-6 2-10 6-14 4-4 9-6 16-6 7 0 12 2 16 6 4 4 6 8 6 14z"/>
			<path class="fil6" d="M12883 10518l95 53c5 3 8 5 10 7 2 2 2 5 2 8 0 4-1 7-4 10-3 3-6 4-10 4-3 0-6-1-12-4l-141-79 141-78c5-3 9-4 11-4 4 0 7 1 10 4 3 3 4 6 4 10 0 3-1 6-2 8-2 2-5 4-10 7l-95 53z"/>
			<path class="fil6" d="M13150 10420l-94 202c-2 5-5 8-6 10-2 2-5 3-9 3-4 0-7-1-10-4-3-3-4-6-4-10 0-3 1-6 3-11l94-202c2-5 4-8 6-10 3-2 6-3 9-3 4 0 7 1 10 4 3 3 4 6 4 10 0 3-1 6-3 11z"/>
			<path class="fil6" d="M13235 10416l0 62c6-4 12-6 18-8 6-2 13-3 19-3 10 0 19 2 27 5 8 3 14 9 20 16 5 7 8 17 8 28l0 55c7 0 12 1 14 3 4 4 6 8 6 12 0 4-2 8-4 11-3 3-8 4-15 4l-29 0c-7 0-12-1-15-4-3-3-4-6-4-11 0-4 2-8 6-12 2-2 7-3 14-3l0-53c0-8-2-13-5-16-4-4-11-6-20-6-6 0-12 1-17 4-5 3-12 8-20 16l0 55c7 0 12 1 14 3 4 4 6 8 6 12 0 4-2 8-4 11-3 3-8 4-15 4l-29 0c-7 0-12-1-15-4-3-3-4-6-4-11 0-4 2-8 6-12 2-2 7-3 14-3l0-127-5 0c-7 0-12-1-15-4-3-3-4-6-4-11 0-4 2-8 4-11 3-3 8-4 15-4l34 0z"/>
			<path class="fil6" d="M13456 10412l0 160 30 0c7 0 12 1 15 4 3 3 4 6 4 11 0 4-2 8-4 11-3 3-8 4-15 4l-88 0c-7 0-12-1-15-4-3-3-4-6-4-11 0-4 2-8 4-11 3-3 8-4 15-4l30 0 0-122-26 7c-4 1-7 2-9 2-4 0-7-1-10-4-3-3-4-7-4-11 0-4 1-7 3-9 2-2 6-4 13-6l63-16z"/>
			<path class="fil6" d="M13648 10518l-95-53c-5-3-8-5-10-7-2-2-2-5-2-8 0-4 1-8 4-10 3-3 6-4 10-4 2 0 6 1 11 4l141 78-141 79c-5 3-9 4-11 4-4 0-7-1-10-4-3-3-4-6-4-11 0-3 1-6 2-8 2-2 5-4 10-7l95-53z"/>
			<path class="fil6" d="M11305 10849l95 53c5 3 8 5 10 7 2 2 2 5 2 8 0 4-1 7-4 10-3 3-6 4-10 4-3 0-6-1-12-4l-141-79 141-78c5-3 9-4 11-4 4 0 7 1 10 4 3 3 4 6 4 10 0 3-1 6-2 8-2 2-5 4-10 7l-95 53z"/>
			<path class="fil6" d="M11571 10751l-94 202c-2 5-5 8-6 10-2 2-5 3-9 3-4 0-7-1-10-4-3-3-4-6-4-10 0-3 1-6 3-11l94-202c2-5 4-8 6-10 3-2 6-3 9-3 4 0 7 1 10 4 3 3 4 6 4 10 0 3-1 6-3 11z"/>
			<path class="fil6" d="M11718 10837c-5-3-10-5-15-7-5-2-11-2-16-2-11 0-20 2-27 6-3 2-4 3-4 5 0 2 2 4 6 6 3 2 10 3 20 4 19 3 33 5 40 8 10 4 18 9 23 16 5 7 8 14 8 22 0 10-5 19-14 26-13 10-30 15-51 15-8 0-16-1-23-2-7-1-14-4-20-6-1 1-3 2-5 3-2 1-3 1-5 1-5 0-8-2-11-4-3-3-4-8-4-15l0-10c0-7 1-12 4-15 3-3 6-4 11-4 4 0 6 1 9 3 2 2 4 5 6 10 4 4 10 7 16 9 6 2 13 3 22 3 13 0 24-2 31-6 4-2 5-4 5-7 0-4-2-7-7-9-5-2-15-5-31-6-23-2-39-7-47-14-8-7-12-16-12-26 0-10 4-19 13-26 12-9 28-14 47-14 7 0 13 1 19 2 6 1 12 3 18 6 2-1 4-2 5-3 2-1 3-1 4-1 4 0 7 2 10 4 3 3 4 8 4 15l0 7c0 6-1 11-2 13-3 4-7 7-13 7-4 0-7-1-9-3-3-2-4-5-5-9z"/>
			<path class="fil6" d="M11936 10882l-120 0c3 8 8 14 16 18 8 5 18 7 32 7 11 0 25-2 43-7 7-2 13-3 15-3 4 0 7 1 10 4 3 3 4 6 4 10 0 4-1 7-4 10-4 4-13 7-28 10-15 3-29 5-43 5-23 0-42-7-56-20-14-13-21-29-21-49 0-21 8-37 23-50 15-13 33-19 52-19 12 0 23 2 33 6 10 4 17 9 22 14 7 7 13 16 17 26 3 7 5 16 5 25l0 12zm-32-29c-4-8-10-15-18-19-7-4-16-6-26-6-10 0-18 2-26 6-7 4-13 10-18 19l87 0z"/>
			<path class="fil6" d="M12083 10808c4-3 7-5 11-5 4 0 8 2 10 4 3 3 4 8 4 15l0 19c0 7-1 12-4 15-3 3-6 4-11 4-4 0-7-1-10-3-2-2-4-5-5-11-1-5-4-9-8-12-8-4-18-7-30-7-14 0-25 4-33 12-8 8-13 18-13 31 0 11 4 20 12 27 8 7 21 10 40 10 12 0 22-1 30-4 5-2 9-4 13-8 4-4 8-6 11-6 4 0 7 1 10 4 3 3 4 6 4 10 0 6-4 13-13 18-13 9-32 13-58 13-23 0-40-5-53-14-17-13-26-30-26-52 0-21 7-38 21-52 14-14 32-20 54-20 8 0 16 1 23 2 7 2 13 4 19 7z"/>
			<path class="fil6" d="M12206 10832l0 59c0 6 1 10 4 12 4 3 11 5 21 5 15 0 29-3 41-9 5-2 9-4 11-4 4 0 7 1 10 4 3 3 4 6 4 10 0 4-2 7-5 10-5 4-14 9-28 12-14 4-25 6-35 6-18 0-32-4-41-12-9-8-14-17-14-29l0-64-11 0c-7 0-12-1-15-4-3-3-4-6-4-11 0-4 2-8 4-10 3-3 8-4 15-4l11 0 0-26c0-7 1-12 4-15 3-3 6-4 11-4 4 0 8 2 10 4 3 3 4 8 4 15l0 26 54 0c7 0 12 1 15 4 3 3 4 6 4 11 0 4-2 8-4 11-3 3-8 4-15 4l-54 0z"/>
			<path class="fil6" d="M12399 10747l0 31-35 0 0-31 35 0zm4 56l0 100 35 0c7 0 12 1 15 4 3 3 4 6 4 11 0 4-2 8-4 11-3 3-8 4-15 4l-99 0c-7 0-12-1-15-4-3-3-4-6-4-11 0-4 2-8 4-11 3-3 8-4 15-4l35 0 0-71-24 0c-7 0-12-1-15-4-3-3-4-6-4-11 0-4 2-8 4-11 3-3 8-4 15-4l53 0z"/>
			<path class="fil6" d="M12640 10870c0 11-3 22-9 33-6 11-15 19-28 25-12 6-25 9-39 9-13 0-26-3-38-9-12-6-21-15-28-25-6-11-10-22-10-33 0-12 3-23 10-34 6-11 16-20 28-27 12-6 25-10 38-10 13 0 26 3 38 10 12 7 22 15 28 27 6 11 9 23 9 34zm-29 0c0-9-3-18-10-26-9-11-21-16-36-16-13 0-24 4-33 13-9 8-13 18-13 29 0 9 4 18 13 26 9 8 20 12 33 12 13 0 24-4 33-12 9-8 13-17 13-26z"/>
			<path class="fil6" d="M12710 10803l0 10c5-5 11-8 18-10 6-2 13-3 21-3 17 0 31 5 41 16 8 9 12 20 12 34l0 54c7 0 12 1 15 4 3 3 4 6 4 11 0 4-2 8-4 11-3 3-8 4-15 4l-29 0c-7 0-12-1-15-4-3-3-4-6-4-11 0-4 2-8 4-11 3-3 8-4 15-4l0-55c0-6-2-11-5-14-4-4-11-6-20-6-7 0-13 1-18 4-5 3-11 8-19 17l0 54c7 0 12 1 14 3 4 4 6 8 6 12 0 4-2 8-4 11-3 3-8 4-15 4l-29 0c-7 0-12-1-15-4-3-3-4-6-4-11 0-4 2-8 6-12 2-2 7-3 14-3l0-71c-7 0-12-1-15-4-3-3-4-6-4-11 0-4 2-8 4-11 3-3 8-4 15-4l29 0z"/>
			<path class="fil6" d="M12946 10849l-95-53c-5-3-8-5-10-7-2-2-2-5-2-8 0-4 1-8 4-10 3-3 6-4 10-4 2 0 6 1 11 4l141 78-141 79c-5 3-9 4-11 4-4 0-7-1-10-4-3-3-4-6-4-11 0-3 1-6 2-8 2-2 5-4 10-7l95-53z"/>
			<path class="fil6" d="M10954 11180l95 53c5 3 8 5 10 7 2 2 2 5 2 8 0 4-1 7-4 10-3 3-6 4-10 4-3 0-6-1-12-4l-141-79 141-78c5-3 9-4 11-4 4 0 7 1 10 4 3 3 4 6 4 10 0 3-1 6-2 8-2 2-5 4-10 7l-95 53z"/>
			<path class="fil6" d="M11221 11082l-94 202c-2 5-5 8-6 10-2 2-5 3-9 3-4 0-7-1-10-4-3-3-4-6-4-10 0-3 1-6 3-11l94-202c2-5 4-8 6-10 3-2 6-3 9-3 4 0 7 1 10 4 3 3 4 6 4 10 0 3-1 6-3 11z"/>
			<path class="fil6" d="M11367 11168c-5-3-10-5-15-7-5-2-11-2-16-2-11 0-20 2-27 6-3 2-4 3-4 5 0 2 2 4 6 6 3 2 10 3 20 4 19 3 33 5 40 8 10 4 18 9 23 16 5 7 8 14 8 22 0 10-5 19-14 26-13 10-30 15-51 15-8 0-16-1-23-2-7-1-14-4-20-6-1 1-3 2-5 3-2 1-3 1-5 1-5 0-8-2-11-4-3-3-4-8-4-15l0-10c0-7 1-12 4-15 3-3 6-4 11-4 4 0 6 1 9 3 2 2 4 5 6 10 4 4 10 7 16 9 6 2 13 3 22 3 13 0 24-2 31-6 4-2 5-4 5-7 0-4-2-7-7-9-5-2-15-5-31-6-23-2-39-7-47-14-8-7-12-16-12-26 0-10 4-19 13-26 12-9 28-14 47-14 7 0 13 1 19 2 6 1 12 3 18 6 2-1 4-2 5-3 2-1 3-1 4-1 4 0 7 2 10 4 3 3 4 8 4 15l0 7c0 6-1 11-2 13-3 4-7 7-13 7-4 0-7-1-9-3-3-2-4-5-5-9z"/>
			<path class="fil6" d="M11585 11213l-120 0c3 8 8 14 16 18 8 5 18 7 32 7 11 0 25-2 43-7 7-2 13-3 15-3 4 0 7 1 10 4 3 3 4 6 4 10 0 4-1 7-4 10-4 4-13 7-28 10-15 3-29 5-43 5-23 0-42-7-56-20-14-13-21-29-21-49 0-21 8-37 23-50 15-13 33-19 52-19 12 0 23 2 33 6 10 4 17 9 22 14 7 7 13 16 17 26 3 7 5 16 5 25l0 12zm-32-29c-4-8-10-15-18-19-7-4-16-6-26-6-10 0-18 2-26 6-7 4-13 10-18 19l87 0z"/>
			<path class="fil6" d="M11733 11139c4-3 7-5 11-5 4 0 8 2 10 4 3 3 4 8 4 15l0 19c0 7-1 12-4 15-3 3-6 4-11 4-4 0-7-1-10-3-2-2-4-5-5-11-1-5-4-9-8-12-8-4-18-7-30-7-14 0-25 4-33 12-8 8-13 18-13 31 0 11 4 20 12 27 8 7 21 10 40 10 12 0 22-1 30-4 5-2 9-4 13-8 4-4 8-6 11-6 4 0 7 1 10 4 3 3 4 6 4 10 0 6-4 13-13 18-13 9-32 13-58 13-23 0-40-5-53-14-17-13-26-30-26-52 0-21 7-38 21-52 14-14 32-20 54-20 8 0 16 1 23 2 7 2 13 4 19 7z"/>
			<path class="fil6" d="M11855 11163l0 59c0 6 1 10 4 12 4 3 11 5 21 5 15 0 29-3 41-9 5-2 9-4 11-4 4 0 7 1 10 4 3 3 4 6 4 10 0 4-2 7-5 10-5 4-14 9-28 12-14 4-25 6-35 6-18 0-32-4-41-12-9-8-14-17-14-29l0-64-11 0c-7 0-12-1-15-4-3-3-4-6-4-11 0-4 2-8 4-10 3-3 8-4 15-4l11 0 0-26c0-7 1-12 4-15 3-3 6-4 11-4 4 0 8 2 10 4 3 3 4 8 4 15l0 26 54 0c7 0 12 1 15 4 3 3 4 6 4 11 0 4-2 8-4 11-3 3-8 4-15 4l-54 0z"/>
			<path class="fil6" d="M12048 11078l0 31-35 0 0-31 35 0zm4 56l0 100 35 0c7 0 12 1 15 4 3 3 4 6 4 11 0 4-2 8-4 11-3 3-8 4-15 4l-99 0c-7 0-12-1-15-4-3-3-4-6-4-11 0-4 2-8 4-11 3-3 8-4 15-4l35 0 0-71-24 0c-7 0-12-1-15-4-3-3-4-6-4-11 0-4 2-8 4-11 3-3 8-4 15-4l53 0z"/>
			<path class="fil6" d="M12289 11201c0 11-3 22-9 33-6 11-15 19-28 25-12 6-25 9-39 9-13 0-26-3-38-9-12-6-21-15-28-25-6-11-10-22-10-33 0-12 3-23 10-34 6-11 16-20 28-27 12-6 25-10 38-10 13 0 26 3 38 10 12 7 22 15 28 27 6 11 9 23 9 34zm-29 0c0-9-3-18-10-26-9-11-21-16-36-16-13 0-24 4-33 13-9 8-13 18-13 29 0 9 4 18 13 26 9 8 20 12 33 12 13 0 24-4 33-12 9-8 13-17 13-26z"/>
			<path class="fil6" d="M12359 11134l0 10c5-5 11-8 18-10 6-2 13-3 21-3 17 0 31 5 41 16 8 9 12 20 12 34l0 54c7 0 12 1 15 4 3 3 4 6 4 11 0 4-2 8-4 11-3 3-8 4-15 4l-29 0c-7 0-12-1-15-4-3-3-4-6-4-11 0-4 2-8 4-11 3-3 8-4 15-4l0-55c0-6-2-11-5-14-4-4-11-6-20-6-7 0-13 1-18 4-5 3-11 8-19 17l0 54c7 0 12 1 14 3 4 4 6 8 6 12 0 4-2 8-4 11-3 3-8 4-15 4l-29 0c-7 0-12-1-15-4-3-3-4-6-4-11 0-4 2-8 6-12 2-2 7-3 14-3l0-71c-7 0-12-1-15-4-3-3-4-6-4-11 0-4 2-8 4-11 3-3 8-4 15-4l29 0z"/>
			<path class="fil6" d="M12596 11180l-95-53c-5-3-8-5-10-7-2-2-2-5-2-8 0-4 1-8 4-10 3-3 6-4 10-4 2 0 6 1 11 4l141 78-141 79c-5 3-9 4-11 4-4 0-7-1-10-4-3-3-4-6-4-11 0-3 1-6 2-8 2-2 5-4 10-7l95-53z"/>
			<path class="fil6" d="M11204 11593c-1 2-3 3-4 4-1 1-3 1-5 1-2 0-5-1-8-3-3-2-7-4-11-7-4-2-10-5-16-7-6-2-14-3-24-3-12 0-23 2-33 7-9 4-17 11-24 19-6 8-11 18-14 30-3 12-5 25-5 39 0 15 2 29 5 41 3 12 8 22 15 30 6 8 14 14 23 18 9 4 19 6 30 6 11 0 20-1 27-4 7-3 13-5 17-9 5-3 8-6 11-9 3-3 6-4 9-4 4 0 6 1 8 4l12 16c-5 7-12 13-19 17-7 5-14 9-22 12-8 3-16 6-25 7-9 1-18 2-27 2-16 0-30-3-44-9-13-6-25-14-35-25-10-11-18-24-23-41-6-16-8-34-8-55 0-19 3-36 8-52 5-16 13-30 23-41 10-11 22-20 37-27 15-6 31-10 50-10 18 0 33 3 47 9 13 6 25 14 36 24l-12 16z"/>
			<polygon class="fil6" points="11475 11582 11379 11582 11379 11800 11334 11800 11334 11582 11238 11582 11238 11548 11475 11548 "/>
			<path class="fil6" d="M11562 11739c8 11 17 19 27 23 10 4 20 7 32 7 23 0 42-8 54-25 13-17 19-41 19-71 0-16-1-30-4-42-3-12-7-21-13-29-5-8-12-13-20-16-8-3-17-5-27-5-14 0-27 3-38 10-11 7-21 16-30 28l0 122zm-2-152c11-13 23-24 37-32 14-8 30-12 48-12 15 0 28 3 39 8 12 6 22 14 30 25 8 11 15 24 19 40 4 16 7 35 7 55 0 19-2 36-7 52-5 16-12 30-21 41-9 12-21 21-34 28-13 7-29 10-46 10-15 0-29-3-40-8-11-5-21-12-29-22l0 111-44 0 0-337 27 0c6 0 10 3 12 9l4 30z"/>
			<path class="fil6" d="M12005 11548l-140 326c-1 3-3 6-6 8-2 2-6 3-10 3l-33 0 46-100-104-237 38 0c4 0 7 1 9 3 2 2 4 4 5 6l67 158c3 7 5 14 7 22 2-8 5-15 7-22l65-158c1-3 3-5 5-7 2-2 5-3 8-3l35 0z"/>
			<path class="fil6" d="M12197 11561c2-4 5-7 9-9 4-2 8-3 12-3l35 0-65 96c-4 6-8 11-12 15-4 4-10 7-16 9 8 2 15 5 20 10 5 5 10 10 15 18l66 104-31 0c-8 0-14-1-18-4-4-3-8-6-11-11l-49-78c-8-13-19-19-35-19l-27 0 0 113-44 0 0-252 44 0 0 109 24 0c13 0 24-6 31-17l53-79z"/>
			<polygon class="fil6" points="12510 11582 12414 11582 12414 11800 12369 11800 12369 11582 12273 11582 12273 11548 12510 11548 "/>
			<path class="fil6" d="M12769 11548l-140 326c-1 3-3 6-6 8-2 2-6 3-10 3l-33 0 46-100-104-237 38 0c4 0 7 1 9 3 2 2 4 4 5 6l67 158c3 7 5 14 7 22 2-8 5-15 7-22l65-158c1-3 3-5 5-7 2-2 5-3 8-3l35 0z"/>
			<path class="fil6" d="M12853 11739c8 11 17 19 27 23 10 4 20 7 32 7 23 0 42-8 54-25 13-17 19-41 19-71 0-16-1-30-4-42-3-12-7-21-13-29-5-8-12-13-20-16-8-3-17-5-27-5-14 0-27 3-38 10-11 7-21 16-30 28l0 122zm-2-152c11-13 23-24 37-32 14-8 30-12 48-12 15 0 28 3 39 8 12 6 22 14 30 25 8 11 15 24 19 40 4 16 7 35 7 55 0 19-2 36-7 52-5 16-12 30-21 41-9 12-21 21-34 28-13 7-29 10-46 10-15 0-29-3-40-8-11-5-21-12-29-22l0 111-44 0 0-337 27 0c6 0 10 3 12 9l4 30z"/>
			<path class="fil6" d="M13222 11687c-20 1-38 2-52 5-14 3-26 6-35 10-9 4-16 9-20 15-4 6-6 12-6 19 0 7 1 12 3 17 2 5 5 9 9 12 4 3 8 5 13 7 5 1 10 2 16 2 8 0 15-1 21-2 6-2 13-4 18-7 6-3 11-7 16-11 5-4 10-9 15-14l0-52zm-143-103c14-13 29-23 45-30 16-7 34-10 53-10 14 0 27 2 37 7 11 5 20 11 28 19 7 8 13 18 17 30 4 12 6 25 6 39l0 161-20 0c-4 0-8-1-10-2-2-1-4-4-5-8l-5-24c-7 6-13 11-19 16-6 5-13 9-20 12-7 3-14 6-22 7-8 2-17 3-26 3-10 0-19-1-28-4-9-3-16-7-22-12-6-5-11-12-15-21-4-8-6-18-6-30 0-10 3-20 8-29 5-9 14-17 27-24 12-7 28-13 48-18 20-5 44-7 72-8l0-20c0-20-4-34-13-44-8-10-21-15-37-15-11 0-20 1-27 4-7 3-14 6-19 9-5 3-10 6-14 9-4 3-8 4-12 4-3 0-6-1-8-2-2-2-4-3-5-6l-8-14z"/>
		</g>
		<g>
			<g>
				<path class="fil4" d="M17935 9267l577 0c59 0 108 49 108 109l0 360c0 59-49 108-108 108l-325 0-217 145 0-145-36 0c-60 0-109-49-109-108l0-360c0-60 49-109 109-109zm-201 544c0 84-68 152-152 152-84 0-153-68-153-152 0-84 69-152 153-152 84 0 152 68 152 152zm-366 469l0 0zm-75-161c27-82 96-138 166-138 0 0 53 32 112 32 59 0 112-32 112-32 56 0 112 35 145 91l-227 0c-14 0-26 11-28 24l-23 184-183 0c-7-63-35-119-75-161zm660-14l-22 175-347 0 22-175 347 0zm-582 208l853 0 0 98-98 0 0 460-525 0 0-263 98 0 0-197-328 0 0-98zm-354-197c66 0 124-37 124-37 99 0 197 102 197 233l0 98-299 0-26-205c-2-13-14-24-28-24l-255 0c37-62 100-102 161-102 0 0 59 37 125 37zm157-224c0 93-76 169-169 169-93 0-170-75-170-169 0-94 76-169 170-169 93 0 169 76 169 169zm-586 323l393 0 25 197-393 0-25-197zm-299 229l1377 0 0 131-98 0 0 492-1181 0 0-492-98 0 0-131zm336-908l0 360c0 59-49 108-109 108l-36 0 0 145-217-145-325 0c-59 0-108-49-108-108l0-360c0-60 49-109 108-109l577 0c60 0 109 49 109 109z"/>
				<path class="fil3" d="M17368 10280c-7-63-35-119-75-161 27-82 96-138 166-138 0 0 53 32 112 32 59 0 112-32 112-32 56 0 112 35 145 91l-227 0c-14 0-26 11-28 24l-23 184-183 0 0 0zm458-904l0 360c0 59 49 108 109 108l36 0 0 145 217-145 325 0c59 0 108-49 108-108l0-360c0-60-49-109-108-109l-577 0c-60 0-109 49-109 109zm297 280l-53 0 0-138-38 90-37 0-38-90 0 138-50 0 0-206 62 0 46 103 46-103 62 0 0 206zm240-206l-75 206-60 0-75-206 56 0 50 145 50-145 54 0zm123 210c-15 0-30-2-43-7-13-5-24-11-33-20-9-9-17-20-22-34-5-13-8-29-8-47 0-16 2-31 7-45 5-13 12-25 21-34 9-9 20-16 33-21 13-5 28-8 44-8 9 0 16 0 23 1 7 1 13 2 19 4 6 2 12 4 17 6 5 2 9 4 13 6l0 50-6 0c-3-2-6-5-10-8-4-3-8-6-13-9-5-3-11-5-16-7-6-2-12-3-19-3-8 0-15 1-21 4-7 2-13 6-19 12-5 5-10 12-13 21-3 9-5 19-5 32 0 13 2 24 5 32 4 9 8 16 14 20 6 5 12 9 19 11 7 2 14 3 21 3 6 0 13-1 19-3 6-2 12-4 18-8 4-3 9-5 13-8 4-3 7-6 10-8l6 0 0 49c-5 2-10 4-15 6-5 2-10 4-15 5-7 2-13 3-19 4-6 1-14 2-24 2zm-904 303c84 0 152-68 152-152 0-84-68-152-152-152-84 0-153 68-153 152 0 84 69 152 153 152zm371 142l-22 175-347 0 22-175 347 0zm-147 90c0-5-13-9-29-9-16 0-30 4-30 9 0 5 14 9 30 9 16 0 29-4 29-9zm-435 118l0 98 328 0 0 197-98 0 0 263 525 0 0-460 98 0 0-98-853 0zm-230-233c0 0-58 37-124 37-66 0-125-37-125-37-62 0-124 40-161 102l255 0c14 0 26 11 28 24l26 205 299 0c0 0 0-35 0-98 0-131-98-233-197-233zm-136-19c94 0 169-75 169-169 0-94-76-169-169-169-93 0-170 76-170 169 0 94 76 169 170 169zm-392 350l-25-197 393 0 25 197-393 0zm143-95c0 6 14 11 33 11 18 0 33-5 33-11 0-6-14-11-33-11-18 0-33 5-33 11zm-467 128l0 131 98 0 0 492 1181 0 0-492 98 0 0-131-1377 0zm336-908l0 360c0 59-49 108-109 108l-36 0 0 145-217-145-325 0c-59 0-108-49-108-108l0-360c0-60 49-109 108-109l577 0c60 0 109 49 109 109zm-631 184l93-44c7-3 11-6 14-10 3-3 5-8 5-14 0-6-2-11-6-15-3-4-8-6-15-6-2 0-4 0-7 2-2 0-5 2-10 4l-128 59c-14 7-21 14-21 25 0 9 7 17 20 24l130 59c3 2 7 3 9 4 3 1 5 1 8 1 6 0 11-2 15-5 4-4 6-9 6-16 0-5-2-10-5-14-3-3-7-6-14-10l-93-44zm295-113c0-7-3-12-8-16-5-4-10-6-17-6-5 0-9 1-12 5-3 3-6 8-9 15l-94 202c-4 7-5 12-5 17 0 6 3 12 7 16 5 3 10 5 17 5 5 0 9-2 13-5 3-4 5-8 9-15l94-201c1-4 3-8 3-10 1-3 2-5 2-7zm220 114c0-10-7-18-23-25l-127-59c-4-2-7-4-10-4-3-1-6-2-8-2-6 0-10 2-15 6-4 4-5 9-5 15 0 6 1 11 5 14 3 4 7 7 14 10l94 44-93 44c-7 4-11 7-14 10-4 4-5 8-5 13 0 6 1 11 5 16 4 3 9 5 15 5 3 0 6 0 9-1 2-1 5-2 9-4l129-59c14-6 21-14 21-24z"/>
			</g>
			<path class="fil6" d="M15989 11583c-1 2-3 3-4 4-1 1-3 1-5 1-2 0-5-1-8-3-3-2-7-4-11-7-4-2-10-5-16-7-6-2-14-3-24-3-12 0-23 2-33 7-9 4-17 11-24 19-6 8-11 18-14 30-3 12-5 25-5 39 0 15 2 29 5 41 3 12 8 22 15 30 6 8 14 14 23 18 9 4 19 6 30 6 11 0 20-1 27-4 7-3 13-5 17-9 5-3 8-6 11-9 3-3 6-4 9-4 4 0 6 1 8 4l12 16c-5 7-12 13-19 17-7 5-14 9-22 12-8 3-16 6-25 7-9 1-18 2-27 2-16 0-30-3-44-9-13-6-25-14-35-25-10-11-18-24-23-41-6-16-8-34-8-55 0-19 3-36 8-52 5-16 13-30 23-41 10-11 22-20 37-27 15-6 31-10 50-10 18 0 33 3 47 9 13 6 25 14 36 24l-12 16z"/>
			<path class="fil6" d="M16153 11534c18 0 35 3 50 9 15 6 27 15 38 26 10 11 18 25 24 41 6 16 8 34 8 54 0 20-3 38-8 54-6 16-14 29-24 41-10 11-23 20-38 26-15 6-31 9-50 9-19 0-35-3-50-9-15-6-27-15-38-26-10-11-18-25-24-41-6-16-8-34-8-54 0-20 3-38 8-54 6-16 13-30 24-41 10-11 23-20 38-26 15-6 31-9 50-9zm0 224c25 0 43-8 56-25 12-17 18-40 18-70 0-30-6-53-18-70-12-17-31-25-56-25-13 0-24 2-33 6-9 4-17 11-23 19-6 8-11 18-14 30-3 12-5 25-5 40 0 30 6 53 19 70 12 17 31 25 56 25z"/>
			<path class="fil6" d="M16492 11757l0-184-80 0c-2 26-4 49-7 69-3 20-6 37-10 52-4 15-8 28-13 38-5 10-10 19-15 26l125 0zm89-1l0 106c0 4-1 8-4 10-2 2-6 4-9 4l-27 0 0-87-211 0 0 74c0 3-1 6-3 9-2 3-5 4-9 4l-28 0 0-119 8 0c6 0 12-1 17-3 6-2 11-6 16-11 5-6 10-13 15-23 5-10 9-23 13-39 4-16 7-36 10-59 3-23 5-51 7-83l159 0 0 218 46 0z"/>
			<path class="fil6" d="M16789 11637c0-10-1-20-4-28-3-9-7-16-13-22-6-6-12-11-20-14-8-3-17-5-27-5-21 0-38 6-50 18-12 12-20 29-23 51l138 0zm36 118c-5 7-12 12-20 17-8 5-16 9-24 12-9 3-18 5-27 7-9 2-18 2-28 2-17 0-33-3-48-9-15-6-27-14-38-26-11-11-19-25-25-42-6-17-9-36-9-58 0-18 3-34 8-49 5-15 13-28 23-40 10-11 22-20 37-26 15-6 31-10 49-10 15 0 29 2 42 8 13 5 24 12 33 22 9 10 17 21 22 35 5 14 8 30 8 48 0 7-1 12-2 14-1 2-4 3-8 3l-168 0c0 16 3 30 7 41 4 12 9 22 16 29 7 8 15 14 25 18 10 4 20 6 32 6 11 0 21-1 29-4 8-3 15-5 21-8 6-3 11-6 15-8 4-3 7-4 10-4 4 0 6 1 8 4l12 16z"/>
			<path class="fil6" d="M16928 11729c8 11 17 19 27 23 10 4 20 7 32 7 23 0 42-8 54-25 13-17 19-41 19-71 0-16-1-30-4-42-3-12-7-21-13-29-5-8-12-13-20-16-8-3-17-5-27-5-14 0-27 3-38 10-11 7-21 16-30 28l0 122zm-2-152c11-13 23-24 37-32 14-8 30-12 48-12 15 0 28 3 39 8 12 6 22 14 30 25 8 11 15 24 19 40 4 16 7 35 7 55 0 19-2 36-7 52-5 16-12 30-21 41-9 12-21 21-34 28-13 7-29 10-46 10-15 0-29-3-40-8-11-5-21-12-29-22l0 111-44 0 0-337 27 0c6 0 10 3 12 9l4 30z"/>
			<path class="fil6" d="M17502 11790l-31 0c-8 0-14-1-18-4-4-2-8-6-10-12l-49-78c-8-13-20-19-35-19l-25 0 0 113-43 0 0-113-25 0c-7 0-14 2-20 5-6 3-11 8-15 14l-49 78c-2 5-6 9-10 12-4 2-10 4-18 4l-31 0 66-104c4-7 9-13 15-18 5-4 12-8 20-10-6-2-12-5-16-9-4-4-9-9-12-15l-66-96 35 0c4 0 8 1 12 3 3 2 6 5 8 9l53 79c4 5 8 10 13 12 5 3 11 4 18 4l22 0 0-109 43 0 0 109 21 0c14 0 25-6 32-17l53-79c2-4 5-7 8-9 4-2 7-3 12-3l35 0-66 96c-4 6-8 11-12 15-4 4-10 7-16 9 8 2 15 6 20 10 5 4 10 10 15 18l66 104z"/>
			<path class="fil6" d="M17759 11538l0 251-44 0 0-171c0-3 0-7 1-11 0-4 1-8 1-11-1 3-3 6-4 9-1 3-3 5-5 8l-121 165c-2 3-4 5-7 8-3 2-6 4-9 4l-27 0 0-251 44 0 0 171c0 3 0 7 0 10 0 4-1 8-1 11 1-3 3-6 4-9 1-3 3-5 4-8l121-165c2-3 4-5 7-8 3-2 6-4 9-4l27 0z"/>
			<path class="fil6" d="M18109 11538l0 252-40 0 0-167c0-5 0-10 1-16 1-6 1-11 2-16l-87 153c-1 2-3 4-5 6-2 1-5 2-7 2l-5 0c-3 0-5-1-8-2-2-1-4-3-5-6l-89-154c1 5 2 10 2 16 1 6 1 11 1 16l0 167-40 0 0-252 35 0c3 0 6 1 9 2 3 1 6 4 8 8l78 131c4 8 7 16 10 24 3-9 6-17 10-24l77-131c2-4 5-7 8-8 3-1 6-2 9-2l35 0z"/>
			<path class="fil6" d="M18285 11534c18 0 35 3 50 9 15 6 27 15 38 26 10 11 18 25 24 41 6 16 8 34 8 54 0 20-3 38-8 54-6 16-14 29-24 41-10 11-23 20-38 26-15 6-31 9-50 9-19 0-35-3-50-9-15-6-27-15-38-26-10-11-18-25-24-41-6-16-8-34-8-54 0-20 3-38 8-54 6-16 13-30 24-41 10-11 23-20 38-26 15-6 31-9 50-9zm0 224c25 0 43-8 56-25 12-17 18-40 18-70 0-30-6-53-18-70-12-17-31-25-56-25-13 0-24 2-33 6-9 4-17 11-23 19-6 8-11 18-14 30-3 12-5 25-5 40 0 30 6 53 19 70 12 17 31 25 56 25z"/>
			<path class="fil6" d="M18629 11637c0-10-1-20-4-28-3-9-7-16-13-22-6-6-12-11-20-14-8-3-17-5-27-5-21 0-38 6-50 18-12 12-20 29-23 51l138 0zm36 118c-5 7-12 12-20 17-8 5-16 9-24 12-9 3-18 5-27 7-9 2-18 2-28 2-17 0-33-3-48-9-15-6-27-14-38-26-11-11-19-25-25-42-6-17-9-36-9-58 0-18 3-34 8-49 5-15 13-28 23-40 10-11 22-20 37-26 15-6 31-10 49-10 15 0 29 2 42 8 13 5 24 12 33 22 9 10 17 21 22 35 5 14 8 30 8 48 0 7-1 12-2 14-1 2-4 3-8 3l-168 0c0 16 3 30 7 41 4 12 9 22 16 29 7 8 15 14 25 18 10 4 20 6 32 6 11 0 21-1 29-4 8-3 15-5 21-8 6-3 11-6 15-8 4-3 7-4 10-4 4 0 6 1 8 4l12 16z"/>
			<polygon class="fil6" points="15739 12385 15694 12385 15694 12168 15573 12168 15573 12385 15529 12385 15529 12134 15739 12134 "/>
			<path class="fil6" d="M15853 12325c8 11 17 19 27 23 10 4 20 7 32 7 23 0 42-8 54-25 13-17 19-41 19-71 0-16-1-30-4-42-3-12-7-21-13-29-5-8-12-13-20-16-8-3-17-5-27-5-14 0-27 3-38 10-11 7-21 16-30 28l0 122zm-2-152c11-13 23-24 37-32 14-8 30-12 48-12 15 0 28 3 39 8 12 6 22 14 30 25 8 11 15 24 19 40 4 16 7 35 7 55 0 19-2 36-7 52-5 16-12 30-21 41-9 12-21 21-34 28-13 7-29 10-46 10-15 0-29-3-40-8-11-5-21-12-29-22l0 111-44 0 0-337 27 0c6 0 10 3 12 9l4 30z"/>
			<path class="fil6" d="M16255 12232c0-10-1-20-4-28-3-9-7-16-13-22-6-6-12-11-20-14-8-3-17-5-27-5-21 0-38 6-50 18-12 12-20 29-23 51l138 0zm36 118c-5 7-12 12-20 17-8 5-16 9-24 12-9 3-18 5-27 7-9 2-18 2-28 2-17 0-33-3-48-9-15-6-27-14-38-26-11-11-19-25-25-42-6-17-9-36-9-58 0-18 3-34 8-49 5-15 13-28 23-40 10-11 22-20 37-26 15-6 31-10 49-10 15 0 29 2 42 8 13 5 24 12 33 22 9 10 17 21 22 35 5 14 8 30 8 48 0 7-1 12-2 14-1 2-4 3-8 3l-168 0c0 16 3 30 7 41 4 12 9 22 16 29 7 8 15 14 25 18 10 4 20 6 32 6 11 0 21-1 29-4 8-3 15-5 21-8 6-3 11-6 15-8 4-3 7-4 10-4 4 0 6 1 8 4l12 16z"/>
			<path class="fil6" d="M16520 12353l0-184-80 0c-2 26-4 49-7 69-3 20-6 37-10 52-4 15-8 28-13 38-5 10-10 19-15 26l125 0zm89-1l0 106c0 4-1 8-4 10-2 2-6 4-9 4l-27 0 0-87-211 0 0 74c0 3-1 6-3 9-2 3-5 4-9 4l-28 0 0-119 8 0c6 0 12-1 17-3 6-2 11-6 16-11 5-6 10-13 15-23 5-10 9-23 13-39 4-16 7-36 10-59 3-23 5-51 7-83l159 0 0 218 46 0z"/>
			<path class="fil6" d="M16824 12179c-1 2-3 3-4 4-1 1-3 1-5 1-2 0-5-1-8-3-3-2-7-4-11-7-4-2-10-5-16-7-6-2-14-3-24-3-12 0-23 2-33 7-9 4-17 11-24 19-6 8-11 18-14 30-3 12-5 25-5 39 0 15 2 29 5 41 3 12 8 22 15 30 6 8 14 14 23 18 9 4 19 6 30 6 11 0 20-1 27-4 7-3 13-5 17-9 5-3 8-6 11-9 3-3 6-4 9-4 4 0 6 1 8 4l12 16c-5 7-12 13-19 17-7 5-14 9-22 12-8 3-16 6-25 7-9 1-18 2-27 2-16 0-30-3-44-9-13-6-25-14-35-25-10-11-18-24-23-41-6-16-8-34-8-55 0-19 3-36 8-52 5-16 13-30 23-41 10-11 22-20 37-27 15-6 31-10 50-10 18 0 33 3 47 9 13 6 25 14 36 24l-12 16z"/>
			<polygon class="fil6" points="17095 12168 16999 12168 16999 12385 16955 12385 16955 12168 16858 12168 16858 12134 17095 12134 "/>
			<path class="fil6" d="M17271 12272c-20 1-38 2-52 5-14 3-26 6-35 10-9 4-16 9-20 15-4 6-6 12-6 19 0 7 1 12 3 17 2 5 5 9 9 12 4 3 8 5 13 7 5 1 10 2 16 2 8 0 15-1 21-2 6-2 13-4 18-7 6-3 11-7 16-11 5-4 10-9 15-14l0-52zm-143-103c14-13 29-23 45-30 16-7 34-10 53-10 14 0 27 2 37 7 11 5 20 11 28 19 7 8 13 18 17 30 4 12 6 25 6 39l0 161-20 0c-4 0-8-1-10-2-2-1-4-4-5-8l-5-24c-7 6-13 11-19 16-6 5-13 9-20 12-7 3-14 6-22 7-8 2-17 3-26 3-10 0-19-1-28-4-9-3-16-7-22-12-6-5-11-12-15-21-4-8-6-18-6-30 0-10 3-20 8-29 5-9 14-17 27-24 12-7 28-13 48-18 20-5 44-7 72-8l0-20c0-20-4-34-13-44-8-10-21-15-37-15-11 0-20 1-27 4-7 3-14 6-19 9-5 3-10 6-14 9-4 3-8 4-12 4-3 0-6-1-8-2-2-2-4-3-5-6l-8-14z"/>
			<path class="fil6" d="M17478 12354c17 0 30-4 39-12 10-8 14-18 14-32 0-6-1-11-3-16-2-5-5-9-9-13-4-4-10-6-16-8-7-2-15-3-25-3l-54 0 0 84 54 0zm-54-191l0 79 48 0c7 0 14-1 20-3 6-2 11-5 16-9 4-4 8-8 10-13 2-5 4-11 4-17 0-5-1-9-2-14-2-4-4-8-8-12-4-3-9-6-16-8-6-2-14-3-24-3l-48 0zm50-30c16 0 29 2 40 5 11 3 20 7 27 13 7 5 12 12 16 19 3 7 5 15 5 23 0 5-1 11-2 17-1 6-4 12-8 17-4 5-9 10-15 15-6 4-14 8-24 10 19 3 34 10 44 20 10 10 16 23 16 40 0 12-2 23-7 32-5 9-12 17-20 23-9 6-19 11-30 14-11 3-24 4-37 4l-97 0 0-251 92 0z"/>
			<path class="fil6" d="M17848 12385l-44 0 0-217-79 0c-2 32-5 59-9 83-4 23-9 43-14 59-6 16-12 30-19 40-7 10-14 18-22 24-8 6-15 9-23 11-8 2-16 3-24 3-14 0-21-2-21-7l0-28 13 0c6 0 11-1 17-3 6-2 11-6 17-11 6-6 11-14 16-24 5-10 10-23 14-40 4-16 8-36 11-59 3-23 5-51 7-83l160 0 0 251z"/>
			<path class="fil6" d="M18087 12232c0-10-1-20-4-28-3-9-7-16-13-22-6-6-12-11-20-14-8-3-17-5-27-5-21 0-38 6-50 18-12 12-20 29-23 51l138 0zm36 118c-5 7-12 12-20 17-8 5-16 9-24 12-9 3-18 5-27 7-9 2-18 2-28 2-17 0-33-3-48-9-15-6-27-14-38-26-11-11-19-25-25-42-6-17-9-36-9-58 0-18 3-34 8-49 5-15 13-28 23-40 10-11 22-20 37-26 15-6 31-10 49-10 15 0 29 2 42 8 13 5 24 12 33 22 9 10 17 21 22 35 5 14 8 30 8 48 0 7-1 12-2 14-1 2-4 3-8 3l-168 0c0 16 3 30 7 41 4 12 9 22 16 29 7 8 15 14 25 18 10 4 20 6 32 6 11 0 21-1 29-4 8-3 15-5 21-8 6-3 11-6 15-8 4-3 7-4 10-4 4 0 6 1 8 4l12 16z"/>
			<polygon class="fil6" points="18390 12134 18390 12385 18346 12385 18346 12268 18225 12268 18225 12385 18180 12385 18180 12134 18225 12134 18225 12234 18346 12234 18346 12134 "/>
			<path class="fil6" d="M18676 12134l0 251-44 0 0-171c0-3 0-7 1-11 0-4 1-8 1-11-1 3-3 6-4 9-1 3-3 5-5 8l-121 165c-2 3-4 5-7 8-3 2-6 4-9 4l-27 0 0-251 44 0 0 171c0 3 0 7 0 10 0 4-1 8-1 11 1-3 3-6 4-9 1-3 3-5 4-8l121-165c2-3 4-5 7-8 3-2 6-4 9-4l27 0z"/>
			<path class="fil6" d="M18914 12232c0-10-1-20-4-28-3-9-7-16-13-22-6-6-12-11-20-14-8-3-17-5-27-5-21 0-38 6-50 18-12 12-20 29-23 51l138 0zm36 118c-5 7-12 12-20 17-8 5-16 9-24 12-9 3-18 5-27 7-9 2-18 2-28 2-17 0-33-3-48-9-15-6-27-14-38-26-11-11-19-25-25-42-6-17-9-36-9-58 0-18 3-34 8-49 5-15 13-28 23-40 10-11 22-20 37-26 15-6 31-10 49-10 15 0 29 2 42 8 13 5 24 12 33 22 9 10 17 21 22 35 5 14 8 30 8 48 0 7-1 12-2 14-1 2-4 3-8 3l-168 0c0 16 3 30 7 41 4 12 9 22 16 29 7 8 15 14 25 18 10 4 20 6 32 6 11 0 21-1 29-4 8-3 15-5 21-8 6-3 11-6 15-8 4-3 7-4 10-4 4 0 6 1 8 4l12 16z"/>
			<line class="fil7 str0" x1="16154" y1="11962" x2="18218" y2="11962"/>
		</g>
		<g>
			<path class="fil6" d="M2952 9004l4964-4233 33 38-4964 4233-33-38zm-37 37l48 14-27-32 234-31 7 50-234 31-27-32zm0 0l27 32-38 5 11-37zm91-219l24 7-67 227-48-14 67-227 24 7z"/>
		</g>
		<g>
			<path class="fil6" d="M7347 9124l2094-3977 44 23-2094 3977-44-23zm-21 48l50-5-37-20 206-116 25 44-206 116-37-20zm0 0l37 20-34 19-4-39zm4-238l25-2 21 235-50 5-21-235 25-2z"/>
		</g>
		<g>
			<path class="fil6" d="M16328 9043l-4964-4233 33-38 4964 4233-33 38zm43 31l7-50-27 32-67-226 48-14 67 226-27 32zm0 0l27-32 11 37-38-5zm-231-56l3-25 234 31-7 50-234-31 3-25z"/>
		</g>
		<g>
			<path class="fil6" d="M11921 9147l-2094-3977 44-23 2094 3977-44 23zm28 45l25-44-37 20 21-235 50 5-21 235-37 20zm0 0l37-20-3 39-34-19zm-194-137l12-22 206 116-25 44-206-116 12-22z"/>
		</g>
	</g>
</svg>
