<?xml version="1.0" encoding="UTF-8"?>
<svg xmlns="http://www.w3.org/2000/svg" xmlns:xlink="http://www.w3.org/1999/xlink" xml:space="preserve" height="460px" viewBox="0 0 21843 6540" version="1.1" baseProfile="full" style="clip-rule:evenodd;fill-rule:evenodd;image-rendering:optimizeQuality;shape-rendering:geometricPrecision;text-rendering:optimizeLegibility">
	<defs>
		<style type="text/css"><![CDATA[
			.str8 {stroke:black;stroke-width:19.8295}
			.str6 {stroke:#176CED;stroke-width:19.8295}
			.str5 {stroke:#176CED;stroke-width:19.8295;stroke-linejoin:bevel}
			.str9 {stroke:#2B2B2B;stroke-width:19.8295}
			.str10 {stroke:#555555;stroke-width:19.8295}
			.str11 {stroke:gray;stroke-width:19.8295}
			.str0 {stroke:black;stroke-width:24.7868}
			.str2 {stroke:#E49226;stroke-width:49.5737}
			.str3 {stroke:black;stroke-width:99.1473;stroke-linecap:round;stroke-linejoin:round}
			.str4 {stroke:white;stroke-width:109.062;stroke-linecap:round;stroke-linejoin:round}
			.str1 {stroke:black;stroke-width:148.721;stroke-linecap:round;stroke-linejoin:round}
			.str7 {stroke:white;stroke-width:198.295}
			.fil1 {fill:none}
			.fil2 {fill:black}
			.fil0 {fill:white}
			.fil3 {fill:black;fill-rule:nonzero}
		]]></style>
	</defs>
	<g>
		<g>
			<polygon class="fil0 str0" points="20 12 9780 12 9780 4035 9331 3952 8827 4315 7885 3931 7130 4283 6211 3941 5224 4332 4318 3927 3318 4283 2548 3895 1604 4283 1024 3969 467 4283 20 4035 "/>
			<polygon class="fil0 str0" points="12 6527 9772 6527 9772 4544 9323 4462 8819 4824 7877 4441 7122 4792 6203 4450 5216 4842 4310 4436 3310 4792 2540 4404 1596 4792 1016 4479 459 4792 12 4544 "/>
			<line class="fil1 str1" x1="573" y1="631" x2="7839" y2="631"/>
			<line class="fil1 str1" x1="573" y1="2303" x2="9203" y2="2303"/>
			<line class="fil1 str1" x1="573" y1="2860" x2="9203" y2="2860"/>
			<line class="fil1 str1" x1="573" y1="3417" x2="9203" y2="3417"/>
			<rect class="fil1 str2" x="3454" y="928" width="2892" height="749"/>
			<line class="fil1 str3" x1="4376" y1="1894" x2="5400" y2="1894"/>
			<g>
				<path class="fil0 str4" d="M5694 1208c75-27 159 13 185 88l119 333c15-16 34-29 57-37 56-20 115-4 154 37 16-21 39-38 66-48 56-20 115-4 154 37 16-21 39-38 66-48 75-27 159 13 185 88l47 131 9 25c36 101 67 239-10 408l-2 4c-28 53-65 102-110 144l0 0c-50 51-107 88-169 110-18 7-37 12-57 16-185 38-348-56-409-99l-2-1-3-2-2-1c-67-48-135-108-201-179l-1-1c-18-19-38-42-69-78l-16-18c-67-79-102-135-112-181-4-17-5-34-2-50l1-7 0-1c8-34 32-62 65-78l1-1 7-3 4-1 6-2 3-1c21-5 55-6 95 18l2 1-133-372-16-46c-27-75 13-159 88-185z"/>
				<path class="fil2" d="M5721 1285c33-12 69 6 81 38l162 454c8 22 32 33 54 26 22-8 33-32 26-54-12-33 5-69 38-81 33-12 69 6 81 38l21 60c8 22 32 33 54 26 22-8 33-32 26-54-12-33 5-69 38-81 33-12 69 5 81 38l21 60c8 22 32 33 54 26 22-8 33-32 26-54-12-33 5-69 38-81 33-12 69 5 81 38l47 131 9 25c27 76 61 196-7 347-24 46-56 88-95 124 0 0-1 1-1 1-44 44-91 73-138 90-15 5-30 10-46 13-129 26-259-25-346-86-2-1-3-2-5-3-75-54-141-117-190-168-20-21-43-49-83-94-57-66-88-114-95-146-2-8-2-14-1-20 0-1 0-1 0-2 2-10 10-18 19-22 1 0 1 0 2-1 0 0 1 0 1 0 1 0 2 0 2-1 9-2 21 0 34 8 9 6 20 14 34 25l56 49c6 5 13 11 19 17l1 1 23 20 0 0c27 22 42 28 51 25 19-7 0-61 0-61l-15-41-180-505-16-46c-12-33 6-69 38-81m-28-77c-75 27-115 110-88 185l16 46 133 372c0 0-1-1-2-1-40-24-73-23-95-18-1 0-2 0-3 1-2 1-4 1-6 2-1 0-2 1-4 1-2 1-5 2-7 3 0 0-1 0-1 1-33 15-57 43-65 78 0 0 0 1 0 1-1 2-1 5-1 7-3 16-2 33 2 50 10 46 45 102 112 181l16 18c31 35 51 59 69 78 0 0 1 1 1 1 67 71 135 131 201 179l2 1 3 2c1 0 1 1 2 1 61 42 224 136 409 99 19-4 38-9 57-16 62-22 119-59 169-110l0 0c0 0 0 0 0 0 44-42 81-90 110-144 1-1 2-3 2-4 77-169 46-307 10-408l-9-25-47-131c-27-75-110-115-185-88-27 10-50 27-66 48-38-40-98-56-154-37-27 10-50 27-66 48-38-40-98-56-154-37-22 8-41 21-57 37l-119-333c-27-75-110-115-185-88l0 0z"/>
			</g>
		</g>
		<g>
			<g>
				<polygon class="fil0 str5" points="11569 4945 11569 5094 21825 5094 21825 4945 "/>
			</g>
			<polygon class="fil0 str6" points="11569 4945 21825 4945 19640 1200 13754 1200 "/>
			<g>
				<rect class="fil1 str7" x="14096" y="1047" width="2049" height="622"/>
				<rect class="fil0 str8" x="14096" y="1047" width="2049" height="622"/>
			</g>
			<g>
				<g>
					<path class="fil1 str7" d="M15250 1409c725 0 1450 0 2176 0 0 245 0 490 0 735-725 0-1450 0-2176 0 0-245 0-490 0-735z"/>
					<path class="fil0 str9" d="M15250 1409c725 0 1450 0 2176 0 0 245 0 490 0 735-725 0-1450 0-2176 0 0-245 0-490 0-735z"/>
				</g>
				<g>
					<path class="fil1 str7" d="M16404 1770c767 0 1535 0 2302 0 0 283 0 566 0 849-767 0-1535 0-2302 0 0-283 0-566 0-849z"/>
					<path class="fil0 str10" d="M16404 1770c767 0 1535 0 2302 0 0 283 0 566 0 849-767 0-1535 0-2302 0 0-283 0-566 0-849z"/>
				</g>
			</g>
			<g>
				<rect class="fil1 str7" x="17559" y="2131" width="2428" height="962"/>
				<rect class="fil0 str11" x="17559" y="2131" width="2428" height="962"/>
			</g>
			<g>
				<g>
					<path class="fil1 str7" d="M13734 1650c753 0 1507 0 2260 0 0 218 0 436 0 654-753 0-1507 0-2260 0 0-218 0-436 0-654z"/>
					<path class="fil0 str8" d="M13734 1650c753 0 1507 0 2260 0 0 218 0 436 0 654-753 0-1507 0-2260 0 0-218 0-436 0-654z"/>
				</g>
				<g>
					<path class="fil1 str7" d="M13373 2254c824 0 1647 0 2471 0 0 228 0 457 0 685-824 0-1647 0-2471 0 0-228 0-457 0-685z"/>
					<path class="fil0 str8" d="M13373 2254c824 0 1647 0 2471 0 0 228 0 457 0 685-824 0-1647 0-2471 0 0-228 0-457 0-685z"/>
				</g>
				<g>
					<path class="fil1 str7" d="M13011 2857c894 0 1788 0 2681 0 0 239 0 478 0 717-894 0-1788 0-2681 0 0-239 0-478 0-717z"/>
					<path class="fil0 str8" d="M13011 2857c894 0 1788 0 2681 0 0 239 0 478 0 717-894 0-1788 0-2681 0 0-239 0-478 0-717z"/>
				</g>
			</g>
			<g>
				<rect class="fil1 str7" x="12650" y="3460" width="2892" height="749"/>
				<rect class="fil0 str8" x="12650" y="3460" width="2892" height="749"/>
			</g>
			<rect class="fil1 str2" x="12650" y="3460" width="2892" height="749"/>
		</g>
		<g>
			<path class="fil3" d="M7105 1265l0 74-2 0-2 0-2 0-2 0-2 0-2-1-2-1-2-1-2-1-2-1-2-1-2-1-1-1-1-1-1-1-1-1-1-1-1-1-1-1-1-1-1-2-1-2-1-2-1-2-1-2-1-2-1-2 0-2 0-2 0-2 0-2 0-2 0-2 0-2 0-2 0-2 0-2 1-2 1-2 1-2 1-2 1-2 1-2 1-2 1-1 1-1 1-1 1-1 1-1 1-1 1-1 1-1 2-1 2-1 2-1 2-1 2-1 2-1 2-1 2 0 2 0 2 0 2 0 2 0zm5366 2579l0 74-159-8-145-22-132-36-121-49-110-60-101-71-94-80-88-89-84-96-81-102-80-107-80-112-82-115-86-117-91-119-98-120-106-119-116-118-127-116-140-114-154-110-170-105-187-100-207-93-227-86-249-78-273-68-298-58-325-47-354-35-384-21-415-7 0-74 418 7 387 22 357 35 329 47 302 59 277 69 254 79 231 88 211 95 192 102 174 108 158 113 143 116 130 119 118 121 108 122 100 122 92 121 87 118 83 115 80 111 79 106 79 100 81 93 84 85 89 76 95 67 103 56 112 45 124 34 137 21 152 7zm78 68l-40-62 0 62-293-190 40-62 293 190 0 62zm0 0l0-62 48 31-48 31zm-314 159l-20-31 293-190 40 62-293 190-20-31zm236-153l0-74 2 0 2 0 2 0 2 0 2 0 2 1 2 1 2 1 2 1 2 1 2 1 2 1 1 1 1 1 1 1 1 1 1 1 1 1 1 1 1 1 1 2 1 2 1 2 1 2 1 2 1 2 1 2 0 2 0 2 0 2 0 2 0 2 0 2 0 2 0 2 0 2 0 2-1 2-1 2-1 2-1 2-1 2-1 2-1 2-1 1-1 1-1 1-1 1-1 1-1 1-1 1-1 1-2 1-2 1-2 1-2 1-2 1-2 1-2 1-2 0-2 0-2 0-2 0-2 0z"/>
		</g>
	</g>
</svg>
