<?xml version="1.0" encoding="UTF-8"?>
<svg xmlns="http://www.w3.org/2000/svg" xmlns:xlink="http://www.w3.org/1999/xlink" xml:space="preserve" height="460px" viewBox="0 0 21305 10370" version="1.1" baseProfile="full" style="clip-rule:evenodd;fill-rule:evenodd;image-rendering:optimizeQuality;shape-rendering:geometricPrecision;text-rendering:optimizeLegibility">
	<defs>
		<style type="text/css"><![CDATA[
			.str0 {stroke:black;stroke-width:103.747;stroke-linecap:round;stroke-linejoin:round;stroke-dasharray:207.494779 311.242168}
			.fil2 {fill:none}
			.fil1 {fill:black}
			.fil0 {fill:white}
			.fil3 {fill:black;fill-rule:nonzero}
		]]></style>
	</defs>
	<g>
		<g>
			<path class="fil0" d="M2770 1385c0 765-620 1385-1385 1385-765 0-1385-620-1385-1385 0-765 620-1385 1385-1385 765 0 1385 620 1385 1385z"/>
			<path class="fil1" d="M2050 2370c0 13 0 58-15 65-27 13-59-8-85 7-16 10-24 28-36 41-36 41-76 79-112 120-6 7-10 19-9 29 0 1 4 9 1 9-28 7-63-37-68-62-5-33 24-55 34-83 30-84 70-242 56-329-21-127-123-55-142-208-4-30-9-66 4-95 13-29 46-42 59-71 28-64-36-150 70-162l10 0 8 0 5 0 8 0 14-4c13-4 21-5 34-6 16-1 31 5 47 7 36 5 72 0 104 20 61 37 125 74 177 123l-31 50c5-6 12-8 19-7 68 8 183 16 227 84 17 68-114 142-117 224 0 10 12 25 1 34-27 22-64 21-91 42-65 53-79 161-174 173zm-1585-1790c-119 63-75-46-27-92l-7-37c145-126 485-232 665-214-18-70-48-46-102-75 78 2 160 5 238-7 18 0 93 128 166 112l85-58c55 0 106 16 160 27-1 83-92 90-139 163l0 20 149 102c84-36 58 81 71 95 53 60 104-96 115-132l-61-102 115 27 78 85c26 2 58 0 81-14 22 53 72 106 122 132 16 106 156 177-10 146l-3-68-136 0c42 7 67 139 85 173l-122 0c11 74-135 75-146 139 0 80-44 31-95 81l24 126-234-109c-157 42-143 134-68 255l51-31c-5-5 34-34 37-7l0 98 173 34 0 105 92 31-126-20c-61-161-472-137-445-278-27-30-195-220-227-204-298-165 42-437-302-567l-231 0-7 20-20 41zm-465 805c0 765 620 1385 1385 1385 765 0 1385-620 1385-1385 0-765-620-1385-1385-1385-765 0-1385 620-1385 1385z"/>
		</g>
		<line class="fil2 str0" x1="1385" y1="3030" x2="1385" y2="10150"/>
		<line class="fil2 str0" x1="1676" y1="4953" x2="2566" y2="4953"/>
		<line class="fil2 str0" x1="1676" y1="10137" x2="2566" y2="10137"/>
		<path class="fil3" d="M2960 4902c-1 2-3 3-4 4-1 1-3 2-6 2-3 0-5-1-8-3-3-2-7-4-11-7-5-3-10-5-17-7-7-2-15-3-24-3-13 0-24 2-34 7-10 5-18 11-24 20-7 9-12 19-15 31-3 12-5 26-5 41 0 16 2 30 5 42 4 12 9 22 15 31 7 8 15 15 24 19 9 4 20 7 31 7 11 0 20-1 27-4 7-3 13-6 18-9 5-3 9-6 12-9 3-3 6-4 9-4 4 0 7 1 9 4l13 17c-6 7-12 13-19 18-7 5-15 9-23 12-8 3-17 6-26 7-9 2-18 2-28 2-16 0-31-3-45-9-14-6-26-15-36-26-10-11-18-25-24-42-6-17-9-35-9-57 0-19 3-37 8-54 5-16 13-31 24-42 10-12 23-21 38-28 15-7 32-10 52-10 18 0 34 3 48 9 14 6 26 14 37 25l-12 16z"/>
		<polygon class="fil3" points="3240 4891 3140 4891 3140 5115 3095 5115 3095 4891 2995 4891 2995 4856 3240 4856 "/>
		<path class="fil3" d="M3422 4999c-21 1-39 2-54 5-15 3-27 6-36 10-9 4-16 9-20 15-4 6-6 12-6 19 0 7 1 13 3 18 2 5 5 9 9 12 4 3 8 5 14 7 5 1 11 2 17 2 8 0 15-1 22-2 7-2 13-4 19-7 6-3 12-7 17-11 5-4 11-9 16-15l0-54zm-147-106c14-14 30-24 46-31 17-7 35-10 55-10 15 0 27 2 39 7 11 5 21 11 28 20 8 9 13 19 17 31 4 12 6 25 6 40l0 166-20 0c-4 0-8-1-10-2-2-1-4-4-6-9l-5-25c-7 6-13 12-20 17-6 5-13 9-21 12-7 3-15 6-23 8-8 2-17 3-27 3-10 0-20-1-28-4-9-3-17-7-23-13-7-6-12-13-16-21-4-9-6-19-6-31 0-10 3-20 8-30 6-9 15-18 27-25 13-7 29-13 49-18 20-5 45-7 75-8l0-20c0-20-4-35-13-46-9-10-21-15-38-15-11 0-21 1-28 4-8 3-14 6-20 9-6 4-10 7-14 9-4 3-8 4-12 4-3 0-6-1-8-2-2-2-4-4-6-6l-8-15z"/>
		<polygon class="fil3" points="3745 4891 3645 4891 3645 5115 3600 5115 3600 4891 3500 4891 3500 4856 3745 4856 "/>
		<path class="fil3" d="M3888 5082c9 0 17-1 24-4 7-2 12-6 17-10 4-4 8-9 10-15 2-6 3-12 3-18 0-6-1-12-3-17-2-5-5-10-9-14-4-4-10-7-17-10-7-2-16-4-26-4l-55 0 0 91 56 0zm-1-125c18 0 33 2 45 6 12 4 22 10 29 17 7 7 13 15 16 25 3 9 5 19 5 29 0 12-2 22-6 32-4 10-10 18-18 25-8 7-18 13-30 17-12 4-25 6-41 6l-100 0 0-260 44 0 0 102 55 0z"/>
		<path class="fil3" d="M4256 4856l0 260-46 0 0-176c0-3 0-7 1-11 0-4 1-8 1-12-2 3-3 7-5 9-2 3-3 6-5 8l-125 170c-2 3-4 5-7 8-3 2-6 4-9 4l-28 0 0-260 46 0 0 176c0 3 0 7-1 11 0 4-1 8-1 12 2-3 3-6 5-9 2-3 3-5 5-8l125-170c2-3 4-5 7-8 3-2 6-4 9-4l27 0z"/>
		<polygon class="fil3" points="4456 4942 4582 4942 4582 4981 4456 4981 "/>
		<path class="fil3" d="M5195 5085c26 0 45-8 58-25 13-16 20-39 20-68 0-29-6-52-19-68-13-16-31-25-57-25-12 0-23 2-33 6-10 4-18 9-25 17-7 7-12 16-16 27-4 11-6 23-6 37 0 16 2 29 5 42 3 12 8 23 15 31 6 9 14 15 24 20 9 5 21 7 33 7zm18-290c-17 2-32 5-45 12-12 6-23 14-31 25-8 10-14 23-18 38-4 15-6 31-7 50 4-8 9-16 16-22 6-7 14-12 22-17 8-5 18-8 27-11 10-2 20-4 31-4 17 0 33 3 47 9 14 6 25 15 35 26 10 11 17 24 22 40 5 16 8 33 8 52 0 19-3 37-9 52-6 16-14 29-25 40-11 11-24 20-39 26-15 6-32 9-51 9-17 0-34-3-49-9-15-6-28-15-39-29-11-13-20-31-26-53-6-22-10-49-10-81 0-27 2-52 7-75 5-23 13-43 24-60 11-17 25-31 43-41 18-10 39-17 64-19l93-8 3 24c1 5 0 10-2 13-2 4-6 6-11 6l-78 6z"/>
		<path class="fil3" d="M5519 4999c-21 1-39 2-54 5-15 3-27 6-36 10-9 4-16 9-20 15-4 6-6 12-6 19 0 7 1 13 3 18 2 5 5 9 9 12 4 3 8 5 14 7 5 1 11 2 17 2 8 0 15-1 22-2 7-2 13-4 19-7 6-3 12-7 17-11 5-4 11-9 16-15l0-54zm-147-106c14-14 30-24 46-31 17-7 35-10 55-10 15 0 27 2 39 7 11 5 21 11 28 20 8 9 13 19 17 31 4 12 6 25 6 40l0 166-20 0c-4 0-8-1-10-2-2-1-4-4-6-9l-5-25c-7 6-13 12-20 17-6 5-13 9-21 12-7 3-15 6-23 8-8 2-17 3-27 3-10 0-20-1-28-4-9-3-17-7-23-13-7-6-12-13-16-21-4-9-6-19-6-31 0-10 3-20 8-30 6-9 15-18 27-25 13-7 29-13 49-18 20-5 45-7 75-8l0-20c0-20-4-35-13-46-9-10-21-15-38-15-11 0-21 1-28 4-8 3-14 6-20 9-6 4-10 7-14 9-4 3-8 4-12 4-3 0-6-1-8-2-2-2-4-4-6-6l-8-15z"/>
		<path class="fil3" d="M5616 4882c10-9 22-17 36-22 14-6 31-8 50-8 16 0 30 2 41 6 12 4 22 9 30 15 8 6 14 13 18 22 4 8 6 17 6 25 0 5-1 10-2 16-2 6-4 11-8 16-4 5-9 10-15 14-6 4-13 8-22 11 17 5 30 13 39 24 9 11 14 24 14 40 0 12-3 23-8 32-5 10-13 18-22 25-9 7-20 12-32 16-12 4-25 5-38 5-8 0-17-1-25-2-9-2-17-4-25-7-8-3-16-7-23-12-7-5-14-11-19-18l13-17c2-3 5-4 9-4 3 0 6 1 10 4 3 3 8 6 13 9 5 3 11 6 19 9 7 3 16 4 27 4 9 0 18-1 25-4 7-2 14-5 19-10 5-4 9-9 12-15 3-6 4-12 4-18 0-13-5-23-16-31-11-8-27-12-49-12l-29 0 0-30 29 0c9 0 18-1 25-3 8-2 14-5 19-8 5-3 9-8 12-12 3-5 4-10 4-16 0-5-1-10-3-15-2-5-6-9-10-12-5-3-11-6-18-8-7-2-15-3-25-3-10 0-19 1-26 3-7 2-13 4-18 7-5 2-9 5-12 7-3 2-6 3-8 3-2 0-4 0-5-1-1-1-3-3-5-5l-11-18z"/>
		<path class="fil3" d="M5962 5082c9 0 17-1 24-4 7-2 12-6 17-10 4-4 8-9 10-15 2-6 3-12 3-18 0-6-1-12-3-17-2-5-5-10-9-14-4-4-10-7-17-10-7-2-16-4-26-4l-55 0 0 91 56 0zm-1-125c18 0 33 2 45 6 12 4 22 10 29 17 7 7 13 15 16 25 3 9 5 19 5 29 0 12-2 22-6 32-4 10-10 18-18 25-8 7-18 13-30 17-12 4-25 6-41 6l-100 0 0-260 44 0 0 102 55 0zm198-102l0 260-46 0 0-260 46 0z"/>
		<path class="fil3" d="M6542 5082l0-190-82 0c-2 27-4 50-7 71-3 20-7 38-11 54-4 15-8 29-13 39-5 11-10 20-15 26l129 0zm92-1l0 110c0 4-1 8-4 10-2 2-6 4-10 4l-28 0 0-89-218 0 0 76c0 3-1 6-3 9-2 3-5 4-10 4l-29 0 0-123 8 0c6 0 12-1 18-3 6-2 12-6 17-12 5-6 11-14 16-24 5-10 9-24 13-41 4-17 7-37 10-61 3-24 5-52 7-85l164 0 0 225 47 0z"/>
		<path class="fil3" d="M6821 4999c-21 1-39 2-54 5-15 3-27 6-36 10-9 4-16 9-20 15-4 6-6 12-6 19 0 7 1 13 3 18 2 5 5 9 9 12 4 3 8 5 14 7 5 1 11 2 17 2 8 0 15-1 22-2 7-2 13-4 19-7 6-3 12-7 17-11 5-4 11-9 16-15l0-54zm-147-106c14-14 30-24 46-31 17-7 35-10 55-10 15 0 27 2 39 7 11 5 21 11 28 20 8 9 13 19 17 31 4 12 6 25 6 40l0 166-20 0c-4 0-8-1-10-2-2-1-4-4-6-9l-5-25c-7 6-13 12-20 17-6 5-13 9-21 12-7 3-15 6-23 8-8 2-17 3-27 3-10 0-20-1-28-4-9-3-17-7-23-13-7-6-12-13-16-21-4-9-6-19-6-31 0-10 3-20 8-30 6-9 15-18 27-25 13-7 29-13 49-18 20-5 45-7 75-8l0-20c0-20-4-35-13-46-9-10-21-15-38-15-11 0-21 1-28 4-8 3-14 6-20 9-6 4-10 7-14 9-4 3-8 4-12 4-3 0-6-1-8-2-2-2-4-4-6-6l-8-15z"/>
		<polygon class="fil3" points="7151 4856 7151 5115 7105 5115 7105 4994 6981 4994 6981 5115 6935 5115 6935 4856 6981 4856 6981 4959 7105 4959 7105 4856 "/>
		<polygon class="fil3" points="7440 4856 7440 5115 7394 5115 7394 4994 7269 4994 7269 5115 7223 5115 7223 4856 7269 4856 7269 4959 7394 4959 7394 4856 "/>
		<path class="fil3" d="M7612 5082c9 0 17-1 24-4 7-2 12-6 17-10 4-4 8-9 10-15 2-6 3-12 3-18 0-6-1-12-3-17-2-5-5-10-9-14-4-4-10-7-17-10-7-2-16-4-26-4l-55 0 0 91 56 0zm-1-125c18 0 33 2 45 6 12 4 22 10 29 17 7 7 13 15 16 25 3 9 5 19 5 29 0 12-2 22-6 32-4 10-10 18-18 25-8 7-18 13-30 17-12 4-25 6-41 6l-100 0 0-260 44 0 0 102 55 0zm198-102l0 260-46 0 0-260 46 0z"/>
		<path class="fil3" d="M8095 5115l-44 0c-4 0-7-1-9-3-2-2-4-4-5-6l-65-102c-1 2-1 5-2 7-1 2-2 4-3 6l-60 88c-2 2-3 5-5 6-2 2-5 3-8 3l-41 0 91-133-87-126 44 0c4 0 6 1 8 2 2 1 3 3 5 5l64 97c1-5 3-10 6-14l56-82c2-2 3-4 5-6 2-1 4-2 6-2l42 0-87 124 91 136z"/>
		<path class="fil3" d="M4870 4933l0 19-198 103 0-33c0-3 1-5 2-7 1-2 4-4 7-6l115-58c3-2 7-3 11-5 4-1 8-2 12-3-9-2-16-5-23-8l-115-58c-3-2-6-4-7-6-1-2-2-5-2-8l0-33 198 103z"/>
		<g>
			<rect class="fil0" x="9833" y="3176" width="3656" height="3656"/>
			<path class="fil1" d="M13291 6151l121 0 0-121-121 0 0-121 121 0 0-121 0-121 0-121-121 0 0 121 0 121-121 0 0-121-121 0 0 121-121 0 0-121 0-121 121 0 0-121 0-121 121 0 0 121 121 0 0 0 121 0 0-121 0-121 0 0 0-121-121 0 0 0-121 0 0 121-121 0 0-121-121 0 0 121 0 0 0 121-121 0-121 0-121 0 0 121 0 121 0 0 0 121-121 0 0-121 0 0 0-121-121 0 0-121 121 0 0-121 0 0 0-121 121 0 0 121 121 0 0-121-121 0 0-121 121 0 0-121-121 0 0-121 121 0 121 0 0-121 0-121 121 0 0-121 0-121-121 0-121 0 0 121-121 0 0 121 0 0 0 121 0 121-121 0 0 121-121 0-121 0 0 0-121 0 0-121 121 0 0-121-121 0 0 121-121 0 0-121-121 0 0 0-121 0 0-121 121 0 0-121 121 0 121 0 121 0 0 121 121 0 0 121 121 0 0-121-121 0 0-121 121 0 0-121 0-121 0 0 0-121 0-121 0-121-121 0 0-121-121 0 0 121 0 0 0 121-121 0 0 121 0 121 121 0 0-121 0-121 121 0 0 121 0 121 0 0 0 121 0 121-121 0 0-121-121 0-121 0-121 0 0-121 121 0 0-121 0-121-121 0 0-121 0 0 0-121 121 0 0 121 121 0 0-121-121 0 0-121 121 0 121 0 0-121 121 0 0-121-121 0 0 121-121 0 0-121-121 0-121 0 0 121 121 0 0 121-121 0 0 0-121 0 0 121-121 0 0-121 0-121 0 0 0-121-121 0 0 0-121 0-121 0 0 121 0 0 0 121-121 0 0 121-121 0 0 121-121 0 0 121 0 121 0 121 121 0 0 121 0 121-121 0 0-121-121 0 0 0-121 0-121 0-121 0 0 0-121 0-121 0-121 0 0 121-121 0 0 121 121 0 0 121-121 0 0 121 0 121 121 0 0-121 0-121 121 0 0 121 0 121 121 0 0 121 121 0 0 121 0 121-121 0 0-121-121 0-121 0 0 121 0 0 0 121 0 121 0 121 0 0 0 121 0 121 121 0 0-121 0-121 0 0 0-121 0-121 0-121 121 0 0 121 121 0 0 121-121 0 0 121 121 0 0 121-121 0 0 121 121 0 0-121 121 0 0 121 121 0 121 0 0-121 121 0 0 121 0 121 0 0 0 121 0 121 0 121 0 0 0 121 0 121 0 121 121 0 0 121 121 0 0 0 121 0 0-121 121 0 0 121 121 0 0-121 121 0 0 121 121 0 121 0 0-121 0 0 0-121 0-121 0-121 0 0 0-121 121 0 0 121 0 0 0 121 121 0 0-121 121 0 0 121 0 121 121 0 0 121 121 0 0 121 121 0 0-121-121 0 0-121 121 0 0 0 121 0 0-121 121 0 0 121 0 121 0 0 0 121 121 0 0 0 121 0 121 0 0-121 121 0 0-121 0-121-121 0 0-121 121 0 0-121zm-3260-2898l-121 0 0 121 0 0 0 121 0 121 0 121 0 0 0 121 0 121 0 121 121 0 0 0 121 0 121 0 121 0 0 0 121 0 121 0 121 0 0-121 0-121 0-121 0 0 0-121 0-121 0-121 0 0 0-121-121 0-121 0-121 0 0 0-121 0-121 0-121 0 0 0zm0 242l0-121 121 0 121 0 121 0 0 0 121 0 121 0 0 121 0 121 0 121 0 0 0 121 0 121-121 0-121 0 0 0-121 0-121 0-121 0 0-121 0-121 0 0 0-121 0-121zm0 845l121 0 0 121-121 0 0-121zm0 1570l-121 0 0 121 0 121 0 121 0 0 0 121 0 121 0 121 0 0 0 121 121 0 0 0 121 0 121 0 121 0 0 0 121 0 121 0 121 0 0-121 0 0 0-121 0-121 0-121 0 0 0-121 0-121 0-121-121 0-121 0-121 0 0 0-121 0-121 0-121 0 0 0zm0 242l0-121 121 0 121 0 121 0 0 0 121 0 121 0 0 121 0 121 0 0 0 121 0 121 0 121-121 0-121 0 0 0-121 0-121 0-121 0 0-121 0-121 0-121 0 0 0-121zm121-1691l121 0 0 121-121 0 0-121zm121-966l-121 0 0 121 0 121 0 0 0 121 121 0 121 0 0 0 121 0 0-121 0 0 0-121 0-121-121 0 0 0-121 0zm0 845l121 0 0 121-121 0 0-121zm0 242l121 0 0-121 121 0 0-121 121 0 121 0 0 121-121 0 0 121-121 0 0 121 0 121 121 0 121 0 0-121-121 0 0-121 121 0 0 0 121 0 121 0 0 121-121 0 0 121 121 0 121 0 0-121 121 0 0-121-121 0 0 0-121 0 0-121 0 0 0-121 121 0 0 121 121 0 121 0 0-121 0-121 121 0 0 121 0 121 121 0 0 121 0 121 121 0 121 0 0 0 121 0 0 121 0 0 0 121-121 0 0-121-121 0-121 0-121 0 0 0-121 0 0 121-121 0 0 121-121 0 0-121-121 0 0 121-121 0 0-121-121 0 0 0-121 0-121 0-121 0 0-121-121 0 0-121 0-121zm0 1570l-121 0 0 121 0 0 0 121 0 121 121 0 121 0 0 0 121 0 0-121 0-121 0 0 0-121-121 0 0 0-121 0zm242-966l121 0 0 121-121 0 0-121zm0 362l121 0 121 0 0 121-121 0-121 0 0-121zm121-483l121 0 0 121-121 0 0-121zm0 242l121 0 0 121-121 0 0-121zm121-121l121 0 0 121-121 0 0-121zm0 242l121 0 121 0 121 0 0 121-121 0-121 0-121 0 0-121zm121-2053l121 0 121 0 0-121-121 0-121 0 0 121zm121 362l121 0 0-121 121 0 0 121 121 0 0 121 121 0 0 0 121 0 0 121 0 121-121 0 0-121-121 0 0 121-121 0 0-121 0-121-121 0 0 121 0 121-121 0 0-121 0-121 0-121zm0 1449l121 0 0 121-121 0 0-121zm0 483l121 0 0-121 121 0 121 0 0 121 121 0 0 121-121 0 0 121 121 0 0 121 0 121 0 121-121 0 0-121 0-121-121 0 0-121-121 0 0 121-121 0 0-121 0 0 0-121 0-121zm0 483l121 0 0 0 121 0 0 121 0 0 0 121 121 0 121 0 0 121 0 121-121 0 0-121-121 0 0 121-121 0 0 0-121 0 0-121 121 0 0-121 0-121-121 0 0-121zm121-2053l121 0 0 121-121 0 0-121zm121 1087l121 0 0 121 0 121-121 0 0-121 0-121zm121-1691l121 0 0 121-121 0 0-121zm0 1570l121 0 0 0 121 0 0-121 121 0 121 0 0 121 0 121 121 0 0 121-121 0 0 0-121 0-121 0 0 121-121 0 0-121 0-121-121 0 0-121zm121-1449l121 0 0 121-121 0 0-121zm-121 1087l121 0 0-121-121 0 0 121zm121 1087l121 0 0-121 121 0 0-121-121 0 0-121 121 0 121 0 0 0 121 0 121 0 0 121 121 0 0 121 0 121-121 0 0-121-121 0 0-121-121 0 0 121 0 121 0 121-121 0-121 0-121 0 0-121zm0 483l121 0 0 121-121 0 0-121zm121-2174l121 0 0 121 0 121-121 0 0-121 0-121zm0 1932l121 0 0 121 0 121-121 0 0-121 0-121zm0 483l121 0 0 121-121 0 0-121zm121-2657l121 0 0 121 0 121-121 0 0-121 0-121zm242 1087l121 0 0 121 0 121-121 0 0-121 0-121zm0 845l121 0 0 121 121 0 0 121 0 121-121 0-121 0 0-121 0-121 0 0 0-121zm121-483l121 0 0 121-121 0 0-121zm-121 1449l121 0 0-121-121 0 0 121zm242-1811l121 0 0 121 0 121 0 0 0 121-121 0 0-121 0 0 0-121 0-121zm0 483l121 0 0 121-121 0 0-121zm0 362l121 0 0 121-121 0 0-121zm0 362l121 0 0 121-121 0 0-121zm121 242l121 0 0 121-121 0 0-121zm121-604l121 0 0 0 121 0 121 0 0 121 0 0 0 121 0 121-121 0-121 0 0 0-121 0 0-121 0-121 0 0 0-121zm0 483l121 0 0 0 121 0 0 121-121 0 0 0-121 0 0-121zm242-3019l-121 0 0 121 0 0 0 121 0 121 0 121 0 0 0 121 0 121 0 121 121 0 121 0 121 0 0 0 121 0 121 0 121 0 0 0 121 0 0-121 0-121 0-121 0 0 0-121 0-121 0-121 0 0 0-121-121 0 0 0-121 0-121 0-121 0 0 0-121 0-121 0zm0 242l0-121 121 0 121 0 0 0 121 0 121 0 121 0 0 121 0 121 0 121 0 0 0 121 0 121-121 0-121 0-121 0 0 0-121 0-121 0 0-121 0-121 0 0 0-121 0-121zm0 1932l121 0 0 121 0 0 0 121-121 0 0-121 0 0 0-121zm-121 604l121 0 0-121-121 0 0 121zm242 242l121 0 0 121-121 0 0-121zm121-2777l-121 0 0 121 0 121 0 0 0 121 121 0 0 0 121 0 121 0 0-121 0 0 0-121 0-121-121 0-121 0 0 0zm-121 1449l121 0 0 0 121 0 0-121 121 0 121 0 0 121 121 0 0-121 0 0 0-121-121 0 0-121-121 0 0-121-121 0 0 121-121 0 0 121 0 121-121 0 0 121zm121 966l121 0 0-121 121 0 0 121 0 0 0 121 121 0 0 121-121 0-121 0 0-121-121 0 0-121zm121-1208l0-121 121 0 0 121-121 0zm0 1811l121 0 0 121-121 0 0-121zm121-1208l0-121 121 0 0 121-121 0zm242-966l0-121-121 0 0 121 0 121 121 0 0-121z"/>
		</g>
		<path class="fil3" d="M9781 7242c24 0 42-6 53-17 11-12 17-28 17-48 0-9-1-18-4-25-3-8-7-14-13-19-6-5-13-9-22-12-9-3-19-4-31-4l-49 0 0 127 49 0zm0-185c25 0 47 3 66 9 19 6 34 14 46 25 12 11 21 23 27 38 6 15 9 31 9 48 0 18-3 35-9 50-6 15-15 28-27 39-12 11-27 19-46 25-18 6-40 9-65 9l-49 0 0 128-77 0 0-372 126 0z"/>
		<path class="fil3" d="M11765 7243c0 27-5 52-14 75-9 23-22 42-39 59-17 16-37 29-60 38-23 9-49 14-78 14l-143 0 0-372 143 0c29 0 54 5 78 14 23 9 43 22 60 39 17 16 30 36 39 59 9 23 14 48 14 75zm-79 0c0-19-3-37-8-53-5-16-12-29-22-39-10-11-21-19-35-25-14-6-29-9-47-9l-66 0 0 251 66 0c17 0 33-3 47-9 14-6 25-14 35-25 10-11 17-24 22-40 5-16 8-33 8-53z"/>
		<path class="fil3" d="M12785 7370c12 0 22-2 30-5 8-3 14-7 19-12 5-5 8-11 10-17 2-6 3-13 3-20 0-8-1-14-3-20-2-6-6-11-11-15-5-4-11-7-19-10-8-2-18-3-29-3l-65 0 0 102 66 0zm-66-254l0 100 50 0c11 0 20-1 29-3 8-2 15-5 21-9 6-4 10-9 13-16 3-6 4-14 4-23 0-9-1-17-4-24-2-6-6-12-11-16-5-4-12-7-19-9-8-2-17-3-28-3l-55 0zm55-58c25 0 46 2 64 7 18 5 32 11 43 20 11 9 19 19 24 31 5 12 8 26 8 41 0 9-1 17-4 25-2 8-6 15-12 22-5 7-12 13-20 19-8 6-18 10-29 14 25 6 44 16 56 29 12 13 18 31 18 53 0 16-3 30-9 44-6 13-15 25-27 35-12 10-26 18-43 23-17 6-37 8-59 8l-144 0 0-372 132 0z"/>
		<path class="fil3" d="M10017 7222c8-18 18-32 30-42 12-10 27-15 44-15 5 0 11 1 16 2 5 1 9 3 13 6l-3 34c-1 4-4 6-8 6-2 0-6-1-10-2-5-1-10-2-16-2-8 0-15 1-22 4-6 2-12 6-17 11-5 5-10 11-14 17-4 7-8 15-11 24l0 164-46 0 0-260 26 0c5 0 8 1 10 3 2 2 3 5 4 10l3 39z"/>
		<path class="fil3" d="M10259 7165c19 0 36 3 51 9 15 6 28 15 39 27 11 12 19 26 25 42 6 16 9 35 9 55 0 21-3 39-9 55-6 16-14 30-25 42-11 12-24 20-39 27-15 6-32 9-51 9-19 0-36-3-52-9-15-6-28-15-39-27-11-12-19-26-25-42-6-16-9-35-9-55 0-20 3-39 9-55 6-16 14-30 25-42 11-12 24-21 39-27 15-6 32-9 52-9zm0 232c26 0 45-9 57-26 13-17 19-41 19-72 0-31-6-55-19-72-13-17-32-26-57-26-13 0-24 2-34 7-10 4-18 11-24 19-6 8-11 19-14 31-3 12-5 26-5 41 0 31 6 55 19 72 13 17 32 26 58 26z"/>
		<path class="fil3" d="M10516 7433c-21 0-36-6-47-17-11-11-17-28-17-49l0-159-31 0c-3 0-5-1-7-2-2-2-3-4-3-8l0-18 43-5 11-80c1-3 2-5 3-6 2-2 4-2 7-2l23 0 0 89 75 0 0 33-75 0 0 156c0 11 3 19 8 24 5 5 12 8 20 8 5 0 9-1 12-2 4-1 6-3 9-4 3-2 5-3 7-4 2-1 3-2 5-2 2 0 5 1 6 4l13 22c-8 7-17 13-28 17-11 4-23 6-34 6z"/>
		<path class="fil3" d="M10792 7271c0-11-1-20-4-29-3-9-7-16-13-23-6-6-13-11-21-15-8-4-18-5-28-5-22 0-39 6-52 19-13 13-21 30-24 53l142 0zm37 122c-6 7-12 13-20 18-8 5-16 9-25 12-9 3-18 6-28 7-10 2-19 2-28 2-18 0-34-3-50-9-15-6-28-15-39-27-11-12-20-26-26-43-6-17-9-37-9-59 0-18 3-35 8-51 6-16 13-29 24-41 10-12 23-21 38-27 15-7 32-10 51-10 16 0 30 3 43 8 13 5 25 13 34 23 10 10 17 22 23 36 5 14 8 31 8 49 0 7-1 12-2 14-2 2-4 4-9 4l-173 0c1 16 3 31 7 43 4 12 10 22 17 30 7 8 16 14 26 18 10 4 21 6 33 6 11 0 21-1 30-4 8-3 15-5 21-9 6-3 11-6 15-9 4-3 7-4 10-4 4 0 7 1 9 4l13 17z"/>
		<path class="fil3" d="M10937 7170l0 260-46 0 0-260 46 0zm10-81c0 4-1 9-3 12-2 4-4 7-7 10-3 3-6 5-10 7-4 2-8 3-13 3-4 0-9-1-12-3-4-2-7-4-10-7-3-3-5-6-7-10-2-4-3-8-3-12 0-4 1-9 3-13 2-4 4-8 7-11 3-3 6-5 10-7 4-2 8-3 12-3 4 0 9 1 13 3 4 2 8 4 10 7 3 3 5 6 7 11 2 4 3 8 3 13z"/>
		<path class="fil3" d="M11055 7207c6-6 12-12 18-17 6-5 13-10 20-13 7-4 15-6 23-8 8-2 16-3 26-3 14 0 27 2 38 7 11 5 20 11 27 20 7 9 13 19 16 31 4 12 6 26 6 40l0 165-46 0 0-165c0-20-4-35-13-46-9-11-23-16-41-16-13 0-26 3-38 10-12 6-23 15-32 26l0 191-46 0 0-260 27 0c6 0 11 3 12 9l4 28z"/>
		<path class="fil3" d="M11959 7312c-21 1-39 2-54 5-15 3-27 6-36 10-9 4-16 9-20 15-4 6-6 12-6 19 0 7 1 13 3 18 2 5 5 9 9 12 4 3 8 5 14 7 5 1 11 2 17 2 8 0 15-1 22-2 7-2 13-4 19-7 6-3 12-7 17-11 5-4 11-9 16-15l0-54zm-147-106c14-14 30-24 46-31 17-7 35-10 55-10 15 0 27 2 39 7 11 5 21 11 28 20 8 9 13 19 17 31 4 12 6 25 6 40l0 166-20 0c-4 0-8-1-10-2-2-1-4-4-6-9l-5-25c-7 6-13 12-20 17-6 5-13 9-21 12-7 3-15 6-23 8-8 2-17 3-27 3-10 0-20-1-28-4-9-3-17-7-23-13-7-6-12-13-16-21-4-9-6-19-6-31 0-10 3-20 8-30 6-9 15-18 27-25 13-7 29-13 49-18 20-5 45-7 75-8l0-20c0-20-4-35-13-46-9-10-21-15-38-15-11 0-21 1-28 4-8 3-14 6-20 9-6 4-10 7-14 9-4 3-8 4-12 4-3 0-6-1-8-2-2-2-4-4-6-6l-8-15z"/>
		<path class="fil3" d="M12150 7433c-21 0-36-6-47-17-11-11-17-28-17-49l0-159-31 0c-3 0-5-1-7-2-2-2-3-4-3-8l0-18 43-5 11-80c1-3 2-5 3-6 2-2 4-2 7-2l23 0 0 89 75 0 0 33-75 0 0 156c0 11 3 19 8 24 5 5 12 8 20 8 5 0 9-1 12-2 4-1 6-3 9-4 3-2 5-3 7-4 2-1 3-2 5-2 2 0 5 1 6 4l13 22c-8 7-17 13-28 17-11 4-23 6-34 6z"/>
		<path class="fil3" d="M12394 7312c-21 1-39 2-54 5-15 3-27 6-36 10-9 4-16 9-20 15-4 6-6 12-6 19 0 7 1 13 3 18 2 5 5 9 9 12 4 3 8 5 14 7 5 1 11 2 17 2 8 0 15-1 22-2 7-2 13-4 19-7 6-3 12-7 17-11 5-4 11-9 16-15l0-54zm-147-106c14-14 30-24 46-31 17-7 35-10 55-10 15 0 27 2 39 7 11 5 21 11 28 20 8 9 13 19 17 31 4 12 6 25 6 40l0 166-20 0c-4 0-8-1-10-2-2-1-4-4-6-9l-5-25c-7 6-13 12-20 17-6 5-13 9-21 12-7 3-15 6-23 8-8 2-17 3-27 3-10 0-20-1-28-4-9-3-17-7-23-13-7-6-12-13-16-21-4-9-6-19-6-31 0-10 3-20 8-30 6-9 15-18 27-25 13-7 29-13 49-18 20-5 45-7 75-8l0-20c0-20-4-35-13-46-9-10-21-15-38-15-11 0-21 1-28 4-8 3-14 6-20 9-6 4-10 7-14 9-4 3-8 4-12 4-3 0-6-1-8-2-2-2-4-4-6-6l-8-15z"/>
		<path class="fil3" d="M13120 7312c-21 1-39 2-54 5-15 3-27 6-36 10-9 4-16 9-20 15-4 6-6 12-6 19 0 7 1 13 3 18 2 5 5 9 9 12 4 3 8 5 14 7 5 1 11 2 17 2 8 0 15-1 22-2 7-2 13-4 19-7 6-3 12-7 17-11 5-4 11-9 16-15l0-54zm-147-106c14-14 30-24 46-31 17-7 35-10 55-10 15 0 27 2 39 7 11 5 21 11 28 20 8 9 13 19 17 31 4 12 6 25 6 40l0 166-20 0c-4 0-8-1-10-2-2-1-4-4-6-9l-5-25c-7 6-13 12-20 17-6 5-13 9-21 12-7 3-15 6-23 8-8 2-17 3-27 3-10 0-20-1-28-4-9-3-17-7-23-13-7-6-12-13-16-21-4-9-6-19-6-31 0-10 3-20 8-30 6-9 15-18 27-25 13-7 29-13 49-18 20-5 45-7 75-8l0-20c0-20-4-35-13-46-9-10-21-15-38-15-11 0-21 1-28 4-8 3-14 6-20 9-6 4-10 7-14 9-4 3-8 4-12 4-3 0-6-1-8-2-2-2-4-4-6-6l-8-15z"/>
		<path class="fil3" d="M13277 7207c6-6 12-12 18-17 6-5 13-10 20-13 7-4 15-6 23-8 8-2 16-3 26-3 14 0 27 2 38 7 11 5 20 11 27 20 7 9 13 19 16 31 4 12 6 26 6 40l0 165-46 0 0-165c0-20-4-35-13-46-9-11-23-16-41-16-13 0-26 3-38 10-12 6-23 15-32 26l0 191-46 0 0-260 27 0c6 0 11 3 12 9l4 28z"/>
		<path class="fil3" d="M13566 7052l0 222 12 0c3 0 6-1 9-1 2-1 5-3 7-6l82-88c2-3 5-5 8-7 3-2 6-2 11-2l41 0-96 102c-5 6-10 10-15 14 3 2 6 4 8 7 2 3 5 6 7 9l101 128-41 0c-4 0-7-1-10-2-3-1-5-4-7-7l-85-106c-3-4-5-6-8-7-2-1-6-2-11-2l-13 0 0 124-46 0 0-377 46 0z"/>
		<path class="fil3" d="M9934 2884c15-1 29-3 40-8 12-5 22-12 29-20 8-8 14-19 18-30 4-12 6-25 6-40 0-15-2-28-6-40-4-12-10-22-18-31-8-9-18-15-29-20-12-5-25-8-41-9l0 196 0 2zm-40-198c-15 1-29 4-40 9-12 5-21 12-29 20-8 9-14 19-18 31-4 12-6 25-6 40 0 15 2 28 6 40 4 12 10 22 18 30 8 8 18 15 29 20 12 5 25 8 40 8l0-2 0-196zm42-34c21 1 41 5 58 11 17 7 32 16 44 27 12 12 21 25 28 41 6 16 10 34 10 53 0 20-3 37-10 53-6 16-16 30-28 41-12 12-26 21-44 27-17 7-36 10-58 11l0 86-43 0 0-86c-21-1-41-5-58-11-17-7-32-16-44-27-12-12-21-25-28-41-6-16-10-34-10-53 0-20 3-37 10-53 6-16 16-30 28-41 12-12 26-21 44-27 17-7 36-10 58-11l0-104 43 0 0 104z"/>
		<path class="fil3" d="M10240 2651c19 0 36 3 51 9 15 6 28 15 39 27 11 12 19 26 25 42 6 16 9 35 9 55 0 21-3 39-9 55-6 16-14 30-25 42-11 12-24 20-39 27-15 6-32 9-51 9-19 0-36-3-52-9-15-6-28-15-39-27-11-12-19-26-25-42-6-16-9-35-9-55 0-20 3-39 9-55 6-16 14-30 25-42 11-12 24-21 39-27 15-6 32-9 52-9zm0 232c26 0 45-9 57-26 13-17 19-41 19-72 0-31-6-55-19-72-13-17-32-26-57-26-13 0-24 2-34 7-10 4-18 11-24 19-6 8-11 19-14 31-3 12-5 26-5 41 0 31 6 55 19 72 13 17 32 26 58 26z"/>
		<path class="fil3" d="M10641 2915l-46 0 0-224-82 0c-2 33-5 61-9 85-4 24-9 44-15 61-6 17-12 30-19 41-7 11-15 19-22 25-8 6-16 10-24 12-8 2-17 3-25 3-15 0-22-2-22-7l0-29 13 0c6 0 12-1 18-3 6-2 12-6 18-12 6-6 11-14 16-25 5-10 10-24 15-41 4-17 8-37 11-61 3-24 6-52 7-85l165 0 0 260z"/>
		<path class="fil3" d="M10892 2881l0-190-82 0c-2 27-4 50-7 71-3 20-7 38-11 54-4 15-8 29-13 39-5 11-10 20-15 26l129 0zm92-1l0 110c0 4-1 8-4 10-2 2-6 4-10 4l-28 0 0-89-218 0 0 76c0 3-1 6-3 9-2 3-5 4-10 4l-29 0 0-123 8 0c6 0 12-1 18-3 6-2 12-6 17-12 5-6 11-14 16-24 5-10 9-24 13-41 4-17 7-37 10-61 3-24 5-52 7-85l164 0 0 225 47 0z"/>
		<path class="fil3" d="M11252 2655l0 260-46 0 0-176c0-3 0-7 1-11 0-4 1-8 1-12-2 3-3 7-5 9-2 3-3 6-5 8l-125 170c-2 3-4 5-7 8-3 2-6 4-9 4l-28 0 0-260 46 0 0 176c0 3 0 7-1 11 0 4-1 8-1 12 2-3 3-6 5-9 2-3 3-5 5-8l125-170c2-3 4-5 7-8 3-2 6-4 9-4l27 0z"/>
		<polygon class="fil3" points="11541 2655 11541 2915 11495 2915 11495 2793 11370 2793 11370 2915 11324 2915 11324 2655 11370 2655 11370 2759 11495 2759 11495 2655 "/>
		<polygon class="fil3" points="11781 2690 11659 2690 11659 2915 11613 2915 11613 2655 11781 2655 "/>
		<path class="fil3" d="M12073 2885c26 0 45-8 58-25 13-16 20-39 20-68 0-29-6-52-19-68-13-16-31-25-57-25-12 0-23 2-33 6-10 4-18 9-25 17-7 7-12 16-16 27-4 11-6 23-6 37 0 16 2 29 5 42 3 12 8 23 15 31 6 9 14 15 24 20 9 5 21 7 33 7zm18-290c-17 2-32 5-45 12-12 6-23 14-31 25-8 10-14 23-18 38-4 15-6 31-7 50 4-8 9-16 16-22 6-7 14-12 22-17 8-5 18-8 27-11 10-2 20-4 31-4 17 0 33 3 47 9 14 6 25 15 35 26 10 11 17 24 22 40 5 16 8 33 8 52 0 19-3 37-9 52-6 16-14 29-25 40-11 11-24 20-39 26-15 6-32 9-51 9-17 0-34-3-49-9-15-6-28-15-39-29-11-13-20-31-26-53-6-22-10-49-10-81 0-27 2-52 7-75 5-23 13-43 24-60 11-17 25-31 43-41 18-10 39-17 64-19l93-8 3 24c1 5 0 10-2 13-2 4-6 6-11 6l-78 6z"/>
		<path class="fil3" d="M12429 2757c0-11-1-20-4-29-3-9-7-16-13-23-6-6-13-11-21-15-8-4-18-5-28-5-22 0-39 6-52 19-13 13-21 30-24 53l142 0zm37 122c-6 7-12 13-20 18-8 5-16 9-25 12-9 3-18 6-28 7-10 2-19 2-28 2-18 0-34-3-50-9-15-6-28-15-39-27-11-12-20-26-26-43-6-17-9-37-9-59 0-18 3-35 8-51 6-16 13-29 24-41 10-12 23-21 38-27 15-7 32-10 51-10 16 0 30 3 43 8 13 5 25 13 34 23 10 10 17 22 23 36 5 14 8 31 8 49 0 7-1 12-2 14-2 2-4 4-9 4l-173 0c1 16 3 31 7 43 4 12 10 22 17 30 7 8 16 14 26 18 10 4 21 6 33 6 11 0 21-1 30-4 8-3 15-5 21-9 6-3 11-6 15-9 4-3 7-4 10-4 4 0 7 1 9 4l13 17z"/>
		<path class="fil3" d="M12753 2915l-46 0 0-224-82 0c-2 33-5 61-9 85-4 24-9 44-15 61-6 17-12 30-19 41-7 11-15 19-22 25-8 6-16 10-24 12-8 2-17 3-25 3-15 0-22-2-22-7l0-29 13 0c6 0 12-1 18-3 6-2 12-6 18-12 6-6 11-14 16-25 5-10 10-24 15-41 4-17 8-37 11-61 3-24 6-52 7-85l165 0 0 260z"/>
		<path class="fil3" d="M12983 2668c2-4 6-7 9-9 4-2 8-4 13-4l36 0-67 99c-4 6-8 11-13 15-4 4-10 7-16 9 8 2 15 6 21 10 6 5 11 11 15 18l68 107-32 0c-8 0-15-1-19-4-4-3-8-7-12-12l-50-81c-8-13-20-20-36-20l-28 0 0 117-46 0 0-260 46 0 0 112 25 0c14 0 24-6 32-17l55-82z"/>
		<path class="fil3" d="M13190 2651c19 0 36 3 51 9 15 6 28 15 39 27 11 12 19 26 25 42 6 16 9 35 9 55 0 21-3 39-9 55-6 16-14 30-25 42-11 12-24 20-39 27-15 6-32 9-51 9-19 0-36-3-52-9-15-6-28-15-39-27-11-12-19-26-25-42-6-16-9-35-9-55 0-20 3-39 9-55 6-16 14-30 25-42 11-12 24-21 39-27 15-6 32-9 52-9zm0 232c26 0 45-9 57-26 13-17 19-41 19-72 0-31-6-55-19-72-13-17-32-26-57-26-13 0-24 2-34 7-10 4-18 11-24 19-6 8-11 19-14 31-3 12-5 26-5 41 0 31 6 55 19 72 13 17 32 26 58 26z"/>
		<path class="fil3" d="M13471 2883c17 0 31-4 40-12 10-8 15-19 15-33 0-6-1-12-3-17-2-5-5-9-9-13-4-4-10-7-17-9-7-2-16-3-26-3l-56 0 0 86 56 0zm-56-197l0 81 50 0c8 0 15-1 21-3 6-2 12-5 16-9 5-4 8-8 11-14 3-5 4-11 4-18 0-5-1-9-3-14-2-5-5-9-9-12-4-4-9-6-16-8-7-2-15-3-25-3l-50 0zm51-31c16 0 30 2 41 5 11 3 21 8 28 13 7 6 13 12 16 20 3 8 5 16 5 24 0 6-1 12-2 18-2 6-4 12-8 18-4 6-9 11-16 15-7 5-15 8-25 11 20 3 35 10 46 21 11 10 16 24 16 41 0 13-2 24-8 33-5 9-12 17-21 23-9 6-19 11-31 14-12 3-24 5-38 5l-100 0 0-260 95 0z"/>
		<g>
			<rect class="fil0" x="16572" y="3176" width="3656" height="3656"/>
			<path class="fil1" d="M20031 6152l121 0 0-121-121 0 0-121 121 0 0-121 0-121 0-121-121 0 0 121 0 121-121 0 0-121-121 0 0 121-121 0 0-121 0-121 121 0 0-121 0-121 121 0 0 121 121 0 0 0 121 0 0-121 0-121 0 0 0-121-121 0 0 0-121 0 0 121-121 0 0-121-121 0 0 121 0 0 0 121-121 0-121 0-121 0 0 121 0 121 0 0 0 121-121 0 0-121 0 0 0-121-121 0 0-121 121 0 0-121 0 0 0-121 121 0 0 121 121 0 0-121-121 0 0-121 121 0 0-121-121 0 0-121 121 0 121 0 0-121 0-121 121 0 0-121 0-121-121 0-121 0 0 121-121 0 0 121 0 0 0 121 0 121-121 0 0 121-121 0-121 0 0 0-121 0 0-121 121 0 0 0 121 0 0-121-121 0 0 0-121 0 0 121-121 0 0-121-121 0 0-121-121 0-121 0 0-121-121 0 0 121 121 0 0 121 0 121 121 0 0-121 121 0 0 121 121 0 0 121 121 0 0 121-121 0-121 0 0-121-121 0-121 0 0 121 121 0 121 0 0 121 0 121 121 0 0 121-121 0 0 0-121 0 0-121-121 0 0-121-121 0 0-121 0-121-121 0 0-121 121 0 0-121-121 0 0-121 0 0 0-121 0-121 121 0 0 0 121 0 0-121 121 0 0 121 0 121 121 0 0 0 121 0 121 0 121 0 0 121 121 0 0-121 121 0 0-121 0-121 0 0 0-121 0-121 0-121-121 0-121 0 0 121-121 0-121 0-121 0 0-121 0 0 0-121-121 0-121 0 0-121 0-121 0 0 0-121-121 0 0 121-121 0 0-121-121 0 0 121 121 0 0 121-121 0-121 0 0 121-121 0 0 121-121 0 0 121 0 121 0 121 121 0 0 121 121 0 0-121 121 0 0 121 0 121-121 0 0 121 121 0 0 121-121 0 0 0-121 0-121 0-121 0 0-121 121 0 121 0 0-121-121 0 0-121-121 0 0 0-121 0-121 0-121 0 0 0-121 0-121 0-121 0 0 121-121 0 0 121 121 0 0 121-121 0 0 121 0 121 0 0 0 121 121 0 0 121 121 0 0 121 121 0 0-121-121 0 0-121-121 0 0-121 0 0 0-121 0-121 121 0 121 0 121 0 0-121 121 0 0-121 121 0 121 0 0 121-121 0 0 121-121 0 0 121 0 121-121 0 0 0-121 0 0 121 121 0 0 0 121 0 0 121-121 0 0 121 0 0 0 121 0 121 0 121 0 0 0 121-121 0 0-121 0 0 0-121-121 0 0-121-121 0 0 121 0 121 0 0 0 121 0 121 121 0 0-121 121 0 0 121 121 0 0-121 121 0 0 121 121 0 121 0 0 0 121 0 0 121 0 0 0 121 0 121 0 121 0 0 0 121 0 121 0 121 121 0 0 121 121 0 0 0 121 0 121 0 121 0 0-121 121 0 0 121 121 0 0-121-121 0 0-121 121 0 121 0 0 121 121 0 0 121 121 0 0-121-121 0 0-121 0-121 121 0 121 0 0 121 121 0 0 121 121 0 0 121 121 0 0-121-121 0 0-121 121 0 0 0 121 0 0-121 121 0 0 121 0 121 0 0 0 121 121 0 0 0 121 0 121 0 0-121 121 0 0-121 0-121-121 0 0-121 121 0 0-121zm-3261-2899l-121 0 0 121 0 0 0 121 0 121 0 121 0 0 0 121 0 121 0 121 121 0 0 0 121 0 121 0 121 0 0 0 121 0 121 0 121 0 0-121 0-121 0-121 0 0 0-121 0-121 0-121 0 0 0-121-121 0-121 0-121 0 0 0-121 0-121 0-121 0 0 0zm0 242l0-121 121 0 121 0 121 0 0 0 121 0 121 0 0 121 0 121 0 121 0 0 0 121 0 121-121 0-121 0 0 0-121 0-121 0-121 0 0-121 0-121 0 0 0-121 0-121zm0 845l121 0 121 0 0 121-121 0-121 0 0-121zm0 1570l-121 0 0 121 0 121 0 121 0 0 0 121 0 121 0 121 0 0 0 121 121 0 0 0 121 0 121 0 121 0 0 0 121 0 121 0 121 0 0-121 0 0 0-121 0-121 0-121 0 0 0-121 0-121 0-121-121 0-121 0-121 0 0 0-121 0-121 0-121 0 0 0zm0 242l0-121 121 0 121 0 121 0 0 0 121 0 121 0 0 121 0 121 0 0 0 121 0 121 0 121-121 0-121 0 0 0-121 0-121 0-121 0 0-121 0-121 0-121 0 0 0-121zm242-2657l-121 0 0 121 0 121 0 0 0 121 121 0 121 0 0 0 121 0 0-121 0 0 0-121 0-121-121 0 0 0-121 0zm0 2657l-121 0 0 121 0 0 0 121 0 121 121 0 121 0 0 0 121 0 0-121 0-121 0 0 0-121-121 0 0 0-121 0zm242-1329l121 0 121 0 0-121 121 0 0 121 121 0 0 121 121 0 0 121-121 0-121 0 0-121-121 0 0 0-121 0-121 0 0-121zm0 242l121 0 121 0 0 121-121 0 0 121 121 0 0 121-121 0-121 0 0-121 0-121 0 0 0-121zm0 483l121 0 121 0 0-121 121 0 121 0 121 0 0 121-121 0 0 121-121 0-121 0 0 0-121 0-121 0 0-121zm121-966l121 0 0 121-121 0 0-121zm121 604l121 0 121 0 0 121-121 0-121 0 0-121zm121-1812l121 0 121 0 0-121-121 0-121 0 0 121zm121 362l121 0 0-121 121 0 0 121 121 0 0 121 121 0 0-121 0 0 0-121 121 0 0 121 0 0 0 121 121 0 121 0 0 121 0 121-121 0 0-121-121 0 0 121-121 0 0-121-121 0 0 121-121 0 0-121-121 0 0-121-121 0 0-121zm0 242l121 0 0 121-121 0 0-121zm0 1691l121 0 0-121 121 0 121 0 0-121 121 0 0 121 0 0 0 121 0 121-121 0 0 121 121 0 0 121 0 121 0 121-121 0 0-121 0-121-121 0-121 0 0-121-121 0 0-121 0-121zm0 845l121 0 0-121 0-121 0 0 0-121 121 0 0 121 0 0 0 121 0 121 0 121-121 0 0 0-121 0 0-121zm121-1812l121 0 0 121 121 0 0 121-121 0-121 0 0-121 0 0 0-121zm0 362l121 0 0 121-121 0 0-121zm121-483l121 0 0 121-121 0 0-121zm0 604l121 0 0 121-121 0 0-121zm121-121l121 0 0 121-121 0 0-121zm0 1329l121 0 0 121 0 121-121 0 0-121 0-121zm121-1208l121 0 0 121 0 121-121 0 0-121 0-121zm0 604l121 0 0-121 121 0 0-121-121 0 0-121 121 0 121 0 0 0 121 0 121 0 0 121 121 0 0 121 0 121-121 0 0-121-121 0 0-121-121 0 0 121 0 121 0 121-121 0-121 0-121 0 0-121zm0 483l121 0 121 0 0 121-121 0-121 0 0-121zm121-242l121 0 0 121-121 0 0-121zm121-2657l121 0 0 121 121 0 121 0 121 0 0-121 121 0 0 121 0 121 121 0 0-121 0-121-121 0 0-121-121 0 0 121-121 0 0-121-121 0-121 0 0 0-121 0 0 121zm121 845l0-121 121 0 0-121 121 0 0 121 0 0 0 121-121 0-121 0zm0 1932l121 0 0 121 0 0 0 121-121 0 0-121 0 0 0-121zm121-1087l121 0 0-121 121 0 0 0 121 0 0 121 0 121 0 0 0 121-121 0 0-121-121 0-121 0 0-121zm0 725l121 0 0 121-121 0 0-121zm0 242l121 0 121 0 0 121-121 0-121 0 0-121zm0-2295l121 0 0-121-121 0 0 121zm121 1570l121 0 0 121-121 0 0-121zm121-1329l0-121 121 0 0 121 0 121 0 0 0 121 0 121-121 0 0-121 0-121 0 0 0-121zm0 1449l121 0 0 121-121 0 0-121zm0 362l121 0 0 121-121 0 0-121zm0 362l121 0 0 121-121 0 0-121zm121 242l121 0 0 121-121 0 0-121zm121-604l121 0 0 0 121 0 121 0 0 121 0 0 0 121 0 121-121 0-121 0 0 0-121 0 0-121 0-121 0 0 0-121zm0 483l121 0 0 0 121 0 0 121-121 0 0 0-121 0 0-121zm242-3019l-121 0 0 121 0 0 0 121 0 121 0 121 0 0 0 121 0 121 0 121 121 0 121 0 121 0 0 0 121 0 121 0 121 0 0 0 121 0 0-121 0-121 0-121 0 0 0-121 0-121 0-121 0 0 0-121-121 0 0 0-121 0-121 0-121 0 0 0-121 0-121 0zm0 242l0-121 121 0 121 0 0 0 121 0 121 0 121 0 0 121 0 121 0 121 0 0 0 121 0 121-121 0-121 0-121 0 0 0-121 0-121 0 0-121 0-121 0 0 0-121 0-121zm0 1932l121 0 0 121 0 0 0 121-121 0 0-121 0 0 0-121zm-121 604l121 0 0-121-121 0 0 121zm242 242l121 0 0 121-121 0 0-121zm121-2778l-121 0 0 121 0 121 0 0 0 121 121 0 0 0 121 0 121 0 0-121 0 0 0-121 0-121-121 0-121 0 0 0zm-121 1449l121 0 0 0 121 0 0-121 121 0 121 0 0 121 121 0 0-121 0 0 0-121-121 0 0-121-121 0 0-121-121 0 0 121-121 0 0 121 0 121-121 0 0 121zm121 966l121 0 0-121 121 0 0 121 0 0 0 121 121 0 0 121-121 0-121 0 0-121-121 0 0-121zm121-1208l0-121 121 0 0 121-121 0zm0 1812l121 0 0 121-121 0 0-121zm121-1208l0-121 121 0 0 121-121 0zm242-966l0-121-121 0 0 121 0 121 121 0 0-121z"/>
		</g>
		<path class="fil3" d="M17486 7205l0 141c-18 13-38 23-59 30-21 7-44 10-69 10-30 0-56-5-80-14-24-9-44-22-61-38-17-16-30-36-39-59-9-23-14-48-14-76 0-28 4-54 13-77 9-23 21-43 37-59 16-16 36-29 59-38 23-9 49-14 78-14 15 0 28 1 40 3 12 2 24 5 35 9 11 4 20 9 29 15 9 6 18 12 25 19l-14 23c-2 3-5 6-9 6-3 1-7 0-12-2-4-2-9-5-14-9-5-3-12-7-19-10-8-3-17-6-27-8-10-2-23-3-37-3-21 0-39 3-56 10-17 7-31 16-43 29-12 13-21 28-27 46-6 18-9 38-9 60 0 23 3 44 10 62 7 18 16 34 28 46 12 13 27 22 44 29 17 7 37 10 59 10 17 0 32-2 46-6 13-4 26-9 39-16l0-81-57 0c-3 0-6-1-8-3-2-2-3-4-3-7l0-28 113 0z"/>
		<path class="fil3" d="M17690 7265c-21 1-39 2-54 5-15 3-27 6-36 10-9 4-16 9-20 15-4 6-6 12-6 19 0 7 1 13 3 18 2 5 5 9 9 12 4 3 8 5 14 7 5 1 11 2 17 2 8 0 15-1 22-2 7-2 13-4 19-7 6-3 12-7 17-11 5-4 11-9 16-15l0-54zm-147-106c14-14 30-24 46-31 17-7 35-10 55-10 15 0 27 2 39 7 11 5 21 11 28 20 8 9 13 19 17 31 4 12 6 25 6 40l0 166-20 0c-4 0-8-1-10-2-2-1-4-4-6-9l-5-25c-7 6-13 12-20 17-6 5-13 9-21 12-7 3-15 6-23 8-8 2-17 3-27 3-10 0-20-1-28-4-9-3-17-7-23-13-7-6-12-13-16-21-4-9-6-19-6-31 0-10 3-20 8-30 6-9 15-18 27-25 13-7 29-13 49-18 20-5 45-7 75-8l0-20c0-20-4-35-13-46-9-10-21-15-38-15-11 0-21 1-28 4-8 3-14 6-20 9-6 4-10 7-14 9-4 3-8 4-12 4-3 0-6-1-8-2-2-2-4-4-6-6l-8-15z"/>
		<polygon class="fil3" points="17851 7005 17851 7382 17806 7382 17806 7005 "/>
		<path class="fil3" d="M18066 7265c-21 1-39 2-54 5-15 3-27 6-36 10-9 4-16 9-20 15-4 6-6 12-6 19 0 7 1 13 3 18 2 5 5 9 9 12 4 3 8 5 14 7 5 1 11 2 17 2 8 0 15-1 22-2 7-2 13-4 19-7 6-3 12-7 17-11 5-4 11-9 16-15l0-54zm-147-106c14-14 30-24 46-31 17-7 35-10 55-10 15 0 27 2 39 7 11 5 21 11 28 20 8 9 13 19 17 31 4 12 6 25 6 40l0 166-20 0c-4 0-8-1-10-2-2-1-4-4-6-9l-5-25c-7 6-13 12-20 17-6 5-13 9-21 12-7 3-15 6-23 8-8 2-17 3-27 3-10 0-20-1-28-4-9-3-17-7-23-13-7-6-12-13-16-21-4-9-6-19-6-31 0-10 3-20 8-30 6-9 15-18 27-25 13-7 29-13 49-18 20-5 45-7 75-8l0-20c0-20-4-35-13-46-9-10-21-15-38-15-11 0-21 1-28 4-8 3-14 6-20 9-6 4-10 7-14 9-4 3-8 4-12 4-3 0-6-1-8-2-2-2-4-4-6-6l-8-15z"/>
		<path class="fil3" d="M18393 7382l-44 0c-4 0-7-1-9-3-2-2-4-4-5-6l-65-102c-1 2-1 5-2 7-1 2-2 4-3 6l-60 88c-2 2-3 5-5 6-2 2-5 3-8 3l-41 0 91-133-87-126 44 0c4 0 6 1 8 2 2 1 3 3 5 5l64 97c1-5 3-10 6-14l56-82c2-2 3-4 5-6 2-1 4-2 6-2l42 0-87 124 91 136z"/>
		<path class="fil3" d="M18659 7122l-145 336c-2 3-3 6-6 8-2 2-6 3-11 3l-34 0 47-103-107-244 39 0c4 0 7 1 9 3 2 2 4 4 5 7l69 163c3 7 5 15 7 23 2-8 5-16 8-23l67-163c1-3 3-5 5-7 2-2 5-3 8-3l36 0z"/>
		<path class="fil3" d="M19073 7033c0 6-2 11-5 16l-208 292 210 0 0 40-275 0 0-19c0-3 1-5 1-8 1-2 2-5 3-7l208-293-203 0 0-40 268 0 0 18z"/>
		<path class="fil3" d="M19223 7118c19 0 36 3 51 9 15 6 28 15 39 27 11 12 19 26 25 42 6 16 9 35 9 55 0 21-3 39-9 55-6 16-14 30-25 42-11 12-24 20-39 27-15 6-32 9-51 9-19 0-36-3-52-9-15-6-28-15-39-27-11-12-19-26-25-42-6-16-9-35-9-55 0-20 3-39 9-55 6-16 14-30 25-42 11-12 24-21 39-27 15-6 32-9 52-9zm0 232c26 0 45-9 57-26 13-17 19-41 19-72 0-31-6-55-19-72-13-17-32-26-57-26-13 0-24 2-34 7-10 4-18 11-24 19-6 8-11 19-14 31-3 12-5 26-5 41 0 31 6 55 19 72 13 17 32 26 58 26z"/>
		<path class="fil3" d="M19514 7118c19 0 36 3 51 9 15 6 28 15 39 27 11 12 19 26 25 42 6 16 9 35 9 55 0 21-3 39-9 55-6 16-14 30-25 42-11 12-24 20-39 27-15 6-32 9-51 9-19 0-36-3-52-9-15-6-28-15-39-27-11-12-19-26-25-42-6-16-9-35-9-55 0-20 3-39 9-55 6-16 14-30 25-42 11-12 24-21 39-27 15-6 32-9 52-9zm0 232c26 0 45-9 57-26 13-17 19-41 19-72 0-31-6-55-19-72-13-17-32-26-57-26-13 0-24 2-34 7-10 4-18 11-24 19-6 8-11 19-14 31-3 12-5 26-5 41 0 31 6 55 19 72 13 17 32 26 58 26z"/>
		<path class="fil3" d="M15640 2666c2-4 6-7 9-9 4-2 8-4 13-4l36 0-67 99c-4 6-8 11-13 15-4 4-10 7-16 9 8 2 15 6 21 10 6 5 11 11 15 18l68 107-32 0c-8 0-15-1-19-4-4-3-8-7-12-12l-50-81c-8-13-20-20-36-20l-28 0 0 117-46 0 0-260 46 0 0 112 25 0c14 0 24-6 32-17l55-82z"/>
		<path class="fil3" d="M15975 2913l-46 0 0-224-82 0c-2 33-5 61-9 85-4 24-9 44-15 61-6 17-12 30-19 41-7 11-15 19-22 25-8 6-16 10-24 12-8 2-17 3-25 3-15 0-22-2-22-7l0-29 13 0c6 0 12-1 18-3 6-2 12-6 18-12 6-6 11-14 16-25 5-10 10-24 15-41 4-17 8-37 11-61 3-24 6-52 7-85l165 0 0 260z"/>
		<path class="fil3" d="M16188 2796c-21 1-39 2-54 5-15 3-27 6-36 10-9 4-16 9-20 15-4 6-6 12-6 19 0 7 1 13 3 18 2 5 5 9 9 12 4 3 8 5 14 7 5 1 11 2 17 2 8 0 15-1 22-2 7-2 13-4 19-7 6-3 12-7 17-11 5-4 11-9 16-15l0-54zm-147-106c14-14 30-24 46-31 17-7 35-10 55-10 15 0 27 2 39 7 11 5 21 11 28 20 8 9 13 19 17 31 4 12 6 25 6 40l0 166-20 0c-4 0-8-1-10-2-2-1-4-4-6-9l-5-25c-7 6-13 12-20 17-6 5-13 9-21 12-7 3-15 6-23 8-8 2-17 3-27 3-10 0-20-1-28-4-9-3-17-7-23-13-7-6-12-13-16-21-4-9-6-19-6-31 0-10 3-20 8-30 6-9 15-18 27-25 13-7 29-13 49-18 20-5 45-7 75-8l0-20c0-20-4-35-13-46-9-10-21-15-38-15-11 0-21 1-28 4-8 3-14 6-20 9-6 4-10 7-14 9-4 3-8 4-12 4-3 0-6-1-8-2-2-2-4-4-6-6l-8-15z"/>
		<path class="fil3" d="M16482 2700c-1 2-3 3-4 4-1 1-3 2-6 2-3 0-5-1-8-3-3-2-7-4-11-7-5-3-10-5-17-7-7-2-15-3-24-3-13 0-24 2-34 7-10 5-18 11-24 20-7 9-12 19-15 31-3 12-5 26-5 41 0 16 2 30 5 42 4 12 9 22 15 31 7 8 15 15 24 19 9 4 20 7 31 7 11 0 20-1 27-4 7-3 13-6 18-9 5-3 9-6 12-9 3-3 6-4 9-4 4 0 7 1 9 4l13 17c-6 7-12 13-19 18-7 5-15 9-23 12-8 3-17 6-26 7-9 2-18 2-28 2-16 0-31-3-45-9-14-6-26-15-36-26-10-11-18-25-24-42-6-17-9-35-9-57 0-19 3-37 8-54 5-16 13-31 24-42 10-12 23-21 38-28 15-7 32-10 52-10 18 0 34 3 48 9 14 6 26 14 37 25l-12 16z"/>
		<path class="fil3" d="M16723 2700c-1 2-3 3-4 4-1 1-3 2-6 2-3 0-5-1-8-3-3-2-7-4-11-7-5-3-10-5-17-7-7-2-15-3-24-3-13 0-24 2-34 7-10 5-18 11-24 20-7 9-12 19-15 31-3 12-5 26-5 41 0 16 2 30 5 42 4 12 9 22 15 31 7 8 15 15 24 19 9 4 20 7 31 7 11 0 20-1 27-4 7-3 13-6 18-9 5-3 9-6 12-9 3-3 6-4 9-4 4 0 7 1 9 4l13 17c-6 7-12 13-19 18-7 5-15 9-23 12-8 3-17 6-26 7-9 2-18 2-28 2-16 0-31-3-45-9-14-6-26-15-36-26-10-11-18-25-24-42-6-17-9-35-9-57 0-19 3-37 8-54 5-16 13-31 24-42 10-12 23-21 38-28 15-7 32-10 52-10 18 0 34 3 48 9 14 6 26 14 37 25l-12 16z"/>
		<path class="fil3" d="M17009 2654l0 260-46 0 0-176c0-3 0-7 1-11 0-4 1-8 1-12-2 3-3 7-5 9-2 3-3 6-5 8l-125 170c-2 3-4 5-7 8-3 2-6 4-9 4l-28 0 0-260 46 0 0 176c0 3 0 7-1 11 0 4-1 8-1 12 2-3 3-6 5-9 2-3 3-5 5-8l125-170c2-3 4-5 7-8 3-2 6-4 9-4l27 0z"/>
		<path class="fil3" d="M17246 2882c15-1 29-3 40-8 12-5 22-12 29-20 8-8 14-19 18-30 4-12 6-25 6-40 0-15-2-28-6-40-4-12-10-22-18-31-8-9-18-15-29-20-12-5-25-8-41-9l0 196 0 2zm-40-198c-15 1-29 4-40 9-12 5-21 12-29 20-8 9-14 19-18 31-4 12-6 25-6 40 0 15 2 28 6 40 4 12 10 22 18 30 8 8 18 15 29 20 12 5 25 8 40 8l0-2 0-196zm42-34c21 1 41 5 58 11 17 7 32 16 44 27 12 12 21 25 28 41 6 16 10 34 10 53 0 20-3 37-10 53-6 16-16 30-28 41-12 12-26 21-44 27-17 7-36 10-58 11l0 86-43 0 0-86c-21-1-41-5-58-11-17-7-32-16-44-27-12-12-21-25-28-41-6-16-10-34-10-53 0-20 3-37 10-53 6-16 16-30 28-41 12-12 26-21 44-27 17-7 36-10 58-11l0-104 43 0 0 104z"/>
		<path class="fil3" d="M17665 2654l0 260-46 0 0-176c0-3 0-7 1-11 0-4 1-8 1-12-2 3-3 7-5 9-2 3-3 6-5 8l-125 170c-2 3-4 5-7 8-3 2-6 4-9 4l-28 0 0-260 46 0 0 176c0 3 0 7-1 11 0 4-1 8-1 12 2-3 3-6 5-9 2-3 3-5 5-8l125-170c2-3 4-5 7-8 3-2 6-4 9-4l27 0z"/>
		<path class="fil3" d="M17895 2666c2-4 6-7 9-9 4-2 8-4 13-4l36 0-67 99c-4 6-8 11-13 15-4 4-10 7-16 9 8 2 15 6 21 10 6 5 11 11 15 18l68 107-32 0c-8 0-15-1-19-4-4-3-8-7-12-12l-50-81c-8-13-20-20-36-20l-28 0 0 117-46 0 0-260 46 0 0 112 25 0c14 0 24-6 32-17l55-82z"/>
		<path class="fil3" d="M18143 2796c-21 1-39 2-54 5-15 3-27 6-36 10-9 4-16 9-20 15-4 6-6 12-6 19 0 7 1 13 3 18 2 5 5 9 9 12 4 3 8 5 14 7 5 1 11 2 17 2 8 0 15-1 22-2 7-2 13-4 19-7 6-3 12-7 17-11 5-4 11-9 16-15l0-54zm-147-106c14-14 30-24 46-31 17-7 35-10 55-10 15 0 27 2 39 7 11 5 21 11 28 20 8 9 13 19 17 31 4 12 6 25 6 40l0 166-20 0c-4 0-8-1-10-2-2-1-4-4-6-9l-5-25c-7 6-13 12-20 17-6 5-13 9-21 12-7 3-15 6-23 8-8 2-17 3-27 3-10 0-20-1-28-4-9-3-17-7-23-13-7-6-12-13-16-21-4-9-6-19-6-31 0-10 3-20 8-30 6-9 15-18 27-25 13-7 29-13 49-18 20-5 45-7 75-8l0-20c0-20-4-35-13-46-9-10-21-15-38-15-11 0-21 1-28 4-8 3-14 6-20 9-6 4-10 7-14 9-4 3-8 4-12 4-3 0-6-1-8-2-2-2-4-4-6-6l-8-15z"/>
		<path class="fil3" d="M18521 2878l0 110c0 4-1 8-4 10-2 2-6 4-10 4l-28 0 0-89-222 0 0-260 46 0 0 225 125 0 0-225 46 0 0 225 47 0z"/>
		<path class="fil3" d="M18790 2654l0 260-46 0 0-176c0-3 0-7 1-11 0-4 1-8 1-12-2 3-3 7-5 9-2 3-3 6-5 8l-125 170c-2 3-4 5-7 8-3 2-6 4-9 4l-28 0 0-260 46 0 0 176c0 3 0 7-1 11 0 4-1 8-1 12 2-3 3-6 5-9 2-3 3-5 5-8l125-170c2-3 4-5 7-8 3-2 6-4 9-4l27 0z"/>
		<path class="fil3" d="M18999 2775l0-90-44 0c-10 0-18 1-25 4-7 3-12 6-16 11-4 4-7 9-9 15-2 5-3 11-3 16 0 14 5 25 15 33 10 8 24 12 42 12l38 0zm44-121l0 260-44 0 0-109-20 0c-5 0-9 0-12 1-3 1-6 2-8 3-2 1-4 3-6 5-2 2-4 5-5 7l-57 77c-3 5-6 9-11 12-4 3-10 4-18 4l-32 0 75-98c6-10 14-17 24-21-13-2-24-5-33-9-9-4-16-10-22-16-6-6-10-13-12-20-3-7-4-15-4-22 0-9 2-18 5-27 3-9 9-17 17-24 8-7 18-13 30-17 12-4 27-6 44-6l88 0z"/>
		<polygon class="fil3" points="19414 2688 19292 2688 19292 2913 19246 2913 19246 2654 19414 2654 "/>
		<path class="fil3" d="M19595 2796c-21 1-39 2-54 5-15 3-27 6-36 10-9 4-16 9-20 15-4 6-6 12-6 19 0 7 1 13 3 18 2 5 5 9 9 12 4 3 8 5 14 7 5 1 11 2 17 2 8 0 15-1 22-2 7-2 13-4 19-7 6-3 12-7 17-11 5-4 11-9 16-15l0-54zm-147-106c14-14 30-24 46-31 17-7 35-10 55-10 15 0 27 2 39 7 11 5 21 11 28 20 8 9 13 19 17 31 4 12 6 25 6 40l0 166-20 0c-4 0-8-1-10-2-2-1-4-4-6-9l-5-25c-7 6-13 12-20 17-6 5-13 9-21 12-7 3-15 6-23 8-8 2-17 3-27 3-10 0-20-1-28-4-9-3-17-7-23-13-7-6-12-13-16-21-4-9-6-19-6-31 0-10 3-20 8-30 6-9 15-18 27-25 13-7 29-13 49-18 20-5 45-7 75-8l0-20c0-20-4-35-13-46-9-10-21-15-38-15-11 0-21 1-28 4-8 3-14 6-20 9-6 4-10 7-14 9-4 3-8 4-12 4-3 0-6-1-8-2-2-2-4-4-6-6l-8-15z"/>
		<path class="fil3" d="M19936 2913l-46 0 0-224-82 0c-2 33-5 61-9 85-4 24-9 44-15 61-6 17-12 30-19 41-7 11-15 19-22 25-8 6-16 10-24 12-8 2-17 3-25 3-15 0-22-2-22-7l0-29 13 0c6 0 12-1 18-3 6-2 12-6 18-12 6-6 11-14 16-25 5-10 10-24 15-41 4-17 8-37 11-61 3-24 6-52 7-85l165 0 0 260z"/>
		<path class="fil3" d="M20149 2796c-21 1-39 2-54 5-15 3-27 6-36 10-9 4-16 9-20 15-4 6-6 12-6 19 0 7 1 13 3 18 2 5 5 9 9 12 4 3 8 5 14 7 5 1 11 2 17 2 8 0 15-1 22-2 7-2 13-4 19-7 6-3 12-7 17-11 5-4 11-9 16-15l0-54zm-147-106c14-14 30-24 46-31 17-7 35-10 55-10 15 0 27 2 39 7 11 5 21 11 28 20 8 9 13 19 17 31 4 12 6 25 6 40l0 166-20 0c-4 0-8-1-10-2-2-1-4-4-6-9l-5-25c-7 6-13 12-20 17-6 5-13 9-21 12-7 3-15 6-23 8-8 2-17 3-27 3-10 0-20-1-28-4-9-3-17-7-23-13-7-6-12-13-16-21-4-9-6-19-6-31 0-10 3-20 8-30 6-9 15-18 27-25 13-7 29-13 49-18 20-5 45-7 75-8l0-20c0-20-4-35-13-46-9-10-21-15-38-15-11 0-21 1-28 4-8 3-14 6-20 9-6 4-10 7-14 9-4 3-8 4-12 4-3 0-6-1-8-2-2-2-4-4-6-6l-8-15z"/>
		<path class="fil3" d="M20421 2666c2-4 6-7 9-9 4-2 8-4 13-4l36 0-67 99c-4 6-8 11-13 15-4 4-10 7-16 9 8 2 15 6 21 10 6 5 11 11 15 18l68 107-32 0c-8 0-15-1-19-4-4-3-8-7-12-12l-50-81c-8-13-20-20-36-20l-28 0 0 117-46 0 0-260 46 0 0 112 25 0c14 0 24-6 32-17l55-82z"/>
		<polygon class="fil3" points="20744 2688 20645 2688 20645 2913 20599 2913 20599 2688 20499 2688 20499 2654 20744 2654 "/>
		<path class="fil3" d="M21010 2654l0 260-46 0 0-176c0-3 0-7 1-11 0-4 1-8 1-12-2 3-3 7-5 9-2 3-3 6-5 8l-125 170c-2 3-4 5-7 8-3 2-6 4-9 4l-28 0 0-260 46 0 0 176c0 3 0 7-1 11 0 4-1 8-1 12 2-3 3-6 5-9 2-3 3-5 5-8l125-170c2-3 4-5 7-8 3-2 6-4 9-4l27 0z"/>
		<path class="fil3" d="M21240 2666c2-4 6-7 9-9 4-2 8-4 13-4l36 0-67 99c-4 6-8 11-13 15-4 4-10 7-16 9 8 2 15 6 21 10 6 5 11 11 15 18l68 107-32 0c-8 0-15-1-19-4-4-3-8-7-12-12l-50-81c-8-13-20-20-36-20l-28 0 0 117-46 0 0-260 46 0 0 112 25 0c14 0 24-6 32-17l55-82z"/>
		<path class="fil3" d="M2983 10247l0-190-82 0c-2 27-4 50-7 71-3 20-7 38-11 54-4 15-8 29-13 39-5 11-10 20-15 26l129 0zm92-1l0 110c0 4-1 8-4 10-2 2-6 4-10 4l-28 0 0-89-218 0 0 76c0 3-1 6-3 9-2 3-5 4-10 4l-29 0 0-123 8 0c6 0 12-1 18-3 6-2 12-6 17-12 5-6 11-14 16-24 5-10 9-24 13-41 4-17 7-37 10-61 3-24 5-52 7-85l164 0 0 225 47 0z"/>
		<path class="fil3" d="M3226 10017c19 0 36 3 51 9 15 6 28 15 39 27 11 12 19 26 25 42 6 16 9 35 9 55 0 21-3 39-9 55-6 16-14 30-25 42-11 12-24 20-39 27-15 6-32 9-51 9-19 0-36-3-52-9-15-6-28-15-39-27-11-12-19-26-25-42-6-16-9-35-9-55 0-20 3-39 9-55 6-16 14-30 25-42 11-12 24-21 39-27 15-6 32-9 52-9zm0 232c26 0 45-9 57-26 13-17 19-41 19-72 0-31-6-55-19-72-13-17-32-26-57-26-13 0-24 2-34 7-10 4-18 11-24 19-6 8-11 19-14 31-3 12-5 26-5 41 0 31 6 55 19 72 13 17 32 26 58 26z"/>
		<path class="fil3" d="M3627 10280l-46 0 0-224-82 0c-2 33-5 61-9 85-4 24-9 44-15 61-6 17-12 30-19 41-7 11-15 19-22 25-8 6-16 10-24 12-8 2-17 3-25 3-15 0-22-2-22-7l0-29 13 0c6 0 12-1 18-3 6-2 12-6 18-12 6-6 11-14 16-25 5-10 10-24 15-41 4-17 8-37 11-61 3-24 6-52 7-85l165 0 0 260z"/>
		<polygon class="fil3" points="3868 10056 3745 10056 3745 10280 3699 10280 3699 10021 3868 10021 "/>
		<path class="fil3" d="M4133 10021l0 260-46 0 0-176c0-3 0-7 1-11 0-4 1-8 1-12-2 3-3 7-5 9-2 3-3 6-5 8l-125 170c-2 3-4 5-7 8-3 2-6 4-9 4l-28 0 0-260 46 0 0 176c0 3 0 7-1 11 0 4-1 8-1 12 2-3 3-6 5-9 2-3 3-5 5-8l125-170c2-3 4-5 7-8 3-2 6-4 9-4l27 0z"/>
		<path class="fil3" d="M4428 10021l0 260-46 0 0-176c0-3 0-7 1-11 0-4 1-8 1-12-2 3-3 7-5 9-2 3-3 6-5 8l-125 170c-2 3-4 5-7 8-3 2-6 4-9 4l-28 0 0-260 46 0 0 176c0 3 0 7-1 11 0 4-1 8-1 12 2-3 3-6 5-9 2-3 3-5 5-8l125-170c2-3 4-5 7-8 3-2 6-4 9-4l27 0zm-108-63c7 0 13-1 18-2 5-2 9-4 12-8 3-4 5-8 6-14 1-6 2-13 2-21l27 0c3 0 6 1 7 4 2 3 3 6 3 9 0 9-2 16-5 23-3 7-8 13-15 18-6 5-14 9-23 11-9 3-20 4-31 4-12 0-22-1-31-4-9-3-17-6-23-11-6-5-11-11-15-18-3-7-5-15-5-23 0-3 1-7 3-9 2-3 4-4 7-4l27 0c0 8 1 15 2 21 1 6 4 10 7 14 3 4 7 6 12 8 5 2 11 2 18 2z"/>
		<polygon class="fil3" points="4848 10280 4802 10280 4802 10056 4678 10056 4678 10280 4632 10280 4632 10021 4848 10021 "/>
		<path class="fil3" d="M4966 10218c8 11 18 19 27 24 10 5 21 7 33 7 24 0 43-9 56-26 13-17 19-42 19-74 0-17-1-31-4-44-3-12-7-22-13-30-6-8-13-13-21-17-8-4-18-5-28-5-15 0-28 3-39 10-11 7-22 16-31 29l0 126zm-2-157c11-13 24-24 38-33 14-8 31-12 49-12 15 0 29 3 41 9 12 6 22 14 31 25 9 11 15 25 20 42 5 17 7 36 7 57 0 19-3 37-8 53-5 16-12 31-22 43-10 12-21 22-35 28-14 7-30 10-47 10-16 0-29-3-41-8-11-5-21-13-30-22l0 115-46 0 0-347 27 0c6 0 11 3 12 9l4 31z"/>
		<path class="fil3" d="M5317 10017c19 0 36 3 51 9 15 6 28 15 39 27 11 12 19 26 25 42 6 16 9 35 9 55 0 21-3 39-9 55-6 16-14 30-25 42-11 12-24 20-39 27-15 6-32 9-51 9-19 0-36-3-52-9-15-6-28-15-39-27-11-12-19-26-25-42-6-16-9-35-9-55 0-20 3-39 9-55 6-16 14-30 25-42 11-12 24-21 39-27 15-6 32-9 52-9zm0 232c26 0 45-9 57-26 13-17 19-41 19-72 0-31-6-55-19-72-13-17-32-26-57-26-13 0-24 2-34 7-10 4-18 11-24 19-6 8-11 19-14 31-3 12-5 26-5 41 0 31 6 55 19 72 13 17 32 26 58 26z"/>
		<path class="fil3" d="M5671 10122c0-11-1-20-4-29-3-9-7-16-13-23-6-6-13-11-21-15-8-4-18-5-28-5-22 0-39 6-52 19-13 13-21 30-24 53l142 0zm37 122c-6 7-12 13-20 18-8 5-16 9-25 12-9 3-18 6-28 7-10 2-19 2-28 2-18 0-34-3-50-9-15-6-28-15-39-27-11-12-20-26-26-43-6-17-9-37-9-59 0-18 3-35 8-51 6-16 13-29 24-41 10-12 23-21 38-27 15-7 32-10 51-10 16 0 30 3 43 8 13 5 25 13 34 23 10 10 17 22 23 36 5 14 8 31 8 49 0 7-1 12-2 14-2 2-4 4-9 4l-173 0c1 16 3 31 7 43 4 12 10 22 17 30 7 8 16 14 26 18 10 4 21 6 33 6 11 0 21-1 30-4 8-3 15-5 21-9 6-3 11-6 15-9 4-3 7-4 10-4 4 0 7 1 9 4l13 17z"/>
		<path class="fil3" d="M5926 10034c2-4 6-7 9-9 4-2 8-4 13-4l36 0-67 99c-4 6-8 11-13 15-4 4-10 7-16 9 8 2 15 6 21 10 6 5 11 11 15 18l68 107-32 0c-8 0-15-1-19-4-4-3-8-7-12-12l-50-81c-8-13-20-20-36-20l-28 0 0 117-46 0 0-260 46 0 0 112 25 0c14 0 24-6 32-17l55-82z"/>
		<polygon class="fil3" points="6249 10056 6149 10056 6149 10280 6104 10280 6104 10056 6004 10056 6004 10021 6249 10021 "/>
		<polygon class="fil3" points="6640 10280 6594 10280 6594 10056 6469 10056 6469 10280 6424 10280 6424 10021 6640 10021 "/>
		<path class="fil3" d="M6821 10017c19 0 36 3 51 9 15 6 28 15 39 27 11 12 19 26 25 42 6 16 9 35 9 55 0 21-3 39-9 55-6 16-14 30-25 42-11 12-24 20-39 27-15 6-32 9-51 9-19 0-36-3-52-9-15-6-28-15-39-27-11-12-19-26-25-42-6-16-9-35-9-55 0-20 3-39 9-55 6-16 14-30 25-42 11-12 24-21 39-27 15-6 32-9 52-9zm0 232c26 0 45-9 57-26 13-17 19-41 19-72 0-31-6-55-19-72-13-17-32-26-57-26-13 0-24 2-34 7-10 4-18 11-24 19-6 8-11 19-14 31-3 12-5 26-5 41 0 31 6 55 19 72 13 17 32 26 58 26z"/>
		<path class="fil3" d="M7358 10021l-145 336c-2 3-3 6-6 8-2 2-6 3-11 3l-34 0 47-103-107-244 39 0c4 0 7 1 9 3 2 2 4 4 5 7l69 163c3 7 5 15 7 23 2-8 5-16 8-23l67-163c1-3 3-5 5-7 2-2 5-3 8-3l36 0z"/>
		<path class="fil3" d="M7571 10067c-1 2-3 3-4 4-1 1-3 2-6 2-3 0-5-1-8-3-3-2-7-4-11-7-5-3-10-5-17-7-7-2-15-3-24-3-13 0-24 2-34 7-10 5-18 11-24 20-7 9-12 19-15 31-3 12-5 26-5 41 0 16 2 30 5 42 4 12 9 22 15 31 7 8 15 15 24 19 9 4 20 7 31 7 11 0 20-1 27-4 7-3 13-6 18-9 5-3 9-6 12-9 3-3 6-4 9-4 4 0 7 1 9 4l13 17c-6 7-12 13-19 18-7 5-15 9-23 12-8 3-17 6-26 7-9 2-18 2-28 2-16 0-31-3-45-9-14-6-26-15-36-26-10-11-18-25-24-42-6-17-9-35-9-57 0-19 3-37 8-54 5-16 13-31 24-42 10-12 23-21 38-28 15-7 32-10 52-10 18 0 34 3 48 9 14 6 26 14 37 25l-12 16z"/>
		<polygon class="fil3" points="7851 10056 7751 10056 7751 10280 7706 10280 7706 10056 7606 10056 7606 10021 7851 10021 "/>
		<path class="fil3" d="M8032 10163c-21 1-39 2-54 5-15 3-27 6-36 10-9 4-16 9-20 15-4 6-6 12-6 19 0 7 1 13 3 18 2 5 5 9 9 12 4 3 8 5 14 7 5 1 11 2 17 2 8 0 15-1 22-2 7-2 13-4 19-7 6-3 12-7 17-11 5-4 11-9 16-15l0-54zm-147-106c14-14 30-24 46-31 17-7 35-10 55-10 15 0 27 2 39 7 11 5 21 11 28 20 8 9 13 19 17 31 4 12 6 25 6 40l0 166-20 0c-4 0-8-1-10-2-2-1-4-4-6-9l-5-25c-7 6-13 12-20 17-6 5-13 9-21 12-7 3-15 6-23 8-8 2-17 3-27 3-10 0-20-1-28-4-9-3-17-7-23-13-7-6-12-13-16-21-4-9-6-19-6-31 0-10 3-20 8-30 6-9 15-18 27-25 13-7 29-13 49-18 20-5 45-7 75-8l0-20c0-20-4-35-13-46-9-10-21-15-38-15-11 0-21 1-28 4-8 3-14 6-20 9-6 4-10 7-14 9-4 3-8 4-12 4-3 0-6-1-8-2-2-2-4-4-6-6l-8-15z"/>
		<polygon class="fil3" points="8363 10021 8363 10280 8317 10280 8317 10159 8192 10159 8192 10280 8146 10280 8146 10021 8192 10021 8192 10124 8317 10124 8317 10021 "/>
		<path class="fil3" d="M8544 10017c19 0 36 3 51 9 15 6 28 15 39 27 11 12 19 26 25 42 6 16 9 35 9 55 0 21-3 39-9 55-6 16-14 30-25 42-11 12-24 20-39 27-15 6-32 9-51 9-19 0-36-3-52-9-15-6-28-15-39-27-11-12-19-26-25-42-6-16-9-35-9-55 0-20 3-39 9-55 6-16 14-30 25-42 11-12 24-21 39-27 15-6 32-9 52-9zm0 232c26 0 45-9 57-26 13-17 19-41 19-72 0-31-6-55-19-72-13-17-32-26-57-26-13 0-24 2-34 7-10 4-18 11-24 19-6 8-11 19-14 31-3 12-5 26-5 41 0 31 6 55 19 72 13 17 32 26 58 26z"/>
		<path class="fil3" d="M8825 10248c17 0 31-4 40-12 10-8 15-19 15-33 0-6-1-12-3-17-2-5-5-9-9-13-4-4-10-7-17-9-7-2-16-3-26-3l-56 0 0 86 56 0zm-56-197l0 81 50 0c8 0 15-1 21-3 6-2 12-5 16-9 5-4 8-8 11-14 3-5 4-11 4-18 0-5-1-9-3-14-2-5-5-9-9-12-4-4-9-6-16-8-7-2-15-3-25-3l-50 0zm51-31c16 0 30 2 41 5 11 3 21 8 28 13 7 6 13 12 16 20 3 8 5 16 5 24 0 6-1 12-2 18-2 6-4 12-8 18-4 6-9 11-16 15-7 5-15 8-25 11 20 3 35 10 46 21 11 10 16 24 16 41 0 13-2 24-8 33-5 9-12 17-21 23-9 6-19 11-31 14-12 3-24 5-38 5l-100 0 0-260 95 0z"/>
		<path class="fil3" d="M9207 10280l-46 0 0-224-82 0c-2 33-5 61-9 85-4 24-9 44-15 61-6 17-12 30-19 41-7 11-15 19-22 25-8 6-16 10-24 12-8 2-17 3-25 3-15 0-22-2-22-7l0-29 13 0c6 0 12-1 18-3 6-2 12-6 18-12 6-6 11-14 16-25 5-10 10-24 15-41 4-17 8-37 11-61 3-24 6-52 7-85l165 0 0 260z"/>
		<path class="fil3" d="M9453 10122c0-11-1-20-4-29-3-9-7-16-13-23-6-6-13-11-21-15-8-4-18-5-28-5-22 0-39 6-52 19-13 13-21 30-24 53l142 0zm37 122c-6 7-12 13-20 18-8 5-16 9-25 12-9 3-18 6-28 7-10 2-19 2-28 2-18 0-34-3-50-9-15-6-28-15-39-27-11-12-20-26-26-43-6-17-9-37-9-59 0-18 3-35 8-51 6-16 13-29 24-41 10-12 23-21 38-27 15-7 32-10 51-10 16 0 30 3 43 8 13 5 25 13 34 23 10 10 17 22 23 36 5 14 8 31 8 49 0 7-1 12-2 14-2 2-4 4-9 4l-173 0c1 16 3 31 7 43 4 12 10 22 17 30 7 8 16 14 26 18 10 4 21 6 33 6 11 0 21-1 30-4 8-3 15-5 21-9 6-3 11-6 15-9 4-3 7-4 10-4 4 0 7 1 9 4l13 17z"/>
		<polygon class="fil3" points="9766 10021 9766 10280 9721 10280 9721 10159 9596 10159 9596 10280 9550 10280 9550 10021 9596 10021 9596 10124 9721 10124 9721 10021 "/>
		<path class="fil3" d="M10061 10021l0 260-46 0 0-176c0-3 0-7 1-11 0-4 1-8 1-12-2 3-3 7-5 9-2 3-3 6-5 8l-125 170c-2 3-4 5-7 8-3 2-6 4-9 4l-28 0 0-260 46 0 0 176c0 3 0 7-1 11 0 4-1 8-1 12 2-3 3-6 5-9 2-3 3-5 5-8l125-170c2-3 4-5 7-8 3-2 6-4 9-4l27 0z"/>
		<path class="fil3" d="M10358 10248c24 0 42-9 54-26 12-17 18-41 18-72 0-31-6-55-18-72-12-17-30-26-54-26-24 0-42 9-54 26-12 17-18 41-18 72 0 31 6 55 18 72 12 17 30 26 54 26zm-116-116c2-18 5-34 11-48 6-14 14-27 24-37 10-10 22-18 35-23 14-5 29-8 46-8 18 0 35 3 49 9 15 6 27 15 37 27 10 12 18 26 24 42 6 16 8 35 8 55 0 21-3 39-8 55-6 16-14 30-24 42-10 12-23 20-37 27-15 6-31 9-48 9-17 0-33-3-46-8-14-5-26-13-36-23-10-10-18-22-24-37-6-15-9-31-11-49l-63 0 0 114-46 0 0-260 46 0 0 112 63 0z"/>
		<path class="fil3" d="M10846 10067c-1 2-3 3-4 4-1 1-3 2-6 2-3 0-5-1-8-3-3-2-7-4-11-7-5-3-10-5-17-7-7-2-15-3-24-3-13 0-24 2-34 7-10 5-18 11-24 20-7 9-12 19-15 31-3 12-5 26-5 41 0 16 2 30 5 42 4 12 9 22 15 31 7 8 15 15 24 19 9 4 20 7 31 7 11 0 20-1 27-4 7-3 13-6 18-9 5-3 9-6 12-9 3-3 6-4 9-4 4 0 7 1 9 4l13 17c-6 7-12 13-19 18-7 5-15 9-23 12-8 3-17 6-26 7-9 2-18 2-28 2-16 0-31-3-45-9-14-6-26-15-36-26-10-11-18-25-24-42-6-17-9-35-9-57 0-19 3-37 8-54 5-16 13-31 24-42 10-12 23-21 38-28 15-7 32-10 52-10 18 0 34 3 48 9 14 6 26 14 37 25l-12 16z"/>
		<path class="fil3" d="M11010 10248c17 0 31-4 40-12 10-8 15-19 15-33 0-6-1-12-3-17-2-5-5-9-9-13-4-4-10-7-17-9-7-2-16-3-26-3l-56 0 0 86 56 0zm-56-197l0 81 50 0c8 0 15-1 21-3 6-2 12-5 16-9 5-4 8-8 11-14 3-5 4-11 4-18 0-5-1-9-3-14-2-5-5-9-9-12-4-4-9-6-16-8-7-2-15-3-25-3l-50 0zm51-31c16 0 30 2 41 5 11 3 21 8 28 13 7 6 13 12 16 20 3 8 5 16 5 24 0 6-1 12-2 18-2 6-4 12-8 18-4 6-9 11-16 15-7 5-15 8-25 11 20 3 35 10 46 21 11 10 16 24 16 41 0 13-2 24-8 33-5 9-12 17-21 23-9 6-19 11-31 14-12 3-24 5-38 5l-100 0 0-260 95 0z"/>
		<path class="fil3" d="M11300 10142l0-90-44 0c-10 0-18 1-25 4-7 3-12 6-16 11-4 4-7 9-9 15-2 5-3 11-3 16 0 14 5 25 15 33 10 8 24 12 42 12l38 0zm44-121l0 260-44 0 0-109-20 0c-5 0-9 0-12 1-3 1-6 2-8 3-2 1-4 3-6 5-2 2-4 5-5 7l-57 77c-3 5-6 9-11 12-4 3-10 4-18 4l-32 0 75-98c6-10 14-17 24-21-13-2-24-5-33-9-9-4-16-10-22-16-6-6-10-13-12-20-3-7-4-15-4-22 0-9 2-18 5-27 3-9 9-17 17-24 8-7 18-13 30-17 12-4 27-6 44-6l88 0z"/>
		<path class="fil3" d="M11399 10047c10-9 22-17 36-22 14-6 31-8 50-8 16 0 30 2 41 6 12 4 22 9 30 15 8 6 14 13 18 22 4 8 6 17 6 25 0 5-1 10-2 16-2 6-4 11-8 16-4 5-9 10-15 14-6 4-13 8-22 11 17 5 30 13 39 24 9 11 14 24 14 40 0 12-3 23-8 32-5 10-13 18-22 25-9 7-20 12-32 16-12 4-25 5-38 5-8 0-17-1-25-2-9-2-17-4-25-7-8-3-16-7-23-12-7-5-14-11-19-18l13-17c2-3 5-4 9-4 3 0 6 1 10 4 3 3 8 6 13 9 5 3 11 6 19 9 7 3 16 4 27 4 9 0 18-1 25-4 7-2 14-5 19-10 5-4 9-9 12-15 3-6 4-12 4-18 0-13-5-23-16-31-11-8-27-12-49-12l-29 0 0-30 29 0c9 0 18-1 25-3 8-2 14-5 19-8 5-3 9-8 12-12 3-5 4-10 4-16 0-5-1-10-3-15-2-5-6-9-10-12-5-3-11-6-18-8-7-2-15-3-25-3-10 0-19 1-26 3-7 2-13 4-18 7-5 2-9 5-12 7-3 2-6 3-8 3-2 0-4 0-5-1-1-1-3-3-5-5l-11-18z"/>
		<path class="fil3" d="M11820 10122c0-11-1-20-4-29-3-9-7-16-13-23-6-6-13-11-21-15-8-4-18-5-28-5-22 0-39 6-52 19-13 13-21 30-24 53l142 0zm37 122c-6 7-12 13-20 18-8 5-16 9-25 12-9 3-18 6-28 7-10 2-19 2-28 2-18 0-34-3-50-9-15-6-28-15-39-27-11-12-20-26-26-43-6-17-9-37-9-59 0-18 3-35 8-51 6-16 13-29 24-41 10-12 23-21 38-27 15-7 32-10 51-10 16 0 30 3 43 8 13 5 25 13 34 23 10 10 17 22 23 36 5 14 8 31 8 49 0 7-1 12-2 14-2 2-4 4-9 4l-173 0c1 16 3 31 7 43 4 12 10 22 17 30 7 8 16 14 26 18 10 4 21 6 33 6 11 0 21-1 30-4 8-3 15-5 21-9 6-3 11-6 15-9 4-3 7-4 10-4 4 0 7 1 9 4l13 17z"/>
		<path class="fil3" d="M12139 10021l0 260-46 0 0-176c0-3 0-7 1-11 0-4 1-8 1-12-2 3-3 7-5 9-2 3-3 6-5 8l-125 170c-2 3-4 5-7 8-3 2-6 4-9 4l-28 0 0-260 46 0 0 176c0 3 0 7-1 11 0 4-1 8-1 12 2-3 3-6 5-9 2-3 3-5 5-8l125-170c2-3 4-5 7-8 3-2 6-4 9-4l27 0zm-108-63c7 0 13-1 18-2 5-2 9-4 12-8 3-4 5-8 6-14 1-6 2-13 2-21l27 0c3 0 6 1 7 4 2 3 3 6 3 9 0 9-2 16-5 23-3 7-8 13-15 18-6 5-14 9-23 11-9 3-20 4-31 4-12 0-22-1-31-4-9-3-17-6-23-11-6-5-11-11-15-18-3-7-5-15-5-23 0-3 1-7 3-9 2-3 4-4 7-4l27 0c0 8 1 15 2 21 1 6 4 10 7 14 3 4 7 6 12 8 5 2 11 2 18 2z"/>
		<path class="fil3" d="M12632 10020l0 260-41 0 0-172c0-5 0-10 1-16 1-6 1-11 2-16l-90 158c-1 3-3 5-5 6-2 2-5 2-8 2l-5 0c-3 0-5-1-8-2-2-2-4-4-6-6l-92-159c1 5 2 11 2 17 1 6 1 12 1 16l0 172-41 0 0-260 37 0c3 0 6 1 9 2 3 1 6 4 8 8l81 135c4 8 7 16 10 25 3-9 6-17 10-25l79-135c2-4 5-7 8-8 3-1 6-2 9-2l37 0z"/>
		<path class="fil3" d="M12878 10122c0-11-1-20-4-29-3-9-7-16-13-23-6-6-13-11-21-15-8-4-18-5-28-5-22 0-39 6-52 19-13 13-21 30-24 53l142 0zm37 122c-6 7-12 13-20 18-8 5-16 9-25 12-9 3-18 6-28 7-10 2-19 2-28 2-18 0-34-3-50-9-15-6-28-15-39-27-11-12-20-26-26-43-6-17-9-37-9-59 0-18 3-35 8-51 6-16 13-29 24-41 10-12 23-21 38-27 15-7 32-10 51-10 16 0 30 3 43 8 13 5 25 13 34 23 10 10 17 22 23 36 5 14 8 31 8 49 0 7-1 12-2 14-2 2-4 4-9 4l-173 0c1 16 3 31 7 43 4 12 10 22 17 30 7 8 16 14 26 18 10 4 21 6 33 6 11 0 21-1 30-4 8-3 15-5 21-9 6-3 11-6 15-9 4-3 7-4 10-4 4 0 7 1 9 4l13 17z"/>
		<path class="fil3" d="M13334 10280l-32 0c-8 0-14-1-19-4-4-3-8-7-10-12l-50-81c-8-13-20-20-36-20l-26 0 0 117-44 0 0-117-26 0c-8 0-15 2-21 5-6 3-11 8-15 15l-50 81c-3 5-6 9-10 12-4 3-11 4-19 4l-32 0 68-107c4-8 9-14 15-18 6-5 13-8 21-11-6-2-12-5-16-9-5-4-9-9-13-15l-68-99 36 0c4 0 8 1 12 3 4 2 6 5 8 9l55 82c4 6 8 10 14 13 5 3 12 5 19 5l22 0 0-112 44 0 0 112 22 0c15 0 25-6 33-17l55-82c2-4 5-7 9-9 4-2 8-3 12-3l36 0-68 99c-4 6-8 11-13 15-5 4-10 7-17 9 8 2 15 6 21 11 6 5 11 11 15 18l68 107z"/>
		<path class="fil3" d="M13555 10247l0-190-82 0c-2 27-4 50-7 71-3 20-7 38-11 54-4 15-8 29-13 39-5 11-10 20-15 26l129 0zm92-1l0 110c0 4-1 8-4 10-2 2-6 4-10 4l-28 0 0-89-218 0 0 76c0 3-1 6-3 9-2 3-5 4-10 4l-29 0 0-123 8 0c6 0 12-1 18-3 6-2 12-6 17-12 5-6 11-14 16-24 5-10 9-24 13-41 4-17 7-37 10-61 3-24 5-52 7-85l164 0 0 225 47 0z"/>
		<path class="fil3" d="M13905 10021l-145 336c-2 3-3 6-6 8-2 2-6 3-11 3l-34 0 47-103-107-244 39 0c4 0 7 1 9 3 2 2 4 4 5 7l69 163c3 7 5 15 7 23 2-8 5-16 8-23l67-163c1-3 3-5 5-7 2-2 5-3 8-3l36 0z"/>
		<polygon class="fil3" points="14292 10056 14192 10056 14192 10280 14147 10280 14147 10056 14047 10056 14047 10021 14292 10021 "/>
		<path class="fil3" d="M14499 10122c0-11-1-20-4-29-3-9-7-16-13-23-6-6-13-11-21-15-8-4-18-5-28-5-22 0-39 6-52 19-13 13-21 30-24 53l142 0zm37 122c-6 7-12 13-20 18-8 5-16 9-25 12-9 3-18 6-28 7-10 2-19 2-28 2-18 0-34-3-50-9-15-6-28-15-39-27-11-12-20-26-26-43-6-17-9-37-9-59 0-18 3-35 8-51 6-16 13-29 24-41 10-12 23-21 38-27 15-7 32-10 51-10 16 0 30 3 43 8 13 5 25 13 34 23 10 10 17 22 23 36 5 14 8 31 8 49 0 7-1 12-2 14-2 2-4 4-9 4l-173 0c1 16 3 31 7 43 4 12 10 22 17 30 7 8 16 14 26 18 10 4 21 6 33 6 11 0 21-1 30-4 8-3 15-5 21-9 6-3 11-6 15-9 4-3 7-4 10-4 4 0 7 1 9 4l13 17z"/>
		<path class="fil3" d="M14753 10034c2-4 6-7 9-9 4-2 8-4 13-4l36 0-67 99c-4 6-8 11-13 15-4 4-10 7-16 9 8 2 15 6 21 10 6 5 11 11 15 18l68 107-32 0c-8 0-15-1-19-4-4-3-8-7-12-12l-50-81c-8-13-20-20-36-20l-28 0 0 117-46 0 0-260 46 0 0 112 25 0c14 0 24-6 32-17l55-82z"/>
		<path class="fil3" d="M15031 10067c-1 2-3 3-4 4-1 1-3 2-6 2-3 0-5-1-8-3-3-2-7-4-11-7-5-3-10-5-17-7-7-2-15-3-24-3-13 0-24 2-34 7-10 5-18 11-24 20-7 9-12 19-15 31-3 12-5 26-5 41 0 16 2 30 5 42 4 12 9 22 15 31 7 8 15 15 24 19 9 4 20 7 31 7 11 0 20-1 27-4 7-3 13-6 18-9 5-3 9-6 12-9 3-3 6-4 9-4 4 0 7 1 9 4l13 17c-6 7-12 13-19 18-7 5-15 9-23 12-8 3-17 6-26 7-9 2-18 2-28 2-16 0-31-3-45-9-14-6-26-15-36-26-10-11-18-25-24-42-6-17-9-35-9-57 0-19 3-37 8-54 5-16 13-31 24-42 10-12 23-21 38-28 15-7 32-10 52-10 18 0 34 3 48 9 14 6 26 14 37 25l-12 16z"/>
		<polygon class="fil3" points="15311 10056 15211 10056 15211 10280 15165 10280 15165 10056 15066 10056 15066 10021 15311 10021 "/>
		<path class="fil3" d="M15492 10163c-21 1-39 2-54 5-15 3-27 6-36 10-9 4-16 9-20 15-4 6-6 12-6 19 0 7 1 13 3 18 2 5 5 9 9 12 4 3 8 5 14 7 5 1 11 2 17 2 8 0 15-1 22-2 7-2 13-4 19-7 6-3 12-7 17-11 5-4 11-9 16-15l0-54zm-147-106c14-14 30-24 46-31 17-7 35-10 55-10 15 0 27 2 39 7 11 5 21 11 28 20 8 9 13 19 17 31 4 12 6 25 6 40l0 166-20 0c-4 0-8-1-10-2-2-1-4-4-6-9l-5-25c-7 6-13 12-20 17-6 5-13 9-21 12-7 3-15 6-23 8-8 2-17 3-27 3-10 0-20-1-28-4-9-3-17-7-23-13-7-6-12-13-16-21-4-9-6-19-6-31 0-10 3-20 8-30 6-9 15-18 27-25 13-7 29-13 49-18 20-5 45-7 75-8l0-20c0-20-4-35-13-46-9-10-21-15-38-15-11 0-21 1-28 4-8 3-14 6-20 9-6 4-10 7-14 9-4 3-8 4-12 4-3 0-6-1-8-2-2-2-4-4-6-6l-8-15z"/>
		<path class="fil3" d="M15895 10020l0 260-41 0 0-172c0-5 0-10 1-16 1-6 1-11 2-16l-90 158c-1 3-3 5-5 6-2 2-5 2-8 2l-5 0c-3 0-5-1-8-2-2-2-4-4-6-6l-92-159c1 5 2 11 2 17 1 6 1 12 1 16l0 172-41 0 0-260 37 0c3 0 6 1 9 2 3 1 6 4 8 8l81 135c4 8 7 16 10 25 3-9 6-17 10-25l79-135c2-4 5-7 8-8 3-1 6-2 9-2l37 0z"/>
		<path class="fil3" d="M16190 10021l0 260-46 0 0-176c0-3 0-7 1-11 0-4 1-8 1-12-2 3-3 7-5 9-2 3-3 6-5 8l-125 170c-2 3-4 5-7 8-3 2-6 4-9 4l-28 0 0-260 46 0 0 176c0 3 0 7-1 11 0 4-1 8-1 12 2-3 3-6 5-9 2-3 3-5 5-8l125-170c2-3 4-5 7-8 3-2 6-4 9-4l27 0z"/>
	</g>
</svg>
