<?xml version="1.0" encoding="UTF-8"?>
<svg xmlns="http://www.w3.org/2000/svg" xmlns:xlink="http://www.w3.org/1999/xlink" xml:space="preserve" height="460px" viewBox="0 0 22723 15323" version="1.1" baseProfile="full" style="clip-rule:evenodd;fill-rule:evenodd;image-rendering:optimizeQuality;shape-rendering:geometricPrecision;text-rendering:optimizeLegibility">
	<defs>
		<style type="text/css"><![CDATA[
			.str2 {stroke:black;stroke-width:20.2249}
			.str0 {stroke:black;stroke-width:25.2812}
			.str3 {stroke:black;stroke-width:101.125;stroke-linecap:round;stroke-linejoin:round}
			.str1 {stroke:black;stroke-width:151.687;stroke-linecap:round;stroke-linejoin:round}
			.fil1 {fill:none}
			.fil0 {fill:white}
			.fil2 {fill:black;fill-rule:nonzero}
			.fil7 {fill:#009655;fill-rule:nonzero}
			.fil9 {fill:#1111CC;fill-rule:nonzero}
			.fil6 {fill:#1469EB;fill-rule:nonzero}
			.fil3 {fill:#176CED;fill-rule:nonzero}
			.fil4 {fill:#D43F2A;fill-rule:nonzero}
			.fil8 {fill:#D9442F;fill-rule:nonzero}
			.fil5 {fill:#FFB402;fill-rule:nonzero}
		]]></style>
	</defs>
	<g>
		<g>
			<polygon class="fil0 str0" points="21 13 9975 13 9975 4115 9517 4031 9003 4401 8042 4010 7272 4368 6335 4019 5328 4418 4404 4005 3384 4368 2599 3973 1636 4368 1045 4048 476 4368 21 4115 "/>
			<polygon class="fil0 str0" points="13 6657 9967 6657 9967 4635 9509 4551 8995 4920 8034 4530 7264 4888 6327 4539 5320 4938 4396 4525 3376 4888 2591 4492 1628 4888 1037 4568 468 4888 13 4635 "/>
			<line class="fil1 str1" x1="584" y1="644" x2="2658" y2="644"/>
			<line class="fil1 str1" x1="584" y1="2348" x2="6337" y2="2348"/>
			<line class="fil1 str1" x1="584" y1="2917" x2="9387" y2="2917"/>
			<line class="fil1 str1" x1="584" y1="3485" x2="9387" y2="3485"/>
			<polygon class="fil2" points="2938 779 2865 779 2865 508 2938 508 2938 528 2890 528 2890 759 2938 759 "/>
			<path class="fil2" d="M3112 725l-112 0 0-21 43 0 0-139-43 0 0-19c6 0 12 0 19-1 7-1 12-2 15-4 4-2 8-5 10-9 2-4 4-8 4-15l22 0 0 187 42 0 0 21z"/>
			<polygon class="fil2" points="3239 779 3167 779 3167 759 3215 759 3215 528 3167 528 3167 508 3239 508 "/>
			<polygon class="fil2" points="6603 2484 6531 2484 6531 2213 6603 2213 6603 2233 6555 2233 6555 2464 6603 2464 "/>
			<path class="fil2" d="M6790 2430l-140 0 0-29c10-8 19-17 29-25 10-8 19-17 27-25 18-17 30-31 37-41 7-10 10-21 10-33 0-11-4-19-11-25-7-6-17-9-30-9-8 0-18 1-27 4-10 3-19 8-29 14l-1 0 0-29c7-3 15-6 26-9 11-3 22-4 32-4 21 0 38 5 50 15 12 10 18 24 18 42 0 8-1 15-3 22-2 7-5 13-9 19-4 6-8 11-13 17-5 6-11 12-18 19-10 10-20 19-31 28-11 9-20 18-30 25l111 0 0 24z"/>
			<polygon class="fil2" points="6905 2484 6832 2484 6832 2464 6881 2464 6881 2233 6832 2233 6832 2213 6905 2213 "/>
			<line class="fil1 str1" x1="3434" y1="644" x2="7996" y2="644"/>
			<line class="fil1 str1" x1="7079" y1="2348" x2="9387" y2="2348"/>
			<path class="fil2" d="M572 5641l-112 0 0-21 43 0 0-139-43 0 0-19c6 0 12 0 19-1 7-1 12-2 15-4 4-2 8-5 10-9 2-4 4-8 4-15l22 0 0 187 42 0 0 21z"/>
			<path class="fil2" d="M584 6058l-140 0 0-29c10-8 19-17 29-25 10-8 19-17 27-25 18-17 30-31 37-41 7-10 10-21 10-33 0-11-4-19-11-25-7-6-17-9-30-9-8 0-18 1-27 4-10 3-19 8-29 14l-1 0 0-29c7-3 15-6 26-9 11-3 22-4 32-4 21 0 38 5 50 15 12 10 18 24 18 42 0 8-1 15-3 22-2 7-5 13-9 19-4 6-8 11-13 17-5 6-11 12-18 19-10 10-20 19-31 28-11 9-20 18-30 25l111 0 0 24z"/>
			<line class="fil1 str1" x1="718" y1="5508" x2="9387" y2="5508"/>
			<line class="fil1 str1" x1="722" y1="5952" x2="9391" y2="5952"/>
			<rect class="fil1 str2" x="3523" y="946" width="2950" height="764"/>
			<line class="fil1 str3" x1="4464" y1="1932" x2="5507" y2="1932"/>
		</g>
		<g>
			<polygon class="fil0 str0" points="12756 13 22710 13 22710 4115 22252 4031 21738 4401 20777 4010 20008 4368 19070 4019 18063 4418 17139 4005 16119 4368 15334 3973 14371 4368 13780 4048 13212 4368 12756 4115 "/>
			<polygon class="fil0 str0" points="12748 6657 22702 6657 22702 4635 22244 4551 21730 4920 20769 4530 19999 4888 19062 4539 18055 4938 17131 4525 16111 4888 15326 4492 14363 4888 13772 4568 13203 4888 12748 4635 "/>
			<line class="fil1 str1" x1="13319" y1="644" x2="15393" y2="644"/>
			<line class="fil1 str1" x1="13319" y1="2348" x2="22122" y2="2348"/>
			<line class="fil1 str1" x1="13319" y1="2917" x2="22122" y2="2917"/>
			<line class="fil1 str1" x1="13319" y1="3485" x2="22122" y2="3485"/>
			<polygon class="fil2" points="15673 779 15600 779 15600 508 15673 508 15673 528 15625 528 15625 759 15673 759 "/>
			<path class="fil2" d="M15848 725l-112 0 0-21 43 0 0-139-43 0 0-19c6 0 12 0 19-1 7-1 12-2 15-4 4-2 8-5 10-9 2-4 4-8 4-15l22 0 0 187 42 0 0 21z"/>
			<polygon class="fil2" points="15974 779 15902 779 15902 759 15950 759 15950 528 15902 528 15902 508 15974 508 "/>
			<line class="fil1 str1" x1="16169" y1="644" x2="20731" y2="644"/>
			<path class="fil2" d="M13307 5641l-112 0 0-21 43 0 0-139-43 0 0-19c6 0 12 0 19-1 7-1 12-2 15-4 4-2 8-5 10-9 2-4 4-8 4-15l22 0 0 187 42 0 0 21z"/>
			<line class="fil1 str1" x1="13453" y1="5508" x2="22122" y2="5508"/>
			<rect class="fil1 str2" x="16764" y="946" width="1939" height="764"/>
			<line class="fil1 str3" x1="17300" y1="1932" x2="18141" y2="1932"/>
		</g>
		<path class="fil3" d="M10970 7358l0 128c-17 12-34 21-53 27-19 6-40 9-62 9-27 0-51-4-72-12-21-8-40-20-55-35-15-15-27-33-35-54-8-21-12-44-12-69 0-25 4-48 12-69 8-21 19-39 34-54 15-15 33-26 54-35 21-8 45-12 70-12 13 0 25 1 37 3 11 2 22 5 31 8 10 4 18 8 27 13 8 5 16 11 23 18l-13 20c-2 3-5 5-8 6-3 1-7 0-11-2-4-2-8-5-13-8-5-3-11-6-17-9-7-3-15-5-24-7-9-2-20-3-33-3-19 0-36 3-51 9-15 6-28 15-39 26-11 11-19 25-25 41-6 16-9 34-9 54 0 21 3 39 9 56 6 16 14 30 26 42 11 12 24 20 40 26 16 6 33 9 53 9 15 0 29-2 41-5 12-3 24-8 35-14l0-73-52 0c-3 0-5-1-7-3-2-2-3-4-3-6l0-26 102 0z"/>
		<path class="fil4" d="M11125 7279c17 0 33 3 46 9 14 6 26 14 35 24 10 11 17 23 22 38 5 15 8 32 8 50 0 19-3 35-8 50-5 15-13 28-22 38-10 11-21 19-35 24-14 6-29 9-46 9-17 0-33-3-47-9-14-6-26-14-35-24-10-11-17-23-22-38-5-15-8-32-8-50 0-18 3-35 8-50 5-15 13-28 22-38 10-11 22-19 35-24 14-6 29-9 47-9zm0 210c23 0 41-8 52-23 11-16 17-37 17-65 0-28-6-50-17-65-11-16-29-23-52-23-12 0-22 2-31 6-9 4-16 10-22 17-6 8-10 17-13 28-3 11-4 24-4 37 0 28 6 49 17 65 12 16 29 23 52 23z"/>
		<path class="fil5" d="M11388 7279c17 0 33 3 46 9 14 6 26 14 35 24 10 11 17 23 22 38 5 15 8 32 8 50 0 19-3 35-8 50-5 15-13 28-22 38-10 11-21 19-35 24-14 6-29 9-46 9-17 0-33-3-47-9-14-6-26-14-35-24-10-11-17-23-22-38-5-15-8-32-8-50 0-18 3-35 8-50 5-15 13-28 22-38 10-11 22-19 35-24 14-6 29-9 47-9zm0 210c23 0 41-8 52-23 11-16 17-37 17-65 0-28-6-50-17-65-11-16-29-23-52-23-12 0-22 2-31 6-9 4-16 10-22 17-6 8-10 17-13 28-3 11-4 24-4 37 0 28 6 49 17 65 12 16 29 23 52 23z"/>
		<path class="fil6" d="M11633 7403c8 0 16-1 22-3 6-2 12-6 16-10 4-4 8-9 10-15 2-6 3-12 3-19 0-14-4-26-13-34-9-9-21-13-38-13-17 0-29 4-38 13-9 9-13 20-13 34 0 7 1 13 3 19 2 6 5 11 10 15 4 4 10 7 16 10 6 2 14 3 22 3zm74 128c0-6-2-10-5-14-3-4-8-6-13-8-5-2-12-3-19-4-7-1-15-1-23-2-8 0-16-1-25-1-8 0-16-1-24-2-9 4-16 9-21 15-5 6-8 13-8 21 0 5 1 10 4 15 3 5 7 9 12 12 6 3 13 6 21 8 8 2 18 3 30 3 11 0 21-1 30-3 9-2 16-5 22-9 6-4 11-8 14-13 3-5 5-11 5-17zm42-238l0 15c0 5-3 8-10 10l-27 3c5 10 8 21 8 34 0 11-2 22-7 31-4 9-11 17-18 24-8 7-17 12-28 15-11 4-23 5-35 5-11 0-21-1-31-4-5 3-9 6-11 10-3 3-4 7-4 11 0 6 2 10 7 13 5 3 11 5 18 6 7 1 16 2 25 2 10 0 19 1 29 1 10 1 20 2 29 4 10 2 18 4 25 8 7 4 13 9 18 16 5 7 7 16 7 26 0 10-2 20-7 29-5 9-12 18-22 25-9 7-21 13-35 18-14 4-29 7-46 7-17 0-32-2-45-5-13-3-23-8-32-14-9-6-15-12-19-20-4-8-6-15-6-24 0-12 4-21 11-29 7-8 17-14 30-19-7-3-12-7-17-12-4-5-6-12-6-21 0-3 1-7 2-11 1-4 3-7 6-11 3-4 6-7 9-10 4-3 8-6 13-9-12-6-21-15-27-26-6-11-10-23-10-37 0-11 2-22 7-31 4-9 11-17 18-24 8-7 17-12 28-15 11-4 23-5 36-5 10 0 20 1 29 3 9 2 17 6 24 10l64 0z"/>
		<polygon class="fil7" points="11835 7176 11835 7517 11793 7517 11793 7176 "/>
		<path class="fil8" d="M12059 7374c0-10-1-18-4-26-3-8-7-15-12-21-5-6-12-10-19-13-7-3-16-5-25-5-20 0-35 6-47 17-12 12-19 28-21 48l128 0zm33 110c-5 6-11 12-18 16-7 5-15 8-23 11-8 3-17 5-25 7-9 1-17 2-26 2-16 0-31-3-45-8-14-5-26-14-35-24-10-11-18-24-23-39-6-16-8-34-8-54 0-16 3-32 8-46 5-14 12-27 22-37 9-10 21-19 35-25 14-6 29-9 46-9 14 0 27 2 39 7 12 5 22 12 31 20 9 9 16 20 20 33 5 13 7 28 7 45 0 6-1 11-2 13-1 2-4 3-8 3l-157 0c0 15 3 28 6 39 4 11 9 20 15 27 6 7 14 13 23 16 9 4 19 5 30 5 10 0 19-1 27-4 7-2 14-5 19-8 5-3 10-5 14-8 4-2 7-4 9-4 3 0 6 1 8 4l12 15z"/>
		<path class="fil9" d="M10847 7794c-1 2-3 4-4 5-2 1-4 2-6 2-3 0-6-1-9-4-4-3-8-6-13-9-5-3-12-6-19-9-7-3-17-4-27-4-10 0-19 1-27 4-8 3-14 6-19 11-5 5-9 10-12 16-3 6-4 13-4 20 0 9 2 17 7 23 5 6 11 11 18 16 8 4 16 8 26 11 10 3 19 6 29 10 10 3 20 7 29 11 10 4 18 10 26 16 7 6 14 14 18 24 5 9 7 21 7 35 0 15-2 28-7 41-5 13-12 24-22 33-10 9-21 17-35 22-14 5-30 8-47 8-22 0-41-4-59-12-18-8-33-18-45-32l13-21c1-2 3-3 5-4 2-1 4-2 6-2 2 0 4 1 7 2 3 2 5 4 9 6 3 2 7 5 11 8 4 3 9 6 14 8 5 2 11 4 18 6 7 2 14 2 23 2 11 0 20-1 29-4 8-3 15-7 21-12 6-5 10-12 13-19 3-7 5-16 5-25 0-10-2-18-7-25-5-6-11-12-18-16-7-4-16-8-26-11-10-3-19-6-29-9-10-3-20-7-29-11-10-4-18-10-26-16-7-7-13-15-18-25-5-10-7-22-7-37 0-12 2-23 7-34 5-11 11-21 20-29 9-8 19-15 32-20 13-5 27-8 44-8 19 0 35 3 51 9 15 6 29 14 40 26l-11 21z"/>
		<path class="fil9" d="M11081 7881c-1 2-2 3-4 4-1 1-3 1-5 1-2 0-5-1-8-3-3-2-6-4-10-6-4-2-9-4-15-6-6-2-13-3-22-3-12 0-22 2-31 6-9 4-16 10-22 18-6 8-10 17-13 28-3 11-5 23-5 37 0 14 2 27 5 38 3 11 8 20 14 28 6 8 13 13 22 17 8 4 18 6 28 6 10 0 18-1 25-4 6-2 12-5 16-8 4-3 8-6 11-8 3-2 6-4 8-4 3 0 6 1 8 4l12 15c-5 6-11 12-17 16-6 4-13 8-21 11-7 3-15 5-24 7-8 1-17 2-25 2-15 0-28-3-41-8-13-5-24-13-33-24-9-10-17-23-22-38-5-15-8-32-8-51 0-17 2-34 7-48 5-15 12-28 21-38 9-11 21-19 35-25 14-6 29-9 47-9 17 0 31 3 44 8 13 5 24 13 33 23l-11 15z"/>
		<path class="fil9" d="M11180 7870c10-11 21-19 33-26 12-6 26-10 42-10 13 0 24 2 34 6 10 4 18 10 25 18 7 8 12 17 15 28 3 11 5 23 5 36l0 150-42 0 0-150c0-18-4-32-12-41-8-10-20-15-37-15-12 0-24 3-34 9-11 6-20 14-29 24l0 173-42 0 0-342 42 0 0 138z"/>
		<path class="fil9" d="M11496 7835c17 0 33 3 46 9 14 6 26 14 35 24 10 11 17 23 22 38 5 15 8 32 8 50 0 19-3 35-8 50-5 15-13 28-22 38-10 11-21 19-35 24-14 6-29 9-46 9-17 0-33-3-47-9-14-6-26-14-35-24-10-11-17-23-22-38-5-15-8-32-8-50 0-18 3-35 8-50 5-15 13-28 22-38 10-11 22-19 35-24 14-6 29-9 47-9zm0 210c23 0 41-8 52-23 11-16 17-37 17-65 0-28-6-50-17-65-11-16-29-23-52-23-12 0-22 2-31 6-9 4-16 10-22 17-6 8-10 17-13 28-3 11-4 24-4 37 0 28 6 49 17 65 12 16 29 23 52 23z"/>
		<polygon class="fil9" points="11703 7732 11703 8074 11662 8074 11662 7732 "/>
		<path class="fil9" d="M11897 7968c-19 1-35 2-49 4-13 2-24 6-33 9-8 4-15 8-18 14-4 5-6 11-6 18 0 6 1 12 3 16 2 4 5 8 8 11 3 3 8 5 12 6 5 1 10 2 15 2 7 0 14-1 20-2 6-1 12-4 17-6 5-3 10-6 15-10 5-4 10-8 14-13l0-49zm-133-96c13-13 27-22 42-28 15-6 32-9 50-9 13 0 25 2 35 6 10 4 19 10 26 18 7 8 12 17 16 28 4 11 5 23 5 36l0 150-18 0c-4 0-7-1-9-2-2-1-4-4-5-8l-5-22c-6 6-12 11-18 15-6 4-12 8-19 11-6 3-13 5-21 7-7 2-16 2-25 2-9 0-18-1-26-4-8-3-15-6-21-11-6-5-11-12-14-19-3-8-5-17-5-28 0-9 3-18 8-27 5-9 13-16 25-23 11-7 26-12 45-16 18-4 41-7 68-7l0-18c0-18-4-32-12-41-8-9-19-14-35-14-10 0-19 1-26 4-7 3-13 5-18 9-5 3-9 6-13 9-4 3-7 4-11 4-3 0-5-1-7-2-2-1-4-3-5-5l-7-13z"/>
		<path class="fil9" d="M12040 7886c7-16 17-29 27-38 11-9 24-14 40-14 5 0 10 1 14 2 5 1 9 3 12 5l-3 31c-1 4-3 6-7 6-2 0-5 0-10-1-4-1-9-1-14-1-7 0-14 1-20 3-6 2-11 5-16 10-5 4-9 10-12 16-4 6-7 13-10 21l0 148-42 0 0-235 24 0c4 0 8 1 9 3 2 2 3 5 3 9l3 36z"/>
		<g>
			<path class="fil2" d="M9640 5470l0 76-2 0-2 0-2 0-2 0-2 0-2-1-2-1-2-1-2-1-2-1-2-1-2-1-1-1-1-1-1-1-1-1-1-1-1-1-1-1-1-1-1-2-1-2-1-2-1-2-1-2-1-2-1-2 0-2 0-2 0-2 0-2 0-2 0-2 0-2 0-2 0-2 0-2 1-2 1-2 1-2 1-2 1-2 1-2 1-2 1-1 1-1 1-1 1-1 1-1 1-1 1-1 1-1 2-1 2-1 2-1 2-1 2-1 2-1 2-1 2 0 2 0 2 0 2 0 2 0zm2984-4166l0 76-148 12-142 34-137 54-131 74-126 92-122 109-117 124-113 138-108 151-104 161-100 171-96 179-93 185-90 190-86 193-84 195-81 195-79 193-77 190-75 186-73 180-72 173-71 164-70 153-70 141-69 128-70 113-71 97-72 80-75 61-79 39-84 14 0-76 60-10 62-31 64-52 66-72 67-92 67-109 68-125 68-139 69-151 70-162 71-172 73-180 75-186 77-191 79-194 81-195 84-195 87-194 90-191 94-187 98-181 102-173 106-164 111-154 116-142 121-129 127-113 133-97 140-78 146-58 153-36 160-12zm79 70l-41-64 0 64-299-194 41-64 299 194 0 64zm0 0l0-64 49 32-49 32zm-320 162l-21-32 299-194 41 64-299 194-21-32zm240-156l0-76 2 0 2 0 2 0 2 0 2 0 2 1 2 1 2 1 2 1 2 1 2 1 2 1 1 1 1 1 1 1 1 1 1 1 1 1 1 1 1 1 1 2 1 2 1 2 1 2 1 2 1 2 1 2 0 2 0 2 0 2 0 2 0 2 0 2 0 2 0 2 0 2 0 2-1 2-1 2-1 2-1 2-1 2-1 2-1 2-1 1-1 1-1 1-1 1-1 1-1 1-1 1-1 1-2 1-2 1-2 1-2 1-2 1-2 1-2 1-2 0-2 0-2 0-2 0-2 0z"/>
		</g>
		<g>
			<polygon class="fil0 str0" points="21 8666 9975 8666 9975 12768 9517 12684 9003 13054 8042 12663 7272 13021 6335 12672 5328 13072 4404 12658 3384 13021 2599 12626 1636 13021 1045 12702 476 13021 21 12768 "/>
			<polygon class="fil0 str0" points="13 15311 9967 15311 9967 13288 9509 13204 8995 13573 8034 13183 7264 13541 6327 13192 5320 13591 4396 13178 3376 13541 2591 13145 1628 13541 1037 13221 468 13541 13 13288 "/>
			<line class="fil1 str1" x1="584" y1="9297" x2="2658" y2="9297"/>
			<line class="fil1 str1" x1="584" y1="11002" x2="9387" y2="11002"/>
			<line class="fil1 str1" x1="584" y1="11570" x2="9387" y2="11570"/>
			<line class="fil1 str1" x1="584" y1="12138" x2="9387" y2="12138"/>
			<polygon class="fil2" points="2938 9433 2865 9433 2865 9161 2938 9161 2938 9181 2890 9181 2890 9413 2938 9413 "/>
			<path class="fil2" d="M3112 9378l-112 0 0-21 43 0 0-139-43 0 0-19c6 0 12 0 19-1 7-1 12-2 15-4 4-2 8-5 10-9 2-4 4-8 4-15l22 0 0 187 42 0 0 21z"/>
			<polygon class="fil2" points="3239 9433 3167 9433 3167 9413 3215 9413 3215 9181 3167 9181 3167 9161 3239 9161 "/>
			<line class="fil1 str1" x1="3434" y1="9297" x2="9387" y2="9297"/>
			<path class="fil2" d="M572 14294l-112 0 0-21 43 0 0-139-43 0 0-19c6 0 12 0 19-1 7-1 12-2 15-4 4-2 8-5 10-9 2-4 4-8 4-15l22 0 0 187 42 0 0 21z"/>
			<line class="fil1 str1" x1="718" y1="14161" x2="9387" y2="14161"/>
			<line class="fil1 str1" x1="584" y1="10433" x2="9387" y2="10433"/>
			<line class="fil1 str1" x1="584" y1="9865" x2="9387" y2="9865"/>
		</g>
		<g>
			<polygon class="fil0 str0" points="12748 8666 22702 8666 22702 12768 22244 12684 21730 13054 20769 12663 19999 13021 19062 12672 18055 13072 17131 12658 16111 13021 15326 12626 14363 13021 13772 12702 13203 13021 12748 12768 "/>
			<polygon class="fil0 str0" points="12740 15311 22694 15311 22694 13288 22236 13204 21722 13573 20761 13183 19991 13541 19054 13192 18047 13591 17123 13178 16103 13541 15318 13145 14355 13541 13764 13221 13195 13541 12740 13288 "/>
			<line class="fil1 str1" x1="13311" y1="9297" x2="15385" y2="9297"/>
			<line class="fil1 str1" x1="13311" y1="11002" x2="22114" y2="11002"/>
			<line class="fil1 str1" x1="13311" y1="11570" x2="22114" y2="11570"/>
			<line class="fil1 str1" x1="13311" y1="12138" x2="22114" y2="12138"/>
			<polygon class="fil2" points="15665 9433 15592 9433 15592 9161 15665 9161 15665 9181 15617 9181 15617 9413 15665 9413 "/>
			<path class="fil2" d="M15839 9378l-112 0 0-21 43 0 0-139-43 0 0-19c6 0 12 0 19-1 7-1 12-2 15-4 4-2 8-5 10-9 2-4 4-8 4-15l22 0 0 187 42 0 0 21z"/>
			<polygon class="fil2" points="15966 9433 15894 9433 15894 9413 15942 9413 15942 9181 15894 9181 15894 9161 15966 9161 "/>
			<line class="fil1 str1" x1="16161" y1="9297" x2="20722" y2="9297"/>
			<path class="fil2" d="M13299 14294l-112 0 0-21 43 0 0-139-43 0 0-19c6 0 12 0 19-1 7-1 12-2 15-4 4-2 8-5 10-9 2-4 4-8 4-15l22 0 0 187 42 0 0 21z"/>
			<line class="fil1 str1" x1="13445" y1="14161" x2="22114" y2="14161"/>
			<rect class="fil1 str2" x="14733" y="9599" width="5984" height="764"/>
			<line class="fil1 str3" x1="16786" y1="10585" x2="18639" y2="10585"/>
		</g>
		<g>
			<path class="fil2" d="M5028 6152l-76 0 0-2 0-2 0-2 0-2 0-2 1-2 1-2 1-2 1-2 1-2 1-2 1-2 1-1 1-1 1-1 1-1 1-1 1-1 1-1 1-1 2-1 2-1 2-1 2-1 2-1 2-1 2-1 2 0 2 0 2 0 2 0 2 0 2 0 2 0 2 0 2 0 2 0 2 1 2 1 2 1 2 1 2 1 2 1 2 1 1 1 1 1 1 1 1 1 1 1 1 1 1 1 1 1 1 2 1 2 1 2 1 2 1 2 1 2 1 2 0 2 0 2 0 2 0 2 0 2zm-76 2377l0-2377 76 0 0 2377-76 0zm6 79l64-41-64 0 194-299 64 41-194 299-64 0zm0 0l64 0-32 49-32-49zm-162-320l32-21 194 299-64 41-194-299 32-21zm156 240l76 0 0 2 0 2 0 2 0 2 0 2-1 2-1 2-1 2-1 2-1 2-1 2-1 2-1 1-1 1-1 1-1 1-1 1-1 1-1 1-1 1-2 1-2 1-2 1-2 1-2 1-2 1-2 1-2 0-2 0-2 0-2 0-2 0-2 0-2 0-2 0-2 0-2 0-2-1-2-1-2-1-2-1-2-1-2-1-2-1-1-1-1-1-1-1-1-1-1-1-1-1-1-1-1-1-1-2-1-2-1-2-1-2-1-2-1-2-1-2 0-2 0-2 0-2 0-2 0-2z"/>
		</g>
		<g>
			<path class="fil2" d="M17763 5770l-76 0 0-2 0-2 0-2 0-2 0-2 1-2 1-2 1-2 1-2 1-2 1-2 1-2 1-1 1-1 1-1 1-1 1-1 1-1 1-1 1-1 2-1 2-1 2-1 2-1 2-1 2-1 2-1 2 0 2 0 2 0 2 0 2 0 2 0 2 0 2 0 2 0 2 0 2 1 2 1 2 1 2 1 2 1 2 1 2 1 1 1 1 1 1 1 1 1 1 1 1 1 1 1 1 1 1 2 1 2 1 2 1 2 1 2 1 2 1 2 0 2 0 2 0 2 0 2 0 2zm-76 2758l0-2758 76 0 0 2758-76 0zm6 79l64-41-64 0 194-299 64 41-194 299-64 0zm0 0l64 0-32 49-32-49zm-162-320l32-21 194 299-64 41-194-299 32-21zm156 240l76 0 0 2 0 2 0 2 0 2 0 2-1 2-1 2-1 2-1 2-1 2-1 2-1 2-1 1-1 1-1 1-1 1-1 1-1 1-1 1-1 1-2 1-2 1-2 1-2 1-2 1-2 1-2 1-2 0-2 0-2 0-2 0-2 0-2 0-2 0-2 0-2 0-2 0-2-1-2-1-2-1-2-1-2-1-2-1-2-1-1-1-1-1-1-1-1-1-1-1-1-1-1-1-1-1-1-2-1-2-1-2-1-2-1-2-1-2-1-2 0-2 0-2 0-2 0-2 0-2z"/>
		</g>
	</g>
</svg>
