<?xml version="1.0" encoding="UTF-8"?>
<svg xmlns="http://www.w3.org/2000/svg" xmlns:xlink="http://www.w3.org/1999/xlink" xml:space="preserve" height="520px" viewBox="0 0 21370 22980" version="1.1" baseProfile="full" style="clip-rule:evenodd;fill-rule:evenodd;image-rendering:optimizeQuality;shape-rendering:geometricPrecision;text-rendering:optimizeLegibility">
	<defs>
		<style type="text/css"><![CDATA[
			.str2 {stroke:black;stroke-width:19.5921}
			.str1 {stroke:black;stroke-width:24.4901}
			.str0 {stroke:black;stroke-width:48.9802}
			.str3 {stroke:white;stroke-width:107.756;stroke-linecap:round;stroke-linejoin:round}
			.str4 {stroke:black;stroke-width:195.921;stroke-linecap:round;stroke-linejoin:round}
			.str5 {stroke:black;stroke-width:97.9603;stroke-linecap:round;stroke-linejoin:round;stroke-dasharray:97.960326 293.880977}
			.fil1 {fill:none}
			.fil2 {fill:black}
			.fil4 {fill:#E49226}
			.fil3 {fill:white}
			.fil0 {fill:black;fill-rule:nonzero}
		]]></style>
	</defs>
	<g>
		<g>
			<image transform="matrix(1 0 0 1 -10556.9 -5409.7)" x="10908" y="5410" width="8966" height="7017" xlink:href="linux_tcp-ip_performance_on_long fat-pipe.png"/>
		</g>
		<g>
			<g>
				<polygon class="fil0" points="13984 1020 13827 1267 13786 1267 13744 1020 13786 1020 13817 1217 13939 1020 "/>
				<polygon class="fil0" points="14149 922 14061 1046 14029 1046 14094 922 "/>
				<path class="fil0" d="M14579 1094l-262 0 0-35 262 0 0 35zm0 93l-262 0 0-35 262 0 0 35z"/>
				<polygon class="fil0" points="14916 922 14836 1267 14795 1267 14874 922 "/>
				<polygon class="fil0" points="15399 1140 15279 1140 15279 1261 15242 1261 15242 1140 15122 1140 15122 1105 15242 1105 15242 984 15279 984 15279 1105 15399 1105 "/>
				<polygon class="fil0" points="15729 922 15649 1267 15608 1267 15687 922 "/>
				<polygon class="fil0" points="16332 981 16293 981 16293 551 16332 551 "/>
				<polygon class="fil0" points="16891 648 16734 895 16693 895 16651 648 16693 648 16724 845 16846 648 "/>
				<polygon class="fil0" points="17372 769 17251 769 17251 889 17215 889 17215 769 17094 769 17094 733 17215 733 17215 613 17251 613 17251 733 17372 733 "/>
				<polygon class="fil0" points="18866 551 18787 895 18745 895 18825 551 "/>
				<path class="fil0" d="M16579 986l-51 0c-26-30-46-63-61-98-14-35-22-75-22-120 0-44 7-84 22-120 14-35 35-68 61-98l51 0 0 2c-12 11-23 23-34 37-11 14-21 30-30 49-9 18-16 38-22 60-6 22-8 45-8 69 0 25 3 48 8 69 5 21 13 41 22 60 9 18 19 35 30 49 11 15 23 27 34 37l0 2z"/>
				<path class="fil0" d="M17807 895l-178 0 0-34 68 0 0-221-68 0 0-30c9 0 19-1 30-2 11-2 19-4 24-7 7-4 12-8 16-14 4-6 6-13 7-23l34 0 0 297 67 0 0 34z"/>
				<path class="fil0" d="M18021 768c0 44-7 84-22 120-14 35-35 68-61 98l-51 0 0-2c11-10 23-23 34-37 11-15 21-31 30-49 9-19 16-39 22-60 5-21 8-44 8-69 0-24-3-47-8-69-5-22-13-42-22-60-9-19-19-35-30-49-11-14-22-26-34-37l0-2 51 0c26 30 46 63 61 98 14 35 22 75 22 120z"/>
				<polygon class="fil0" points="18472 770 18334 770 18334 731 18472 731 "/>
				<polygon class="fil0" points="18979 981 18941 981 18941 551 18979 551 "/>
				<path class="fil0" d="M16577 1664l-51 0c-26-30-46-63-61-98-14-35-22-75-22-120 0-44 7-84 22-120 14-35 35-68 61-98l51 0 0 2c-12 11-23 23-34 37-11 14-21 30-30 49-9 18-16 38-22 60-6 22-8 45-8 69 0 25 3 48 8 69 5 21 13 41 22 60 9 18 19 35 30 49 11 15 23 27 34 37l0 2z"/>
				<path class="fil0" d="M17805 1573l-178 0 0-34 68 0 0-221-68 0 0-30c9 0 19-1 30-2 11-2 19-4 24-7 7-4 12-8 16-14 4-6 6-13 7-23l34 0 0 297 67 0 0 34z"/>
				<path class="fil0" d="M18019 1447c0 44-7 84-22 120-14 35-35 68-61 98l-51 0 0-2c11-10 23-23 34-37 11-15 21-31 30-49 9-19 16-39 22-60 5-21 8-44 8-69 0-24-3-47-8-69-5-22-13-42-22-60-9-19-19-35-30-49-11-14-22-26-34-37l0-2 51 0c26 30 46 63 61 98 14 35 22 75 22 120z"/>
				<polygon class="fil0" points="18542 1447 18422 1447 18422 1567 18385 1567 18385 1447 18265 1447 18265 1412 18385 1412 18385 1291 18422 1291 18422 1412 18542 1412 "/>
				<polygon class="fil0" points="16889 1327 16732 1573 16691 1573 16649 1327 16691 1327 16722 1524 16844 1327 "/>
				<polygon class="fil0" points="17370 1447 17249 1447 17249 1567 17213 1567 17213 1447 17092 1447 17092 1412 17213 1412 17213 1291 17249 1291 17249 1412 17370 1412 "/>
				<polygon class="fil0" points="18881 1229 18802 1573 18761 1573 18840 1229 "/>
				<line class="fil1 str0" x1="16174" y1="1108" x2="19043" y2="1108"/>
				<circle class="fil2" cx="15950" cy="1108" r="49"/>
			</g>
			<g>
				<path class="fil0" d="M11718 3712l-2 0c-6-1-11-2-16-3-5-1-11-1-18-1-14 0-28 3-41 9-14 6-27 14-39 23l-40 175-42 0 56-247 42 0-8 36c20-14 36-23 50-28 14-5 27-8 39-8 7 0 13 0 16 1 3 0 8 1 14 2l-10 41z"/>
				<path class="fil0" d="M11912 3765c1-4 1-8 2-11 0-3 0-6 0-10 0-16-4-28-13-37-9-9-23-13-42-13-21 0-40 6-56 19-16 13-27 30-33 51l142 0zm-84 156c-34 0-61-8-81-24-19-16-29-40-29-70 0-45 14-84 43-116 29-32 64-49 106-49 28 0 49 7 64 21 15 14 22 34 22 59 0 4-1 11-2 21-1 10-3 21-6 33l-182 0c-1 4-2 8-2 13 0 4-1 8-1 11 0 21 6 37 19 49 13 12 31 18 54 18 16 0 33-3 50-9 17-6 32-13 43-21l2 0-9 45c-7 3-14 5-20 7-6 2-13 4-23 7-9 2-17 4-24 5-7 1-16 2-27 2z"/>
				<path class="fil0" d="M12058 3921c-18 0-35-2-49-7-14-5-27-10-36-15l9-44 2 0c3 3 7 6 12 10 5 4 11 7 19 11 7 3 15 6 24 9 9 2 18 4 29 4 21 0 37-4 49-12 12-8 18-19 18-34 0-8-3-14-9-18-6-4-15-8-26-10-6-1-13-3-21-4-8-2-16-4-25-6-17-5-30-12-38-21-8-9-12-20-12-34 0-11 2-22 8-32 5-10 12-19 22-28 9-8 21-14 36-19 15-5 31-7 49-7 15 0 29 2 44 6 15 4 27 8 36 14l-9 42-2 0c-2-2-6-5-11-8-5-3-11-7-18-10-6-3-14-5-22-7-8-2-17-3-26-3-18 0-33 4-45 12-12 8-17 19-17 32 0 7 3 14 8 18 6 5 14 9 26 12 7 2 15 3 23 5 8 2 16 3 23 5 17 4 30 11 39 20 9 9 13 20 13 34 0 11-3 22-8 33-5 11-13 20-23 28-10 8-23 15-38 20-15 5-32 7-50 7z"/>
				<path class="fil0" d="M12478 3668l-57 247-42 0 6-27c-16 11-30 19-44 25-14 6-28 9-43 9-21 0-38-5-50-16-12-11-18-26-18-47 0-5 0-10 1-15 1-5 2-10 3-16l37-160 42 0-32 140c-1 6-3 12-4 20-1 7-2 13-2 17 0 13 3 22 10 28 6 6 17 10 33 10 11 0 23-3 37-10 14-6 27-14 39-22l42-184 41 0z"/>
				<polygon class="fil0" points="12625 3571 12545 3915 12504 3915 12583 3571 "/>
				<path class="fil0" d="M12813 3668l-8 33-86 0-26 114c-2 6-3 12-4 20-1 7-2 13-2 18 0 11 3 19 8 24 5 5 15 8 30 8 6 0 13-1 22-3 8-2 14-4 17-5l2 0-8 36c-8 2-17 4-26 5-9 1-18 2-25 2-20 0-36-4-47-13-11-9-17-23-17-42 0-5 0-9 1-14 1-5 2-10 3-16l31-133-28 0 8-33 28 0 16-71 41 0-16 71 86 0z"/>
				<path class="fil0" d="M13279 3742l-262 0 0-35 262 0 0 35zm0 93l-262 0 0-35 262 0 0 35z"/>
				<polygon class="fil0" points="13616 3571 13536 3915 13495 3915 13575 3571 "/>
				<path class="fil0" d="M13741 3584l-10 43-47 0 10-43 47 0zm-23 84l-57 247-41 0 57-247 41 0z"/>
				<path class="fil0" d="M14145 3723c0 5 0 10-1 15-1 5-2 11-3 17l-37 160-41 0 32-140c2-8 3-15 4-22 1-7 2-13 2-19 0-11-3-20-8-26-6-6-16-9-32-9-12 0-24 3-37 10-13 6-26 14-39 23 0 4-1 8-1 13-1 5-1 9-2 13l-36 158-41 0 32-140c2-9 3-17 5-22 1-6 2-12 2-18 0-13-4-23-11-27-7-5-17-7-30-7-9 0-19 2-30 7-11 5-25 13-44 25l-43 184-41 0 57-247 41 0-6 27c15-11 30-19 43-25 13-6 27-9 42-9 17 0 30 4 41 11 10 7 17 17 21 29 19-14 37-24 52-31 15-6 31-9 46-9 22 0 38 5 49 16 11 11 16 26 16 45z"/>
				<path class="fil0" d="M14305 3584l-10 43-47 0 10-43 47 0zm-23 84l-57 247-41 0 57-247 41 0z"/>
				<path class="fil0" d="M14493 3668l-8 33-86 0-26 114c-2 6-3 12-4 20-1 7-2 13-2 18 0 11 3 19 8 24 5 5 15 8 30 8 6 0 13-1 22-3 8-2 14-4 17-5l2 0-8 36c-8 2-17 4-26 5-9 1-18 2-25 2-20 0-36-4-47-13-11-9-17-23-17-42 0-5 0-9 1-14 1-5 2-10 3-16l31-133-28 0 8-33 28 0 16-71 41 0-16 71 86 0z"/>
				<polygon class="fil0" points="14967 3789 14846 3789 14846 3909 14810 3909 14810 3789 14689 3789 14689 3754 14810 3754 14810 3633 14846 3633 14846 3754 14967 3754 "/>
				<polygon class="fil0" points="15296 3571 15217 3915 15175 3915 15255 3571 "/>
				<path class="fil0" d="M15421 3584l-10 43-47 0 10-43 47 0zm-23 84l-57 247-41 0 57-247 41 0z"/>
				<path class="fil0" d="M15825 3723c0 5 0 10-1 15-1 5-2 11-3 17l-37 160-41 0 32-140c2-8 3-15 4-22 1-7 2-13 2-19 0-11-3-20-8-26-6-6-16-9-32-9-12 0-24 3-37 10-13 6-26 14-39 23 0 4-1 8-1 13-1 5-1 9-2 13l-36 158-41 0 32-140c2-9 3-17 5-22 1-6 2-12 2-18 0-13-4-23-11-27-7-5-17-7-30-7-9 0-19 2-30 7-11 5-25 13-44 25l-43 184-41 0 57-247 41 0-6 27c15-11 30-19 43-25 13-6 27-9 42-9 17 0 30 4 41 11 10 7 17 17 21 29 19-14 37-24 52-31 15-6 31-9 46-9 22 0 38 5 49 16 11 11 16 26 16 45z"/>
				<path class="fil0" d="M15986 3584l-10 43-47 0 10-43 47 0zm-23 84l-57 247-41 0 57-247 41 0z"/>
				<path class="fil0" d="M16174 3668l-8 33-86 0-26 114c-2 6-3 12-4 20-1 7-2 13-2 18 0 11 3 19 8 24 5 5 15 8 30 8 6 0 13-1 22-3 8-2 14-4 17-5l2 0-8 36c-8 2-17 4-26 5-9 1-18 2-25 2-20 0-36-4-47-13-11-9-17-23-17-42 0-5 0-9 1-14 1-5 2-10 3-16l31-133-28 0 8-33 28 0 16-71 41 0-16 71 86 0z"/>
				<polygon class="fil0" points="16724 3630 16685 3630 16685 3199 16724 3199 "/>
				<path class="fil0" d="M17093 3549c-18 0-35-2-49-7-14-5-27-10-36-15l9-44 2 0c3 3 7 6 12 10 5 4 11 7 19 11 7 3 15 6 24 9 9 2 18 4 29 4 21 0 37-4 49-12 12-8 18-19 18-34 0-8-3-14-9-18-6-4-15-8-26-10-6-1-13-3-21-4-8-2-16-4-25-6-17-5-30-12-38-21-8-9-12-20-12-34 0-11 2-22 8-32 5-10 12-19 22-28 9-8 21-14 36-19 15-5 31-7 49-7 15 0 29 2 44 6 15 4 27 8 36 14l-9 42-2 0c-2-2-6-5-11-8-5-3-11-7-18-10-6-3-14-5-22-7-8-2-17-3-26-3-18 0-33 4-45 12-12 8-17 19-17 32 0 7 3 14 8 18 6 5 14 9 26 12 7 2 15 3 23 5 8 2 16 3 23 5 17 4 30 11 39 20 9 9 13 20 13 34 0 11-3 22-8 33-5 11-13 20-23 28-10 8-23 15-38 20-15 5-32 7-50 7z"/>
				<path class="fil0" d="M17502 3375c0 24-4 47-11 69-8 22-18 40-30 55-13 15-27 28-44 37-17 9-35 13-54 13-13 0-25-2-37-5-11-3-21-7-30-13l-24 104-41 0 78-338 42 0-6 26c14-10 27-17 40-24 13-6 28-9 44-9 24 0 42 7 55 22 13 15 19 36 19 62zm-43 8c0-18-4-31-12-41-8-10-20-14-37-14-12 0-25 3-38 9-13 6-25 13-37 21l-32 140c10 5 19 9 27 11 9 2 19 4 32 4 15 0 29-4 41-11 12-7 22-17 30-29 8-12 15-26 19-41 4-15 6-31 6-49z"/>
				<path class="fil0" d="M17734 3394c1-4 1-8 2-11 0-3 0-6 0-10 0-16-4-28-13-37-9-9-23-13-42-13-21 0-40 6-56 19-16 13-27 30-33 51l142 0zm-84 156c-34 0-61-8-81-24-19-16-29-40-29-70 0-45 14-84 43-116 29-32 64-49 106-49 28 0 49 7 64 21 15 14 22 34 22 59 0 4-1 11-2 21-1 10-3 21-6 33l-182 0c-1 4-2 8-2 13 0 4-1 8-1 11 0 21 6 37 19 49 13 12 31 18 54 18 16 0 33-3 50-9 17-6 32-13 43-21l2 0-9 45c-7 3-14 5-20 7-6 2-13 4-23 7-9 2-17 4-24 5-7 1-16 2-27 2z"/>
				<path class="fil0" d="M18004 3394c1-4 1-8 2-11 0-3 0-6 0-10 0-16-4-28-13-37-9-9-23-13-42-13-21 0-40 6-56 19-16 13-27 30-33 51l142 0zm-84 156c-34 0-61-8-81-24-19-16-29-40-29-70 0-45 14-84 43-116 29-32 64-49 106-49 28 0 49 7 64 21 15 14 22 34 22 59 0 4-1 11-2 21-1 10-3 21-6 33l-182 0c-1 4-2 8-2 13 0 4-1 8-1 11 0 21 6 37 19 49 13 12 31 18 54 18 16 0 33-3 50-9 17-6 32-13 43-21l2 0-9 45c-7 3-14 5-20 7-6 2-13 4-23 7-9 2-17 4-24 5-7 1-16 2-27 2z"/>
				<path class="fil0" d="M18353 3199l-80 344-42 0 6-26c-19 13-34 22-45 26-11 4-24 7-37 7-23 0-42-7-55-22-14-15-20-36-20-64 0-24 4-46 11-67 7-21 17-40 30-56 13-16 27-28 44-37 17-9 35-14 54-14 13 0 25 1 36 4 11 3 21 7 31 13l25-107 42 0zm-74 141c-10-5-20-9-29-11-10-2-20-4-30-4-15 0-29 4-41 11-12 7-22 17-31 30-8 12-14 26-18 42-4 16-6 32-6 48 0 18 4 32 12 41 8 10 20 14 38 14 12 0 25-3 38-9 13-6 25-13 36-20l33-142z"/>
				<polygon class="fil0" points="18835 3417 18715 3417 18715 3538 18678 3538 18678 3417 18558 3417 18558 3382 18678 3382 18678 3261 18715 3261 18715 3382 18835 3382 "/>
				<polygon class="fil0" points="20330 3199 20250 3544 20209 3544 20288 3199 "/>
				<path class="fil0" d="M20454 3213l-10 43-47 0 10-43 47 0zm-23 84l-57 247-41 0 57-247 41 0z"/>
				<path class="fil0" d="M20858 3351c0 5 0 10-1 15-1 5-2 11-3 17l-37 160-41 0 32-140c2-8 3-15 4-22 1-7 2-13 2-19 0-11-3-20-8-26-6-6-16-9-32-9-12 0-24 3-37 10-13 6-26 14-39 23 0 4-1 8-1 13-1 5-1 9-2 13l-36 158-41 0 32-140c2-9 3-17 5-22 1-6 2-12 2-18 0-13-4-23-11-27-7-5-17-7-30-7-9 0-19 2-30 7-11 5-25 13-44 25l-43 184-41 0 57-247 41 0-6 27c15-11 30-19 43-25 13-6 27-9 42-9 17 0 30 4 41 11 10 7 17 17 21 29 19-14 37-24 52-31 15-6 31-9 46-9 22 0 38 5 49 16 11 11 16 26 16 45z"/>
				<path class="fil0" d="M21019 3213l-10 43-47 0 10-43 47 0zm-23 84l-57 247-41 0 57-247 41 0z"/>
				<path class="fil0" d="M21207 3297l-8 33-86 0-26 114c-2 6-3 12-4 20-1 7-2 13-2 18 0 11 3 19 8 24 5 5 15 8 30 8 6 0 13-1 22-3 8-2 14-4 17-5l2 0-8 36c-8 2-17 4-26 5-9 1-18 2-25 2-20 0-36-4-47-13-11-9-17-23-17-42 0-5 0-9 1-14 1-5 2-10 3-16l31-133-28 0 8-33 28 0 16-71 41 0-16 71 86 0z"/>
				<path class="fil0" d="M16971 3635l-51 0c-26-30-46-63-61-98-14-35-22-75-22-120 0-44 7-84 22-120 14-35 35-68 61-98l51 0 0 2c-12 11-23 23-34 37-11 14-21 30-30 49-9 18-16 38-22 60-6 22-8 45-8 69 0 25 3 48 8 69 5 21 13 41 22 60 9 18 19 35 30 49 11 15 23 27 34 37l0 2z"/>
				<path class="fil0" d="M19271 3544l-178 0 0-34 68 0 0-221-68 0 0-30c9 0 19-1 30-2 11-2 19-4 24-7 7-4 12-8 16-14 4-6 6-13 7-23l34 0 0 297 67 0 0 34z"/>
				<path class="fil0" d="M19485 3417c0 44-7 84-22 120-14 35-35 68-61 98l-51 0 0-2c11-10 23-23 34-37 11-15 21-31 30-49 9-19 16-39 22-60 5-21 8-44 8-69 0-24-3-47-8-69-5-22-13-42-22-60-9-19-19-35-30-49-11-14-22-26-34-37l0-2 51 0c26 30 46 63 61 98 14 35 22 75 22 120z"/>
				<polygon class="fil0" points="19935 3419 19797 3419 19797 3380 19935 3380 "/>
				<polygon class="fil0" points="21310 3630 21272 3630 21272 3199 21310 3199 "/>
				<path class="fil0" d="M16962 4313l-51 0c-26-30-46-63-61-98-14-35-22-75-22-120 0-44 7-84 22-120 14-35 35-68 61-98l51 0 0 2c-12 11-23 23-34 37-11 14-21 30-30 49-9 18-16 38-22 60-6 22-8 45-8 69 0 25 3 48 8 69 5 21 13 41 22 60 9 18 19 35 30 49 11 15 23 27 34 37l0 2z"/>
				<path class="fil0" d="M19262 4222l-178 0 0-34 68 0 0-221-68 0 0-30c9 0 19-1 30-2 11-2 19-4 24-7 7-4 12-8 16-14 4-6 6-13 7-23l34 0 0 297 67 0 0 34z"/>
				<path class="fil0" d="M19476 4095c0 44-7 84-22 120-14 35-35 68-61 98l-51 0 0-2c11-10 23-23 34-37 11-15 21-31 30-49 9-19 16-39 22-60 5-21 8-44 8-69 0-24-3-47-8-69-5-22-13-42-22-60-9-19-19-35-30-49-11-14-22-26-34-37l0-2 51 0c26 30 46 63 61 98 14 35 22 75 22 120z"/>
				<polygon class="fil0" points="19999 4096 19879 4096 19879 4216 19842 4216 19842 4096 19722 4096 19722 4060 19842 4060 19842 3940 19879 3940 19879 4060 19999 4060 "/>
				<path class="fil0" d="M17084 4228c-18 0-35-2-49-7-14-5-27-10-36-15l9-44 2 0c3 3 7 6 12 10 5 4 11 7 19 11 7 3 15 6 24 9 9 2 18 4 29 4 21 0 37-4 49-12 12-8 18-19 18-34 0-8-3-14-9-18-6-4-15-8-26-10-6-1-13-3-21-4-8-2-16-4-25-6-17-5-30-12-38-21-8-9-12-20-12-34 0-11 2-22 8-32 5-10 12-19 22-28 9-8 21-14 36-19 15-5 31-7 49-7 15 0 29 2 44 6 15 4 27 8 36 14l-9 42-2 0c-2-2-6-5-11-8-5-3-11-7-18-10-6-3-14-5-22-7-8-2-17-3-26-3-18 0-33 4-45 12-12 8-17 19-17 32 0 7 3 14 8 18 6 5 14 9 26 12 7 2 15 3 23 5 8 2 16 3 23 5 17 4 30 11 39 20 9 9 13 20 13 34 0 11-3 22-8 33-5 11-13 20-23 28-10 8-23 15-38 20-15 5-32 7-50 7z"/>
				<path class="fil0" d="M17493 4053c0 24-4 47-11 69-8 22-18 40-30 55-13 15-27 28-44 37-17 9-35 13-54 13-13 0-25-2-37-5-11-3-21-7-30-13l-24 104-41 0 78-338 42 0-6 26c14-10 27-17 40-24 13-6 28-9 44-9 24 0 42 7 55 22 13 15 19 36 19 62zm-43 8c0-18-4-31-12-41-8-10-20-14-37-14-12 0-25 3-38 9-13 6-25 13-37 21l-32 140c10 5 19 9 27 11 9 2 19 4 32 4 15 0 29-4 41-11 12-7 22-17 30-29 8-12 15-26 19-41 4-15 6-31 6-49z"/>
				<path class="fil0" d="M17725 4072c1-4 1-8 2-11 0-3 0-6 0-10 0-16-4-28-13-37-9-9-23-13-42-13-21 0-40 6-56 19-16 13-27 30-33 51l142 0zm-84 156c-34 0-61-8-81-24-19-16-29-40-29-70 0-45 14-84 43-116 29-32 64-49 106-49 28 0 49 7 64 21 15 14 22 34 22 59 0 4-1 11-2 21-1 10-3 21-6 33l-182 0c-1 4-2 8-2 13 0 4-1 8-1 11 0 21 6 37 19 49 13 12 31 18 54 18 16 0 33-3 50-9 17-6 32-13 43-21l2 0-9 45c-7 3-14 5-20 7-6 2-13 4-23 7-9 2-17 4-24 5-7 1-16 2-27 2z"/>
				<path class="fil0" d="M17995 4072c1-4 1-8 2-11 0-3 0-6 0-10 0-16-4-28-13-37-9-9-23-13-42-13-21 0-40 6-56 19-16 13-27 30-33 51l142 0zm-84 156c-34 0-61-8-81-24-19-16-29-40-29-70 0-45 14-84 43-116 29-32 64-49 106-49 28 0 49 7 64 21 15 14 22 34 22 59 0 4-1 11-2 21-1 10-3 21-6 33l-182 0c-1 4-2 8-2 13 0 4-1 8-1 11 0 21 6 37 19 49 13 12 31 18 54 18 16 0 33-3 50-9 17-6 32-13 43-21l2 0-9 45c-7 3-14 5-20 7-6 2-13 4-23 7-9 2-17 4-24 5-7 1-16 2-27 2z"/>
				<path class="fil0" d="M18344 3878l-80 344-42 0 6-26c-19 13-34 22-45 26-11 4-24 7-37 7-23 0-42-7-55-22-14-15-20-36-20-64 0-24 4-46 11-67 7-21 17-40 30-56 13-16 27-28 44-37 17-9 35-14 54-14 13 0 25 1 36 4 11 3 21 7 31 13l25-107 42 0zm-74 141c-10-5-20-9-29-11-10-2-20-4-30-4-15 0-29 4-41 11-12 7-22 17-31 30-8 12-14 26-18 42-4 16-6 32-6 48 0 18 4 32 12 41 8 10 20 14 38 14 12 0 25-3 38-9 13-6 25-13 36-20l33-142z"/>
				<polygon class="fil0" points="18826 4096 18706 4096 18706 4216 18669 4216 18669 4096 18549 4096 18549 4060 18669 4060 18669 3940 18706 3940 18706 4060 18826 4060 "/>
				<polygon class="fil0" points="20338 3878 20259 4222 20217 4222 20297 3878 "/>
				<path class="fil0" d="M20463 3891l-10 43-47 0 10-43 47 0zm-23 84l-57 247-41 0 57-247 41 0z"/>
				<path class="fil0" d="M20867 4030c0 5 0 10-1 15-1 5-2 11-3 17l-37 160-41 0 32-140c2-8 3-15 4-22 1-7 2-13 2-19 0-11-3-20-8-26-6-6-16-9-32-9-12 0-24 3-37 10-13 6-26 14-39 23 0 4-1 8-1 13-1 5-1 9-2 13l-36 158-41 0 32-140c2-9 3-17 5-22 1-6 2-12 2-18 0-13-4-23-11-27-7-5-17-7-30-7-9 0-19 2-30 7-11 5-25 13-44 25l-43 184-41 0 57-247 41 0-6 27c15-11 30-19 43-25 13-6 27-9 42-9 17 0 30 4 41 11 10 7 17 17 21 29 19-14 37-24 52-31 15-6 31-9 46-9 22 0 38 5 49 16 11 11 16 26 16 45z"/>
				<path class="fil0" d="M21027 3891l-10 43-47 0 10-43 47 0zm-23 84l-57 247-41 0 57-247 41 0z"/>
				<path class="fil0" d="M21216 3975l-8 33-86 0-26 114c-2 6-3 12-4 20-1 7-2 13-2 18 0 11 3 19 8 24 5 5 15 8 30 8 6 0 13-1 22-3 8-2 14-4 17-5l2 0-8 36c-8 2-17 4-26 5-9 1-18 2-25 2-20 0-36-4-47-13-11-9-17-23-17-42 0-5 0-9 1-14 1-5 2-10 3-16l31-133-28 0 8-33 28 0 16-71 41 0-16 71 86 0z"/>
				<line class="fil1 str0" x1="16566" y1="3756" x2="21370" y2="3756"/>
				<circle class="fil2" cx="16341" cy="3756" r="49"/>
			</g>
			<path class="fil0" d="M16415 2136l-227 556-68 0-227-556 60 0c7 0 12 2 16 5 4 3 7 8 9 13l157 392c3 9 7 18 10 29 3 10 6 21 9 33 3-11 5-22 8-33 3-10 6-20 9-29l156-392c2-4 5-9 9-12 5-4 10-6 16-6l60 0z"/>
			<path class="fil0" d="M16761 2223c-2 4-5 7-8 9-3 2-6 3-10 3-4 0-10-2-16-7-6-4-13-9-22-15-9-5-20-10-32-14-13-4-28-7-46-7-17 0-32 2-44 7-13 5-24 11-32 19-9 8-15 17-20 27-4 10-7 22-7 34 0 16 4 28 12 39 8 10 18 19 30 26 13 7 27 13 43 19 16 5 32 11 49 17 17 6 33 12 49 19 16 7 30 16 43 27 13 11 23 24 30 40 8 16 11 35 11 58 0 24-4 47-12 68-8 21-20 40-36 56-16 16-35 28-59 37-23 9-50 14-79 14-36 0-69-7-99-20-29-13-55-31-76-53l22-36c2-3 5-5 8-7 3-2 6-3 10-3 3 0 7 1 12 4 4 3 9 6 14 10 5 4 12 9 19 14 7 5 15 9 24 14 9 4 19 8 30 10 11 3 24 4 38 4 18 0 34-2 48-7 14-5 26-12 36-21 10-9 17-20 22-32 5-12 8-26 8-42 0-17-4-31-11-41-8-11-18-20-30-27-12-7-27-13-43-18-16-5-32-10-49-16-17-5-33-11-49-18-16-7-30-16-43-27-12-11-22-25-30-42-8-17-12-37-12-62 0-20 4-39 12-57 8-18 19-35 33-49 15-14 33-26 54-34 21-9 46-13 73-13 31 0 59 5 85 15 25 10 48 24 67 43l-18 36z"/>
		</g>
		<g>
			<polygon class="fil3 str1" points="11601 7087 12276 6742 12812 7332 13589 6949 14160 7225 15058 6842 16060 7332 16890 6949 17408 7332 18203 6842 19084 7243 19585 6842 20069 7243 20760 6842 21244 7087 21244 22673 20801 22592 20302 22949 19372 22571 18626 22918 17718 22580 16743 22967 15847 22566 14859 22918 14099 22535 13166 22918 12593 22608 12043 22918 11601 22673 "/>
			<g>
				<g>
					<rect class="fil4" x="15925" y="12505" width="377" height="479" rx="162" ry="162"/>
					<rect class="fil4" x="15925" y="11784" width="377" height="479" rx="162" ry="162"/>
					<g>
						<polygon class="fil0" points="13161 12295 12993 12559 12949 12559 12904 12295 12949 12295 12982 12506 13112 12295 "/>
						<polygon class="fil0" points="13337 12191 13242 12323 13209 12323 13278 12191 "/>
						<path class="fil0" d="M13796 12374l-280 0 0-38 280 0 0 38zm0 99l-280 0 0-38 280 0 0 38z"/>
						<polygon class="fil0" points="14156 12191 14071 12559 14027 12559 14112 12191 "/>
						<polygon class="fil0" points="14673 12424 14544 12424 14544 12552 14505 12552 14505 12424 14376 12424 14376 12386 14505 12386 14505 12257 14544 12257 14544 12386 14673 12386 "/>
						<polygon class="fil0" points="15025 12191 14940 12559 14896 12559 14981 12191 "/>
						<polygon class="fil0" points="15669 12254 15628 12254 15628 11794 15669 11794 "/>
						<polygon class="fil0" points="16267 11898 16099 12162 16055 12162 16010 11898 16055 11898 16088 12108 16218 11898 "/>
						<polygon class="fil0" points="16780 12027 16652 12027 16652 12155 16613 12155 16613 12027 16484 12027 16484 11989 16613 11989 16613 11860 16652 11860 16652 11989 16780 11989 "/>
						<polygon class="fil0" points="18378 11794 18293 12162 18248 12162 18333 11794 "/>
						<path class="fil0" d="M15933 12259l-54 0c-28-32-50-67-65-105-15-38-23-80-23-128 0-47 8-90 23-128 15-38 37-73 65-105l54 0 0 2c-13 12-25 25-36 40-12 15-22 33-32 53-9 19-17 41-23 64-6 23-9 48-9 74 0 27 3 52 9 74 6 22 13 44 23 64 9 19 20 37 32 53 12 16 24 29 36 40l0 2z"/>
						<path class="fil0" d="M17246 12162l-190 0 0-36 73 0 0-236-73 0 0-32c10 0 20-1 32-2 11-2 20-4 26-7 7-4 13-9 17-15 4-6 7-14 7-25l37 0 0 317 72 0 0 36z"/>
						<path class="fil0" d="M17474 12026c0 47-8 90-23 128-15 38-37 73-65 105l-54 0 0-2c12-11 24-24 36-40 12-16 23-33 32-53 10-20 17-41 23-64 6-22 9-47 9-74 0-26-3-50-9-74-6-23-13-45-23-64-10-20-21-37-32-53-11-15-24-28-36-40l0-2 54 0c28 32 50 67 65 105 15 38 23 80 23 128z"/>
						<polygon class="fil0" points="17956 12029 17808 12029 17808 11986 17956 11986 "/>
						<polygon class="fil0" points="18498 12254 18457 12254 18457 11794 18498 11794 "/>
						<path class="fil0" d="M15931 12984l-54 0c-28-32-50-67-65-105-15-38-23-80-23-128 0-47 8-90 23-128 15-38 37-73 65-105l54 0 0 2c-13 12-25 25-36 40-12 15-22 33-32 53-9 19-17 41-23 64-6 23-9 48-9 74 0 27 3 52 9 74 6 22 13 44 23 64 9 19 20 37 32 53 12 16 24 29 36 40l0 2z"/>
						<path class="fil0" d="M17244 12887l-190 0 0-36 73 0 0-236-73 0 0-32c10 0 20-1 32-2 11-2 20-4 26-7 7-4 13-9 17-15 4-6 7-14 7-25l37 0 0 317 72 0 0 36z"/>
						<path class="fil0" d="M17472 12751c0 47-8 90-23 128-15 38-37 73-65 105l-54 0 0-2c12-11 24-24 36-40 12-16 23-33 32-53 10-20 17-41 23-64 6-22 9-47 9-74 0-26-3-50-9-74-6-23-13-45-23-64-10-20-21-37-32-53-11-15-24-28-36-40l0-2 54 0c28 32 50 67 65 105 15 38 23 80 23 128z"/>
						<polygon class="fil0" points="18031 12752 17903 12752 17903 12880 17864 12880 17864 12752 17735 12752 17735 12714 17864 12714 17864 12585 17903 12585 17903 12714 18031 12714 "/>
						<polygon class="fil0" points="16265 12623 16097 12887 16053 12887 16008 12623 16053 12623 16086 12833 16216 12623 "/>
						<polygon class="fil0" points="16778 12752 16650 12752 16650 12880 16610 12880 16610 12752 16482 12752 16482 12714 16610 12714 16610 12585 16650 12585 16650 12714 16778 12714 "/>
						<polygon class="fil0" points="18394 12519 18309 12887 18265 12887 18350 12519 "/>
						<line class="fil1 str0" x1="15500" y1="12389" x2="18566" y2="12389"/>
						<circle class="fil2" cx="15261" cy="12389" r="52"/>
					</g>
					<g>
						<polygon class="fil2 str2" points="16494 11574 16357 11437 16234 11755 "/>
						<path class="fil3 str2" d="M16554 11051l2150 0c108 0 196 88 196 196l0 135c0 108-88 197-196 196l-2196-5c-108 0-150-36-150-144l0-183c0-108 88-196 196-196z"/>
						<path class="fil0" d="M16807 11398c0 17-7 31-21 42-14 11-34 17-58 17-14 0-27-2-38-5-12-3-21-7-29-11l0-36 2 0c10 8 21 14 33 18 12 4 24 7 35 7 14 0 25-2 33-7 8-4 12-12 12-21 0-7-2-13-6-17-4-4-12-7-25-10-4-1-10-2-18-4-7-1-14-3-20-4-16-4-28-11-35-19-7-8-10-19-10-31 0-8 2-15 5-22 3-7 8-13 15-18 6-5 14-9 24-13 10-3 21-5 33-5 11 0 23 1 34 4 12 3 21 6 29 10l0 34-2 0c-8-6-18-11-29-15-12-4-23-6-34-6-12 0-21 2-29 7-8 4-12 11-12 20 0 8 2 14 7 18 5 4 12 7 23 10 6 1 12 3 20 4 7 1 13 3 18 4 15 3 26 9 34 17 8 8 12 19 12 33z"/>
						<path class="fil0" d="M17019 11356c0 15-2 29-7 42-4 13-11 23-19 32-7 8-16 15-26 19-10 5-21 7-32 7-10 0-19-1-27-3-8-2-16-5-24-10l0 79-32 0 0-258 32 0 0 20c8-7 18-13 29-18 11-5 22-7 34-7 23 0 41 9 53 26 13 17 19 41 19 71zm-33 1c0-23-4-40-12-51-8-11-20-17-36-17-9 0-18 2-28 6-9 4-18 9-27 16l0 107c9 4 17 7 23 8 6 1 14 2 22 2 18 0 32-6 41-18 10-12 15-30 15-53z"/>
						<path class="fil0" d="M17226 11361l-139 0c0 12 2 22 5 30 3 9 8 16 14 21 6 5 13 9 21 12 8 3 17 4 27 4 13 0 26-3 39-8 13-5 22-10 28-15l2 0 0 35c-11 4-22 8-33 11-11 3-23 5-35 5-31 0-56-8-73-25-18-17-26-41-26-72 0-31 8-55 25-73 17-18 39-27 66-27 25 0 45 7 59 22 14 15 21 36 21 63l0 17zm-31-24c0-17-4-29-13-39-8-9-21-14-38-14-17 0-31 5-41 15-10 10-16 22-17 37l108 0z"/>
						<path class="fil0" d="M17432 11361l-139 0c0 12 2 22 5 30 3 9 8 16 14 21 6 5 13 9 21 12 8 3 17 4 27 4 13 0 26-3 39-8 13-5 22-10 28-15l2 0 0 35c-11 4-22 8-33 11-11 3-23 5-35 5-31 0-56-8-73-25-18-17-26-41-26-72 0-31 8-55 25-73 17-18 39-27 66-27 25 0 45 7 59 22 14 15 21 36 21 63l0 17zm-31-24c0-17-4-29-13-39-8-9-21-14-38-14-17 0-31 5-41 15-10 10-16 22-17 37l108 0z"/>
						<path class="fil0" d="M17633 11452l-32 0 0-20c-9 8-19 14-29 18-10 4-21 7-32 7-23 0-40-9-54-26-13-17-20-41-20-72 0-16 2-30 7-43 5-12 11-23 18-32 8-9 17-15 27-20 10-4 21-7 32-7 10 0 19 1 26 3 8 2 16 5 24 10l0-82 32 0 0 263zm-32-46l0-108c-9-4-16-6-23-8-7-1-14-2-22-2-18 0-32 6-42 18-10 12-15 30-15 52 0 22 4 39 12 51 8 12 20 17 37 17 9 0 18-2 27-6 9-4 18-9 26-15z"/>
						<path class="fil0" d="M17977 11358c0 31-8 55-24 73-16 18-37 27-63 27-27 0-48-9-64-27-16-18-24-42-24-73 0-31 8-55 24-73 16-18 37-27 64-27 26 0 47 9 63 27 16 18 24 42 24 73zm-33 0c0-24-5-42-14-54-10-12-23-18-40-18-17 0-31 6-40 18-10 12-14 30-14 54 0 24 5 41 14 53 10 12 23 18 40 18 17 0 30-6 40-18 10-12 14-30 14-54z"/>
						<path class="fil0" d="M18127 11220l-2 0c-4-1-8-2-14-3-6-1-11-2-15-2-14 0-23 3-30 9-6 6-9 17-9 33l0 6 57 0 0 27-56 0 0 162-32 0 0-162-21 0 0-27 21 0 0-6c0-22 6-40 17-52 11-12 27-18 48-18 7 0 13 0 19 1 6 1 11 1 16 2l0 29z"/>
						<polygon class="fil0" points="18321 11452 18281 11452 18281 11404 18321 11404 "/>
						<polygon class="fil0" points="18447 11452 18407 11452 18407 11404 18447 11404 "/>
						<polygon class="fil0" points="18573 11452 18532 11452 18532 11404 18573 11404 "/>
					</g>
					<g>
						<path class="fil3 str3" d="M16194 12174c74-27 157 12 183 87l117 329c15-16 34-29 56-36 55-20 114-4 152 36 16-21 38-38 65-47 55-20 114-4 152 36 16-21 38-38 65-47 74-27 157 12 183 87l46 129 9 25c35 100 66 236-10 403l-2 4c-28 53-64 101-108 142l0 0c-49 50-106 87-167 109-18 6-37 12-56 16-183 37-344-56-404-97l-2-1-3-2-2-1c-66-47-133-107-199-176l-1-1c-17-19-37-42-68-77l-16-18c-67-78-101-133-111-179-4-17-5-34-2-50l1-7 0-1c8-34 32-62 64-77l1-1 7-3 4-1 6-2 3-1c21-5 54-6 94 17l1 1-131-368-16-45c-27-74 12-157 87-183z"/>
						<path class="fil2" d="M16222 12250c32-12 68 5 80 38l160 449c8 22 32 33 53 25 22-8 33-32 25-53-12-32 5-68 38-80 32-12 68 5 80 38l21 59c8 22 32 33 53 25 22-8 33-32 25-53-12-32 5-68 38-80 32-12 68 5 80 38l21 59c8 22 32 33 53 25 22-8 33-32 25-53-12-32 5-68 38-80 32-12 68 5 80 38l46 129 9 24c26 75 61 193-7 343-24 45-56 87-94 122 0 0-1 1-1 1-43 44-89 72-137 89-15 5-30 9-45 13-127 26-256-25-342-85-2-1-3-2-5-3-74-53-139-116-187-166-19-21-43-48-82-92-56-66-87-113-93-144-2-7-2-14-1-20 0-1 0-1 0-2 2-10 10-18 19-22 0 0 1 0 2-1 0 0 1 0 1 0 1 0 2 0 2-1 9-2 20 0 33 8 9 6 20 14 33 25l55 48c6 5 12 11 19 17l1 1 22 20 0 0c27 22 42 28 50 25 19-7 0-60 0-60l-14-41-178-499-16-45c-11-32 6-68 38-80m-27-76c-74 27-113 109-87 183l16 45 131 368c0 0-1-1-1-1-39-23-73-22-94-17-1 0-2 0-3 1-2 1-4 1-6 2-1 0-2 1-4 1-2 1-4 2-7 3 0 0-1 0-1 1-33 15-56 43-64 77 0 0 0 1 0 1-1 2-1 5-1 7-3 16-2 33 2 50 10 46 44 101 111 179l16 18c30 35 51 58 68 77 0 0 1 1 1 1 66 70 133 129 199 176l2 1 3 2c1 0 1 1 2 1 61 42 221 135 404 97 19-4 38-9 56-16 61-22 118-58 167-109l0 0c0 0 0 0 0 0 44-41 80-89 108-142 1-1 1-3 2-4 76-167 45-303 10-403l-9-25-46-129c-27-74-109-113-183-87-27 10-49 26-65 47-38-40-97-56-152-36-27 10-49 26-65 47-38-40-97-56-152-36-22 8-41 21-56 36l-117-329c-27-74-109-113-183-87l0 0z"/>
					</g>
				</g>
				<g>
					<line class="fil1 str4" x1="12184" y1="13951" x2="20340" y2="13951"/>
					<line class="fil1 str4" x1="12184" y1="7934" x2="20201" y2="7934"/>
					<line class="fil1 str4" x1="12184" y1="8435" x2="13912" y2="8435"/>
					<line class="fil1 str4" x1="12184" y1="8936" x2="17329" y2="8936"/>
					<line class="fil1 str4" x1="17972" y1="8936" x2="20772" y2="8936"/>
					<line class="fil1 str4" x1="14555" y1="8435" x2="19769" y2="8435"/>
					<line class="fil1 str4" x1="12184" y1="9938" x2="14564" y2="9938"/>
					<line class="fil1 str4" x1="12184" y1="9437" x2="20426" y2="9437"/>
					<line class="fil1 str4" x1="15208" y1="9938" x2="19355" y2="9938"/>
					<line class="fil1 str4" x1="12184" y1="10439" x2="20340" y2="10439"/>
					<g>
						<rect class="fil4" x="14111" y="8272" width="241" height="306" rx="103" ry="103"/>
						<polygon class="fil0" points="14329 8350 14221 8520 14193 8520 14164 8350 14193 8350 14214 8485 14298 8350 "/>
					</g>
					<g>
						<rect class="fil4" x="17530" y="8783" width="241" height="306" rx="103" ry="103"/>
						<polygon class="fil0" points="17748 8861 17640 9031 17611 9031 17583 8861 17612 8861 17633 8996 17716 8861 "/>
					</g>
					<g>
						<rect class="fil4" x="14765" y="9785" width="241" height="306" rx="103" ry="103"/>
						<polygon class="fil0" points="14983 9863 14875 10033 14847 10033 14818 9863 14847 9863 14868 9999 14952 9863 "/>
					</g>
				</g>
			</g>
			<g>
				<path class="fil3" d="M16911 14570l0 722c0 39-33 72-72 72l-722 0c-39 0-72-33-72-72l0-722c0-39 33-72 72-72l722 0c39 0 72 33 72 72z"/>
				<path class="fil2" d="M16117 15363l722 0c39 0 72-33 72-72l0-722c0-39-33-72-72-72l-722 0c-39 0-72 33-72 72l0 722c0 39 33 72 72 72zm-24-794c0-13 11-24 24-24l722 0c13 0 24 11 24 24l0 722c0 13-11 24-24 24l-722 0c-13 0-24-11-24-24l0-722z"/>
				<path class="fil2" d="M16377 15183c2 1 3 1 5 1l192 0c3 0 6-1 9-4l72-72c0 0 0 0 0 0 1-1 2-2 2-4 0 0 0-1 0-1 0-1 1-2 1-3 0 0 0 0 0-1 0 0 0 0 0 0 0-1 0-3-1-4 0 0 0 0 0 0 0 0 0 0 0 0l-71-166 0-239c0-7-6-13-13-13l-191 0c-7 0-13 6-13 13l0 481c0 2 0 3 1 5 2 3 4 5 7 7zm192-23l-159 0 48-48 159 0-48 48zm-175-17l0-153 45 107-45 46zm234-55l-166 0-62-144 166 0 62 144zm-65-385l0 217-168 0 0-217 168 0z"/>
			</g>
			<line class="fil1 str5" x1="12184" y1="14930" x2="15795" y2="14930"/>
			<line class="fil1 str5" x1="17160" y1="14930" x2="20772" y2="14930"/>
			<g>
				<g>
					<rect class="fil4" x="16782" y="20391" width="1239" height="479" rx="205" ry="205"/>
					<rect class="fil4" x="16782" y="19823" width="1239" height="479" rx="205" ry="205"/>
					<g>
						<path class="fil0" d="M12524 20315l-2 0c-5-1-9-2-13-3-4-1-9-1-15-1-11 0-23 3-34 8-11 5-22 11-32 19l-32 143-34 0 46-201 34 0-7 30c16-11 30-19 41-23 11-4 22-6 32-6 6 0 10 0 13 0 3 0 7 1 12 2l-8 33z"/>
						<path class="fil0" d="M12683 20359c1-4 1-6 1-9 0-2 0-5 0-8 0-13-4-23-11-30-7-7-18-11-34-11-17 0-32 5-46 16-13 11-22 24-27 42l116 0zm-68 127c-28 0-50-7-66-20-16-13-24-32-24-57 0-37 12-69 35-95 23-26 52-40 87-40 23 0 40 6 53 17 12 11 18 27 18 48 0 4 0 9-2 17-1 8-3 17-5 27l-149 0c-1 3-1 7-2 10 0 3 0 7 0 9 0 17 5 30 16 40 10 10 25 14 44 14 13 0 27-3 41-8 14-5 26-11 35-17l2 0-7 37c-6 2-11 4-16 6-5 2-11 4-18 5-7 2-14 3-20 4-6 1-13 1-22 1z"/>
						<path class="fil0" d="M12802 20486c-15 0-28-2-40-6-12-4-22-8-30-12l8-36 2 0c3 2 6 5 10 8 4 3 9 6 15 9 6 3 12 5 19 7 7 2 15 3 23 3 17 0 30-3 40-9 10-6 14-16 14-28 0-6-2-11-7-15-5-3-12-6-21-8-5-1-10-2-17-4-7-1-13-3-20-5-14-4-25-10-31-17-7-8-10-17-10-27 0-9 2-18 6-26 4-8 10-16 18-23 8-7 17-12 29-16 12-4 25-6 40-6 12 0 24 1 36 4 12 3 22 7 29 11l-7 35-2 0c-2-2-5-4-9-6-4-3-9-5-15-8-5-2-11-4-18-6-7-2-14-3-22-3-15 0-27 3-37 10-9 6-14 15-14 26 0 6 2 11 7 15 5 4 12 7 21 9 6 1 12 3 19 4 6 1 13 3 19 4 14 4 24 9 31 16 7 7 11 17 11 28 0 9-2 18-7 27-4 9-11 16-19 23-9 7-19 12-31 16-12 4-26 6-41 6z"/>
						<path class="fil0" d="M13144 20280l-46 201-34 0 5-22c-13 9-25 16-36 20-11 5-23 7-35 7-17 0-31-4-40-13-10-9-15-21-15-38 0-4 0-8 1-12 1-4 1-8 2-13l30-131 34 0-26 115c-1 5-2 10-3 16-1 6-1 11-1 14 0 10 3 18 8 23 5 5 14 8 27 8 9 0 19-3 30-8 11-5 22-11 32-18l34-150 34 0z"/>
						<polygon class="fil0" points="13263 20200 13199 20481 13165 20481 13230 20200 "/>
						<path class="fil0" d="M13417 20280l-6 27-70 0-21 93c-1 5-2 10-3 16-1 6-1 11-1 15 0 9 2 15 7 20 4 4 13 6 25 6 5 0 11-1 18-3 7-2 11-3 14-4l2 0-6 29c-7 2-14 3-22 4-8 1-14 2-20 2-17 0-29-4-38-11-9-7-14-19-14-35 0-4 0-8 1-11 1-4 1-8 2-13l25-108-23 0 6-27 23 0 13-58 34 0-13 58 70 0z"/>
						<path class="fil0" d="M13797 20340l-214 0 0-29 214 0 0 29zm0 76l-214 0 0-29 214 0 0 29z"/>
						<polygon class="fil0" points="14072 20200 14007 20481 13973 20481 14038 20200 "/>
						<path class="fil0" d="M14173 20211l-8 35-38 0 8-35 38 0zm-19 69l-46 201-34 0 46-201 34 0z"/>
						<path class="fil0" d="M14502 20324c0 4 0 8-1 13-1 4-1 9-2 13l-30 131-34 0 26-114c1-6 3-12 4-18 1-5 1-10 1-15 0-9-2-16-7-21-5-5-13-7-26-7-10 0-20 3-30 8-11 5-21 11-32 19 0 3-1 6-1 10 0 4-1 7-2 10l-30 129-34 0 26-114c2-7 3-14 4-18 1-5 1-10 1-15 0-11-3-18-9-22-6-4-14-6-24-6-7 0-15 2-24 5-9 4-21 10-36 20l-35 150-34 0 47-201 34 0-5 22c13-9 24-16 35-21 11-5 22-7 34-7 14 0 25 3 33 9 8 6 14 14 17 24 16-12 30-20 43-25 13-5 25-8 37-8 18 0 31 4 40 13 9 9 13 21 13 37z"/>
						<path class="fil0" d="M14633 20211l-8 35-38 0 8-35 38 0zm-19 69l-46 201-34 0 46-201 34 0z"/>
						<path class="fil0" d="M14787 20280l-6 27-70 0-21 93c-1 5-2 10-3 16-1 6-1 11-1 15 0 9 2 15 7 20 4 4 13 6 25 6 5 0 11-1 18-3 7-2 11-3 14-4l2 0-6 29c-7 2-14 3-22 4-8 1-14 2-20 2-17 0-29-4-38-11-9-7-14-19-14-35 0-4 0-8 1-11 1-4 1-8 2-13l25-108-23 0 6-27 23 0 13-58 34 0-13 58 70 0z"/>
						<polygon class="fil0" points="15173 20378 15074 20378 15074 20476 15044 20476 15044 20378 14946 20378 14946 20349 15044 20349 15044 20251 15074 20251 15074 20349 15173 20349 "/>
						<polygon class="fil0" points="15441 20200 15376 20481 15343 20481 15407 20200 "/>
						<path class="fil0" d="M15543 20211l-8 35-38 0 8-35 38 0zm-19 69l-46 201-34 0 46-201 34 0z"/>
						<path class="fil0" d="M15872 20324c0 4 0 8-1 13-1 4-1 9-2 13l-30 131-34 0 26-114c1-6 3-12 4-18 1-5 1-10 1-15 0-9-2-16-7-21-5-5-13-7-26-7-10 0-20 3-30 8-11 5-21 11-32 19 0 3-1 6-1 10 0 4-1 7-2 10l-30 129-34 0 26-114c2-7 3-14 4-18 1-5 1-10 1-15 0-11-3-18-9-22-6-4-14-6-24-6-7 0-15 2-24 5-9 4-21 10-36 20l-35 150-34 0 47-201 34 0-5 22c13-9 24-16 35-21 11-5 22-7 34-7 14 0 25 3 33 9 8 6 14 14 17 24 16-12 30-20 43-25 13-5 25-8 37-8 18 0 31 4 40 13 9 9 13 21 13 37z"/>
						<path class="fil0" d="M16003 20211l-8 35-38 0 8-35 38 0zm-19 69l-46 201-34 0 46-201 34 0z"/>
						<path class="fil0" d="M16156 20280l-6 27-70 0-21 93c-1 5-2 10-3 16-1 6-1 11-1 15 0 9 2 15 7 20 4 4 13 6 25 6 5 0 11-1 18-3 7-2 11-3 14-4l2 0-6 29c-7 2-14 3-22 4-8 1-14 2-20 2-17 0-29-4-38-11-9-7-14-19-14-35 0-4 0-8 1-11 1-4 1-8 2-13l25-108-23 0 6-27 23 0 13-58 34 0-13 58 70 0z"/>
						<polygon class="fil0" points="16605 20249 16573 20249 16573 19898 16605 19898 "/>
						<path class="fil0" d="M16905 20183c-15 0-28-2-40-6-12-4-22-8-30-12l8-36 2 0c3 2 6 5 10 8 4 3 9 6 15 9 6 3 12 5 19 7 7 2 15 3 23 3 17 0 30-3 40-9 10-6 14-16 14-28 0-6-2-11-7-15-5-3-12-6-21-8-5-1-10-2-17-4-7-1-13-3-20-5-14-4-25-10-31-17-7-8-10-17-10-27 0-9 2-18 6-26 4-8 10-16 18-23 8-7 17-12 29-16 12-4 25-6 40-6 12 0 24 1 36 4 12 3 22 7 29 11l-7 35-2 0c-2-2-5-4-9-6-4-3-9-5-15-8-5-2-11-4-18-6-7-2-14-3-22-3-15 0-27 3-37 10-9 6-14 15-14 26 0 6 2 11 7 15 5 4 12 7 21 9 6 1 12 3 19 4 6 1 13 3 19 4 14 4 24 9 31 16 7 7 11 17 11 28 0 9-2 18-7 27-4 9-11 16-19 23-9 7-19 12-31 16-12 4-26 6-41 6z"/>
						<path class="fil0" d="M17239 20040c0 20-3 39-9 56-6 18-14 32-25 45-10 13-22 23-36 30-14 7-28 11-44 11-11 0-21-1-30-4-9-2-17-6-25-11l-20 85-34 0 64-275 34 0-5 21c11-8 22-14 33-19 11-5 23-7 36-7 20 0 34 6 45 18 10 12 15 29 15 51zm-35 7c0-14-3-25-9-33-6-8-16-12-30-12-10 0-20 2-31 7-11 5-21 11-30 17l-26 114c8 4 15 7 22 9 7 2 16 3 26 3 12 0 24-3 34-9 10-6 18-14 25-23 7-10 12-21 15-34 3-12 5-26 5-40z"/>
						<path class="fil0" d="M17428 20056c1-4 1-6 1-9 0-2 0-5 0-8 0-13-4-23-11-30-7-7-18-11-34-11-17 0-32 5-46 16-13 11-22 24-27 42l116 0zm-68 127c-28 0-50-7-66-20-16-13-24-32-24-57 0-37 12-69 35-95 23-26 52-40 87-40 23 0 40 6 53 17 12 11 18 27 18 48 0 4 0 9-2 17-1 8-3 17-5 27l-149 0c-1 3-1 7-2 10 0 3 0 7 0 9 0 17 5 30 16 40 10 10 25 14 44 14 13 0 27-3 41-8 14-5 26-11 35-17l2 0-7 37c-6 2-11 4-16 6-5 2-11 4-18 5-7 2-14 3-20 4-6 1-13 1-22 1z"/>
						<path class="fil0" d="M17648 20056c1-4 1-6 1-9 0-2 0-5 0-8 0-13-4-23-11-30-7-7-18-11-34-11-17 0-32 5-46 16-13 11-22 24-27 42l116 0zm-68 127c-28 0-50-7-66-20-16-13-24-32-24-57 0-37 12-69 35-95 23-26 52-40 87-40 23 0 40 6 53 17 12 11 18 27 18 48 0 4 0 9-2 17-1 8-3 17-5 27l-149 0c-1 3-1 7-2 10 0 3 0 7 0 9 0 17 5 30 16 40 10 10 25 14 44 14 13 0 27-3 41-8 14-5 26-11 35-17l2 0-7 37c-6 2-11 4-16 6-5 2-11 4-18 5-7 2-14 3-20 4-6 1-13 1-22 1z"/>
						<path class="fil0" d="M17932 19898l-65 280-34 0 5-21c-15 10-27 18-37 21-9 4-19 5-30 5-19 0-34-6-45-18-11-12-17-29-17-52 0-19 3-38 9-55 6-17 14-32 24-45 10-13 22-23 36-31 14-8 29-11 44-11 11 0 21 1 30 3 9 2 17 6 25 10l20-87 34 0zm-61 115c-8-4-16-7-24-9-8-2-16-3-25-3-12 0-24 3-33 9-10 6-18 14-25 25-6 10-11 21-15 34-3 13-5 26-5 39 0 15 3 26 9 34 6 8 17 12 31 12 10 0 20-3 31-8 11-5 20-11 29-17l27-116z"/>
						<polygon class="fil0" points="18326 20075 18228 20075 18228 20173 18198 20173 18198 20075 18100 20075 18100 20046 18198 20046 18198 19948 18228 19948 18228 20046 18326 20046 "/>
						<polygon class="fil0" points="19544 19898 19479 20178 19445 20178 19510 19898 "/>
						<path class="fil0" d="M19646 19908l-8 35-38 0 8-35 38 0zm-19 69l-46 201-34 0 46-201 34 0z"/>
						<path class="fil0" d="M19975 20021c0 4 0 8-1 13-1 4-1 9-2 13l-30 131-34 0 26-114c1-6 3-12 4-18 1-5 1-10 1-15 0-9-2-16-7-21-5-5-13-7-26-7-10 0-20 3-30 8-11 5-21 11-32 19 0 3-1 6-1 10 0 4-1 7-2 10l-30 129-34 0 26-114c2-7 3-14 4-18 1-5 1-10 1-15 0-11-3-18-9-22-6-4-14-6-24-6-7 0-15 2-24 5-9 4-21 10-36 20l-35 150-34 0 47-201 34 0-5 22c13-9 24-16 35-21 11-5 22-7 34-7 14 0 25 3 33 9 8 6 14 14 17 24 16-12 30-20 43-25 13-5 25-8 37-8 18 0 31 4 40 13 9 9 13 21 13 37z"/>
						<path class="fil0" d="M20106 19908l-8 35-38 0 8-35 38 0zm-19 69l-46 201-34 0 46-201 34 0z"/>
						<path class="fil0" d="M20259 19977l-6 27-70 0-21 93c-1 5-2 10-3 16-1 6-1 11-1 15 0 9 2 15 7 20 4 4 13 6 25 6 5 0 11-1 18-3 7-2 11-3 14-4l2 0-6 29c-7 2-14 3-22 4-8 1-14 2-20 2-17 0-29-4-38-11-9-7-14-19-14-35 0-4 0-8 1-11 1-4 1-8 2-13l25-108-23 0 6-27 23 0 13-58 34 0-13 58 70 0z"/>
						<path class="fil0" d="M16806 20252l-41 0c-21-24-38-51-50-80-12-29-18-61-18-97 0-36 6-69 18-97 12-29 28-55 50-80l41 0 0 2c-10 9-19 19-28 30-9 12-17 25-24 40-7 15-13 31-18 49-4 18-7 37-7 56 0 21 2 39 7 56 4 17 10 33 18 49 7 15 15 28 25 40 9 12 18 22 28 30l0 2z"/>
						<path class="fil0" d="M18681 20178l-145 0 0-27 56 0 0-180-56 0 0-24c8 0 16-1 24-2 9-1 15-3 20-6 6-3 10-7 13-11 3-5 5-11 6-19l28 0 0 242 55 0 0 27z"/>
						<path class="fil0" d="M18855 20075c0 36-6 69-18 97-12 29-28 55-50 80l-41 0 0-2c9-8 18-18 28-30 9-12 17-25 24-40 7-15 13-32 18-49 4-17 7-36 7-56 0-20-2-38-7-56-4-18-10-34-18-49-8-15-16-29-24-40-9-12-18-22-28-30l0-2 41 0c21 24 38 51 50 80 12 29 18 61 18 97z"/>
						<polygon class="fil0" points="19222 20077 19110 20077 19110 20044 19222 20044 "/>
						<polygon class="fil0" points="20343 20249 20312 20249 20312 19898 20343 19898 "/>
						<path class="fil0" d="M16798 20805l-41 0c-21-24-38-51-50-80-12-29-18-61-18-97 0-36 6-69 18-97 12-29 28-55 50-80l41 0 0 2c-10 9-19 19-28 30-9 12-17 25-24 40-7 15-13 31-18 49-4 18-7 37-7 56 0 21 2 39 7 56 4 17 10 33 18 49 7 15 15 28 25 40 9 12 18 22 28 30l0 2z"/>
						<path class="fil0" d="M18673 20731l-145 0 0-27 56 0 0-180-56 0 0-24c8 0 16-1 24-2 9-1 15-3 20-6 6-3 10-7 13-11 3-5 5-11 6-19l28 0 0 242 55 0 0 27z"/>
						<path class="fil0" d="M18848 20628c0 36-6 69-18 97-12 29-28 55-50 80l-41 0 0-2c9-8 18-18 28-30 9-12 17-25 24-40 7-15 13-32 18-49 4-17 7-36 7-56 0-20-2-38-7-56-4-18-10-34-18-49-8-15-16-29-24-40-9-12-18-22-28-30l0-2 41 0c21 24 38 51 50 80 12 29 18 61 18 97z"/>
						<polygon class="fil0" points="19274 20628 19176 20628 19176 20726 19146 20726 19146 20628 19048 20628 19048 20599 19146 20599 19146 20501 19176 20501 19176 20599 19274 20599 "/>
						<path class="fil0" d="M16898 20736c-15 0-28-2-40-6-12-4-22-8-30-12l8-36 2 0c3 2 6 5 10 8 4 3 9 6 15 9 6 3 12 5 19 7 7 2 15 3 23 3 17 0 30-3 40-9 10-6 14-16 14-28 0-6-2-11-7-15-5-3-12-6-21-8-5-1-10-2-17-4-7-1-13-3-20-5-14-4-25-10-31-17-7-8-10-17-10-27 0-9 2-18 6-26 4-8 10-16 18-23 8-7 17-12 29-16 12-4 25-6 40-6 12 0 24 1 36 4 12 3 22 7 29 11l-7 35-2 0c-2-2-5-4-9-6-4-3-9-5-15-8-5-2-11-4-18-6-7-2-14-3-22-3-15 0-27 3-37 10-9 6-14 15-14 26 0 6 2 11 7 15 5 4 12 7 21 9 6 1 12 3 19 4 6 1 13 3 19 4 14 4 24 9 31 16 7 7 11 17 11 28 0 9-2 18-7 27-4 9-11 16-19 23-9 7-19 12-31 16-12 4-26 6-41 6z"/>
						<path class="fil0" d="M17232 20593c0 20-3 39-9 56-6 18-14 32-25 45-10 13-22 23-36 30-14 7-28 11-44 11-11 0-21-1-30-4-9-2-17-6-25-11l-20 85-34 0 64-275 34 0-5 21c11-8 22-14 33-19 11-5 23-7 36-7 20 0 34 6 45 18 10 12 15 29 15 51zm-35 7c0-14-3-25-9-33-6-8-16-12-30-12-10 0-20 2-31 7-11 5-21 11-30 17l-26 114c8 4 15 7 22 9 7 2 16 3 26 3 12 0 24-3 34-9 10-6 18-14 25-23 7-10 12-21 15-34 3-12 5-26 5-40z"/>
						<path class="fil0" d="M17421 20609c1-4 1-6 1-9 0-2 0-5 0-8 0-13-4-23-11-30-7-7-18-11-34-11-17 0-32 5-46 16-13 11-22 24-27 42l116 0zm-68 127c-28 0-50-7-66-20-16-13-24-32-24-57 0-37 12-69 35-95 23-26 52-40 87-40 23 0 40 6 53 17 12 11 18 27 18 48 0 4 0 9-2 17-1 8-3 17-5 27l-149 0c-1 3-1 7-2 10 0 3 0 7 0 9 0 17 5 30 16 40 10 10 25 14 44 14 13 0 27-3 41-8 14-5 26-11 35-17l2 0-7 37c-6 2-11 4-16 6-5 2-11 4-18 5-7 2-14 3-20 4-6 1-13 1-22 1z"/>
						<path class="fil0" d="M17641 20609c1-4 1-6 1-9 0-2 0-5 0-8 0-13-4-23-11-30-7-7-18-11-34-11-17 0-32 5-46 16-13 11-22 24-27 42l116 0zm-68 127c-28 0-50-7-66-20-16-13-24-32-24-57 0-37 12-69 35-95 23-26 52-40 87-40 23 0 40 6 53 17 12 11 18 27 18 48 0 4 0 9-2 17-1 8-3 17-5 27l-149 0c-1 3-1 7-2 10 0 3 0 7 0 9 0 17 5 30 16 40 10 10 25 14 44 14 13 0 27-3 41-8 14-5 26-11 35-17l2 0-7 37c-6 2-11 4-16 6-5 2-11 4-18 5-7 2-14 3-20 4-6 1-13 1-22 1z"/>
						<path class="fil0" d="M17925 20451l-65 280-34 0 5-21c-15 10-27 18-37 21-9 4-19 5-30 5-19 0-34-6-45-18-11-12-17-29-17-52 0-19 3-38 9-55 6-17 14-32 24-45 10-13 22-23 36-31 14-8 29-11 44-11 11 0 21 1 30 3 9 2 17 6 25 10l20-87 34 0zm-61 115c-8-4-16-7-24-9-8-2-16-3-25-3-12 0-24 3-33 9-10 6-18 14-25 25-6 10-11 21-15 34-3 13-5 26-5 39 0 15 3 26 9 34 6 8 17 12 31 12 10 0 20-3 31-8 11-5 20-11 29-17l27-116z"/>
						<polygon class="fil0" points="18318 20628 18220 20628 18220 20726 18190 20726 18190 20628 18092 20628 18092 20599 18190 20599 18190 20501 18220 20501 18220 20599 18318 20599 "/>
						<polygon class="fil0" points="19551 20451 19486 20731 19452 20731 19517 20451 "/>
						<path class="fil0" d="M19652 20461l-8 35-38 0 8-35 38 0zm-19 69l-46 201-34 0 46-201 34 0z"/>
						<path class="fil0" d="M19982 20574c0 4 0 8-1 13-1 4-1 9-2 13l-30 131-34 0 26-114c1-6 3-12 4-18 1-5 1-10 1-15 0-9-2-16-7-21-5-5-13-7-26-7-10 0-20 3-30 8-11 5-21 11-32 19 0 3-1 6-1 10 0 4-1 7-2 10l-30 129-34 0 26-114c2-7 3-14 4-18 1-5 1-10 1-15 0-11-3-18-9-22-6-4-14-6-24-6-7 0-15 2-24 5-9 4-21 10-36 20l-35 150-34 0 47-201 34 0-5 22c13-9 24-16 35-21 11-5 22-7 34-7 14 0 25 3 33 9 8 6 14 14 17 24 16-12 30-20 43-25 13-5 25-8 37-8 18 0 31 4 40 13 9 9 13 21 13 37z"/>
						<path class="fil0" d="M20113 20461l-8 35-38 0 8-35 38 0zm-19 69l-46 201-34 0 46-201 34 0z"/>
						<path class="fil0" d="M20266 20530l-6 27-70 0-21 93c-1 5-2 10-3 16-1 6-1 11-1 15 0 9 2 15 7 20 4 4 13 6 25 6 5 0 11-1 18-3 7-2 11-3 14-4l2 0-6 29c-7 2-14 3-22 4-8 1-14 2-20 2-17 0-29-4-38-11-9-7-14-19-14-35 0-4 0-8 1-11 1-4 1-8 2-13l25-108-23 0 6-27 23 0 13-58 34 0-13 58 70 0z"/>
						<line class="fil1 str0" x1="16476" y1="20351" x2="20392" y2="20351"/>
						<circle class="fil2" cx="16293" cy="20351" r="40"/>
					</g>
					<g>
						<polygon class="fil2 str2" points="18214 19613 18076 19476 17953 19795 "/>
						<path class="fil3 str2" d="M18273 19090l2150 0c108 0 196 88 196 196l0 135c0 108-88 197-196 196l-2196-5c-108 0-150-36-150-144l0-183c0-108 88-196 196-196z"/>
						<path class="fil0" d="M18527 19437c0 17-7 31-21 42-14 11-34 17-58 17-14 0-27-2-38-5-12-3-21-7-29-11l0-36 2 0c10 8 21 14 33 18 12 4 24 7 35 7 14 0 25-2 33-7 8-4 12-12 12-21 0-7-2-13-6-17-4-4-12-7-25-10-4-1-10-2-18-4-7-1-14-3-20-4-16-4-28-11-35-19-7-8-10-19-10-31 0-8 2-15 5-22 3-7 8-13 15-18 6-5 14-9 24-13 10-3 21-5 33-5 11 0 23 1 34 4 12 3 21 6 29 10l0 34-2 0c-8-6-18-11-29-15-12-4-23-6-34-6-12 0-21 2-29 7-8 4-12 11-12 20 0 8 2 14 7 18 5 4 12 7 23 10 6 1 12 3 20 4 7 1 13 3 18 4 15 3 26 9 34 17 8 8 12 19 12 33z"/>
						<path class="fil0" d="M18738 19395c0 15-2 29-7 42-4 13-11 23-19 32-7 8-16 15-26 19-10 5-21 7-32 7-10 0-19-1-27-3-8-2-16-5-24-10l0 79-32 0 0-258 32 0 0 20c8-7 18-13 29-18 11-5 22-7 34-7 23 0 41 9 53 26 13 17 19 41 19 71zm-33 1c0-23-4-40-12-51-8-11-20-17-36-17-9 0-18 2-28 6-9 4-18 9-27 16l0 107c9 4 17 7 23 8 6 1 14 2 22 2 18 0 32-6 41-18 10-12 15-30 15-53z"/>
						<path class="fil0" d="M18945 19400l-139 0c0 12 2 22 5 30 3 9 8 16 14 21 6 5 13 9 21 12 8 3 17 4 27 4 13 0 26-3 39-8 13-5 22-10 28-15l2 0 0 35c-11 4-22 8-33 11-11 3-23 5-35 5-31 0-56-8-73-25-18-17-26-41-26-72 0-31 8-55 25-73 17-18 39-27 66-27 25 0 45 7 59 22 14 15 21 36 21 63l0 17zm-31-24c0-17-4-29-13-39-8-9-21-14-38-14-17 0-31 5-41 15-10 10-16 22-17 37l108 0z"/>
						<path class="fil0" d="M19151 19400l-139 0c0 12 2 22 5 30 3 9 8 16 14 21 6 5 13 9 21 12 8 3 17 4 27 4 13 0 26-3 39-8 13-5 22-10 28-15l2 0 0 35c-11 4-22 8-33 11-11 3-23 5-35 5-31 0-56-8-73-25-18-17-26-41-26-72 0-31 8-55 25-73 17-18 39-27 66-27 25 0 45 7 59 22 14 15 21 36 21 63l0 17zm-31-24c0-17-4-29-13-39-8-9-21-14-38-14-17 0-31 5-41 15-10 10-16 22-17 37l108 0z"/>
						<path class="fil0" d="M19352 19491l-32 0 0-20c-9 8-19 14-29 18-10 4-21 7-32 7-23 0-40-9-54-26-13-17-20-41-20-72 0-16 2-30 7-43 5-12 11-23 18-32 8-9 17-15 27-20 10-4 21-7 32-7 10 0 19 1 26 3 8 2 16 5 24 10l0-82 32 0 0 263zm-32-46l0-108c-9-4-16-6-23-8-7-1-14-2-22-2-18 0-32 6-42 18-10 12-15 30-15 52 0 22 4 39 12 51 8 12 20 17 37 17 9 0 18-2 27-6 9-4 18-9 26-15z"/>
						<path class="fil0" d="M19696 19397c0 31-8 55-24 73-16 18-37 27-63 27-27 0-48-9-64-27-16-18-24-42-24-73 0-31 8-55 24-73 16-18 37-27 64-27 26 0 47 9 63 27 16 18 24 42 24 73zm-33 0c0-24-5-42-14-54-10-12-23-18-40-18-17 0-31 6-40 18-10 12-14 30-14 54 0 24 5 41 14 53 10 12 23 18 40 18 17 0 30-6 40-18 10-12 14-30 14-54z"/>
						<path class="fil0" d="M19847 19259l-2 0c-4-1-8-2-14-3-6-1-11-2-15-2-14 0-23 3-30 9-6 6-9 17-9 33l0 6 57 0 0 27-56 0 0 162-32 0 0-162-21 0 0-27 21 0 0-6c0-22 6-40 17-52 11-12 27-18 48-18 7 0 13 0 19 1 6 1 11 1 16 2l0 29z"/>
						<polygon class="fil0" points="20041 19491 20000 19491 20000 19443 20041 19443 "/>
						<polygon class="fil0" points="20166 19491 20126 19491 20126 19443 20166 19443 "/>
						<polygon class="fil0" points="20292 19491 20252 19491 20252 19443 20292 19443 "/>
					</g>
					<g>
						<path class="fil3 str3" d="M17909 20095c74-27 157 12 183 87l117 329c15-16 34-29 56-36 55-20 114-4 152 36 16-21 38-38 65-47 55-20 114-4 152 36 16-21 38-38 65-47 74-27 157 12 183 87l46 129 9 25c35 100 66 236-10 403l-2 4c-28 53-64 101-108 142l0 0c-49 50-106 87-167 109-18 6-37 12-56 16-183 37-344-56-404-97l-2-1-3-2-2-1c-66-47-133-107-199-176l-1-1c-17-19-37-42-68-77l-16-18c-67-78-101-133-111-179-4-17-5-34-2-50l1-7 0-1c8-34 32-62 64-77l1-1 7-3 4-1 6-2 3-1c21-5 54-6 94 17l1 1-131-368-16-45c-27-74 12-157 87-183z"/>
						<path class="fil2" d="M17936 20171c32-12 68 5 80 38l160 449c8 22 32 33 53 25 22-8 33-32 25-53-12-32 5-68 38-80 32-12 68 5 80 38l21 59c8 22 32 33 53 25 22-8 33-32 25-53-12-32 5-68 38-80 32-12 68 5 80 38l21 59c8 22 32 33 53 25 22-8 33-32 25-53-12-32 5-68 38-80 32-12 68 5 80 38l46 129 9 24c26 75 61 193-7 343-24 45-56 87-94 122 0 0-1 1-1 1-43 44-89 72-137 89-15 5-30 9-45 13-127 26-256-25-342-85-2-1-3-2-5-3-74-53-139-116-187-166-19-21-43-48-82-92-56-66-87-113-93-144-2-7-2-14-1-20 0-1 0-1 0-2 2-10 10-18 19-22 0 0 1 0 2-1 0 0 1 0 1 0 1 0 2 0 2-1 9-2 20 0 33 8 9 6 20 14 33 25l55 48c6 5 12 11 19 17l1 1 22 20 0 0c27 22 42 28 50 25 19-7 0-60 0-60l-14-41-178-499-16-45c-11-32 6-68 38-80m-27-76c-74 27-113 109-87 183l16 45 131 368c0 0-1-1-1-1-39-23-73-22-94-17-1 0-2 0-3 1-2 1-4 1-6 2-1 0-2 1-4 1-2 1-4 2-7 3 0 0-1 0-1 1-33 15-56 43-64 77 0 0 0 1 0 1-1 2-1 5-1 7-3 16-2 33 2 50 10 46 44 101 111 179l16 18c30 35 51 58 68 77 0 0 1 1 1 1 66 70 133 129 199 176l2 1 3 2c1 0 1 1 2 1 61 42 221 135 404 97 19-4 38-9 56-16 61-22 118-58 167-109l0 0c0 0 0 0 0 0 44-41 80-89 108-142 1-1 1-3 2-4 76-167 45-303 10-403l-9-25-46-129c-27-74-109-113-183-87-27 10-49 26-65 47-38-40-97-56-152-36-27 10-49 26-65 47-38-40-97-56-152-36-22 8-41 21-56 36l-117-329c-27-74-109-113-183-87l0 0z"/>
					</g>
				</g>
				<g>
					<line class="fil1 str4" x1="12184" y1="21927" x2="20340" y2="21927"/>
					<line class="fil1 str4" x1="12184" y1="15910" x2="20201" y2="15910"/>
					<line class="fil1 str4" x1="12184" y1="16411" x2="13912" y2="16411"/>
					<line class="fil1 str4" x1="12184" y1="16912" x2="17329" y2="16912"/>
					<line class="fil1 str4" x1="18834" y1="16912" x2="20772" y2="16912"/>
					<line class="fil1 str4" x1="15417" y1="16411" x2="19769" y2="16411"/>
					<line class="fil1 str4" x1="12184" y1="17914" x2="14564" y2="17914"/>
					<line class="fil1 str4" x1="12184" y1="17413" x2="20426" y2="17413"/>
					<line class="fil1 str4" x1="16069" y1="17914" x2="19355" y2="17914"/>
					<line class="fil1 str4" x1="12184" y1="18416" x2="20340" y2="18416"/>
					<g>
						<rect class="fil4" x="14111" y="16258" width="1106" height="306" rx="131" ry="131"/>
						<path class="fil0" d="M14258 16510c-13 0-24-2-34-5-10-3-18-7-25-10l6-31 2 0c2 2 5 4 8 7 3 2 8 5 13 7 5 2 10 4 16 6 6 2 13 3 20 3 14 0 26-3 34-8 8-5 12-13 12-24 0-5-2-10-6-12-4-3-10-5-18-7-4-1-9-2-14-3-6-1-11-2-17-4-12-3-21-8-26-15-6-6-9-14-9-23 0-8 2-15 5-22 3-7 9-13 15-19 6-5 15-10 25-13 10-3 21-5 33-5 10 0 20 1 30 4 10 3 18 6 25 9l-6 29-2 0c-2-1-4-3-7-5-3-2-7-5-12-7-4-2-9-4-15-5-6-1-12-2-18-2-13 0-23 3-31 8-8 5-12 13-12 22 0 5 2 9 6 13 4 3 10 6 18 8 5 1 10 2 16 3 5 1 11 2 16 3 12 3 21 8 27 14 6 6 9 14 9 23 0 8-2 15-6 23-4 7-9 14-16 19-7 6-16 10-26 14-10 3-22 5-34 5z"/>
						<path class="fil0" d="M14539 16390c0 17-3 33-8 47-5 15-12 27-21 38-9 11-19 19-30 25-12 6-24 9-37 9-9 0-17-1-25-3-8-2-15-5-21-9l-16 71-29 0 54-232 29 0-4 18c9-7 19-12 28-16 9-4 19-6 30-6 16 0 29 5 38 15 9 10 13 25 13 43zm-30 5c0-12-3-21-8-28-5-7-14-10-25-10-8 0-17 2-26 6-9 4-17 9-25 14l-22 96c7 4 13 6 19 8 6 2 13 3 22 3 10 0 20-3 28-8 8-5 15-12 21-20 6-9 10-18 13-28 3-10 4-22 4-34z"/>
						<path class="fil0" d="M14699 16403c1-3 1-5 1-7 0-2 0-4 0-7 0-11-3-19-9-25-6-6-15-9-29-9-15 0-27 4-39 13-11 9-19 21-23 35l98 0zm-58 107c-23 0-42-5-55-17-13-11-20-27-20-48 0-31 10-58 29-80 20-22 44-33 73-33 19 0 34 5 44 14 10 10 15 23 15 40 0 3 0 8-1 14-1 7-2 14-4 23l-125 0c-1 3-1 6-1 9 0 3 0 5 0 8 0 14 4 25 13 34 9 8 21 12 37 12 11 0 23-2 35-6 12-4 22-9 30-15l2 0-6 31c-5 2-10 3-14 5-4 2-9 3-16 5-6 2-12 3-17 4-5 1-11 1-18 1z"/>
						<path class="fil0" d="M14884 16403c1-3 1-5 1-7 0-2 0-4 0-7 0-11-3-19-9-25-6-6-15-9-29-9-15 0-27 4-39 13-11 9-19 21-23 35l98 0zm-58 107c-23 0-42-5-55-17-13-11-20-27-20-48 0-31 10-58 29-80 20-22 44-33 73-33 19 0 34 5 44 14 10 10 15 23 15 40 0 3 0 8-1 14-1 7-2 14-4 23l-125 0c-1 3-1 6-1 9 0 3 0 5 0 8 0 14 4 25 13 34 9 8 21 12 37 12 11 0 23-2 35-6 12-4 22-9 30-15l2 0-6 31c-5 2-10 3-14 5-4 2-9 3-16 5-6 2-12 3-17 4-5 1-11 1-18 1z"/>
						<path class="fil0" d="M15123 16269l-55 236-29 0 4-18c-13 9-23 15-31 18-8 3-16 5-26 5-16 0-29-5-38-15-9-10-14-25-14-44 0-16 3-32 8-46 5-15 12-27 21-38 9-11 19-19 30-26 12-6 24-9 37-9 9 0 17 1 25 3 8 2 15 5 21 9l17-74 29 0zm-51 97c-7-4-13-6-20-8-7-2-14-2-21-2-11 0-20 3-28 8-8 5-15 12-21 21-5 8-10 18-12 29-3 11-4 22-4 33 0 12 3 22 8 28 5 7 14 10 26 10 9 0 17-2 26-6 9-4 17-9 25-14l23-97z"/>
					</g>
					<g>
						<rect class="fil4" x="17528" y="16759" width="1106" height="306" rx="131" ry="131"/>
						<path class="fil0" d="M17675 17011c-13 0-24-2-34-5-10-3-18-7-25-10l6-31 2 0c2 2 5 4 8 7 3 2 8 5 13 7 5 2 10 4 16 6 6 2 13 3 20 3 14 0 26-3 34-8 8-5 12-13 12-24 0-5-2-10-6-12-4-3-10-5-18-7-4-1-9-2-14-3-6-1-11-2-17-4-12-3-21-8-26-15-6-6-9-14-9-23 0-8 2-15 5-22 3-7 9-13 15-19 6-5 15-10 25-13 10-3 21-5 33-5 10 0 20 1 30 4 10 3 18 6 25 9l-6 29-2 0c-2-1-4-3-7-5-3-2-7-5-12-7-4-2-9-4-15-5-6-1-12-2-18-2-13 0-23 3-31 8-8 5-12 13-12 22 0 5 2 9 6 13 4 3 10 6 18 8 5 1 10 2 16 3 5 1 11 2 16 3 12 3 21 8 27 14 6 6 9 14 9 23 0 8-2 15-6 23-4 7-9 14-16 19-7 6-16 10-26 14-10 3-22 5-34 5z"/>
						<path class="fil0" d="M17956 16891c0 17-3 33-8 47-5 15-12 27-21 38-9 11-19 19-30 25-12 6-24 9-37 9-9 0-17-1-25-3-8-2-15-5-21-9l-16 71-29 0 54-232 29 0-4 18c9-7 19-12 28-16 9-4 19-6 30-6 16 0 29 5 38 15 9 10 13 25 13 43zm-30 5c0-12-3-21-8-28-5-7-14-10-25-10-8 0-17 2-26 6-9 4-17 9-25 14l-22 96c7 4 13 6 19 8 6 2 13 3 22 3 10 0 20-3 28-8 8-5 15-12 21-20 6-9 10-18 13-28 3-10 4-22 4-34z"/>
						<path class="fil0" d="M18115 16904c1-3 1-5 1-7 0-2 0-4 0-7 0-11-3-19-9-25-6-6-15-9-29-9-15 0-27 4-39 13-11 9-19 21-23 35l98 0zm-58 107c-23 0-42-5-55-17-13-11-20-27-20-48 0-31 10-58 29-80 20-22 44-33 73-33 19 0 34 5 44 14 10 10 15 23 15 40 0 3 0 8-1 14-1 7-2 14-4 23l-125 0c-1 3-1 6-1 9 0 3 0 5 0 8 0 14 4 25 13 34 9 8 21 12 37 12 11 0 23-2 35-6 12-4 22-9 30-15l2 0-6 31c-5 2-10 3-14 5-4 2-9 3-16 5-6 2-12 3-17 4-5 1-11 1-18 1z"/>
						<path class="fil0" d="M18301 16904c1-3 1-5 1-7 0-2 0-4 0-7 0-11-3-19-9-25-6-6-15-9-29-9-15 0-27 4-39 13-11 9-19 21-23 35l98 0zm-58 107c-23 0-42-5-55-17-13-11-20-27-20-48 0-31 10-58 29-80 20-22 44-33 73-33 19 0 34 5 44 14 10 10 15 23 15 40 0 3 0 8-1 14-1 7-2 14-4 23l-125 0c-1 3-1 6-1 9 0 3 0 5 0 8 0 14 4 25 13 34 9 8 21 12 37 12 11 0 23-2 35-6 12-4 22-9 30-15l2 0-6 31c-5 2-10 3-14 5-4 2-9 3-16 5-6 2-12 3-17 4-5 1-11 1-18 1z"/>
						<path class="fil0" d="M18540 16770l-55 236-29 0 4-18c-13 9-23 15-31 18-8 3-16 5-26 5-16 0-29-5-38-15-9-10-14-25-14-44 0-16 3-32 8-46 5-15 12-27 21-38 9-11 19-19 30-26 12-6 24-9 37-9 9 0 17 1 25 3 8 2 15 5 21 9l17-74 29 0zm-51 97c-7-4-13-6-20-8-7-2-14-2-21-2-11 0-20 3-28 8-8 5-15 12-21 21-5 8-10 18-12 29-3 11-4 22-4 33 0 12 3 22 8 28 5 7 14 10 26 10 9 0 17-2 26-6 9-4 17-9 25-14l23-97z"/>
					</g>
					<g>
						<rect class="fil4" x="14764" y="17761" width="1106" height="306" rx="131" ry="131"/>
						<path class="fil0" d="M14910 18013c-13 0-24-2-34-5-10-3-18-7-25-10l6-31 2 0c2 2 5 4 8 7 3 2 8 5 13 7 5 2 10 4 16 6 6 2 13 3 20 3 14 0 26-3 34-8 8-5 12-13 12-24 0-5-2-10-6-12-4-3-10-5-18-7-4-1-9-2-14-3-6-1-11-2-17-4-12-3-21-8-26-15-6-6-9-14-9-23 0-8 2-15 5-22 3-7 9-13 15-19 6-5 15-10 25-13 10-3 21-5 33-5 10 0 20 1 30 4 10 3 18 6 25 9l-6 29-2 0c-2-1-4-3-7-5-3-2-7-5-12-7-4-2-9-4-15-5-6-1-12-2-18-2-13 0-23 3-31 8-8 5-12 13-12 22 0 5 2 9 6 13 4 3 10 6 18 8 5 1 10 2 16 3 5 1 11 2 16 3 12 3 21 8 27 14 6 6 9 14 9 23 0 8-2 15-6 23-4 7-9 14-16 19-7 6-16 10-26 14-10 3-22 5-34 5z"/>
						<path class="fil0" d="M15191 17893c0 17-3 33-8 47-5 15-12 27-21 38-9 11-19 19-30 25-12 6-24 9-37 9-9 0-17-1-25-3-8-2-15-5-21-9l-16 71-29 0 54-232 29 0-4 18c9-7 19-12 28-16 9-4 19-6 30-6 16 0 29 5 38 15 9 10 13 25 13 43zm-30 5c0-12-3-21-8-28-5-7-14-10-25-10-8 0-17 2-26 6-9 4-17 9-25 14l-22 96c7 4 13 6 19 8 6 2 13 3 22 3 10 0 20-3 28-8 8-5 15-12 21-20 6-9 10-18 13-28 3-10 4-22 4-34z"/>
						<path class="fil0" d="M15351 17906c1-3 1-5 1-7 0-2 0-4 0-7 0-11-3-19-9-25-6-6-15-9-29-9-15 0-27 4-39 13-11 9-19 21-23 35l98 0zm-58 107c-23 0-42-5-55-17-13-11-20-27-20-48 0-31 10-58 29-80 20-22 44-33 73-33 19 0 34 5 44 14 10 10 15 23 15 40 0 3 0 8-1 14-1 7-2 14-4 23l-125 0c-1 3-1 6-1 9 0 3 0 5 0 8 0 14 4 25 13 34 9 8 21 12 37 12 11 0 23-2 35-6 12-4 22-9 30-15l2 0-6 31c-5 2-10 3-14 5-4 2-9 3-16 5-6 2-12 3-17 4-5 1-11 1-18 1z"/>
						<path class="fil0" d="M15536 17906c1-3 1-5 1-7 0-2 0-4 0-7 0-11-3-19-9-25-6-6-15-9-29-9-15 0-27 4-39 13-11 9-19 21-23 35l98 0zm-58 107c-23 0-42-5-55-17-13-11-20-27-20-48 0-31 10-58 29-80 20-22 44-33 73-33 19 0 34 5 44 14 10 10 15 23 15 40 0 3 0 8-1 14-1 7-2 14-4 23l-125 0c-1 3-1 6-1 9 0 3 0 5 0 8 0 14 4 25 13 34 9 8 21 12 37 12 11 0 23-2 35-6 12-4 22-9 30-15l2 0-6 31c-5 2-10 3-14 5-4 2-9 3-16 5-6 2-12 3-17 4-5 1-11 1-18 1z"/>
						<path class="fil0" d="M15776 17773l-55 236-29 0 4-18c-13 9-23 15-31 18-8 3-16 5-26 5-16 0-29-5-38-15-9-10-14-25-14-44 0-16 3-32 8-46 5-15 12-27 21-38 9-11 19-19 30-26 12-6 24-9 37-9 9 0 17 1 25 3 8 2 15 5 21 9l17-74 29 0zm-51 97c-7-4-13-6-20-8-7-2-14-2-21-2-11 0-20 3-28 8-8 5-15 12-21 21-5 8-10 18-12 29-3 11-4 22-4 33 0 12 3 22 8 28 5 7 14 10 26 10 9 0 17-2 26-6 9-4 17-9 25-14l23-97z"/>
					</g>
				</g>
			</g>
		</g>
		<g>
			<path class="fil0" d="M16305 6379l0-1810 73 0 0 1810-73 0zm6 77l62-40-62 0 188-290 62 40-188 290-62 0zm0 0l62 0-31 48-31-48zm-157-310l31-20 188 290-62 40-188-290 31-20z"/>
		</g>
		<g>
			<path class="fil0" d="M4797 9232l0-1810 73 0 0 1810-73 0zm6 77l62-40-62 0 188-290 62 40-188 290-62 0zm0 0l62 0-31 48-31-48zm-157-310l31-20 188 290-62 40-188-290 31-20z"/>
		</g>
		<g>
			<polygon class="fil3 str1" points="9655 9786 8980 9441 8444 10031 7667 9648 7097 9924 6198 9541 5196 10031 4367 9648 3848 10031 3053 9541 2172 9942 1671 9541 1187 9942 496 9541 12 9786 12 22673 456 22592 954 22949 1885 22571 2630 22918 3539 22580 4514 22967 5409 22566 6397 22918 7157 22535 8090 22918 8663 22608 9213 22918 9655 22673 "/>
			<g>
				<line class="fil1 str4" x1="595" y1="10633" x2="8612" y2="10633"/>
				<line class="fil1 str4" x1="595" y1="11203" x2="8180" y2="11203"/>
				<line class="fil1 str4" x1="595" y1="11773" x2="9182" y2="11773"/>
				<line class="fil1 str4" x1="595" y1="12914" x2="7783" y2="12914"/>
				<line class="fil1 str4" x1="595" y1="12344" x2="8837" y2="12344"/>
				<line class="fil1 str4" x1="595" y1="13484" x2="8750" y2="13484"/>
			</g>
			<g>
				<line class="fil1 str4" x1="595" y1="19075" x2="8612" y2="19075"/>
				<line class="fil1 str4" x1="595" y1="21357" x2="8180" y2="21357"/>
				<line class="fil1 str4" x1="595" y1="20216" x2="9182" y2="20216"/>
				<line class="fil1 str4" x1="595" y1="19646" x2="7783" y2="19646"/>
				<line class="fil1 str4" x1="595" y1="20786" x2="8837" y2="20786"/>
				<line class="fil1 str4" x1="595" y1="21927" x2="8750" y2="21927"/>
			</g>
			<g>
				<g>
					<a xlink:href="http://budgetapps.artzub.com/minfin">
						<image transform="matrix(0.691123 0 0 0.691123 -5690.41 9075.36)" x="10908" y="7208" width="8640" height="5218" xlink:href="d3.js.gif"/>
					</a>
				</g>
				<path class="fil0" d="M4527 18375c0 26-4 50-12 71-8 21-20 40-35 55-15 15-33 27-54 35-21 8-44 12-70 12l-129 0 0-347 129 0c25 0 49 4 70 12 21 8 39 20 54 35 15 15 27 34 35 55 8 21 12 45 12 71zm-48 0c0-21-3-40-9-57-6-17-14-31-25-43-11-12-24-20-39-27-15-6-32-9-51-9l-82 0 0 271 82 0c19 0 36-3 51-9 15-6 28-15 39-27 11-12 19-26 25-42 6-17 9-36 9-57z"/>
				<path class="fil0" d="M4582 18295c2-16 7-30 13-42 6-12 15-22 25-31 10-8 21-15 34-19 13-4 27-6 41-6 15 0 28 2 41 6 12 4 23 10 32 18 9 8 16 17 21 28 5 11 7 23 7 37 0 11-1 21-4 29-3 9-7 16-12 23-5 6-12 12-19 16-7 5-16 8-25 11 23 6 40 16 51 30 11 14 17 32 17 53 0 16-3 30-9 43-6 13-14 24-25 33-10 9-23 16-37 21-14 5-29 7-45 7-18 0-34-2-47-7-13-5-24-11-33-19-9-8-16-18-22-29-6-11-11-23-15-36l19-8c5-2 10-3 14-2 5 1 8 4 10 8 2 5 5 10 8 16 3 6 7 12 13 18 5 6 12 11 21 15 8 4 19 6 32 6 12 0 23-2 32-6 9-4 17-9 23-15 6-6 11-13 14-21 3-8 5-15 5-23 0-9-1-18-4-26-2-8-7-14-14-20-7-6-16-10-27-13-12-3-26-5-44-5l0-31c15 0 27-2 38-5 10-3 19-7 25-13 7-5 11-12 14-19 3-7 4-16 4-25 0-10-2-19-5-26-3-7-8-14-13-18-5-5-12-8-19-11-8-2-16-4-24-4-9 0-17 1-24 4-7 3-14 6-20 11-6 5-11 10-14 16-4 6-7 13-8 21-2 6-5 9-8 11-3 2-8 2-14 2l-23-4z"/>
				<path class="fil0" d="M4858 18521c0-4 1-8 2-12 2-4 4-7 6-10 3-3 6-5 10-7 4-2 8-2 12-2 4 0 8 1 12 2 4 2 7 4 10 7 3 3 5 6 7 10 2 4 2 8 2 12 0 4-1 8-2 12-2 4-4 7-7 10-3 3-6 5-10 6-4 2-8 2-12 2-4 0-8-1-12-2-4-2-7-4-10-6-3-3-5-6-6-10-2-4-2-8-2-12z"/>
				<path class="fil0" d="M5025 18303l0 263c0 10-1 19-4 27-3 8-7 16-12 22-6 6-13 11-22 15-9 4-19 5-32 5-5 0-10 0-14-1-4-1-9-2-13-4l2-23c0-1 1-3 2-3 1-1 2-1 3-1 1 0 3 0 5 0 2 0 5 0 8 0 13 0 22-3 27-9 5-6 8-15 8-28l0-263 43 0zm9-77c0 4-1 8-2 12-2 4-4 7-7 10-3 3-6 5-10 7-4 2-8 2-12 2-4 0-8-1-12-2-4-2-7-4-10-7-3-3-5-6-7-10-2-4-2-8-2-12 0-4 1-8 2-12 2-4 4-7 7-10 3-3 6-5 10-7 4-2 7-2 12-2 4 0 8 1 12 2 4 2 7 4 10 7 3 3 5 6 7 10 2 4 2 8 2 12z"/>
				<path class="fil0" d="M5238 18343c-2 4-5 5-9 5-2 0-5-1-8-3-3-2-7-4-11-6-4-2-10-4-16-6-6-2-13-3-22-3-7 0-14 1-20 3-6 2-11 4-15 8-4 3-7 7-9 11-2 4-3 9-3 14 0 6 2 12 5 16 4 4 8 8 14 11 6 3 13 6 20 8 8 2 15 5 23 7 8 3 16 6 23 9 8 3 14 7 20 12 6 5 11 11 14 18 4 7 5 15 5 25 0 11-2 22-6 31-4 10-10 18-18 25-8 7-18 13-29 17-11 4-25 6-40 6-17 0-33-3-46-8-14-6-26-13-35-21l10-16c1-2 3-4 5-5 2-1 4-2 7-2 3 0 6 1 9 3 3 2 7 5 12 7 5 3 10 5 17 8 7 2 15 3 25 3 8 0 16-1 22-3 6-2 12-5 16-9 4-4 7-8 9-13 2-5 3-10 3-15 0-7-2-12-5-17-4-4-8-8-14-11-6-3-13-6-20-8-8-2-15-5-23-7-8-3-16-6-23-9-8-3-15-7-20-12-6-5-11-11-14-19-4-7-5-16-5-27 0-9 2-18 6-27 4-9 10-16 17-23 7-7 17-12 27-16 11-4 23-6 37-6 16 0 31 2 43 8 13 5 24 12 33 21l-10 16z"/>
				<g>
					<path class="fil3 str3" d="M6344 17214c74-27 157 12 183 87l117 329c15-16 34-29 56-36 55-20 114-4 152 36 16-21 38-38 65-47 55-20 114-4 152 36 16-21 38-38 65-47 74-27 157 12 183 87l46 129 9 25c35 100 66 236-10 403l-2 4c-28 53-64 101-108 142l0 0c-49 50-106 87-167 109-18 6-37 12-56 16-183 37-344-56-404-97l-2-1-3-2-2-1c-66-47-133-107-199-176l-1-1c-17-19-37-42-68-77l-16-18c-67-78-101-133-111-179-4-17-5-34-2-50l1-7 0-1c8-34 32-62 64-77l1-1 7-3 4-1 6-2 3-1c21-5 54-6 94 17l1 1-131-368-16-45c-27-74 12-157 87-183z"/>
					<path class="fil2" d="M6371 17290c32-12 68 5 80 38l160 449c8 22 32 33 53 25 22-8 33-32 25-53-12-32 5-68 38-80 32-12 68 5 80 38l21 59c8 22 32 33 53 25 22-8 33-32 25-53-12-32 5-68 38-80 32-12 68 5 80 38l21 59c8 22 32 33 53 25 22-8 33-32 25-53-12-32 5-68 38-80 32-12 68 5 80 38l46 129 9 24c26 75 61 193-7 343-24 45-56 87-94 122 0 0-1 1-1 1-43 44-89 72-137 89-15 5-30 9-45 13-127 26-256-25-342-85-2-1-3-2-5-3-74-53-139-116-187-166-19-21-43-48-82-92-56-66-87-113-93-144-2-7-2-14-1-20 0-1 0-1 0-2 2-10 10-18 19-22 0 0 1 0 2-1 0 0 1 0 1 0 1 0 2 0 2-1 9-2 20 0 33 8 9 6 20 14 33 25l55 48c6 5 12 11 19 17l1 1 22 20 0 0c27 22 42 28 50 25 19-7 0-60 0-60l-14-41-178-499-16-45c-11-32 6-68 38-80m-27-76c-74 27-113 109-87 183l16 45 131 368c0 0-1-1-1-1-39-23-73-22-94-17-1 0-2 0-3 1-2 1-4 1-6 2-1 0-2 1-4 1-2 1-4 2-7 3 0 0-1 0-1 1-33 15-56 43-64 77 0 0 0 1 0 1-1 2-1 5-1 7-3 16-2 33 2 50 10 46 44 101 111 179l16 18c30 35 51 58 68 77 0 0 1 1 1 1 66 70 133 129 199 176l2 1 3 2c1 0 1 1 2 1 61 42 221 135 404 97 19-4 38-9 56-16 61-22 118-58 167-109l0 0c0 0 0 0 0 0 44-41 80-89 108-142 1-1 1-3 2-4 76-167 45-303 10-403l-9-25-46-129c-27-74-109-113-183-87-27 10-49 26-65 47-38-40-97-56-152-36-27 10-49 26-65 47-38-40-97-56-152-36-22 8-41 21-56 36l-117-329c-27-74-109-113-183-87l0 0z"/>
				</g>
			</g>
		</g>
	</g>
</svg>
