<?xml version="1.0" encoding="UTF-8"?>
<svg xmlns="http://www.w3.org/2000/svg" xmlns:xlink="http://www.w3.org/1999/xlink" xml:space="preserve" height="100px" viewBox="0 0 17842 8765" version="1.1" baseProfile="full" style="clip-rule:evenodd;fill-rule:evenodd;image-rendering:optimizeQuality;shape-rendering:geometricPrecision;text-rendering:optimizeLegibility">
	<defs>
		<style type="text/css"><![CDATA[
			.str0 {stroke:white;stroke-width:6.85382}
				.fil4 {fill:none}
				.fil3 {fill:white}
				.fil2 {fill:#365A07;fill-rule:nonzero}
				.fil0 {fill:#3BB84C;fill-rule:nonzero}
				.fil1 {fill:white;fill-rule:nonzero}
		]]></style>
	</defs>
	<g>
		<g>
			<image transform="matrix(1 0 0 1 -5314.57 -7242.83)" x="9919" y="9306" width="2333" height="2333" xlink:href="omsklug.png"/>
		</g>
		<g>
			<path class="fil0" d="M5070 5874c124 12 245 63 370 65 138 2 281-22 420-29 163-7 323 9 486 12-12-102-32-204-47-306-20-138-63-330-201-397-183-89-388-74-585-74-95 0-168 21-238 87-117 111-133 261-154 412-5 35-15 73-18 107-4 52-5 76-33 123zm7586 1803c-11-3-23-5-34 1-2 1-5 15-6 17-29 116-31 249-79 358-49 113-150 211-162 339-5 55 5 126 41 169 59 71 371 101 462 91 116-12 235-8 342-55 41-18 158-53 151-115-3-27-27-51-40-72-69-108-99-257-133-381-33-117-41-254-85-366-8-21-17-32-40-32-28 0-89 47-116 63-116 67-189 19-302-16zm-422-23c-101 78-202 99-309 58-28-44-31-68-115-52-17 24-26 51-39 76-36 77-83 150-124 225-78 143-172 278-273 408-31 40-107 111-120 154-14 43 24 83 61 94 59 18 391 24 463 31 176 15 162 10 329-64 43-19 87-25 116-68 18-26 19-56 20-84 3-56-3-111-5-166-3-62 17-544 30-576l-35-34 0 0zm1429-2072c-75-38-150-86-225-121-51-24-101-50-152-75-36-18-105-36-125-90-6-15-7-33-3-54 7-35 34-47 73-42 107 12 299 91 406 175 15-71 48-150 54-176 18-74 35-181 52-213 8-15 140-46 150 23 11 79-20 243-73 370-15 58-57 174-92 212-14 15-49-1-64-9l0 0zm-2103 1085c27 8 57 2 86 11 26 8 44 32 69 38 60 14 98-178 117-216 29-60 63-119 88-181 16-39 123-269 134-309 31-109 126-230 111-245-28-28-75-62-117-43-132 61-381 771-508 887-18 17 11 45 21 58l0 0zm1784-489l-32 26c-46 40-107 64-164 84-92 32-193 64-291 60-88-4-98-16-185 2-12 2-28 8-32 15-9 18-16 40-19 60-2 10-1 43 25 81l0 0c22 28 196 112 229 134 33 22 25 52 39 77 15 26 24 50 37 63 20 20 77 13 152-39 34-24 70-42 104-67 98-73 170-160 225-293 21-50 30-80 40-133 7-37 13-61 13-96-1-77-34-108-73-47-23 31-39 48-68 73zm-841-924c-33 18-89 38-101 77-8 27 66 186 65 254-2 122-105 151-107 200-2 74 224 332 257 448 13 45 0 50 52 68 95 33 341-17 447-48 111-32 256-120 287-243 58-230-264-472-423-593-84-64-195-175-299-198-59-13-126 7-178 34zm1949-1491c54-5 119-13 170 14 160 84 70 413-66 270-32-34-62-70-80-113-23-55-30-112-24-171zm-903 716c9-34-25-56-38-82-13-26-28-120-30-123-29-34-64-2-76 29-53 133 61 281 127 209 8-9 14-18 17-32l0 0zm601-856c-39 24-119 205-163 259-45 56-87 87-148 123-19 12-34 23-44 58-28 97 71 313 186 329 25 4 55-9 82-14 64-10 129-4 194-1 68 3 139 1 206 10 40 6 71-15 62-59-130-67-262-171-320-309-37-88-35-187-29-279 3-44 31-85-16-111l-12-7 0 0zm-1138 1170c0 0 3-16 2-27-2-21-7-42-22-50-9-23-4-41-6-65 109-42 126-150 75-248-19-36-58-72-87-100-32-30-123-9-157 8-93-62-311-80-427-74-384 19-682 133-794 533-16 56-33 115-39 174-28 269 100 439 383 405 127-15 251-71 371-111 123-41 450-177 547-259 73-62 140-92 155-186l0 0zm1607-2021c-156-624 411-1302 1265-1514 854-213 1672 120 1828 744 156 624-411 1302-1265 1514-320 80-634 83-911 23-241 244-795 324-795 324 0 0 293-246 406-463-267-140-460-357-528-628l0 0zm-10272 3422c36-130 198-156 181-45-10 63-208 950-236 1113-23 132-19 291-95 406-31 46-89 74-137 35-60-49-37-138-19-202 34-122 53-246 86-368 38-140 50-260 88-425 46-202 126-491 132-515l0 0zm2216-1660c82-14 147 49 160 113 64 238 323 1050 367 1226 23 100 24 239-28 336-23 55-121 95-133 12-27-164-45-331-90-491-64-234-106-475-191-704-47-133-100-264-144-398-11-42 13-91 60-93zm-670 4056c-19-87-31-131-29-217 2-120-23-242 71-301 39-25 83-24 129-26 100-5 305-43 350 63 59 139 81 304 85 453 1 39-14 72-60 83-18 5-441 5-488 0-25-3-52-32-57-56l0 0zm-739 56c132 15 279 8 417 0 49-3 67-42 61-88-5-38-4-80-5-132-3-96 12-152-3-247-5-33 3-58-18-84-26-32-79-30-100-30-53-2-114-3-175-3-118 0-178 4-234 19-120 32-75 303-81 389-1 18 2 116 54 152 28 19 65 21 84 24l0 0zm1222-2647c-182 27-366 26-549 30-194 4-389 14-584-1-65-5-232-25-247-37-163 445-94 940-176 1401-9 51 52 117 91 148 160 132 939 46 1165 36 130-6 351-21 456-103 121-95 113-291 111-428-2-197-47-378-86-569-11-55-17-111-29-166-20-96-152-311-152-311l0 0zm4235-5999c-129 18-594 118-969 213-466 118-951 201-1181 349-125 112-72 302-56 449 76 389 190 769 305 1147 51 157 119 328 263 417 213 77 437-15 649-51 249-56 458-91 747-168 167-45 263-65 425-124 172-63 317-75 429-192 128-148 76-360 30-533-72-206-126-418-168-632-62-209-125-427-188-635-41-117-164-243-285-239l0 0zm326 5251c-52 15-154 37-162 98-16 116 132 730 190 840 22 43 60 57 106 55 42-2 88-6 96-56 16-95-90-417-119-527-13-51-90-400-111-410l0 0zm-840-2673c30 124 106 410 138 534 60 266 141 528 198 794 35 194 89 384 123 578 15 90 116 45 177 54 98-13 13-138 10-200-68-275-160-545-213-824-63-296-159-710-257-997-17-34-197-12-178 60l0 0zm-622 4734c-71 1-6 127-42 167-54 75-154 99-243 133-53 21-106-60-126-114-8-32-2-69-15-88-38-56-107-72-88 1 3 85 35 165 39 249 23 194 26 390 27 586 0 113-30 229 1 341 26 59 102 67 154 62 96-7 489 12 589 0 82 1 113-89 77-155-34-134-99-258-134-392-38-123-89-242-112-369-20-103-35-207-62-308-10-41-10-111-66-114l0 0zm-1119-20c-62 15-39 98-48 145-10 97-29 193-36 291-12 103-43 203-65 304-26 107-58 212-89 317-16 77-38 169 11 239 46 64 132 60 202 62 157 1 315 10 472 0 45-5 117-15 120-76-20-161-28-323-36-484-1-170-35-339-16-508 4-69 15-137 13-206 13-42-56-19-71-13 2 55-7 110-16 164-38 46-92 93-153 92-55-3-130-1-187-51-76-66-20-160-62-249-9-15-24-27-42-27l0 0zm1410-2233c-39-1-74 45-97 67-26 24 7 49 23 73 42 65 89 127 130 193 24 38 58 79 107 80 76 2 313-149 399-193 24-12 79-41 94-63 34-52-57-140-115-120-74 26-250 146-321 154-103 12-152-189-219-191l0 0zm-1803-446c-39-24-45-78-74-115-51-97-93-198-133-300-40-94-154-402-164-465-15-59-6-135 51-168 48-36 132-38 166 18 18 43 9 92 16 137 9 75 22 151 45 223 41 110 71 223 115 331 25 72 48 145 83 213 30 42 30 97-10 126-30 21-56 19-95-1l0 0zm1569 1222c-54-25-61 74-104 113-63 58-182 130-268 147-94 18-376 2-476-14-127-20-205-91-312-159-66-42-76 31-79 89-6 112 13 160 63 252 70 128 59 264 232 314 117 35 233 47 355 41 125-7 256 9 370-55 138-78 213-291 232-436 9-69 22-137 34-206 6-31-12-69-46-85l0 0zm-816-1201c-93-3-197 31-245 116-54 96-71 238-82 347-17 160-11 326-18 487-5 104 22 192 100 276 76 82 158 109 259 121 138 17 311 54 480-27 68-33 85-58 160-110 114-78 162-256 148-387-18-171-87-678-236-770-105-65-517-53-567-55l0 0zm709-596c4 67-17 175-74 218-127 96-649 29-800-21-92-30-117-118-158-191-12-22-21-39-27-53-84-22-146-107-140-196 3-46 28-108 70-132 55-32 32-59 39-118 9-76-13-161 10-237 28-91 159-143 245-156 106-15 222-28 329-32 50-1 378 1 468 65 92 65 120 178 113 285-5 82-4 167-24 247 82 45 80 137 47 211-28 64-67 62-98 108l0 0z"/>
			<path class="fil1" d="M8410 3693c160 6 210 207 31 243-177 36-214-250-31-243zm-2903 1887c-146-145-378 89-211 202 128 86 364-49 211-202zm6723-958c159-4 271 222 111 287-35 14-75 19-112 11-109-24-167-203-64-270 18-11 43-28 64-28l0 0zm678-265c82-2 149 120 119 193-21 51-103 68-150 46-99-47-120-235 31-239l0 0zm-6739 1233c-113-75-319-5-266 127 42 106 259 139 301 13 12-36 5-76-17-106-8-10-13-22-18-34zm3226-1843c139-1 116 217-7 225-163 11-130-225 7-225z"/>
			<path class="fil1" d="M16018 2662c-148-196-370-263-615-221l423-479c246-39 524 22 600 286l-399 426c0 0-6-8-9-12l0 0zm689-703c0 0-78 11-122 138-37 108-69 149-99 182l-431 448c0 0-74 68-163 94-122 35-365 74-440 83-75 9-24 52 56 100 80 48 92 71 253-15 160-87 314-7 643-102 329-94 396-358 390-551-6-193 18-235 38-252 19-16 92-39 92-39l-85-28c0 0-10-15-46-43-36-27-86-17-86-17l0 0zm-229 243c-41-120-116-200-213-250l350-271c-94 158-114 386-114 496l-23 25z"/>
			<path class="fil2" d="M11676 7113c-24-11-50-13-72-4-115 45-49 204-14 280 19 41 43 103 75 135 17 17 39 34 65 32 123-13 42-235 21-292-17-47-37-113-74-149l0 0zm-3065-468c-37-4-62 39-70 77-20 107-5 221-22 329-14 86-58 388 5 449 41 39 96 77 151 39 44-30 53-105 57-153 18-195 43-386 48-582 1-39-1-87-38-111-16-10-113-47-131-48l0 0zm690 56c-19-52-136-33-184-3-76 47-54 276-37 353 30 144 21 291 70 431 11 32 36 62 73 50 141-45 131-66 135-188 3-100-14-270-25-369-8-69-26-258-32-274l0 0zm-423-2330c-25 1-57 0-80 13-55 32-46 136 2 171 49 36 274 1 301-18 34-25 46-81 16-114-45-49-176-53-240-51l0 0zm533 248c-10 9-14 23-16 40-2 24 13 35 21 58 35 98 66 159 78 255 12 101 153 49 206 25 232-105 55-406-128-403-47 1-147 12-161 25zm-1118-38c-54-1-109 14-151 49-47 38-72 95-80 154-14 62-3 134 42 181 35 32 81 48 124 65 29 10 63 13 92 1 25-13 24-44 24-68 0-42 4-84 13-126 10-36 23-70 42-102 15-28 30-56 46-84-13-16-53-51-96-63-21-6-38-6-56-6l0 0zm-505-1109c-65 1-130 7-194-4-32-5-62-23-78-52-26-42-28-93-32-141-1-39-8-77-9-115 2-42 14-89 50-114 23-14 51-21 78-23 32 2 55 28 78 46 19 16 42 27 57 47 31 34 58 78 56 126-1 39-5 158-2 173 1 3-4 54-5 56l0 0zm56-150c-18-19-21-43-24-62-7-39 2-79 17-116 12-32 28-62 40-93 11-21 23-43 43-57 23-14 58-11 72 14 15 27 16 59 19 89 2 45 0 93-20 134-20 40-49 90-85 117-11 2-45-8-63-27zm-61-305c-5 13-28 22-55 28-33 7-131-77-195-93-26-7-47-32-40-59 26-100 95-148 190-172 67-17 273-21 289 67 5 25 1 59-21 75-24 17-57-1-81 21-42 35-66 85-86 134l0 0zm2692 1882c14-19 28 2 47 5 44 5 103 16 111 20 24 13 28 12 37 32 23 51 118 267 64 308-19 15-43 5-65-2-26-9-44-40-68-50-76-30-113-114-128-219-7-49-18-67 2-94l0 0zm418-74c-40 1-87 3-121 26-45 29-87 440 140 353 30-11 66-26 91-47 73-61 70-247-1-310-31-27-70-23-109-22l0 0zm-377-32c29-76 87-215 182-217 33-1 36 23 58 23 50 0 147 76 142 130-2 16-21 36-31 49-37 45-127-25-155 5-34 36-96 111-152 73-14-10-50-45-43-64l0 0zm-5700 1163c42 13 98 39 82 78-47 111-71 313-78 435-2 27 2 58-3 85-16 76-189 35-244 24-35-7-52-39-49-73 7-97 82-424 147-489 51-51 87-76 146-59l0 0zm1761-36c61 0 127 14 179 47 87 56 184 471 131 559-26 43-78 89-129 99-39 8-65-7-84-40-44-76-44-159-70-242-25-78-44-154-77-230-19-44-35-99-22-146 10-35 39-48 73-48l0 0zm-83 1694c82-16 133 32 118 110-10 74-86 171-153 187-146 18-293 22-439 39-131 10-261 28-393 26-190 2-377-11-567-16-69-6-145-1-206-40-34-50-57-117-51-179 25-69 114-52 172-58 135-1 269 24 405 14 225-4 422-5 691-31 165-16 384-51 422-53l0 0zm114-3521c83 4 178 16 249 60 150 92 181 461-34 491-167 24-9-204-77-291-49-62-190-56-227-145-26-61 21-119 90-116l0 0zm-125 644c-38 35-80 22-131 14-58-9-121-49-136-67-43-53-89-113-80-226 12-144 122-284 225-283 43 1 78 26 94 65 15 37 6 61-12 84-29 37-81 69-88 145-2 24 1 53 9 86 20 82 182 123 120 181zm-2015 2992c16 122-65 472-255 373-43-23-49-85-30-125 22-44 60-79 88-120 54-81 51-145 35-237-6-36 19-73 57-77 58-7 98 130 105 187zm-500-220c-18-27-47-45-77-33-56 23-159 152-176 206-17 57-21 123-8 186 12 58 22 118 79 152 26 15 55 21 74 23 34 4 62-17 74-45 35-81-61-154-64-234-4-95 135-199 97-256l0 0zm9732-3445c-125 38-200 171-149 283 25 82 97 136 173 167 80 27 156-69 121-143-54-68-69-130-98-209-11-31 3-113-47-98zm795-651c-31 2-99 32-121 55-35 36-99 89-113 138-30 104-60 231-25 336 40 120 96 198 186 284 51 48 141 67 207 86 35 10 80 14 117 13 36-1 92-35 55-74-25-26-86 7-127-2-94-19-234-228-266-314-29-79-40-247-18-328 10-37 36-64 63-90 20-19 36-44 67-43 7 0 12 4 19 3 22-4-2-40-19-53-8-6-16-11-25-10l0 0 0 0zm-2275 1971c-174 19-203 299 5 311 195 11 181-331-5-311zm632-240c58-52 149-6 198 36 77 66 96 172 51 188-51 19-165-82-204-111-25-18-83-32-75-72 4-20 16-28 31-42l0 0zm1011-629c81-48 204-62 240-13 34 46 22 110-65 174-29 22-109 54-182 49-48-3-101-7-92-91 1-10 4-19 8-28 0 0 47-65 90-91l0 0zm328 100c22 4 33 38 24 83-8 40-31 89-77 136-99 102-284 52-238-26 25-43 156-80 221-151 21-23 53-45 70-42zm65 204c31 16 29 50 9 88-37 73-146 131-185 135-99 9-138-67-22-112 74-28 150-106 197-111zm-704-143c122-62 290 110 184 199-113 94-297-142-184-199zm-1934 2396c84-16 95-190 59-251-21-34-54-55-85-78-48-36-68-42-125-18-150 63-98 264 25 322 20 9 106 28 127 24l0 0zm138-197c31-41 139-3 209 28 83 36 138 98 71 179-34 41-119 26-189-13-81-46-144-125-91-193zm-301 186c-38-6-56 11-65 45-20 77 1 216 15 288 11 60 86 131 119 112 51-29 17-107 7-154-14-65-13-90-31-154-7-26 11-70 3-94-5-18-30-40-48-43zm1174-400c-37 12-77 34-93 67-40 82-86 159-125 242-41 85-93 151-150 222-82 102-166 174-252 267-29 31-82 102-86 148-6 62 111 54 148 64 53 15 58-7 85-51 33-54 98-112 142-155 64-63 122-135 175-211 100-144 227-326 311-476 25-46-44-61-72-87-19-18-56-37-83-29l0 0zm688-13c-34 64-145 130-176 165-22 25-114 105-137 142-72 118-109 221-150 324-33 83-67 153-99 235-14 36-5 106 49 128 31 12 73 13 105 4 48-13 53-93 84-154 41-82 61-142 96-216 73-153 154-310 206-474 8-27 21-50 31-77 16-44 4-65-8-78l0 0zm-1967 313c-92-11-80 76-106 162-15 50-13 119 32 147 51 32 48-53 59-92 15-55 9-49 20-104 4-22 16-45 20-67 3-15-7-43-24-45l0 0z"/>
			<path class="fil3" d="M8830 5173l211 0 0-232-211 0 0 232zm121 557l94 0 0-232-94 0 0 232zm-124 0l94 0 0-232-94 0 0 232zm255-278l211 0 0-232-211 0 0 232zm-253 0l211 0 0-232-211 0 0 232zm-253 0l211 0 0-232-211 0 0 232z"/>
			<path class="fil3" d="M5336 6810c0-77 60-138 157-138 0 0 2 0 2 0 83 0 125 41 144 75 6 10 9 20 11 28 4 14-1 30-13 37-6 4-13 5-20 2-7-2-20-22-20-22-7-11-24-35-56-48-14-5-30-8-49-8-60 0-96 28-96 71 0 31 19 55 52 63 0 0 103 25 103 25 56 14 106 47 106 123 0 81-62 141-162 141 0 0-4 0-4 0-87 0-132-42-152-76-6-11-9-20-11-28-4-14 1-31 14-38 7-4 14-5 21-2 7 2 21 22 21 22 8 12 25 36 60 49 15 6 33 8 52 8 67 0 100-30 100-73 0-29-19-54-50-61 0 0-106-25-106-25-56-13-103-51-103-125l0 0zm-150-220c0 0 0 77 0 77 0 0 88 0 88 0 15 0 28 14 28 32 0 17-12 32-28 32 0 0-88 0-88 0 0 0 0 395 0 395 0 19-14 35-31 35-17 0-31-16-31-35 0 0 0-395 0-395 0 0-53 0-53 0-15 0-28-14-28-32 0-17 12-32 28-32 0 0 53 0 53 0 0 0 0-69 0-69 0-85 47-128 118-128 0 0 33 0 33 0 15 0 28 14 28 32 0 17-12 32-28 32 0 0-33 0-33 0-42 0-55 17-55 57l0 0zm651 0c0 0 0 77 0 77 0 0 88 0 88 0 15 0 28 14 28 32 0 17-12 32-28 32 0 0-88 0-88 0 0 0 0 395 0 395 0 19-14 35-31 35-17 0-31-16-31-35 0 0 0-395 0-395 0 0-53 0-53 0-15 0-28-14-28-32 0-17 12-32 28-32 0 0 53 0 53 0 0 0 0-69 0-69 0-85 47-128 118-128 0 0 33 0 33 0 15 0 28 14 28 32 0 17-12 32-28 32 0 0-33 0-33 0-42 0-55 17-55 57l0 0zm179 283c0 0 252 0 252 0-10-96-58-138-118-138-74 0-122 52-135 138zm136 221c67 0 96-40 106-56 0 0 13-20 21-22 7-2 14-2 21 2 12 7 18 23 14 38-2 8-5 17-11 28-20 34-65 76-152 76-119 0-195-87-195-237 0-130 60-253 195-253 102 0 168 82 177 215 0 50-18 52-68 52 0 0-246 0-246 0 6 142 92 158 138 158l0 0z"/>
			<path class="fil3" d="M10258 703c97-47 133 49 160 120 45 120 144 506 122 631-9 53-26 61-78 69l-204-819zm-462 1177c47-6 144-28 174-51 5-67-117-440-127-540 46-26 168-33 183-57 17-46-16-118-25-165l-205 50-72-293 234-59c8-54-18-111-26-160l-398 98c-61 20-7 133 5 180 40 161 237 972 256 998zm-607-856c74 100 148 454 166 582 17 119 25 198-73 215l-205-823c60-15 83-15 112 25zm-51 1022c74-11 255-56 308-91 253-165 62-758-19-942-39-88-97-169-188-196-99-28-229 18-323 41-85 21-72 26-49 110l117 462c36 142 134 499 154 615zm1185-300c56-7 139-32 195-47 239-61 254-258 223-489-32-233-122-614-300-683-71-27-133-17-205-1-33 7-179 41-194 54-26 22 20 151 29 187 16 66 32 130 49 198 24 94 185 752 202 783z"/>
		</g>
	</g>
</svg>
