<?xml version="1.0" encoding="UTF-8"?>
<svg xmlns="http://www.w3.org/2000/svg" xmlns:xlink="http://www.w3.org/1999/xlink" xml:space="preserve" height="460px" viewBox="0 0 17607 9155" version="1.1" baseProfile="full" style="clip-rule:evenodd;fill-rule:evenodd;image-rendering:optimizeQuality;shape-rendering:geometricPrecision;text-rendering:optimizeLegibility">
	<defs>
		<style type="text/css"><![CDATA[
			.str3 {stroke:white;stroke-width:7.45976}
			.str2 {stroke:black;stroke-width:97.8971}
			.str1 {stroke:white;stroke-width:97.8971;stroke-linecap:round;stroke-linejoin:round}
			.str0 {stroke:black;stroke-width:55.1748}
			.fil6 {fill:none}
			.fil5 {fill:none;fill-rule:nonzero}
			.fil2 {fill:black}
			.fil4 {fill:white}
			.fil1 {fill:black;fill-rule:nonzero}
			.fil0 {fill:#c40606;fill-rule:nonzero}
			.fil3 {fill:white;fill-rule:nonzero}
		]]></style>
	</defs>
	<g>
		<g>
			<path class="fil0" d="M8696 855l234 0 0 100-234 0 0-100zm-2-493l234 0 0 100-234 0 0-100zm2 234l234 0 0 100-234 0 0-100z"/>
			<path class="fil1" d="M8277 956l0-493-176 0 0-100 471 0 0 100-175 0 0 493-120 0zm772 0l0-593 120 0 0 234 234 0 0-234 120 0 0 593-120 0 0-259-234 0 0 259-120 0z"/>
			<g>
				<polygon class="fil1" points="9647 855 9881 855 9881 956 9647 956 "/>
				<polygon class="fil1" points="9646 362 9879 362 9879 462 9646 462 "/>
				<polygon class="fil0" points="9724 795 9724 523 9803 523 9803 795 "/>
			</g>
		</g>
		<g>
			<path class="fil1" d="M9050 1986l0-593 120 0 0 234 234 0 0-234 120 0 0 593-120 0 0-259-234 0 0 259-120 0zm-772 0l0-493-176 0 0-100 471 0 0 100-175 0 0 493-120 0z"/>
			<path class="fil0" d="M8696 1886l234 0 0 100-234 0 0-100zm-2-493l234 0 0 100-234 0 0-100zm2 234l234 0 0 100-234 0 0-100z"/>
			<g>
				<polygon class="fil1" points="9647 1886 9881 1886 9881 1986 9647 1986 "/>
				<polygon class="fil1" points="9646 1392 9879 1392 9879 1493 9646 1493 "/>
				<polygon class="fil0" points="9724 1825 9724 1553 9803 1553 9803 1825 "/>
			</g>
			<g>
				<polygon class="fil1" points="10003 1886 10237 1886 10237 1986 10003 1986 "/>
				<polygon class="fil1" points="10001 1392 10235 1392 10235 1493 10001 1493 "/>
				<polygon class="fil0" points="10080 1825 10080 1553 10158 1553 10158 1825 "/>
			</g>
		</g>
		<g>
			<path class="fil1" d="M9050 3010l0-593 120 0 0 234 234 0 0-234 120 0 0 593-120 0 0-259-234 0 0 259-120 0zm-772 0l0-493-176 0 0-100 471 0 0 100-175 0 0 493-120 0z"/>
			<path class="fil0" d="M8696 2910l234 0 0 100-234 0 0-100zm-2-493l234 0 0 100-234 0 0-100zm2 234l234 0 0 100-234 0 0-100z"/>
			<g>
				<polygon class="fil1" points="9647 2910 9881 2910 9881 3010 9647 3010 "/>
				<polygon class="fil1" points="9646 2417 9879 2417 9879 2517 9646 2517 "/>
				<polygon class="fil0" points="9724 2850 9724 2577 9803 2577 9803 2850 "/>
			</g>
			<g>
				<polygon class="fil1" points="10003 2910 10237 2910 10237 3010 10003 3010 "/>
				<polygon class="fil1" points="10001 2417 10235 2417 10235 2517 10001 2517 "/>
				<polygon class="fil0" points="10080 2850 10080 2577 10158 2577 10158 2850 "/>
			</g>
			<g>
				<polygon class="fil1" points="10358 2910 10592 2910 10592 3010 10358 3010 "/>
				<polygon class="fil1" points="10357 2417 10591 2417 10591 2517 10357 2517 "/>
				<polygon class="fil0" points="10435 2850 10435 2577 10514 2577 10514 2850 "/>
			</g>
		</g>
		<g>
			<g>
				<path class="fil1" d="M7648 2969l-1-2507 49 0 1 2507-49 0zm4 51l41-27-41 0 125-193 41 27-125 193-41 0zm0 0l41 0-21 32-21-32zm-105-206l21-13 125 193-41 27-125-193 21-13z"/>
			</g>
			<g>
				<path class="fil2" d="M6983 781l-479-194c-20 42-35 92-40 159 284 8 539 308 539 308 0 0 275-301 554-307-7-77-25-133-49-179l-525 212z"/>
				<path class="fil2" d="M7834 401l0-58-116-47-31-50c-21-29-97-43-138-18l-563-227-847 343 0 58 435 176 412 167 452-183 199-81 11 612 41 0 20-641 123-50z"/>
			</g>
		</g>
		<g>
			<polygon class="fil1" points="2514 7917 2366 7917 2366 7875 2514 7875 "/>
			<polygon class="fil1" points="2885 7911 2613 8032 2613 7989 2828 7896 2613 7803 2613 7760 2885 7881 "/>
			<path class="fil1" d="M3349 7820c-1 2-3 4-4 5-1 1-3 2-6 2-3 0-6-1-9-3-3-2-7-5-12-8-5-3-11-5-18-8-7-2-16-3-26-3-14 0-26 2-36 7-10 5-19 12-26 21-7 9-12 20-16 33-4 13-5 28-5 44 0 17 2 32 6 45 4 13 9 24 16 33 7 9 16 16 26 20 10 5 21 7 34 7 12 0 22-1 30-4 8-3 14-6 19-9 5-3 9-7 13-10 3-3 7-4 10-4 4 0 7 2 9 5l14 18c-6 8-13 14-21 19-8 5-16 10-25 13-9 4-18 6-28 8-10 2-20 2-30 2-18 0-34-3-49-10-15-6-28-16-39-28-11-12-20-27-26-45-6-18-9-38-9-61 0-21 3-40 9-58 6-18 14-33 25-46 11-13 25-23 41-30 16-7 35-11 56-11 20 0 37 3 52 9 15 6 28 15 40 27l-13 18z"/>
			<path class="fil1" d="M3581 7817c-2 4-6 6-10 6-3 0-6-1-9-3-4-2-8-4-13-7-5-2-11-5-18-7-7-2-15-3-25-3-8 0-16 1-22 3-7 2-12 5-17 9-5 4-8 8-11 13-2 5-4 10-4 16 0 7 2 13 6 18 4 5 10 9 16 12 7 4 15 7 23 9 9 3 18 6 27 9 9 3 18 6 27 10 9 4 16 8 23 14 7 6 12 12 16 20 4 8 6 18 6 29 0 13-2 25-7 36-5 11-11 20-20 28-9 8-20 14-33 19-13 5-28 7-45 7-20 0-37-3-53-10-16-6-29-14-40-24l12-19c1-2 3-4 5-6 2-1 5-2 8-2 3 0 7 1 10 4 4 3 8 5 13 9 5 3 12 6 19 9 8 3 17 4 28 4 10 0 18-1 25-4 7-2 13-6 18-10 5-4 8-9 11-15 2-6 3-11 3-18 0-8-2-14-6-19-4-5-10-9-16-13-7-4-15-7-23-9-9-3-18-5-27-8-9-3-18-6-27-10-9-4-17-8-23-14-7-6-12-13-16-21-4-8-6-19-6-30 0-11 2-21 7-31 4-10 11-19 19-26 8-7 19-13 31-18 12-4 26-7 42-7 18 0 35 3 50 9 15 6 27 14 38 24l-11 18z"/>
			<path class="fil1" d="M3821 7817c-2 4-6 6-10 6-3 0-6-1-9-3-4-2-8-4-13-7-5-2-11-5-18-7-7-2-15-3-25-3-8 0-16 1-22 3-7 2-12 5-17 9-5 4-8 8-11 13-2 5-4 10-4 16 0 7 2 13 6 18 4 5 10 9 16 12 7 4 15 7 23 9 9 3 18 6 27 9 9 3 18 6 27 10 9 4 16 8 23 14 7 6 12 12 16 20 4 8 6 18 6 29 0 13-2 25-7 36-5 11-11 20-20 28-9 8-20 14-33 19-13 5-28 7-45 7-20 0-37-3-53-10-16-6-29-14-40-24l12-19c1-2 3-4 5-6 2-1 5-2 8-2 3 0 7 1 10 4 4 3 8 5 13 9 5 3 12 6 19 9 8 3 17 4 28 4 10 0 18-1 25-4 7-2 13-6 18-10 5-4 8-9 11-15 2-6 3-11 3-18 0-8-2-14-6-19-4-5-10-9-16-13-7-4-15-7-23-9-9-3-18-5-27-8-9-3-18-6-27-10-9-4-17-8-23-14-7-6-12-13-16-21-4-8-6-19-6-30 0-11 2-21 7-31 4-10 11-19 19-26 8-7 19-13 31-18 12-4 26-7 42-7 18 0 35 3 50 9 15 6 27 14 38 24l-11 18z"/>
			<path class="fil1" d="M3924 8056c-2 6-6 11-11 14-5 3-10 5-16 5l-21 0 166-414c2-6 6-10 10-14 5-3 10-5 16-5l21 0-165 413z"/>
			<path class="fil1" d="M4198 7771l0 301c0 11-1 22-4 31-3 10-8 18-14 25-6 7-15 13-25 17-10 4-22 6-36 6-6 0-11 0-16-1-5-1-10-2-15-4l2-27c0-2 1-3 2-4 1-1 2-1 3-1 1 0 3 0 6 0 2 0 5 0 9 0 14 0 25-3 31-10 6-7 9-17 9-32l0-301 49 0zm10-88c0 5-1 9-3 13-2 4-5 8-8 11-3 3-7 6-11 8-4 2-9 3-14 3-5 0-9-1-13-3-4-2-8-4-11-8-3-3-6-7-7-11-2-4-3-9-3-13 0-5 1-9 3-14 2-4 4-8 7-11 3-3 7-6 11-8 4-2 9-3 13-3 5 0 9 1 14 3 4 2 8 4 11 8 3 3 6 7 8 11 2 4 3 9 3 14z"/>
			<path class="fil1" d="M4442 7817c-2 4-6 6-10 6-3 0-6-1-9-3-4-2-8-4-13-7-5-2-11-5-18-7-7-2-15-3-25-3-8 0-16 1-22 3-7 2-12 5-17 9-5 4-8 8-11 13-2 5-4 10-4 16 0 7 2 13 6 18 4 5 10 9 16 12 7 4 15 7 23 9 9 3 18 6 27 9 9 3 18 6 27 10 9 4 16 8 23 14 7 6 12 12 16 20 4 8 6 18 6 29 0 13-2 25-7 36-5 11-11 20-20 28-9 8-20 14-33 19-13 5-28 7-45 7-20 0-37-3-53-10-16-6-29-14-40-24l12-19c1-2 3-4 5-6 2-1 5-2 8-2 3 0 7 1 10 4 4 3 8 5 13 9 5 3 12 6 19 9 8 3 17 4 28 4 10 0 18-1 25-4 7-2 13-6 18-10 5-4 8-9 11-15 2-6 3-11 3-18 0-8-2-14-6-19-4-5-10-9-16-13-7-4-15-7-23-9-9-3-18-5-27-8-9-3-18-6-27-10-9-4-17-8-23-14-7-6-12-13-16-21-4-8-6-19-6-30 0-11 2-21 7-31 4-10 11-19 19-26 8-7 19-13 31-18 12-4 26-7 42-7 18 0 35 3 50 9 15 6 27 14 38 24l-11 18z"/>
			<g>
				<path class="fil2" d="M1230 7615l-453 0-13 174 14 0c10-130 21-153 143-153 14 0 37 0 43 0 15 2 15 12 15 30l0 427c0 28-2 37-68 37l-22 0 0 19c38-1 77-1 115-1 38 0 78 1 115 1l0-19-22 0c-65 0-67-9-67-37l0-427c0-17 0-27 14-30l43 0c120 0 132 23 142 153l14 0m-13-174l0 0 0 0z"/>
				<path class="fil2" d="M1623 8122l-14 0c-17 116-27 180-165 180l-109 0c-31 0-33-4-33-31l0-219 74 0c74 0 81 27 81 93l13 0 0-204-13 0c0 65-7 92-81 92l-74 0 0-194c0-26 1-30 33-30l107 0c121 0 136 48 147 152l14 0-19-174-397 0 0 22c56 0 64 0 64 35l0 423c0 35-9 35-64 35l0 19 408 0m28-198l0 0 0 0z"/>
				<path class="fil2" d="M1835 7852l116-168c12-16 35-50 100-51l0-19c-18 1-48 1-67 1-26 0-58 0-78-1l0 19c25 2 31 18 31 31 0 9-4 16-9 24l-104 150-116-170c-5-9-6-11-6-13 0-7 9-20 35-21l0-19c-25 1-63 1-89 1-20 0-60 0-78-1l0 19c43 0 57 2 75 26l151 222-136 199c-34 49-85 50-100 50l0 19c18-1 48-1 67-1 21 0 58 0 78 1l0-19c-24-2-31-18-31-31 0-10 4-16 8-21l125-183 136 201c6 9 6 11 6 13 0 6-7 20-35 21l0 19c25-1 63-1 89-1 20 0 60 0 79 1l0-19c-50 0-58-4-74-26m-173-252l0 0 0 0z"/>
			</g>
		</g>
		<g>
			<g>
				<g>
					<rect class="fil2" x="7152" y="8071" width="710" height="471" rx="3475" ry="3475"/>
					<path class="fil3" d="M7473 8179l0 92c15-18 34-27 55-27 11 0 21 2 30 6 9 4 15 9 20 16 4 6 8 13 9 21 2 8 2 20 2 36l0 105-47 0 0-95c0-19-1-31-3-36-2-5-5-9-10-12-5-3-10-4-17-4-8 0-15 2-21 6-6 4-11 10-14 17-3 8-4 19-4 34l0 90-47 0 0-247 47 0z"/>
				</g>
				<g>
					<path class="fil4" d="M7888 8331c14-43 78-56 110 24l155 387c25 62 6 108-16 154-11 22-58 67-123 93-43 17-108 31-176 2-25-9-78-36-100-74-43-42-116-83-144-95-31-13-52-25-61-46-16-36 36-90 87-69 16 7 95 40 114 41l-120-304c-21-52 31-88 69-71l-8-21c-27-66 28-99 65-83 20 9 27 23 35 42 15-45 84-47 108 13l4 9 1-4z"/>
					<path class="fil2" d="M7888 8331c0 1-1 3-1 4-1-4-3-7-4-9-17-42-54-53-80-43-12 5-22 15-27 27 0 1-1 2-1 2-1-3-2-6-3-9-6-16-17-28-31-34-27-11-60 2-69 30-5 15-4 34 4 53l8 21c-38-17-90 19-69 71l111 278c3 8 8 19 9 26 0 0 0 0 0 0-37-8-81-27-105-37l-9-4c-16-6-32-7-48 0-17 7-32 21-38 37-4 11-5 22 0 32 10 21 30 33 61 46 28 12 101 52 144 95 22 38 75 66 100 74 68 29 133 15 176-2 65-26 112-71 123-93 23-46 41-92 16-154l-155-387c-32-80-96-67-110-24zm242 420c21 53 6 92-15 134-8 16-50 57-110 81-39 15-97 28-158 2-27-9-72-35-89-65l-2-3c-46-45-122-88-153-101-25-11-42-20-49-34-1-3-1-8 1-13 4-10 14-19 25-24 7-3 18-5 30 0l9 4c25 10 70 30 109 38 7 2 13 1 18-1 6-2 15-9 11-28-2-8-6-18-10-29l-111-278c-16-40 37-62 53-22l88 221c0 0 13 31 30 24 14-5 7-22 4-29l-114-286c-6-14-7-26-3-36 5-15 23-22 37-16 8 4 15 11 18 20 19 47 71 179 98 245l14 36c3 9 12 31 28 25 15-6 6-28 2-40-3-8-9-24-17-43-24-61-60-153-71-177-7-15-8-28-4-38 9-22 47-23 63 16 13 31 56 141 80 200l14 36c10 26 21 28 29 25 16-6 7-29 3-37l-74-185c-5-12-6-24-2-34 9-26 43-30 65 25l155 387z"/>
				</g>
			</g>
			<g>
				<path class="fil4" d="M8092 6761l0 541c0 30-25 55-55 55l-982 0c-30 0-55-25-55-55l0-541c0-30 25-55 55-55l982 0c30 0 55 25 55 55z"/>
				<path class="fil5 str0" d="M7055 6706l982 0c30 0 55 25 55 55l0 541c0 30-25 55-55 55l-982 0c-30 0-55-25-55-55l0-541c0-30 25-55 55-55z"/>
				<polygon class="fil1" points="7138 7219 7138 6844 7248 6844 7359 6982 7469 6844 7579 6844 7579 7219 7469 7219 7469 7004 7359 7142 7248 7004 7248 7219 "/>
				<polygon class="fil1" points="7828 7219 7662 7037 7772 7037 7772 6844 7883 6844 7883 7037 7993 7037 "/>
			</g>
			<g>
				<polygon class="fil2" points="9491 7539 9646 7539 9646 7692 9787 7692 9787 7539 9942 7539 9942 8002 9787 8002 9787 7847 9646 7847 9646 8002 9491 8002 9491 7539 "/>
				<polygon class="fil2" points="10145 7693 10009 7693 10009 7539 10436 7539 10436 7693 10300 7693 10300 8002 10145 8002 10145 7693 "/>
				<polygon class="fil2" points="10504 7539 10665 7539 10764 7702 10863 7539 11024 7539 11024 8002 10870 8002 10870 7773 10764 7937 10761 7937 10655 7773 10655 8002 10504 8002 "/>
				<polygon class="fil2" points="11101 7539 11256 7539 11256 7849 11473 7849 11473 8002 11101 8002 "/>
			</g>
			<path class="fil1" d="M7483 7750c-13 7-23 16-30 26-7 10-10 21-10 33 0 8 2 15 5 22 3 6 7 12 12 16 5 4 11 8 17 10 6 2 13 3 19 3 14 0 27-3 38-8 11-5 21-12 30-21l-80-81zm176 134l-33 0c-4 0-7 0-9-1-2-1-5-3-7-6l-28-28c-12 12-26 21-41 27-16 7-33 10-51 10-10 0-20-2-30-5-10-3-18-8-26-15-8-7-14-14-19-24-5-9-7-20-7-32 0-9 2-17 5-25 3-8 7-15 12-22 5-7 12-13 19-18 7-5 15-10 24-14-8-10-13-19-17-29-4-9-6-19-6-29 0-9 2-18 5-26 3-8 8-15 14-21 6-6 14-11 23-14 9-3 19-5 30-5 10 0 19 2 27 5 8 3 15 8 21 13 6 5 11 11 14 18 3 7 5 14 6 22l-21 4c-4 1-7-1-9-6-1-3-2-7-4-10-2-4-4-7-8-10-3-3-7-5-11-7-4-2-10-3-15-3-6 0-12 1-17 3-5 2-9 5-13 8-4 4-6 8-8 13-2 5-3 10-3 16 0 4 0 9 2 13 1 4 3 8 5 12 2 4 5 8 8 13 3 4 8 9 12 14l78 80c5-9 9-18 12-27 3-9 5-19 6-28 0-2 1-4 2-6 1-1 3-2 5-2l21 0c0 15-2 29-7 43-4 14-11 27-19 39l57 58z"/>
			<polygon class="fil1" points="9219 7807 8889 7807 8889 8138 8788 8138 8788 7807 8457 7807 8457 7710 8788 7710 8788 7379 8889 7379 8889 7710 9219 7710 "/>
		</g>
		<g>
			<path class="fil1" d="M13903 7688l0 301c0 11-1 22-4 31-3 10-8 18-14 25-6 7-15 13-25 17-10 4-22 6-36 6-6 0-11 0-16-1-5-1-10-2-15-4l2-27c0-2 1-3 2-4 1-1 2-1 3-1 1 0 3 0 6 0 2 0 5 0 9 0 14 0 25-3 31-10 6-7 9-17 9-32l0-301 49 0zm10-88c0 5-1 9-3 13-2 4-5 8-8 11-3 3-7 6-11 8-4 2-9 3-14 3-5 0-9-1-13-3-4-2-8-4-11-8-3-3-6-7-7-11-2-4-3-9-3-13 0-5 1-9 3-14 2-4 4-8 7-11 3-3 7-6 11-8 4-2 9-3 13-3 5 0 9 1 14 3 4 2 8 4 11 8 3 3 6 7 8 11 2 4 3 9 3 14z"/>
			<path class="fil1" d="M14146 7734c-2 4-6 6-10 6-3 0-6-1-9-3-4-2-8-4-13-7-5-2-11-5-18-7-7-2-15-3-25-3-8 0-16 1-22 3-7 2-12 5-17 9-5 4-8 8-11 13-2 5-4 10-4 16 0 7 2 13 6 18 4 5 10 9 16 12 7 4 15 7 23 9 9 3 18 6 27 9 9 3 18 6 27 10 9 4 16 8 23 14 7 6 12 12 16 20 4 8 6 18 6 29 0 13-2 25-7 36-5 11-11 20-20 28-9 8-20 14-33 19-13 5-28 7-45 7-20 0-37-3-53-10-16-6-29-14-40-24l12-19c1-2 3-4 5-6 2-1 5-2 8-2 3 0 7 1 10 4 4 3 8 5 13 9 5 3 12 6 19 9 8 3 17 4 28 4 10 0 18-1 25-4 7-2 13-6 18-10 5-4 8-9 11-15 2-6 3-11 3-18 0-8-2-14-6-19-4-5-10-9-16-13-7-4-15-7-23-9-9-3-18-5-27-8-9-3-18-6-27-10-9-4-17-8-23-14-7-6-12-13-16-21-4-8-6-19-6-30 0-11 2-21 7-31 4-10 11-19 19-26 8-7 19-13 31-18 12-4 26-7 42-7 18 0 35 3 50 9 15 6 27 14 38 24l-11 18z"/>
			<polygon class="fil1" points="14537 7835 14390 7835 14390 7793 14537 7793 "/>
			<polygon class="fil1" points="14909 7828 14636 7950 14636 7907 14851 7814 14636 7721 14636 7678 14909 7799 "/>
			<polygon class="fil2" points="13812 7771 14183 7771 14183 7822 13812 7822 "/>
			<g>
				<g>
					<polygon class="fil2" points="15431 7613 15586 7613 15586 7766 15727 7766 15727 7613 15882 7613 15882 8076 15727 8076 15727 7921 15586 7921 15586 8076 15431 8076 15431 7613 "/>
					<polygon class="fil2" points="16085 7766 15949 7766 15949 7613 16376 7613 16376 7766 16240 7766 16240 8076 16085 8076 16085 7766 "/>
					<polygon class="fil2" points="16444 7613 16605 7613 16704 7776 16803 7613 16965 7613 16965 8076 16811 8076 16811 7846 16704 8011 16702 8011 16595 7846 16595 8076 16444 8076 "/>
					<polygon class="fil2" points="17042 7613 17196 7613 17196 7923 17414 7923 17414 8076 17042 8076 "/>
				</g>
				<g>
					<polygon class="fil6 str1" points="15065 7925 15120 7859 15314 8028 15747 7602 15798 7650 15314 8204 "/>
					<polygon class="fil2" points="15065 7925 15120 7859 15314 8028 15747 7602 15798 7650 15314 8204 "/>
				</g>
			</g>
		</g>
		<line class="fil6 str2" x1="3605" y1="6302" x2="6376" y2="4074"/>
		<line class="fil6 str2" x1="13708" y1="6302" x2="10938" y2="4074"/>
		<line class="fil6 str2" x1="8803" y1="6302" x2="8803" y2="4074"/>
	</g>
</svg>
