<?xml version="1.0" encoding="UTF-8"?>
<svg xmlns="http://www.w3.org/2000/svg" xmlns:xlink="http://www.w3.org/1999/xlink" xml:space="preserve" height="460px" viewBox="0 0 13165 6805" version="1.1" baseProfile="full" style="clip-rule:evenodd;fill-rule:evenodd;image-rendering:optimizeQuality;shape-rendering:geometricPrecision;text-rendering:optimizeLegibility">
	<defs>
		<style type="text/css"><![CDATA[
			.str0 {stroke:black;stroke-width:81.5554;stroke-linecap:round;stroke-linejoin:round;stroke-dasharray:163.110735 244.666102}
			.fil7 {fill:none}
			.fil0 {fill:black}
			.fil3 {fill:#AD5C51}
			.fil4 {fill:#C3E4D8}
			.fil1 {fill:#F4CBB2}
			.fil2 {fill:white}
			.fil6 {fill:black;fill-rule:nonzero}
			.fil5 {fill:#2F2D2C;fill-rule:nonzero}
		]]></style>
	</defs>
	<g>
		<g>
			<path class="fil0" d="M2978 3532l-608 0-18 233 19 0c14-174 29-205 192-205 19 0 50 0 58 0 20 3 20 16 20 40l0 573c0 38-3 50-92 50l-30 0 0 25c51-1 103-2 155-2 51 0 104 1 155 2l0-25-29 0c-87 0-91-12-91-50l0-573c0-23 0-36 19-40l58 0c161 0 177 30 190 205l19 0m-17-233l0 0 0 0z"/>
			<path class="fil0" d="M3506 4211l-19 0c-23 156-37 241-222 241l-146 0c-42 0-44-5-44-42l0-294 99 0c99 0 109 36 109 125l17 0 0-274-17 0c0 87-9 123-109 123l-99 0 0-261c0-36 2-41 44-41l144 0c163 0 182 65 197 204l19 0-25-233-533 0 0 29c75 0 87 0 87 47l0 568c0 47-12 47-87 47l0 25 548 0m38-266l0 0 0 0z"/>
			<path class="fil0" d="M3790 3849l156-225c16-22 47-68 134-69l0-25c-24 2-64 2-89 2-35 0-78 0-104-2l0 25c34 3 42 24 42 41 0 13-5 21-13 32l-139 202-156-228c-7-11-8-15-8-18 0-9 11-27 46-28l0-25c-34 2-85 2-120 2-27 0-80 0-105-2l0 25c58 0 77 2 100 35l203 298-183 268c-45 65-114 67-134 67l0 25c24-2 64-2 89-2 28 0 78 0 104 2l0-25c-33-3-42-24-42-41 0-14 5-21 10-29l168-246 183 269c8 12 8 15 8 18 0 8-9 26-46 29l0 25c34-2 85-2 120-2 27 0 80 0 105 2l0-25c-67 0-78-5-99-35m-232-339l0 0 0 0z"/>
		</g>
		<g>
			<g>
				<path class="fil0" d="M5733 5930l2-8c-182-36-368-37-481-32 19-67 24-144 24-229 0-123-46-221-121-296 13-42 31-136-17-256 0 0-85-27-276 101-75-19-155-28-235-28-88 0-177 11-260 34-198-135-285-107-285-107-57 143-22 248-11 274-67 72-108 165-108 278 0 85 10 162 33 229-114-4-293-3-468 32l2 8c176-35 357-36 470-32 5 14 11 27 18 40-112 4-303 18-485 69l2 8c184-52 377-66 487-69 67 124 198 205 433 230-33 22-67 60-81 125-45 22-189 75-275-73 0 0-48-88-140-95 0 0-89-1-6 56 0 0 60 28 101 134 0 0 54 181 314 123l0 187c0 0-5 66-66 88 0 0-36 25 3 38 0 0 168 14 168-124l0-204c0 0-7-81 33-109l0 334c0 0-3 80-44 110 0 0-28 49 33 36 0 0 116-17 121-151l3-338 28 0 3 338c5 135 121 151 121 151 61 14 33-36 33-36-41-30-44-110-44-110l0-331c40 31 33 106 33 106l0 204c0 138 168 124 168 124 39-14 3-38 3-38-61-22-66-88-66-88l0-267c0-104-44-159-87-188 250-25 370-105 425-231 109 3 306 16 495 69l2-8c-187-53-383-66-493-70 5-13 10-26 14-39 112-5 299-5 482 32l0 0z"/>
				<path class="fil1" d="M5034 5655c54 49 85 108 85 171 0 296-221 304-493 304-272 0-493-41-493-304 0-63 31-121 84-170 89-81 239-38 409-38 169 0 319-43 408 37l0 0z"/>
				<path class="fil2" d="M4463 5841c0 82-46 148-103 148-57 0-103-66-103-148 0-82 46-148 103-148 57 0 103 66 103 148zm550 0c0 82-46 148-103 148-57 0-103-66-103-148 0-82 46-148 103-148 57 0 103 66 103 148z"/>
				<path class="fil3" d="M4430 5843c0 54-31 98-68 98-38 0-68-44-68-98 0-54 31-98 68-98 38 0 68 44 68 98l0 0zm550 0c0 54-31 98-68 98-38 0-68-44-68-98 0-54 31-98 68-98 38 0 68 44 68 98l0 0z"/>
				<circle class="fil3" cx="4628" cy="5972" r="26"/>
				<path class="fil3" d="M4568 6037c-2-4 1-9 5-11 4-2 9 1 11 5 7 19 24 31 44 31 20 0 37-13 44-31 2-4 6-7 11-5 4 2 7 6 5 11-9 25-33 42-60 42-27 0-51-17-60-42l0 0z"/>
				<path class="fil4" d="M3999 6154c0 7-8 12-18 12-10 0-18-6-18-12 0-7 8-12 18-12 10 0 18 6 18 12l0 0zm50 28c0 7-8 12-18 12-10 0-18-6-18-12 0-7 8-12 18-12 10 0 18 6 18 12l0 0zm30 36c0 7-8 12-18 12-10 0-18-6-18-12 0-7 8-12 18-12 10 0 18 6 18 12l0 0zm28 41c0 7-8 12-18 12-10 0-18-6-18-12 0-7 8-12 18-12 10 0 18 6 18 12l0 0zm30 39c0 7-8 12-18 12-10 0-18-6-18-12 0-7 8-12 18-12 10 0 18 6 18 12l0 0zm41 33c0 7-8 12-18 12-10 0-18-6-18-12 0-7 8-12 18-12 10 0 18 6 18 12l0 0zm58 22c0 7-8 12-18 12-10 0-18-6-18-12 0-7 8-12 18-12 10 0 18 6 18 12l0 0zm58 0c0 7-8 12-18 12-10 0-18-6-18-12 0-7 8-12 18-12 10 0 18 6 18 12l0 0zm58-10c0 7-8 12-18 12-10 0-18-6-18-12 0-7 8-12 18-12 10 0 18 6 18 12l0 0z"/>
			</g>
			<path class="fil5" d="M2603 6281l-149 0c-4 0-7 3-7 7l0 73c0 4 3 7 7 7l58 0 0 91c0 0-13 4-49 4-43 0-102-16-102-146 0-131 62-148 120-148 50 0 72 9 86 13 4 1 8-3 8-7l17-70c0-2-1-4-3-5-6-4-40-23-126-23-99 0-202 42-202 246 0 203 117 234 215 234 82 0 131-35 131-35 2-1 2-4 2-5l0-227c0-4-3-7-7-7zm393-44l-63 0c0 0 0-83 0-83 0-3-2-5-5-5l-86 0c-3 0-5 1-5 5l0 86c0 0-43 10-46 11-3 1-5 4-5 7l0 54c0 4 3 7 7 7l44 0c0 0 0 56 0 130 0 96 68 106 113 106 21 0 46-7 50-8 2-1 4-3 4-6l0-59c0-4-3-7-7-7-4 0-13 1-23 1-31 0-41-14-41-33 0-19 0-123 0-123l63 0c4 0 7-3 7-7l0-68c0-4-3-7-7-7zm921-9c-47 0-79 21-79 21l0-149c0-4-3-7-7-7l-84 0c-4 0-7 3-7 7l0 439c0 4 3 7 7 7 0 0 58 0 58 0 3 0 5-1 6-4 1-2 4-20 4-20 0 0 34 33 100 33 76 0 120-39 120-174 0-135-70-153-117-153zm-33 247l0 0c-29-1-48-14-48-14l0-139c0 0 19-12 43-14 30-3 59 6 59 78 0 75-13 90-53 89zm-195-237l-83 0c-4 0-7 3-7 7l0 215c0 0-21 15-51 15-30 0-38-14-38-43 0-29 0-188 0-188 0-4-3-7-7-7l-84 0c-4 0-7 3-7 7 0 0 0 115 0 202 0 87 49 109 116 109 55 0 99-30 99-30 0 0 2 16 3 18 1 2 3 4 6 4l54 0c4 0 7-3 7-7l0-295c0-4-3-7-7-7zm-934 209c0-11 0-203 0-203 0-4-3-7-7-7l-84 0c-4 0-7 4-7 8 0 0 0 244 0 290 0 9 5 11 12 11 0 0 36 0 75 0 8 0 10-4 10-11 0-16 0-77 0-88zm6-289c0-30-24-55-54-55-30 0-54 24-54 55 0 30 24 55 54 55 30 0 54-24 54-55zm610-58c0-4-3-7-7-7l-84 0c-4 0-7 3-7 7 0 0 0 162 0 162l-131 0 0-162c0-4-3-7-7-7l-84 0c-4 0-7 3-7 7l0 439c0 4 3 7 7 7l84 0c4 0 7-3 7-7l0-188 131 0c0 0 0 188 0 188 0 4 3 7 7 7l84 0c4 0 7-3 7-7l0-439z"/>
		</g>
		<path class="fil6" d="M9655 4754l-26 0-53-110 47 0 32 110zm-79 0l-26 0-53-110 47 0 32 110z"/>
		<path class="fil6" d="M12582 4644l-53 110-26 0 32-110 47 0zm-79 0l-53 110-26 0 32-110 47 0z"/>
		<polygon class="fil6" points="9917 4694 9823 4694 9823 4950 9784 4950 9784 4694 9691 4694 9691 4661 9917 4661 "/>
		<path class="fil6" d="M9983 4773c9-9 18-17 29-22 11-6 23-8 37-8 11 0 21 2 30 6 9 4 16 9 21 16 6 7 10 15 13 24 3 10 4 20 4 32l0 130-36 0 0-130c0-15-3-27-11-36-7-9-18-13-32-13-11 0-20 3-30 8-9 5-18 12-26 21l0 150-36 0 0-297 36 0 0 120z"/>
		<path class="fil6" d="M10309 4825c0-8-1-16-3-23-2-7-6-13-10-18-5-5-10-9-16-12-6-3-14-4-22-4-17 0-31 5-41 15-10 10-16 24-19 42l112 0zm29 96c-4 5-10 10-16 14-6 4-13 7-20 10-7 3-14 4-22 6-8 1-15 2-22 2-14 0-27-2-39-7-12-5-22-12-31-21-9-9-15-21-20-34-5-14-7-29-7-47 0-14 2-28 7-40 4-12 11-23 19-32 8-9 18-16 30-21 12-5 25-8 40-8 12 0 24 2 34 6 10 4 19 10 27 18 8 8 13 17 18 29 4 11 6 24 6 39 0 6-1 9-2 11-1 2-3 3-7 3l-136 0c0 13 2 24 5 34 3 10 8 17 13 24 6 6 12 11 20 14 8 3 17 5 26 5 9 0 17-1 23-3 7-2 12-4 17-7 5-2 9-5 12-7 3-2 6-3 8-3 3 0 5 1 7 3l10 13z"/>
		<polygon class="fil6" points="10730 4661 10730 4950 10691 4950 10691 4818 10535 4818 10535 4950 10496 4950 10496 4661 10535 4661 10535 4790 10691 4790 10691 4661 "/>
		<path class="fil6" d="M10875 4742c15 0 28 2 40 7 12 5 22 12 31 21 8 9 15 20 19 33 4 13 7 27 7 43 0 16-2 31-7 44-5 13-11 24-19 33-8 9-19 16-31 21-12 5-25 7-40 7-15 0-29-2-41-7-12-5-22-12-31-21-8-9-15-20-19-33-5-13-7-27-7-44 0-16 2-30 7-43 4-13 11-24 19-33 8-9 19-16 31-21 12-5 26-7 41-7zm0 182c20 0 35-7 45-20 10-13 15-32 15-56 0-24-5-43-15-57-10-14-25-20-45-20-10 0-19 2-27 5-8 3-14 9-19 15-5 7-9 15-11 24-2 10-4 20-4 33 0 24 5 43 15 56 10 13 25 20 46 20z"/>
		<polygon class="fil6" points="11171 4694 11078 4694 11078 4950 11039 4950 11039 4694 10945 4694 10945 4661 11171 4661 "/>
		<polygon class="fil6" points="11409 4694 11316 4694 11316 4950 11277 4950 11277 4694 11183 4694 11183 4661 11409 4661 "/>
		<path class="fil6" d="M11571 4901c7 9 14 15 22 19 8 4 16 5 26 5 19 0 34-7 44-20 10-14 15-34 15-61 0-25-5-43-14-55-9-12-22-18-39-18-12 0-22 3-30 8-9 5-17 13-24 23l0 99zm0-125c9-10 18-18 29-24 11-6 23-9 37-9 12 0 23 2 32 7 10 5 18 11 24 20 7 9 12 19 15 32 4 12 5 26 5 42 0 17-2 32-6 45-4 14-10 25-17 35-8 10-17 17-28 22-11 5-23 8-37 8-13 0-25-3-34-8-9-5-17-12-24-21l-2 19c-1 5-4 8-9 8l-23 0 0-297 36 0 0 122z"/>
		<path class="fil6" d="M11846 4742c15 0 28 2 40 7 12 5 22 12 31 21 8 9 15 20 19 33 4 13 7 27 7 43 0 16-2 31-7 44-5 13-11 24-19 33-8 9-19 16-31 21-12 5-25 7-40 7-15 0-29-2-41-7-12-5-22-12-31-21-8-9-15-20-19-33-5-13-7-27-7-44 0-16 2-30 7-43 4-13 11-24 19-33 8-9 19-16 31-21 12-5 26-7 41-7zm0 182c20 0 35-7 45-20 10-13 15-32 15-56 0-24-5-43-15-57-10-14-25-20-45-20-10 0-19 2-27 5-8 3-14 9-19 15-5 7-9 15-11 24-2 10-4 20-4 33 0 24 5 43 15 56 10 13 25 20 46 20z"/>
		<path class="fil6" d="M12075 4742c15 0 28 2 40 7 12 5 22 12 31 21 8 9 15 20 19 33 4 13 7 27 7 43 0 16-2 31-7 44-5 13-11 24-19 33-8 9-19 16-31 21-12 5-25 7-40 7-15 0-29-2-41-7-12-5-22-12-31-21-8-9-15-20-19-33-5-13-7-27-7-44 0-16 2-30 7-43 4-13 11-24 19-33 8-9 19-16 31-21 12-5 26-7 41-7zm0 182c20 0 35-7 45-20 10-13 15-32 15-56 0-24-5-43-15-57-10-14-25-20-45-20-10 0-19 2-27 5-8 3-14 9-19 15-5 7-9 15-11 24-2 10-4 20-4 33 0 24 5 43 15 56 10 13 25 20 46 20z"/>
		<path class="fil6" d="M12253 4653l0 175 9 0c3 0 5 0 7-1 2-1 4-2 6-5l64-69c2-2 4-4 6-5 2-1 5-2 8-2l32 0-75 80c-4 5-8 8-12 11 2 2 5 3 7 6 2 2 4 5 6 7l80 101-32 0c-3 0-6-1-8-2-2-1-4-3-6-6l-67-84c-2-3-4-5-6-6-2-1-5-1-9-1l-10 0 0 97-36 0 0-297 36 0z"/>
		<path class="fil6" d="M9549 5306c0 29 4 57 11 84 7 27 18 53 32 77 2 4 3 7 2 10-1 2-3 4-5 5l-16 10c-10-15-19-31-26-46-7-15-13-30-17-46-4-15-8-31-10-46-2-16-3-31-3-48 0-16 1-32 3-48 2-16 5-31 10-46 4-15 10-30 17-46 7-15 16-31 26-46l16 10c2 1 4 3 5 5 1 2 1 5-2 9-14 24-25 50-32 77-7 27-11 55-11 84z"/>
		<path class="fil6" d="M9724 5406c10 0 18-2 26-5 8-3 15-7 20-13 6-6 10-12 13-20 3-8 4-16 4-25 0-9-1-18-4-26-3-8-7-14-13-19-5-5-12-9-19-12-8-3-16-4-25-4-10 0-18 2-26 5-8 3-14 8-20 13-5 6-10 12-12 19-3 7-4 15-4 23 0 9 1 18 4 25 3 8 7 14 12 20 5 6 11 10 19 13 7 3 16 5 25 5zm-21-154c-3 3-5 6-7 9-2 3-5 6-7 9 7-5 14-8 23-11 8-3 17-4 27-4 12 0 23 2 33 6 10 4 19 9 27 17 8 7 14 16 18 27 5 11 7 23 7 37 0 13-2 26-7 37-5 11-12 21-20 30-9 8-19 15-31 20-12 5-26 7-40 7-15 0-28-2-39-7-12-5-22-11-30-20-8-9-15-19-19-31-4-12-7-26-7-41 0-13 3-26 8-40 6-14 14-30 27-46l73-98c2-2 5-4 8-6 3-2 7-2 11-2l32 0-86 108z"/>
		<path class="fil6" d="M10062 5289c0 25-3 47-8 66-5 18-13 34-22 46-9 12-20 21-33 27-13 6-27 9-41 9-15 0-28-3-41-9-13-6-24-15-33-27-9-12-17-27-22-46-5-18-8-40-8-66 0-25 3-47 8-66 5-19 13-34 22-46 9-12 20-21 33-27 13-6 26-9 41-9 15 0 28 3 41 9 13 6 24 15 33 27 9 12 17 28 22 46 5 19 8 40 8 66zm-37 0c0-22-2-41-6-56-4-15-9-27-15-36-6-9-13-16-22-20-8-4-17-6-26-6-9 0-17 2-26 6-8 4-15 11-22 20-6 9-11 21-15 36-4 15-6 33-6 56 0 22 2 40 6 55 4 15 9 27 15 36 6 9 13 16 22 20 8 4 17 6 26 6 9 0 17-2 26-6 8-4 15-10 22-20 6-9 11-21 15-36 4-15 6-33 6-55z"/>
		<path class="fil6" d="M10296 5289c0 25-3 47-8 66-5 18-13 34-22 46-9 12-20 21-33 27-13 6-27 9-41 9-15 0-28-3-41-9-13-6-24-15-33-27-9-12-17-27-22-46-5-18-8-40-8-66 0-25 3-47 8-66 5-19 13-34 22-46 9-12 20-21 33-27 13-6 26-9 41-9 15 0 28 3 41 9 13 6 24 15 33 27 9 12 17 28 22 46 5 19 8 40 8 66zm-37 0c0-22-2-41-6-56-4-15-9-27-15-36-6-9-13-16-22-20-8-4-17-6-26-6-9 0-17 2-26 6-8 4-15 11-22 20-6 9-11 21-15 36-4 15-6 33-6 56 0 22 2 40 6 55 4 15 9 27 15 36 6 9 13 16 22 20 8 4 17 6 26 6 9 0 17-2 26-6 8-4 15-10 22-20 6-9 11-21 15-36 4-15 6-33 6-55z"/>
		<path class="fil6" d="M13134 5306c0-29-4-57-11-84-7-27-18-53-32-77-1-2-2-4-2-5 0-2 0-3 0-4 0-1 1-2 2-3 1-1 2-2 3-2l16-10c10 16 19 31 26 46 7 15 13 30 17 46 4 15 8 31 10 46 2 16 3 31 3 48 0 16-1 32-3 48-2 16-5 31-10 46-4 15-10 31-17 46-7 15-16 30-26 46l-16-10c-1-1-2-1-3-2-1-1-2-2-2-3 0-1 0-2 0-4 0-2 1-3 2-5 14-24 25-50 32-77 7-27 11-55 11-84z"/>
		<path class="fil6" d="M10476 5384c7 9 14 15 22 19 8 4 17 5 26 5 19 0 34-7 44-20 10-14 15-33 15-58 0-13-1-25-3-34-2-10-6-17-10-23-4-6-10-11-16-13-6-3-14-4-22-4-12 0-22 3-31 8-9 5-17 13-24 23l0 99zm-2-123c9-11 19-19 30-26 11-6 24-10 39-10 12 0 22 2 32 7 10 4 18 11 24 20 7 9 12 20 16 33 4 13 5 28 5 45 0 15-2 29-6 42-4 13-10 24-17 34-8 9-17 17-28 22-11 5-23 8-37 8-12 0-23-2-32-6-9-4-17-10-24-18l0 90-36 0 0-273 22 0c5 0 8 2 9 7l3 24z"/>
		<path class="fil6" d="M10776 5341c-17 1-31 2-42 4-12 2-21 5-28 8-7 3-13 7-16 12-3 5-5 10-5 15 0 5 1 10 3 14 2 4 4 7 7 10 3 2 7 4 11 5 4 1 8 2 13 2 6 0 12-1 17-2 5-1 10-3 15-6 5-2 9-5 13-9 4-3 8-7 12-11l0-42zm-116-83c11-11 23-19 36-24 13-5 27-8 43-8 11 0 22 2 30 6 9 4 16 9 22 16 6 7 11 15 14 24 3 10 5 20 5 31l0 131-16 0c-3 0-6-1-8-2-2-1-3-3-4-7l-4-19c-5 5-11 9-16 13-5 4-10 7-16 10-6 3-12 5-18 6-6 1-13 2-21 2-8 0-15-1-22-3-7-2-13-6-18-10-5-4-9-10-12-17-3-7-5-15-5-24 0-8 2-16 7-23 4-7 12-14 22-20 10-6 23-11 39-14 16-4 36-6 59-6l0-16c0-16-3-28-10-36-7-8-17-12-30-12-9 0-16 1-22 3-6 2-11 5-16 7-4 3-8 5-11 7-3 2-6 3-9 3-2 0-5-1-6-2-2-1-3-3-4-5l-6-11z"/>
		<path class="fil6" d="M10937 5333c7 0 14-1 19-3 6-2 10-5 14-8 4-4 7-8 8-13 2-5 3-11 3-17 0-12-4-22-11-30-8-7-19-11-33-11-15 0-26 4-33 11-8 7-11 17-11 30 0 6 1 12 3 17 2 5 5 9 9 13 4 4 8 6 14 8 6 2 12 3 19 3zm65 111c0-5-1-9-4-12-3-3-7-6-11-7-5-2-10-3-17-4-6-1-13-1-20-2-7 0-14-1-21-1-7 0-14-1-21-2-8 3-14 8-18 13-5 5-7 12-7 19 0 5 1 9 4 13 2 4 6 7 11 10 5 3 11 5 18 7 7 2 16 3 26 3 10 0 18-1 26-3 8-2 14-4 19-7 5-3 9-7 12-11 3-4 4-9 4-15zm36-207l0 13c0 4-3 7-8 8l-23 3c5 9 7 19 7 29 0 10-2 19-6 27-4 8-9 15-16 21-7 6-15 10-24 13-9 3-20 5-31 5-10 0-19-1-27-3-4 3-8 6-10 9-2 3-3 6-3 9 0 5 2 8 6 11 4 2 9 4 16 5 6 1 14 2 22 2 8 0 17 1 25 1 9 1 17 2 25 3 8 1 16 4 22 7 6 3 12 8 16 14 4 6 6 14 6 23 0 9-2 17-7 25-4 8-11 15-19 22-8 6-18 11-30 15-12 4-25 6-40 6-15 0-28-1-39-4-11-3-20-7-28-12-7-5-13-11-17-17-4-7-6-13-6-20 0-10 3-19 9-26 6-7 15-13 26-17-6-3-11-6-14-11-4-4-5-11-5-18 0-3 1-6 2-9 1-3 3-6 5-9 2-3 5-6 8-9 3-3 7-5 11-7-10-6-18-13-24-22-6-9-8-20-8-32 0-10 2-19 6-27 4-8 9-15 16-21 7-6 15-10 25-13 9-3 20-5 31-5 9 0 17 1 25 3 8 2 15 5 21 9l55 0z"/>
		<path class="fil6" d="M11208 5309c0-8-1-16-3-23-2-7-6-13-10-18-5-5-10-9-16-12-6-3-14-4-22-4-17 0-31 5-41 15-10 10-16 24-19 42l112 0zm29 96c-4 5-10 10-16 14-6 4-13 7-20 10-7 3-14 4-22 6-8 1-15 2-22 2-14 0-27-2-39-7-12-5-22-12-31-21-9-9-15-21-20-34-5-14-7-29-7-47 0-14 2-28 7-40 4-12 11-23 19-32 8-9 18-16 30-21 12-5 25-8 40-8 12 0 24 2 34 6 10 4 19 10 27 18 8 8 13 17 18 29 4 11 6 24 6 39 0 6-1 9-2 11-1 2-3 3-7 3l-136 0c0 13 2 24 5 34 3 10 8 17 13 24 6 6 12 11 20 14 8 3 17 5 26 5 9 0 17-1 23-3 7-2 12-4 17-7 5-2 9-5 12-7 3-2 6-3 8-3 3 0 5 1 7 3l10 13z"/>
		<path class="fil6" d="M11403 5263c-2 3-4 4-7 4-2 0-4-1-7-2-3-1-6-3-9-5-4-2-8-3-13-5-5-2-11-2-18-2-6 0-11 1-16 2-5 2-9 4-12 6-3 3-6 6-8 9-2 4-3 7-3 12 0 5 2 10 5 13 3 3 7 7 12 9 5 3 11 5 17 7 6 2 13 4 19 6 7 2 13 5 19 7 6 3 12 6 17 10 5 4 9 9 12 15 3 6 5 13 5 21 0 9-2 18-5 26-3 8-8 15-15 21-7 6-15 10-24 14-10 3-21 5-33 5-14 0-27-2-39-7-12-5-21-11-29-18l8-14c1-2 2-3 4-4 1-1 3-1 6-1 2 0 5 1 8 3 3 2 6 4 10 6 4 2 8 4 14 6 5 2 12 3 21 3 7 0 13-1 18-3 5-2 10-4 13-7 3-3 6-7 8-11 2-4 2-8 2-13 0-6-1-10-5-14-3-4-7-7-12-9-5-3-11-5-17-7-6-2-13-4-20-6-7-2-13-5-20-7-6-3-12-6-17-10-5-4-9-9-12-15-3-6-5-13-5-22 0-8 2-15 5-22 3-7 8-13 14-19 6-5 14-10 23-13 9-3 19-5 31-5 13 0 26 2 36 6 11 4 20 10 28 17l-8 13z"/>
		<path class="fil6" d="M11881 5289c0 25-3 47-8 66-5 18-13 34-22 46-9 12-20 21-33 27-13 6-27 9-41 9-15 0-28-3-41-9-13-6-24-15-33-27-9-12-17-27-22-46-5-18-8-40-8-66 0-25 3-47 8-66 5-19 13-34 22-46 9-12 20-21 33-27 13-6 26-9 41-9 15 0 28 3 41 9 13 6 24 15 33 27 9 12 17 28 22 46 5 19 8 40 8 66zm-37 0c0-22-2-41-6-56-4-15-9-27-15-36-6-9-13-16-22-20-8-4-17-6-26-6-9 0-17 2-26 6-8 4-15 11-22 20-6 9-11 21-15 36-4 15-6 33-6 56 0 22 2 40 6 55 4 15 9 27 15 36 6 9 13 16 22 20 8 4 17 6 26 6 9 0 17-2 26-6 8-4 15-10 22-20 6-9 11-21 15-36 4-15 6-33 6-55z"/>
		<path class="fil6" d="M11915 5411c0-3 1-7 2-10 1-3 3-6 5-8 2-2 5-4 8-5 3-1 6-2 10-2 3 0 7 1 10 2 3 1 6 3 8 5 2 2 4 5 5 8 1 3 2 6 2 10 0 4-1 7-2 10-1 3-3 6-5 8-2 2-5 4-8 5-3 1-6 2-10 2-3 0-7-1-10-2-3-1-6-3-8-5-2-2-4-5-5-8-1-3-2-6-2-10z"/>
		<path class="fil6" d="M12061 5253c15-3 29-5 41-5 15 0 28 2 40 7 12 4 21 11 29 18 8 8 14 17 18 28 4 11 6 22 6 35 0 15-3 29-8 41-5 12-13 23-22 32-9 9-20 16-33 20-13 5-26 7-41 7-8 0-17-1-24-3-8-2-15-4-22-7-7-3-13-6-19-10-6-4-11-7-15-11l11-15c2-3 6-5 9-5 3 0 6 1 9 3 3 2 7 4 12 7 5 3 11 5 17 7 7 2 14 3 23 3 10 0 19-2 27-5 8-3 15-8 21-14 6-6 10-13 13-21 3-8 5-18 5-28 0-9-1-17-4-24-3-7-7-13-12-19-5-5-12-9-20-12-8-3-17-4-28-4-7 0-15 1-23 2-8 1-16 3-24 6l-23-7 23-135 137 0 0 16c0 5-2 9-5 13-3 3-9 5-16 5l-91 0-13 76z"/>
		<path class="fil6" d="M12519 5229l-114 264c-1 3-3 5-4 6-2 2-5 2-8 2l-27 0 37-81-84-192 31 0c3 0 6 1 7 2 2 2 3 3 4 5l55 128c2 6 4 12 5 18 2-6 4-12 6-18l53-128c1-2 2-4 4-5 2-1 4-2 7-2l28 0z"/>
		<path class="fil6" d="M12681 5309c0-8-1-16-3-23-2-7-6-13-10-18-5-5-10-9-16-12-6-3-14-4-22-4-17 0-31 5-41 15-10 10-16 24-19 42l112 0zm29 96c-4 5-10 10-16 14-6 4-13 7-20 10-7 3-14 4-22 6-8 1-15 2-22 2-14 0-27-2-39-7-12-5-22-12-31-21-9-9-15-21-20-34-5-14-7-29-7-47 0-14 2-28 7-40 4-12 11-23 19-32 8-9 18-16 30-21 12-5 25-8 40-8 12 0 24 2 34 6 10 4 19 10 27 18 8 8 13 17 18 29 4 11 6 24 6 39 0 6-1 9-2 11-1 2-3 3-7 3l-136 0c0 13 2 24 5 34 3 10 8 17 13 24 6 6 12 11 20 14 8 3 17 5 26 5 9 0 17-1 23-3 7-2 12-4 17-7 5-2 9-5 12-7 3-2 6-3 8-3 3 0 5 1 7 3l10 13z"/>
		<path class="fil6" d="M12868 5341c-17 1-31 2-42 4-12 2-21 5-28 8-7 3-13 7-16 12-3 5-5 10-5 15 0 5 1 10 3 14 2 4 4 7 7 10 3 2 7 4 11 5 4 1 8 2 13 2 6 0 12-1 17-2 5-1 10-3 15-6 5-2 9-5 13-9 4-3 8-7 12-11l0-42zm-116-83c11-11 23-19 36-24 13-5 27-8 43-8 11 0 22 2 30 6 9 4 16 9 22 16 6 7 11 15 14 24 3 10 5 20 5 31l0 131-16 0c-3 0-6-1-8-2-2-1-3-3-4-7l-4-19c-5 5-11 9-16 13-5 4-10 7-16 10-6 3-12 5-18 6-6 1-13 2-21 2-8 0-15-1-22-3-7-2-13-6-18-10-5-4-9-10-12-17-3-7-5-15-5-24 0-8 2-16 7-23 4-7 12-14 22-20 10-6 23-11 39-14 16-4 36-6 59-6l0-16c0-16-3-28-10-36-7-8-17-12-30-12-9 0-16 1-22 3-6 2-11 5-16 7-4 3-8 5-11 7-3 2-6 3-9 3-2 0-5-1-6-2-2-1-3-3-4-5l-6-11z"/>
		<path class="fil6" d="M12992 5270c6-14 14-25 24-33 9-8 21-12 34-12 4 0 8 0 12 1 4 1 7 2 11 4l-3 27c-1 3-3 5-6 5-2 0-5 0-8-1-4-1-8-1-12-1-6 0-12 1-17 3-5 2-10 5-13 8-4 4-8 8-11 14-3 5-6 12-9 19l0 129-36 0 0-204 21 0c4 0 7 1 8 2 1 1 2 4 3 8l2 31z"/>
		<polygon class="fil6" points="11527 5385 11480 5496 11455 5496 11485 5385 "/>
		<g>
			<rect class="fil2" x="5931" y="3451" width="3280" height="3280"/>
			<path class="fil0" d="M8714 6333l99 0 0-99 0-99 0-99 0 0 0-99-99 0 0-99 0-99 99 0 0-99-99 0-99 0 0-99 0-99-99 0 0-99 0-99 0-99 99 0 0 99 0 99 99 0 0 99 99 0 0-99 0-99-99 0 0-99 99 0 0-99 0-99 0-99-99 0 0-99 0-99-99 0 0 99 0 99 0 0 0 99 99 0 0 99-99 0-99 0 0 99-99 0 0-99-99 0 0 99-99 0 0-99-99 0-99 0 0 99-99 0 0-99-99 0 0-99 99 0 0-99 99 0 0-99 99 0 0-99-99 0-99 0 0 0-99 0 0-99 0 0 0-99 99 0 0 99 99 0 0-99-99 0 0-99-99 0 0-99 0 0 0-99-99 0-99 0 0 99-99 0-99 0-99 0 0 0-99 0 0-99 99 0 0 0 99 0 99 0 0-99-99 0-99 0 0-99 99 0 99 0 99 0 0 99 99 0 0-99 99 0 0 99 99 0 0 99 99 0 0-99-99 0 0-99 99 0 0-99-99 0 0 99-99 0 0-99-99 0 0 99-99 0 0-99-99 0-99 0-99 0 0 0-99 0 0 99-99 0 0 99 99 0 0 99-99 0 0 99 99 0 0 99-99 0 0 99 0 99 99 0 0 99-99 0-99 0 0 0-99 0 0 99 99 0 0 99-99 0-99 0 0-99 0-99-99 0 0 0-99 0-99 0-99 0 0 0-99 0 0 99 99 0 0 99 99 0 0-99 99 0 0 99 0 0 0 99-99 0 0 99 99 0 0-99 99 0 0 99 99 0 0 99 99 0 99 0 0-99-99 0-99 0 0-99 99 0 99 0 0 0 99 0 0 99 0 99 99 0 99 0 0 0 99 0 0 99-99 0 0 99-99 0 0-99-99 0-99 0 0 0-99 0 0 99 99 0 0 0 99 0 0 99 0 0 0 99 0 99 0 99 99 0 99 0 0 99 99 0 0 99 0 99-99 0 0-99-99 0 0-99-99 0 0 99 0 99 0 0 0 99 0 99 0 99 99 0 99 0 0-99 0-99 99 0 0-99 99 0 0 99 99 0 0 0 99 0 0 99-99 0 0 99 99 0 99 0 0-99 99 0 0 0 99 0 0 99 99 0 99 0 0 0 99 0 99 0 99 0 0 0 99 0 99 0zm-2286-2485l-99 0 0 99 0 0 0 99 0 99 0 99 0 0 0 99 0 99 0 99 99 0 0 0 99 0 99 0 99 0 0 0 99 0 99 0 99 0 0-99 0-99 0-99 0 0 0-99 0-99 0-99 0 0 0-99-99 0-99 0-99 0 0 0-99 0-99 0-99 0 0 0zm0 199l0-99 99 0 99 0 99 0 0 0 99 0 99 0 0 99 0 99 0 99 0 0 0 99 0 99-99 0-99 0 0 0-99 0-99 0-99 0 0-99 0-99 0 0 0-99 0-99zm0 994l0-99-99 0 0 99 0 99 99 0 0-99zm0 596l-99 0 0 99 0 0 0 99 0 99 0 99 0 0 0 99 0 99 0 99 99 0 0 0 99 0 99 0 99 0 0 0 99 0 99 0 99 0 0-99 0-99 0-99 0 0 0-99 0-99 0-99 0 0 0-99-99 0-99 0-99 0 0 0-99 0-99 0-99 0 0 0zm0 199l0-99 99 0 99 0 99 0 0 0 99 0 99 0 0 99 0 99 0 99 0 0 0 99 0 99-99 0-99 0 0 0-99 0-99 0-99 0 0-99 0-99 0 0 0-99 0-99zm99-596l-99 0 0 99 0 99 0 0 0 99 99 0 0-99 99 0 0 99 99 0 0-99 0 0 0-99 99 0 0-99-99 0 0-99-99 0-99 0 0 99zm99-1193l-99 0 0 99 0 99 0 0 0 99 99 0 99 0 0 0 99 0 0-99 0 0 0-99 0-99-99 0 0 0-99 0zm0 1292l0-99 99 0 0 99-99 0zm0 497l-99 0 0 99 0 99 0 0 0 99 99 0 99 0 0 0 99 0 0-99 0 0 0-99 0-99-99 0 0 0-99 0zm298-298l99 0 0-99-99 0 0 99zm199-795l99 0 99 0 0-99 0-99 99 0 0-99 0-99 99 0 0 99 0 99 99 0 0-99 0-99 0-99 99 0 0 99 0 99 0 99 0 0 0 99-99 0 0 99-99 0-99 0 0 99-99 0 0 99 99 0 0-99 99 0 0 99 0 99-99 0-99 0 0 0-99 0 0-99-99 0 0-99 0 0 0-99zm99-398l99 0 0 99 0 99-99 0 0-99 0-99zm0 1690l99 0 0 99-99 0 0-99zm99-497l99 0 0 99 99 0 99 0 0 99 99 0 0 99-99 0 0 0-99 0 0-99-99 0-99 0 0-99 0-99zm99-298l99 0 99 0 0-99 99 0 0 99 99 0 0 99 0 99-99 0-99 0 0-99-99 0 0 99 99 0 0 99-99 0-99 0 0-99 0 0 0-99 0-99zm99-199l99 0 0 99-99 0 0-99zm99-99l99 0 0 99-99 0 0-99zm0 994l99 0 0 99-99 0 0-99zm99-1292l99 0 0 99 99 0 0 99-99 0-99 0 0-99 0-99zm0 895l99 0 0 99-99 0 0-99zm0 497l99 0 0 99-99 0 0-99zm99-895l99 0 0 99-99 0 0-99zm0 497l99 0 0 99 0 0 0 99-99 0 0-99 0 0 0-99zm99-298l99 0 0-99 99 0 0 99 99 0 0-99 99 0 0-99 99 0 0 99 0 99-99 0 0 99-99 0 0 0-99 0-99 0-99 0 0-99zm0 596l99 0 0 99-99 0 0-99zm99-398l99 0 99 0 0 0 99 0 0 99 0 99 0 0 0 99-99 0 0 0-99 0-99 0 0-99 0 0 0-99 0-99zm0 497l99 0 99 0 0 99-99 0 0 99-99 0 0-99 0-99zm99-895l99 0 0 99-99 0 0-99zm99-1292l-99 0 0 99 0 0 0 99 0 99 0 99 0 0 0 99 0 99 0 99 99 0 0 0 99 0 99 0 99 0 0 0 99 0 99 0 99 0 0-99 0-99 0-99 0 0 0-99 0-99 0-99 0 0 0-99-99 0-99 0-99 0 0 0-99 0-99 0-99 0 0 0zm0 199l0-99 99 0 99 0 99 0 0 0 99 0 99 0 0 99 0 99 0 99 0 0 0 99 0 99-99 0-99 0 0 0-99 0-99 0-99 0 0-99 0-99 0 0 0-99 0-99zm-99 895l99 0 0 0 99 0 0-99 0 0 0-99 0-99-99 0 0 99 0 99-99 0 0 99zm0 795l99 0 0-99-99 0 0 99zm99 199l99 0 0 99-99 0 0-99zm99 99l99 0 0-99 99 0 0 99 0 0 0 99-99 0-99 0 0-99zm99-1988l-99 0 0 99 0 99 0 0 0 99 99 0 99 0 0 0 99 0 0-99 0 0 0-99 0-99-99 0 0 0-99 0zm0 1391l99 0 0 99-99 0 0-99zm0-696l99 0 0-99-99 0 0 99zm0 199l99 0 0-99-99 0 0 99zm99 795l99 0 0 99-99 0 0-99zm0 398l99 0 0-99 99 0 0 99 0 99-99 0-99 0 0-99z"/>
		</g>
		<polygon class="fil6" points="3208 5377 3208 5242 3073 5242 3073 5185 3208 5185 3208 5050 3265 5050 3265 5185 3400 5185 3400 5242 3265 5242 3265 5377 "/>
		<g>
			<path class="fil2" d="M2178 1089c0 601-487 1089-1089 1089-601 0-1089-488-1089-1089 0-601 487-1089 1089-1089 601 0 1089 488 1089 1089z"/>
			<path class="fil0" d="M1612 1863c0 10 0 46-12 51-21 10-46-7-67 6-13 8-19 22-28 33-28 32-59 62-88 94-5 6-8 15-7 23 0 0 3 7 1 7-22 5-50-29-53-49-4-26 19-43 27-65 24-66 55-190 44-259-17-100-96-43-112-164-3-24-7-52 3-75 10-23 36-33 46-56 22-50-28-118 55-127l8 0 6 0 4 0 6 0 11-3c10-3 16-4 27-5 12-1 25 4 37 6 28 4 57 0 82 15 48 29 98 58 139 97l-24 39c4-5 9-6 15-6 53 6 144 12 178 66 13 53-90 112-92 176 0 8 9 20 1 26-21 17-50 16-71 33-51 41-62 126-137 136zm-1246-1407c-94 50-59-36-21-72l-5-29c114-99 381-182 523-168-14-55-38-36-80-59 62 2 126 4 187-5 14 0 73 101 131 88l67-45c43 0 83 12 125 21-1 65-73 71-109 128l0 16 117 80c66-28 46 63 56 75 42 47 82-76 91-104l-48-80 91 21 61 67c20 1 46 0 64-11 17 42 57 83 96 104 12 84 123 139-8 115l-3-53-107 0c33 5 53 110 67 136l-96 0c9 58-106 59-115 109 0 63-34 24-75 64l19 99-184-85c-123 33-112 105-53 200l40-24c-4-4 27-27 29-5l0 77 136 27 0 83 72 24-99-16c-48-127-371-108-350-219-22-23-153-173-179-160-234-130 33-343-238-446l-181 0-5 16-16 32zm-366 633c0 601 487 1089 1089 1089 601 0 1089-488 1089-1089 0-601-487-1089-1089-1089-601 0-1089 487-1089 1089z"/>
		</g>
		<line class="fil7 str0" x1="1089" y1="2382" x2="1089" y2="6376"/>
		<line class="fil7 str0" x1="1317" y1="3893" x2="2017" y2="3893"/>
		<line class="fil7 str0" x1="1358" y1="6345" x2="2058" y2="6345"/>
	</g>
</svg>
