<?xml version="1.0" encoding="UTF-8"?>
<svg xmlns="http://www.w3.org/2000/svg" xmlns:xlink="http://www.w3.org/1999/xlink" xml:space="preserve" height="460px" viewBox="0 0 16337 9778" version="1.1" baseProfile="full" style="clip-rule:evenodd;fill-rule:evenodd;image-rendering:optimizeQuality;shape-rendering:geometricPrecision;text-rendering:optimizeLegibility">
	<defs>
		<style type="text/css"><![CDATA[
			.str7 {stroke:white;stroke-width:7.35678}
			.str6 {stroke:black;stroke-width:19.3091}
			.str5 {stroke:white;stroke-width:19.3091}
			.str2 {stroke:black;stroke-width:24.1364}
			.str4 {stroke:white;stroke-width:24.1364}
			.str0 {stroke:black;stroke-width:72.4093}
			.str1 {stroke:black;stroke-width:96.5457}
			.str3 {stroke:white;stroke-width:96.5457}
			.fil1 {fill:none}
			.fil2 {fill:black}
			.fil0 {fill:white}
			.fil3 {fill:black;fill-rule:nonzero}
		]]></style>
	</defs>
	<g>
		<g>
			<rect class="fil0 str0" x="1290" y="5373" width="1793" height="2323"/>
			<line class="fil1 str1" x1="1794" y1="5666" x2="2578" y2="5666"/>
			<line class="fil1 str2" x1="2403" y1="5905" x2="2948" y2="5905"/>
			<line class="fil1 str2" x1="2479" y1="6007" x2="2948" y2="6007"/>
			<line class="fil1 str2" x1="1461" y1="6207" x2="2912" y2="6207"/>
			<line class="fil1 str2" x1="1461" y1="6293" x2="2912" y2="6293"/>
			<line class="fil1 str2" x1="1461" y1="6380" x2="2912" y2="6380"/>
			<line class="fil1 str2" x1="1461" y1="6466" x2="2912" y2="6466"/>
			<line class="fil1 str2" x1="1461" y1="6553" x2="2912" y2="6553"/>
			<line class="fil1 str2" x1="1461" y1="6639" x2="2912" y2="6639"/>
			<line class="fil1 str2" x1="1461" y1="6726" x2="2912" y2="6726"/>
			<line class="fil1 str2" x1="1461" y1="6812" x2="2912" y2="6812"/>
			<line class="fil1 str2" x1="1461" y1="6899" x2="2912" y2="6899"/>
			<line class="fil1 str2" x1="1461" y1="6985" x2="2912" y2="6985"/>
			<line class="fil1 str2" x1="1461" y1="7072" x2="2912" y2="7072"/>
			<line class="fil1 str2" x1="1461" y1="7158" x2="2912" y2="7158"/>
			<line class="fil1 str2" x1="1461" y1="7244" x2="2912" y2="7244"/>
			<line class="fil1 str2" x1="1461" y1="7331" x2="2912" y2="7331"/>
			<line class="fil1 str2" x1="1461" y1="7417" x2="2912" y2="7417"/>
			<line class="fil1 str2" x1="1461" y1="7504" x2="2912" y2="7504"/>
		</g>
		<g>
			<rect class="fil0 str0" x="5267" y="5373" width="1793" height="2323"/>
			<line class="fil1 str1" x1="5772" y1="5666" x2="6556" y2="5666"/>
			<line class="fil1 str2" x1="6380" y1="5905" x2="6925" y2="5905"/>
			<line class="fil1 str2" x1="6457" y1="6007" x2="6925" y2="6007"/>
			<line class="fil1 str2" x1="5438" y1="6207" x2="6075" y2="6207"/>
			<line class="fil1 str2" x1="5438" y1="6293" x2="6075" y2="6293"/>
			<line class="fil1 str2" x1="5438" y1="6380" x2="6075" y2="6380"/>
			<line class="fil1 str2" x1="5438" y1="6466" x2="6075" y2="6466"/>
			<line class="fil1 str2" x1="5438" y1="6553" x2="6075" y2="6553"/>
			<line class="fil1 str2" x1="5438" y1="6639" x2="6075" y2="6639"/>
			<line class="fil1 str2" x1="5438" y1="6726" x2="6075" y2="6726"/>
			<line class="fil1 str2" x1="5438" y1="6812" x2="6075" y2="6812"/>
			<line class="fil1 str2" x1="5438" y1="6899" x2="6075" y2="6899"/>
			<line class="fil1 str2" x1="5438" y1="6985" x2="6075" y2="6985"/>
			<line class="fil1 str2" x1="5438" y1="7072" x2="6075" y2="7072"/>
			<line class="fil1 str2" x1="5438" y1="7158" x2="6075" y2="7158"/>
			<line class="fil1 str2" x1="5438" y1="7244" x2="6075" y2="7244"/>
			<line class="fil1 str2" x1="5438" y1="7331" x2="6075" y2="7331"/>
			<line class="fil1 str2" x1="5438" y1="7417" x2="6075" y2="7417"/>
			<line class="fil1 str2" x1="5438" y1="7504" x2="6075" y2="7504"/>
			<line class="fil1 str2" x1="6288" y1="6207" x2="6925" y2="6207"/>
			<line class="fil1 str2" x1="6288" y1="6294" x2="6925" y2="6294"/>
			<line class="fil1 str2" x1="6288" y1="6380" x2="6925" y2="6380"/>
			<line class="fil1 str2" x1="6288" y1="6466" x2="6925" y2="6466"/>
			<line class="fil1 str2" x1="6288" y1="6553" x2="6925" y2="6553"/>
			<line class="fil1 str2" x1="6288" y1="6639" x2="6925" y2="6639"/>
			<line class="fil1 str2" x1="6288" y1="6726" x2="6925" y2="6726"/>
			<line class="fil1 str2" x1="6288" y1="6812" x2="6925" y2="6812"/>
			<line class="fil1 str2" x1="6288" y1="6899" x2="6925" y2="6899"/>
			<line class="fil1 str2" x1="6288" y1="6985" x2="6925" y2="6985"/>
			<line class="fil1 str2" x1="6288" y1="7072" x2="6925" y2="7072"/>
			<line class="fil1 str2" x1="6288" y1="7158" x2="6925" y2="7158"/>
			<line class="fil1 str2" x1="6288" y1="7245" x2="6925" y2="7245"/>
			<line class="fil1 str2" x1="6288" y1="7331" x2="6925" y2="7331"/>
			<line class="fil1 str2" x1="6288" y1="7417" x2="6925" y2="7417"/>
			<line class="fil1 str2" x1="6288" y1="7504" x2="6925" y2="7504"/>
		</g>
		<g>
			<rect class="fil2 str0" x="9245" y="5373" width="1793" height="2323"/>
			<line class="fil1 str3" x1="9750" y1="5666" x2="10533" y2="5666"/>
			<line class="fil1 str4" x1="10358" y1="5905" x2="10903" y2="5905"/>
			<line class="fil1 str4" x1="10435" y1="6007" x2="10903" y2="6007"/>
			<line class="fil1 str4" x1="9445" y1="6207" x2="10082" y2="6207"/>
			<line class="fil1 str4" x1="9445" y1="6380" x2="10082" y2="6380"/>
			<line class="fil1 str4" x1="9445" y1="6553" x2="10082" y2="6553"/>
			<line class="fil1 str4" x1="9445" y1="6726" x2="10082" y2="6726"/>
			<line class="fil1 str4" x1="9445" y1="6899" x2="10082" y2="6899"/>
			<line class="fil1 str4" x1="9445" y1="7072" x2="10082" y2="7072"/>
			<line class="fil1 str4" x1="9445" y1="7244" x2="10082" y2="7244"/>
			<line class="fil1 str4" x1="9445" y1="7417" x2="10082" y2="7417"/>
			<line class="fil1 str4" x1="10237" y1="6207" x2="10874" y2="6207"/>
			<line class="fil1 str4" x1="10237" y1="6380" x2="10874" y2="6380"/>
			<line class="fil1 str4" x1="10237" y1="6553" x2="10874" y2="6553"/>
			<line class="fil1 str4" x1="10237" y1="6726" x2="10874" y2="6726"/>
			<line class="fil1 str4" x1="10237" y1="6899" x2="10874" y2="6899"/>
			<line class="fil1 str4" x1="10237" y1="7072" x2="10874" y2="7072"/>
			<line class="fil1 str4" x1="10237" y1="7245" x2="10874" y2="7245"/>
			<line class="fil1 str4" x1="10237" y1="7417" x2="10874" y2="7417"/>
			<line class="fil1 str5" x1="9359" y1="6207" x2="9359" y2="7567"/>
			<line class="fil1 str5" x1="10924" y1="6207" x2="10924" y2="7567"/>
		</g>
		<g>
			<rect class="fil0 str0" x="14352" y="5373" width="1793" height="2323"/>
			<line class="fil1 str1" x1="14857" y1="5666" x2="15640" y2="5666"/>
			<line class="fil1 str2" x1="15032" y1="5905" x2="14487" y2="5905"/>
			<line class="fil1 str2" x1="14956" y1="6007" x2="14487" y2="6007"/>
			<line class="fil1 str2" x1="14552" y1="6207" x2="15189" y2="6207"/>
			<line class="fil1 str2" x1="14552" y1="6293" x2="15189" y2="6293"/>
			<line class="fil1 str2" x1="14552" y1="6380" x2="15189" y2="6380"/>
			<line class="fil1 str2" x1="14552" y1="6466" x2="15189" y2="6466"/>
			<line class="fil1 str2" x1="14552" y1="6553" x2="15189" y2="6553"/>
			<line class="fil1 str2" x1="14552" y1="6639" x2="15189" y2="6639"/>
			<line class="fil1 str2" x1="14552" y1="6726" x2="15189" y2="6726"/>
			<line class="fil1 str2" x1="14552" y1="6985" x2="15189" y2="6985"/>
			<line class="fil1 str2" x1="14552" y1="7072" x2="15189" y2="7072"/>
			<line class="fil1 str2" x1="14552" y1="7158" x2="15189" y2="7158"/>
			<line class="fil1 str2" x1="14552" y1="7244" x2="15189" y2="7244"/>
			<line class="fil1 str2" x1="14552" y1="7331" x2="15189" y2="7331"/>
			<line class="fil1 str2" x1="14552" y1="7417" x2="15189" y2="7417"/>
			<line class="fil1 str2" x1="14552" y1="7504" x2="15189" y2="7504"/>
			<line class="fil1 str2" x1="15344" y1="6207" x2="15981" y2="6207"/>
			<line class="fil1 str2" x1="15344" y1="6294" x2="15981" y2="6294"/>
			<line class="fil1 str2" x1="15344" y1="6380" x2="15981" y2="6380"/>
			<line class="fil1 str2" x1="15344" y1="6466" x2="15981" y2="6466"/>
			<line class="fil1 str2" x1="15344" y1="6553" x2="15981" y2="6553"/>
			<line class="fil1 str2" x1="15344" y1="6639" x2="15981" y2="6639"/>
			<line class="fil1 str2" x1="15344" y1="6726" x2="15981" y2="6726"/>
			<line class="fil1 str2" x1="15344" y1="6985" x2="15981" y2="6985"/>
			<line class="fil1 str2" x1="15344" y1="7072" x2="15981" y2="7072"/>
			<line class="fil1 str2" x1="15344" y1="7158" x2="15981" y2="7158"/>
			<line class="fil1 str2" x1="15344" y1="7245" x2="15981" y2="7245"/>
			<line class="fil1 str2" x1="15344" y1="7331" x2="15981" y2="7331"/>
			<line class="fil1 str2" x1="15344" y1="7417" x2="15981" y2="7417"/>
			<line class="fil1 str2" x1="15344" y1="7504" x2="15981" y2="7504"/>
			<line class="fil1 str6" x1="14466" y1="6207" x2="14466" y2="7567"/>
			<line class="fil1 str6" x1="16031" y1="6207" x2="16031" y2="7567"/>
			<line class="fil1 str0" x1="14552" y1="6861" x2="15981" y2="6861"/>
		</g>
		<g>
			<path class="fil3" d="M2222 5166l-72 0 7-151 21-145 35-139 48-133 60-127 72-121 84-115 94-109 104-104 114-98 122-93 131-87 139-82 146-77 153-72 159-67 164-62 169-58 174-53 178-49 182-44 185-40 187-36 189-32 191-28 191-24 192-20 192-16 191-12 190-9 188-5 186-2 0 72-184 2-187 5-188 9-189 12-190 16-190 20-190 23-189 27-188 31-185 35-183 40-180 44-176 48-172 53-167 57-162 62-156 66-150 71-143 76-135 80-127 85-119 90-110 95-100 100-90 105-80 110-69 115-57 121-46 126-33 132-20 138-7 144zm-67 76l61-39-61 0 185-286 61 39-185 286-61 0zm0 0l61 0-30 47-30-47zm-155-305l30-20 185 286-61 39-185-286 30-20z"/>
		</g>
		<g>
			<path class="fil3" d="M6190 5167l-72-1-3-71-11-74-18-77-24-79-30-81-34-83-38-84-41-85-42-85-43-85-43-85-42-85-40-84-38-83-34-81-29-80-24-78-17-76-9-74 0-72 10-69 22-66 34-62 47-56 61-50 75-44 89-37 104-31 120-24 138-18 156-11 175-4 0 72-172 4-152 11-133 17-115 23-97 29-81 34-65 38-51 42-39 46-27 49-17 53-8 58 0 62 8 67 16 70 22 74 28 77 33 79 37 81 40 83 42 84 43 85 43 85 43 86 41 86 39 86 35 85 31 84 26 83 19 82 12 81 4 79zm-68 75l61-39-61-1 189-283 60 40-189 283-61-1zm0 0l61 1-31 46-30-47zm-151-307l31-19 182 288-61 39-182-288 31-19z"/>
		</g>
		<g>
			<path class="fil3" d="M15285 5166l-72 0-10-142-29-136-48-131-65-125-82-120-98-115-113-110-128-105-141-100-154-95-165-91-176-86-186-81-194-76-202-71-209-66-215-62-220-57-223-53-226-48-228-44-229-40-230-36-229-31-227-27-224-24-220-20-216-16-210-12-203-9-196-5-187-2 0-72 189 2 197 5 205 9 211 12 217 16 221 20 225 24 228 28 230 32 231 36 231 40 230 44 228 49 225 53 221 58 217 62 211 67 204 72 197 77 188 82 179 87 169 92 157 98 145 103 132 109 118 115 103 121 87 127 69 134 51 140 31 146 11 152zm-67 76l61-39-61 0 185-286 61 39-185 286-61 0zm0 0l61 0-30 47-30-47zm-155-305l30-20 185 286-61 39-185-286 30-20z"/>
		</g>
		<g>
			<path class="fil3" d="M10186 5166l-72 1 4-79 12-81 20-82 26-83 31-84 36-85 39-86 42-86 43-86 44-85 44-85 42-84 40-83 37-81 33-79 28-77 23-74 16-70 9-67 1-62-8-58-17-53-27-49-38-46-51-42-65-38-81-34-97-29-115-23-133-17-152-11-172-4 0-72 175 4 156 11 137 18 120 24 104 31 89 37 74 44 60 50 47 56 34 62 21 66 10 69-1 72-10 74-17 76-24 78-30 80-34 81-38 83-41 84-43 85-44 85-44 85-43 85-41 85-38 84-35 83-30 81-25 79-18 77-11 74-3 71zm-66 77l60-40-61 1 182-288 61 39-182 288-61 1zm0 0l61-1-30 47-31-46zm-159-304l30-20 189 283-60 40-189-283 30-20z"/>
		</g>
		<g>
			<circle class="fil2" cx="12382" cy="6535" r="77"/>
			<circle class="fil2" cx="12695" cy="6535" r="77"/>
			<circle class="fil2" cx="13008" cy="6535" r="77"/>
		</g>
		<g>
			<path class="fil2" d="M9805 3232l-210-5c-3-27 4-108-9-99l-494 465c-10 9-137-263-285-471-60-98-164-125-284-125-18 0-198 1-374 1-176-1-356-1-374-1-120 0-224 27-284 125-147 208-274 480-284 471l-494-465c-13-9-7 71-9 98l-209 5c-13 0 35 66 46 86 13 9 119 19 225 9 10 88 482 594 493 574l411-440c197 694 7 758 524 770l0 0c0 0 0 0 0 0l0 0 0 0c482-12 283-76 480-770l379 440c11 20 478-486 488-574 106 11 209 1 222-9 11-20 57-86 44-86zm-1058 1262c70-75 117-192 90-225-30-37-156 22-251 99-37-30-71-62-104-92-48 59-136 74-333 74-197 0-285-15-333-74-32 30-67 62-104 92-95-77-220-136-251-99-27 33 20 149 90 225-164 123-326 235-454 360-112 112-150 312 119 312 226 0 875-368 933-401 58 33 706 401 932 401 269 0 231-200 119-312-129-125-290-237-454-360z"/>
			<g>
				<path class="fil0" d="M8168 2050c-239 0-433 194-433 433 0 239 194 433 433 433 239 0 433-194 433-433 0-239-194-433-433-433z"/>
				<circle class="fil2" cx="7995" cy="2529" r="58"/>
				<circle class="fil2" cx="8341" cy="2529" r="58"/>
				<path class="fil2" d="M8168 2714c-22 0-42-10-55-28-4-5-3-12 2-16 5-4 12-3 16 2 9 12 22 19 37 19 15 0 28-7 37-19 4-5 11-6 16-2 5 4 6 11 2 16-13 18-34 28-56 28z"/>
				<path class="fil2" d="M8451 2437l-219 0c-25 0-46 21-46 46l0 19c-5-1-11-2-17-2-6 0-12 1-17 2l0-19c0-25-21-46-46-46l-219 0c-25 0-46 21-46 46l0 92c0 25 21 46 46 46l219 0c25 0 46-21 46-46l0-49c4-2 10-3 17-3 7 0 13 1 17 3l0 49c0 25 21 46 46 46l219 0c25 0 46-21 46-46l0-92c0-25-21-46-46-46zm-323 138c0 13-10 23-23 23l-219 0c-13 0-23-10-23-23l0-92c0-13 10-23 23-23l219 0c13 0 23 10 23 23l0 30 0 28 0 35zm346 0c0 13-10 23-23 23l-219 0c-13 0-23-10-23-23l0-35 0-28 0-30c0-13 10-23 23-23l219 0c13 0 23 10 23 23l0 92z"/>
				<path class="fil2" d="M8168 2050c-239 0-433 194-433 433 0 239 194 433 433 433 239 0 433-194 433-433 0-239-194-433-433-433zm0 831c-219 0-398-179-398-398 0-20 1-39 4-58 200 1 469-38 567-137 0 19 48 137 220 137 3 19 5 39 5 59 0 219-179 398-398 398z"/>
			</g>
		</g>
		<g>
			<path class="fil0" d="M2165 8515c-294 0-532 238-532 532 0 294 238 532 532 532 294 0 532-238 532-532 0-294-238-532-532-532z"/>
			<circle class="fil2" cx="1949" cy="9083" r="56"/>
			<circle class="fil2" cx="2376" cy="9083" r="56"/>
			<path class="fil2" d="M2165 9332c-27 0-52-12-68-34-5-6-3-15 3-20 6-5 15-3 20 3 11 14 27 23 46 23 18 0 35-8 46-23 5-6 14-8 20-3 6 5 8 14 3 20-16 22-42 34-68 34z"/>
			<path class="fil2" d="M2513 8991l-270 0c-31 0-57 25-57 57l0 24c-6-1-13-2-21-2-8 0-15 1-21 2l0-24c0-31-25-57-57-57l-270 0c-31 0-57 25-57 57l0 114c0 31 25 57 57 57l270 0c31 0 57-25 57-57l0-61c5-2 12-3 21-3 9 0 16 1 21 3l0 61c0 31 25 57 57 57l270 0c31 0 57-25 57-57l0-114c0-31-25-57-57-57zm-397 170c0 16-13 28-28 28l-270 0c-16 0-28-13-28-28l0-114c0-16 13-28 28-28l270 0c16 0 28 13 28 28l0 36 0 34 0 43zm426 0c0 16-13 28-28 28l-270 0c-16 0-28-13-28-28l0-43 0-35 0-36c0-16 13-28 28-28l270 0c16 0 28 13 28 28l0 114z"/>
			<path class="fil2" d="M2165 8515c-294 0-532 238-532 532 0 294 238 532 532 532 294 0 532-238 532-532 0-294-238-532-532-532zm0 1022c-270 0-490-220-490-490 0-24 2-48 5-72 246 1 578-47 698-169 0 23 58 168 270 168 4 24 6 48 6 73 0 270-220 490-490 490z"/>
		</g>
		<g>
			<path class="fil0" d="M7445 0l1409 0 0 88-1409 0 0-88zm-176 176l1762 0 0 88-1762 0 0-88zm-176 176l2114 0 0 1321-2114 0 0-1321z"/>
			<path class="fil2" d="M7092 1674l0-1321 2114 0 0 1321-2114 0zm1055-1030l-125 751-2 10 131 0 125-751 2-10-131 0zm-188 115l-34 22-254 158-30 18 0 135 30 18 254 158 34 22 0-151-184-115 184-115 0-151 0 0zm380 0l0 151 184 115-184 115 0 151 34-22 254-158 30-18 0-135-30-18-254-158-34-22 0 0zm779 827l0-1145-1938 0 0 1145 1938 0zm-1850-1409l1762 0 0 88-1762 0 0-88zm176-176l1409 0 0 88-1409 0 0-88z"/>
		</g>
		<path class="fil3" d="M1556 8222c12 0 23-2 32-6 10-4 18-10 24-17 7-7 12-16 15-26 3-10 5-21 5-34l0-178 39 0 0 178c0 17-3 33-8 47-5 14-13 27-23 37-10 11-22 19-37 25-14 6-31 9-49 9-18 0-34-3-49-9-14-6-27-14-37-25-10-11-18-23-23-37-5-14-8-30-8-47l0-178 39 0 0 178c0 12 2 23 5 34 3 10 9 19 15 26 7 7 15 13 24 17 10 4 20 6 33 6z"/>
		<path class="fil3" d="M1846 8081c-2 3-4 4-8 4-2 0-4-1-7-2-3-1-6-3-9-5-4-2-8-4-13-5-5-2-11-2-18-2-6 0-12 1-17 2-5 2-9 4-13 6-3 3-6 6-8 9-2 4-3 8-3 12 0 5 2 10 5 13 3 4 7 7 12 9 5 3 11 5 17 7 6 2 13 4 20 6 7 2 13 5 20 7 6 3 12 6 17 10 5 4 9 9 12 15 3 6 5 13 5 21 0 10-2 18-5 26-3 8-8 15-15 21-7 6-15 11-25 14-10 3-21 5-34 5-14 0-28-2-39-7-12-5-22-11-30-18l9-14c1-2 2-3 4-4 2-1 3-1 6-1 2 0 5 1 8 3 3 2 6 4 10 6 4 2 9 4 14 6 6 2 13 3 21 3 7 0 13-1 19-3 5-2 10-4 13-7 4-3 6-7 8-11 2-4 3-8 3-13 0-6-1-10-5-14-3-4-7-7-12-10-5-3-11-5-17-7-6-2-13-4-20-6-7-2-13-5-20-7-6-3-12-6-17-10-5-4-9-9-12-16-3-6-5-14-5-23 0-8 2-16 5-23 3-7 8-14 14-19 6-6 14-10 23-13 9-3 20-5 31-5 14 0 26 2 37 6 11 4 20 10 28 18l-8 13z"/>
		<path class="fil3" d="M2041 8128c0-8-1-16-4-23-2-7-6-13-10-18-5-5-10-9-17-12-7-3-14-4-22-4-17 0-31 5-41 15-10 10-16 24-19 42l113 0zm29 97c-4 5-10 10-16 14-6 4-13 7-20 10-7 3-15 4-22 6-8 1-15 2-23 2-14 0-27-2-40-7-12-5-22-12-31-21-9-9-16-21-21-35-5-14-7-30-7-47 0-14 2-28 7-40 4-13 11-23 19-33 8-9 18-16 30-22 12-5 25-8 40-8 12 0 24 2 34 6 11 4 20 10 27 18 8 8 14 18 18 29 4 12 7 25 7 39 0 6-1 10-2 11-1 2-4 3-7 3l-138 0c0 13 2 24 5 34 3 10 8 18 13 24 6 6 13 11 20 15 8 3 17 5 27 5 9 0 17-1 24-3 7-2 12-4 17-7 5-2 9-5 12-7 3-2 6-3 8-3 3 0 5 1 7 3l10 13z"/>
		<path class="fil3" d="M2153 8088c7-14 15-25 24-33 10-8 21-12 35-12 4 0 9 0 13 1 4 1 8 2 11 4l-3 27c-1 3-3 5-6 5-2 0-5 0-8-1-4-1-8-1-12-1-7 0-12 1-17 3-5 2-10 5-14 8-4 4-8 8-11 14-3 6-6 12-9 19l0 131-37 0 0-207 21 0c4 0 7 1 8 2 1 1 3 4 3 8l2 31z"/>
		<path class="fil3" d="M2481 8193c2 0 4 1 6 3l16 17c-12 14-26 25-44 32-17 8-38 12-62 12-21 0-40-4-57-11-17-7-32-18-44-31-12-13-22-29-28-47-7-18-10-39-10-61 0-22 3-42 10-61 7-18 17-34 29-47 13-13 28-23 45-31 18-7 37-11 58-11 21 0 39 3 55 10 16 7 30 16 42 27l-13 18c-1 1-2 2-3 3-1 1-3 1-5 1-2 0-5-1-9-4-4-3-8-6-14-9-6-3-13-6-21-9-9-3-19-4-32-4-15 0-29 3-41 8-13 5-23 13-32 23-9 10-16 22-21 36-5 14-8 30-8 48 0 18 3 35 8 49 5 14 12 26 21 36 9 10 20 17 32 23 12 5 26 8 40 8 9 0 17-1 24-2 7-1 13-3 19-5 6-2 11-5 17-8 5-3 10-7 15-12 2-2 5-3 7-3z"/>
		<path class="fil3" d="M2698 8007c-1 2-3 4-4 5-1 1-3 2-5 2-2 0-5-1-8-3-3-2-7-5-12-8-5-3-10-5-17-8-7-2-15-3-24-3-9 0-17 1-23 4-7 2-12 6-17 10-5 4-8 9-10 14-2 6-3 12-3 18 0 8 2 15 6 20 4 5 9 10 16 14 7 4 14 7 22 10 8 3 17 6 26 9 9 3 17 6 26 10 8 4 16 9 22 14 7 6 12 13 16 21 4 8 6 19 6 31 0 13-2 25-7 36-4 11-11 21-19 29-8 8-19 15-31 20-12 5-26 7-42 7-19 0-36-3-52-10-16-7-29-16-40-28l11-19c1-1 2-3 4-4 2-1 3-1 5-1 2 0 4 1 6 2 2 1 5 3 8 5 3 2 6 5 10 7 4 3 8 5 13 7 5 2 10 4 16 5 6 1 13 2 20 2 9 0 18-1 25-4 7-3 14-6 19-11 5-5 9-10 12-17 3-7 4-14 4-22 0-9-2-16-6-22-4-6-9-10-16-14-7-4-14-7-22-10-8-3-17-5-26-8-9-3-17-6-26-10-8-4-16-8-22-14-7-6-12-13-16-22-4-9-6-20-6-33 0-10 2-20 6-30 4-10 10-18 18-26 8-7 17-13 28-18 11-4 24-7 39-7 16 0 31 3 45 8 13 5 25 13 35 22l-10 19z"/>
		<path class="fil3" d="M2920 8007c-1 2-3 4-4 5-1 1-3 2-5 2-2 0-5-1-8-3-3-2-7-5-12-8-5-3-10-5-17-8-7-2-15-3-24-3-9 0-17 1-23 4-7 2-12 6-17 10-5 4-8 9-10 14-2 6-3 12-3 18 0 8 2 15 6 20 4 5 9 10 16 14 7 4 14 7 22 10 8 3 17 6 26 9 9 3 17 6 26 10 8 4 16 9 22 14 7 6 12 13 16 21 4 8 6 19 6 31 0 13-2 25-7 36-4 11-11 21-19 29-8 8-19 15-31 20-12 5-26 7-42 7-19 0-36-3-52-10-16-7-29-16-40-28l11-19c1-1 2-3 4-4 2-1 3-1 5-1 2 0 4 1 6 2 2 1 5 3 8 5 3 2 6 5 10 7 4 3 8 5 13 7 5 2 10 4 16 5 6 1 13 2 20 2 9 0 18-1 25-4 7-3 14-6 19-11 5-5 9-10 12-17 3-7 4-14 4-22 0-9-2-16-6-22-4-6-9-10-16-14-7-4-14-7-22-10-8-3-17-5-26-8-9-3-17-6-26-10-8-4-16-8-22-14-7-6-12-13-16-22-4-9-6-20-6-33 0-10 2-20 6-30 4-10 10-18 18-26 8-7 17-13 28-18 11-4 24-7 39-7 16 0 31 3 45 8 13 5 25 13 35 22l-10 19z"/>
		<path class="fil3" d="M5534 8222c12 0 23-2 32-6 10-4 18-10 24-17 7-7 12-16 15-26 3-10 5-21 5-34l0-178 39 0 0 178c0 17-3 33-8 47-5 14-13 27-23 37-10 11-22 19-37 25-14 6-31 9-49 9-18 0-34-3-49-9-14-6-27-14-37-25-10-11-18-23-23-37-5-14-8-30-8-47l0-178 39 0 0 178c0 12 2 23 5 34 3 10 9 19 15 26 7 7 15 13 24 17 10 4 20 6 33 6z"/>
		<path class="fil3" d="M5824 8081c-2 3-4 4-8 4-2 0-4-1-7-2-3-1-6-3-9-5-4-2-8-4-13-5-5-2-11-2-18-2-6 0-12 1-17 2-5 2-9 4-13 6-3 3-6 6-8 9-2 4-3 8-3 12 0 5 2 10 5 13 3 4 7 7 12 9 5 3 11 5 17 7 6 2 13 4 20 6 7 2 13 5 20 7 6 3 12 6 17 10 5 4 9 9 12 15 3 6 5 13 5 21 0 10-2 18-5 26-3 8-8 15-15 21-7 6-15 11-25 14-10 3-21 5-34 5-14 0-28-2-39-7-12-5-22-11-30-18l9-14c1-2 2-3 4-4 2-1 3-1 6-1 2 0 5 1 8 3 3 2 6 4 10 6 4 2 9 4 14 6 6 2 13 3 21 3 7 0 13-1 19-3 5-2 10-4 13-7 4-3 6-7 8-11 2-4 3-8 3-13 0-6-1-10-5-14-3-4-7-7-12-10-5-3-11-5-17-7-6-2-13-4-20-6-7-2-13-5-20-7-6-3-12-6-17-10-5-4-9-9-12-16-3-6-5-14-5-23 0-8 2-16 5-23 3-7 8-14 14-19 6-6 14-10 23-13 9-3 20-5 31-5 14 0 26 2 37 6 11 4 20 10 28 18l-8 13z"/>
		<path class="fil3" d="M6019 8128c0-8-1-16-4-23-2-7-6-13-10-18-5-5-10-9-17-12-7-3-14-4-22-4-17 0-31 5-41 15-10 10-16 24-19 42l113 0zm29 97c-4 5-10 10-16 14-6 4-13 7-20 10-7 3-15 4-22 6-8 1-15 2-23 2-14 0-27-2-40-7-12-5-22-12-31-21-9-9-16-21-21-35-5-14-7-30-7-47 0-14 2-28 7-40 4-13 11-23 19-33 8-9 18-16 30-22 12-5 25-8 40-8 12 0 24 2 34 6 11 4 20 10 27 18 8 8 14 18 18 29 4 12 7 25 7 39 0 6-1 10-2 11-1 2-4 3-7 3l-138 0c0 13 2 24 5 34 3 10 8 18 13 24 6 6 13 11 20 15 8 3 17 5 27 5 9 0 17-1 24-3 7-2 12-4 17-7 5-2 9-5 12-7 3-2 6-3 8-3 3 0 5 1 7 3l10 13z"/>
		<path class="fil3" d="M6131 8088c7-14 15-25 24-33 10-8 21-12 35-12 4 0 9 0 13 1 4 1 8 2 11 4l-3 27c-1 3-3 5-6 5-2 0-5 0-8-1-4-1-8-1-12-1-7 0-12 1-17 3-5 2-10 5-14 8-4 4-8 8-11 14-3 6-6 12-9 19l0 131-37 0 0-207 21 0c4 0 7 1 8 2 1 1 3 4 3 8l2 31z"/>
		<path class="fil3" d="M6459 8193c2 0 4 1 6 3l16 17c-12 14-26 25-44 32-17 8-38 12-62 12-21 0-40-4-57-11-17-7-32-18-44-31-12-13-22-29-28-47-7-18-10-39-10-61 0-22 3-42 10-61 7-18 17-34 29-47 13-13 28-23 45-31 18-7 37-11 58-11 21 0 39 3 55 10 16 7 30 16 42 27l-13 18c-1 1-2 2-3 3-1 1-3 1-5 1-2 0-5-1-9-4-4-3-8-6-14-9-6-3-13-6-21-9-9-3-19-4-32-4-15 0-29 3-41 8-13 5-23 13-32 23-9 10-16 22-21 36-5 14-8 30-8 48 0 18 3 35 8 49 5 14 12 26 21 36 9 10 20 17 32 23 12 5 26 8 40 8 9 0 17-1 24-2 7-1 13-3 19-5 6-2 11-5 17-8 5-3 10-7 15-12 2-2 5-3 7-3z"/>
		<path class="fil3" d="M6676 8007c-1 2-3 4-4 5-1 1-3 2-5 2-2 0-5-1-8-3-3-2-7-5-12-8-5-3-10-5-17-8-7-2-15-3-24-3-9 0-17 1-23 4-7 2-12 6-17 10-5 4-8 9-10 14-2 6-3 12-3 18 0 8 2 15 6 20 4 5 9 10 16 14 7 4 14 7 22 10 8 3 17 6 26 9 9 3 17 6 26 10 8 4 16 9 22 14 7 6 12 13 16 21 4 8 6 19 6 31 0 13-2 25-7 36-4 11-11 21-19 29-8 8-19 15-31 20-12 5-26 7-42 7-19 0-36-3-52-10-16-7-29-16-40-28l11-19c1-1 2-3 4-4 2-1 3-1 5-1 2 0 4 1 6 2 2 1 5 3 8 5 3 2 6 5 10 7 4 3 8 5 13 7 5 2 10 4 16 5 6 1 13 2 20 2 9 0 18-1 25-4 7-3 14-6 19-11 5-5 9-10 12-17 3-7 4-14 4-22 0-9-2-16-6-22-4-6-9-10-16-14-7-4-14-7-22-10-8-3-17-5-26-8-9-3-17-6-26-10-8-4-16-8-22-14-7-6-12-13-16-22-4-9-6-20-6-33 0-10 2-20 6-30 4-10 10-18 18-26 8-7 17-13 28-18 11-4 24-7 39-7 16 0 31 3 45 8 13 5 25 13 35 22l-10 19z"/>
		<path class="fil3" d="M6898 8007c-1 2-3 4-4 5-1 1-3 2-5 2-2 0-5-1-8-3-3-2-7-5-12-8-5-3-10-5-17-8-7-2-15-3-24-3-9 0-17 1-23 4-7 2-12 6-17 10-5 4-8 9-10 14-2 6-3 12-3 18 0 8 2 15 6 20 4 5 9 10 16 14 7 4 14 7 22 10 8 3 17 6 26 9 9 3 17 6 26 10 8 4 16 9 22 14 7 6 12 13 16 21 4 8 6 19 6 31 0 13-2 25-7 36-4 11-11 21-19 29-8 8-19 15-31 20-12 5-26 7-42 7-19 0-36-3-52-10-16-7-29-16-40-28l11-19c1-1 2-3 4-4 2-1 3-1 5-1 2 0 4 1 6 2 2 1 5 3 8 5 3 2 6 5 10 7 4 3 8 5 13 7 5 2 10 4 16 5 6 1 13 2 20 2 9 0 18-1 25-4 7-3 14-6 19-11 5-5 9-10 12-17 3-7 4-14 4-22 0-9-2-16-6-22-4-6-9-10-16-14-7-4-14-7-22-10-8-3-17-5-26-8-9-3-17-6-26-10-8-4-16-8-22-14-7-6-12-13-16-22-4-9-6-20-6-33 0-10 2-20 6-30 4-10 10-18 18-26 8-7 17-13 28-18 11-4 24-7 39-7 16 0 31 3 45 8 13 5 25 13 35 22l-10 19z"/>
		<path class="fil3" d="M9512 8222c12 0 23-2 32-6 10-4 18-10 24-17 7-7 12-16 15-26 3-10 5-21 5-34l0-178 39 0 0 178c0 17-3 33-8 47-5 14-13 27-23 37-10 11-22 19-37 25-14 6-31 9-49 9-18 0-34-3-49-9-14-6-27-14-37-25-10-11-18-23-23-37-5-14-8-30-8-47l0-178 39 0 0 178c0 12 2 23 5 34 3 10 9 19 15 26 7 7 15 13 24 17 10 4 20 6 33 6z"/>
		<path class="fil3" d="M9801 8081c-2 3-4 4-8 4-2 0-4-1-7-2-3-1-6-3-9-5-4-2-8-4-13-5-5-2-11-2-18-2-6 0-12 1-17 2-5 2-9 4-13 6-3 3-6 6-8 9-2 4-3 8-3 12 0 5 2 10 5 13 3 4 7 7 12 9 5 3 11 5 17 7 6 2 13 4 20 6 7 2 13 5 20 7 6 3 12 6 17 10 5 4 9 9 12 15 3 6 5 13 5 21 0 10-2 18-5 26-3 8-8 15-15 21-7 6-15 11-25 14-10 3-21 5-34 5-14 0-28-2-39-7-12-5-22-11-30-18l9-14c1-2 2-3 4-4 2-1 3-1 6-1 2 0 5 1 8 3 3 2 6 4 10 6 4 2 9 4 14 6 6 2 13 3 21 3 7 0 13-1 19-3 5-2 10-4 13-7 4-3 6-7 8-11 2-4 3-8 3-13 0-6-1-10-5-14-3-4-7-7-12-10-5-3-11-5-17-7-6-2-13-4-20-6-7-2-13-5-20-7-6-3-12-6-17-10-5-4-9-9-12-16-3-6-5-14-5-23 0-8 2-16 5-23 3-7 8-14 14-19 6-6 14-10 23-13 9-3 20-5 31-5 14 0 26 2 37 6 11 4 20 10 28 18l-8 13z"/>
		<path class="fil3" d="M9996 8128c0-8-1-16-4-23-2-7-6-13-10-18-5-5-10-9-17-12-7-3-14-4-22-4-17 0-31 5-41 15-10 10-16 24-19 42l113 0zm29 97c-4 5-10 10-16 14-6 4-13 7-20 10-7 3-15 4-22 6-8 1-15 2-23 2-14 0-27-2-40-7-12-5-22-12-31-21-9-9-16-21-21-35-5-14-7-30-7-47 0-14 2-28 7-40 4-13 11-23 19-33 8-9 18-16 30-22 12-5 25-8 40-8 12 0 24 2 34 6 11 4 20 10 27 18 8 8 14 18 18 29 4 12 7 25 7 39 0 6-1 10-2 11-1 2-4 3-7 3l-138 0c0 13 2 24 5 34 3 10 8 18 13 24 6 6 13 11 20 15 8 3 17 5 27 5 9 0 17-1 24-3 7-2 12-4 17-7 5-2 9-5 12-7 3-2 6-3 8-3 3 0 5 1 7 3l10 13z"/>
		<path class="fil3" d="M10108 8088c7-14 15-25 24-33 10-8 21-12 35-12 4 0 9 0 13 1 4 1 8 2 11 4l-3 27c-1 3-3 5-6 5-2 0-5 0-8-1-4-1-8-1-12-1-7 0-12 1-17 3-5 2-10 5-14 8-4 4-8 8-11 14-3 6-6 12-9 19l0 131-37 0 0-207 21 0c4 0 7 1 8 2 1 1 3 4 3 8l2 31z"/>
		<path class="fil3" d="M10437 8193c2 0 4 1 6 3l16 17c-12 14-26 25-44 32-17 8-38 12-62 12-21 0-40-4-57-11-17-7-32-18-44-31-12-13-22-29-28-47-7-18-10-39-10-61 0-22 3-42 10-61 7-18 17-34 29-47 13-13 28-23 45-31 18-7 37-11 58-11 21 0 39 3 55 10 16 7 30 16 42 27l-13 18c-1 1-2 2-3 3-1 1-3 1-5 1-2 0-5-1-9-4-4-3-8-6-14-9-6-3-13-6-21-9-9-3-19-4-32-4-15 0-29 3-41 8-13 5-23 13-32 23-9 10-16 22-21 36-5 14-8 30-8 48 0 18 3 35 8 49 5 14 12 26 21 36 9 10 20 17 32 23 12 5 26 8 40 8 9 0 17-1 24-2 7-1 13-3 19-5 6-2 11-5 17-8 5-3 10-7 15-12 2-2 5-3 7-3z"/>
		<path class="fil3" d="M10654 8007c-1 2-3 4-4 5-1 1-3 2-5 2-2 0-5-1-8-3-3-2-7-5-12-8-5-3-10-5-17-8-7-2-15-3-24-3-9 0-17 1-23 4-7 2-12 6-17 10-5 4-8 9-10 14-2 6-3 12-3 18 0 8 2 15 6 20 4 5 9 10 16 14 7 4 14 7 22 10 8 3 17 6 26 9 9 3 17 6 26 10 8 4 16 9 22 14 7 6 12 13 16 21 4 8 6 19 6 31 0 13-2 25-7 36-4 11-11 21-19 29-8 8-19 15-31 20-12 5-26 7-42 7-19 0-36-3-52-10-16-7-29-16-40-28l11-19c1-1 2-3 4-4 2-1 3-1 5-1 2 0 4 1 6 2 2 1 5 3 8 5 3 2 6 5 10 7 4 3 8 5 13 7 5 2 10 4 16 5 6 1 13 2 20 2 9 0 18-1 25-4 7-3 14-6 19-11 5-5 9-10 12-17 3-7 4-14 4-22 0-9-2-16-6-22-4-6-9-10-16-14-7-4-14-7-22-10-8-3-17-5-26-8-9-3-17-6-26-10-8-4-16-8-22-14-7-6-12-13-16-22-4-9-6-20-6-33 0-10 2-20 6-30 4-10 10-18 18-26 8-7 17-13 28-18 11-4 24-7 39-7 16 0 31 3 45 8 13 5 25 13 35 22l-10 19z"/>
		<path class="fil3" d="M10876 8007c-1 2-3 4-4 5-1 1-3 2-5 2-2 0-5-1-8-3-3-2-7-5-12-8-5-3-10-5-17-8-7-2-15-3-24-3-9 0-17 1-23 4-7 2-12 6-17 10-5 4-8 9-10 14-2 6-3 12-3 18 0 8 2 15 6 20 4 5 9 10 16 14 7 4 14 7 22 10 8 3 17 6 26 9 9 3 17 6 26 10 8 4 16 9 22 14 7 6 12 13 16 21 4 8 6 19 6 31 0 13-2 25-7 36-4 11-11 21-19 29-8 8-19 15-31 20-12 5-26 7-42 7-19 0-36-3-52-10-16-7-29-16-40-28l11-19c1-1 2-3 4-4 2-1 3-1 5-1 2 0 4 1 6 2 2 1 5 3 8 5 3 2 6 5 10 7 4 3 8 5 13 7 5 2 10 4 16 5 6 1 13 2 20 2 9 0 18-1 25-4 7-3 14-6 19-11 5-5 9-10 12-17 3-7 4-14 4-22 0-9-2-16-6-22-4-6-9-10-16-14-7-4-14-7-22-10-8-3-17-5-26-8-9-3-17-6-26-10-8-4-16-8-22-14-7-6-12-13-16-22-4-9-6-20-6-33 0-10 2-20 6-30 4-10 10-18 18-26 8-7 17-13 28-18 11-4 24-7 39-7 16 0 31 3 45 8 13 5 25 13 35 22l-10 19z"/>
		<path class="fil3" d="M14619 8222c12 0 23-2 32-6 10-4 18-10 24-17 7-7 12-16 15-26 3-10 5-21 5-34l0-178 39 0 0 178c0 17-3 33-8 47-5 14-13 27-23 37-10 11-22 19-37 25-14 6-31 9-49 9-18 0-34-3-49-9-14-6-27-14-37-25-10-11-18-23-23-37-5-14-8-30-8-47l0-178 39 0 0 178c0 12 2 23 5 34 3 10 9 19 15 26 7 7 15 13 24 17 10 4 20 6 33 6z"/>
		<path class="fil3" d="M14909 8081c-2 3-4 4-8 4-2 0-4-1-7-2-3-1-6-3-9-5-4-2-8-4-13-5-5-2-11-2-18-2-6 0-12 1-17 2-5 2-9 4-13 6-3 3-6 6-8 9-2 4-3 8-3 12 0 5 2 10 5 13 3 4 7 7 12 9 5 3 11 5 17 7 6 2 13 4 20 6 7 2 13 5 20 7 6 3 12 6 17 10 5 4 9 9 12 15 3 6 5 13 5 21 0 10-2 18-5 26-3 8-8 15-15 21-7 6-15 11-25 14-10 3-21 5-34 5-14 0-28-2-39-7-12-5-22-11-30-18l9-14c1-2 2-3 4-4 2-1 3-1 6-1 2 0 5 1 8 3 3 2 6 4 10 6 4 2 9 4 14 6 6 2 13 3 21 3 7 0 13-1 19-3 5-2 10-4 13-7 4-3 6-7 8-11 2-4 3-8 3-13 0-6-1-10-5-14-3-4-7-7-12-10-5-3-11-5-17-7-6-2-13-4-20-6-7-2-13-5-20-7-6-3-12-6-17-10-5-4-9-9-12-16-3-6-5-14-5-23 0-8 2-16 5-23 3-7 8-14 14-19 6-6 14-10 23-13 9-3 20-5 31-5 14 0 26 2 37 6 11 4 20 10 28 18l-8 13z"/>
		<path class="fil3" d="M15104 8128c0-8-1-16-4-23-2-7-6-13-10-18-5-5-10-9-17-12-7-3-14-4-22-4-17 0-31 5-41 15-10 10-16 24-19 42l113 0zm29 97c-4 5-10 10-16 14-6 4-13 7-20 10-7 3-15 4-22 6-8 1-15 2-23 2-14 0-27-2-40-7-12-5-22-12-31-21-9-9-16-21-21-35-5-14-7-30-7-47 0-14 2-28 7-40 4-13 11-23 19-33 8-9 18-16 30-22 12-5 25-8 40-8 12 0 24 2 34 6 11 4 20 10 27 18 8 8 14 18 18 29 4 12 7 25 7 39 0 6-1 10-2 11-1 2-4 3-7 3l-138 0c0 13 2 24 5 34 3 10 8 18 13 24 6 6 13 11 20 15 8 3 17 5 27 5 9 0 17-1 24-3 7-2 12-4 17-7 5-2 9-5 12-7 3-2 6-3 8-3 3 0 5 1 7 3l10 13z"/>
		<path class="fil3" d="M15215 8088c7-14 15-25 24-33 10-8 21-12 35-12 4 0 9 0 13 1 4 1 8 2 11 4l-3 27c-1 3-3 5-6 5-2 0-5 0-8-1-4-1-8-1-12-1-7 0-12 1-17 3-5 2-10 5-14 8-4 4-8 8-11 14-3 6-6 12-9 19l0 131-37 0 0-207 21 0c4 0 7 1 8 2 1 1 3 4 3 8l2 31z"/>
		<path class="fil3" d="M15544 8193c2 0 4 1 6 3l16 17c-12 14-26 25-44 32-17 8-38 12-62 12-21 0-40-4-57-11-17-7-32-18-44-31-12-13-22-29-28-47-7-18-10-39-10-61 0-22 3-42 10-61 7-18 17-34 29-47 13-13 28-23 45-31 18-7 37-11 58-11 21 0 39 3 55 10 16 7 30 16 42 27l-13 18c-1 1-2 2-3 3-1 1-3 1-5 1-2 0-5-1-9-4-4-3-8-6-14-9-6-3-13-6-21-9-9-3-19-4-32-4-15 0-29 3-41 8-13 5-23 13-32 23-9 10-16 22-21 36-5 14-8 30-8 48 0 18 3 35 8 49 5 14 12 26 21 36 9 10 20 17 32 23 12 5 26 8 40 8 9 0 17-1 24-2 7-1 13-3 19-5 6-2 11-5 17-8 5-3 10-7 15-12 2-2 5-3 7-3z"/>
		<path class="fil3" d="M15761 8007c-1 2-3 4-4 5-1 1-3 2-5 2-2 0-5-1-8-3-3-2-7-5-12-8-5-3-10-5-17-8-7-2-15-3-24-3-9 0-17 1-23 4-7 2-12 6-17 10-5 4-8 9-10 14-2 6-3 12-3 18 0 8 2 15 6 20 4 5 9 10 16 14 7 4 14 7 22 10 8 3 17 6 26 9 9 3 17 6 26 10 8 4 16 9 22 14 7 6 12 13 16 21 4 8 6 19 6 31 0 13-2 25-7 36-4 11-11 21-19 29-8 8-19 15-31 20-12 5-26 7-42 7-19 0-36-3-52-10-16-7-29-16-40-28l11-19c1-1 2-3 4-4 2-1 3-1 5-1 2 0 4 1 6 2 2 1 5 3 8 5 3 2 6 5 10 7 4 3 8 5 13 7 5 2 10 4 16 5 6 1 13 2 20 2 9 0 18-1 25-4 7-3 14-6 19-11 5-5 9-10 12-17 3-7 4-14 4-22 0-9-2-16-6-22-4-6-9-10-16-14-7-4-14-7-22-10-8-3-17-5-26-8-9-3-17-6-26-10-8-4-16-8-22-14-7-6-12-13-16-22-4-9-6-20-6-33 0-10 2-20 6-30 4-10 10-18 18-26 8-7 17-13 28-18 11-4 24-7 39-7 16 0 31 3 45 8 13 5 25 13 35 22l-10 19z"/>
		<path class="fil3" d="M15983 8007c-1 2-3 4-4 5-1 1-3 2-5 2-2 0-5-1-8-3-3-2-7-5-12-8-5-3-10-5-17-8-7-2-15-3-24-3-9 0-17 1-23 4-7 2-12 6-17 10-5 4-8 9-10 14-2 6-3 12-3 18 0 8 2 15 6 20 4 5 9 10 16 14 7 4 14 7 22 10 8 3 17 6 26 9 9 3 17 6 26 10 8 4 16 9 22 14 7 6 12 13 16 21 4 8 6 19 6 31 0 13-2 25-7 36-4 11-11 21-19 29-8 8-19 15-31 20-12 5-26 7-42 7-19 0-36-3-52-10-16-7-29-16-40-28l11-19c1-1 2-3 4-4 2-1 3-1 5-1 2 0 4 1 6 2 2 1 5 3 8 5 3 2 6 5 10 7 4 3 8 5 13 7 5 2 10 4 16 5 6 1 13 2 20 2 9 0 18-1 25-4 7-3 14-6 19-11 5-5 9-10 12-17 3-7 4-14 4-22 0-9-2-16-6-22-4-6-9-10-16-14-7-4-14-7-22-10-8-3-17-5-26-8-9-3-17-6-26-10-8-4-16-8-22-14-7-6-12-13-16-22-4-9-6-20-6-33 0-10 2-20 6-30 4-10 10-18 18-26 8-7 17-13 28-18 11-4 24-7 39-7 16 0 31 3 45 8 13 5 25 13 35 22l-10 19z"/>
		<g>
			<path class="fil0" d="M6164 8494c-294 0-532 238-532 532 0 294 238 532 532 532 294 0 532-238 532-532 0-294-238-532-532-532z"/>
			<circle class="fil2" cx="5948" cy="9062" r="56"/>
			<circle class="fil2" cx="6375" cy="9062" r="56"/>
			<path class="fil2" d="M6164 9310c-27 0-52-12-68-34-5-6-3-15 3-20 6-5 15-3 20 3 11 14 27 23 46 23 18 0 35-8 46-23 5-6 14-8 20-3 6 5 8 14 3 20-16 22-42 34-68 34z"/>
			<path class="fil2" d="M6512 8970l-270 0c-31 0-57 25-57 57l0 24c-6-1-13-2-21-2-8 0-15 1-21 2l0-24c0-31-25-57-57-57l-270 0c-31 0-57 25-57 57l0 114c0 31 25 57 57 57l270 0c31 0 57-25 57-57l0-61c5-2 12-3 21-3 9 0 16 1 21 3l0 61c0 31 25 57 57 57l270 0c31 0 57-25 57-57l0-114c0-31-25-57-57-57zm-397 170c0 16-13 28-28 28l-270 0c-16 0-28-13-28-28l0-114c0-16 13-28 28-28l270 0c16 0 28 13 28 28l0 36 0 34 0 43zm426 0c0 16-13 28-28 28l-270 0c-16 0-28-13-28-28l0-43 0-35 0-36c0-16 13-28 28-28l270 0c16 0 28 13 28 28l0 114z"/>
			<path class="fil2" d="M6164 8494c-294 0-532 238-532 532 0 294 238 532 532 532 294 0 532-238 532-532 0-294-238-532-532-532zm0 1022c-270 0-490-220-490-490 0-24 2-48 5-72 246 1 578-47 698-169 0 23 58 168 270 168 4 24 6 48 6 73 0 270-220 490-490 490z"/>
		</g>
		<g>
			<path class="fil2 str1" d="M10142 8494c-294 0-532 238-532 532 0 294 238 532 532 532 294 0 532-238 532-532 0-294-238-532-532-532z"/>
			<circle class="fil0" cx="9925" cy="9062" r="56"/>
			<circle class="fil0" cx="10353" cy="9062" r="56"/>
			<path class="fil0" d="M10142 9310c-27 0-52-12-68-34-5-6-3-15 3-20 6-5 15-3 20 3 11 14 27 23 46 23 18 0 35-8 46-23 5-6 14-8 20-3 6 5 8 14 3 20-16 22-42 34-68 34z"/>
			<path class="fil0" d="M10489 8970l-270 0c-31 0-57 25-57 57l0 24c-6-1-13-2-21-2-8 0-15 1-21 2l0-24c0-31-25-57-57-57l-270 0c-31 0-57 25-57 57l0 114c0 31 25 57 57 57l270 0c31 0 57-25 57-57l0-61c5-2 12-3 21-3 9 0 16 1 21 3l0 61c0 31 25 57 57 57l270 0c31 0 57-25 57-57l0-114c0-31-25-57-57-57zm-397 170c0 16-13 28-28 28l-270 0c-16 0-28-13-28-28l0-114c0-16 13-28 28-28l270 0c16 0 28 13 28 28l0 36 0 34 0 43zm426 0c0 16-13 28-28 28l-270 0c-16 0-28-13-28-28l0-43 0-35 0-36c0-16 13-28 28-28l270 0c16 0 28 13 28 28l0 114z"/>
			<path class="fil0" d="M10142 8494c-294 0-532 238-532 532 0 294 238 532 532 532 294 0 532-238 532-532 0-294-238-532-532-532zm0 1022c-270 0-490-220-490-490 0-24 2-48 5-72 246 1 578-47 698-169 0 23 58 168 270 168 4 24 6 48 6 73 0 270-220 490-490 490z"/>
		</g>
		<g>
			<path class="fil0" d="M15249 8494c-294 0-532 238-532 532 0 294 238 532 532 532 294 0 532-238 532-532 0-294-238-532-532-532z"/>
			<circle class="fil2" cx="15033" cy="9062" r="56"/>
			<circle class="fil2" cx="15460" cy="9062" r="56"/>
			<path class="fil2" d="M15249 9310c-27 0-52-12-68-34-5-6-3-15 3-20 6-5 15-3 20 3 11 14 27 23 46 23 18 0 35-8 46-23 5-6 14-8 20-3 6 5 8 14 3 20-16 22-42 34-68 34z"/>
			<path class="fil2" d="M15597 8970l-270 0c-31 0-57 25-57 57l0 24c-6-1-13-2-21-2-8 0-15 1-21 2l0-24c0-31-25-57-57-57l-270 0c-31 0-57 25-57 57l0 114c0 31 25 57 57 57l270 0c31 0 57-25 57-57l0-61c5-2 12-3 21-3 9 0 16 1 21 3l0 61c0 31 25 57 57 57l270 0c31 0 57-25 57-57l0-114c0-31-25-57-57-57zm-397 170c0 16-13 28-28 28l-270 0c-16 0-28-13-28-28l0-114c0-16 13-28 28-28l270 0c16 0 28 13 28 28l0 36 0 34 0 43zm426 0c0 16-13 28-28 28l-270 0c-16 0-28-13-28-28l0-43 0-35 0-36c0-16 13-28 28-28l270 0c16 0 28 13 28 28l0 114z"/>
			<path class="fil2" d="M15249 8494c-294 0-532 238-532 532 0 294 238 532 532 532 294 0 532-238 532-532 0-294-238-532-532-532zm0 1022c-270 0-490-220-490-490 0-24 2-48 5-72 246 1 578-47 698-169 0 23 58 168 270 168 4 24 6 48 6 73 0 270-220 490-490 490z"/>
		</g>
	</g>
</svg>
