<?xml version="1.0" encoding="UTF-8"?>
<svg xmlns="http://www.w3.org/2000/svg" xmlns:xlink="http://www.w3.org/1999/xlink" xml:space="preserve" height="605px" viewBox="0 0 22338 23122" version="1.1" baseProfile="full" style="clip-rule:evenodd;fill-rule:evenodd;image-rendering:optimizeQuality;shape-rendering:geometricPrecision;text-rendering:optimizeLegibility">
	<defs>
		<style type="text/css"><![CDATA[
			.str1 {stroke:black;stroke-width:19.5046;stroke-linecap:round;stroke-linejoin:round}
			.str0 {stroke:black;stroke-width:48.7614}
			.str2 {stroke:black;stroke-width:195.046;stroke-linecap:round;stroke-linejoin:round}
			.fil4 {fill:none}
			.fil0 {fill:black}
			.fil1 {fill:white}
			.fil3 {fill:black;fill-rule:nonzero}
			.fil2 {fill:white;fill-rule:nonzero}
		]]></style>
	</defs>
	<g>
		<g>
			<path class="fil0" d="M5682 4829c-1487 0-1129 2233-1129 2233l364 0c-18-128-189-1433 273-1694 0 0-54 1532-5 1694l961 0c47-161-4-1682-4-1682 440 259 277 1554 260 1682l357 0c0 0 409-2233-1078-2233z"/>
			<path class="fil0" d="M5649 7834c130-325 223 1945 234 2216 190-4 340-9 340-9 0 0-35-2784-80-2903l-952 0c0 0-132 2871-80 2903 19 12 169 15 353 14 7-238 57-1901 185-2222z"/>
			<g>
				<path class="fil1" d="M5682 3292c-404 0-732 328-732 732 0 404 328 732 732 732 404 0 732-328 732-732 0-404-328-732-732-732z"/>
				<circle class="fil0" cx="5389" cy="4102" r="98"/>
				<circle class="fil0" cx="5974" cy="4102" r="98"/>
				<path class="fil0" d="M5682 4384c-37 0-71 17-94 47-6 9-5 21 4 27 9 6 21 5 27-4 15-20 38-31 63-31 25 0 48 12 63 32 6 9 19 10 27 4 9-6 10-19 4-27-22-30-57-47-94-47z"/>
				<path class="fil0" d="M6160 3946l-371 0c-43 0-78 35-78 78l0 32c-9-2-18-3-29-3-11 0-21 1-29 3l0-32c0-43-35-78-78-78l-371 0c-43 0-78 35-78 78l0 156c0 43 35 78 78 78l371 0c43 0 78-35 78-78l0-83c7-3 17-5 29-5 12 0 22 2 29 5l0 83c0 43 35 78 78 78l371 0c43 0 78-35 78-78l0-156c0-43-35-78-78-78zm-546 234c0 22-17 39-39 39l-371 0c-22 0-39-17-39-39l0-156c0-22 17-39 39-39l371 0c22 0 39 17 39 39l0 50 0 47 0 59zm585 0c0 22-17 39-39 39l-371 0c-22 0-39-17-39-39l0-59 0-48 0-50c0-22 17-39 39-39l371 0c22 0 39 17 39 39l0 156z"/>
				<path class="fil0" d="M5682 3292c-404 0-732 328-732 732 0 404 328 732 732 732 404 0 732-328 732-732 0-404-328-732-732-732zm0 1405c-371 0-673-302-673-673 0-34 3-66 7-99 338 1 794-65 959-232 0 32 80 231 372 231 5 33 8 66 8 100 0 371-302 673-673 673z"/>
			</g>
			<path class="fil2" d="M5848 5345l-76 245-46 0-50-160c-1-2-2-5-2-7-1-3-2-6-2-9-1 3-1 6-2 9-1 3-2 5-2 7l-51 160-46 0-76-245 43 0c4 0 8 1 11 3 3 2 5 5 6 8l38 138c1 4 2 8 3 12 1 4 2 9 3 14 1-5 2-10 3-14 1-4 2-8 4-12l44-138c1-3 3-5 6-8 3-2 7-3 11-3l15 0c4 0 8 1 11 3 3 2 5 5 6 8l44 138c1 4 3 7 4 12 1 4 2 9 3 13 1-5 2-9 3-13 1-4 2-8 3-12l38-138c1-3 3-6 6-8 3-2 7-3 11-3l40 0z"/>
			<path class="fil2" d="M5446 5951c5 0 9 1 12 4 3 3 4 7 4 11l0 27-170 0 0-15c0-3 1-6 2-10 1-3 3-7 6-9l73-73c6-6 12-12 16-18 5-6 9-11 12-17 3-5 6-11 7-17 2-6 2-12 2-18 0-11-3-19-8-25-6-6-14-8-24-8-4 0-9 1-12 2-4 1-7 3-10 5-3 2-6 5-8 8-2 3-4 6-5 10-2 6-5 9-8 11-3 2-8 2-15 1l-25-4c2-12 5-22 10-31 5-9 11-16 19-22 7-6 16-10 25-13 10-3 20-4 31-4 12 0 22 2 32 5 9 3 18 8 24 14 7 6 12 14 16 22 4 9 6 18 6 29 0 9-1 17-4 25-3 8-6 15-11 22-4 7-10 14-15 20-6 7-12 13-19 20l-52 53c6-2 11-3 17-4 6-1 11-1 16-1l55 0z"/>
			<path class="fil2" d="M5664 5872c0 21-2 40-7 56-5 16-11 29-19 39-8 10-18 18-29 23-11 5-23 8-36 8-13 0-25-3-36-8-11-5-21-13-28-23-8-10-14-23-19-39-5-16-7-34-7-56 0-21 2-40 7-56 5-16 11-29 19-39 8-10 17-18 28-23 11-5 23-7 36-7 13 0 25 2 36 7 11 5 21 13 29 23 8 10 14 23 19 39 5 16 7 34 7 56zm-48 0c0-17-1-32-4-43-2-11-6-20-10-27-4-7-8-11-14-14-5-3-10-4-16-4-5 0-11 1-16 4-5 3-9 7-13 14-4 7-7 15-9 27-2 11-4 26-4 43 0 17 1 32 4 43 2 11 6 20 9 27 4 7 8 11 13 14 5 3 10 4 16 4 5 0 11-1 16-4 5-3 10-7 14-14 4-7 7-15 10-27 2-11 4-26 4-43z"/>
			<path class="fil2" d="M5848 5960l0 34-137 0 0-34 49 0 0-134c0-3 0-6 0-9 0-3 0-6 1-9l-32 27c-2 2-4 3-7 3-2 0-4 0-6 0-2 0-4-1-5-2-1-1-3-2-3-3l-15-20 75-64 38 0 0 211 42 0z"/>
			<path class="fil2" d="M6056 5872c0 21-2 40-7 56-5 16-11 29-19 39-8 10-18 18-29 23-11 5-23 8-36 8-13 0-25-3-36-8-11-5-21-13-28-23-8-10-14-23-19-39-5-16-7-34-7-56 0-21 2-40 7-56 5-16 11-29 19-39 8-10 17-18 28-23 11-5 23-7 36-7 13 0 25 2 36 7 11 5 21 13 29 23 8 10 14 23 19 39 5 16 7 34 7 56zm-48 0c0-17-1-32-4-43-2-11-6-20-10-27-4-7-8-11-14-14-5-3-10-4-16-4-5 0-11 1-16 4-5 3-9 7-13 14-4 7-7 15-9 27-2 11-4 26-4 43 0 17 1 32 4 43 2 11 6 20 9 27 4 7 8 11 13 14 5 3 10 4 16 4 5 0 11-1 16-4 5-3 10-7 14-14 4-7 7-15 10-27 2-11 4-26 4-43z"/>
			<path class="fil2" d="M5434 6270c-4-5-9-9-14-11-5-2-11-3-16-3-6 0-11 1-15 3-5 2-9 5-12 10-3 5-6 10-8 17-2 7-3 16-3 25 0 10 1 18 2 25 1 7 4 12 6 16 3 4 6 7 10 9 4 2 8 3 13 3 8 0 15-2 21-5 6-3 11-8 16-14l0-76zm47-123l0 251-29 0c-6 0-10-3-11-8l-4-15c-3 4-7 7-11 10-4 3-8 6-13 8-4 2-9 4-15 5-5 1-11 2-17 2-9 0-18-2-26-6-8-4-14-10-20-17-6-8-10-17-13-28-3-11-5-24-5-38 0-13 2-25 5-36 4-11 9-21 15-29 7-8 14-14 24-19 9-5 19-7 31-7 9 0 17 1 24 4 6 3 12 7 18 11l0-90 47 0z"/>
			<path class="fil2" d="M5597 6222c13 0 25 2 36 6 11 4 20 10 27 18 8 8 14 17 18 28 4 11 6 23 6 37 0 14-2 26-6 37-4 11-10 21-18 28-8 8-17 14-27 18-11 4-23 6-36 6-13 0-25-2-36-6-11-4-20-10-28-18-8-8-14-17-18-28-4-11-6-23-6-37 0-14 2-26 6-37 4-11 10-20 18-28 8-8 17-14 28-18 11-4 23-6 36-6zm0 144c13 0 23-5 30-14 6-9 10-23 10-41 0-18-3-32-10-41-6-9-16-14-30-14-14 0-24 5-30 14-6 9-10 23-10 41 0 18 3 32 10 41 6 9 16 14 30 14z"/>
			<path class="fil2" d="M5840 6264c-1 2-3 3-4 4-1 1-3 1-6 1-2 0-4-1-6-2-2-1-4-3-7-4-3-2-6-3-10-4-4-1-8-2-14-2-7 0-13 1-18 4-5 3-9 6-13 11-3 5-6 10-7 17-2 7-2 14-2 23 0 18 4 31 11 41 7 9 17 14 29 14 4 0 8 0 11-1 3-1 6-2 8-3 2-1 4-2 6-4 2-1 3-3 5-4 2-1 3-2 5-3 2-1 3-1 5-1 4 0 6 1 8 4l13 17c-5 6-10 10-16 14-6 4-11 7-17 9-6 2-12 4-18 5-6 1-12 1-18 1-11 0-21-2-30-6-10-4-18-10-25-17-7-8-13-17-17-28-4-11-6-24-6-38 0-13 2-25 6-35 4-11 9-20 16-28 7-8 16-14 27-19 11-5 23-7 37-7 13 0 25 2 35 6 10 4 19 10 27 19l-12 17z"/>
			<path class="fil2" d="M6037 6399l-45 0c-3 0-6-1-8-3-2-2-4-4-5-6l-34-57c-1 4-2 7-4 10l-29 47c-1 2-3 4-5 6-2 2-4 3-8 3l-41 0 59-90-57-84 45 0c3 0 6 0 7 1 2 1 3 2 4 4l34 55c1-2 1-4 2-6 1-2 2-4 3-6l26-43c3-4 6-7 10-7l43 0-57 82 59 92z"/>
		</g>
		<g>
			<path class="fil0" d="M11177 1803c-1487 0-1129 2233-1129 2233l364 0c-18-128-189-1433 273-1694 0 0-54 1532-5 1694l961 0c47-161-4-1682-4-1682 440 259 277 1554 260 1682l357 0c0 0 409-2233-1078-2233z"/>
			<path class="fil0" d="M11144 4808c130-325 223 1945 234 2216 190-4 340-9 340-9 0 0-35-2784-80-2903l-952 0c0 0-132 2871-80 2903 19 12 169 15 353 14 7-238 57-1901 185-2222z"/>
			<g>
				<path class="fil1" d="M11177 266c-404 0-732 328-732 732 0 404 328 732 732 732 404 0 732-328 732-732 0-404-328-732-732-732z"/>
				<circle class="fil0" cx="10884" cy="1076" r="98"/>
				<circle class="fil0" cx="11470" cy="1076" r="98"/>
				<path class="fil0" d="M11177 1359c-37 0-71 17-94 47-6 9-5 21 4 27 9 6 21 5 27-4 15-20 38-31 63-31 25 0 48 12 63 32 6 9 19 10 27 4 9-6 10-19 4-27-22-30-57-47-94-47z"/>
				<path class="fil0" d="M11655 920l-371 0c-43 0-78 35-78 78l0 32c-9-2-18-3-29-3-11 0-21 1-29 3l0-32c0-43-35-78-78-78l-371 0c-43 0-78 35-78 78l0 156c0 43 35 78 78 78l371 0c43 0 78-35 78-78l0-83c7-3 17-5 29-5 12 0 22 2 29 5l0 83c0 43 35 78 78 78l371 0c43 0 78-35 78-78l0-156c0-43-35-78-78-78zm-546 234c0 22-17 39-39 39l-371 0c-22 0-39-17-39-39l0-156c0-22 17-39 39-39l371 0c22 0 39 17 39 39l0 50 0 47 0 59zm585 0c0 22-17 39-39 39l-371 0c-22 0-39-17-39-39l0-59 0-48 0-50c0-22 17-39 39-39l371 0c22 0 39 17 39 39l0 156z"/>
				<path class="fil0" d="M11177 266c-404 0-732 328-732 732 0 404 328 732 732 732 404 0 732-328 732-732 0-404-328-732-732-732zm0 1405c-371 0-673-302-673-673 0-34 3-66 7-99 338 1 794-65 959-232 0 32 80 231 372 231 5 33 8 66 8 100 0 371-302 673-673 673z"/>
			</g>
			<path class="fil2" d="M11344 2319l-76 245-46 0-50-160c-1-2-2-5-2-7-1-3-2-6-2-9-1 3-1 6-2 9-1 3-2 5-2 7l-51 160-46 0-76-245 43 0c4 0 8 1 11 3 3 2 5 5 6 8l38 138c1 4 2 8 3 12 1 4 2 9 3 14 1-5 2-10 3-14 1-4 2-8 4-12l44-138c1-3 3-5 6-8 3-2 7-3 11-3l15 0c4 0 8 1 11 3 3 2 5 5 6 8l44 138c1 4 3 7 4 12 1 4 2 9 3 13 1-5 2-9 3-13 1-4 2-8 3-12l38-138c1-3 3-6 6-8 3-2 7-3 11-3l40 0z"/>
			<path class="fil2" d="M10941 2925c5 0 9 1 12 4 3 3 4 7 4 11l0 27-170 0 0-15c0-3 1-6 2-10 1-3 3-7 6-9l73-73c6-6 12-12 16-18 5-6 9-11 12-17 3-5 6-11 7-17 2-6 2-12 2-18 0-11-3-19-8-25-6-6-14-8-24-8-4 0-9 1-12 2-4 1-7 3-10 5-3 2-6 5-8 8-2 3-4 6-5 10-2 6-5 9-8 11-3 2-8 2-15 1l-25-4c2-12 5-22 10-31 5-9 11-16 19-22 7-6 16-10 25-13 10-3 20-4 31-4 12 0 22 2 32 5 9 3 18 8 24 14 7 6 12 14 16 22 4 9 6 18 6 29 0 9-1 17-4 25-3 8-6 15-11 22-4 7-10 14-15 20-6 7-12 13-19 20l-52 53c6-2 11-3 17-4 6-1 11-1 16-1l55 0z"/>
			<path class="fil2" d="M11160 2846c0 21-2 40-7 56-5 16-11 29-19 39-8 10-18 18-29 23-11 5-23 8-36 8-13 0-25-3-36-8-11-5-21-13-28-23-8-10-14-23-19-39-5-16-7-34-7-56 0-21 2-40 7-56 5-16 11-29 19-39 8-10 17-18 28-23 11-5 23-7 36-7 13 0 25 2 36 7 11 5 21 13 29 23 8 10 14 23 19 39 5 16 7 34 7 56zm-48 0c0-17-1-32-4-43-2-11-6-20-10-27-4-7-8-11-14-14-5-3-10-4-16-4-5 0-11 1-16 4-5 3-9 7-13 14-4 7-7 15-9 27-2 11-4 26-4 43 0 17 1 32 4 43 2 11 6 20 9 27 4 7 8 11 13 14 5 3 10 4 16 4 5 0 11-1 16-4 5-3 10-7 14-14 4-7 7-15 10-27 2-11 4-26 4-43z"/>
			<path class="fil2" d="M11343 2934l0 34-137 0 0-34 49 0 0-134c0-3 0-6 0-9 0-3 0-6 1-9l-32 27c-2 2-4 3-7 3-2 0-4 0-6 0-2 0-4-1-5-2-1-1-3-2-3-3l-15-20 75-64 38 0 0 211 42 0z"/>
			<path class="fil2" d="M11454 2811l-7 9c4-2 9-3 14-4 5-1 10-2 16-2 9 0 18 2 27 5 9 3 16 8 23 14 7 6 12 14 16 23 4 9 6 20 6 32 0 11-2 22-6 32-4 10-10 19-18 26-8 8-17 13-28 18-11 4-23 7-36 7-13 0-25-2-36-6-11-4-20-10-27-18-7-8-13-17-17-27-4-11-6-22-6-35 0-12 2-24 7-36 5-12 12-25 21-37l57-77c2-3 6-5 10-8 4-2 9-3 15-3l41 0-73 88zm6 122c6 0 12-1 17-3 5-2 10-5 13-9 4-4 7-8 9-13 2-5 3-11 3-17 0-7-1-13-3-18-2-5-5-10-9-13-4-4-8-6-13-8-5-2-11-3-17-3-6 0-11 1-16 3-5 2-9 5-13 9-4 4-6 8-8 13-2 5-3 11-3 17 0 6 1 12 3 17 2 5 4 10 8 13 3 4 8 7 13 9 5 2 11 3 18 3z"/>
			<path class="fil2" d="M10929 3244c-4-5-9-9-14-11-5-2-11-3-16-3-6 0-11 1-15 3-5 2-9 5-12 10-3 5-6 10-8 17-2 7-3 16-3 25 0 10 1 18 2 25 1 7 4 12 6 16 3 4 6 7 10 9 4 2 8 3 13 3 8 0 15-2 21-5 6-3 11-8 16-14l0-76zm47-123l0 251-29 0c-6 0-10-3-11-8l-4-15c-3 4-7 7-11 10-4 3-8 6-13 8-4 2-9 4-15 5-5 1-11 2-17 2-9 0-18-2-26-6-8-4-14-10-20-17-6-8-10-17-13-28-3-11-5-24-5-38 0-13 2-25 5-36 4-11 9-21 15-29 7-8 14-14 24-19 9-5 19-7 31-7 9 0 17 1 24 4 6 3 12 7 18 11l0-90 47 0z"/>
			<path class="fil2" d="M11092 3196c13 0 25 2 36 6 11 4 20 10 27 18 8 8 14 17 18 28 4 11 6 23 6 37 0 14-2 26-6 37-4 11-10 21-18 28-8 8-17 14-27 18-11 4-23 6-36 6-13 0-25-2-36-6-11-4-20-10-28-18-8-8-14-17-18-28-4-11-6-23-6-37 0-14 2-26 6-37 4-11 10-20 18-28 8-8 17-14 28-18 11-4 23-6 36-6zm0 144c13 0 23-5 30-14 6-9 10-23 10-41 0-18-3-32-10-41-6-9-16-14-30-14-14 0-24 5-30 14-6 9-10 23-10 41 0 18 3 32 10 41 6 9 16 14 30 14z"/>
			<path class="fil2" d="M11335 3238c-1 2-3 3-4 4-1 1-3 1-6 1-2 0-4-1-6-2-2-1-4-3-7-4-3-2-6-3-10-4-4-1-8-2-14-2-7 0-13 1-18 4-5 3-9 6-13 11-3 5-6 10-7 17-2 7-2 14-2 23 0 18 4 31 11 41 7 9 17 14 29 14 4 0 8 0 11-1 3-1 6-2 8-3 2-1 4-2 6-4 2-1 3-3 5-4 2-1 3-2 5-3 2-1 3-1 5-1 4 0 6 1 8 4l13 17c-5 6-10 10-16 14-6 4-11 7-17 9-6 2-12 4-18 5-6 1-12 1-18 1-11 0-21-2-30-6-10-4-18-10-25-17-7-8-13-17-17-28-4-11-6-24-6-38 0-13 2-25 6-35 4-11 9-20 16-28 7-8 16-14 27-19 11-5 23-7 37-7 13 0 25 2 35 6 10 4 19 10 27 19l-12 17z"/>
			<path class="fil2" d="M11532 3373l-45 0c-3 0-6-1-8-3-2-2-4-4-5-6l-34-57c-1 4-2 7-4 10l-29 47c-1 2-3 4-5 6-2 2-4 3-8 3l-41 0 59-90-57-84 45 0c3 0 6 0 7 1 2 1 3 2 4 4l34 55c1-2 1-4 2-6 1-2 2-4 3-6l26-43c3-4 6-7 10-7l43 0-57 82 59 92z"/>
		</g>
		<g>
			<path class="fil0" d="M16700 4961c-1487 0-1129 2233-1129 2233l364 0c-18-128-189-1433 273-1694 0 0-54 1532-5 1694l961 0c47-161-4-1682-4-1682 440 259 277 1554 260 1682l357 0c0 0 409-2233-1078-2233z"/>
			<path class="fil0" d="M16666 7966c130-325 223 1945 234 2216 190-4 340-9 340-9 0 0-35-2784-80-2903l-952 0c0 0-132 2871-80 2903 19 12 169 15 353 14 7-238 57-1901 185-2222z"/>
			<g>
				<path class="fil1" d="M16700 3424c-404 0-732 328-732 732 0 404 328 732 732 732 404 0 732-328 732-732 0-404-328-732-732-732z"/>
				<circle class="fil0" cx="16407" cy="4234" r="98"/>
				<circle class="fil0" cx="16992" cy="4234" r="98"/>
				<path class="fil0" d="M16700 4516c-37 0-71 17-94 47-6 9-5 21 4 27 9 6 21 5 27-4 15-20 38-31 63-31 25 0 48 12 63 32 6 9 19 10 27 4 9-6 10-19 4-27-22-30-57-47-94-47z"/>
				<path class="fil0" d="M17178 4078l-371 0c-43 0-78 35-78 78l0 32c-9-2-18-3-29-3-11 0-21 1-29 3l0-32c0-43-35-78-78-78l-371 0c-43 0-78 35-78 78l0 156c0 43 35 78 78 78l371 0c43 0 78-35 78-78l0-83c7-3 17-5 29-5 12 0 22 2 29 5l0 83c0 43 35 78 78 78l371 0c43 0 78-35 78-78l0-156c0-43-35-78-78-78zm-546 234c0 22-17 39-39 39l-371 0c-22 0-39-17-39-39l0-156c0-22 17-39 39-39l371 0c22 0 39 17 39 39l0 50 0 47 0 59zm585 0c0 22-17 39-39 39l-371 0c-22 0-39-17-39-39l0-59 0-48 0-50c0-22 17-39 39-39l371 0c22 0 39 17 39 39l0 156z"/>
				<path class="fil0" d="M16700 3424c-404 0-732 328-732 732 0 404 328 732 732 732 404 0 732-328 732-732 0-404-328-732-732-732zm0 1405c-371 0-673-302-673-673 0-34 3-66 7-99 338 1 794-65 959-232 0 32 80 231 372 231 5 33 8 66 8 100 0 371-302 673-673 673z"/>
			</g>
			<path class="fil2" d="M16866 5477l-76 245-46 0-50-160c-1-2-2-5-2-7-1-3-2-6-2-9-1 3-1 6-2 9-1 3-2 5-2 7l-51 160-46 0-76-245 43 0c4 0 8 1 11 3 3 2 5 5 6 8l38 138c1 4 2 8 3 12 1 4 2 9 3 14 1-5 2-10 3-14 1-4 2-8 4-12l44-138c1-3 3-5 6-8 3-2 7-3 11-3l15 0c4 0 8 1 11 3 3 2 5 5 6 8l44 138c1 4 3 7 4 12 1 4 2 9 3 13 1-5 2-9 3-13 1-4 2-8 3-12l38-138c1-3 3-6 6-8 3-2 7-3 11-3l40 0z"/>
			<path class="fil2" d="M16464 6083c5 0 9 1 12 4 3 3 4 7 4 11l0 27-170 0 0-15c0-3 1-6 2-10 1-3 3-7 6-9l73-73c6-6 12-12 16-18 5-6 9-11 12-17 3-5 6-11 7-17 2-6 2-12 2-18 0-11-3-19-8-25-6-6-14-8-24-8-4 0-9 1-12 2-4 1-7 3-10 5-3 2-6 5-8 8-2 3-4 6-5 10-2 6-5 9-8 11-3 2-8 2-15 1l-25-4c2-12 5-22 10-31 5-9 11-16 19-22 7-6 16-10 25-13 10-3 20-4 31-4 12 0 22 2 32 5 9 3 18 8 24 14 7 6 12 14 16 22 4 9 6 18 6 29 0 9-1 17-4 25-3 8-6 15-11 22-4 7-10 14-15 20-6 7-12 13-19 20l-52 53c6-2 11-3 17-4 6-1 11-1 16-1l55 0z"/>
			<path class="fil2" d="M16682 6004c0 21-2 40-7 56-5 16-11 29-19 39-8 10-18 18-29 23-11 5-23 8-36 8-13 0-25-3-36-8-11-5-21-13-28-23-8-10-14-23-19-39-5-16-7-34-7-56 0-21 2-40 7-56 5-16 11-29 19-39 8-10 17-18 28-23 11-5 23-7 36-7 13 0 25 2 36 7 11 5 21 13 29 23 8 10 14 23 19 39 5 16 7 34 7 56zm-48 0c0-17-1-32-4-43-2-11-6-20-10-27-4-7-8-11-14-14-5-3-10-4-16-4-5 0-11 1-16 4-5 3-9 7-13 14-4 7-7 15-9 27-2 11-4 26-4 43 0 17 1 32 4 43 2 11 6 20 9 27 4 7 8 11 13 14 5 3 10 4 16 4 5 0 11-1 16-4 5-3 10-7 14-14 4-7 7-15 10-27 2-11 4-26 4-43z"/>
			<path class="fil2" d="M16878 6004c0 21-2 40-7 56-5 16-11 29-19 39-8 10-18 18-29 23-11 5-23 8-36 8-13 0-25-3-36-8-11-5-21-13-28-23-8-10-14-23-19-39-5-16-7-34-7-56 0-21 2-40 7-56 5-16 11-29 19-39 8-10 17-18 28-23 11-5 23-7 36-7 13 0 25 2 36 7 11 5 21 13 29 23 8 10 14 23 19 39 5 16 7 34 7 56zm-48 0c0-17-1-32-4-43-2-11-6-20-10-27-4-7-8-11-14-14-5-3-10-4-16-4-5 0-11 1-16 4-5 3-9 7-13 14-4 7-7 15-9 27-2 11-4 26-4 43 0 17 1 32 4 43 2 11 6 20 9 27 4 7 8 11 13 14 5 3 10 4 16 4 5 0 11-1 16-4 5-3 10-7 14-14 4-7 7-15 10-27 2-11 4-26 4-43z"/>
			<path class="fil2" d="M17073 6004c0 21-2 40-7 56-5 16-11 29-19 39-8 10-18 18-29 23-11 5-23 8-36 8-13 0-25-3-36-8-11-5-21-13-28-23-8-10-14-23-19-39-5-16-7-34-7-56 0-21 2-40 7-56 5-16 11-29 19-39 8-10 17-18 28-23 11-5 23-7 36-7 13 0 25 2 36 7 11 5 21 13 29 23 8 10 14 23 19 39 5 16 7 34 7 56zm-48 0c0-17-1-32-4-43-2-11-6-20-10-27-4-7-8-11-14-14-5-3-10-4-16-4-5 0-11 1-16 4-5 3-9 7-13 14-4 7-7 15-9 27-2 11-4 26-4 43 0 17 1 32 4 43 2 11 6 20 9 27 4 7 8 11 13 14 5 3 10 4 16 4 5 0 11-1 16-4 5-3 10-7 14-14 4-7 7-15 10-27 2-11 4-26 4-43z"/>
			<path class="fil2" d="M16541 6402c-4-5-9-9-14-11-5-2-11-3-16-3-6 0-11 1-15 3-5 2-9 5-12 10-3 5-6 10-8 17-2 7-3 16-3 25 0 10 1 18 2 25 1 7 4 12 6 16 3 4 6 7 10 9 4 2 8 3 13 3 8 0 15-2 21-5 6-3 11-8 16-14l0-76zm47-123l0 251-29 0c-6 0-10-3-11-8l-4-15c-3 4-7 7-11 10-4 3-8 6-13 8-4 2-9 4-15 5-5 1-11 2-17 2-9 0-18-2-26-6-8-4-14-10-20-17-6-8-10-17-13-28-3-11-5-24-5-38 0-13 2-25 5-36 4-11 9-21 15-29 7-8 14-14 24-19 9-5 19-7 31-7 9 0 17 1 24 4 6 3 12 7 18 11l0-90 47 0z"/>
			<path class="fil2" d="M16705 6354c13 0 25 2 36 6 11 4 20 10 27 18 8 8 14 17 18 28 4 11 6 23 6 37 0 14-2 26-6 37-4 11-10 21-18 28-8 8-17 14-27 18-11 4-23 6-36 6-13 0-25-2-36-6-11-4-20-10-28-18-8-8-14-17-18-28-4-11-6-23-6-37 0-14 2-26 6-37 4-11 10-20 18-28 8-8 17-14 28-18 11-4 23-6 36-6zm0 144c13 0 23-5 30-14 6-9 10-23 10-41 0-18-3-32-10-41-6-9-16-14-30-14-14 0-24 5-30 14-6 9-10 23-10 41 0 18 3 32 10 41 6 9 16 14 30 14z"/>
			<path class="fil2" d="M16947 6396c-1 2-3 3-4 4-1 1-3 1-6 1-2 0-4-1-6-2-2-1-4-3-7-4-3-2-6-3-10-4-4-1-8-2-14-2-7 0-13 1-18 4-5 3-9 6-13 11-3 5-6 10-7 17-2 7-2 14-2 23 0 18 4 31 11 41 7 9 17 14 29 14 4 0 8 0 11-1 3-1 6-2 8-3 2-1 4-2 6-4 2-1 3-3 5-4 2-1 3-2 5-3 2-1 3-1 5-1 4 0 6 1 8 4l13 17c-5 6-10 10-16 14-6 4-11 7-17 9-6 2-12 4-18 5-6 1-12 1-18 1-11 0-21-2-30-6-10-4-18-10-25-17-7-8-13-17-17-28-4-11-6-24-6-38 0-13 2-25 6-35 4-11 9-20 16-28 7-8 16-14 27-19 11-5 23-7 37-7 13 0 25 2 35 6 10 4 19 10 27 19l-12 17z"/>
		</g>
		<g>
			<path class="fil0" d="M10684 13294l-29 350c0 0-54 1532-5 1694l961 0c47-161-4-1682-4-1682l-22-351-902-12z"/>
			<path class="fil0" d="M11114 16109c130-325 223 1945 234 2216 190-4 340-9 340-9 0 0-35-2784-80-2903l-952 0c0 0-132 2871-80 2903 19 12 169 15 353 14 7-238 57-1901 185-2222z"/>
			<g>
				<path class="fil1" d="M11147 11568c-404 0-732 328-732 732 0 404 328 732 732 732 404 0 732-328 732-732 0-404-328-732-732-732z"/>
				<circle class="fil0" cx="10854" cy="12378" r="98"/>
				<circle class="fil0" cx="11440" cy="12378" r="98"/>
				<path class="fil0" d="M11147 12660c-37 0-71 17-94 47-6 9-5 21 4 27 9 6 21 5 27-4 15-20 38-31 63-31 25 0 48 12 63 32 6 9 19 10 27 4 9-6 10-19 4-27-22-30-57-47-94-47z"/>
				<path class="fil0" d="M11625 12221l-371 0c-43 0-78 35-78 78l0 32c-9-2-18-3-29-3-11 0-21 1-29 3l0-32c0-43-35-78-78-78l-371 0c-43 0-78 35-78 78l0 156c0 43 35 78 78 78l371 0c43 0 78-35 78-78l0-83c7-3 17-5 29-5 12 0 22 2 29 5l0 83c0 43 35 78 78 78l371 0c43 0 78-35 78-78l0-156c0-43-35-78-78-78zm-546 234c0 22-17 39-39 39l-371 0c-22 0-39-17-39-39l0-156c0-22 17-39 39-39l371 0c22 0 39 17 39 39l0 50 0 47 0 59zm585 0c0 22-17 39-39 39l-371 0c-22 0-39-17-39-39l0-59 0-48 0-50c0-22 17-39 39-39l371 0c22 0 39 17 39 39l0 156z"/>
				<path class="fil0" d="M11147 11568c-404 0-732 328-732 732 0 404 328 732 732 732 404 0 732-328 732-732 0-404-328-732-732-732zm0 1405c-371 0-673-302-673-673 0-34 3-66 7-99 338 1 794-65 959-232 0 32 80 231 372 231 5 33 8 66 8 100 0 371-302 673-673 673z"/>
			</g>
			<path class="fil2" d="M11314 13620l-76 245-46 0-50-160c-1-2-2-5-2-7-1-3-2-6-2-9-1 3-1 6-2 9-1 3-2 5-2 7l-51 160-46 0-76-245 43 0c4 0 8 1 11 3 3 2 5 5 6 8l38 138c1 4 2 8 3 12 1 4 2 9 3 14 1-5 2-10 3-14 1-4 2-8 4-12l44-138c1-3 3-5 6-8 3-2 7-3 11-3l15 0c4 0 8 1 11 3 3 2 5 5 6 8l44 138c1 4 3 7 4 12 1 4 2 9 3 13 1-5 2-9 3-13 1-4 2-8 3-12l38-138c1-3 3-6 6-8 3-2 7-3 11-3l40 0z"/>
			<path class="fil2" d="M10911 14227c5 0 9 1 12 4 3 3 4 7 4 11l0 27-170 0 0-15c0-3 1-6 2-10 1-3 3-7 6-9l73-73c6-6 12-12 16-18 5-6 9-11 12-17 3-5 6-11 7-17 2-6 2-12 2-18 0-11-3-19-8-25-6-6-14-8-24-8-4 0-9 1-12 2-4 1-7 3-10 5-3 2-6 5-8 8-2 3-4 6-5 10-2 6-5 9-8 11-3 2-8 2-15 1l-25-4c2-12 5-22 10-31 5-9 11-16 19-22 7-6 16-10 25-13 10-3 20-4 31-4 12 0 22 2 32 5 9 3 18 8 24 14 7 6 12 14 16 22 4 9 6 18 6 29 0 9-1 17-4 25-3 8-6 15-11 22-4 7-10 14-15 20-6 7-12 13-19 20l-52 53c6-2 11-3 17-4 6-1 11-1 16-1l55 0z"/>
			<path class="fil2" d="M11130 14147c0 21-2 40-7 56-5 16-11 29-19 39-8 10-18 18-29 23-11 5-23 8-36 8-13 0-25-3-36-8-11-5-21-13-28-23-8-10-14-23-19-39-5-16-7-34-7-56 0-21 2-40 7-56 5-16 11-29 19-39 8-10 17-18 28-23 11-5 23-7 36-7 13 0 25 2 36 7 11 5 21 13 29 23 8 10 14 23 19 39 5 16 7 34 7 56zm-48 0c0-17-1-32-4-43-2-11-6-20-10-27-4-7-8-11-14-14-5-3-10-4-16-4-5 0-11 1-16 4-5 3-9 7-13 14-4 7-7 15-9 27-2 11-4 26-4 43 0 17 1 32 4 43 2 11 6 20 9 27 4 7 8 11 13 14 5 3 10 4 16 4 5 0 11-1 16-4 5-3 10-7 14-14 4-7 7-15 10-27 2-11 4-26 4-43z"/>
			<path class="fil2" d="M11325 14147c0 21-2 40-7 56-5 16-11 29-19 39-8 10-18 18-29 23-11 5-23 8-36 8-13 0-25-3-36-8-11-5-21-13-28-23-8-10-14-23-19-39-5-16-7-34-7-56 0-21 2-40 7-56 5-16 11-29 19-39 8-10 17-18 28-23 11-5 23-7 36-7 13 0 25 2 36 7 11 5 21 13 29 23 8 10 14 23 19 39 5 16 7 34 7 56zm-48 0c0-17-1-32-4-43-2-11-6-20-10-27-4-7-8-11-14-14-5-3-10-4-16-4-5 0-11 1-16 4-5 3-9 7-13 14-4 7-7 15-9 27-2 11-4 26-4 43 0 17 1 32 4 43 2 11 6 20 9 27 4 7 8 11 13 14 5 3 10 4 16 4 5 0 11-1 16-4 5-3 10-7 14-14 4-7 7-15 10-27 2-11 4-26 4-43z"/>
			<path class="fil2" d="M11349 14094c2-12 5-22 10-31 5-9 11-16 19-22 7-6 16-10 25-13 9-3 20-4 31-4 12 0 22 2 31 5 9 3 17 8 23 14 6 6 11 12 15 20 3 8 5 16 5 25 0 8-1 15-2 20-2 6-4 11-7 15-3 4-7 8-12 11-5 3-10 6-16 8 28 9 42 28 42 56 0 12-2 23-7 33-5 9-11 17-19 24-8 6-17 11-27 14-10 3-21 5-32 5-12 0-22-1-32-4-9-3-17-7-24-12-7-5-13-12-18-20-5-8-9-18-13-29l21-8c5-2 10-3 15-2 5 1 8 3 10 7 2 4 5 8 7 12 3 4 5 7 8 9 3 3 7 5 11 6 4 1 9 2 14 2 7 0 12-1 17-3 5-2 9-5 12-8 3-3 6-7 7-12 2-4 2-9 2-13 0-6-1-11-2-15-1-5-3-8-7-12-4-3-9-6-16-7-7-2-17-3-29-3l0-33c10 0 19-1 25-3 7-2 12-4 15-7 4-3 6-7 8-11 1-4 2-9 2-14 0-11-3-19-8-24-6-6-13-8-24-8-4 0-9 1-12 2-4 1-7 3-10 5-3 2-6 5-8 8-2 3-4 6-5 10-2 6-5 9-8 11-3 2-8 2-15 1l-24-4z"/>
			<path class="fil2" d="M10989 14546c-4-5-9-9-14-11-5-2-11-3-16-3-6 0-11 1-15 3-5 2-9 5-12 10-3 5-6 10-8 17-2 7-3 16-3 25 0 10 1 18 2 25 1 7 4 12 6 16 3 4 6 7 10 9 4 2 8 3 13 3 8 0 15-2 21-5 6-3 11-8 16-14l0-76zm47-123l0 251-29 0c-6 0-10-3-11-8l-4-15c-3 4-7 7-11 10-4 3-8 6-13 8-4 2-9 4-15 5-5 1-11 2-17 2-9 0-18-2-26-6-8-4-14-10-20-17-6-8-10-17-13-28-3-11-5-24-5-38 0-13 2-25 5-36 4-11 9-21 15-29 7-8 14-14 24-19 9-5 19-7 31-7 9 0 17 1 24 4 6 3 12 7 18 11l0-90 47 0z"/>
			<path class="fil2" d="M11152 14498c13 0 25 2 36 6 11 4 20 10 27 18 8 8 14 17 18 28 4 11 6 23 6 37 0 14-2 26-6 37-4 11-10 21-18 28-8 8-17 14-27 18-11 4-23 6-36 6-13 0-25-2-36-6-11-4-20-10-28-18-8-8-14-17-18-28-4-11-6-23-6-37 0-14 2-26 6-37 4-11 10-20 18-28 8-8 17-14 28-18 11-4 23-6 36-6zm0 144c13 0 23-5 30-14 6-9 10-23 10-41 0-18-3-32-10-41-6-9-16-14-30-14-14 0-24 5-30 14-6 9-10 23-10 41 0 18 3 32 10 41 6 9 16 14 30 14z"/>
			<path class="fil2" d="M11395 14539c-1 2-3 3-4 4-1 1-3 1-6 1-2 0-4-1-6-2-2-1-4-3-7-4-3-2-6-3-10-4-4-1-8-2-14-2-7 0-13 1-18 4-5 3-9 6-13 11-3 5-6 10-7 17-2 7-2 14-2 23 0 18 4 31 11 41 7 9 17 14 29 14 4 0 8 0 11-1 3-1 6-2 8-3 2-1 4-2 6-4 2-1 3-3 5-4 2-1 3-2 5-3 2-1 3-1 5-1 4 0 6 1 8 4l13 17c-5 6-10 10-16 14-6 4-11 7-17 9-6 2-12 4-18 5-6 1-12 1-18 1-11 0-21-2-30-6-10-4-18-10-25-17-7-8-13-17-17-28-4-11-6-24-6-38 0-13 2-25 6-35 4-11 9-20 16-28 7-8 16-14 27-19 11-5 23-7 37-7 13 0 25 2 35 6 10 4 19 10 27 19l-12 17z"/>
			<path class="fil0" d="M11177 13551c-1487 0-1373-2233-1373-2233l364 0c-18 128 55 1433 517 1694 147 99 292 154 496 152 201-2 322-77 456-165 440-259 521-1554 504-1682l357 0c0 0 165 2233-1322 2233z"/>
		</g>
		<g>
			<path class="fil1" d="M11513 9061l276 0c124 0 224 100 224 224l0 1428c0 123-100 224-224 224l-1194 0c-123 0-224-100-224-224l0-1428c0-46 14-88 37-123l6-8 6-8-127-148 655-564 540 627 13 0 13 0z"/>
			<path class="fil0" d="M11789 9061l-276 0-13 0-13 0-540-627-655 564 127 148c-2 3-4 5-6 8-2 3-4 5-6 8-24 35-37 78-37 123l0 1428c0 123 100 224 224 224l1194 0c124 0 224-100 224-224l0-1428c0-123-100-224-224-224zm30 451c-83-20-232-56-382-91-112-27-224-53-308-73-42-10-77-18-102-24-12-3-20-5-27-6-4-80-20-546-29-791l848 985zm-1038 67l-13 0-106 0c-64 0-116-52-116-116 0-37 18-69 44-91 3-2 5-4 8-6 3-2 6-3 9-5l187 217-13 0 0 0zm1039-16c-17 10-37 16-59 16l-897 0-13 0-497-577 582-501c2 69 8 233 14 397 4 108 8 216 11 298 5 141 5 141 10 147 3 4 7 6 11 6 29 5 591 139 853 202-5 4-10 8-16 12zm55-81c-1 4-2 8-3 12-1 4-2 7-3 11l-134-156 13 0 13 0 1 0c64 0 116 52 116 116 0 6 0 12-1 18z"/>
			<polygon class="fil2" points="10752 10099 10689 10099 10689 9934 10644 10041 10600 10041 10555 9934 10555 10099 10495 10099 10495 9853 10569 9853 10624 9976 10678 9853 10752 9853 "/>
			<path class="fil2" d="M10923 10050l0-39c-8 1-17 2-26 3-9 1-16 2-21 4-6 2-10 5-13 8-3 4-5 8-5 14 0 4 0 7 1 9 1 2 2 5 5 7 2 2 6 4 9 5 3 1 9 2 16 2 6 0 12-1 18-4 6-2 11-6 16-10zm0 29c-3 2-7 5-12 9-5 3-9 6-13 8-6 3-12 5-18 6-6 1-13 2-21 2-17 0-32-5-44-16-12-11-18-25-18-42 0-14 3-25 9-33 6-9 15-15 26-20 11-5 25-8 41-11 16-2 33-4 50-5l0-1c0-10-4-17-12-21-8-4-21-6-37-6-10 0-20 2-31 5-11 3-19 6-24 8l-5 0 0-45c6-2 16-4 30-6 14-2 28-3 42-3 34 0 58 5 73 16 15 10 22 27 22 49l0 126-59 0 0-20z"/>
			<path class="fil2" d="M11096 10099l-59 0 0-185 59 0 0 185zm2-211l-63 0 0-45 63 0 0 45z"/>
			<polygon class="fil2" points="11211 10099 11152 10099 11152 9842 11211 9842 "/>
			<path class="fil2" d="M11481 10024c0 12-2 22-7 32-5 9-11 17-20 23-10 7-20 12-32 16-12 3-26 5-44 5l-107 0 0-245 95 0c20 0 34 1 43 2 9 1 18 4 27 9 9 5 16 11 21 19 5 8 7 17 7 27 0 12-3 22-9 31-6 9-15 16-26 21l0 1c16 3 29 10 38 20 9 10 14 23 14 40zm-81-101c0-4-1-8-3-12-2-4-6-7-11-9-5-2-10-3-17-3-7 0-16 0-29 0l-6 0 0 52 10 0c10 0 18 0 25-1 7 0 12-1 17-3 6-2 9-6 11-10 2-4 3-9 3-14zm15 100c0-8-2-14-4-18-3-4-8-7-15-9-5-1-12-2-20-2-9 0-18 0-27 0l-14 0 0 61 5 0c18 0 30 0 38 0 8 0 15-2 21-4 7-3 11-6 13-11 2-5 4-10 4-16z"/>
			<path class="fil2" d="M11713 10006c0 30-9 54-27 72-18 17-43 26-75 26-32 0-57-9-75-26-18-17-27-41-27-72 0-31 9-55 27-72 18-17 43-26 75-26 32 0 57 9 75 26 18 18 26 42 26 72zm-73 45c4-5 7-10 9-17 2-7 3-16 3-27 0-11-1-20-3-27-2-7-5-13-8-18-3-4-8-8-13-9-5-2-10-3-16-3-6 0-11 1-15 2-4 2-9 5-13 9-4 4-7 10-9 18-2 7-3 17-3 28 0 10 1 19 3 26 2 7 5 13 8 18 4 4 8 7 13 9 5 2 10 3 17 3 5 0 11-1 15-3 5-2 9-5 12-9z"/>
			<polygon class="fil2" points="11949 10099 11880 10099 11840 10043 11799 10099 11732 10099 11805 10006 11733 9914 11803 9914 11842 9968 11881 9914 11948 9914 11876 10005 "/>
			<path class="fil2" d="M11350 10352c17 18 31 39 41 63 10 25 15 52 15 83 0 22-3 44-9 67-6 23-14 42-24 56l-119 0-4-18c-9 6-18 11-26 14-8 3-20 5-36 5-26 0-46-11-62-32-16-21-24-50-24-85 0-19 3-36 8-50 5-14 13-27 22-38 9-10 19-18 31-24 12-6 24-9 36-9 10 0 20 2 28 6 8 4 14 8 19 12l0-15 55 0 0 192 40 0c6-12 10-26 13-40 3-15 4-28 4-42 0-27-4-50-11-70-7-20-18-37-31-50-13-14-29-24-47-30-18-7-37-10-58-10-20 0-39 4-57 12-18 8-34 18-47 32-14 14-25 31-34 51-9 21-13 43-13 68 0 27 4 50 12 71 8 21 19 38 33 51 14 13 29 24 47 31 18 7 37 11 57 11 13 0 28-1 46-4 17-2 32-6 45-9l0 45c-15 3-29 6-44 7-14 2-30 3-47 3-29 0-55-5-80-15-24-10-46-24-63-42-18-18-32-40-42-65-10-26-15-54-15-84 0-29 5-56 15-81 10-25 25-47 43-65 18-18 39-33 64-43 25-11 51-16 79-16 28 0 53 5 77 15 24 10 45 23 62 41zm-105 207l0-119c-6-3-12-6-18-7-5-2-12-2-19-2-15 0-27 7-35 20-8 13-12 31-12 54 0 25 3 43 10 55 7 12 18 18 33 18 8 0 15-2 21-5 6-3 12-8 19-14z"/>
		</g>
		<g>
			<path class="fil3" d="M9812 8858l-18 71-129-37-126-41-122-45-119-49-115-53-112-56-109-59-106-61-103-63-100-65-97-66-94-68-91-68-89-69-86-69-84-69-82-68-80-67-77-66-75-64-73-63-72-60-70-58-68-55-67-52-65-48-63-44-62-40-61-35-59-30-58-25-57-20 21-70 62 22 62 27 63 32 64 37 64 41 65 46 66 49 68 53 69 56 70 58 72 61 74 63 75 65 77 66 79 67 81 68 83 68 86 68 88 68 90 68 93 67 96 65 98 64 101 62 104 60 107 57 110 55 113 52 116 48 120 44 123 40 127 36zm57 84l-23-69-15 59-232-254 54-49 232 254-15 59zm0 0l15-59 38 42-54 18zm-338 74l-12-35 327-108 23 69-327 108-12-35z"/>
		</g>
		<g>
			<path class="fil3" d="M12537 9060l-18-71 127-36 123-40 120-44 116-48 113-52 110-55 107-57 104-60 101-62 98-64 96-65 93-67 90-68 88-68 86-68 83-68 81-68 79-67 77-66 75-65 74-63 72-61 70-58 69-56 68-53 66-49 65-46 64-41 64-37 63-32 62-27 62-22 21 70-57 20-58 25-59 30-61 35-62 40-63 44-65 48-67 52-68 55-70 58-72 60-73 63-75 64-77 66-80 67-82 68-84 69-86 69-89 69-91 68-94 68-97 66-100 65-103 63-106 61-109 59-112 56-115 53-119 49-122 45-126 41-129 37zm-91-46l54 49-16-59 327 108-23 69-327-108-16-59zm0 0l16 59-54-18 38-42zm259-229l27 25-232 254-54-49 232-254 27 25z"/>
		</g>
		<g>
			<path class="fil3" d="M11122 8225l0-933 73 0 0 933-73 0zm6 77l61-40-61 0 187-289 61 40-187 289-61 0zm0 0l61 0-31 47-31-47zm-157-309l31-20 187 289-61 40-187-289 31-20z"/>
		</g>
		<g>
			<path class="fil3" d="M11122 11369l0-352 73 0 0 352-73 0zm6 77l61-40-61 0 187-289 61 40-187 289-61 0zm0 0l61 0-31 47-31-47zm-157-309l31-20 187 289-61 40-187-289 31-20z"/>
		</g>
		<g>
			<path class="fil3" d="M11117 19555l0-933 73 0 0 933-73 0zm6 77l61-40-61 0 187-289 61 40-187 289-61 0zm0 0l61 0-31 47-31-47zm-157-309l31-20 187 289-61 40-187-289 31-20z"/>
		</g>
		<g>
			<path class="fil1 str0" d="M10586 20668l556-484 556 484c20 18 49 22 49 49l0 560c0 27-22 49-49 49l-1113 0c-27 0-49-22-49-49l0-560c0-27 29-32 49-49z"/>
			<g>
				<polygon class="fil1" points="11608 20613 11696 21105 11603 21122 11603 21193 11530 21193 11522 21248 11165 21200 10811 21263 10799 21193 10704 21193 10704 21138 10632 21128 10698 20632 10610 20140 10703 20124 10703 20053 10776 20052 10784 19997 11141 20045 11495 19982 11515 20096 11675 20117 "/>
				<path class="fil0" d="M11696 21105l-88-492 67-495-159-21-20-114-354 63-357-48-7 55-73 0 0 71-93 17 88 492-67 496 72 10 0 56 95 0 13 70 354-63 357 48 7-55 73 0 0-71 93-17zm-1030-926l38-7 0 218-38-211zm20 908l19-138 0 140-19-3zm935-929l-14 103-76-76-7-40 97 13zm-100 84l-109 0 0-109 109 109zm-64-205l9 52-35-5-36-36 62-11zm-606 1170l-3-15 84 0-82 15zm-98-62l-1-1045 613 0 0 191 190 0 1 855-803 1zm851-290l38 211-38 7 0-218zm-142-503l-607 0 0 48 607 0 0-48zm0 131l-607 0 0 48 607 0 0-48zm0 131l-607 0 0 48 607 0 0-48zm0 131l-607 0 0 48 607 0 0-48zm-607 131l0 48 607 0 0-48-607 0z"/>
			</g>
			<g>
				<polygon class="fil1 str1" points="11696 21325 10575 21325 10537 21294 10537 20694 10879 20997 11406 20997 11747 20694 11747 21287 "/>
				<polygon class="fil1 str1" points="11647 21312 10624 21312 10555 21309 11141 20744 11734 21309 "/>
			</g>
		</g>
		<g>
			<path class="fil3" d="M15276 10339l42 60-182 152-172 194-162 233-152 269-142 302-133 332-125 359-117 382-109 403-103 420-97 435-91 446-86 454-82 459-78 461-75 460-73 456-71 449-70 439-70 425-70 409-71 390-72 367-74 342-77 314-81 282-85 248-90 211-96 171-105 129-116 83-129 29 0-73 98-23 96-69 95-117 92-163 87-205 83-244 80-279 77-311 74-340 72-366 70-389 70-408 70-425 70-438 71-449 73-456 75-461 78-462 82-460 86-455 91-447 97-436 103-422 110-405 117-385 126-362 135-336 144-307 155-275 166-240 178-201 192-160zm101 12l-68-28 35 50-344 11-2-73 344-11 35 50zm0 0l-35-50 56-2-21 52zm-164 305l-34-14 130-318 68 28-130 318-34-14z"/>
		</g>
		<g>
			<path class="fil3" d="M6988 10399l42-60 192 160 178 201 166 240 155 275 144 307 135 336 126 362 117 385 110 405 103 422 97 436 91 447 86 455 82 460 78 462 75 461 73 456 71 449 70 438 70 425 70 408 70 389 72 366 74 340 77 311 80 279 83 244 87 205 92 163 95 117 96 69 98 23 0 73-129-29-116-83-105-129-96-171-90-211-85-248-81-282-77-314-74-342-72-367-71-390-70-409-70-425-70-439-71-449-73-456-75-460-78-461-82-459-86-454-91-446-97-435-103-420-109-403-117-382-125-359-133-332-142-302-152-269-162-233-172-194-182-152zm-25-99l-2 73 35-50 130 318-68 28-130-318 35-50zm0 0l-35 50-21-52 56 2zm343 47l-1 37-344-11 2-73 344 11-1 37z"/>
		</g>
		<g>
			<path class="fil3" d="M10032 723l0 73-213 2-212 7-210 12-207 17-205 21-202 26-199 30-195 35-191 39-187 44-182 48-177 52-171 56-166 60-160 64-153 68-146 72-139 76-132 79-124 83-116 86-107 90-99 93-89 96-80 99-70 102-60 105-50 108-39 111-29 114-17 117-6 120-73 0 6-127 18-124 30-121 42-118 53-114 63-111 74-107 83-104 93-100 102-96 111-92 119-89 127-85 135-81 142-77 149-73 156-69 162-65 168-61 174-57 179-53 184-48 188-44 193-40 197-35 200-31 204-26 207-22 209-17 211-12 213-7 215-2zm77 67l-40-61 0 61-289-187 40-61 289 187 0 61zm0 0l0-61 47 31-47 31zm-309 157l-20-31 289-187 40 61-289 187-20-31z"/>
		</g>
		<path class="fil4 str2" d="M21101 10141l1140-1077m-21014 1071c388-5614 4686-10038 9931-10038 5246 0 9545 4425 9932 10040m5 1577c-353 5651-4667 10116-9937 10116-5291 0-9618-4501-9941-10185m0 0l1332 827m-1332-827l-1120 1097m20990-2595l-1317-850"/>
		<path class="fil3" d="M9900 23112l-405 0 0-85c28-24 56-48 85-73 28-24 55-48 79-72 51-50 87-90 106-119 19-29 29-61 29-95 0-31-10-55-31-73-21-18-49-26-86-26-24 0-51 4-79 13-28 9-56 22-83 40l-4 0 0-85c19-9 44-18 76-26 32-8 63-12 92-12 61 0 109 15 144 44 35 30 52 70 52 121 0 23-3 44-9 64-6 20-14 38-25 56-10 17-23 33-37 49-14 16-31 34-51 54-29 28-58 56-89 82-31 26-59 51-86 73l322 0 0 69z"/>
		<polygon class="fil3" points="10886 22662 10769 23112 10699 23112 10583 22765 10468 23112 10398 23112 10280 22662 10358 22662 10441 23011 10554 22662 10616 22662 10732 23011 10810 22662 "/>
		<path class="fil3" d="M11372 22895l-332 0c0 28 4 52 13 72 8 20 20 37 34 50 14 13 31 22 50 29 19 6 40 10 64 10 31 0 61-6 92-18 31-12 53-24 66-36l4 0 0 83c-25 11-52 20-78 27-27 7-54 11-84 11-75 0-133-20-175-61-42-40-63-98-63-172 0-73 20-132 60-175 40-43 93-65 159-65 61 0 108 18 141 53 33 36 49 86 49 151l0 41zm-73-58c0-40-10-70-30-92-20-22-50-33-90-33-41 0-73 12-97 36-24 24-38 54-41 89l258 0z"/>
		<path class="fil3" d="M11864 22895l-332 0c0 28 4 52 13 72 8 20 20 37 34 50 14 13 31 22 50 29 19 6 40 10 64 10 31 0 61-6 92-18 31-12 53-24 66-36l4 0 0 83c-25 11-52 20-78 27-27 7-54 11-84 11-75 0-133-20-175-61-42-40-63-98-63-172 0-73 20-132 60-175 40-43 93-65 159-65 61 0 108 18 141 53 33 36 49 86 49 151l0 41zm-73-58c0-40-10-70-30-92-20-22-50-33-90-33-41 0-73 12-97 36-24 24-38 54-41 89l258 0z"/>
		<polygon class="fil3" points="12388 23112 12288 23112 12107 22916 12058 22962 12058 23112 11982 23112 11982 22485 12058 22485 12058 22888 12277 22662 12372 22662 12163 22870 "/>
		<path class="fil3" d="M12789 22982c0 41-17 75-51 101-34 26-80 39-139 39-33 0-64-4-92-12-28-8-51-17-70-26l0-85 4 0c24 18 50 33 80 43 29 11 57 16 84 16 33 0 59-5 78-16 19-11 28-28 28-51 0-18-5-31-15-40-10-9-30-17-59-23-11-2-25-5-42-9-17-3-33-7-47-10-39-10-67-26-84-46-17-20-25-45-25-75 0-19 4-36 12-52 8-16 19-31 35-44 15-13 34-23 58-30 23-7 49-11 78-11 27 0 54 3 82 10 28 6 50 14 69 24l0 81-4 0c-19-14-43-26-70-36-28-10-55-15-81-15-28 0-51 5-70 16-19 11-29 27-29 48 0 18 6 32 17 42 11 9 29 17 55 23 14 3 29 6 47 10 17 3 32 6 43 9 35 8 62 22 81 41 19 20 28 46 28 79z"/>
	</g>
</svg>
