<?xml version="1.0" encoding="UTF-8"?>
<svg xmlns="http://www.w3.org/2000/svg" xmlns:xlink="http://www.w3.org/1999/xlink" xml:space="preserve" height="480px" viewBox="0 0 13100 18030" version="1.1" baseProfile="full" style="clip-rule:evenodd;fill-rule:evenodd;image-rendering:optimizeQuality;shape-rendering:geometricPrecision;text-rendering:optimizeLegibility">
	<defs>
		<style type="text/css"><![CDATA[
			.str0 {stroke:white;stroke-width:7.31171}
			.fil3 {fill:none}
			.fil0 {fill:black}
			.fil1 {fill:white}
			.fil2 {fill:white;fill-rule:nonzero}
		]]></style>
	</defs>
	<g>
		<g>
			<path class="fil0" d="M1148 4745c-1463 0-1111 2197-1111 2197l358 0c-18-126-186-1410 269-1667 0 0-53 1507-5 1667l946 0c46-159-4-1655-4-1655 433 255 273 1529 256 1655l352 0c0 0 402-2197-1060-2197z"/>
			<path class="fil0" d="M1115 7701c128-320 219 1913 230 2181 187-4 335-8 335-8 0 0-34-2739-79-2857l-937 0c0 0-130 2825-78 2857 19 12 166 15 347 14 7-234 56-1871 182-2186z"/>
			<g>
				<path class="fil1" d="M1148 3233c-398 0-720 322-720 720 0 398 322 720 720 720 398 0 720-322 720-720 0-398-322-720-720-720z"/>
				<circle class="fil0" cx="860" cy="4029" r="96"/>
				<circle class="fil0" cx="1436" cy="4029" r="96"/>
				<path class="fil0" d="M1148 4337c-37 0-70-17-92-46-6-8-5-21 4-27 8-6 21-5 27 4 15 20 37 31 62 31 25 0 47-11 62-31 6-8 18-10 27-4 9 6 10 18 4 27-22 29-56 47-92 47z"/>
				<path class="fil0" d="M1618 3876l-365 0c-42 0-77 34-77 77l0 32c-9-2-18-3-29-3-11 0-20 1-29 3l0-32c0-42-34-77-77-77l-365 0c-42 0-77 34-77 77l0 154c0 42 34 77 77 77l365 0c42 0 77-34 77-77l0-82c7-3 17-5 29-5 12 0 21 2 29 5l0 82c0 42 34 77 77 77l365 0c42 0 77-34 77-77l0-154c0-42-34-77-77-77zm-538 230c0 21-17 38-38 38l-365 0c-21 0-38-17-38-38l0-154c0-21 17-38 38-38l365 0c21 0 38 17 38 38l0 49 0 46 0 58zm576 0c0 21-17 38-38 38l-365 0c-21 0-38-17-38-38l0-58 0-47 0-49c0-21 17-38 38-38l365 0c21 0 38 17 38 38l0 154z"/>
				<path class="fil0" d="M1148 3233c-398 0-720 322-720 720 0 398 322 720 720 720 398 0 720-322 720-720 0-398-322-720-720-720zm0 1382c-365 0-662-297-662-662 0-33 3-65 7-97 332 1 781-64 944-229 0 32 79 227 366 227 5 32 8 65 8 99 0 365-297 662-662 662z"/>
			</g>
			<path class="fil2" d="M1312 5252l-75 241-45 0-49-157c-1-2-2-5-2-7-1-3-1-5-2-8-1 3-1 6-2 8-1 3-2 5-2 7l-50 157-45 0-74-241 42 0c4 0 8 1 11 3 3 2 5 5 6 8l37 136c1 4 2 8 3 12 1 4 2 9 3 14 1-5 2-10 3-14 1-4 2-8 4-12l43-136c1-3 3-5 6-8 3-2 6-3 11-3l15 0c4 0 8 1 11 3 3 2 5 5 6 8l43 136c1 4 3 7 4 12 1 4 2 9 3 13 1-5 2-9 3-13 1-4 2-8 3-12l37-136c1-3 3-5 6-8 3-2 7-3 11-3l39 0z"/>
			<path class="fil2" d="M916 5849c5 0 9 1 12 4 3 3 4 6 4 11l0 27-167 0 0-15c0-3 1-6 2-9 1-3 3-6 6-9l71-72c6-6 11-12 16-18 5-6 9-11 12-16 3-5 5-11 7-16 2-6 2-11 2-17 0-11-3-19-8-24-6-6-13-8-23-8-4 0-8 1-12 2-4 1-7 3-10 5-3 2-5 5-8 8-2 3-4 6-5 10-2 6-5 9-8 11-3 2-8 2-14 1l-24-4c2-12 5-22 10-31 5-9 11-16 18-22 7-6 16-10 25-13 9-3 20-4 30-4 11 0 22 2 31 5 9 3 17 8 24 14 7 6 12 13 15 22 4 9 5 18 5 28 0 9-1 17-4 25-3 8-6 15-10 21-4 7-9 13-15 20-6 6-12 13-18 19l-51 52c6-2 11-3 17-4 6-1 11-1 16-1l54 0z"/>
			<path class="fil2" d="M1131 5771c0 21-2 39-7 55-5 15-11 28-19 38-8 10-17 18-28 23-11 5-23 7-35 7-13 0-24-2-35-7-11-5-20-12-28-23-8-10-14-23-18-38-4-15-7-34-7-55 0-21 2-39 7-55 4-15 11-28 18-38 8-10 17-18 28-23 11-5 23-7 35-7 13 0 24 2 35 7 11 5 20 12 28 23 8 10 14 23 19 38 5 15 7 34 7 55zm-47 0c0-17-1-31-4-42-2-11-6-20-9-26-4-6-8-11-13-13-5-3-10-4-16-4-5 0-10 1-15 4-5 3-9 7-13 13-4 6-7 15-9 26-2 11-3 25-3 42 0 17 1 31 3 42 2 11 5 20 9 26 4 6 8 11 13 13 5 3 10 4 15 4 5 0 11-1 16-4 5-3 9-7 13-13 4-6 7-15 9-26 2-11 4-25 4-42z"/>
			<path class="fil2" d="M1311 5857l0 34-135 0 0-34 48 0 0-132c0-3 0-6 0-9 0-3 0-6 0-9l-32 26c-2 2-4 3-6 3-2 0-4 0-6 0-2 0-4-1-5-2-1-1-3-2-3-3l-14-19 74-63 38 0 0 207 42 0z"/>
			<path class="fil2" d="M1516 5771c0 21-2 39-7 55-5 15-11 28-19 38-8 10-17 18-28 23-11 5-23 7-35 7-13 0-24-2-35-7-11-5-20-12-28-23-8-10-14-23-18-38-4-15-7-34-7-55 0-21 2-39 7-55 4-15 11-28 18-38 8-10 17-18 28-23 11-5 23-7 35-7 13 0 24 2 35 7 11 5 20 12 28 23 8 10 14 23 19 38 5 15 7 34 7 55zm-47 0c0-17-1-31-4-42-2-11-6-20-9-26-4-6-8-11-13-13-5-3-10-4-16-4-5 0-10 1-15 4-5 3-9 7-13 13-4 6-7 15-9 26-2 11-3 25-3 42 0 17 1 31 3 42 2 11 5 20 9 26 4 6 8 11 13 13 5 3 10 4 15 4 5 0 11-1 16-4 5-3 9-7 13-13 4-6 7-15 9-26 2-11 4-25 4-42z"/>
			<path class="fil2" d="M904 6163c-4-5-9-8-14-10-5-2-10-3-16-3-6 0-11 1-15 3-5 2-8 5-12 10-3 4-6 10-8 17-2 7-3 15-3 25 0 10 1 18 2 24 1 7 4 12 6 16 3 4 6 7 10 9 4 2 8 3 13 3 8 0 15-2 20-5 5-3 11-8 15-14l0-75zm46-121l0 247-28 0c-6 0-10-3-11-8l-4-15c-3 4-7 7-11 10-4 3-8 6-12 8-4 2-9 4-14 5-5 1-11 2-17 2-9 0-18-2-25-6-8-4-14-10-20-17-6-7-10-17-13-27-3-11-5-23-5-37 0-13 2-25 5-36 3-11 8-20 15-28 6-8 14-14 23-19 9-5 19-7 30-7 9 0 17 1 24 4 6 3 12 7 17 11l0-88 46 0z"/>
			<path class="fil2" d="M1065 6116c13 0 25 2 35 6 11 4 20 10 27 17 8 8 13 17 17 28 4 11 6 23 6 37 0 14-2 26-6 37-4 11-10 20-17 28-8 8-17 13-27 18-11 4-22 6-35 6-13 0-25-2-35-6-11-4-20-10-27-18-8-8-13-17-17-28-4-11-6-23-6-37 0-14 2-26 6-37 4-11 10-20 17-28 8-8 17-13 27-17 11-4 22-6 35-6zm0 142c13 0 23-5 29-14 6-9 9-22 9-40 0-18-3-31-9-40-6-9-16-13-29-13-13 0-23 4-30 13-6 9-9 22-9 40 0 18 3 31 9 40 6 9 16 14 30 14z"/>
			<path class="fil2" d="M1303 6156c-1 2-3 3-4 4-1 1-3 1-6 1-2 0-4-1-6-2-2-1-4-3-7-4-3-1-6-3-9-4-4-1-8-2-14-2-7 0-13 1-18 4-5 2-9 6-13 11-3 5-6 10-7 17-2 7-2 14-2 22 0 17 4 31 11 40 7 9 17 14 29 14 4 0 8 0 11-1 3-1 6-2 8-3 2-1 4-2 6-4 2-1 3-3 5-4 1-1 3-2 4-3 1-1 3-1 5-1 4 0 6 1 8 4l13 17c-5 6-10 10-16 14-6 4-11 7-17 9-6 2-12 4-18 4-6 1-12 1-18 1-11 0-20-2-30-6-9-4-18-10-25-17-7-8-13-17-17-28-4-11-6-23-6-37 0-13 2-24 5-35 4-11 9-20 16-28 7-8 16-14 26-19 10-4 23-7 36-7 13 0 24 2 34 6 10 4 19 10 27 18l-12 16z"/>
			<path class="fil2" d="M1497 6289l-44 0c-3 0-6-1-8-2-2-2-4-4-5-6l-34-56c-1 4-2 7-4 10l-29 46c-1 2-3 4-5 6-2 2-4 3-7 3l-41 0 58-88-56-83 44 0c3 0 6 0 7 1 2 1 3 2 4 4l34 54c1-2 1-4 2-6 1-2 2-4 3-6l26-42c3-4 6-6 10-6l42 0-56 81 58 90z"/>
		</g>
		<g>
			<path class="fil0" d="M6555 1768c-1463 0-1111 2197-1111 2197l358 0c-18-126-186-1410 269-1667 0 0-53 1507-5 1667l946 0c46-159-4-1655-4-1655 433 255 273 1529 256 1655l352 0c0 0 402-2197-1060-2197z"/>
			<path class="fil0" d="M6522 4724c128-320 219 1913 230 2181 187-4 335-8 335-8 0 0-34-2739-79-2857l-937 0c0 0-130 2825-78 2857 19 12 166 15 347 14 7-234 56-1871 182-2186z"/>
			<g>
				<path class="fil1" d="M6555 256c-398 0-720 322-720 720 0 398 322 720 720 720 398 0 720-322 720-720 0-398-322-720-720-720z"/>
				<circle class="fil0" cx="6267" cy="1052" r="96"/>
				<circle class="fil0" cx="6843" cy="1052" r="96"/>
				<path class="fil0" d="M6555 1359c-37 0-70-17-92-46-6-8-5-21 4-27 8-6 21-5 27 4 15 20 37 31 62 31 25 0 47-11 62-31 6-8 18-10 27-4 9 6 10 18 4 27-22 29-56 47-92 47z"/>
				<path class="fil0" d="M7025 899l-365 0c-42 0-77 34-77 77l0 32c-9-2-18-3-29-3-11 0-20 1-29 3l0-32c0-42-34-77-77-77l-365 0c-42 0-77 34-77 77l0 154c0 42 34 77 77 77l365 0c42 0 77-34 77-77l0-82c7-3 17-5 29-5 12 0 21 2 29 5l0 82c0 42 34 77 77 77l365 0c42 0 77-34 77-77l0-154c0-42-34-77-77-77zm-538 230c0 21-17 38-38 38l-365 0c-21 0-38-17-38-38l0-154c0-21 17-38 38-38l365 0c21 0 38 17 38 38l0 49 0 46 0 58zm576 0c0 21-17 38-38 38l-365 0c-21 0-38-17-38-38l0-58 0-47 0-49c0-21 17-38 38-38l365 0c21 0 38 17 38 38l0 154z"/>
				<path class="fil0" d="M6555 256c-398 0-720 322-720 720 0 398 322 720 720 720 398 0 720-322 720-720 0-398-322-720-720-720zm0 1382c-365 0-662-297-662-662 0-33 2-65 7-97 332 1 781-64 944-229 0 32 79 227 366 227 5 32 8 65 8 99 0 365-297 662-662 662z"/>
			</g>
			<path class="fil2" d="M6721 2274l-75 242-51 0-45-150c-1-2-2-5-2-8-1-3-2-6-2-9-1 3-2 6-2 9-1 3-2 5-2 8l-46 150-51 0-75-242 47 0c5 0 9 1 12 3 3 2 5 5 6 9l33 126c1 4 2 8 3 13 1 5 2 10 3 15 2-10 4-20 7-28l39-126c1-3 3-6 6-8 3-2 7-4 12-4l17 0c5 0 9 1 12 3 3 2 5 5 7 9l39 126c3 8 5 17 7 26 1-5 2-10 3-14 1-4 2-8 3-12l33-126c1-3 3-6 6-8 3-2 7-4 12-4l44 0z"/>
			<path class="fil2" d="M6322 2867c6 0 10 1 13 5 3 3 5 7 5 12l0 30-170 0 0-17c0-3 1-7 2-10 1-4 4-7 7-10l70-70c6-6 11-12 16-17 4-5 8-11 11-16 3-5 5-11 6-16 1-5 2-11 2-17 0-10-2-17-7-22-5-5-12-8-21-8-8 0-14 2-19 6-5 4-9 9-11 15-2 6-5 10-9 12-4 2-9 2-16 1l-27-5c2-12 5-23 10-32 5-9 11-16 19-22 7-6 16-10 26-13 10-3 20-4 31-4 12 0 23 2 32 5 10 3 18 8 24 15 7 6 12 14 16 22 4 9 5 18 5 28 0 9-1 17-4 25-2 8-6 15-10 21-4 7-9 13-15 20-6 6-12 13-18 19l-47 48c6-2 12-3 18-4 6-1 12-1 17-1l45 0z"/>
			<path class="fil2" d="M6538 2793c0 21-2 39-7 55-5 15-11 28-19 38-8 10-18 18-29 23-11 5-23 7-36 7-13 0-25-2-36-7-11-5-20-13-28-23-8-10-14-23-19-38-4-15-7-34-7-55 0-21 2-39 7-55 4-15 11-28 19-38 8-10 17-18 28-23 11-5 23-7 36-7 13 0 25 2 36 7 11 5 21 13 29 23 8 10 14 23 19 38 5 15 7 34 7 55zm-53 0c0-17-1-30-3-41-2-11-5-19-8-25-3-6-7-10-12-13-4-2-9-3-13-3-5 0-9 1-13 3-4 2-8 6-12 13-3 6-6 14-8 25-2 11-3 24-3 41 0 17 1 31 3 41 2 11 5 19 8 25 3 6 7 10 12 13 4 2 9 3 13 3 5 0 9-1 13-3 4-2 8-6 12-13 3-6 6-14 8-25 2-11 3-24 3-41z"/>
			<path class="fil2" d="M6719 2877l0 37-138 0 0-37 46 0 0-122c0-3 0-6 0-9 0-3 0-6 0-10l-28 23c-2 2-5 3-7 3-2 0-5 0-7 0-2 0-4-1-6-2-2-1-3-2-4-3l-16-22 75-63 42 0 0 205 40 0z"/>
			<path class="fil2" d="M6833 2876c5 0 10-1 15-3 5-2 9-5 12-8 3-3 6-8 8-12 2-5 3-10 3-15 0-6-1-12-3-17-2-5-4-9-8-12-3-3-7-6-12-8-5-2-10-3-16-3-5 0-10 1-14 3-4 2-8 4-11 8-3 3-6 8-7 12-2 5-3 10-3 16 0 6 1 11 2 16 1 5 4 9 7 12 3 3 7 6 11 8 5 2 10 3 16 3zm-8-111c8-3 16-4 26-4 9 0 17 1 26 4 9 3 16 7 23 13 7 6 12 14 16 23 4 9 6 20 6 32 0 11-2 22-6 32-4 10-10 19-18 27-8 8-17 14-28 18-11 4-23 7-36 7-14 0-26-2-36-6-11-4-20-10-27-18-7-8-13-17-17-27-4-11-6-22-6-35 0-24 9-48 28-73l54-74c3-3 6-6 11-8 5-2 10-3 16-3l46 0-72 86-6 7z"/>
			<path class="fil2" d="M6304 3186c-4-4-8-7-13-9-5-2-9-3-14-3-5 0-9 1-13 3-4 2-7 5-10 9-3 4-5 10-7 16-2 7-2 15-2 24 0 9 1 17 2 23 1 6 3 11 6 15 2 4 5 7 9 8 3 2 7 2 11 2 4 0 7 0 10-1 3-1 6-2 8-3 3-1 5-3 7-5 2-2 4-4 7-7l0-73zm51-122l0 248-32 0c-6 0-11-3-13-9l-4-13c-3 4-7 7-11 10-4 3-8 6-12 8-4 2-9 4-14 5-5 1-11 2-16 2-9 0-17-2-25-6-8-4-14-10-20-17-6-8-10-17-13-28-3-11-5-23-5-37 0-13 2-25 5-36 4-11 9-21 15-29 6-8 14-14 23-19 9-5 19-7 30-7 9 0 16 1 23 4 6 3 12 6 17 10l0-87 51 0z"/>
			<path class="fil2" d="M6470 3137c13 0 25 2 36 6 11 4 20 10 28 18 8 8 14 17 18 28 4 11 6 23 6 37 0 14-2 26-6 37-4 11-10 20-18 28-8 8-17 14-28 18-11 4-23 6-36 6-13 0-25-2-36-6-11-4-20-10-28-18-8-8-14-17-18-28-4-11-6-23-6-37 0-14 2-26 6-37 4-11 10-20 18-28 8-8 17-13 28-18 11-4 23-6 36-6zm0 139c12 0 21-4 26-13 6-8 8-21 8-38 0-17-3-30-8-38-6-8-14-12-26-12-12 0-21 4-27 12-6 8-8 21-8 38 0 17 3 30 8 38 6 8 15 13 27 13z"/>
			<path class="fil2" d="M6710 3181c-2 2-3 3-4 4-1 1-3 2-6 2-3 0-5-1-7-2-2-1-4-3-7-4-3-1-6-3-9-4-3-1-8-2-13-2-6 0-12 1-16 3-5 2-8 6-11 10-3 4-5 10-7 16-1 6-2 13-2 21 0 16 3 29 10 38 6 9 15 13 26 13 6 0 11-1 14-2 3-1 6-3 9-5 2-2 5-3 7-5 2-2 5-2 8-2 4 0 7 1 9 4l15 18c-5 6-11 11-17 15-6 4-12 7-18 9-6 2-12 4-19 4-6 1-12 1-18 1-11 0-21-2-30-6-10-4-18-10-25-17-7-8-13-17-17-28-4-11-6-24-6-38 0-12 2-24 6-35 4-11 9-20 16-28 7-8 16-14 27-19 11-5 23-7 37-7 14 0 25 2 36 6 10 4 19 11 28 19l-14 18z"/>
			<path class="fil2" d="M6909 3312l-49 0c-4 0-7-1-9-3-2-2-4-4-5-6l-31-53c-1 2-1 4-2 5-1 2-2 3-2 5l-25 43c-2 2-3 4-5 6-2 2-5 3-8 3l-46 0 58-89-55-83 49 0c4 0 6 0 8 1 2 1 3 3 5 5l31 51c1-2 1-4 2-6 1-2 2-4 3-6l22-38c2-2 3-4 5-5 2-1 4-2 6-2l47 0-55 81 58 91z"/>
		</g>
		<g>
			<path class="fil0" d="M11988 4875c-1463 0-1111 2197-1111 2197l358 0c-18-126-186-1410 269-1667 0 0-53 1507-5 1667l946 0c46-159-4-1655-4-1655 433 255 273 1529 256 1655l352 0c0 0 402-2197-1060-2197z"/>
			<path class="fil0" d="M11956 7831c128-320 219 1913 230 2181 187-4 335-8 335-8 0 0-34-2739-79-2857l-937 0c0 0-130 2825-78 2857 19 12 166 15 347 14 7-234 56-1871 182-2186z"/>
			<g>
				<path class="fil1" d="M11988 3363c-398 0-720 322-720 720 0 398 322 720 720 720 398 0 720-322 720-720 0-398-322-720-720-720z"/>
				<circle class="fil0" cx="11701" cy="4159" r="96"/>
				<circle class="fil0" cx="12276" cy="4159" r="96"/>
				<path class="fil0" d="M11988 4466c-37 0-70-17-92-46-6-8-5-21 4-27 8-6 21-5 27 4 15 20 37 31 62 31 25 0 47-11 62-31 6-8 18-10 27-4 9 6 10 18 4 27-22 29-56 47-92 47z"/>
				<path class="fil0" d="M12459 4006l-365 0c-42 0-77 34-77 77l0 32c-9-2-18-3-29-3-11 0-20 1-29 3l0-32c0-42-34-77-77-77l-365 0c-42 0-77 34-77 77l0 154c0 42 34 77 77 77l365 0c42 0 77-34 77-77l0-82c7-3 17-5 29-5 12 0 21 2 29 5l0 82c0 42 34 77 77 77l365 0c42 0 77-34 77-77l0-154c0-42-34-77-77-77zm-538 230c0 21-17 38-38 38l-365 0c-21 0-38-17-38-38l0-154c0-21 17-38 38-38l365 0c21 0 38 17 38 38l0 49 0 46 0 58zm576 0c0 21-17 38-38 38l-365 0c-21 0-38-17-38-38l0-58 0-47 0-49c0-21 17-38 38-38l365 0c21 0 38 17 38 38l0 154z"/>
				<path class="fil0" d="M11988 3363c-398 0-720 322-720 720 0 398 322 720 720 720 398 0 720-322 720-720 0-398-322-720-720-720zm0 1382c-365 0-662-297-662-662 0-33 2-65 7-97 332 1 781-64 944-229 0 32 79 227 366 227 5 32 8 65 8 99 0 365-297 662-662 662z"/>
			</g>
			<path class="fil2" d="M12152 5382l-75 241-45 0-49-157c-1-2-2-5-2-7-1-3-1-5-2-8-1 3-1 6-2 8-1 3-2 5-2 7l-50 157-45 0-74-241 42 0c4 0 8 1 11 3 3 2 5 5 6 8l37 136c1 4 2 8 3 12 1 4 2 9 3 14 1-5 2-10 3-14 1-4 2-8 4-12l43-136c1-3 3-5 6-8 3-2 6-3 11-3l15 0c4 0 8 1 11 3 3 2 5 5 6 8l43 136c1 4 3 7 4 12 1 4 2 9 3 13 1-5 2-9 3-13 1-4 2-8 3-12l37-136c1-3 3-5 6-8 3-2 7-3 11-3l39 0z"/>
			<path class="fil2" d="M11756 5979c5 0 9 1 12 4 3 3 4 6 4 11l0 27-167 0 0-15c0-3 1-6 2-9 1-3 3-6 6-9l71-72c6-6 11-12 16-18 5-6 9-11 12-16 3-5 5-11 7-16 2-6 2-11 2-17 0-11-3-19-8-24-6-6-13-8-23-8-4 0-8 1-12 2-4 1-7 3-10 5-3 2-5 5-8 8-2 3-4 6-5 10-2 6-5 9-8 11-3 2-8 2-14 1l-24-4c2-12 5-22 10-31 5-9 11-16 18-22 7-6 16-10 25-13 9-3 20-4 30-4 11 0 22 2 31 5 9 3 17 8 24 14 7 6 12 13 15 22 4 9 5 18 5 28 0 9-1 17-4 25-3 8-6 15-10 21-4 7-9 13-15 20-6 6-12 13-18 19l-51 52c6-2 11-3 17-4 6-1 11-1 16-1l54 0z"/>
			<path class="fil2" d="M11971 5901c0 21-2 39-7 55-5 15-11 28-19 38-8 10-17 18-28 23-11 5-23 7-35 7-13 0-24-2-35-7-11-5-20-12-28-23-8-10-14-23-18-38-4-15-7-34-7-55 0-21 2-39 7-55 4-15 11-28 18-38 8-10 17-18 28-23 11-5 23-7 35-7 13 0 24 2 35 7 11 5 20 12 28 23 8 10 14 23 19 38 5 15 7 34 7 55zm-47 0c0-17-1-31-4-42-2-11-6-20-9-26-4-6-8-11-13-13-5-3-10-4-16-4-5 0-10 1-15 4-5 3-9 7-13 13-4 6-7 15-9 26-2 11-3 25-3 42 0 17 1 31 3 42 2 11 5 20 9 26 4 6 8 11 13 13 5 3 10 4 15 4 5 0 11-1 16-4 5-3 9-7 13-13 4-6 7-15 9-26 2-11 4-25 4-42z"/>
			<path class="fil2" d="M12164 5901c0 21-2 39-7 55-5 15-11 28-19 38-8 10-17 18-28 23-11 5-23 7-35 7-13 0-24-2-35-7-11-5-20-12-28-23-8-10-14-23-18-38-4-15-7-34-7-55 0-21 2-39 7-55 4-15 11-28 18-38 8-10 17-18 28-23 11-5 23-7 35-7 13 0 24 2 35 7 11 5 20 12 28 23 8 10 14 23 19 38 5 15 7 34 7 55zm-47 0c0-17-1-31-4-42-2-11-6-20-9-26-4-6-8-11-13-13-5-3-10-4-16-4-5 0-10 1-15 4-5 3-9 7-13 13-4 6-7 15-9 26-2 11-3 25-3 42 0 17 1 31 3 42 2 11 5 20 9 26 4 6 8 11 13 13 5 3 10 4 15 4 5 0 11-1 16-4 5-3 9-7 13-13 4-6 7-15 9-26 2-11 4-25 4-42z"/>
			<path class="fil2" d="M12356 5901c0 21-2 39-7 55-5 15-11 28-19 38-8 10-17 18-28 23-11 5-23 7-35 7-13 0-24-2-35-7-11-5-20-12-28-23-8-10-14-23-18-38-4-15-7-34-7-55 0-21 2-39 7-55 4-15 11-28 18-38 8-10 17-18 28-23 11-5 23-7 35-7 13 0 24 2 35 7 11 5 20 12 28 23 8 10 14 23 19 38 5 15 7 34 7 55zm-47 0c0-17-1-31-4-42-2-11-6-20-9-26-4-6-8-11-13-13-5-3-10-4-16-4-5 0-10 1-15 4-5 3-9 7-13 13-4 6-7 15-9 26-2 11-3 25-3 42 0 17 1 31 3 42 2 11 5 20 9 26 4 6 8 11 13 13 5 3 10 4 15 4 5 0 11-1 16-4 5-3 9-7 13-13 4-6 7-15 9-26 2-11 4-25 4-42z"/>
			<path class="fil2" d="M11833 6293c-4-5-9-8-14-10-5-2-10-3-16-3-6 0-11 1-15 3-5 2-8 5-12 10-3 4-6 10-8 17-2 7-3 15-3 25 0 10 1 18 2 24 1 7 4 12 6 16 3 4 6 7 10 9 4 2 8 3 13 3 8 0 15-2 20-5 5-3 11-8 15-14l0-75zm46-121l0 247-28 0c-6 0-10-3-11-8l-4-15c-3 4-7 7-11 10-4 3-8 6-12 8-4 2-9 4-14 5-5 1-11 2-17 2-9 0-18-2-25-6-8-4-14-10-20-17-6-7-10-17-13-27-3-11-5-23-5-37 0-13 2-25 5-36 3-11 8-20 15-28 6-8 14-14 23-19 9-5 19-7 30-7 9 0 17 1 24 4 6 3 12 7 17 11l0-88 46 0z"/>
			<path class="fil2" d="M11994 6245c13 0 25 2 35 6 11 4 20 10 27 17 8 8 13 17 17 28 4 11 6 23 6 37 0 14-2 26-6 37-4 11-10 20-17 28-8 8-17 13-27 18-11 4-22 6-35 6-13 0-25-2-35-6-11-4-20-10-27-18-8-8-13-17-17-28-4-11-6-23-6-37 0-14 2-26 6-37 4-11 10-20 17-28 8-8 17-13 27-17 11-4 22-6 35-6zm0 142c13 0 23-5 29-14 6-9 9-22 9-40 0-18-3-31-9-40-6-9-16-13-29-13-13 0-23 4-30 13-6 9-9 22-9 40 0 18 3 31 9 40 6 9 16 14 30 14z"/>
			<path class="fil2" d="M12232 6286c-1 2-3 3-4 4-1 1-3 1-6 1-2 0-4-1-6-2-2-1-4-3-7-4-3-1-6-3-9-4-4-1-8-2-14-2-7 0-13 1-18 4-5 2-9 6-13 11-3 5-6 10-7 17-2 7-2 14-2 22 0 17 4 31 11 40 7 9 17 14 29 14 4 0 8 0 11-1 3-1 6-2 8-3 2-1 4-2 6-4 2-1 3-3 5-4 1-1 3-2 4-3 1-1 3-1 5-1 4 0 6 1 8 4l13 17c-5 6-10 10-16 14-6 4-11 7-17 9-6 2-12 4-18 4-6 1-12 1-18 1-11 0-20-2-30-6-9-4-18-10-25-17-7-8-13-17-17-28-4-11-6-23-6-37 0-13 2-24 5-35 4-11 9-20 16-28 7-8 16-14 26-19 10-4 23-7 36-7 13 0 24 2 34 6 10 4 19 10 27 18l-12 16z"/>
		</g>
		<g>
			<path class="fil0" d="M6070 13074l-29 344c0 0-53 1507-5 1667l946 0c46-159-4-1655-4-1655l-21-345-887-11z"/>
			<path class="fil0" d="M6493 15843c128-320 219 1913 230 2181 187-4 335-8 335-8 0 0-34-2739-79-2857l-937 0c0 0-130 2825-78 2857 19 12 166 15 347 14 7-234 56-1871 182-2186z"/>
			<g>
				<path class="fil1" d="M6525 11375c-398 0-720 322-720 720 0 398 322 720 720 720 398 0 720-322 720-720 0-398-322-720-720-720z"/>
				<circle class="fil0" cx="6237" cy="12172" r="96"/>
				<circle class="fil0" cx="6813" cy="12172" r="96"/>
				<path class="fil0" d="M6525 12479c-37 0-70-17-92-46-6-8-5-21 4-27 8-6 21-5 27 4 15 20 37 31 62 31 25 0 47-11 62-31 6-8 18-10 27-4 9 6 10 18 4 27-22 29-56 47-92 47z"/>
				<path class="fil0" d="M6996 12018l-365 0c-42 0-77 34-77 77l0 32c-9-2-18-3-29-3-11 0-20 1-29 3l0-32c0-42-34-77-77-77l-365 0c-42 0-77 34-77 77l0 154c0 42 34 77 77 77l365 0c42 0 77-34 77-77l0-82c7-3 17-5 29-5 12 0 21 2 29 5l0 82c0 42 34 77 77 77l365 0c42 0 77-34 77-77l0-154c0-42-34-77-77-77zm-538 230c0 21-17 38-38 38l-365 0c-21 0-38-17-38-38l0-154c0-21 17-38 38-38l365 0c21 0 38 17 38 38l0 49 0 46 0 58zm576 0c0 21-17 38-38 38l-365 0c-21 0-38-17-38-38l0-58 0-47 0-49c0-21 17-38 38-38l365 0c21 0 38 17 38 38l0 154z"/>
				<path class="fil0" d="M6525 11375c-398 0-720 322-720 720 0 398 322 720 720 720 398 0 720-322 720-720 0-398-322-720-720-720zm0 1382c-365 0-662-297-662-662 0-33 2-65 7-97 332 1 781-64 944-229 0 32 79 227 366 227 5 32 8 65 8 99 0 365-297 662-662 662z"/>
			</g>
			<path class="fil2" d="M6689 13395l-75 241-45 0-49-157c-1-2-2-5-2-7-1-3-1-5-2-8-1 3-1 6-2 8-1 3-2 5-2 7l-50 157-45 0-74-241 42 0c4 0 8 1 11 3 3 2 5 5 6 8l37 136c1 4 2 8 3 12 1 4 2 9 3 14 1-5 2-10 3-14 1-4 2-8 4-12l43-136c1-3 3-5 6-8 3-2 6-3 11-3l15 0c4 0 8 1 11 3 3 2 5 5 6 8l43 136c1 4 3 7 4 12 1 4 2 9 3 13 1-5 2-9 3-13 1-4 2-8 3-12l37-136c1-3 3-5 6-8 3-2 7-3 11-3l39 0z"/>
			<path class="fil2" d="M6293 13992c5 0 9 1 12 4 3 3 4 6 4 11l0 27-167 0 0-15c0-3 1-6 2-9 1-3 3-6 6-9l71-72c6-6 11-12 16-18 5-6 9-11 12-16 3-5 5-11 7-16 2-6 2-11 2-17 0-11-3-19-8-24-6-6-13-8-23-8-4 0-8 1-12 2-4 1-7 3-10 5-3 2-5 5-8 8-2 3-4 6-5 10-2 6-5 9-8 11-3 2-8 2-14 1l-24-4c2-12 5-22 10-31 5-9 11-16 18-22 7-6 16-10 25-13 9-3 20-4 30-4 11 0 22 2 31 5 9 3 17 8 24 14 7 6 12 13 15 22 4 9 5 18 5 28 0 9-1 17-4 25-3 8-6 15-10 21-4 7-9 13-15 20-6 6-12 13-18 19l-51 52c6-2 11-3 17-4 6-1 11-1 16-1l54 0z"/>
			<path class="fil2" d="M6508 13913c0 21-2 39-7 55-5 15-11 28-19 38-8 10-17 18-28 23-11 5-23 7-35 7-13 0-24-2-35-7-11-5-20-12-28-23-8-10-14-23-18-38-4-15-7-34-7-55 0-21 2-39 7-55 4-15 11-28 18-38 8-10 17-18 28-23 11-5 23-7 35-7 13 0 24 2 35 7 11 5 20 12 28 23 8 10 14 23 19 38 5 15 7 34 7 55zm-47 0c0-17-1-31-4-42-2-11-6-20-9-26-4-6-8-11-13-13-5-3-10-4-16-4-5 0-10 1-15 4-5 3-9 7-13 13-4 6-7 15-9 26-2 11-3 25-3 42 0 17 1 31 3 42 2 11 5 20 9 26 4 6 8 11 13 13 5 3 10 4 15 4 5 0 11-1 16-4 5-3 9-7 13-13 4-6 7-15 9-26 2-11 4-25 4-42z"/>
			<path class="fil2" d="M6701 13913c0 21-2 39-7 55-5 15-11 28-19 38-8 10-17 18-28 23-11 5-23 7-35 7-13 0-24-2-35-7-11-5-20-12-28-23-8-10-14-23-18-38-4-15-7-34-7-55 0-21 2-39 7-55 4-15 11-28 18-38 8-10 17-18 28-23 11-5 23-7 35-7 13 0 24 2 35 7 11 5 20 12 28 23 8 10 14 23 19 38 5 15 7 34 7 55zm-47 0c0-17-1-31-4-42-2-11-6-20-9-26-4-6-8-11-13-13-5-3-10-4-16-4-5 0-10 1-15 4-5 3-9 7-13 13-4 6-7 15-9 26-2 11-3 25-3 42 0 17 1 31 3 42 2 11 5 20 9 26 4 6 8 11 13 13 5 3 10 4 15 4 5 0 11-1 16-4 5-3 9-7 13-13 4-6 7-15 9-26 2-11 4-25 4-42z"/>
			<path class="fil2" d="M6724 13861c2-12 5-22 10-31 5-9 11-16 18-22 7-6 16-10 25-13 9-3 19-4 30-4 12 0 22 2 31 5 9 3 17 8 23 13 6 6 11 12 15 20 3 8 5 16 5 24 0 8-1 14-2 20-2 6-4 11-7 15-3 4-7 8-12 11-5 3-10 5-16 7 28 9 41 27 41 55 0 12-2 23-7 32-5 9-11 17-18 23-8 6-16 11-27 14-10 3-21 5-32 5-12 0-22-1-31-4-9-3-17-7-24-12-7-5-13-12-18-20-5-8-9-17-13-28l20-8c5-2 10-3 15-2 5 1 8 3 10 7 2 4 5 8 7 12 2 4 5 7 8 9 3 3 7 5 11 6 4 1 8 2 14 2 6 0 12-1 17-3 5-2 9-5 12-8 3-3 6-7 7-11 2-4 2-8 2-13 0-6 0-11-1-15-1-4-3-8-7-11-4-3-9-6-16-7-7-2-17-3-29-3l0-32c10 0 18-1 25-2 6-2 11-4 15-7 4-3 6-7 8-11 1-4 2-9 2-14 0-11-3-19-8-24-5-6-13-8-23-8-4 0-8 1-12 2-4 1-7 3-10 5-3 2-5 5-8 8-2 3-4 6-5 10-2 6-5 9-8 11-3 2-8 2-14 1l-24-4z"/>
			<path class="fil2" d="M6369 14305c-4-5-9-8-14-10-5-2-10-3-16-3-6 0-11 1-15 3-5 2-8 5-12 10-3 4-6 10-8 17-2 7-3 15-3 25 0 10 1 18 2 24 1 7 4 12 6 16 3 4 6 7 10 9 4 2 8 3 13 3 8 0 15-2 20-5 5-3 11-8 15-14l0-75zm46-121l0 247-28 0c-6 0-10-3-11-8l-4-15c-3 4-7 7-11 10-4 3-8 6-12 8-4 2-9 4-14 5-5 1-11 2-17 2-9 0-18-2-25-6-8-4-14-10-20-17-6-7-10-17-13-27-3-11-5-23-5-37 0-13 2-25 5-36 3-11 8-20 15-28 6-8 14-14 23-19 9-5 19-7 30-7 9 0 17 1 24 4 6 3 12 7 17 11l0-88 46 0z"/>
			<path class="fil2" d="M6530 14258c13 0 25 2 35 6 11 4 20 10 27 17 8 8 13 17 17 28 4 11 6 23 6 37 0 14-2 26-6 37-4 11-10 20-17 28-8 8-17 13-27 18-11 4-22 6-35 6-13 0-25-2-35-6-11-4-20-10-27-18-8-8-13-17-17-28-4-11-6-23-6-37 0-14 2-26 6-37 4-11 10-20 17-28 8-8 17-13 27-17 11-4 22-6 35-6zm0 142c13 0 23-5 29-14 6-9 9-22 9-40 0-18-3-31-9-40-6-9-16-13-29-13-13 0-23 4-30 13-6 9-9 22-9 40 0 18 3 31 9 40 6 9 16 14 30 14z"/>
			<path class="fil2" d="M6769 14299c-1 2-3 3-4 4-1 1-3 1-6 1-2 0-4-1-6-2-2-1-4-3-7-4-3-1-6-3-9-4-4-1-8-2-14-2-7 0-13 1-18 4-5 2-9 6-13 11-3 5-6 10-7 17-2 7-2 14-2 22 0 17 4 31 11 40 7 9 17 14 29 14 4 0 8 0 11-1 3-1 6-2 8-3 2-1 4-2 6-4 2-1 3-3 5-4 1-1 3-2 4-3 1-1 3-1 5-1 4 0 6 1 8 4l13 17c-5 6-10 10-16 14-6 4-11 7-17 9-6 2-12 4-18 4-6 1-12 1-18 1-11 0-20-2-30-6-9-4-18-10-25-17-7-8-13-17-17-28-4-11-6-23-6-37 0-13 2-24 5-35 4-11 9-20 16-28 7-8 16-14 26-19 10-4 23-7 36-7 13 0 24 2 34 6 10 4 19 10 27 18l-12 16z"/>
			<path class="fil0" d="M6555 13327c-1463 0-1351-2197-1351-2197l358 0c-18 126 54 1410 509 1667 145 97 287 152 488 150 198-2 317-76 449-162 433-255 513-1529 496-1655l352 0c0 0 162 2197-1300 2197z"/>
		</g>
	</g>
</svg>
