<?xml version="1.0" encoding="UTF-8"?>
<svg xmlns="http://www.w3.org/2000/svg" xmlns:xlink="http://www.w3.org/1999/xlink" xml:space="preserve" height="559px" viewBox="0 0 13100 20999" version="1.1" baseProfile="full" style="clip-rule:evenodd;fill-rule:evenodd;image-rendering:optimizeQuality;shape-rendering:geometricPrecision;text-rendering:optimizeLegibility">
	<defs>
		<style type="text/css"><![CDATA[
			.str2 {stroke:white;stroke-width:7.31171}
			.str1 {stroke:black;stroke-width:19.1908;stroke-linecap:round;stroke-linejoin:round}
			.str0 {stroke:black;stroke-width:47.9771}
			.fil4 {fill:none}
			.fil0 {fill:black}
			.fil1 {fill:white}
			.fil3 {fill:black;fill-rule:nonzero}
			.fil2 {fill:white;fill-rule:nonzero}
		]]></style>
	</defs>
	<g>
		<g>
			<path class="fil0" d="M1148 4745c-1463 0-1111 2197-1111 2197l358 0c-18-126-186-1410 269-1667 0 0-53 1507-5 1667l946 0c46-159-4-1655-4-1655 433 255 273 1529 256 1655l352 0c0 0 402-2197-1060-2197z"/>
			<path class="fil0" d="M1115 7701c128-320 219 1913 230 2181 187-4 335-8 335-8 0 0-34-2739-79-2857l-937 0c0 0-130 2825-78 2857 19 12 166 15 347 14 7-234 56-1871 182-2186z"/>
			<g>
				<path class="fil1" d="M1148 3233c-398 0-720 322-720 720 0 398 322 720 720 720 398 0 720-322 720-720 0-398-322-720-720-720z"/>
				<circle class="fil0" cx="860" cy="4029" r="96"/>
				<circle class="fil0" cx="1436" cy="4029" r="96"/>
				<path class="fil0" d="M1148 4259c-37 0-70 17-92 46-6 8-5 21 4 27 8 6 21 5 27-4 15-20 37-31 62-31 25 0 47 11 62 31 6 8 18 10 27 4 9-6 10-18 4-27-22-29-56-47-92-47z"/>
				<path class="fil0" d="M1618 3876l-365 0c-42 0-77 34-77 77l0 32c-9-2-18-3-29-3-11 0-20 1-29 3l0-32c0-42-34-77-77-77l-365 0c-42 0-77 34-77 77l0 154c0 42 34 77 77 77l365 0c42 0 77-34 77-77l0-82c7-3 17-5 29-5 12 0 21 2 29 5l0 82c0 42 34 77 77 77l365 0c42 0 77-34 77-77l0-154c0-42-34-77-77-77zm-538 230c0 21-17 38-38 38l-365 0c-21 0-38-17-38-38l0-154c0-21 17-38 38-38l365 0c21 0 38 17 38 38l0 49 0 46 0 58zm576 0c0 21-17 38-38 38l-365 0c-21 0-38-17-38-38l0-58 0-47 0-49c0-21 17-38 38-38l365 0c21 0 38 17 38 38l0 154z"/>
				<path class="fil0" d="M1148 3233c-398 0-720 322-720 720 0 398 322 720 720 720 398 0 720-322 720-720 0-398-322-720-720-720zm0 1382c-365 0-662-297-662-662 0-33 3-65 7-97 332 1 781-64 944-229 0 32 79 227 366 227 5 32 8 65 8 99 0 365-297 662-662 662z"/>
			</g>
			<path class="fil2" d="M1312 5252l-75 241-45 0-49-157c-1-2-2-5-2-7-1-3-1-5-2-8-1 3-1 6-2 8-1 3-2 5-2 7l-50 157-45 0-74-241 42 0c4 0 8 1 11 3 3 2 5 5 6 8l37 136c1 4 2 8 3 12 1 4 2 9 3 14 1-5 2-10 3-14 1-4 2-8 4-12l43-136c1-3 3-5 6-8 3-2 6-3 11-3l15 0c4 0 8 1 11 3 3 2 5 5 6 8l43 136c1 4 3 7 4 12 1 4 2 9 3 13 1-5 2-9 3-13 1-4 2-8 3-12l37-136c1-3 3-5 6-8 3-2 7-3 11-3l39 0z"/>
			<path class="fil2" d="M916 5849c5 0 9 1 12 4 3 3 4 6 4 11l0 27-167 0 0-15c0-3 1-6 2-9 1-3 3-6 6-9l71-72c6-6 11-12 16-18 5-6 9-11 12-16 3-5 5-11 7-16 2-6 2-11 2-17 0-11-3-19-8-24-6-6-13-8-23-8-4 0-8 1-12 2-4 1-7 3-10 5-3 2-5 5-8 8-2 3-4 6-5 10-2 6-5 9-8 11-3 2-8 2-14 1l-24-4c2-12 5-22 10-31 5-9 11-16 18-22 7-6 16-10 25-13 9-3 20-4 30-4 11 0 22 2 31 5 9 3 17 8 24 14 7 6 12 13 15 22 4 9 5 18 5 28 0 9-1 17-4 25-3 8-6 15-10 21-4 7-9 13-15 20-6 6-12 13-18 19l-51 52c6-2 11-3 17-4 6-1 11-1 16-1l54 0z"/>
			<path class="fil2" d="M1131 5771c0 21-2 39-7 55-5 15-11 28-19 38-8 10-17 18-28 23-11 5-23 7-35 7-13 0-24-2-35-7-11-5-20-12-28-23-8-10-14-23-18-38-4-15-7-34-7-55 0-21 2-39 7-55 4-15 11-28 18-38 8-10 17-18 28-23 11-5 23-7 35-7 13 0 24 2 35 7 11 5 20 12 28 23 8 10 14 23 19 38 5 15 7 34 7 55zm-47 0c0-17-1-31-4-42-2-11-6-20-9-26-4-6-8-11-13-13-5-3-10-4-16-4-5 0-10 1-15 4-5 3-9 7-13 13-4 6-7 15-9 26-2 11-3 25-3 42 0 17 1 31 3 42 2 11 5 20 9 26 4 6 8 11 13 13 5 3 10 4 15 4 5 0 11-1 16-4 5-3 9-7 13-13 4-6 7-15 9-26 2-11 4-25 4-42z"/>
			<path class="fil2" d="M1311 5857l0 34-135 0 0-34 48 0 0-132c0-3 0-6 0-9 0-3 0-6 0-9l-32 26c-2 2-4 3-6 3-2 0-4 0-6 0-2 0-4-1-5-2-1-1-3-2-3-3l-14-19 74-63 38 0 0 207 42 0z"/>
			<path class="fil2" d="M1516 5771c0 21-2 39-7 55-5 15-11 28-19 38-8 10-17 18-28 23-11 5-23 7-35 7-13 0-24-2-35-7-11-5-20-12-28-23-8-10-14-23-18-38-4-15-7-34-7-55 0-21 2-39 7-55 4-15 11-28 18-38 8-10 17-18 28-23 11-5 23-7 35-7 13 0 24 2 35 7 11 5 20 12 28 23 8 10 14 23 19 38 5 15 7 34 7 55zm-47 0c0-17-1-31-4-42-2-11-6-20-9-26-4-6-8-11-13-13-5-3-10-4-16-4-5 0-10 1-15 4-5 3-9 7-13 13-4 6-7 15-9 26-2 11-3 25-3 42 0 17 1 31 3 42 2 11 5 20 9 26 4 6 8 11 13 13 5 3 10 4 15 4 5 0 11-1 16-4 5-3 9-7 13-13 4-6 7-15 9-26 2-11 4-25 4-42z"/>
			<path class="fil2" d="M904 6163c-4-5-9-8-14-10-5-2-10-3-16-3-6 0-11 1-15 3-5 2-8 5-12 10-3 4-6 10-8 17-2 7-3 15-3 25 0 10 1 18 2 24 1 7 4 12 6 16 3 4 6 7 10 9 4 2 8 3 13 3 8 0 15-2 20-5 5-3 11-8 15-14l0-75zm46-121l0 247-28 0c-6 0-10-3-11-8l-4-15c-3 4-7 7-11 10-4 3-8 6-12 8-4 2-9 4-14 5-5 1-11 2-17 2-9 0-18-2-25-6-8-4-14-10-20-17-6-7-10-17-13-27-3-11-5-23-5-37 0-13 2-25 5-36 3-11 8-20 15-28 6-8 14-14 23-19 9-5 19-7 30-7 9 0 17 1 24 4 6 3 12 7 17 11l0-88 46 0z"/>
			<path class="fil2" d="M1065 6116c13 0 25 2 35 6 11 4 20 10 27 17 8 8 13 17 17 28 4 11 6 23 6 37 0 14-2 26-6 37-4 11-10 20-17 28-8 8-17 13-27 18-11 4-22 6-35 6-13 0-25-2-35-6-11-4-20-10-27-18-8-8-13-17-17-28-4-11-6-23-6-37 0-14 2-26 6-37 4-11 10-20 17-28 8-8 17-13 27-17 11-4 22-6 35-6zm0 142c13 0 23-5 29-14 6-9 9-22 9-40 0-18-3-31-9-40-6-9-16-13-29-13-13 0-23 4-30 13-6 9-9 22-9 40 0 18 3 31 9 40 6 9 16 14 30 14z"/>
			<path class="fil2" d="M1303 6156c-1 2-3 3-4 4-1 1-3 1-6 1-2 0-4-1-6-2-2-1-4-3-7-4-3-1-6-3-9-4-4-1-8-2-14-2-7 0-13 1-18 4-5 2-9 6-13 11-3 5-6 10-7 17-2 7-2 14-2 22 0 17 4 31 11 40 7 9 17 14 29 14 4 0 8 0 11-1 3-1 6-2 8-3 2-1 4-2 6-4 2-1 3-3 5-4 1-1 3-2 4-3 1-1 3-1 5-1 4 0 6 1 8 4l13 17c-5 6-10 10-16 14-6 4-11 7-17 9-6 2-12 4-18 4-6 1-12 1-18 1-11 0-20-2-30-6-9-4-18-10-25-17-7-8-13-17-17-28-4-11-6-23-6-37 0-13 2-24 5-35 4-11 9-20 16-28 7-8 16-14 26-19 10-4 23-7 36-7 13 0 24 2 34 6 10 4 19 10 27 18l-12 16z"/>
			<path class="fil2" d="M1497 6289l-44 0c-3 0-6-1-8-2-2-2-4-4-5-6l-34-56c-1 4-2 7-4 10l-29 46c-1 2-3 4-5 6-2 2-4 3-7 3l-41 0 58-88-56-83 44 0c3 0 6 0 7 1 2 1 3 2 4 4l34 54c1-2 1-4 2-6 1-2 2-4 3-6l26-42c3-4 6-6 10-6l42 0-56 81 58 90z"/>
		</g>
		<g>
			<path class="fil0" d="M6555 1768c-1463 0-1111 2197-1111 2197l358 0c-18-126-186-1410 269-1667 0 0-53 1507-5 1667l946 0c46-159-4-1655-4-1655 433 255 273 1529 256 1655l352 0c0 0 402-2197-1060-2197z"/>
			<path class="fil0" d="M6522 4724c128-320 219 1913 230 2181 187-4 335-8 335-8 0 0-34-2739-79-2857l-937 0c0 0-130 2825-78 2857 19 12 166 15 347 14 7-234 56-1871 182-2186z"/>
			<g>
				<path class="fil1" d="M6555 256c-398 0-720 322-720 720 0 398 322 720 720 720 398 0 720-322 720-720 0-398-322-720-720-720z"/>
				<circle class="fil0" cx="6267" cy="1052" r="96"/>
				<circle class="fil0" cx="6843" cy="1052" r="96"/>
				<path class="fil0" d="M6555 1282c-37 0-70 17-92 46-6 8-5 21 4 27 8 6 21 5 27-4 15-20 37-31 62-31 25 0 47 11 62 31 6 8 18 10 27 4 9-6 10-18 4-27-22-29-56-47-92-47z"/>
				<path class="fil0" d="M7025 899l-365 0c-42 0-77 34-77 77l0 32c-9-2-18-3-29-3-11 0-20 1-29 3l0-32c0-42-34-77-77-77l-365 0c-42 0-77 34-77 77l0 154c0 42 34 77 77 77l365 0c42 0 77-34 77-77l0-82c7-3 17-5 29-5 12 0 21 2 29 5l0 82c0 42 34 77 77 77l365 0c42 0 77-34 77-77l0-154c0-42-34-77-77-77zm-538 230c0 21-17 38-38 38l-365 0c-21 0-38-17-38-38l0-154c0-21 17-38 38-38l365 0c21 0 38 17 38 38l0 49 0 46 0 58zm576 0c0 21-17 38-38 38l-365 0c-21 0-38-17-38-38l0-58 0-47 0-49c0-21 17-38 38-38l365 0c21 0 38 17 38 38l0 154z"/>
				<path class="fil0" d="M6555 256c-398 0-720 322-720 720 0 398 322 720 720 720 398 0 720-322 720-720 0-398-322-720-720-720zm0 1382c-365 0-662-297-662-662 0-33 2-65 7-97 332 1 781-64 944-229 0 32 79 227 366 227 5 32 8 65 8 99 0 365-297 662-662 662z"/>
			</g>
			<path class="fil2" d="M6719 2275l-75 241-45 0-49-157c-1-2-2-5-2-7-1-3-1-5-2-8-1 3-1 6-2 8-1 3-2 5-2 7l-50 157-45 0-74-241 42 0c4 0 8 1 11 3 3 2 5 5 6 8l37 136c1 4 2 8 3 12 1 4 2 9 3 14 1-5 2-10 3-14 1-4 2-8 4-12l43-136c1-3 3-5 6-8 3-2 6-3 11-3l15 0c4 0 8 1 11 3 3 2 5 5 6 8l43 136c1 4 3 7 4 12 1 4 2 9 3 13 1-5 2-9 3-13 1-4 2-8 3-12l37-136c1-3 3-5 6-8 3-2 7-3 11-3l39 0z"/>
			<path class="fil2" d="M6322 2872c5 0 9 1 12 4 3 3 4 6 4 11l0 27-167 0 0-15c0-3 1-6 2-9 1-3 3-6 6-9l71-72c6-6 11-12 16-18 5-6 9-11 12-16 3-5 5-11 7-16 2-6 2-11 2-17 0-11-3-19-8-24-6-6-13-8-23-8-4 0-8 1-12 2-4 1-7 3-10 5-3 2-5 5-8 8-2 3-4 6-5 10-2 6-5 9-8 11-3 2-8 2-14 1l-24-4c2-12 5-22 10-31 5-9 11-16 18-22 7-6 16-10 25-13 9-3 20-4 30-4 11 0 22 2 31 5 9 3 17 8 24 14 7 6 12 13 15 22 4 9 5 18 5 28 0 9-1 17-4 25-3 8-6 15-10 21-4 7-9 13-15 20-6 6-12 13-18 19l-51 52c6-2 11-3 17-4 6-1 11-1 16-1l54 0z"/>
			<path class="fil2" d="M6538 2793c0 21-2 39-7 55-5 15-11 28-19 38-8 10-17 18-28 23-11 5-23 7-35 7-13 0-24-2-35-7-11-5-20-12-28-23-8-10-14-23-18-38-4-15-7-34-7-55 0-21 2-39 7-55 4-15 11-28 18-38 8-10 17-18 28-23 11-5 23-7 35-7 13 0 24 2 35 7 11 5 20 12 28 23 8 10 14 23 19 38 5 15 7 34 7 55zm-47 0c0-17-1-31-4-42-2-11-6-20-9-26-4-6-8-11-13-13-5-3-10-4-16-4-5 0-10 1-15 4-5 3-9 7-13 13-4 6-7 15-9 26-2 11-3 25-3 42 0 17 1 31 3 42 2 11 5 20 9 26 4 6 8 11 13 13 5 3 10 4 15 4 5 0 11-1 16-4 5-3 9-7 13-13 4-6 7-15 9-26 2-11 4-25 4-42z"/>
			<path class="fil2" d="M6718 2880l0 34-135 0 0-34 48 0 0-132c0-3 0-6 0-9 0-3 0-6 0-9l-32 26c-2 2-4 3-6 3-2 0-4 0-6 0-2 0-4-1-5-2-1-1-3-2-3-3l-14-19 74-63 38 0 0 207 42 0z"/>
			<path class="fil2" d="M6827 2760l-7 9c4-2 9-3 14-4 5-1 10-1 16-1 9 0 18 1 26 4 9 3 16 7 23 13 7 6 12 13 16 22 4 9 6 20 6 32 0 11-2 22-6 32-4 10-10 19-18 26-8 7-17 13-27 18-11 4-22 6-35 6-13 0-25-2-35-6-10-4-19-10-27-17-7-8-13-17-17-27-4-10-6-22-6-35 0-12 2-23 7-35 5-12 12-24 21-37l56-75c2-3 5-5 10-7 4-2 9-3 15-3l41 0-71 86zm6 120c6 0 12-1 17-3 5-2 9-5 13-9 4-4 7-8 9-13 2-5 3-11 3-16 0-7-1-12-3-18-2-5-5-10-8-13-4-4-8-6-13-8-5-2-11-3-17-3-6 0-11 1-16 3-5 2-9 5-12 9-3 4-6 8-8 13-2 5-3 11-3 17 0 6 1 12 2 17 2 5 4 10 7 13 3 4 7 6 12 8 5 2 11 3 17 3z"/>
			<path class="fil2" d="M6310 3185c-4-5-9-8-14-10-5-2-10-3-16-3-6 0-11 1-15 3-5 2-8 5-12 10-3 4-6 10-8 17-2 7-3 15-3 25 0 10 1 18 2 24 1 7 4 12 6 16 3 4 6 7 10 9 4 2 8 3 13 3 8 0 15-2 20-5 5-3 11-8 15-14l0-75zm46-121l0 247-28 0c-6 0-10-3-11-8l-4-15c-3 4-7 7-11 10-4 3-8 6-12 8-4 2-9 4-14 5-5 1-11 2-17 2-9 0-18-2-25-6-8-4-14-10-20-17-6-7-10-17-13-27-3-11-5-23-5-37 0-13 2-25 5-36 3-11 8-20 15-28 6-8 14-14 23-19 9-5 19-7 30-7 9 0 17 1 24 4 6 3 12 7 17 11l0-88 46 0z"/>
			<path class="fil2" d="M6471 3138c13 0 25 2 35 6 11 4 20 10 27 17 8 8 13 17 17 28 4 11 6 23 6 37 0 14-2 26-6 37-4 11-10 20-17 28-8 8-17 13-27 18-11 4-22 6-35 6-13 0-25-2-35-6-11-4-20-10-27-18-8-8-13-17-17-28-4-11-6-23-6-37 0-14 2-26 6-37 4-11 10-20 17-28 8-8 17-13 27-17 11-4 22-6 35-6zm0 142c13 0 23-5 29-14 6-9 9-22 9-40 0-18-3-31-9-40-6-9-16-13-29-13-13 0-23 4-30 13-6 9-9 22-9 40 0 18 3 31 9 40 6 9 16 14 30 14z"/>
			<path class="fil2" d="M6710 3179c-1 2-3 3-4 4-1 1-3 1-6 1-2 0-4-1-6-2-2-1-4-3-7-4-3-1-6-3-9-4-4-1-8-2-14-2-7 0-13 1-18 4-5 2-9 6-13 11-3 5-6 10-7 17-2 7-2 14-2 22 0 17 4 31 11 40 7 9 17 14 29 14 4 0 8 0 11-1 3-1 6-2 8-3 2-1 4-2 6-4 2-1 3-3 5-4 1-1 3-2 4-3 1-1 3-1 5-1 4 0 6 1 8 4l13 17c-5 6-10 10-16 14-6 4-11 7-17 9-6 2-12 4-18 4-6 1-12 1-18 1-11 0-20-2-30-6-9-4-18-10-25-17-7-8-13-17-17-28-4-11-6-23-6-37 0-13 2-24 5-35 4-11 9-20 16-28 7-8 16-14 26-19 10-4 23-7 36-7 13 0 24 2 34 6 10 4 19 10 27 18l-12 16z"/>
			<path class="fil2" d="M6904 3312l-44 0c-3 0-6-1-8-2-2-2-4-4-5-6l-34-56c-1 4-2 7-4 10l-29 46c-1 2-3 4-5 6-2 2-4 3-7 3l-41 0 58-88-56-83 44 0c3 0 6 0 7 1 2 1 3 2 4 4l34 54c1-2 1-4 2-6 1-2 2-4 3-6l26-42c3-4 6-6 10-6l42 0-56 81 58 90z"/>
		</g>
		<g>
			<path class="fil0" d="M11988 4875c-1463 0-1111 2197-1111 2197l358 0c-18-126-186-1410 269-1667 0 0-53 1507-5 1667l946 0c46-159-4-1655-4-1655 433 255 273 1529 256 1655l352 0c0 0 402-2197-1060-2197z"/>
			<path class="fil0" d="M11956 7831c128-320 219 1913 230 2181 187-4 335-8 335-8 0 0-34-2739-79-2857l-937 0c0 0-130 2825-78 2857 19 12 166 15 347 14 7-234 56-1871 182-2186z"/>
			<g>
				<path class="fil1" d="M11988 3363c-398 0-720 322-720 720 0 398 322 720 720 720 398 0 720-322 720-720 0-398-322-720-720-720z"/>
				<circle class="fil0" cx="11701" cy="4159" r="96"/>
				<circle class="fil0" cx="12276" cy="4159" r="96"/>
				<path class="fil0" d="M11988 4389c-37 0-70 17-92 46-6 8-5 21 4 27 8 6 21 5 27-4 15-20 37-31 62-31 25 0 47 11 62 31 6 8 18 10 27 4 9-6 10-18 4-27-22-29-56-47-92-47z"/>
				<path class="fil0" d="M12459 4006l-365 0c-42 0-77 34-77 77l0 32c-9-2-18-3-29-3-11 0-20 1-29 3l0-32c0-42-34-77-77-77l-365 0c-42 0-77 34-77 77l0 154c0 42 34 77 77 77l365 0c42 0 77-34 77-77l0-82c7-3 17-5 29-5 12 0 21 2 29 5l0 82c0 42 34 77 77 77l365 0c42 0 77-34 77-77l0-154c0-42-34-77-77-77zm-538 230c0 21-17 38-38 38l-365 0c-21 0-38-17-38-38l0-154c0-21 17-38 38-38l365 0c21 0 38 17 38 38l0 49 0 46 0 58zm576 0c0 21-17 38-38 38l-365 0c-21 0-38-17-38-38l0-58 0-47 0-49c0-21 17-38 38-38l365 0c21 0 38 17 38 38l0 154z"/>
				<path class="fil0" d="M11988 3363c-398 0-720 322-720 720 0 398 322 720 720 720 398 0 720-322 720-720 0-398-322-720-720-720zm0 1382c-365 0-662-297-662-662 0-33 2-65 7-97 332 1 781-64 944-229 0 32 79 227 366 227 5 32 8 65 8 99 0 365-297 662-662 662z"/>
			</g>
			<path class="fil2" d="M12152 5382l-75 241-45 0-49-157c-1-2-2-5-2-7-1-3-1-5-2-8-1 3-1 6-2 8-1 3-2 5-2 7l-50 157-45 0-74-241 42 0c4 0 8 1 11 3 3 2 5 5 6 8l37 136c1 4 2 8 3 12 1 4 2 9 3 14 1-5 2-10 3-14 1-4 2-8 4-12l43-136c1-3 3-5 6-8 3-2 6-3 11-3l15 0c4 0 8 1 11 3 3 2 5 5 6 8l43 136c1 4 3 7 4 12 1 4 2 9 3 13 1-5 2-9 3-13 1-4 2-8 3-12l37-136c1-3 3-5 6-8 3-2 7-3 11-3l39 0z"/>
			<path class="fil2" d="M11756 5979c5 0 9 1 12 4 3 3 4 6 4 11l0 27-167 0 0-15c0-3 1-6 2-9 1-3 3-6 6-9l71-72c6-6 11-12 16-18 5-6 9-11 12-16 3-5 5-11 7-16 2-6 2-11 2-17 0-11-3-19-8-24-6-6-13-8-23-8-4 0-8 1-12 2-4 1-7 3-10 5-3 2-5 5-8 8-2 3-4 6-5 10-2 6-5 9-8 11-3 2-8 2-14 1l-24-4c2-12 5-22 10-31 5-9 11-16 18-22 7-6 16-10 25-13 9-3 20-4 30-4 11 0 22 2 31 5 9 3 17 8 24 14 7 6 12 13 15 22 4 9 5 18 5 28 0 9-1 17-4 25-3 8-6 15-10 21-4 7-9 13-15 20-6 6-12 13-18 19l-51 52c6-2 11-3 17-4 6-1 11-1 16-1l54 0z"/>
			<path class="fil2" d="M11971 5901c0 21-2 39-7 55-5 15-11 28-19 38-8 10-17 18-28 23-11 5-23 7-35 7-13 0-24-2-35-7-11-5-20-12-28-23-8-10-14-23-18-38-4-15-7-34-7-55 0-21 2-39 7-55 4-15 11-28 18-38 8-10 17-18 28-23 11-5 23-7 35-7 13 0 24 2 35 7 11 5 20 12 28 23 8 10 14 23 19 38 5 15 7 34 7 55zm-47 0c0-17-1-31-4-42-2-11-6-20-9-26-4-6-8-11-13-13-5-3-10-4-16-4-5 0-10 1-15 4-5 3-9 7-13 13-4 6-7 15-9 26-2 11-3 25-3 42 0 17 1 31 3 42 2 11 5 20 9 26 4 6 8 11 13 13 5 3 10 4 15 4 5 0 11-1 16-4 5-3 9-7 13-13 4-6 7-15 9-26 2-11 4-25 4-42z"/>
			<path class="fil2" d="M12164 5901c0 21-2 39-7 55-5 15-11 28-19 38-8 10-17 18-28 23-11 5-23 7-35 7-13 0-24-2-35-7-11-5-20-12-28-23-8-10-14-23-18-38-4-15-7-34-7-55 0-21 2-39 7-55 4-15 11-28 18-38 8-10 17-18 28-23 11-5 23-7 35-7 13 0 24 2 35 7 11 5 20 12 28 23 8 10 14 23 19 38 5 15 7 34 7 55zm-47 0c0-17-1-31-4-42-2-11-6-20-9-26-4-6-8-11-13-13-5-3-10-4-16-4-5 0-10 1-15 4-5 3-9 7-13 13-4 6-7 15-9 26-2 11-3 25-3 42 0 17 1 31 3 42 2 11 5 20 9 26 4 6 8 11 13 13 5 3 10 4 15 4 5 0 11-1 16-4 5-3 9-7 13-13 4-6 7-15 9-26 2-11 4-25 4-42z"/>
			<path class="fil2" d="M12356 5901c0 21-2 39-7 55-5 15-11 28-19 38-8 10-17 18-28 23-11 5-23 7-35 7-13 0-24-2-35-7-11-5-20-12-28-23-8-10-14-23-18-38-4-15-7-34-7-55 0-21 2-39 7-55 4-15 11-28 18-38 8-10 17-18 28-23 11-5 23-7 35-7 13 0 24 2 35 7 11 5 20 12 28 23 8 10 14 23 19 38 5 15 7 34 7 55zm-47 0c0-17-1-31-4-42-2-11-6-20-9-26-4-6-8-11-13-13-5-3-10-4-16-4-5 0-10 1-15 4-5 3-9 7-13 13-4 6-7 15-9 26-2 11-3 25-3 42 0 17 1 31 3 42 2 11 5 20 9 26 4 6 8 11 13 13 5 3 10 4 15 4 5 0 11-1 16-4 5-3 9-7 13-13 4-6 7-15 9-26 2-11 4-25 4-42z"/>
			<path class="fil2" d="M11833 6293c-4-5-9-8-14-10-5-2-10-3-16-3-6 0-11 1-15 3-5 2-8 5-12 10-3 4-6 10-8 17-2 7-3 15-3 25 0 10 1 18 2 24 1 7 4 12 6 16 3 4 6 7 10 9 4 2 8 3 13 3 8 0 15-2 20-5 5-3 11-8 15-14l0-75zm46-121l0 247-28 0c-6 0-10-3-11-8l-4-15c-3 4-7 7-11 10-4 3-8 6-12 8-4 2-9 4-14 5-5 1-11 2-17 2-9 0-18-2-25-6-8-4-14-10-20-17-6-7-10-17-13-27-3-11-5-23-5-37 0-13 2-25 5-36 3-11 8-20 15-28 6-8 14-14 23-19 9-5 19-7 30-7 9 0 17 1 24 4 6 3 12 7 17 11l0-88 46 0z"/>
			<path class="fil2" d="M11994 6245c13 0 25 2 35 6 11 4 20 10 27 17 8 8 13 17 17 28 4 11 6 23 6 37 0 14-2 26-6 37-4 11-10 20-17 28-8 8-17 13-27 18-11 4-22 6-35 6-13 0-25-2-35-6-11-4-20-10-27-18-8-8-13-17-17-28-4-11-6-23-6-37 0-14 2-26 6-37 4-11 10-20 17-28 8-8 17-13 27-17 11-4 22-6 35-6zm0 142c13 0 23-5 29-14 6-9 9-22 9-40 0-18-3-31-9-40-6-9-16-13-29-13-13 0-23 4-30 13-6 9-9 22-9 40 0 18 3 31 9 40 6 9 16 14 30 14z"/>
			<path class="fil2" d="M12232 6286c-1 2-3 3-4 4-1 1-3 1-6 1-2 0-4-1-6-2-2-1-4-3-7-4-3-1-6-3-9-4-4-1-8-2-14-2-7 0-13 1-18 4-5 2-9 6-13 11-3 5-6 10-7 17-2 7-2 14-2 22 0 17 4 31 11 40 7 9 17 14 29 14 4 0 8 0 11-1 3-1 6-2 8-3 2-1 4-2 6-4 2-1 3-3 5-4 1-1 3-2 4-3 1-1 3-1 5-1 4 0 6 1 8 4l13 17c-5 6-10 10-16 14-6 4-11 7-17 9-6 2-12 4-18 4-6 1-12 1-18 1-11 0-20-2-30-6-9-4-18-10-25-17-7-8-13-17-17-28-4-11-6-23-6-37 0-13 2-24 5-35 4-11 9-20 16-28 7-8 16-14 26-19 10-4 23-7 36-7 13 0 24 2 34 6 10 4 19 10 27 18l-12 16z"/>
		</g>
		<g>
			<path class="fil0" d="M6070 13074l-29 344c0 0-53 1507-5 1667l946 0c46-159-4-1655-4-1655l-21-345-887-11z"/>
			<path class="fil0" d="M6493 15843c128-320 219 1913 230 2181 187-4 335-8 335-8 0 0-34-2739-79-2857l-937 0c0 0-130 2825-78 2857 19 12 166 15 347 14 7-234 56-1871 182-2186z"/>
			<g>
				<path class="fil1" d="M6525 11375c-398 0-720 322-720 720 0 398 322 720 720 720 398 0 720-322 720-720 0-398-322-720-720-720z"/>
				<circle class="fil0" cx="6237" cy="12172" r="96"/>
				<circle class="fil0" cx="6813" cy="12172" r="96"/>
				<path class="fil0" d="M6525 12402c-37 0-70 17-92 46-6 8-5 21 4 27 8 6 21 5 27-4 15-20 37-31 62-31 25 0 47 11 62 31 6 8 18 10 27 4 9-6 10-18 4-27-22-29-56-47-92-47z"/>
				<path class="fil0" d="M6996 12018l-365 0c-42 0-77 34-77 77l0 32c-9-2-18-3-29-3-11 0-20 1-29 3l0-32c0-42-34-77-77-77l-365 0c-42 0-77 34-77 77l0 154c0 42 34 77 77 77l365 0c42 0 77-34 77-77l0-82c7-3 17-5 29-5 12 0 21 2 29 5l0 82c0 42 34 77 77 77l365 0c42 0 77-34 77-77l0-154c0-42-34-77-77-77zm-538 230c0 21-17 38-38 38l-365 0c-21 0-38-17-38-38l0-154c0-21 17-38 38-38l365 0c21 0 38 17 38 38l0 49 0 46 0 58zm576 0c0 21-17 38-38 38l-365 0c-21 0-38-17-38-38l0-58 0-47 0-49c0-21 17-38 38-38l365 0c21 0 38 17 38 38l0 154z"/>
				<path class="fil0" d="M6525 11375c-398 0-720 322-720 720 0 398 322 720 720 720 398 0 720-322 720-720 0-398-322-720-720-720zm0 1382c-365 0-662-297-662-662 0-33 2-65 7-97 332 1 781-64 944-229 0 32 79 227 366 227 5 32 8 65 8 99 0 365-297 662-662 662z"/>
			</g>
			<path class="fil2" d="M6689 13395l-75 241-45 0-49-157c-1-2-2-5-2-7-1-3-1-5-2-8-1 3-1 6-2 8-1 3-2 5-2 7l-50 157-45 0-74-241 42 0c4 0 8 1 11 3 3 2 5 5 6 8l37 136c1 4 2 8 3 12 1 4 2 9 3 14 1-5 2-10 3-14 1-4 2-8 4-12l43-136c1-3 3-5 6-8 3-2 6-3 11-3l15 0c4 0 8 1 11 3 3 2 5 5 6 8l43 136c1 4 3 7 4 12 1 4 2 9 3 13 1-5 2-9 3-13 1-4 2-8 3-12l37-136c1-3 3-5 6-8 3-2 7-3 11-3l39 0z"/>
			<path class="fil2" d="M6293 13992c5 0 9 1 12 4 3 3 4 6 4 11l0 27-167 0 0-15c0-3 1-6 2-9 1-3 3-6 6-9l71-72c6-6 11-12 16-18 5-6 9-11 12-16 3-5 5-11 7-16 2-6 2-11 2-17 0-11-3-19-8-24-6-6-13-8-23-8-4 0-8 1-12 2-4 1-7 3-10 5-3 2-5 5-8 8-2 3-4 6-5 10-2 6-5 9-8 11-3 2-8 2-14 1l-24-4c2-12 5-22 10-31 5-9 11-16 18-22 7-6 16-10 25-13 9-3 20-4 30-4 11 0 22 2 31 5 9 3 17 8 24 14 7 6 12 13 15 22 4 9 5 18 5 28 0 9-1 17-4 25-3 8-6 15-10 21-4 7-9 13-15 20-6 6-12 13-18 19l-51 52c6-2 11-3 17-4 6-1 11-1 16-1l54 0z"/>
			<path class="fil2" d="M6508 13913c0 21-2 39-7 55-5 15-11 28-19 38-8 10-17 18-28 23-11 5-23 7-35 7-13 0-24-2-35-7-11-5-20-12-28-23-8-10-14-23-18-38-4-15-7-34-7-55 0-21 2-39 7-55 4-15 11-28 18-38 8-10 17-18 28-23 11-5 23-7 35-7 13 0 24 2 35 7 11 5 20 12 28 23 8 10 14 23 19 38 5 15 7 34 7 55zm-47 0c0-17-1-31-4-42-2-11-6-20-9-26-4-6-8-11-13-13-5-3-10-4-16-4-5 0-10 1-15 4-5 3-9 7-13 13-4 6-7 15-9 26-2 11-3 25-3 42 0 17 1 31 3 42 2 11 5 20 9 26 4 6 8 11 13 13 5 3 10 4 15 4 5 0 11-1 16-4 5-3 9-7 13-13 4-6 7-15 9-26 2-11 4-25 4-42z"/>
			<path class="fil2" d="M6701 13913c0 21-2 39-7 55-5 15-11 28-19 38-8 10-17 18-28 23-11 5-23 7-35 7-13 0-24-2-35-7-11-5-20-12-28-23-8-10-14-23-18-38-4-15-7-34-7-55 0-21 2-39 7-55 4-15 11-28 18-38 8-10 17-18 28-23 11-5 23-7 35-7 13 0 24 2 35 7 11 5 20 12 28 23 8 10 14 23 19 38 5 15 7 34 7 55zm-47 0c0-17-1-31-4-42-2-11-6-20-9-26-4-6-8-11-13-13-5-3-10-4-16-4-5 0-10 1-15 4-5 3-9 7-13 13-4 6-7 15-9 26-2 11-3 25-3 42 0 17 1 31 3 42 2 11 5 20 9 26 4 6 8 11 13 13 5 3 10 4 15 4 5 0 11-1 16-4 5-3 9-7 13-13 4-6 7-15 9-26 2-11 4-25 4-42z"/>
			<path class="fil2" d="M6724 13861c2-12 5-22 10-31 5-9 11-16 18-22 7-6 16-10 25-13 9-3 19-4 30-4 12 0 22 2 31 5 9 3 17 8 23 13 6 6 11 12 15 20 3 8 5 16 5 24 0 8-1 14-2 20-2 6-4 11-7 15-3 4-7 8-12 11-5 3-10 5-16 7 28 9 41 27 41 55 0 12-2 23-7 32-5 9-11 17-18 23-8 6-16 11-27 14-10 3-21 5-32 5-12 0-22-1-31-4-9-3-17-7-24-12-7-5-13-12-18-20-5-8-9-17-13-28l20-8c5-2 10-3 15-2 5 1 8 3 10 7 2 4 5 8 7 12 2 4 5 7 8 9 3 3 7 5 11 6 4 1 8 2 14 2 6 0 12-1 17-3 5-2 9-5 12-8 3-3 6-7 7-11 2-4 2-8 2-13 0-6 0-11-1-15-1-4-3-8-7-11-4-3-9-6-16-7-7-2-17-3-29-3l0-32c10 0 18-1 25-2 6-2 11-4 15-7 4-3 6-7 8-11 1-4 2-9 2-14 0-11-3-19-8-24-5-6-13-8-23-8-4 0-8 1-12 2-4 1-7 3-10 5-3 2-5 5-8 8-2 3-4 6-5 10-2 6-5 9-8 11-3 2-8 2-14 1l-24-4z"/>
			<path class="fil2" d="M6369 14305c-4-5-9-8-14-10-5-2-10-3-16-3-6 0-11 1-15 3-5 2-8 5-12 10-3 4-6 10-8 17-2 7-3 15-3 25 0 10 1 18 2 24 1 7 4 12 6 16 3 4 6 7 10 9 4 2 8 3 13 3 8 0 15-2 20-5 5-3 11-8 15-14l0-75zm46-121l0 247-28 0c-6 0-10-3-11-8l-4-15c-3 4-7 7-11 10-4 3-8 6-12 8-4 2-9 4-14 5-5 1-11 2-17 2-9 0-18-2-25-6-8-4-14-10-20-17-6-7-10-17-13-27-3-11-5-23-5-37 0-13 2-25 5-36 3-11 8-20 15-28 6-8 14-14 23-19 9-5 19-7 30-7 9 0 17 1 24 4 6 3 12 7 17 11l0-88 46 0z"/>
			<path class="fil2" d="M6530 14258c13 0 25 2 35 6 11 4 20 10 27 17 8 8 13 17 17 28 4 11 6 23 6 37 0 14-2 26-6 37-4 11-10 20-17 28-8 8-17 13-27 18-11 4-22 6-35 6-13 0-25-2-35-6-11-4-20-10-27-18-8-8-13-17-17-28-4-11-6-23-6-37 0-14 2-26 6-37 4-11 10-20 17-28 8-8 17-13 27-17 11-4 22-6 35-6zm0 142c13 0 23-5 29-14 6-9 9-22 9-40 0-18-3-31-9-40-6-9-16-13-29-13-13 0-23 4-30 13-6 9-9 22-9 40 0 18 3 31 9 40 6 9 16 14 30 14z"/>
			<path class="fil2" d="M6769 14299c-1 2-3 3-4 4-1 1-3 1-6 1-2 0-4-1-6-2-2-1-4-3-7-4-3-1-6-3-9-4-4-1-8-2-14-2-7 0-13 1-18 4-5 2-9 6-13 11-3 5-6 10-7 17-2 7-2 14-2 22 0 17 4 31 11 40 7 9 17 14 29 14 4 0 8 0 11-1 3-1 6-2 8-3 2-1 4-2 6-4 2-1 3-3 5-4 1-1 3-2 4-3 1-1 3-1 5-1 4 0 6 1 8 4l13 17c-5 6-10 10-16 14-6 4-11 7-17 9-6 2-12 4-18 4-6 1-12 1-18 1-11 0-20-2-30-6-9-4-18-10-25-17-7-8-13-17-17-28-4-11-6-23-6-37 0-13 2-24 5-35 4-11 9-20 16-28 7-8 16-14 26-19 10-4 23-7 36-7 13 0 24 2 34 6 10 4 19 10 27 18l-12 16z"/>
			<path class="fil0" d="M6555 13327c-1463 0-1351-2197-1351-2197l358 0c-18 126 54 1410 509 1667 145 97 287 152 488 150 198-2 317-76 449-162 433-255 513-1529 496-1655l352 0c0 0 162 2197-1300 2197z"/>
		</g>
		<g>
			<path class="fil1" d="M6886 8909l272 0c122 0 220 99 220 220l0 1405c0 122-98 220-220 220l-1175 0c-122 0-220-98-220-220l0-1405c0-45 14-86 37-121l6-8 6-8-125-145 644-555 531 617 12 0 12 0z"/>
			<path class="fil0" d="M7157 8909l-272 0-12 0-12 0-531-617-644 555 125 145c-2 3-4 5-6 8-2 3-4 5-6 8-23 35-37 76-37 121l0 1405c0 122 99 220 220 220l1175 0c122 0 220-98 220-220l0-1405c0-121-98-220-220-220zm29 444c-81-19-229-55-376-90-110-26-220-52-303-72-41-10-76-18-100-23-11-3-20-5-27-6-4-79-20-537-28-778l834 969zm-1021 66l-12 0-105 0c-63 0-114-51-114-114 0-36 17-68 44-89 2-2 5-4 8-6 3-2 6-3 8-5l184 213-12 0 0 0zm1022-16c-17 10-37 16-58 16l-882 0-12 0-489-568 572-493c2 68 8 229 14 391 4 106 8 213 11 293 5 139 5 139 10 144 3 3 7 5 11 6 28 5 581 137 839 199-5 4-10 8-16 11zm54-80c-1 4-2 8-3 11-1 4-2 7-3 11l-132-153 12 0 12 0 1 0c63 0 114 51 114 114 0 6 0 12-1 17z"/>
			<polygon class="fil2" points="6137 9930 6074 9930 6074 9768 6030 9873 5987 9873 5943 9768 5943 9930 5884 9930 5884 9688 5956 9688 6010 9809 6064 9688 6137 9688 "/>
			<path class="fil2" d="M6305 9882l0-38c-8 1-16 2-25 3-9 1-16 2-21 4-6 2-10 5-13 8-3 4-5 8-5 14 0 4 0 7 1 9 1 2 2 5 5 7 2 2 5 4 9 5 3 1 9 2 16 2 6 0 12-1 18-4 6-2 11-6 16-9zm0 28c-3 2-7 5-12 9-5 3-9 6-13 8-6 3-12 5-18 6-6 1-13 2-20 2-17 0-32-5-43-16-12-11-17-24-17-41 0-13 3-24 9-33 6-8 14-15 25-20 11-5 24-8 40-10 16-2 32-4 50-5l0-1c0-10-4-17-12-21-8-4-20-6-36-6-10 0-20 2-31 5-11 3-19 6-23 8l-5 0 0-44c6-2 16-4 30-6 14-2 28-3 42-3 33 0 57 5 72 15 15 10 22 26 22 48l0 124-58 0 0-19z"/>
			<path class="fil2" d="M6475 9930l-58 0 0-182 58 0 0 182zm2-208l-62 0 0-44 62 0 0 44z"/>
			<polygon class="fil2" points="6589 9930 6530 9930 6530 9678 6589 9678 "/>
			<path class="fil2" d="M6853 9856c0 12-2 22-7 31-5 9-11 17-19 23-10 7-20 12-31 15-11 3-26 5-43 5l-105 0 0-241 94 0c19 0 34 1 43 2 9 1 18 4 27 9 9 5 16 11 20 19 4 8 7 17 7 27 0 12-3 22-9 31-6 9-15 16-26 21l0 1c16 3 28 10 37 19 9 10 14 23 14 39zm-80-99c0-4-1-8-3-12-2-4-5-7-11-9-5-2-10-3-17-3-7 0-16 0-28 0l-6 0 0 51 10 0c10 0 18 0 25 0 7 0 12-1 16-3 6-2 9-6 11-10 2-4 3-9 3-14zm15 98c0-8-1-14-4-18-3-4-8-7-15-9-5-1-11-2-20-2-8 0-17 0-26 0l-14 0 0 60 4 0c17 0 30 0 37 0 7 0 14-1 21-4 6-3 11-6 13-11 2-5 4-10 4-16z"/>
			<path class="fil2" d="M7083 9839c0 30-9 53-26 71-17 17-42 26-74 26-32 0-56-9-74-26-17-17-26-41-26-71 0-30 9-54 26-71 18-17 42-26 73-26 32 0 56 9 74 26 17 17 26 41 26 71zm-72 44c4-5 7-10 9-17 2-7 3-16 3-27 0-11-1-20-3-27-2-7-5-13-8-17-3-4-8-8-13-9-5-2-10-3-16-3-6 0-11 1-15 2-4 1-9 4-13 9-4 4-6 10-9 17-2 7-3 17-3 28 0 10 1 18 3 26 2 7 5 13 8 17 3 4 8 7 12 9 5 2 10 3 16 3 5 0 10-1 15-3 5-2 9-5 12-9z"/>
			<polygon class="fil2" points="7314 9930 7246 9930 7207 9875 7167 9930 7101 9930 7173 9839 7102 9748 7170 9748 7209 9801 7247 9748 7314 9748 7243 9837 "/>
			<path class="fil2" d="M6725 10179c17 17 31 38 41 62 10 24 15 51 15 81 0 22-3 44-9 66-6 22-14 41-23 56l-117 0-4-18c-9 6-17 10-26 14-8 3-20 5-35 5-25 0-46-10-61-31-16-21-23-49-23-84 0-19 3-35 8-50 5-14 12-26 21-37 9-10 19-18 31-23 12-6 24-8 36-8 10 0 19 2 27 6 8 4 14 8 18 12l0-14 54 0 0 189 39 0c6-12 10-26 12-40 3-14 4-28 4-41 0-26-4-49-11-69-7-20-17-36-30-49-13-13-28-23-46-30-18-6-37-10-57-10-20 0-38 4-56 12-18 8-33 18-47 31-14 14-25 30-33 51-9 20-13 42-13 67 0 26 4 50 12 70 8 20 19 37 32 51 13 13 29 23 47 30 18 7 36 10 56 10 13 0 28-1 45-4 17-2 32-5 44-9l0 45c-14 3-29 6-43 7-14 2-30 3-47 3-28 0-54-5-78-15-24-10-45-24-62-41-17-18-31-39-41-64-10-25-15-53-15-82 0-29 5-55 15-80 10-24 24-46 42-64 17-18 38-32 63-42 24-10 50-15 77-15 27 0 52 5 76 14 24 10 44 23 61 40zm-103 203l0-117c-6-3-12-6-18-7-5-1-11-2-18-2-15 0-26 6-34 20-8 13-12 31-12 53 0 24 3 43 10 54 7 12 18 18 33 18 8 0 15-2 21-5 6-3 12-8 18-14z"/>
		</g>
		<g>
			<path class="fil3" d="M5211 8709l-18 70-127-36-124-40-120-45-117-48-113-52-110-55-107-58-104-60-101-62-98-64-95-65-93-66-90-67-87-68-85-68-83-68-80-67-78-66-76-65-74-63-72-62-70-59-69-57-67-54-65-51-64-47-62-43-61-39-60-35-58-30-57-25-56-20 21-69 61 21 61 27 62 32 63 37 63 41 64 45 65 48 67 52 68 55 69 57 71 60 72 62 74 63 76 65 78 66 80 67 82 67 84 67 87 67 89 66 91 66 94 64 97 63 99 61 102 59 105 57 108 54 111 51 114 47 118 44 121 40 125 35zm56 83l-23-68-15 58-228-250 53-49 228 250-15 58zm0 0l15-58 37 41-53 17zm-333 72l-11-34 321-107 23 68-321 107-11-34z"/>
		</g>
		<g>
			<path class="fil3" d="M7893 8908l-18-70 125-35 121-40 118-44 114-47 111-51 108-54 105-57 102-59 99-61 97-63 94-64 91-66 89-66 87-67 84-67 82-67 80-67 78-66 76-65 74-63 72-62 71-60 69-57 68-55 67-52 65-48 64-45 63-41 63-37 62-32 61-27 61-21 21 69-56 20-57 25-58 30-60 35-61 39-62 43-64 47-65 51-67 54-69 57-70 59-72 62-74 63-76 65-78 66-80 67-83 68-85 68-87 68-90 67-93 66-95 65-98 64-101 62-104 60-107 58-110 55-113 52-117 48-120 45-124 40-127 36zm-90-45l53 49-15-58 321 106-23 68-321-106-15-58zm0 0l15 58-53-17 37-41zm255-226l27 24-228 250-53-49 228-250 27 24z"/>
		</g>
		<g>
			<path class="fil3" d="M6500 8086l0-918 72 0 0 918-72 0zm6 75l60-39-60 0 184-284 60 39-184 284-60 0zm0 0l60 0-30 47-30-47zm-154-304l30-20 184 284-60 39-184-284 30-20z"/>
		</g>
		<g>
			<path class="fil3" d="M6500 11179l0-347 72 0 0 347-72 0zm6 75l60-39-60 0 184-284 60 39-184 284-60 0zm0 0l60 0-30 47-30-47zm-154-304l30-20 184 284-60 39-184-284 30-20z"/>
		</g>
		<g>
			<path class="fil3" d="M6495 19233l0-918 72 0 0 918-72 0zm6 75l60-39-60 0 184-284 60 39-184 284-60 0zm0 0l60 0-30 47-30-47zm-154-304l30-20 184 284-60 39-184-284 30-20z"/>
		</g>
		<g>
			<path class="fil1 str0" d="M5973 20329l547-477 547 477c20 17 48 22 48 48l0 551c0 26-22 48-48 48l-1095 0c-26 0-48-22-48-48l0-551c0-26 29-31 48-48z"/>
			<g>
				<polygon class="fil1" points="6979 20275 7065 20759 6974 20775 6974 20845 6902 20845 6894 20900 6543 20852 6195 20915 6182 20846 6089 20846 6089 20791 6018 20782 6084 20294 5997 19810 6089 19793 6089 19723 6160 19723 6168 19669 6519 19716 6868 19654 6888 19766 7044 19787 "/>
				<path class="fil0" d="M7065 20759l-87-484 66-487-157-21-20-112-349 62-351-47-7 54-72 0 0 70-92 16 87 484-66 488 71 10 0 55 93 0 12 69 348-62 351 47 7-54 72 0 0-70 92-16zm-1014-911l37-7 0 214-37-208zm19 893l18-135 0 138-18-2zm920-914l-14 101-74-75-7-39 95 13zm-99 83l-107 0 0-107 107 107zm-63-202l9 51-34-5-35-35 61-11zm-597 1151l-3-14 83 0-80 14zm-96-61l-1-1028 603 0 0 188 187 0 1 841-790 1zm837-286l37 208-37 7 0-214zm-140-495l-597 0 0 47 597 0 0-47zm0 128l-597 0 0 47 597 0 0-47zm0 128l-597 0 0 47 597 0 0-47zm0 128l-597 0 0 47 597 0 0-47zm-597 129l0 47 597 0 0-47-597 0z"/>
			</g>
			<g>
				<polygon class="fil1 str1" points="7065 20975 5962 20975 5925 20945 5925 20355 6261 20653 6780 20652 7116 20355 7116 20938 "/>
				<polygon class="fil1 str1" points="7017 20963 6010 20963 5943 20960 6519 20404 7103 20960 "/>
			</g>
		</g>
		<g>
			<path class="fil3" d="M10588 10166l41 59-179 150-169 191-159 229-149 265-140 297-131 327-123 353-115 376-108 397-101 414-95 428-90 439-85 447-81 452-77 454-74 453-72 449-70 442-69 432-69 419-69 402-70 383-71 361-73 336-76 309-79 278-83 244-89 208-95 169-103 127-115 82-127 29 0-72 97-22 95-68 93-115 90-160 86-202 82-240 78-275 75-306 73-335 71-360 69-383 69-402 68-418 69-431 70-442 72-449 74-453 77-454 81-452 85-448 90-440 95-429 101-415 108-398 116-379 124-356 132-330 142-302 152-270 163-236 176-198 189-157zm100 11l-67-27 34 50-338 11-2-72 338-11 34 50zm0 0l-34-50 55-2-21 51zm-162 300l-33-14 128-313 67 27-128 313-33-14z"/>
		</g>
		<g>
			<path class="fil3" d="M2433 10226l41-59 189 157 176 198 163 236 152 270 142 302 132 330 124 356 116 379 108 398 101 415 95 429 90 440 85 448 81 452 77 454 74 453 72 449 70 442 69 431 68 418 69 402 69 383 71 360 73 335 75 306 78 275 82 240 86 202 90 160 93 115 95 68 97 22 0 72-127-29-115-82-103-127-95-169-89-208-83-244-79-278-76-309-73-336-71-361-70-383-69-402-69-419-69-432-70-442-72-449-74-453-77-454-81-452-85-447-90-439-95-428-101-414-108-397-115-376-123-353-131-327-140-297-149-265-159-229-169-191-179-150zm-24-97l-2 72 34-50 128 313-67 27-128-313 34-50zm0 0l-34 50-21-51 55 2zm337 47l-1 36-338-11 2-72 338 11-1 36z"/>
		</g>
		<g>
			<path class="fil3" d="M5428 704l0 72-210 2-208 7-206 12-204 16-202 21-199 26-195 30-192 34-188 39-184 43-179 47-174 51-169 55-163 59-157 63-151 67-144 71-137 74-130 78-122 81-114 85-106 88-97 92-88 95-79 98-69 101-59 104-49 107-39 109-28 112-17 115-6 118-72 0 6-125 18-122 30-119 41-116 52-112 62-109 72-105 82-102 91-98 100-95 109-91 117-87 125-83 133-80 140-76 147-72 153-68 159-64 165-60 171-56 176-52 181-48 185-43 190-39 194-35 197-30 200-26 203-21 206-17 208-12 210-7 211-2zm75 66l-39-60 0 60-284-184 39-60 284 184 0 60zm0 0l0-60 47 30-47 30zm-304 154l-20-30 284-184 39 60-284 184-20-30z"/>
		</g>
	</g>
</svg>
