<?xml version="1.0" encoding="UTF-8"?>
<svg xmlns="http://www.w3.org/2000/svg" xmlns:xlink="http://www.w3.org/1999/xlink" xml:space="preserve" height="460px" viewBox="0 0 16927 7771" version="1.1" baseProfile="full" style="clip-rule:evenodd;fill-rule:evenodd;image-rendering:optimizeQuality;shape-rendering:geometricPrecision;text-rendering:optimizeLegibility">
	<defs>
		<style type="text/css"><![CDATA[
			.str3 {stroke:black;stroke-width:23.1186}
			.str2 {stroke:black;stroke-width:69.3558}
			.str1 {stroke:black;stroke-width:18.4949;stroke-linecap:round;stroke-linejoin:round;stroke-dasharray:36.989782 55.484672}
			.str0 {stroke:black;stroke-width:92.4745;stroke-linecap:round;stroke-linejoin:round;stroke-dasharray:184.948908 277.423362}
			.fil2 {fill:none}
			.fil1 {fill:black}
			.fil0 {fill:white}
			.fil3 {fill:black;fill-rule:nonzero}
			.fil4 {fill:white;fill-rule:nonzero}
		]]></style>
	</defs>
	<g>
		<g>
			<path class="fil0" d="M2469 1235c0 682-553 1235-1235 1235-682 0-1235-553-1235-1235 0-682 553-1235 1235-1235 682 0 1235 553 1235 1235z"/>
			<path class="fil1" d="M1827 2113c0 11 0 52-13 58-24 12-52-8-76 7-15 9-21 25-32 37-32 37-67 70-99 107-6 7-9 17-8 26 0 1 4 8 1 8-25 6-57-33-60-55-5-29 21-49 30-74 27-75 63-215 50-294-19-113-109-49-127-186-3-27-8-59 4-85 12-26 41-37 52-63 25-57-32-134 63-144l9 0 7 0 5 0 7 0 12-4c12-3 18-5 31-5 14-1 28 5 42 6 32 4 64 0 93 18 54 33 111 66 158 110l-28 45c4-6 11-7 17-6 60 7 163 14 202 75 15 61-101 127-104 199 0 9 11 22 1 30-24 19-57 19-81 38-58 47-70 143-155 154zm-1413-1595c-106 56-67-41-24-82l-6-33c129-113 433-206 593-191-16-62-43-41-91-67 70 2 142 4 212-6 16 0 83 114 148 100l76-51c49 0 94 14 142 24-1 74-82 80-124 145l0 18 133 91c75-32 52 72 64 85 47 53 93-86 103-118l-54-91 103 24 70 76c23 1 52 0 73-12 19 47 64 94 109 118 14 95 139 158-9 130l-3-60-121 0c38 6 60 124 76 154l-109 0c10 66-120 67-130 124 0 71-39 27-85 73l21 112-209-97c-140 37-127 119-61 227l45-27c-4-4 30-30 33-6l0 88 154 30 0 94 82 27-112-18c-54-144-420-122-396-248-25-26-174-196-203-182-266-147 38-389-269-505l-206 0-6 18-18 36zm-415 717c0 682 553 1235 1235 1235 682 0 1235-553 1235-1235 0-682-553-1235-1235-1235-682 0-1235 553-1235 1235z"/>
		</g>
		<g>
			<path class="fil0" d="M2347 3724l0 0 1069-79-21 1413-39 8 0 47-40 1 0 59-55-3 0 72-78-7-1 98c-193-73-705-274-848-345l7-1264 7 1 0 0 1 0z"/>
			<path class="fil1" d="M2348 3724l0 0 0 0-1 0 0 0 0 0-7-1 0 7c0 11-5 1147-7 1254l0 4 3 2c132 66 652 271 836 340l8 3 0-9c0-22 1-52 1-89l78 7 0-72 55 3 0-59 40-1 0-47c7-1 20-4 34-7l5-1 0-5c3-165 21-1389 21-1401l0-7-1069 79zm822 1327c0 117 0 210-1 264-189-71-689-269-824-335 2-122 6-1150 7-1243 56 6 447 51 633 128 1 1 4 2 9 5 18 14 40 55 34 171 0 3 0 5 0 6 0 14 19 20 47 29 41 13 97 32 101 77 0 0 0 1 0 1l0 0c-6 334-6 660-6 898zm-146-1161c48 36 126 110 147 222-22-25-61-38-92-48-15-5-39-13-39-18 0-1 0-3 0-5 4-68-2-119-16-151zm224 1338l-66-6c0-48 0-106 0-171 0-238 0-564 6-898l0 0c-10-170-147-268-187-293-3-2-7-4-10-6 0 0-1 0-1 0l0 0c0 0 0 0-1 0-94-38-240-69-368-91l521 50c7 10 32 50 23 77l-3 10 10-2c16-3 62 11 82 18l-7 1312zm-90-1413c23 5 71 23 93 87-18-6-52-16-72-17 4-26-11-55-21-71zm145 1345l-43-2 7-1246 0-4-1 0c-26-90-101-104-117-106l0 0-1 0c-1 0-2 0-2 0l-586-57 751 30-8 1386zm40-59l-28 1 7-1339-776-31 807-16-10 1385zm39-53c-11 2-21 4-27 5l10-1344 0-6-794 16 832-61c-1 97-18 1214-21 1390z"/>
		</g>
		<line class="fil2 str0" x1="1235" y1="2700" x2="1235" y2="7230"/>
		<line class="fil2 str0" x1="1494" y1="4415" x2="2287" y2="4415"/>
		<path class="fil3" d="M4110 4281l0 231-41 0 0-157c0-3 0-6 0-10 0-4 1-7 1-11-1 3-3 6-4 8-1 3-3 5-4 7l-112 152c-2 2-4 5-6 7-3 2-5 3-8 3l-25 0 0-231 41 0 0 157c0 3 0 6 0 9 0 3-1 7-1 10 1-3 3-6 4-8 1-3 3-5 4-7l112-152c2-2 4-5 6-7 3-2 5-3 8-3l24 0z"/>
		<path class="fil3" d="M4160 4305c9-8 19-15 32-20 12-5 27-8 45-8 14 0 26 2 37 5 11 3 20 8 27 14 7 6 13 12 16 19 4 7 6 15 6 23 0 5-1 9-2 14-1 5-4 10-7 14-3 5-8 9-13 13-5 4-12 7-20 10 15 4 26 11 35 21 8 10 13 22 13 36 0 11-2 20-7 29-5 9-11 16-20 22-8 6-18 11-29 14-11 3-22 5-34 5-7 0-15-1-23-2-8-1-15-4-23-7-7-3-14-7-21-11-6-4-12-10-17-16l11-15c2-3 4-4 8-4 3 0 6 1 9 3 3 2 7 5 11 8 5 3 10 5 17 8 7 2 15 4 24 4 8 0 16-1 23-3 7-2 12-5 17-9 5-4 8-8 11-13 2-5 4-11 4-16 0-11-5-21-14-28-10-7-24-11-43-11l-26 0 0-27 26 0c8 0 16-1 23-3 7-2 12-4 17-7 5-3 8-7 11-11 2-4 4-9 4-14 0-5-1-9-3-13-2-4-5-8-9-11-4-3-9-5-16-7-6-2-14-3-22-3-9 0-17 1-23 3-6 2-12 4-16 6-4 2-8 4-11 6-3 2-5 3-7 3-2 0-4 0-5-1-1-1-3-2-4-5l-9-16z"/>
		<path class="fil3" d="M4537 4483l0-170-73 0c-2 24-4 45-6 63-3 18-6 34-9 48-4 14-8 25-12 35-4 10-9 17-14 24l115 0zm82-1l0 98c0 4-1 7-3 9-2 2-5 3-9 3l-25 0 0-80-195 0 0 68c0 3-1 6-3 8-2 2-5 4-9 4l-26 0 0-109 8 0c5 0 11-1 16-3 5-2 10-5 15-10 5-5 10-12 14-22 4-9 8-21 12-36 4-15 7-33 9-55 3-21 5-47 6-76l146 0 0 200 42 0z"/>
		<path class="fil3" d="M4785 4409c-19 1-35 2-48 4-13 2-24 5-32 9-8 4-14 8-18 13-4 5-6 11-6 17 0 6 1 11 3 16 2 4 5 8 8 11 3 3 7 5 12 6 5 1 10 2 15 2 7 0 14-1 20-2 6-1 12-4 17-6 5-3 10-6 15-10 5-4 9-8 14-13l0-48zm-131-95c13-12 27-22 41-28 15-6 31-9 49-9 13 0 24 2 34 6 10 4 19 10 25 18 7 8 12 17 16 28 3 11 5 23 5 36l0 148-18 0c-4 0-7-1-9-2-2-1-4-4-5-8l-5-22c-6 6-12 11-18 15-6 4-12 8-18 11-6 3-13 5-20 7-7 2-15 2-24 2-9 0-17-1-25-4-8-3-15-6-21-11-6-5-11-11-14-19-3-8-5-17-5-27 0-9 3-18 8-26 5-8 13-16 24-22 11-7 26-12 44-16 18-4 40-7 67-7l0-18c0-18-4-32-12-41-8-9-19-14-34-14-10 0-18 1-25 4-7 3-13 5-18 8-5 3-9 6-13 8-4 3-7 4-11 4-3 0-5-1-7-2-2-1-4-3-5-5l-7-13z"/>
		<polygon class="fil3" points="5073 4312 4984 4312 4984 4513 4944 4513 4944 4312 4855 4312 4855 4281 5073 4281 "/>
		<path class="fil3" d="M5257 4372c0-9-1-18-4-26-3-8-7-15-12-20-5-6-11-10-19-13-7-3-16-5-25-5-19 0-35 6-46 17-11 11-18 27-21 47l127 0zm33 108c-5 6-11 11-18 16-7 4-14 8-22 11-8 3-16 5-25 6-9 1-17 2-25 2-16 0-31-3-44-8-13-5-25-13-35-24-10-10-18-23-23-39-5-15-8-33-8-53 0-16 3-31 7-45 5-14 12-26 21-36 9-10 21-18 34-24 13-6 28-9 45-9 14 0 27 2 39 7 12 5 22 11 31 20 9 9 15 20 20 32 5 13 7 28 7 44 0 6-1 11-2 13-1 2-4 3-8 3l-155 0c0 15 3 27 6 38 4 11 9 20 15 27 6 7 14 13 23 16 9 4 19 5 30 5 10 0 19-1 26-4 7-2 14-5 19-8 5-3 10-5 13-8 4-2 7-3 9-3 3 0 6 1 8 4l11 15z"/>
		<path class="fil3" d="M5546 4513l-41 0 0-199-73 0c-2 29-5 55-8 76-4 21-8 40-13 55-5 15-11 27-17 37-6 9-13 17-20 22-7 5-14 9-21 11-7 2-15 3-22 3-13 0-19-2-19-6l0-26 12 0c5 0 10-1 16-3 5-2 11-5 16-11 5-5 10-12 15-22 5-9 9-22 13-37 4-15 7-33 10-55 3-21 5-47 6-76l148 0 0 231z"/>
		<path class="fil3" d="M5700 4483c8 0 15-1 21-3 6-2 11-5 15-9 4-4 7-8 9-13 2-5 3-11 3-16 0-5-1-11-3-15-2-5-4-9-8-13-4-4-9-7-15-9-6-2-14-3-23-3l-49 0 0 81 50 0zm-1-111c16 0 29 2 40 6 11 4 20 9 26 15 7 6 11 14 14 22 3 8 4 17 4 26 0 10-2 20-5 29-4 9-9 16-16 23-7 6-16 11-26 15-11 4-23 5-36 5l-89 0 0-231 39 0 0 91 49 0z"/>
		<path class="fil3" d="M5991 4322c-1 2-2 3-4 4-1 1-3 1-5 1-2 0-5-1-8-3-3-2-6-4-10-6-4-2-9-4-15-6-6-2-13-3-22-3-11 0-21 2-30 6-9 4-16 10-22 18-6 8-10 17-13 28-3 11-4 23-4 36 0 14 2 26 5 37 3 11 8 20 14 27 6 7 13 13 21 17 8 4 18 6 28 6 10 0 18-1 24-4 6-2 12-5 16-8 4-3 8-6 11-8 3-2 6-3 8-3 3 0 6 1 8 4l11 15c-5 6-11 12-17 16-6 4-13 8-21 11-7 3-15 5-23 7-8 1-16 2-25 2-14 0-28-3-40-8-12-5-23-13-32-23-9-10-16-23-21-37-5-15-8-32-8-50 0-17 2-33 7-48 5-15 12-27 21-38 9-11 21-19 34-25 13-6 29-9 46-9 16 0 31 3 43 8 12 5 23 13 33 22l-11 15z"/>
		<polygon class="fil3" points="6240 4312 6151 4312 6151 4513 6110 4513 6110 4312 6022 4312 6022 4281 6240 4281 "/>
		<path class="fil3" d="M6367 4484c15 0 27-4 36-11 9-7 13-17 13-29 0-5-1-10-3-15-2-4-4-8-8-12-4-3-9-6-15-8-6-2-14-3-23-3l-50 0 0 77 50 0zm-50-175l0 73 45 0c7 0 13-1 19-3 6-2 11-5 15-8 4-3 7-8 10-12 2-5 3-10 3-16 0-4-1-8-2-12-2-4-4-8-8-11-4-3-8-6-14-8-6-2-13-3-22-3l-45 0zm46-27c14 0 27 1 37 4 10 3 19 7 25 12 7 5 11 11 14 18 3 7 5 14 5 21 0 5-1 10-2 16-1 5-4 11-7 16-3 5-8 10-14 14-6 4-13 7-22 10 18 3 31 9 41 18 10 9 14 21 14 36 0 11-2 21-7 29-4 8-11 15-18 21-8 6-17 10-28 13-11 3-22 4-34 4l-89 0 0-231 85 0z"/>
		<path class="fil3" d="M6631 4409c-19 1-35 2-48 4-13 2-24 5-32 9-8 4-14 8-18 13-4 5-6 11-6 17 0 6 1 11 3 16 2 4 5 8 8 11 3 3 7 5 12 6 5 1 10 2 15 2 7 0 14-1 20-2 6-1 12-4 17-6 5-3 10-6 15-10 5-4 9-8 14-13l0-48zm-131-95c13-12 27-22 41-28 15-6 31-9 49-9 13 0 24 2 34 6 10 4 19 10 25 18 7 8 12 17 16 28 3 11 5 23 5 36l0 148-18 0c-4 0-7-1-9-2-2-1-4-4-5-8l-5-22c-6 6-12 11-18 15-6 4-12 8-18 11-6 3-13 5-20 7-7 2-15 2-24 2-9 0-17-1-25-4-8-3-15-6-21-11-6-5-11-11-14-19-3-8-5-17-5-27 0-9 3-18 8-26 5-8 13-16 24-22 11-7 26-12 44-16 18-4 40-7 67-7l0-18c0-18-4-32-12-41-8-9-19-14-34-14-10 0-18 1-25 4-7 3-13 5-18 8-5 3-9 6-13 8-4 3-7 4-11 4-3 0-5-1-7-2-2-1-4-3-5-5l-7-13z"/>
		<rect class="fil0 str1" x="7331" y="3488" width="5606" height="1853" rx="795" ry="795"/>
		<rect class="fil1" x="7753" y="3858" width="671" height="445" rx="3282" ry="3282"/>
		<path class="fil4" d="M8056 3960l0 87c15-17 32-26 52-26 10 0 20 2 28 6 8 4 15 9 19 15 4 6 7 13 9 20 2 7 2 18 2 34l0 99-45 0 0-89c0-18-1-29-3-34-2-5-5-9-9-11-4-3-10-4-16-4-7 0-14 2-20 5-6 4-10 9-13 16-3 7-4 18-4 32l0 85-45 0 0-234 45 0z"/>
		<rect class="fil1" x="10431" y="3858" width="671" height="445" rx="3282" ry="3282"/>
		<path class="fil4" d="M10735 3960l0 87c15-17 32-26 52-26 10 0 20 2 28 6 8 4 15 9 19 15 4 6 7 13 9 20 2 7 2 18 2 34l0 99-45 0 0-89c0-18-1-29-3-34-2-5-5-9-9-11-4-3-10-4-16-4-7 0-14 2-20 5-6 4-10 9-13 16-3 7-4 18-4 32l0 85-45 0 0-234 45 0z"/>
		<polygon class="fil3" points="8774 4847 8774 4876 8628 4876 8628 4617 8663 4617 8663 4847 "/>
		<path class="fil3" d="M8869 4690c13 0 25 2 36 7 11 4 20 11 27 19 8 8 13 18 17 30 4 12 6 25 6 39 0 14-2 27-6 39-4 12-10 21-17 30-8 8-17 14-27 19-11 4-23 7-36 7-13 0-26-2-36-7-11-4-20-11-28-19-8-8-13-18-17-30-4-12-6-25-6-39 0-14 2-27 6-39 4-12 10-21 17-30 8-8 17-14 28-19 11-4 23-7 36-7zm0 163c18 0 32-6 40-18 9-12 13-29 13-51 0-22-4-39-13-51-9-12-22-18-40-18-9 0-17 2-24 5-7 3-12 8-17 14-5 6-8 13-10 22-2 9-3 18-3 29 0 22 5 39 13 51 9 12 23 18 41 18z"/>
		<path class="fil3" d="M9028 4730c6-13 13-22 21-29 8-7 19-11 31-11 4 0 8 0 11 1 4 1 7 2 9 4l-2 24c-1 3-3 5-5 5-2 0-4 0-7-1-3-1-7-1-11-1-6 0-11 1-15 3-5 2-9 4-12 7-4 3-7 7-10 12-3 5-5 10-8 17l0 116-32 0 0-183 18 0c3 0 6 1 7 2 1 1 2 4 3 7l2 28z"/>
		<path class="fil3" d="M9243 4765c0-7-1-14-3-21-2-6-5-12-9-16-4-5-9-8-15-10-6-2-12-4-20-4-15 0-28 4-37 13-9 9-15 21-17 37l100 0zm26 86c-4 5-9 9-14 13-6 4-11 6-18 9-6 2-13 4-20 5-7 1-13 2-20 2-13 0-24-2-35-6-11-4-20-11-28-19-8-8-14-18-18-31-4-12-7-26-7-42 0-13 2-25 6-36 4-11 10-21 17-29 7-8 16-14 27-19 11-5 23-7 36-7 11 0 21 2 30 5 9 4 17 9 24 16 7 7 12 15 16 26 4 10 6 22 6 35 0 5-1 8-2 10-1 2-3 3-6 3l-122 0c0 12 2 22 5 30 3 9 7 16 12 21 5 6 11 10 18 13 7 3 15 4 23 4 8 0 15-1 21-3 6-2 11-4 15-6 4-2 8-4 11-6 3-2 5-3 7-3 3 0 5 1 6 3l9 12z"/>
		<path class="fil3" d="M9312 4876l0-183 19 0c5 0 7 2 8 7l2 19c7-8 14-15 23-20 8-5 18-8 29-8 12 0 22 3 30 10 8 7 13 16 16 28 3-7 6-12 10-17 4-5 9-9 14-12 5-3 11-5 17-7 6-1 12-2 18-2 10 0 18 2 26 5 8 3 14 8 19 13 5 6 9 13 12 22 3 9 4 18 4 30l0 116-32 0 0-116c0-14-3-25-9-33-6-7-15-11-27-11-5 0-10 1-15 3-5 2-9 5-13 8-4 4-6 8-9 14-2 5-3 12-3 19l0 116-32 0 0-116c0-15-3-26-9-33-6-7-14-11-26-11-8 0-15 2-22 6-7 4-13 10-19 17l0 136-32 0z"/>
		<path class="fil3" d="M9735 4693l0 183-32 0 0-183 32 0zm7-57c0 3-1 6-2 9-1 3-3 5-5 7-2 2-5 4-7 5-3 1-6 2-9 2-3 0-6-1-9-2-3-1-5-3-7-5-2-2-4-5-5-7-1-3-2-6-2-9 0-3 1-6 2-9 1-3 3-5 5-7 2-2 4-4 7-5 3-1 6-2 9-2 3 0 6 1 9 2 3 1 5 3 7 5 2 2 4 5 5 7 1 3 2 6 2 9z"/>
		<path class="fil3" d="M9820 4832c6 8 12 14 19 17 7 3 15 5 23 5 17 0 30-6 39-18 9-12 14-29 14-52 0-12-1-22-3-31-2-9-5-16-9-21-4-5-9-9-15-12-6-3-12-4-20-4-10 0-20 2-28 7-8 5-15 12-22 20l0 88zm-2-110c8-10 17-17 27-23 10-6 22-9 35-9 11 0 20 2 29 6 9 4 16 10 22 18 6 8 11 18 14 29 3 12 5 25 5 40 0 13-2 26-5 38-4 12-9 22-16 30-7 8-15 15-25 20-10 5-21 7-33 7-11 0-21-2-29-6-8-4-15-9-21-16l0 81-32 0 0-245 19 0c5 0 7 2 8 7l3 22z"/>
		<path class="fil3" d="M10097 4723c-1 3-4 4-7 4-2 0-4-1-6-2-2-1-5-3-8-4-3-2-7-3-12-5-5-1-10-2-16-2-5 0-10 1-15 2-4 1-8 3-11 6-3 2-5 5-7 8-2 3-2 7-2 10 0 5 1 9 4 12 3 3 6 6 11 8 4 2 10 4 15 6 6 2 11 4 17 6 6 2 12 4 17 7 6 2 11 5 15 9 4 4 8 8 11 13 3 5 4 12 4 19 0 8-2 16-5 23-3 7-7 13-13 19-6 5-13 9-22 12-9 3-18 5-30 5-13 0-24-2-35-6-10-4-19-9-26-16l8-12c1-2 2-3 3-4 1-1 3-1 5-1 2 0 4 1 7 3 2 2 5 4 9 6 3 2 8 4 13 6 5 2 11 3 18 3 6 0 12-1 16-2 5-2 9-4 12-7 3-3 5-6 7-10 2-4 2-7 2-12 0-5-1-9-4-13-3-3-6-6-11-8-4-2-10-4-15-6-6-2-12-4-18-5-6-2-12-4-18-7-6-2-11-6-15-9-4-4-8-8-11-14-3-5-4-12-4-20 0-7 1-14 4-20 3-6 7-12 13-17 6-5 12-9 20-12 8-3 17-4 28-4 12 0 23 2 32 6 10 4 18 9 25 16l-7 12z"/>
		<path class="fil3" d="M10297 4693l0 183-19 0c-5 0-7-2-9-7l-3-20c-8 9-17 16-27 21-10 5-21 8-34 8-10 0-19-2-26-5-8-3-14-8-19-14-5-6-9-13-12-22-3-9-4-18-4-28l0-117 32 0 0 117c0 14 3 25 10 32 6 8 16 11 29 11 10 0 18-2 27-7 8-5 16-11 23-19l0-135 32 0z"/>
		<path class="fil3" d="M10348 4876l0-183 19 0c5 0 7 2 8 7l2 19c7-8 14-15 23-20 8-5 18-8 29-8 12 0 22 3 30 10 8 7 13 16 16 28 3-7 6-12 10-17 4-5 9-9 14-12 5-3 11-5 17-7 6-1 12-2 18-2 10 0 18 2 26 5 8 3 14 8 19 13 5 6 9 13 12 22 3 9 4 18 4 30l0 116-32 0 0-116c0-14-3-25-9-33-6-7-15-11-27-11-5 0-10 1-15 3-5 2-9 5-13 8-4 4-6 8-9 14-2 5-3 12-3 19l0 116-32 0 0-116c0-15-3-26-9-33-6-7-14-11-26-11-8 0-15 2-22 6-7 4-13 10-19 17l0 136-32 0z"/>
		<path class="fil3" d="M10856 4737c-6-8-13-14-19-17-7-3-15-5-23-5-17 0-30 6-39 18-9 12-14 29-14 52 0 12 1 22 3 31 2 8 5 15 9 21 4 5 9 10 15 12 6 3 12 4 20 4 11 0 20-2 28-7 8-5 15-12 22-20l0-88zm32-127l0 266-19 0c-5 0-7-2-9-7l-3-22c-8 9-17 17-27 23-10 6-22 9-35 9-10 0-20-2-29-6-9-4-16-10-22-18-6-8-11-18-14-29-3-12-5-25-5-40 0-13 2-26 5-38 4-12 9-22 16-30 7-9 15-15 25-20 10-5 21-7 33-7 11 0 21 2 29 6 8 4 15 9 21 16l0-101 32 0z"/>
		<path class="fil3" d="M11016 4690c13 0 25 2 36 7 11 4 20 11 27 19 8 8 13 18 17 30 4 12 6 25 6 39 0 14-2 27-6 39-4 12-10 21-17 30-8 8-17 14-27 19-11 4-23 7-36 7-13 0-26-2-36-7-11-4-20-11-28-19-8-8-13-18-17-30-4-12-6-25-6-39 0-14 2-27 6-39 4-12 10-21 17-30 8-8 17-14 28-19 11-4 23-7 36-7zm0 163c18 0 32-6 40-18 9-12 13-29 13-51 0-22-4-39-13-51-9-12-22-18-40-18-9 0-17 2-24 5-7 3-12 8-17 14-5 6-8 13-10 22-2 9-3 18-3 29 0 22 5 39 13 51 9 12 23 18 41 18z"/>
		<polygon class="fil3" points="11177 4610 11177 4876 11145 4876 11145 4610 "/>
		<path class="fil3" d="M11306 4690c13 0 25 2 36 7 11 4 20 11 27 19 8 8 13 18 17 30 4 12 6 25 6 39 0 14-2 27-6 39-4 12-10 21-17 30-8 8-17 14-27 19-11 4-23 7-36 7-13 0-26-2-36-7-11-4-20-11-28-19-8-8-13-18-17-30-4-12-6-25-6-39 0-14 2-27 6-39 4-12 10-21 17-30 8-8 17-14 28-19 11-4 23-7 36-7zm0 163c18 0 32-6 40-18 9-12 13-29 13-51 0-22-4-39-13-51-9-12-22-18-40-18-9 0-17 2-24 5-7 3-12 8-17 14-5 6-8 13-10 22-2 9-3 18-3 29 0 22 5 39 13 51 9 12 23 18 41 18z"/>
		<path class="fil3" d="M11464 4730c6-13 13-22 21-29 8-7 19-11 31-11 4 0 8 0 11 1 4 1 7 2 9 4l-2 24c-1 3-3 5-5 5-2 0-4 0-7-1-3-1-7-1-11-1-6 0-11 1-15 3-5 2-9 4-12 7-4 3-7 7-10 12-3 5-5 10-8 17l0 116-32 0 0-183 18 0c3 0 6 1 7 2 1 1 2 4 3 7l2 28z"/>
		<rect class="fil1" x="7753" y="4504" width="671" height="445" rx="3282" ry="3282"/>
		<path class="fil4" d="M8010 4670l42 0 0 25c5-8 13-15 22-21 9-5 20-8 31-8 20 0 36 8 50 23 14 15 21 37 21 64 0 28-7 50-21 66-14 16-31 24-50 24-9 0-18-2-25-6-8-4-16-10-24-19l0 85-45 0 0-234zm44 82c0 19 4 33 11 42 8 9 17 14 27 14 10 0 19-4 26-13 7-8 10-22 10-41 0-18-4-31-11-40-7-9-16-13-26-13-11 0-20 4-27 13-7 8-11 21-11 38z"/>
		<rect class="fil1" x="11678" y="4535" width="671" height="445" rx="3282" ry="3282"/>
		<path class="fil3" d="M8613 3977c10-9 21-15 34-20 13-5 28-7 44-7 13 0 25 2 36 5 11 3 20 8 27 14 7 6 13 13 17 21 4 8 6 17 6 27 0 13-3 24-10 34-6 10-16 18-27 23 7 3 13 6 18 10 5 4 10 9 14 14 4 5 7 11 9 17 2 6 3 12 3 19 0 11-2 22-6 32-4 10-10 18-18 26-8 7-18 13-30 17-12 4-25 6-40 6-19 0-35-3-50-9-15-6-28-14-38-25l10-17c1-1 2-2 4-3 1-1 3-1 5-1 3 0 6 1 9 4 3 3 8 6 13 9 5 3 12 6 20 9 8 3 17 4 28 4 10 0 18-1 26-3 8-2 14-6 19-10 5-4 9-10 12-16 3-6 4-13 4-21 0-7-1-13-4-19-3-6-6-11-11-15-5-4-11-7-18-9-7-2-15-3-24-3l-35 0 0-29 34 0c7 0 14-1 21-3 6-2 12-4 16-8 5-3 8-8 11-13 3-5 4-11 4-17 0-6-1-11-4-16-2-5-6-9-10-13-5-4-10-6-17-8-7-2-14-3-23-3-10 0-18 1-25 3-7 2-13 4-17 7-5 2-8 5-11 7-3 2-6 3-8 3-2 0-3 0-5-1-1-1-2-2-3-4l-8-16z"/>
		<path class="fil3" d="M8924 4129c-15 0-27 2-38 3-10 2-19 4-25 7-7 3-11 7-14 11-3 4-4 9-4 14 0 5 1 9 2 12 2 3 4 6 6 9 3 2 6 4 10 5 4 1 8 2 12 2 6 0 11-1 16-2 5-1 9-3 13-5 4-2 8-5 12-8 4-3 7-6 11-10l0-38zm-104-75c10-10 21-17 33-22 12-5 25-7 39-7 10 0 19 2 27 5 8 3 15 8 20 14 5 6 10 13 12 22 3 9 4 18 4 28l0 117-14 0c-3 0-6-1-7-2-2-1-3-3-4-6l-4-17c-5 4-10 8-14 12-5 3-9 6-14 9-5 2-10 4-16 5-6 1-12 2-19 2-7 0-14-1-20-3-6-2-12-5-16-9-5-4-8-9-11-15-3-6-4-13-4-22 0-7 2-14 6-21 4-7 10-13 19-18 9-5 21-9 35-13 14-3 32-5 53-6l0-14c0-14-3-25-9-32-6-7-15-11-27-11-8 0-15 1-20 3-5 2-10 4-14 7-4 2-7 5-10 7-3 2-6 3-8 3-2 0-4-1-6-2-2-1-3-3-4-4l-6-10z"/>
		<polygon class="fil3" points="9123 4053 9037 4053 9037 4211 9004 4211 9004 4028 9123 4028 "/>
		<path class="fil3" d="M9222 4025c13 0 25 2 36 7 11 4 20 11 27 19 8 8 13 18 17 30 4 12 6 25 6 39 0 14-2 27-6 39-4 12-10 21-17 30-8 8-17 14-27 19-11 4-23 7-36 7-13 0-26-2-36-7-11-4-20-11-28-19-8-8-13-18-17-30-4-12-6-25-6-39 0-14 2-27 6-39 4-12 10-21 17-30 8-8 17-14 28-19 11-4 23-7 36-7zm0 163c18 0 32-6 40-18 9-12 13-29 13-51 0-22-4-39-13-51-9-12-22-18-40-18-9 0-17 2-24 5-7 3-12 8-17 14-5 6-8 13-10 22-2 9-3 18-3 29 0 22 5 39 13 51 9 12 23 18 41 18z"/>
		<path class="fil3" d="M9504 4211l-32 0 0-158-58 0c-1 23-4 43-6 60-3 17-6 31-10 43-4 12-9 21-14 29-5 7-10 13-16 17-5 4-11 7-17 8-6 1-12 2-17 2-10 0-15-2-15-5l0-20 9 0c4 0 8-1 12-2 4-1 8-4 12-8 4-4 8-10 12-17 4-7 7-17 10-29 3-12 6-26 8-43 2-17 4-37 5-60l117 0 0 183z"/>
		<path class="fil3" d="M9632 4025c13 0 25 2 36 7 11 4 20 11 27 19 8 8 13 18 17 30 4 12 6 25 6 39 0 14-2 27-6 39-4 12-10 21-17 30-8 8-17 14-27 19-11 4-23 7-36 7-13 0-26-2-36-7-11-4-20-11-28-19-8-8-13-18-17-30-4-12-6-25-6-39 0-14 2-27 6-39 4-12 10-21 17-30 8-8 17-14 28-19 11-4 23-7 36-7zm0 163c18 0 32-6 40-18 9-12 13-29 13-51 0-22-4-39-13-51-9-12-22-18-40-18-9 0-17 2-24 5-7 3-12 8-17 14-5 6-8 13-10 22-2 9-3 18-3 29 0 22 5 39 13 51 9 12 23 18 41 18z"/>
		<path class="fil3" d="M9830 4189c12 0 22-3 29-8 7-6 10-13 10-23 0-4-1-8-2-12-1-4-3-7-7-9-3-3-7-5-12-6-5-1-11-2-18-2l-40 0 0 61 39 0zm-39-139l0 57 35 0c5 0 10-1 15-2 5-1 8-4 12-6 3-3 6-6 8-10 2-4 3-8 3-13 0-3-1-7-2-10-1-3-3-6-6-8-3-2-7-4-11-6-5-2-10-2-17-2l-35 0zm36-22c11 0 21 1 29 3 8 2 15 5 20 9 5 4 9 9 11 14 2 5 4 11 4 17 0 4-1 8-2 12-1 4-3 8-6 12-3 4-6 8-11 11-5 3-10 6-17 8 14 2 25 7 32 14 8 7 11 17 11 29 0 9-2 17-5 23-4 7-8 12-15 17-6 4-13 8-22 10-8 2-17 3-27 3l-70 0 0-183 67 0z"/>
		<path class="fil3" d="M10016 4025c13 0 25 2 36 7 11 4 20 11 27 19 8 8 13 18 17 30 4 12 6 25 6 39 0 14-2 27-6 39-4 12-10 21-17 30-8 8-17 14-27 19-11 4-23 7-36 7-13 0-26-2-36-7-11-4-20-11-28-19-8-8-13-18-17-30-4-12-6-25-6-39 0-14 2-27 6-39 4-12 10-21 17-30 8-8 17-14 28-19 11-4 23-7 36-7zm0 163c18 0 32-6 40-18 9-12 13-29 13-51 0-22-4-39-13-51-9-12-22-18-40-18-9 0-17 2-24 5-7 3-12 8-17 14-5 6-8 13-10 22-2 9-3 18-3 29 0 22 5 39 13 51 9 12 23 18 41 18z"/>
		<path class="fil3" d="M10255 4037c2-3 4-5 7-7 3-2 6-3 9-3l25 0-47 70c-3 4-6 8-9 11-3 3-7 5-12 7 6 2 11 4 15 7 4 3 8 8 11 13l48 76-22 0c-6 0-10-1-13-3-3-2-6-5-8-8l-36-57c-6-9-14-14-25-14l-20 0 0 82-32 0 0-183 32 0 0 79 17 0c10 0 17-4 23-12l39-58z"/>
		<path class="fil4" d="M11936 4701l42 0 0 25c5-8 13-15 22-21 9-5 20-8 31-8 20 0 36 8 50 23 14 15 21 37 21 64 0 28-7 50-21 66-14 16-31 24-50 24-9 0-18-2-25-6-8-4-16-10-24-19l0 85-45 0 0-234zm44 82c0 19 4 33 11 42 8 9 17 14 27 14 10 0 19-4 26-13 7-8 10-22 10-41 0-18-4-31-11-40-7-9-16-13-26-13-11 0-20 4-27 13-7 8-11 21-11 38z"/>
		<g>
			<path class="fil0" d="M11588 3553c64-6 228-55 234-55l42 0c-11 5-22 9-32 13l555 25 23 9c-277 153-503 307-557 358-69 65-132 153-229 169-221 36-317 124-369 134-27 5-52-4-66-22-54-72 125-165 181-185l56-22c38-20 52-59 29-80-25 4-52 9-78 13l-154 32c18 44-43 79-75 32l-1 1c10 78-76 137-96 69l-55 49c-50 28-94-15-76-65 8-21 24-38 38-52l20-36c9-42 24-82 44-120 4-8 7-17 9-26 19-65 60-70 81-96 35-54 108-97 162-115 73-24 134-18 207-26l109-6z"/>
			<path class="fil1" d="M11822 3498c-5 0-170 49-234 55-10 1-31 2-52 3-25 1-48 2-57 3-24 3-47 4-69 5-46 2-89 5-138 21-54 18-128 62-162 115-7 6-15 13-24 20-15 12-31 24-42 39-9 12-13 25-16 38-3 9-5 18-9 26-20 38-35 79-44 120l-20 36c-14 14-30 30-38 52-8 22-4 53 19 67 19 12 42 7 57-2 14-8 25-19 35-30 1-2 3-3 4-5 5-5 10-10 15-15 1 4 3 8 5 12 6 9 13 15 21 17 7 1 15 1 22-2 7-3 13-7 20-13 17-17 32-51 28-83 0 0 1-1 1-1 9 13 20 19 28 21 8 2 17 2 25-1 3-1 5-2 8-4 9-6 15-15 17-26 1-5 1-13-2-22 26-9 52-15 79-19 24-4 50-8 75-13 26-5 53-10 78-13 11 10 13 28 8 42-7 19-24 31-37 38-13 7-26 11-41 16-5 2-11 4-16 5-59 21-179 88-190 148-2 12 1 26 9 37 13 18 39 27 66 22 20-4 38-14 55-23l4-2c97-54 201-90 310-108 13-2 26-6 38-10 57-22 101-68 145-113 15-15 30-31 46-46 54-50 282-206 558-358l-23-9c-278 153-494 301-549 352-16 15-32 31-47 47-51 52-103 106-172 118-111 18-218 56-316 111l-4 2c-17 9-32 18-49 21-16 3-36 0-46-14-5-7-7-15-6-22 8-44 112-109 177-133 5-2 10-4 16-5 14-5 29-10 43-17 16-9 38-24 47-49 9-25 1-54-19-67l-3-2-4 0c-27 4-56 9-83 14-25 5-50 9-74 13-53 8-105 24-152 49 0 0 0 0 0 0 0 0 0 0 0 0-47 24-90 55-127 93-1 2-3 3-4 5-10 10-19 20-30 26-10 6-25 9-37 2-13-8-16-28-11-43 6-18 21-32 34-45l1-1 22-38c77-84 212-180 341-207 5-1 9-6 8-12-1-5-6-9-12-8-120 25-244 108-326 187 7-23 16-46 27-68 0 0 0 0 1 0 1 0 2-1 3-2 68-74 171-134 261-154 5-1 8-6 7-11-1-5-6-8-11-7-83 18-175 69-244 133 0-1 0-1 1-2 3-11 6-22 13-31 9-12 24-24 38-35 0 0 0 0 1 0 0 0 1 0 1 0 1 0 2-1 2-1 1-1 71-59 169-89 5-1 7-6 6-11-1-5-6-7-11-6-42 13-79 30-108 47 35-32 82-58 120-71 47-15 88-18 133-20 22-1 45-2 70-5 8-1 32-2 56-3 22-1 43-2 53-3 67-6 156-29 241-61l33-13-42 0zm-719 546c-8 8-17 11-24 10-2 0-5-3-8-8-4-6-5-13-4-18 19-15 38-29 59-42 0 22-11 46-23 57zm100-95c2 4 2 8 2 12-1 5-4 10-9 13-4 2-10 4-17 3-6-1-11-5-15-11 13-6 26-12 39-17z"/>
		</g>
		<line class="fil2 str0" x1="1540" y1="7195" x2="2333" y2="7195"/>
		<g>
			<g>
				<path class="fil1" d="M4107 6699l-689 0-20 264 21 0c15-198 32-232 218-232 21 0 56 0 66 0 23 4 23 18 23 46l0 650c0 43-4 56-104 56l-34 0 0 29c57-1 117-2 176-2 58 0 118 1 175 2l0-29-33 0c-99 0-103-13-103-56l0-650c0-26 0-41 22-46l66 0c183 0 201 34 216 232l22 0m-20-264l0 0 0 0z"/>
				<path class="fil1" d="M4706 7469l-21 0c-26 177-42 273-252 273l-166 0c-48 0-50-6-50-47l0-334 113 0c113 0 123 41 123 142l19 0 0-311-19 0c0 99-11 140-123 140l-113 0 0-296c0-40 2-46 50-46l163 0c185 0 206 73 223 231l22 0-29-264-604 0 0 33c85 0 98 0 98 54l0 644c0 54-13 54-98 54l0 29 621 0m43-302l0 0 0 0z"/>
				<path class="fil1" d="M5028 7059l177-255c18-25 54-77 152-78l0-29c-27 2-73 2-101 2-39 0-88 0-118-2l0 29c38 4 48 27 48 47 0 14-6 24-14 36l-158 229-177-259c-8-13-9-17-9-20 0-11 13-31 53-32l0-29c-38 2-97 2-136 2-31 0-91 0-119-2l0 29c66 0 87 2 113 40l230 338-208 303c-51 74-129 75-152 75l0 29c27-2 73-2 101-2 32 0 88 0 118 2l0-29c-37-4-48-27-48-47 0-15 6-24 12-32l191-279 208 305c9 13 9 17 9 20 0 9-11 30-52 32l0 29c38-2 97-2 136-2 31 0 91 0 120 2l0-29c-76 0-89-6-112-40m-262-384l0 0 0 0z"/>
			</g>
			<line class="fil2 str2" x1="2865" y1="6753" x2="3397" y2="7609"/>
		</g>
		<path class="fil3" d="M9194 5656c6 8 12 13 19 17 7 3 15 5 23 5 17 0 30-6 39-18 9-12 14-29 14-52 0-12-1-22-3-31-2-8-5-15-9-21-4-5-9-9-15-12-6-3-12-4-20-4-10 0-20 2-27 7-8 5-15 12-22 20l0 88zm-2-110c8-9 17-17 27-23 10-6 22-9 34-9 11 0 20 2 29 6 8 4 16 10 22 18 6 8 11 18 14 29 3 12 5 25 5 40 0 13-2 26-5 37-4 12-9 22-15 30-7 8-15 15-25 20-10 5-21 7-33 7-11 0-21-2-29-6-8-4-15-9-21-16l0 80-32 0 0-243 19 0c5 0 7 2 8 7l3 22z"/>
		<path class="fil3" d="M9515 5518l-101 235c-1 2-2 4-4 6-2 1-4 2-7 2l-24 0 33-72-75-171 28 0c3 0 5 1 7 2 2 1 3 3 3 5l49 114c2 5 4 10 5 16 2-6 3-11 5-16l47-114c1-2 2-4 4-5 2-1 4-2 6-2l25 0z"/>
		<path class="fil3" d="M9654 5527c2-3 4-5 7-6 3-2 6-3 9-3l25 0-47 69c-3 4-6 8-9 11-3 3-7 5-11 7 6 2 11 4 15 7 4 3 7 8 11 13l48 75-22 0c-6 0-10-1-13-3-3-2-6-5-8-8l-35-57c-6-9-14-14-25-14l-20 0 0 82-32 0 0-182 32 0 0 79 17 0c10 0 17-4 22-12l39-57z"/>
		<path class="fil3" d="M9828 5617c-15 0-27 2-38 3-10 2-19 4-25 7-7 3-11 7-14 11-3 4-4 9-4 14 0 5 1 9 2 12 2 3 4 6 6 8 3 2 6 4 10 5 4 1 8 2 12 2 6 0 11-1 15-2 5-1 9-3 13-5 4-2 8-5 12-8 4-3 7-6 11-10l0-38zm-103-74c10-10 21-17 32-22 12-5 24-7 39-7 10 0 19 2 27 5 8 3 15 8 20 14 5 6 9 13 12 22 3 8 4 18 4 28l0 116-14 0c-3 0-6-1-7-2-2-1-3-3-4-6l-4-17c-5 4-9 8-14 12-5 3-9 6-14 9-5 2-10 4-16 5-6 1-12 2-19 2-7 0-14-1-20-3-6-2-12-5-16-9-5-4-8-9-11-15-3-6-4-13-4-21 0-7 2-14 6-21 4-7 10-13 19-18 9-5 20-9 35-13 14-3 32-5 52-6l0-14c0-14-3-25-9-32-6-7-15-11-27-11-8 0-14 1-20 3-5 2-10 4-14 7-4 2-7 5-10 7-3 2-6 3-8 3-2 0-4-1-6-2-2-1-3-3-4-4l-6-10z"/>
		<path class="fil3" d="M10098 5617c-15 0-27 2-38 3-10 2-19 4-25 7-7 3-11 7-14 11-3 4-4 9-4 14 0 5 1 9 2 12 2 3 4 6 6 8 3 2 6 4 10 5 4 1 8 2 12 2 6 0 11-1 15-2 5-1 9-3 13-5 4-2 8-5 12-8 4-3 7-6 11-10l0-38zm-103-74c10-10 21-17 32-22 12-5 24-7 39-7 10 0 19 2 27 5 8 3 15 8 20 14 5 6 9 13 12 22 3 8 4 18 4 28l0 116-14 0c-3 0-6-1-7-2-2-1-3-3-4-6l-4-17c-5 4-9 8-14 12-5 3-9 6-14 9-5 2-10 4-16 5-6 1-12 2-19 2-7 0-14-1-20-3-6-2-12-5-16-9-5-4-8-9-11-15-3-6-4-13-4-21 0-7 2-14 6-21 4-7 10-13 19-18 9-5 20-9 35-13 14-3 32-5 52-6l0-14c0-14-3-25-9-32-6-7-15-11-27-11-8 0-14 1-20 3-5 2-10 4-14 7-4 2-7 5-10 7-3 2-6 3-8 3-2 0-4-1-6-2-2-1-3-3-4-4l-6-10z"/>
		<path class="fil3" d="M10247 5677c12 0 21-3 28-8 7-6 10-13 10-23 0-4-1-8-2-12-1-4-3-7-6-9-3-3-7-5-12-6-5-1-11-2-18-2l-39 0 0 60 39 0zm-39-138l0 57 35 0c5 0 10-1 15-2 4-1 8-4 12-6 3-3 6-6 8-10 2-4 3-8 3-12 0-3-1-7-2-10-1-3-3-6-6-8-3-2-7-4-11-6-5-1-10-2-17-2l-35 0zm36-22c11 0 21 1 29 3 8 2 15 5 20 9 5 4 9 8 11 14 2 5 4 11 4 17 0 4-1 8-2 12-1 4-3 8-6 12-3 4-6 7-11 11-5 3-10 6-17 7 14 2 25 7 32 14 8 7 11 17 11 29 0 9-2 17-5 23-4 7-8 12-15 16-6 4-13 8-22 10-8 2-17 3-27 3l-70 0 0-182 67 0z"/>
		<polygon class="fil3" points="10504 5542 10434 5542 10434 5699 10402 5699 10402 5542 10332 5542 10332 5518 10504 5518 "/>
		<path class="fil3" d="M10604 5515c13 0 25 2 36 7 11 4 20 11 27 19 8 8 13 18 17 29 4 12 6 24 6 39 0 14-2 27-6 39-4 11-10 21-17 29-8 8-17 14-27 19-11 4-23 7-36 7-13 0-25-2-36-7-11-4-20-11-27-19-8-8-13-18-17-29-4-11-6-24-6-39 0-14 2-27 6-39 4-12 10-21 17-29 8-8 17-14 27-19 11-4 23-7 36-7zm0 162c18 0 31-6 40-18 9-12 13-29 13-50 0-22-4-39-13-51-9-12-22-18-40-18-9 0-17 2-24 5-7 3-12 8-17 13-4 6-8 13-10 22-2 9-3 18-3 29 0 22 4 38 13 50 9 12 22 18 41 18z"/>
		<path class="fil3" d="M10763 5656c6 8 12 13 19 17 7 3 15 5 23 5 17 0 30-6 39-18 9-12 14-29 14-52 0-12-1-22-3-31-2-8-5-15-9-21-4-5-9-9-15-12-6-3-12-4-20-4-10 0-20 2-27 7-8 5-15 12-22 20l0 88zm-2-110c8-9 17-17 27-23 10-6 22-9 34-9 11 0 20 2 29 6 8 4 16 10 22 18 6 8 11 18 14 29 3 12 5 25 5 40 0 13-2 26-5 37-4 12-9 22-15 30-7 8-15 15-25 20-10 5-21 7-33 7-11 0-21-2-29-6-8-4-15-9-21-16l0 80-32 0 0-243 19 0c5 0 7 2 8 7l3 22z"/>
		<path class="fil3" d="M11030 5617c-15 0-27 2-38 3-10 2-19 4-25 7-7 3-11 7-14 11-3 4-4 9-4 14 0 5 1 9 2 12 2 3 4 6 6 8 3 2 6 4 10 5 4 1 8 2 12 2 6 0 11-1 15-2 5-1 9-3 13-5 4-2 8-5 12-8 4-3 7-6 11-10l0-38zm-103-74c10-10 21-17 32-22 12-5 24-7 39-7 10 0 19 2 27 5 8 3 15 8 20 14 5 6 9 13 12 22 3 8 4 18 4 28l0 116-14 0c-3 0-6-1-7-2-2-1-3-3-4-6l-4-17c-5 4-9 8-14 12-5 3-9 6-14 9-5 2-10 4-16 5-6 1-12 2-19 2-7 0-14-1-20-3-6-2-12-5-16-9-5-4-8-9-11-15-3-6-4-13-4-21 0-7 2-14 6-21 4-7 10-13 19-18 9-5 20-9 35-13 14-3 32-5 52-6l0-14c0-14-3-25-9-32-6-7-15-11-27-11-8 0-14 1-20 3-5 2-10 4-14 7-4 2-7 5-10 7-3 2-6 3-8 3-2 0-4-1-6-2-2-1-3-3-4-4l-6-10z"/>
		<line class="fil2 str3" x1="13662" y1="2977" x2="13662" y2="5889"/>
		<path class="fil3" d="M14122 3198c11-9 23-17 37-22 14-5 30-7 48-7 14 0 28 2 39 5 12 4 21 8 29 15 8 6 14 14 19 23 4 9 7 18 7 29 0 14-3 26-10 37-7 11-17 19-29 25 7 3 14 7 20 11 6 4 11 9 15 15 4 5 7 11 10 18 2 7 3 13 3 21 0 12-2 24-7 34-5 11-11 20-20 28-9 8-19 14-32 19-13 5-27 7-43 7-20 0-38-3-54-10-16-7-30-15-41-27l11-18c1-1 2-3 4-4 2-1 3-1 5-1 3 0 6 1 10 4 4 3 9 6 14 10 6 4 13 7 21 10 8 3 19 4 31 4 10 0 20-1 28-4 8-2 15-6 21-11 6-5 10-10 13-17 3-7 4-14 4-23 0-7-1-14-4-20-3-6-7-11-12-16-5-4-12-8-20-10-8-2-16-4-26-4l-38 0 0-31 37 0c8 0 15-1 22-3 7-2 13-5 18-9 5-4 9-8 12-14 3-5 4-12 4-19 0-6-1-12-4-18-3-5-6-10-11-14-5-4-11-7-18-9-7-2-15-3-24-3-11 0-20 1-27 3-7 2-14 5-19 7-5 3-9 5-12 7-3 2-6 3-8 3-2 0-4 0-5-1-1-1-3-2-4-5l-9-18z"/>
		<path class="fil3" d="M14460 3363c-16 1-30 2-41 4-11 2-20 5-28 8-7 3-12 7-15 12-3 4-5 9-5 15 0 5 1 10 3 14 2 4 4 7 7 9 3 2 6 4 10 5 4 1 8 2 13 2 6 0 12-1 17-2 5-1 10-3 14-5 5-2 9-5 13-8 4-3 8-7 12-11l0-41zm-113-81c11-11 23-18 35-24 13-5 27-8 42-8 11 0 21 2 30 5 9 4 16 9 22 15 6 7 10 14 13 24 3 9 5 19 5 31l0 127-15 0c-3 0-6-1-8-2-2-1-3-3-4-7l-4-19c-5 5-10 9-15 13-5 4-10 7-16 9-5 3-11 5-17 6-6 1-13 2-21 2-8 0-15-1-22-3-7-2-13-5-18-10-5-4-9-10-12-16-3-7-4-14-4-23 0-8 2-15 6-23 4-7 11-14 21-19 10-6 22-10 38-14 16-4 35-6 57-6l0-15c0-15-3-27-10-35-7-8-16-12-29-12-9 0-16 1-22 3-6 2-11 5-15 7-4 3-8 5-11 7-3 2-6 3-9 3-2 0-4-1-6-2-2-1-3-3-4-5l-6-11z"/>
		<path class="fil3" d="M14768 3264c2-3 4-5 7-7 3-2 6-3 10-3l27 0-51 76c-3 5-6 9-10 12-3 3-8 5-13 7 6 2 12 4 16 8 4 4 8 8 12 14l52 82-24 0c-6 0-11-1-14-3-3-2-6-5-9-9l-39-62c-6-10-15-15-28-15l-21 0 0 89-35 0 0-198 35 0 0 86 19 0c10 0 19-4 24-13l42-63z"/>
		<path class="fil3" d="M14957 3363c-16 1-30 2-41 4-11 2-20 5-28 8-7 3-12 7-15 12-3 4-5 9-5 15 0 5 1 10 3 14 2 4 4 7 7 9 3 2 6 4 10 5 4 1 8 2 13 2 6 0 12-1 17-2 5-1 10-3 14-5 5-2 9-5 13-8 4-3 8-7 12-11l0-41zm-113-81c11-11 23-18 35-24 13-5 27-8 42-8 11 0 21 2 30 5 9 4 16 9 22 15 6 7 10 14 13 24 3 9 5 19 5 31l0 127-15 0c-3 0-6-1-8-2-2-1-3-3-4-7l-4-19c-5 5-10 9-15 13-5 4-10 7-16 9-5 3-11 5-17 6-6 1-13 2-21 2-8 0-15-1-22-3-7-2-13-5-18-10-5-4-9-10-12-16-3-7-4-14-4-23 0-8 2-15 6-23 4-7 11-14 21-19 10-6 22-10 38-14 16-4 35-6 57-6l0-15c0-15-3-27-10-35-7-8-16-12-29-12-9 0-16 1-22 3-6 2-11 5-15 7-4 3-8 5-11 7-3 2-6 3-9 3-2 0-4-1-6-2-2-1-3-3-4-5l-6-11z"/>
		<path class="fil3" d="M15181 3427l0-145-63 0c-1 20-3 38-5 54-2 16-5 29-8 41-3 12-6 22-10 30-4 8-8 15-12 20l98 0zm70-1l0 84c0 3-1 6-3 8-2 2-4 3-7 3l-21 0 0-68-167 0 0 58c0 2-1 5-2 7-2 2-4 3-7 3l-22 0 0-94 6 0c5 0 9-1 14-2 5-2 9-5 13-9 4-4 8-11 12-18 4-8 7-18 10-31 3-13 6-28 8-47 2-18 4-40 5-65l125 0 0 172 36 0z"/>
		<path class="fil3" d="M15321 3405c6 9 13 15 21 18 8 4 16 5 25 5 19 0 33-7 43-20 10-13 15-32 15-56 0-13-1-24-3-33-2-9-6-17-10-23-4-6-10-10-16-13-6-3-13-4-21-4-11 0-21 3-30 8-9 5-16 13-24 22l0 96zm-2-120c8-10 18-19 29-25 11-6 23-9 38-9 11 0 22 2 31 7 9 4 17 11 24 19 7 9 12 19 15 32 4 13 5 27 5 44 0 15-2 28-6 41-4 13-10 23-17 33-7 9-16 16-27 22-11 5-23 8-36 8-12 0-23-2-31-6-9-4-16-10-23-17l0 88-35 0 0-265 21 0c5 0 8 2 9 7l3 23z"/>
		<path class="fil3" d="M15589 3251c14 0 28 2 39 7 12 5 22 12 30 21 8 9 15 20 19 32 4 13 7 27 7 42 0 16-2 30-7 42-4 13-11 23-19 32-8 9-18 16-30 20-12 5-25 7-39 7-15 0-28-2-39-7-12-5-22-12-30-20-8-9-14-20-19-32-4-13-7-27-7-42 0-16 2-30 7-42 4-13 11-23 19-32 8-9 18-16 30-21 12-5 25-7 39-7zm0 177c20 0 34-7 44-20 10-13 14-31 14-55 0-24-5-42-14-55-10-13-24-20-44-20-10 0-19 2-26 5-7 3-14 8-18 15-5 6-9 14-11 24-2 9-4 20-4 32 0 23 5 42 15 55 10 13 24 20 44 20z"/>
		<path class="fil3" d="M15949 3254l0 199-32 0 0-132c0-4 0-8 1-12 0-5 1-9 2-13l-69 121c-1 2-2 4-4 5-2 1-4 2-6 2l-4 0c-2 0-4-1-6-2-2-1-3-3-4-5l-70-121c1 4 1 8 2 13 1 5 1 9 1 12l0 132-32 0 0-199 28 0c2 0 5 1 7 2 2 1 4 3 6 6l62 103c3 6 6 12 8 19 2-7 5-13 8-19l61-103c2-3 4-5 6-6 2-1 5-2 7-2l28 0z"/>
		<path class="fil3" d="M16001 3431c0-3 1-7 2-10 1-3 3-6 5-8 2-2 5-4 8-5 3-1 6-2 10-2 3 0 7 1 10 2 3 1 6 3 8 5 2 2 4 5 5 8 1 3 2 6 2 10 0 4-1 7-2 10-1 3-3 6-5 8-2 2-5 4-8 5-3 1-6 2-10 2-3 0-7-1-10-2-3-1-6-3-8-5-2-2-4-5-5-8-1-3-2-6-2-10zm0-147c0-3 1-7 2-10 1-3 3-6 5-8 2-2 5-4 8-5 3-1 6-2 10-2 3 0 7 1 10 2 3 1 6 3 8 5 2 2 4 5 5 8 1 3 2 6 2 10 0 4-1 7-2 10-1 3-3 6-5 8-2 2-5 4-8 5-3 1-6 2-10 2-3 0-7-1-10-2-3-1-6-3-8-5-2-2-4-5-5-8-1-3-2-6-2-10z"/>
		<polygon class="fil3" points="14127 3790 14224 3790 14224 3820 14127 3820 "/>
		<path class="fil3" d="M14452 3898c13 0 23-3 31-9 8-6 11-14 11-25 0-5-1-9-2-13-1-4-4-7-7-10-3-3-8-5-13-7-5-2-12-2-20-2l-43 0 0 66 43 0zm-43-150l0 62 38 0c6 0 11-1 16-2 5-2 9-4 13-7 4-3 6-6 8-11 2-4 3-9 3-14 0-4-1-7-2-11-1-3-4-7-7-9-3-3-7-5-12-6-5-2-11-2-19-2l-38 0zm39-23c12 0 23 1 32 4 9 2 16 6 22 10 6 4 10 9 12 15 3 6 4 12 4 18 0 4-1 9-2 14-1 5-3 9-6 14-3 4-7 8-12 12-5 3-11 6-19 8 15 3 27 8 35 16 8 8 12 18 12 31 0 10-2 18-6 25-4 7-9 13-16 18-7 5-15 8-24 11-9 2-19 4-29 4l-76 0 0-198 73 0z"/>
		<path class="fil3" d="M14703 3802c0-8-1-16-3-22-2-7-6-13-10-17-4-5-10-9-16-11-6-3-13-4-21-4-17 0-30 5-40 15-10 10-16 23-18 40l108 0zm28 93c-4 5-9 10-15 14-6 4-12 7-19 10-7 2-14 4-21 6-7 1-15 2-22 2-14 0-26-2-38-7-12-5-22-11-30-20-8-9-15-20-20-33-5-13-7-28-7-45 0-14 2-27 6-39 4-12 10-22 18-31 8-9 18-16 29-21 11-5 24-7 39-7 12 0 23 2 33 6 10 4 19 10 26 17 7 8 13 17 17 28 4 11 6 24 6 38 0 5-1 9-2 11-1 2-3 3-7 3l-133 0c0 13 2 23 5 33 3 9 7 17 13 23 5 6 12 11 20 14 8 3 16 5 25 5 9 0 16-1 23-3 6-2 12-4 16-7 5-2 8-5 11-7 3-2 6-3 8-3 3 0 5 1 7 3l10 13z"/>
		<path class="fil3" d="M14812 3875c6 9 13 15 21 18 8 4 16 5 25 5 19 0 33-7 43-20 10-13 15-32 15-56 0-13-1-24-3-33-2-9-6-17-10-23-4-6-10-10-16-13-6-3-13-4-21-4-11 0-21 3-30 8-9 5-16 13-24 22l0 96zm-2-120c8-10 18-19 29-25 11-6 23-9 38-9 11 0 22 2 31 7 9 4 17 11 24 19 7 9 12 19 15 32 4 13 5 27 5 44 0 15-2 28-6 41-4 13-10 23-17 33-7 9-16 16-27 22-11 5-23 8-36 8-12 0-23-2-31-6-9-4-16-10-23-17l0 88-35 0 0-265 21 0c5 0 8 2 9 7l3 23z"/>
		<path class="fil3" d="M15134 3759c-1 1-2 3-3 3-1 1-2 1-4 1-2 0-4-1-6-2-2-2-5-3-9-5-3-2-8-4-13-5-5-2-11-2-19-2-10 0-18 2-26 5-7 3-14 8-19 15-5 7-9 14-11 24-3 9-4 20-4 31 0 12 1 23 4 32 3 9 7 17 12 23 5 6 11 11 18 14 7 3 15 5 24 5 8 0 15-1 21-3 5-2 10-4 14-7 4-2 7-5 9-7 2-2 5-3 7-3 3 0 5 1 7 3l10 13c-4 5-9 10-15 14-5 4-11 7-18 9-6 3-13 4-20 6-7 1-14 2-21 2-12 0-24-2-35-7-11-5-20-11-28-20-8-9-14-19-18-32-4-13-7-27-7-43 0-15 2-28 6-41 4-13 10-23 18-32 8-9 18-16 29-21 12-5 25-8 40-8 14 0 26 2 37 7 11 5 20 11 28 19l-9 13z"/>
		<polygon class="fil3" points="15348 3751 15272 3751 15272 3922 15237 3922 15237 3751 15161 3751 15161 3724 15348 3724 "/>
		<path class="fil3" d="M15487 3833c-16 1-30 2-41 4-11 2-20 5-28 8-7 3-12 7-15 12-3 4-5 9-5 15 0 5 1 10 3 14 2 4 4 7 7 9 3 2 6 4 10 5 4 1 8 2 13 2 6 0 12-1 17-2 5-1 10-3 14-5 5-2 9-5 13-8 4-3 8-7 12-11l0-41zm-113-81c11-11 23-18 35-24 13-5 27-8 42-8 11 0 21 2 30 5 9 4 16 9 22 15 6 7 10 14 13 24 3 9 5 19 5 31l0 127-15 0c-3 0-6-1-8-2-2-1-3-3-4-7l-4-19c-5 5-10 9-15 13-5 4-10 7-16 9-5 3-11 5-17 6-6 1-13 2-21 2-8 0-15-1-22-3-7-2-13-5-18-10-5-4-9-10-12-16-3-7-4-14-4-23 0-8 2-15 6-23 4-7 11-14 21-19 10-6 22-10 38-14 16-4 35-6 57-6l0-15c0-15-3-27-10-35-7-8-16-12-29-12-9 0-16 1-22 3-6 2-11 5-15 7-4 3-8 5-11 7-3 2-6 3-9 3-2 0-4-1-6-2-2-1-3-3-4-5l-6-11z"/>
		<path class="fil3" d="M15748 3922l-35 0 0-171-63 0c-2 25-4 47-7 65-3 18-7 34-11 47-4 13-9 23-15 31-5 8-11 14-17 19-6 4-12 7-18 9-6 2-13 2-19 2-11 0-17-2-17-5l0-22 10 0c4 0 9-1 14-2 5-2 9-5 13-9 4-4 9-11 13-19 4-8 8-18 11-31 3-13 6-28 9-47 2-18 4-40 6-65l126 0 0 198z"/>
		<path class="fil3" d="M15879 3897c7 0 13-1 18-3 5-2 9-4 13-7 3-3 6-7 8-11 2-4 3-9 3-14 0-5-1-9-2-13-1-4-4-8-7-11-3-3-8-6-13-7-5-2-12-3-20-3l-42 0 0 70 43 0zm-1-95c14 0 25 2 35 5 9 3 17 8 23 13 6 5 10 12 12 19 2 7 4 15 4 22 0 9-2 17-5 25-3 7-8 14-14 19-6 5-14 10-23 13-9 3-19 5-31 5l-76 0 0-198 33 0 0 78 42 0z"/>
		<path class="fil3" d="M16293 3896l0 84c0 3-1 6-3 8-2 2-4 3-7 3l-22 0 0-68-271 0 0-198 35 0 0 172 81 0 0-172 35 0 0 172 81 0 0-172 35 0 0 172 36 0z"/>
		<path class="fil3" d="M16499 3724l0 198-35 0 0-135c0-3 0-5 0-8 0-3 1-6 1-9-1 3-2 5-4 7-1 2-2 4-4 6l-96 130c-1 2-3 4-5 6-2 2-5 3-7 3l-21 0 0-198 35 0 0 135c0 2 0 5 0 8 0 3-1 6-1 9 1-2 2-5 4-7 1-2 2-4 4-6l96-130c1-2 3-4 5-6 2-2 5-3 7-3l21 0z"/>
		<path class="fil3" d="M16674 3734c2-3 4-5 7-7 3-2 6-3 10-3l27 0-51 76c-3 5-6 9-10 12-3 3-8 5-13 7 6 2 12 4 16 8 4 4 8 8 12 14l52 82-24 0c-6 0-11-1-14-3-3-2-6-5-9-9l-39-62c-6-10-15-15-28-15l-21 0 0 89-35 0 0-198 35 0 0 86 19 0c10 0 19-4 24-13l42-63z"/>
		<path class="fil3" d="M16927 3724l0 198-35 0 0-135c0-3 0-5 0-8 0-3 1-6 1-9-1 3-2 5-4 7-1 2-2 4-4 6l-96 130c-1 2-3 4-5 6-2 2-5 3-7 3l-21 0 0-198 35 0 0 135c0 2 0 5 0 8 0 3-1 6-1 9 1-2 2-5 4-7 1-2 2-4 4-6l96-130c1-2 3-4 5-6 2-2 5-3 7-3l21 0z"/>
		<polygon class="fil3" points="14127 4260 14224 4260 14224 4290 14127 4290 "/>
		<path class="fil3" d="M14513 4367l0-145-63 0c-1 20-3 38-5 54-2 16-5 29-8 41-3 12-6 22-10 30-4 8-8 15-12 20l98 0zm70-1l0 84c0 3-1 6-3 8-2 2-4 3-7 3l-21 0 0-68-167 0 0 58c0 2-1 5-2 7-2 2-4 3-7 3l-22 0 0-94 6 0c5 0 9-1 14-2 5-2 9-5 13-9 4-4 8-11 12-18 4-8 7-18 10-31 3-13 6-28 8-47 2-18 4-40 5-65l125 0 0 172 36 0z"/>
		<path class="fil3" d="M14788 4194l0 198-35 0 0-135c0-3 0-5 0-8 0-3 1-6 1-9-1 3-2 5-4 7-1 2-2 4-4 6l-96 130c-1 2-3 4-5 6-2 2-5 3-7 3l-21 0 0-198 35 0 0 135c0 2 0 5 0 8 0 3-1 6-1 9 1-2 2-5 4-7 1-2 2-4 4-6l96-130c1-2 3-4 5-6 2-2 5-3 7-3l21 0z"/>
		<path class="fil3" d="M14831 4214c7-7 17-13 27-17 11-4 23-6 38-6 12 0 23 1 32 4 9 3 17 7 23 12 6 5 11 10 14 17 3 6 5 13 5 19 0 4-1 8-2 12-1 4-3 8-6 12-3 4-7 8-11 11-5 3-10 6-17 8 13 4 23 10 30 18 7 8 11 19 11 31 0 9-2 17-6 25-4 7-10 14-17 19-7 5-15 9-25 12-9 3-19 4-29 4-6 0-13-1-19-2-7-1-13-3-19-6-6-3-12-6-18-9-6-4-11-8-15-14l10-13c2-2 4-3 7-3 2 0 5 1 8 3 3 2 6 4 10 7 4 2 9 5 14 7 6 2 13 3 21 3 7 0 14-1 19-3 6-2 10-4 14-7 4-3 7-7 9-11 2-4 3-9 3-14 0-10-4-18-12-24-8-6-21-9-37-9l-23 0 0-23 23 0c7 0 14-1 19-2 6-1 11-4 15-6 4-3 7-6 9-10 2-4 3-8 3-12 0-4-1-8-3-11-2-4-4-7-8-9-4-3-8-5-13-6-5-2-12-2-19-2-8 0-14 1-20 2-5 2-10 3-14 5-4 2-7 4-9 5-2 2-4 2-6 2-2 0-3 0-4-1-1-1-2-2-4-4l-8-14z"/>
		<path class="fil3" d="M15127 4303c-16 1-30 2-41 4-11 2-20 5-28 8-7 3-12 7-15 12-3 4-5 9-5 15 0 5 1 10 3 14 2 4 4 7 7 9 3 2 6 4 10 5 4 1 8 2 13 2 6 0 12-1 17-2 5-1 10-3 14-5 5-2 9-5 13-8 4-3 8-7 12-11l0-41zm-113-81c11-11 23-18 35-24 13-5 27-8 42-8 11 0 21 2 30 5 9 4 16 9 22 15 6 7 10 14 13 24 3 9 5 19 5 31l0 127-15 0c-3 0-6-1-8-2-2-1-3-3-4-7l-4-19c-5 5-10 9-15 13-5 4-10 7-16 9-5 3-11 5-17 6-6 1-13 2-21 2-8 0-15-1-22-3-7-2-13-5-18-10-5-4-9-10-12-16-3-7-4-14-4-23 0-8 2-15 6-23 4-7 11-14 21-19 10-6 22-10 38-14 16-4 35-6 57-6l0-15c0-15-3-27-10-35-7-8-16-12-29-12-9 0-16 1-22 3-6 2-11 5-15 7-4 3-8 5-11 7-3 2-6 3-9 3-2 0-4-1-6-2-2-1-3-3-4-5l-6-11z"/>
		<path class="fil3" d="M15384 4194l0 198-35 0 0-135c0-3 0-5 0-8 0-3 1-6 1-9-1 3-2 5-4 7-1 2-2 4-4 6l-96 130c-1 2-3 4-5 6-2 2-5 3-7 3l-21 0 0-198 35 0 0 135c0 2 0 5 0 8 0 3-1 6-1 9 1-2 2-5 4-7 1-2 2-4 4-6l96-130c1-2 3-4 5-6 2-2 5-3 7-3l21 0zm-83-48c5 0 10-1 14-2 4-1 7-3 9-6 2-3 4-6 5-11 1-4 2-10 2-16l20 0c2 0 4 1 6 3 1 2 2 5 2 7 0 7-1 12-4 18-3 5-6 10-11 13-5 4-11 7-18 9-7 2-15 3-24 3-9 0-17-1-24-3-7-2-13-5-18-9-5-4-9-8-11-13-3-5-4-11-4-18 0-3 1-5 2-7 1-2 3-3 6-3l20 0c0 6 1 12 2 16 1 4 3 8 5 11 2 3 5 5 9 6 4 1 8 2 14 2z"/>
		<polygon class="fil3" points="15604 4194 15604 4392 15569 4392 15569 4299 15474 4299 15474 4392 15439 4392 15439 4194 15474 4194 15474 4273 15569 4273 15569 4194 "/>
		<path class="fil3" d="M15792 4271c0-8-1-16-3-22-2-7-6-13-10-17-4-5-10-9-16-11-6-3-13-4-21-4-17 0-30 5-40 15-10 10-16 23-18 40l108 0zm28 93c-4 5-9 10-15 14-6 4-12 7-19 10-7 2-14 4-21 6-7 1-15 2-22 2-14 0-26-2-38-7-12-5-22-11-30-20-8-9-15-20-20-33-5-13-7-28-7-45 0-14 2-27 6-39 4-12 10-22 18-31 8-9 18-16 29-21 11-5 24-7 39-7 12 0 23 2 33 6 10 4 19 10 26 17 7 8 13 17 17 28 4 11 6 24 6 38 0 5-1 9-2 11-1 2-3 3-7 3l-133 0c0 13 2 23 5 33 3 9 7 17 13 23 5 6 12 11 20 14 8 3 16 5 25 5 9 0 16-1 23-3 6-2 12-4 16-7 5-2 8-5 11-7 3-2 6-3 8-3 3 0 5 1 7 3l10 13z"/>
		<path class="fil3" d="M15901 4344c6 9 13 15 21 18 8 4 16 5 25 5 19 0 33-7 43-20 10-13 15-32 15-56 0-13-1-24-3-33-2-9-6-17-10-23-4-6-10-10-16-13-6-3-13-4-21-4-11 0-21 3-30 8-9 5-16 13-24 22l0 96zm-2-120c8-10 18-19 29-25 11-6 23-9 38-9 11 0 22 2 31 7 9 4 17 11 24 19 7 9 12 19 15 32 4 13 5 27 5 44 0 15-2 28-6 41-4 13-10 23-17 33-7 9-16 16-27 22-11 5-23 8-36 8-12 0-23-2-31-6-9-4-16-10-23-17l0 88-35 0 0-265 21 0c5 0 8 2 9 7l3 23z"/>
		<path class="fil3" d="M16161 4367c7 0 13-1 18-3 5-2 9-4 13-7 3-3 6-7 8-11 2-4 3-9 3-14 0-5-1-9-2-13-1-4-4-8-7-11-3-3-8-6-13-7-5-2-12-3-20-3l-42 0 0 70 43 0zm-1-95c14 0 25 2 35 5 9 3 17 8 23 13 6 5 10 12 12 19 2 7 4 15 4 22 0 9-2 17-5 25-3 7-8 14-14 19-6 5-14 10-23 13-9 3-19 5-31 5l-76 0 0-198 33 0 0 78 42 0zm152-78l0 198-35 0 0-198 35 0z"/>
		<g>
			<path class="fil0" d="M14971 4751c4 0 8 4 8 8l0 605c0 3-1 4-3 6l-126 126c-1 1-3 3-6 3l-450 0c-4 0-8-4-8-8l0-731c0-4 4-8 8-8l576 0z"/>
			<path class="fil1" d="M14979 4759c0-4-4-8-8-8l-576 0c-4 0-8 4-8 8l0 731c0 4 4 8 8 8l450 0c3 0 4-1 6-3l126-126c1-1 3-3 3-6 0 0 0 0 0 0l0-605zm-576 8l559 0 0 587-34 0 0-77c0-4-4-8-8-8l-238 0c-4 0-8 4-8 8l0 161c0 4 4 8 8 8l154 0 0 32-433 0 0-711zm507 587l-66 0c-4 0-8 4-8 8l0 67-145 0 0-143 219 0 0 67zm-57 113l0-96 96 0-48 48-49 49z"/>
			<path class="fil1" d="M14447 5057l472 0c4 0 8-4 8-8l0-232c0-4-4-8-8-8l-472 0c-4 0-8 4-8 8l0 232c0 6 3 8 8 8zm8-232l456 0 0 215-456 0 0-215z"/>
			<path class="fil1" d="M14642 5083l-196 0c-4 0-8 4-8 8l0 347c0 4 4 8 8 8l196 0c4 0 8-4 8-8l0-347c0-4-4-8-8-8zm-10 347l-178 0 0-330 178 0 0 330z"/>
			<path class="fil1" d="M14919 5083l-236 0c-4 0-8 4-8 8l0 148c0 4 4 8 8 8l236 0c4 0 8-4 8-8l0-148c0-4-3-8-8-8zm-8 148l-219 0 0-131 219 0 0 131z"/>
		</g>
		<g>
			<polygon class="fil0" points="15231 4751 15861 4751 15861 5498 15231 5498 "/>
			<rect class="fil1" x="15302" y="4841" width="181" height="222"/>
			<rect class="fil1" x="15400" y="5103" width="83" height="83"/>
			<rect class="fil1" x="15302" y="5103" width="83" height="83"/>
			<rect class="fil1" x="15302" y="5201" width="83" height="83"/>
			<rect class="fil1" x="15527" y="4841" width="258" height="42"/>
			<rect class="fil1" x="15530" y="4920" width="75" height="32"/>
			<rect class="fil1" x="15621" y="4920" width="85" height="32"/>
			<rect class="fil1" x="15530" y="4984" width="48" height="32"/>
			<rect class="fil1" x="15589" y="4984" width="75" height="32"/>
			<rect class="fil1" x="15674" y="4984" width="75" height="32"/>
			<rect class="fil1" x="15530" y="5048" width="75" height="32"/>
			<rect class="fil1" x="15615" y="5048" width="107" height="32"/>
			<rect class="fil1" x="15530" y="5173" width="203" height="32"/>
			<rect class="fil1" x="15530" y="5237" width="75" height="32"/>
			<rect class="fil1" x="15621" y="5237" width="85" height="32"/>
			<rect class="fil1" x="15530" y="5301" width="48" height="32"/>
			<rect class="fil1" x="15589" y="5301" width="75" height="32"/>
			<rect class="fil1" x="15674" y="5301" width="75" height="32"/>
			<rect class="fil1" x="15530" y="5365" width="75" height="32"/>
			<rect class="fil1" x="15615" y="5365" width="107" height="32"/>
			<path class="fil1" d="M15231 4751l0 748 630 0 0-748-630 0zm598 716l-566 0 0-684 566 0 0 684z"/>
		</g>
	</g>
</svg>
