<?xml version="1.0" encoding="UTF-8"?>
<svg xmlns="http://www.w3.org/2000/svg" xmlns:xlink="http://www.w3.org/1999/xlink" xml:space="preserve" height="460px" viewBox="0 0 15907 3774" version="1.1" baseProfile="full" style="clip-rule:evenodd;fill-rule:evenodd;image-rendering:optimizeQuality;shape-rendering:geometricPrecision;text-rendering:optimizeLegibility">
	<defs>
		<style type="text/css"><![CDATA[
			.fil0 {fill:black;fill-rule:nonzero}
		]]></style>
	</defs>
	<g>
		<polygon class="fil0" points="405 537 299 537 354 87 161 87 106 537 0 537 65 7 470 7 "/>
		<path class="fil0" d="M645 466c14 0 27-4 38-12 11-8 21-19 28-33 8-14 14-30 18-49 4-19 6-38 6-59 0-29-5-50-14-63-9-13-23-19-42-19-14 0-26 4-38 12-11 8-21 19-29 33-8 14-14 30-18 49-4 19-6 38-6 59 0 29 5 50 14 63 9 13 23 20 42 20zm-9 76c-21 0-40-4-58-10-18-7-34-17-47-30-13-13-23-30-31-50-7-20-11-42-11-68 0-33 5-63 16-92 11-28 25-52 43-73 18-20 40-37 64-48 24-12 50-17 77-17 21 0 40 3 58 10 18 7 33 17 46 31 13 14 23 30 31 50 8 20 11 42 11 68 0 33-5 63-16 91-11 28-25 52-44 73-18 20-40 37-64 48-24 12-50 18-77 18z"/>
		<path class="fil0" d="M1031 466c14 0 27-4 39-12 12-8 23-21 31-39 9-18 16-40 21-67 5-27 8-60 8-98-7-5-15-9-24-13-9-3-19-5-29-5-15 0-29 4-42 11-13 8-24 18-33 31-9 13-16 29-21 47-5 18-8 38-8 59 0 15 1 28 4 39 3 11 7 20 12 26 5 7 11 12 18 15 7 3 15 5 23 5zm-85-460c42-5 80-5 115 0 35 5 65 17 90 35 25 19 44 45 58 79 14 34 21 78 21 131 0 45-5 86-16 122-11 36-26 67-45 92-19 25-41 45-67 58-26 14-53 20-83 20-21 0-40-3-58-10-18-7-33-17-46-30-13-14-23-30-31-51-7-20-11-44-11-71 0-28 5-56 13-82 9-26 21-50 37-70 16-20 35-37 57-49 22-12 47-18 74-18 17 0 32 2 45 7 13 5 25 12 36 21-4-24-10-44-19-59-9-15-21-28-35-36-14-9-32-15-52-18-20-3-43-5-69-4-9 0-14-2-17-5-3-4-4-9-2-17l5-45z"/>
		<path class="fil0" d="M1279 208c8-8 18-15 28-21 11-7 23-12 35-17 13-5 26-8 41-11 14-3 29-4 43-4 21 0 40 2 55 7 16 5 28 12 39 20 10 8 18 18 23 28 5 11 7 22 7 34 0 9-1 18-4 26-3 9-7 17-14 25-6 8-14 15-24 21-10 6-22 12-37 16 21 5 37 14 48 27 11 13 17 30 17 51 0 15-3 31-10 46-7 15-17 30-31 42-14 13-32 23-53 31-22 8-47 12-77 12-24 0-46-4-68-11-22-7-43-20-64-38l26-41c2-3 5-6 8-9 4-3 7-4 11-4 6 0 11 1 16 5 5 3 11 6 17 10 6 4 14 7 23 10 9 3 21 5 35 5 12 0 23-2 32-5 9-3 17-7 23-13 6-5 11-12 14-19 3-7 5-15 5-24 0-8-1-14-4-20-2-5-6-9-10-13-5-3-10-5-16-7-6-1-13-2-21-2-8 0-17 1-28 2-11 2-21 3-30 5 0-12 1-24 2-36 1-11 4-23 9-35 7 1 13 2 19 3 6 1 13 1 19 1 14 0 25-1 35-4 10-3 17-7 23-11 6-4 10-9 13-15 3-5 4-11 4-16 0-10-4-19-12-26-8-7-22-10-41-10-13 0-24 1-33 4-9 3-17 5-23 9-7 3-12 6-17 9-5 3-9 5-14 5-4 0-8 0-11-1-3-1-6-5-10-10l-21-34z"/>
		<path class="fil0" d="M1830 225c-2 0-4 0-7 0-2 0-4 0-7 0-19 0-37 4-54 13-16 9-30 21-42 36-12 15-21 33-28 53-7 20-10 41-10 63 0 25 4 44 12 55 8 11 18 17 31 17 9 0 18-3 27-10 9-7 17-16 25-27 8-11 15-25 22-40 7-15 12-32 17-49l14-110zm-25 241c-16 24-34 42-54 56-20 14-42 20-66 20-14 0-27-3-40-8-13-5-24-14-33-25-9-11-17-25-22-42-5-17-8-37-8-59 0-23 3-45 8-66 6-21 14-41 24-60 10-19 23-36 38-52 15-16 32-29 50-40 18-11 38-20 60-26 22-6 44-9 68-9 18 0 35 1 53 4 18 3 35 7 52 13l-45 365-54 0c-6 0-12-1-16-3-4-2-8-4-10-7-3-3-4-6-5-10-1-4-1-8-1-13l1-38z"/>
		<path class="fil0" d="M2118 155c16 0 30 2 45 6 14 4 27 9 37 17 11 7 19 17 26 28 6 11 10 25 10 40 0 18-4 33-13 47-9 14-20 26-33 37-13 11-28 21-43 30-15 9-30 18-43 27-13 9-24 17-33 26-9 9-13 18-13 28 0 6 3 12 9 17 6 5 16 8 29 8 10 0 19-1 27-4 8-3 16-6 22-10 7-4 13-7 19-10 5-3 10-4 15-4 5 0 8 1 11 2 3 2 6 4 9 8l24 35c-10 10-21 18-32 26-11 7-23 13-36 18-12 5-25 9-38 11-13 2-26 4-38 4-19 0-36-2-51-7-15-5-28-11-38-19-10-8-19-18-24-30-6-11-8-24-8-37 0-14 3-26 8-38 5-11 12-22 21-32 9-10 18-19 29-27 11-8 22-16 33-23 11-7 23-14 33-21 11-7 20-13 29-19 9-6 15-12 21-18 5-6 8-12 8-18 0-6-3-11-8-15-5-4-14-7-25-7-8 0-16 1-23 3-7 2-14 5-20 8-6 3-12 5-18 7-5 2-10 4-15 4-3 0-5 0-9-2-3-1-6-5-9-10l-22-41c17-14 36-25 58-33 22-8 45-12 68-12z"/>
		<path class="fil0" d="M2423 466c14 0 27-4 38-12 11-8 21-19 28-33 8-14 14-30 18-49 4-19 6-38 6-59 0-29-5-50-14-63-9-13-23-19-42-19-14 0-26 4-38 12-11 8-21 19-29 33-8 14-14 30-18 49-4 19-6 38-6 59 0 29 5 50 14 63 9 13 23 20 42 20zm-9 76c-21 0-40-4-58-10-18-7-34-17-47-30-13-13-23-30-31-50-7-20-11-42-11-68 0-33 5-63 16-92 11-28 25-52 43-73 18-20 40-37 64-48 24-12 50-17 77-17 21 0 40 3 58 10 18 7 33 17 46 31 13 14 23 30 31 50 8 20 11 42 11 68 0 33-5 63-16 91-11 28-25 52-44 73-18 20-40 37-64 48-24 12-50 18-77 18z"/>
		<path class="fil0" d="M2708 332c7-31 16-57 27-79 10-22 24-39 40-53 16-14 35-24 58-30 23-6 50-10 81-10l96 0-46 376-97 0 37-303-11 0c-13 0-24 2-33 5-9 3-18 9-25 17-7 8-13 19-18 32-5 13-10 30-14 51-8 39-17 72-27 98-10 26-22 47-34 63-13 16-27 27-42 34-15 7-32 10-50 10-15 0-25-1-30-4-6-2-8-7-8-14l7-56 11 0c11 0 20-2 27-7 7-4 14-12 19-23 6-11 11-25 16-42 5-18 10-39 17-66z"/>
		<path class="fil0" d="M3200 466c14 0 27-4 38-12 11-8 21-19 28-33 8-14 14-30 18-49 4-19 6-38 6-59 0-29-5-50-14-63-9-13-23-19-42-19-14 0-26 4-38 12-11 8-21 19-29 33-8 14-14 30-18 49-4 19-6 38-6 59 0 29 5 50 14 63 9 13 23 20 42 20zm-9 76c-21 0-40-4-58-10-18-7-34-17-47-30-13-13-23-30-31-50-7-20-11-42-11-68 0-33 5-63 16-92 11-28 25-52 43-73 18-20 40-37 64-48 24-12 50-17 77-17 21 0 40 3 58 10 18 7 33 17 46 31 13 14 23 30 31 50 8 20 11 42 11 68 0 33-5 63-16 91-11 28-25 52-44 73-18 20-40 37-64 48-24 12-50 18-77 18z"/>
		<path class="fil0" d="M3525 381c0 28 5 50 14 65 10 16 24 23 45 22 9 0 17-3 25-6 7-4 14-8 19-14 5-6 9-12 12-20 3-7 4-15 4-23 0-7-1-13-3-19-2-6-6-10-10-14-5-4-11-6-19-7-8-1-17-1-28 1l-58 14zm58-72c14-3 26-7 35-11 9-4 16-9 21-14 5-5 8-10 10-16 2-5 3-11 3-17 0-9-2-17-7-23-4-6-12-9-23-9-9 0-19 2-28 7-9 5-18 12-26 20-8 9-15 20-21 32-6 13-11 27-15 42l52-13zm69 20c12 1 23 3 33 7 10 4 19 9 27 15 7 6 13 14 18 23 4 9 6 20 6 32 0 17-4 33-11 49-7 16-18 31-32 44-14 13-31 23-52 31-20 8-43 12-69 12-24 0-45-4-63-11-18-7-33-17-46-31-12-13-22-29-28-48-6-19-9-40-9-64 0-21 2-42 7-61 5-20 12-38 20-56 9-17 19-33 32-48 12-14 26-27 42-37 15-10 32-18 50-24 18-6 37-9 56-9 17 0 32 2 45 6 13 4 24 10 32 17 9 7 15 15 20 25 5 10 7 20 7 31 0 19-7 37-21 54-14 17-35 31-64 41z"/>
		<path class="fil0" d="M3938 466c14 0 27-4 38-12 11-8 21-19 28-33 8-14 14-30 18-49 4-19 6-38 6-59 0-29-5-50-14-63-9-13-23-19-42-19-14 0-26 4-38 12-11 8-21 19-29 33-8 14-14 30-18 49-4 19-6 38-6 59 0 29 5 50 14 63 9 13 23 20 42 20zm-9 76c-21 0-40-4-58-10-18-7-34-17-47-30-13-13-23-30-31-50-7-20-11-42-11-68 0-33 5-63 16-92 11-28 25-52 43-73 18-20 40-37 64-48 24-12 50-17 77-17 21 0 40 3 58 10 18 7 33 17 46 31 13 14 23 30 31 50 8 20 11 42 11 68 0 33-5 63-16 91-11 28-25 52-44 73-18 20-40 37-64 48-24 12-50 18-77 18z"/>
		<path class="fil0" d="M4375 238c10-15 19-27 26-37 7-10 14-18 21-24 7-6 15-11 24-13 9-3 20-4 34-4l42 0-11 51c-1 7-4 12-7 14-3 2-7 4-11 5-4 1-8 3-13 5-5 2-10 6-14 13l-35 51c-4 5-7 10-11 14-4 4-7 8-11 11-4 3-8 6-12 8-4 2-9 4-15 5 16 3 29 9 38 17 9 8 17 21 23 37l54 148-57 0c-9 0-16-1-22-2-6-1-12-4-16-6-5-3-8-6-12-10-3-4-6-9-9-14l-35-102c-3-9-7-16-14-22-7-5-14-8-23-8l-30 6-19 158-97 0 46-376 97 0-19 155 17-4c5-1 9-2 12-3 3-1 6-2 9-4 3-1 5-3 7-5 2-2 4-5 7-9l37-52z"/>
		<polygon class="fil0" points="4805 393 4910 393 4910 425 4805 425 "/>
		<path class="fil0" d="M5226 359c-1 2-2 3-3 4-1 1-3 1-5 1-2 0-4-1-7-3-3-2-6-4-9-6-4-2-8-4-14-6-5-2-12-3-20-3-11 0-20 2-28 6-8 4-15 9-20 16-5 7-10 16-12 26-3 10-4 21-4 34 0 13 1 25 4 35 3 10 7 19 13 26 5 7 12 12 20 16 8 4 16 5 26 5 9 0 17-1 23-3 6-2 11-5 15-7 4-3 7-5 10-7 3-2 5-3 8-3 3 0 6 1 7 4l11 14c-5 6-10 11-16 15-6 4-12 8-19 10-7 3-14 5-22 6-8 1-15 2-23 2-13 0-26-2-38-7-12-5-22-12-30-22-9-9-15-21-20-35-5-14-7-29-7-47 0-16 2-31 7-45 4-14 11-25 20-35 9-10 19-18 32-23 13-6 27-8 43-8 15 0 29 2 40 7 12 5 22 12 31 21l-10 14z"/>
		<polygon class="fil0" points="5459 350 5376 350 5376 537 5338 537 5338 350 5255 350 5255 321 5459 321 "/>
		<path class="fil0" d="M5680 321l0 216-38 0 0-147c0-3 0-6 0-9 0-3 1-7 1-10-1 3-3 5-4 8-1 2-3 5-4 7l-104 142c-2 2-3 4-6 6-2 2-5 3-8 3l-23 0 0-216 38 0 0 147c0 3 0 6 0 9 0 3-1 6-1 10 1-3 3-5 4-8 1-2 3-4 4-6l104-142c2-2 4-4 6-7 2-2 5-3 8-3l23 0z"/>
		<path class="fil0" d="M5929 537l-38 0 0-186-68 0c-2 27-4 51-8 71-3 20-7 37-12 51-5 14-10 25-16 34-6 9-12 16-19 20-6 5-13 8-20 10-7 2-14 3-21 3-12 0-18-2-18-6l0-24 11 0c5 0 10-1 15-3 5-2 10-5 15-10 5-5 9-12 14-20 4-9 8-20 12-34 4-14 7-31 9-51 3-20 5-44 6-71l138 0 0 216z"/>
		<path class="fil0" d="M6072 509c8 0 14-1 20-3 6-2 10-5 14-8 4-3 6-8 8-12 2-5 3-10 3-15 0-5-1-10-2-14-2-4-4-8-8-12-4-3-8-6-14-8-6-2-13-3-21-3l-46 0 0 76 46 0zm-1-104c15 0 27 2 38 5 10 4 18 8 24 14 6 6 11 13 13 21 3 8 4 16 4 24 0 10-2 19-5 27-3 8-8 15-15 21-7 6-15 11-25 14-10 3-21 5-34 5l-83 0 0-216 36 0 0 85 46 0z"/>
		<polygon class="fil0" points="405 1602 299 1602 354 1152 161 1152 106 1602 0 1602 65 1072 470 1072 "/>
		<path class="fil0" d="M645 1532c14 0 27-4 38-12 11-8 21-19 28-33 8-14 14-30 18-49 4-19 6-38 6-59 0-29-5-50-14-63-9-13-23-19-42-19-14 0-26 4-38 12-11 8-21 19-29 33-8 14-14 30-18 49-4 19-6 38-6 59 0 29 5 50 14 63 9 13 23 20 42 20zm-9 76c-21 0-40-4-58-10-18-7-34-17-47-30-13-13-23-30-31-50-7-20-11-42-11-68 0-33 5-63 16-92 11-28 25-52 43-73 18-20 40-37 64-48 24-12 50-17 77-17 21 0 40 3 58 10 18 7 33 17 46 31 13 14 23 30 31 50 8 20 11 42 11 68 0 33-5 63-16 91-11 28-25 52-44 73-18 20-40 37-64 48-24 12-50 18-77 18z"/>
		<path class="fil0" d="M1031 1531c14 0 27-4 39-12 12-8 23-21 31-39 9-18 16-40 21-67 5-27 8-60 8-98-7-5-15-9-24-13-9-3-19-5-29-5-15 0-29 4-42 11-13 8-24 18-33 31-9 13-16 29-21 47-5 18-8 38-8 59 0 15 1 28 4 39 3 11 7 20 12 26 5 7 11 12 18 15 7 3 15 5 23 5zm-85-460c42-5 80-5 115 0 35 5 65 17 90 35 25 19 44 45 58 79 14 34 21 78 21 131 0 45-5 86-16 122-11 36-26 67-45 92-19 25-41 45-67 58-26 14-53 20-83 20-21 0-40-3-58-10-18-7-33-17-46-30-13-14-23-30-31-51-7-20-11-44-11-71 0-28 5-56 13-82 9-26 21-50 37-70 16-20 35-37 57-49 22-12 47-18 74-18 17 0 32 2 45 7 13 5 25 12 36 21-4-24-10-44-19-59-9-15-21-28-35-36-14-9-32-15-52-18-20-3-43-5-69-4-9 0-14-2-17-5-3-4-4-9-2-17l5-45z"/>
		<path class="fil0" d="M1279 1273c8-8 18-15 28-21 11-7 23-12 35-17 13-5 26-8 41-11 14-3 29-4 43-4 21 0 40 2 55 7 16 5 28 12 39 20 10 8 18 18 23 28 5 11 7 22 7 34 0 9-1 18-4 26-3 9-7 17-14 25-6 8-14 15-24 21-10 6-22 12-37 16 21 5 37 14 48 27 11 13 17 30 17 51 0 15-3 31-10 46-7 15-17 30-31 42-14 13-32 23-53 31-22 8-47 12-77 12-24 0-46-4-68-11-22-7-43-20-64-38l26-41c2-3 5-6 8-9 4-3 7-4 11-4 6 0 11 1 16 5 5 3 11 6 17 10 6 4 14 7 23 10 9 3 21 5 35 5 12 0 23-2 32-5 9-3 17-7 23-13 6-5 11-12 14-19 3-7 5-15 5-24 0-8-1-14-4-20-2-5-6-9-10-13-5-3-10-5-16-7-6-1-13-2-21-2-8 0-17 1-28 2-11 2-21 3-30 5 0-12 1-24 2-36 1-11 4-23 9-35 7 1 13 2 19 3 6 1 13 1 19 1 14 0 25-1 35-4 10-3 17-7 23-11 6-4 10-9 13-15 3-5 4-11 4-16 0-10-4-19-12-26-8-7-22-10-41-10-13 0-24 1-33 4-9 3-17 5-23 9-7 3-12 6-17 9-5 3-9 5-14 5-4 0-8 0-11-1-3-1-6-5-10-10l-21-34z"/>
		<path class="fil0" d="M1830 1290c-2 0-4 0-7 0-2 0-4 0-7 0-19 0-37 4-54 13-16 9-30 21-42 36-12 15-21 33-28 53-7 20-10 41-10 63 0 25 4 44 12 55 8 11 18 17 31 17 9 0 18-3 27-10 9-7 17-16 25-27 8-11 15-25 22-40 7-15 12-32 17-49l14-110zm-25 241c-16 24-34 42-54 56-20 14-42 20-66 20-14 0-27-3-40-8-13-5-24-14-33-25-9-11-17-25-22-42-5-17-8-37-8-59 0-23 3-45 8-66 6-21 14-41 24-60 10-19 23-36 38-52 15-16 32-29 50-40 18-11 38-20 60-26 22-6 44-9 68-9 18 0 35 1 53 4 18 3 35 7 52 13l-45 365-54 0c-6 0-12-1-16-3-4-2-8-4-10-7-3-3-4-6-5-10-1-4-1-8-1-13l1-38z"/>
		<path class="fil0" d="M2118 1220c16 0 30 2 45 6 14 4 27 9 37 17 11 7 19 17 26 28 6 11 10 25 10 40 0 18-4 33-13 47-9 14-20 26-33 37-13 11-28 21-43 30-15 9-30 18-43 27-13 9-24 17-33 26-9 9-13 18-13 28 0 6 3 12 9 17 6 5 16 8 29 8 10 0 19-1 27-4 8-3 16-6 22-10 7-4 13-7 19-10 5-3 10-4 15-4 5 0 8 1 11 2 3 2 6 4 9 8l24 35c-10 10-21 18-32 26-11 7-23 13-36 18-12 5-25 9-38 11-13 2-26 4-38 4-19 0-36-2-51-7-15-5-28-11-38-19-10-8-19-18-24-30-6-11-8-24-8-37 0-14 3-26 8-38 5-11 12-22 21-32 9-10 18-19 29-27 11-8 22-16 33-23 11-7 23-14 33-21 11-7 20-13 29-19 9-6 15-12 21-18 5-6 8-12 8-18 0-6-3-11-8-15-5-4-14-7-25-7-8 0-16 1-23 3-7 2-14 5-20 8-6 3-12 5-18 7-5 2-10 4-15 4-3 0-5 0-9-2-3-1-6-5-9-10l-22-41c17-14 36-25 58-33 22-8 45-12 68-12z"/>
		<path class="fil0" d="M2423 1532c14 0 27-4 38-12 11-8 21-19 28-33 8-14 14-30 18-49 4-19 6-38 6-59 0-29-5-50-14-63-9-13-23-19-42-19-14 0-26 4-38 12-11 8-21 19-29 33-8 14-14 30-18 49-4 19-6 38-6 59 0 29 5 50 14 63 9 13 23 20 42 20zm-9 76c-21 0-40-4-58-10-18-7-34-17-47-30-13-13-23-30-31-50-7-20-11-42-11-68 0-33 5-63 16-92 11-28 25-52 43-73 18-20 40-37 64-48 24-12 50-17 77-17 21 0 40 3 58 10 18 7 33 17 46 31 13 14 23 30 31 50 8 20 11 42 11 68 0 33-5 63-16 91-11 28-25 52-44 73-18 20-40 37-64 48-24 12-50 18-77 18z"/>
		<path class="fil0" d="M2708 1397c7-31 16-57 27-79 10-22 24-39 40-53 16-14 35-24 58-30 23-6 50-10 81-10l96 0-46 376-97 0 37-303-11 0c-13 0-24 2-33 5-9 3-18 9-25 17-7 8-13 19-18 32-5 13-10 30-14 51-8 39-17 72-27 98-10 26-22 47-34 63-13 16-27 27-42 34-15 7-32 10-50 10-15 0-25-1-30-4-6-2-8-7-8-14l7-56 11 0c11 0 20-2 27-7 7-4 14-12 19-23 6-11 11-25 16-42 5-18 10-39 17-66z"/>
		<path class="fil0" d="M3200 1532c14 0 27-4 38-12 11-8 21-19 28-33 8-14 14-30 18-49 4-19 6-38 6-59 0-29-5-50-14-63-9-13-23-19-42-19-14 0-26 4-38 12-11 8-21 19-29 33-8 14-14 30-18 49-4 19-6 38-6 59 0 29 5 50 14 63 9 13 23 20 42 20zm-9 76c-21 0-40-4-58-10-18-7-34-17-47-30-13-13-23-30-31-50-7-20-11-42-11-68 0-33 5-63 16-92 11-28 25-52 43-73 18-20 40-37 64-48 24-12 50-17 77-17 21 0 40 3 58 10 18 7 33 17 46 31 13 14 23 30 31 50 8 20 11 42 11 68 0 33-5 63-16 91-11 28-25 52-44 73-18 20-40 37-64 48-24 12-50 18-77 18z"/>
		<path class="fil0" d="M3525 1446c0 28 5 50 14 65 10 16 24 23 45 22 9 0 17-3 25-6 7-4 14-8 19-14 5-6 9-12 12-20 3-7 4-15 4-23 0-7-1-13-3-19-2-6-6-10-10-14-5-4-11-6-19-7-8-1-17-1-28 1l-58 14zm58-72c14-3 26-7 35-11 9-4 16-9 21-14 5-5 8-10 10-16 2-5 3-11 3-17 0-9-2-17-7-23-4-6-12-9-23-9-9 0-19 2-28 7-9 5-18 12-26 20-8 9-15 20-21 32-6 13-11 27-15 42l52-13zm69 20c12 1 23 3 33 7 10 4 19 9 27 15 7 6 13 14 18 23 4 9 6 20 6 32 0 17-4 33-11 49-7 16-18 31-32 44-14 13-31 23-52 31-20 8-43 12-69 12-24 0-45-4-63-11-18-7-33-17-46-31-12-13-22-29-28-48-6-19-9-40-9-64 0-21 2-42 7-61 5-20 12-38 20-56 9-17 19-33 32-48 12-14 26-27 42-37 15-10 32-18 50-24 18-6 37-9 56-9 17 0 32 2 45 6 13 4 24 10 32 17 9 7 15 15 20 25 5 10 7 20 7 31 0 19-7 37-21 54-14 17-35 31-64 41z"/>
		<path class="fil0" d="M3938 1532c14 0 27-4 38-12 11-8 21-19 28-33 8-14 14-30 18-49 4-19 6-38 6-59 0-29-5-50-14-63-9-13-23-19-42-19-14 0-26 4-38 12-11 8-21 19-29 33-8 14-14 30-18 49-4 19-6 38-6 59 0 29 5 50 14 63 9 13 23 20 42 20zm-9 76c-21 0-40-4-58-10-18-7-34-17-47-30-13-13-23-30-31-50-7-20-11-42-11-68 0-33 5-63 16-92 11-28 25-52 43-73 18-20 40-37 64-48 24-12 50-17 77-17 21 0 40 3 58 10 18 7 33 17 46 31 13 14 23 30 31 50 8 20 11 42 11 68 0 33-5 63-16 91-11 28-25 52-44 73-18 20-40 37-64 48-24 12-50 18-77 18z"/>
		<path class="fil0" d="M4375 1303c10-15 19-27 26-37 7-10 14-18 21-24 7-6 15-11 24-13 9-3 20-4 34-4l42 0-11 51c-1 7-4 12-7 14-3 2-7 4-11 5-4 1-8 3-13 5-5 2-10 6-14 13l-35 51c-4 5-7 10-11 14-4 4-7 8-11 11-4 3-8 6-12 8-4 2-9 4-15 5 16 3 29 9 38 17 9 8 17 21 23 37l54 148-57 0c-9 0-16-1-22-2-6-1-12-4-16-6-5-3-8-6-12-10-3-4-6-9-9-14l-35-102c-3-9-7-16-14-22-7-5-14-8-23-8l-30 6-19 158-97 0 46-376 97 0-19 155 17-4c5-1 9-2 12-3 3-1 6-2 9-4 3-1 5-3 7-5 2-2 4-5 7-9l37-52z"/>
		<polygon class="fil0" points="4805 1458 4910 1458 4910 1490 4805 1490 "/>
		<path class="fil0" d="M5114 1550c7 9 15 16 23 20 8 4 17 6 28 6 20 0 36-7 46-22 11-14 16-35 16-61 0-14-1-26-4-36-2-10-6-18-11-25-5-6-10-11-17-14-7-3-15-4-23-4-12 0-23 3-32 9-9 6-18 14-26 24l0 104zm-2-130c9-11 20-20 32-27 12-7 26-10 41-10 12 0 24 2 34 7 10 5 19 12 26 21 7 9 13 21 16 35 4 14 6 30 6 48 0 16-2 31-6 44-4 14-10 26-18 36-8 10-18 18-29 24-12 6-25 9-39 9-13 0-24-2-34-7-9-4-18-11-25-19l0 95-38 0 0-289 23 0c5 0 9 3 10 8l3 26z"/>
		<path class="fil0" d="M5495 1386l-120 279c-1 3-3 5-5 7-2 2-5 3-9 3l-28 0 39-86-89-203 33 0c3 0 6 1 8 2 2 2 3 3 4 5l58 136c2 6 4 12 6 19 2-7 4-13 6-19l56-136c1-2 2-4 4-6 2-1 4-2 7-2l30 0z"/>
		<path class="fil0" d="M5687 1386l0 216-38 0 0-92c-18 5-36 8-52 9-16 1-30 0-43-4-12-4-22-10-29-20-7-9-11-22-11-39l0-71 38 0 0 66c0 10 2 19 6 24 4 6 10 10 18 12 8 2 18 3 30 2 12-1 26-3 41-7l0-97 38 0z"/>
		<polygon class="fil0" points="5927 1386 5927 1602 5889 1602 5889 1501 5786 1501 5786 1602 5748 1602 5748 1386 5786 1386 5786 1472 5889 1472 5889 1386 "/>
		<path class="fil0" d="M6078 1382c16 0 30 3 43 8 13 5 23 13 32 22 9 10 16 21 21 35 5 14 7 29 7 46 0 17-2 32-7 46-5 14-12 25-21 35-9 10-20 17-32 22-13 5-27 8-43 8-16 0-30-3-43-8-13-5-24-13-33-22-9-10-16-21-21-35-5-14-7-29-7-46 0-17 2-32 7-46 5-14 12-25 21-35 9-10 20-17 33-22 13-5 27-8 43-8zm0 193c21 0 37-7 48-21 11-14 16-34 16-60 0-26-5-46-16-60-11-14-26-22-48-22-11 0-20 2-28 6-8 4-15 9-20 16-5 7-9 15-12 26-3 10-4 22-4 34 0 26 5 45 16 60 11 14 27 21 48 21z"/>
		<path class="fil0" d="M6374 1470c0-9-1-17-4-24-2-7-6-14-11-19-5-5-11-9-17-12-7-3-15-4-23-4-18 0-33 5-43 16-11 11-17 25-20 44l118 0zm31 101c-5 6-10 11-17 15-7 4-13 8-21 10-7 3-15 5-23 6-8 1-16 2-24 2-15 0-29-3-41-8-13-5-23-12-33-22-9-10-16-22-21-36-5-14-8-31-8-49 0-15 2-29 7-42 5-13 11-24 20-34 9-10 19-17 32-23 12-5 27-8 42-8 13 0 25 2 36 6 11 4 21 11 29 19 8 8 14 18 19 30 5 12 7 26 7 41 0 6-1 10-2 12-1 2-4 3-7 3l-144 0c0 14 2 25 6 36 3 10 8 18 14 25 6 7 13 12 21 15 8 3 17 5 28 5 10 0 18-1 25-3 7-2 13-5 18-7 5-3 9-5 12-7 3-2 6-3 9-3 3 0 6 1 7 4l11 14z"/>
		<path class="fil0" d="M6700 1576c13-1 24-3 34-7 10-4 18-10 24-17 7-7 12-15 15-25 3-10 5-21 5-33 0-12-2-24-5-33-3-10-8-18-15-25-7-7-15-13-24-17-10-4-21-6-34-7l0 163 0 2zm-34-165c-13 1-24 3-34 7-10 4-18 10-24 17-7 7-12 16-15 26-3 10-5 21-5 33 0 12 2 23 5 33 3 10 8 18 15 25 7 7 15 13 24 17 10 4 21 6 34 7l0-1 0-163zm35-29c18 1 34 4 48 9 14 6 26 13 36 23 10 10 18 21 23 34 5 13 8 28 8 44 0 16-3 31-8 44-5 13-13 25-23 34-10 10-22 17-36 23-14 6-30 9-48 9l0 72-36 0 0-72c-18-1-34-4-48-9-14-6-26-13-36-23-10-10-18-21-23-34-5-13-8-28-8-44 0-16 3-31 8-44 5-13 13-25 23-34 10-10 22-17 36-23 14-6 30-9 48-9l0-86 36 0 0 86z"/>
		<path class="fil0" d="M6954 1382c16 0 30 3 43 8 13 5 23 13 32 22 9 10 16 21 21 35 5 14 7 29 7 46 0 17-2 32-7 46-5 14-12 25-21 35-9 10-20 17-32 22-13 5-27 8-43 8-16 0-30-3-43-8-13-5-24-13-33-22-9-10-16-21-21-35-5-14-7-29-7-46 0-17 2-32 7-46 5-14 12-25 21-35 9-10 20-17 33-22 13-5 27-8 43-8zm0 193c21 0 37-7 48-21 11-14 16-34 16-60 0-26-5-46-16-60-11-14-26-22-48-22-11 0-20 2-28 6-8 4-15 9-20 16-5 7-9 15-12 26-3 10-4 22-4 34 0 26 5 45 16 60 11 14 27 21 48 21z"/>
		<path class="fil0" d="M7143 1550c7 9 15 16 23 20 8 4 17 6 28 6 20 0 36-7 46-22 11-14 16-35 16-61 0-14-1-26-4-36-2-10-6-18-11-25-5-6-10-11-17-14-7-3-15-4-23-4-12 0-23 3-32 9-9 6-18 14-26 24l0 104zm-2-130c9-11 20-20 32-27 12-7 26-10 41-10 12 0 24 2 34 7 10 5 19 12 26 21 7 9 13 21 16 35 4 14 6 30 6 48 0 16-2 31-6 44-4 14-10 26-18 36-8 10-18 18-29 24-12 6-25 9-39 9-13 0-24-2-34-7-9-4-18-11-25-19l0 95-38 0 0-289 23 0c5 0 9 3 10 8l3 26z"/>
		<path class="fil0" d="M7584 1385l0 216-34 0 0-143c0-4 0-8 1-13 1-5 1-9 2-14l-75 131c-1 2-3 4-4 5-2 1-4 2-6 2l-4 0c-2 0-5-1-6-2-2-1-3-3-5-5l-76-132c1 4 1 9 2 14 1 5 1 10 1 14l0 143-34 0 0-216 30 0c3 0 5 1 8 2 3 1 5 3 7 7l67 112c3 7 6 13 9 21 2-8 5-14 9-21l66-112c2-3 4-6 7-7 3-1 5-2 8-2l30 0z"/>
		<path class="fil0" d="M7761 1505c-17 1-32 2-45 4-12 2-22 5-30 9-8 4-13 8-17 13-3 5-5 10-5 16 0 6 1 11 3 15 2 4 4 7 8 10 3 3 7 5 11 6 4 1 9 2 14 2 7 0 13-1 18-2 6-1 11-3 16-6 5-3 10-6 14-9 4-4 9-8 13-12l0-45zm-122-88c12-11 25-20 39-26 14-6 29-9 46-9 12 0 23 2 32 6 9 4 17 10 24 17 6 7 11 16 14 26 3 10 5 21 5 33l0 138-17 0c-4 0-7-1-9-2-2-1-4-4-5-7l-4-20c-6 5-11 10-17 14-5 4-11 7-17 10-6 3-12 5-19 6-7 1-14 2-23 2-8 0-16-1-24-4-7-2-14-6-19-11-5-5-10-11-13-18-3-7-5-16-5-25 0-9 2-17 7-25 5-8 12-15 23-21 11-6 24-11 41-15 17-4 38-6 62-7l0-17c0-17-4-29-11-38-7-9-18-13-32-13-9 0-17 1-24 3-6 2-12 5-16 8-5 3-9 6-12 8-3 2-7 4-10 4-3 0-5-1-7-2-2-1-3-3-5-5l-7-12z"/>
		<polygon class="fil0" points="8030 1415 7947 1415 7947 1602 7909 1602 7909 1415 7826 1415 7826 1386 8030 1386 "/>
		<path class="fil0" d="M8251 1386l0 216-38 0 0-147c0-3 0-6 0-9 0-3 1-7 1-10-1 3-3 5-4 8-1 2-3 5-4 7l-104 142c-2 2-3 4-6 6-2 2-5 3-8 3l-23 0 0-216 38 0 0 147c0 3 0 6 0 9 0 3-1 6-1 10 1-3 3-5 4-8 1-2 3-4 4-6l104-142c2-2 4-4 6-7 2-2 5-3 8-3l23 0z"/>
		<path class="fil0" d="M8349 1550c7 9 15 16 23 20 8 4 17 6 28 6 20 0 36-7 46-22 11-14 16-35 16-61 0-14-1-26-4-36-2-10-6-18-11-25-5-6-10-11-17-14-7-3-15-4-23-4-12 0-23 3-32 9-9 6-18 14-26 24l0 104zm-2-130c9-11 20-20 32-27 12-7 26-10 41-10 12 0 24 2 34 7 10 5 19 12 26 21 7 9 13 21 16 35 4 14 6 30 6 48 0 16-2 31-6 44-4 14-10 26-18 36-8 10-18 18-29 24-12 6-25 9-39 9-13 0-24-2-34-7-9-4-18-11-25-19l0 95-38 0 0-289 23 0c5 0 9 3 10 8l3 26z"/>
		<path class="fil0" d="M8641 1382c16 0 30 3 43 8 13 5 23 13 32 22 9 10 16 21 21 35 5 14 7 29 7 46 0 17-2 32-7 46-5 14-12 25-21 35-9 10-20 17-32 22-13 5-27 8-43 8-16 0-30-3-43-8-13-5-24-13-33-22-9-10-16-21-21-35-5-14-7-29-7-46 0-17 2-32 7-46 5-14 12-25 21-35 9-10 20-17 33-22 13-5 27-8 43-8zm0 193c21 0 37-7 48-21 11-14 16-34 16-60 0-26-5-46-16-60-11-14-26-22-48-22-11 0-20 2-28 6-8 4-15 9-20 16-5 7-9 15-12 26-3 10-4 22-4 34 0 26 5 45 16 60 11 14 27 21 48 21z"/>
		<path class="fil0" d="M8874 1575c14 0 25-3 34-10 8-7 12-16 12-27 0-5-1-10-2-14-2-4-4-8-8-11-4-3-8-6-14-7-6-2-13-3-22-3l-47 0 0 72 46 0zm-46-164l0 68 42 0c6 0 12-1 17-3 5-2 10-4 14-7 4-3 7-7 9-12 2-4 3-9 3-15 0-4-1-8-2-12-1-4-4-7-7-10-3-3-8-5-13-7-6-2-12-3-20-3l-42 0zm43-26c13 0 25 1 34 4 10 3 17 6 23 11 6 5 11 10 13 16 3 6 4 13 4 20 0 5-1 10-2 15-1 5-3 10-7 15-3 5-8 9-13 13-5 4-12 7-21 9 16 3 29 9 38 17 9 9 13 20 13 34 0 11-2 20-6 27-4 8-10 14-17 20-7 5-16 9-26 12-10 3-20 4-32 4l-83 0 0-216 79 0z"/>
		<path class="fil0" d="M9120 1505c-17 1-32 2-45 4-12 2-22 5-30 9-8 4-13 8-17 13-3 5-5 10-5 16 0 6 1 11 3 15 2 4 4 7 8 10 3 3 7 5 11 6 4 1 9 2 14 2 7 0 13-1 18-2 6-1 11-3 16-6 5-3 10-6 14-9 4-4 9-8 13-12l0-45zm-122-88c12-11 25-20 39-26 14-6 29-9 46-9 12 0 23 2 32 6 9 4 17 10 24 17 6 7 11 16 14 26 3 10 5 21 5 33l0 138-17 0c-4 0-7-1-9-2-2-1-4-4-5-7l-4-20c-6 5-11 10-17 14-5 4-11 7-17 10-6 3-12 5-19 6-7 1-14 2-23 2-8 0-16-1-24-4-7-2-14-6-19-11-5-5-10-11-13-18-3-7-5-16-5-25 0-9 2-17 7-25 5-8 12-15 23-21 11-6 24-11 41-15 17-4 38-6 62-7l0-17c0-17-4-29-11-38-7-9-18-13-32-13-9 0-17 1-24 3-6 2-12 5-16 8-5 3-9 6-12 8-3 2-7 4-10 4-3 0-5-1-7-2-2-1-3-3-5-5l-7-12z"/>
		<polygon class="fil0" points="9394 1386 9394 1602 9356 1602 9356 1501 9253 1501 9253 1602 9214 1602 9214 1386 9253 1386 9253 1472 9356 1472 9356 1386 "/>
		<path class="fil0" d="M9639 1386l0 216-38 0 0-147c0-3 0-6 0-9 0-3 1-7 1-10-1 3-3 5-4 8-1 2-3 5-4 7l-104 142c-2 2-3 4-6 6-2 2-5 3-8 3l-23 0 0-216 38 0 0 147c0 3 0 6 0 9 0 3-1 6-1 10 1-3 3-5 4-8 1-2 3-4 4-6l104-142c2-2 4-4 6-7 2-2 5-3 8-3l23 0z"/>
		<path class="fil0" d="M9844 1470c0-9-1-17-4-24-2-7-6-14-11-19-5-5-11-9-17-12-7-3-15-4-23-4-18 0-33 5-43 16-11 11-17 25-20 44l118 0zm31 101c-5 6-10 11-17 15-7 4-13 8-21 10-7 3-15 5-23 6-8 1-16 2-24 2-15 0-29-3-41-8-13-5-23-12-33-22-9-10-16-22-21-36-5-14-8-31-8-49 0-15 2-29 7-42 5-13 11-24 20-34 9-10 19-17 32-23 12-5 27-8 42-8 13 0 25 2 36 6 11 4 21 11 29 19 8 8 14 18 19 30 5 12 7 26 7 41 0 6-1 10-2 12-1 2-4 3-7 3l-144 0c0 14 2 25 6 36 3 10 8 18 14 25 6 7 13 12 21 15 8 3 17 5 28 5 10 0 18-1 25-3 7-2 13-5 18-7 5-3 9-5 12-7 3-2 6-3 9-3 3 0 6 1 7 4l11 14z"/>
		<path class="fil0" d="M10056 1468c0 30 4 60 12 89 8 29 19 56 34 82 2 4 3 8 2 10-1 2-3 4-5 6l-17 10c-11-16-20-33-27-49-7-16-13-32-18-48-5-16-8-33-10-49-2-16-3-33-3-51 0-17 1-34 3-50 2-16 6-33 10-49 5-16 11-32 18-48 7-16 16-32 27-49l17 10c2 1 4 3 5 6 1 2 1 6-2 10-15 26-26 53-34 82-8 29-12 58-12 89z"/>
		<polygon class="fil0" points="10324 1602 10285 1602 10285 1415 10182 1415 10182 1602 10144 1602 10144 1386 10324 1386 "/>
		<path class="fil0" d="M10475 1382c16 0 30 3 43 8 13 5 23 13 32 22 9 10 16 21 21 35 5 14 7 29 7 46 0 17-2 32-7 46-5 14-12 25-21 35-9 10-20 17-32 22-13 5-27 8-43 8-16 0-30-3-43-8-13-5-24-13-33-22-9-10-16-21-21-35-5-14-7-29-7-46 0-17 2-32 7-46 5-14 12-25 21-35 9-10 20-17 33-22 13-5 27-8 43-8zm0 193c21 0 37-7 48-21 11-14 16-34 16-60 0-26-5-46-16-60-11-14-26-22-48-22-11 0-20 2-28 6-8 4-15 9-20 16-5 7-9 15-12 26-3 10-4 22-4 34 0 26 5 45 16 60 11 14 27 21 48 21z"/>
		<path class="fil0" d="M10808 1602l-38 0 0-186-68 0c-2 27-4 51-8 71-3 20-7 37-12 51-5 14-10 25-16 34-6 9-12 16-19 20-6 5-13 8-20 10-7 2-14 3-21 3-12 0-18-2-18-6l0-24 11 0c5 0 10-1 15-3 5-2 10-5 15-10 5-5 9-12 14-20 4-9 8-20 12-34 4-14 7-31 9-51 3-20 5-44 6-71l138 0 0 216z"/>
		<path class="fil0" d="M11054 1386l-120 279c-1 3-3 5-5 7-2 2-5 3-9 3l-28 0 39-86-89-203 33 0c3 0 6 1 8 2 2 2 3 3 4 5l58 136c2 6 4 12 6 19 2-7 4-13 6-19l56-136c1-2 2-4 4-6 2-1 4-2 7-2l30 0z"/>
		<path class="fil0" d="M11388 1602l-26 0c-7 0-12-1-16-3-4-2-6-5-8-10l-42-67c-7-11-17-17-30-17l-22 0 0 97-37 0 0-97-22 0c-6 0-12 1-17 4-5 3-9 7-13 12l-42 67c-2 5-5 8-9 10-4 2-9 3-16 3l-26 0 57-89c4-6 8-11 13-15 5-4 10-7 17-9-5-2-10-4-14-8-4-3-7-8-11-13l-56-82 30 0c4 0 7 1 10 3 3 2 5 5 7 8l46 68c3 5 7 8 11 11 4 2 10 4 16 4l19 0 0-93 37 0 0 93 18 0c12 0 21-5 27-14l46-68c2-3 4-6 7-8 3-2 6-3 10-3l30 0-56 82c-3 5-7 10-11 13-4 3-8 6-14 8 7 2 13 5 17 9 5 4 9 9 13 15l57 89z"/>
		<path class="fil0" d="M11608 1386l0 216-38 0 0-147c0-3 0-6 0-9 0-3 1-7 1-10-1 3-3 5-4 8-1 2-3 5-4 7l-104 142c-2 2-3 4-6 6-2 2-5 3-8 3l-23 0 0-216 38 0 0 147c0 3 0 6 0 9 0 3-1 6-1 10 1-3 3-5 4-8 1-2 3-4 4-6l104-142c2-2 4-4 6-7 2-2 5-3 8-3l23 0z"/>
		<path class="fil0" d="M11707 1550c7 9 15 16 23 20 8 4 17 6 28 6 20 0 36-7 46-22 11-14 16-35 16-61 0-14-1-26-4-36-2-10-6-18-11-25-5-6-10-11-17-14-7-3-15-4-23-4-12 0-23 3-32 9-9 6-18 14-26 24l0 104zm-2-130c9-11 20-20 32-27 12-7 26-10 41-10 12 0 24 2 34 7 10 5 19 12 26 21 7 9 13 21 16 35 4 14 6 30 6 48 0 16-2 31-6 44-4 14-10 26-18 36-8 10-18 18-29 24-12 6-25 9-39 9-13 0-24-2-34-7-9-4-18-11-25-19l0 95-38 0 0-289 23 0c5 0 9 3 10 8l3 26z"/>
		<polygon class="fil0" points="12087 1386 12087 1602 12049 1602 12049 1501 11945 1501 11945 1602 11907 1602 11907 1386 11945 1386 11945 1472 12049 1472 12049 1386 "/>
		<path class="fil0" d="M12230 1574c8 0 14-1 20-3 6-2 10-5 14-8 4-3 6-8 8-12 2-5 3-10 3-15 0-5-1-10-2-14-2-4-4-8-8-12-4-3-8-6-14-8-6-2-13-3-21-3l-46 0 0 76 47 0zm-1-104c15 0 27 2 38 5 10 4 18 8 24 14 6 6 11 13 13 21 3 8 4 16 4 24 0 10-2 19-5 27-3 8-8 15-15 21-7 6-15 11-25 14-10 3-21 5-34 5l-83 0 0-216 36 0 0 85 46 0zm165-85l0 216-38 0 0-216 38 0z"/>
		<path class="fil0" d="M12639 1386l0 216-38 0 0-147c0-3 0-6 0-9 0-3 1-7 1-10-1 3-3 5-4 8-1 2-3 5-4 7l-104 142c-2 2-3 4-6 6-2 2-5 3-8 3l-23 0 0-216 38 0 0 147c0 3 0 6 0 9 0 3-1 6-1 10 1-3 3-5 4-8 1-2 3-4 4-6l104-142c2-2 4-4 6-7 2-2 5-3 8-3l23 0zm-90-52c6 0 11-1 15-2 4-1 7-3 10-6 2-3 4-7 5-11 1-5 2-10 2-17l22 0c3 0 5 1 6 4 1 2 2 5 2 8 0 7-1 13-4 19-3 6-7 11-12 15-5 4-12 7-20 9-8 2-16 3-26 3-10 0-18-1-26-3-8-2-14-5-19-9-5-4-9-9-12-15-3-6-4-12-4-19 0-3 1-5 2-8 1-2 3-4 6-4l22 0c0 7 1 13 2 17 1 5 3 9 5 11 2 3 6 5 10 6 4 1 9 2 15 2z"/>
		<path class="fil0" d="M12697 1653c-1-1-2-2-2-3 0-1-1-2-1-3 0-1 0-2 1-3 1-1 1-2 2-3 1-2 3-4 5-6 2-3 4-6 7-9 2-3 4-7 6-11 2-4 3-9 4-13 0 0-1 0-1 0-1 0-1 0-1 0-7 0-13-2-18-7-5-5-7-11-7-19 0-7 2-12 7-17 5-5 11-7 18-7 4 0 8 1 11 2 3 2 6 4 8 6 2 3 4 6 5 10 1 4 2 8 2 12 0 6-1 13-3 20-2 7-4 14-8 20-3 7-8 13-13 20-5 6-11 12-17 18l-6-6z"/>
		<path class="fil0" d="M13036 1397c2-3 5-6 8-8 3-2 7-3 10-3l30 0-56 82c-3 5-7 10-11 13-4 3-8 6-14 8 7 2 13 5 17 9 5 4 9 9 13 15l57 89-26 0c-7 0-12-1-16-3-4-2-7-6-10-10l-42-67c-7-11-17-17-30-17l-23 0 0 97-38 0 0-216 38 0 0 93 20 0c11 0 20-5 27-14l46-68z"/>
		<path class="fil0" d="M13312 1386l-120 279c-1 3-3 5-5 7-2 2-5 3-9 3l-28 0 39-86-89-203 33 0c3 0 6 1 8 2 2 2 3 3 4 5l58 136c2 6 4 12 6 19 2-7 4-13 6-19l56-136c1-2 2-4 4-6 2-1 4-2 7-2l30 0z"/>
		<path class="fil0" d="M13383 1550c7 9 15 16 23 20 8 4 17 6 28 6 20 0 36-7 46-22 11-14 16-35 16-61 0-14-1-26-4-36-2-10-6-18-11-25-5-6-10-11-17-14-7-3-15-4-23-4-12 0-23 3-32 9-9 6-18 14-26 24l0 104zm-2-130c9-11 20-20 32-27 12-7 26-10 41-10 12 0 24 2 34 7 10 5 19 12 26 21 7 9 13 21 16 35 4 14 6 30 6 48 0 16-2 31-6 44-4 14-10 26-18 36-8 10-18 18-29 24-12 6-25 9-39 9-13 0-24-2-34-7-9-4-18-11-25-19l0 95-38 0 0-289 23 0c5 0 9 3 10 8l3 26z"/>
		<path class="fil0" d="M13734 1424c-1 2-2 3-3 4-1 1-3 1-5 1-2 0-4-1-7-3-3-2-6-4-9-6-4-2-8-4-14-6-5-2-12-3-20-3-11 0-20 2-28 6-8 4-15 9-20 16-5 7-10 16-12 26-3 10-4 21-4 34 0 13 1 25 4 35 3 10 7 19 13 26 5 7 12 12 20 16 8 4 16 5 26 5 9 0 17-1 23-3 6-2 11-5 15-7 4-3 7-5 10-7 3-2 5-3 8-3 3 0 6 1 7 4l11 14c-5 6-10 11-16 15-6 4-12 8-19 10-7 3-14 5-22 6-8 1-15 2-23 2-13 0-26-2-38-7-12-5-22-12-30-22-9-9-15-21-20-35-5-14-7-29-7-47 0-16 2-31 7-45 4-14 11-25 20-35 9-10 19-18 32-23 13-6 27-8 43-8 15 0 29 2 40 7 12 5 22 12 31 21l-10 14z"/>
		<path class="fil0" d="M13972 1386l0 216-38 0 0-147c0-3 0-6 0-9 0-3 1-7 1-10-1 3-3 5-4 8-1 2-3 5-4 7l-104 142c-2 2-3 4-6 6-2 2-5 3-8 3l-23 0 0-216 38 0 0 147c0 3 0 6 0 9 0 3-1 6-1 10 1-3 3-5 4-8 1-2 3-4 4-6l104-142c2-2 4-4 6-7 2-2 5-3 8-3l23 0z"/>
		<path class="fil0" d="M14115 1575c14 0 25-3 34-10 8-7 12-16 12-27 0-5-1-10-2-14-2-4-4-8-8-11-4-3-8-6-14-7-6-2-13-3-22-3l-47 0 0 72 46 0zm-46-164l0 68 42 0c6 0 12-1 17-3 5-2 10-4 14-7 4-3 7-7 9-12 2-4 3-9 3-15 0-4-1-8-2-12-1-4-4-7-7-10-3-3-8-5-13-7-6-2-12-3-20-3l-42 0zm43-26c13 0 25 1 34 4 10 3 17 6 23 11 6 5 11 10 13 16 3 6 4 13 4 20 0 5-1 10-2 15-1 5-3 10-7 15-3 5-8 9-13 13-5 4-12 7-21 9 16 3 29 9 38 17 9 9 13 20 13 34 0 11-2 20-6 27-4 8-10 14-17 20-7 5-16 9-26 12-10 3-20 4-32 4l-83 0 0-216 79 0z"/>
		<path class="fil0" d="M14242 1653c-1-1-2-2-2-3 0-1-1-2-1-3 0-1 0-2 1-3 1-1 1-2 2-3 1-2 3-4 5-6 2-3 4-6 7-9 2-3 4-7 6-11 2-4 3-9 4-13 0 0-1 0-1 0-1 0-1 0-1 0-7 0-13-2-18-7-5-5-7-11-7-19 0-7 2-12 7-17 5-5 11-7 18-7 4 0 8 1 11 2 3 2 6 4 8 6 2 3 4 6 5 10 1 4 2 8 2 12 0 6-1 13-3 20-2 7-4 14-8 20-3 7-8 13-13 20-5 6-11 12-17 18l-6-6z"/>
		<path class="fil0" d="M14488 1550c7 9 15 16 23 20 8 4 17 6 28 6 20 0 36-7 46-22 11-14 16-35 16-61 0-14-1-26-4-36-2-10-6-18-11-25-5-6-10-11-17-14-7-3-15-4-23-4-12 0-23 3-32 9-9 6-18 14-26 24l0 104zm-2-130c9-11 20-20 32-27 12-7 26-10 41-10 12 0 24 2 34 7 10 5 19 12 26 21 7 9 13 21 16 35 4 14 6 30 6 48 0 16-2 31-6 44-4 14-10 26-18 36-8 10-18 18-29 24-12 6-25 9-39 9-13 0-24-2-34-7-9-4-18-11-25-19l0 95-38 0 0-289 23 0c5 0 9 3 10 8l3 26z"/>
		<path class="fil0" d="M14805 1505c-17 1-32 2-45 4-12 2-22 5-30 9-8 4-13 8-17 13-3 5-5 10-5 16 0 6 1 11 3 15 2 4 4 7 8 10 3 3 7 5 11 6 4 1 9 2 14 2 7 0 13-1 18-2 6-1 11-3 16-6 5-3 10-6 14-9 4-4 9-8 13-12l0-45zm-122-88c12-11 25-20 39-26 14-6 29-9 46-9 12 0 23 2 32 6 9 4 17 10 24 17 6 7 11 16 14 26 3 10 5 21 5 33l0 138-17 0c-4 0-7-1-9-2-2-1-4-4-5-7l-4-20c-6 5-11 10-17 14-5 4-11 7-17 10-6 3-12 5-19 6-7 1-14 2-23 2-8 0-16-1-24-4-7-2-14-6-19-11-5-5-10-11-13-18-3-7-5-16-5-25 0-9 2-17 7-25 5-8 12-15 23-21 11-6 24-11 41-15 17-4 38-6 62-7l0-17c0-17-4-29-11-38-7-9-18-13-32-13-9 0-17 1-24 3-6 2-12 5-16 8-5 3-9 6-12 8-3 2-7 4-10 4-3 0-5-1-7-2-2-1-3-3-5-5l-7-12z"/>
		<path class="fil0" d="M14886 1408c8-8 18-14 30-19 12-5 25-7 42-7 13 0 25 2 35 5 10 3 18 7 25 13 7 5 12 11 15 18 3 7 5 14 5 21 0 4-1 9-2 13-1 5-4 9-7 13-3 4-7 8-12 12-5 4-11 7-19 9 14 4 25 11 33 20 8 9 12 20 12 33 0 10-2 19-7 27-5 8-11 15-18 20-8 6-17 10-27 13-10 3-21 4-32 4-7 0-14-1-21-2-7-1-14-3-21-6-7-3-13-6-19-10-6-4-11-9-16-15l11-14c2-2 4-4 7-4 3 0 5 1 8 3 3 2 6 5 11 7 4 3 10 5 16 7 6 2 14 3 23 3 8 0 15-1 21-3 6-2 11-5 16-8 4-3 8-7 10-12 2-5 3-10 3-15 0-11-4-19-13-26-9-7-22-10-40-10l-24 0 0-25 24 0c8 0 15-1 21-2 6-2 12-4 16-7 4-3 8-6 10-10 2-4 3-8 3-13 0-4-1-8-3-12-2-4-5-7-9-10-4-3-9-5-15-7-6-2-13-3-20-3-9 0-16 1-22 3-6 2-11 4-15 6-4 2-7 4-10 6-3 2-5 3-7 3-2 0-3 0-5-1-1-1-3-2-4-4l-9-15z"/>
		<path class="fil0" d="M15332 1385l0 216-34 0 0-143c0-4 0-8 1-13 1-5 1-9 2-14l-75 131c-1 2-3 4-4 5-2 1-4 2-6 2l-4 0c-2 0-5-1-6-2-2-1-3-3-5-5l-76-132c1 4 1 9 2 14 1 5 1 10 1 14l0 143-34 0 0-216 30 0c3 0 5 1 8 2 3 1 5 3 7 7l67 112c3 7 6 13 9 21 2-8 5-14 9-21l66-112c2-3 4-6 7-7 3-1 5-2 8-2l30 0z"/>
		<path class="fil0" d="M15536 1470c0-9-1-17-4-24-2-7-6-14-11-19-5-5-11-9-17-12-7-3-15-4-23-4-18 0-33 5-43 16-11 11-17 25-20 44l118 0zm31 101c-5 6-10 11-17 15-7 4-13 8-21 10-7 3-15 5-23 6-8 1-16 2-24 2-15 0-29-3-41-8-13-5-23-12-33-22-9-10-16-22-21-36-5-14-8-31-8-49 0-15 2-29 7-42 5-13 11-24 20-34 9-10 19-17 32-23 12-5 27-8 42-8 13 0 25 2 36 6 11 4 21 11 29 19 8 8 14 18 19 30 5 12 7 26 7 41 0 6-1 10-2 12-1 2-4 3-7 3l-144 0c0 14 2 25 6 36 3 10 8 18 14 25 6 7 13 12 21 15 8 3 17 5 28 5 10 0 18-1 25-3 7-2 13-5 18-7 5-3 9-5 12-7 3-2 6-3 9-3 3 0 6 1 7 4l11 14z"/>
		<path class="fil0" d="M15655 1550c7 9 15 16 23 20 8 4 17 6 28 6 20 0 36-7 46-22 11-14 16-35 16-61 0-14-1-26-4-36-2-10-6-18-11-25-5-6-10-11-17-14-7-3-15-4-23-4-12 0-23 3-32 9-9 6-18 14-26 24l0 104zm-2-130c9-11 20-20 32-27 12-7 26-10 41-10 12 0 24 2 34 7 10 5 19 12 26 21 7 9 13 21 16 35 4 14 6 30 6 48 0 16-2 31-6 44-4 14-10 26-18 36-8 10-18 18-29 24-12 6-25 9-39 9-13 0-24-2-34-7-9-4-18-11-25-19l0 95-38 0 0-289 23 0c5 0 9 3 10 8l3 26z"/>
		<path class="fil0" d="M15874 1468c0-30-4-60-12-89-8-29-19-56-34-82-1-2-2-4-2-6 0-2 0-3 0-4 0-1 1-2 2-3 1-1 2-2 3-2l17-10c11 16 20 33 27 49 7 16 13 32 18 48 5 16 8 32 10 49 2 16 3 33 3 50 0 17-1 34-3 51-2 16-5 33-10 49-5 16-11 32-18 48-7 16-17 32-27 49l-17-10c-1-1-2-2-3-2-1-1-2-2-2-3 0-1-1-3 0-4 0-2 1-4 2-6 15-26 26-53 34-82 8-29 12-58 12-89z"/>
		<polygon class="fil0" points="405 2640 299 2640 354 2191 161 2191 106 2640 0 2640 65 2111 470 2111 "/>
		<path class="fil0" d="M645 2570c14 0 27-4 38-12 11-8 21-19 28-33 8-14 14-30 18-49 4-19 6-38 6-59 0-29-5-50-14-63-9-13-23-19-42-19-14 0-26 4-38 12-11 8-21 19-29 33-8 14-14 30-18 49-4 19-6 38-6 59 0 29 5 50 14 63 9 13 23 20 42 20zm-9 76c-21 0-40-4-58-10-18-7-34-17-47-30-13-13-23-30-31-50-7-20-11-42-11-68 0-33 5-63 16-92 11-28 25-52 43-73 18-20 40-37 64-48 24-12 50-17 77-17 21 0 40 3 58 10 18 7 33 17 46 31 13 14 23 30 31 50 8 20 11 42 11 68 0 33-5 63-16 91-11 28-25 52-44 73-18 20-40 37-64 48-24 12-50 18-77 18z"/>
		<path class="fil0" d="M1031 2569c14 0 27-4 39-12 12-8 23-21 31-39 9-18 16-40 21-67 5-27 8-60 8-98-7-5-15-9-24-13-9-3-19-5-29-5-15 0-29 4-42 11-13 8-24 18-33 31-9 13-16 29-21 47-5 18-8 38-8 59 0 15 1 28 4 39 3 11 7 20 12 26 5 7 11 12 18 15 7 3 15 5 23 5zm-85-460c42-5 80-5 115 0 35 5 65 17 90 35 25 19 44 45 58 79 14 34 21 78 21 131 0 45-5 86-16 122-11 36-26 67-45 92-19 25-41 45-67 58-26 14-53 20-83 20-21 0-40-3-58-10-18-7-33-17-46-30-13-14-23-30-31-51-7-20-11-44-11-71 0-28 5-56 13-82 9-26 21-50 37-70 16-20 35-37 57-49 22-12 47-18 74-18 17 0 32 2 45 7 13 5 25 12 36 21-4-24-10-44-19-59-9-15-21-28-35-36-14-9-32-15-52-18-20-3-43-5-69-4-9 0-14-2-17-5-3-4-4-9-2-17l5-45z"/>
		<path class="fil0" d="M1279 2312c8-8 18-15 28-21 11-7 23-12 35-17 13-5 26-8 41-11 14-3 29-4 43-4 21 0 40 2 55 7 16 5 28 12 39 20 10 8 18 18 23 28 5 11 7 22 7 34 0 9-1 18-4 26-3 9-7 17-14 25-6 8-14 15-24 21-10 6-22 12-37 16 21 5 37 14 48 27 11 13 17 30 17 51 0 15-3 31-10 46-7 15-17 30-31 42-14 13-32 23-53 31-22 8-47 12-77 12-24 0-46-4-68-11-22-7-43-20-64-38l26-41c2-3 5-6 8-9 4-3 7-4 11-4 6 0 11 1 16 5 5 3 11 6 17 10 6 4 14 7 23 10 9 3 21 5 35 5 12 0 23-2 32-5 9-3 17-7 23-13 6-5 11-12 14-19 3-7 5-15 5-24 0-8-1-14-4-20-2-5-6-9-10-13-5-3-10-5-16-7-6-1-13-2-21-2-8 0-17 1-28 2-11 2-21 3-30 5 0-12 1-24 2-36 1-11 4-23 9-35 7 1 13 2 19 3 6 1 13 1 19 1 14 0 25-1 35-4 10-3 17-7 23-11 6-4 10-9 13-15 3-5 4-11 4-16 0-10-4-19-12-26-8-7-22-10-41-10-13 0-24 1-33 4-9 3-17 5-23 9-7 3-12 6-17 9-5 3-9 5-14 5-4 0-8 0-11-1-3-1-6-5-10-10l-21-34z"/>
		<path class="fil0" d="M1830 2329c-2 0-4 0-7 0-2 0-4 0-7 0-19 0-37 4-54 13-16 9-30 21-42 36-12 15-21 33-28 53-7 20-10 41-10 63 0 25 4 44 12 55 8 11 18 17 31 17 9 0 18-3 27-10 9-7 17-16 25-27 8-11 15-25 22-40 7-15 12-32 17-49l14-110zm-25 241c-16 24-34 42-54 56-20 14-42 20-66 20-14 0-27-3-40-8-13-5-24-14-33-25-9-11-17-25-22-42-5-17-8-37-8-59 0-23 3-45 8-66 6-21 14-41 24-60 10-19 23-36 38-52 15-16 32-29 50-40 18-11 38-20 60-26 22-6 44-9 68-9 18 0 35 1 53 4 18 3 35 7 52 13l-45 365-54 0c-6 0-12-1-16-3-4-2-8-4-10-7-3-3-4-6-5-10-1-4-1-8-1-13l1-38z"/>
		<path class="fil0" d="M2118 2259c16 0 30 2 45 6 14 4 27 9 37 17 11 7 19 17 26 28 6 11 10 25 10 40 0 18-4 33-13 47-9 14-20 26-33 37-13 11-28 21-43 30-15 9-30 18-43 27-13 9-24 17-33 26-9 9-13 18-13 28 0 6 3 12 9 17 6 5 16 8 29 8 10 0 19-1 27-4 8-3 16-6 22-10 7-4 13-7 19-10 5-3 10-4 15-4 5 0 8 1 11 2 3 2 6 4 9 8l24 35c-10 10-21 18-32 26-11 7-23 13-36 18-12 5-25 9-38 11-13 2-26 4-38 4-19 0-36-2-51-7-15-5-28-11-38-19-10-8-19-18-24-30-6-11-8-24-8-37 0-14 3-26 8-38 5-11 12-22 21-32 9-10 18-19 29-27 11-8 22-16 33-23 11-7 23-14 33-21 11-7 20-13 29-19 9-6 15-12 21-18 5-6 8-12 8-18 0-6-3-11-8-15-5-4-14-7-25-7-8 0-16 1-23 3-7 2-14 5-20 8-6 3-12 5-18 7-5 2-10 4-15 4-3 0-5 0-9-2-3-1-6-5-9-10l-22-41c17-14 36-25 58-33 22-8 45-12 68-12z"/>
		<path class="fil0" d="M2423 2570c14 0 27-4 38-12 11-8 21-19 28-33 8-14 14-30 18-49 4-19 6-38 6-59 0-29-5-50-14-63-9-13-23-19-42-19-14 0-26 4-38 12-11 8-21 19-29 33-8 14-14 30-18 49-4 19-6 38-6 59 0 29 5 50 14 63 9 13 23 20 42 20zm-9 76c-21 0-40-4-58-10-18-7-34-17-47-30-13-13-23-30-31-50-7-20-11-42-11-68 0-33 5-63 16-92 11-28 25-52 43-73 18-20 40-37 64-48 24-12 50-17 77-17 21 0 40 3 58 10 18 7 33 17 46 31 13 14 23 30 31 50 8 20 11 42 11 68 0 33-5 63-16 91-11 28-25 52-44 73-18 20-40 37-64 48-24 12-50 18-77 18z"/>
		<path class="fil0" d="M2708 2436c7-31 16-57 27-79 10-22 24-39 40-53 16-14 35-24 58-30 23-6 50-10 81-10l96 0-46 376-97 0 37-303-11 0c-13 0-24 2-33 5-9 3-18 9-25 17-7 8-13 19-18 32-5 13-10 30-14 51-8 39-17 72-27 98-10 26-22 47-34 63-13 16-27 27-42 34-15 7-32 10-50 10-15 0-25-1-30-4-6-2-8-7-8-14l7-56 11 0c11 0 20-2 27-7 7-4 14-12 19-23 6-11 11-25 16-42 5-18 10-39 17-66z"/>
		<path class="fil0" d="M3200 2570c14 0 27-4 38-12 11-8 21-19 28-33 8-14 14-30 18-49 4-19 6-38 6-59 0-29-5-50-14-63-9-13-23-19-42-19-14 0-26 4-38 12-11 8-21 19-29 33-8 14-14 30-18 49-4 19-6 38-6 59 0 29 5 50 14 63 9 13 23 20 42 20zm-9 76c-21 0-40-4-58-10-18-7-34-17-47-30-13-13-23-30-31-50-7-20-11-42-11-68 0-33 5-63 16-92 11-28 25-52 43-73 18-20 40-37 64-48 24-12 50-17 77-17 21 0 40 3 58 10 18 7 33 17 46 31 13 14 23 30 31 50 8 20 11 42 11 68 0 33-5 63-16 91-11 28-25 52-44 73-18 20-40 37-64 48-24 12-50 18-77 18z"/>
		<path class="fil0" d="M3525 2485c0 28 5 50 14 65 10 16 24 23 45 22 9 0 17-3 25-6 7-4 14-8 19-14 5-6 9-12 12-20 3-7 4-15 4-23 0-7-1-13-3-19-2-6-6-10-10-14-5-4-11-6-19-7-8-1-17-1-28 1l-58 14zm58-72c14-3 26-7 35-11 9-4 16-9 21-14 5-5 8-10 10-16 2-5 3-11 3-17 0-9-2-17-7-23-4-6-12-9-23-9-9 0-19 2-28 7-9 5-18 12-26 20-8 9-15 20-21 32-6 13-11 27-15 42l52-13zm69 20c12 1 23 3 33 7 10 4 19 9 27 15 7 6 13 14 18 23 4 9 6 20 6 32 0 17-4 33-11 49-7 16-18 31-32 44-14 13-31 23-52 31-20 8-43 12-69 12-24 0-45-4-63-11-18-7-33-17-46-31-12-13-22-29-28-48-6-19-9-40-9-64 0-21 2-42 7-61 5-20 12-38 20-56 9-17 19-33 32-48 12-14 26-27 42-37 15-10 32-18 50-24 18-6 37-9 56-9 17 0 32 2 45 6 13 4 24 10 32 17 9 7 15 15 20 25 5 10 7 20 7 31 0 19-7 37-21 54-14 17-35 31-64 41z"/>
		<path class="fil0" d="M3938 2570c14 0 27-4 38-12 11-8 21-19 28-33 8-14 14-30 18-49 4-19 6-38 6-59 0-29-5-50-14-63-9-13-23-19-42-19-14 0-26 4-38 12-11 8-21 19-29 33-8 14-14 30-18 49-4 19-6 38-6 59 0 29 5 50 14 63 9 13 23 20 42 20zm-9 76c-21 0-40-4-58-10-18-7-34-17-47-30-13-13-23-30-31-50-7-20-11-42-11-68 0-33 5-63 16-92 11-28 25-52 43-73 18-20 40-37 64-48 24-12 50-17 77-17 21 0 40 3 58 10 18 7 33 17 46 31 13 14 23 30 31 50 8 20 11 42 11 68 0 33-5 63-16 91-11 28-25 52-44 73-18 20-40 37-64 48-24 12-50 18-77 18z"/>
		<path class="fil0" d="M4375 2342c10-15 19-27 26-37 7-10 14-18 21-24 7-6 15-11 24-13 9-3 20-4 34-4l42 0-11 51c-1 7-4 12-7 14-3 2-7 4-11 5-4 1-8 3-13 5-5 2-10 6-14 13l-35 51c-4 5-7 10-11 14-4 4-7 8-11 11-4 3-8 6-12 8-4 2-9 4-15 5 16 3 29 9 38 17 9 8 17 21 23 37l54 148-57 0c-9 0-16-1-22-2-6-1-12-4-16-6-5-3-8-6-12-10-3-4-6-9-9-14l-35-102c-3-9-7-16-14-22-7-5-14-8-23-8l-30 6-19 158-97 0 46-376 97 0-19 155 17-4c5-1 9-2 12-3 3-1 6-2 9-4 3-1 5-3 7-5 2-2 4-5 7-9l37-52z"/>
		<polygon class="fil0" points="4805 2497 4910 2497 4910 2529 4805 2529 "/>
		<path class="fil0" d="M5226 2463c-1 2-2 3-3 4-1 1-3 1-5 1-2 0-4-1-7-3-3-2-6-4-9-6-4-2-8-4-14-6-5-2-12-3-20-3-11 0-20 2-28 6-8 4-15 9-20 16-5 7-10 16-12 26-3 10-4 21-4 34 0 13 1 25 4 35 3 10 7 19 13 26 5 7 12 12 20 16 8 4 16 5 26 5 9 0 17-1 23-3 6-2 11-5 15-7 4-3 7-5 10-7 3-2 5-3 8-3 3 0 6 1 7 4l11 14c-5 6-10 11-16 15-6 4-12 8-19 10-7 3-14 5-22 6-8 1-15 2-23 2-13 0-26-2-38-7-12-5-22-12-30-22-9-9-15-21-20-35-5-14-7-29-7-47 0-16 2-31 7-45 4-14 11-25 20-35 9-10 19-18 32-23 13-6 27-8 43-8 15 0 29 2 40 7 12 5 22 12 31 21l-10 14z"/>
		<polygon class="fil0" points="5459 2640 5421 2640 5421 2454 5317 2454 5317 2640 5279 2640 5279 2425 5459 2425 "/>
		<path class="fil0" d="M5664 2509c0-9-1-17-4-24-2-7-6-14-11-19-5-5-11-9-17-12-7-3-15-4-23-4-18 0-33 5-43 16-11 11-17 25-20 44l118 0zm31 101c-5 6-10 11-17 15-7 4-13 8-21 10-7 3-15 5-23 6-8 1-16 2-24 2-15 0-29-3-41-8-13-5-23-12-33-22-9-10-16-22-21-36-5-14-8-31-8-49 0-15 2-29 7-42 5-13 11-24 20-34 9-10 19-17 32-23 12-5 27-8 42-8 13 0 25 2 36 6 11 4 21 11 29 19 8 8 14 18 19 30 5 12 7 26 7 41 0 6-1 10-2 12-1 2-4 3-7 3l-144 0c0 14 2 25 6 36 3 10 8 18 14 25 6 7 13 12 21 15 8 3 17 5 28 5 10 0 18-1 25-3 7-2 13-5 18-7 5-3 9-5 12-7 3-2 6-3 9-3 3 0 6 1 7 4l11 14z"/>
		<path class="fil0" d="M5963 2612l0 91c0 4-1 7-3 9-2 2-5 3-8 3l-23 0 0-74-185 0 0-216 38 0 0 187 104 0 0-187 38 0 0 187 39 0z"/>
		<path class="fil0" d="M6187 2425l0 216-38 0 0-147c0-3 0-6 0-9 0-3 1-7 1-10-1 3-3 5-4 8-1 2-3 5-4 7l-104 142c-2 2-3 4-6 6-2 2-5 3-8 3l-23 0 0-216 38 0 0 147c0 3 0 6 0 9 0 3-1 6-1 10 1-3 3-5 4-8 1-2 3-4 4-6l104-142c2-2 4-4 6-7 2-2 5-3 8-3l23 0z"/>
		<path class="fil0" d="M6364 2543c-17 1-32 2-45 4-12 2-22 5-30 9-8 4-13 8-17 13-3 5-5 10-5 16 0 6 1 11 3 15 2 4 4 7 8 10 3 3 7 5 11 6 4 1 9 2 14 2 7 0 13-1 18-2 6-1 11-3 16-6 5-3 10-6 14-9 4-4 9-8 13-12l0-45zm-122-88c12-11 25-20 39-26 14-6 29-9 46-9 12 0 23 2 32 6 9 4 17 10 24 17 6 7 11 16 14 26 3 10 5 21 5 33l0 138-17 0c-4 0-7-1-9-2-2-1-4-4-5-7l-4-20c-6 5-11 10-17 14-5 4-11 7-17 10-6 3-12 5-19 6-7 1-14 2-23 2-8 0-16-1-24-4-7-2-14-6-19-11-5-5-10-11-13-18-3-7-5-16-5-25 0-9 2-17 7-25 5-8 12-15 23-21 11-6 24-11 41-15 17-4 38-6 62-7l0-17c0-17-4-29-11-38-7-9-18-13-32-13-9 0-17 1-24 3-6 2-12 5-16 8-5 3-9 6-12 8-3 2-7 4-10 4-3 0-5-1-7-2-2-1-3-3-5-5l-7-12z"/>
		<path class="fil0" d="M6648 2640l-38 0 0-186-68 0c-2 27-4 51-8 71-3 20-7 37-12 51-5 14-10 25-16 34-6 9-12 16-19 20-6 5-13 8-20 10-7 2-14 3-21 3-12 0-18-2-18-6l0-24 11 0c5 0 10-1 15-3 5-2 10-5 15-10 5-5 9-12 14-20 4-9 8-20 12-34 4-14 7-31 9-51 3-20 5-44 6-71l138 0 0 216z"/>
		<path class="fil0" d="M6791 2613c8 0 14-1 20-3 6-2 10-5 14-8 4-3 6-8 8-12 2-5 3-10 3-15 0-5-1-10-2-14-2-4-4-8-8-12-4-3-8-6-14-8-6-2-13-3-21-3l-46 0 0 76 46 0zm-1-104c15 0 27 2 38 5 10 4 18 8 24 14 6 6 11 13 13 21 3 8 4 16 4 24 0 10-2 19-5 27-3 8-8 15-15 21-7 6-15 11-25 14-10 3-21 5-34 5l-83 0 0-216 36 0 0 85 46 0z"/>
		<polygon class="fil0" points="7092 2425 7092 2640 7053 2640 7053 2539 6950 2539 6950 2640 6912 2640 6912 2425 6950 2425 6950 2511 7053 2511 7053 2425 "/>
		<path class="fil0" d="M7234 2613c8 0 14-1 20-3 6-2 10-5 14-8 4-3 6-8 8-12 2-5 3-10 3-15 0-5-1-10-2-14-2-4-4-8-8-12-4-3-8-6-14-8-6-2-13-3-21-3l-46 0 0 76 47 0zm-1-104c15 0 27 2 38 5 10 4 18 8 24 14 6 6 11 13 13 21 3 8 4 16 4 24 0 10-2 19-5 27-3 8-8 15-15 21-7 6-15 11-25 14-10 3-21 5-34 5l-83 0 0-216 36 0 0 85 46 0zm165-85l0 216-38 0 0-216 38 0z"/>
		<path class="fil0" d="M7644 2425l0 216-38 0 0-147c0-3 0-6 0-9 0-3 1-7 1-10-1 3-3 5-4 8-1 2-3 5-4 7l-104 142c-2 2-3 4-6 6-2 2-5 3-8 3l-23 0 0-216 38 0 0 147c0 3 0 6 0 9 0 3-1 6-1 10 1-3 3-5 4-8 1-2 3-4 4-6l104-142c2-2 4-4 6-7 2-2 5-3 8-3l23 0zm-90-52c6 0 11-1 15-2 4-1 7-3 10-6 2-3 4-7 5-11 1-5 2-10 2-17l22 0c3 0 5 1 6 4 1 2 2 5 2 8 0 7-1 13-4 19-3 6-7 11-12 15-5 4-12 7-20 9-8 2-16 3-26 3-10 0-18-1-26-3-8-2-14-5-19-9-5-4-9-9-12-15-3-6-4-12-4-19 0-3 1-5 2-8 1-2 3-4 6-4l22 0c0 7 1 13 2 17 1 5 3 9 5 11 2 3 6 5 10 6 4 1 9 2 15 2z"/>
		<polygon class="fil0" points="8104 2425 8104 2640 7813 2640 7813 2425 7851 2425 7851 2612 7939 2612 7939 2425 7977 2425 7977 2612 8065 2612 8065 2425 "/>
		<path class="fil0" d="M8202 2588c7 9 15 16 23 20 8 4 17 6 28 6 20 0 36-7 46-22 11-14 16-35 16-61 0-14-1-26-4-36-2-10-6-18-11-25-5-6-10-11-17-14-7-3-15-4-23-4-12 0-23 3-32 9-9 6-18 14-26 24l0 104zm-2-130c9-11 20-20 32-27 12-7 26-10 41-10 12 0 24 2 34 7 10 5 19 12 26 21 7 9 13 21 16 35 4 14 6 30 6 48 0 16-2 31-6 44-4 14-10 26-18 36-8 10-18 18-29 24-12 6-25 9-39 9-13 0-24-2-34-7-9-4-18-11-25-19l0 95-38 0 0-289 23 0c5 0 9 3 10 8l3 26z"/>
		<path class="fil0" d="M8587 2425l0 216-38 0 0-147c0-3 0-6 0-9 0-3 1-7 1-10-1 3-3 5-4 8-1 2-3 5-4 7l-104 142c-2 2-3 4-6 6-2 2-5 3-8 3l-23 0 0-216 38 0 0 147c0 3 0 6 0 9 0 3-1 6-1 10 1-3 3-5 4-8 1-2 3-4 4-6l104-142c2-2 4-4 6-7 2-2 5-3 8-3l23 0z"/>
		<path class="fil0" d="M8784 2615c13-1 24-3 34-7 10-4 18-10 24-17 7-7 12-15 15-25 3-10 5-21 5-33 0-12-2-24-5-33-3-10-8-18-15-25-7-7-15-13-24-17-10-4-21-6-34-7l0 163 0 2zm-34-165c-13 1-24 3-34 7-10 4-18 10-24 17-7 7-12 16-15 26-3 10-5 21-5 33 0 12 2 23 5 33 3 10 8 18 15 25 7 7 15 13 24 17 10 4 21 6 34 7l0-1 0-163zm35-29c18 1 34 4 48 9 14 6 26 13 36 23 10 10 18 21 23 34 5 13 8 28 8 44 0 16-3 31-8 44-5 13-13 25-23 34-10 10-22 17-36 23-14 6-30 9-48 9l0 72-36 0 0-72c-18-1-34-4-48-9-14-6-26-13-36-23-10-10-18-21-23-34-5-13-8-28-8-44 0-16 3-31 8-44 5-13 13-25 23-34 10-10 22-17 36-23 14-6 30-9 48-9l0-86 36 0 0 86z"/>
		<polygon class="fil0" points="9118 2454 9035 2454 9035 2640 8998 2640 8998 2454 8915 2454 8915 2425 9118 2425 "/>
		<polygon class="fil0" points="405 3701 299 3701 354 3251 161 3251 106 3701 0 3701 65 3171 470 3171 "/>
		<path class="fil0" d="M645 3631c14 0 27-4 38-12 11-8 21-19 28-33 8-14 14-30 18-49 4-19 6-38 6-59 0-29-5-50-14-63-9-13-23-19-42-19-14 0-26 4-38 12-11 8-21 19-29 33-8 14-14 30-18 49-4 19-6 38-6 59 0 29 5 50 14 63 9 13 23 20 42 20zm-9 76c-21 0-40-4-58-10-18-7-34-17-47-30-13-13-23-30-31-50-7-20-11-42-11-68 0-33 5-63 16-92 11-28 25-52 43-73 18-20 40-37 64-48 24-12 50-17 77-17 21 0 40 3 58 10 18 7 33 17 46 31 13 14 23 30 31 50 8 20 11 42 11 68 0 33-5 63-16 91-11 28-25 52-44 73-18 20-40 37-64 48-24 12-50 18-77 18z"/>
		<path class="fil0" d="M1031 3630c14 0 27-4 39-12 12-8 23-21 31-39 9-18 16-40 21-67 5-27 8-60 8-98-7-5-15-9-24-13-9-3-19-5-29-5-15 0-29 4-42 11-13 8-24 18-33 31-9 13-16 29-21 47-5 18-8 38-8 59 0 15 1 28 4 39 3 11 7 20 12 26 5 7 11 12 18 15 7 3 15 5 23 5zm-85-460c42-5 80-5 115 0 35 5 65 17 90 35 25 19 44 45 58 79 14 34 21 78 21 131 0 45-5 86-16 122-11 36-26 67-45 92-19 25-41 45-67 58-26 14-53 20-83 20-21 0-40-3-58-10-18-7-33-17-46-30-13-14-23-30-31-51-7-20-11-44-11-71 0-28 5-56 13-82 9-26 21-50 37-70 16-20 35-37 57-49 22-12 47-18 74-18 17 0 32 2 45 7 13 5 25 12 36 21-4-24-10-44-19-59-9-15-21-28-35-36-14-9-32-15-52-18-20-3-43-5-69-4-9 0-14-2-17-5-3-4-4-9-2-17l5-45z"/>
		<path class="fil0" d="M1279 3372c8-8 18-15 28-21 11-7 23-12 35-17 13-5 26-8 41-11 14-3 29-4 43-4 21 0 40 2 55 7 16 5 28 12 39 20 10 8 18 18 23 28 5 11 7 22 7 34 0 9-1 18-4 26-3 9-7 17-14 25-6 8-14 15-24 21-10 6-22 12-37 16 21 5 37 14 48 27 11 13 17 30 17 51 0 15-3 31-10 46-7 15-17 30-31 42-14 13-32 23-53 31-22 8-47 12-77 12-24 0-46-4-68-11-22-7-43-20-64-38l26-41c2-3 5-6 8-9 4-3 7-4 11-4 6 0 11 1 16 5 5 3 11 6 17 10 6 4 14 7 23 10 9 3 21 5 35 5 12 0 23-2 32-5 9-3 17-7 23-13 6-5 11-12 14-19 3-7 5-15 5-24 0-8-1-14-4-20-2-5-6-9-10-13-5-3-10-5-16-7-6-1-13-2-21-2-8 0-17 1-28 2-11 2-21 3-30 5 0-12 1-24 2-36 1-11 4-23 9-35 7 1 13 2 19 3 6 1 13 1 19 1 14 0 25-1 35-4 10-3 17-7 23-11 6-4 10-9 13-15 3-5 4-11 4-16 0-10-4-19-12-26-8-7-22-10-41-10-13 0-24 1-33 4-9 3-17 5-23 9-7 3-12 6-17 9-5 3-9 5-14 5-4 0-8 0-11-1-3-1-6-5-10-10l-21-34z"/>
		<path class="fil0" d="M1830 3389c-2 0-4 0-7 0-2 0-4 0-7 0-19 0-37 4-54 13-16 9-30 21-42 36-12 15-21 33-28 53-7 20-10 41-10 63 0 25 4 44 12 55 8 11 18 17 31 17 9 0 18-3 27-10 9-7 17-16 25-27 8-11 15-25 22-40 7-15 12-32 17-49l14-110zm-25 241c-16 24-34 42-54 56-20 14-42 20-66 20-14 0-27-3-40-8-13-5-24-14-33-25-9-11-17-25-22-42-5-17-8-37-8-59 0-23 3-45 8-66 6-21 14-41 24-60 10-19 23-36 38-52 15-16 32-29 50-40 18-11 38-20 60-26 22-6 44-9 68-9 18 0 35 1 53 4 18 3 35 7 52 13l-45 365-54 0c-6 0-12-1-16-3-4-2-8-4-10-7-3-3-4-6-5-10-1-4-1-8-1-13l1-38z"/>
		<path class="fil0" d="M2118 3320c16 0 30 2 45 6 14 4 27 9 37 17 11 7 19 17 26 28 6 11 10 25 10 40 0 18-4 33-13 47-9 14-20 26-33 37-13 11-28 21-43 30-15 9-30 18-43 27-13 9-24 17-33 26-9 9-13 18-13 28 0 6 3 12 9 17 6 5 16 8 29 8 10 0 19-1 27-4 8-3 16-6 22-10 7-4 13-7 19-10 5-3 10-4 15-4 5 0 8 1 11 2 3 2 6 4 9 8l24 35c-10 10-21 18-32 26-11 7-23 13-36 18-12 5-25 9-38 11-13 2-26 4-38 4-19 0-36-2-51-7-15-5-28-11-38-19-10-8-19-18-24-30-6-11-8-24-8-37 0-14 3-26 8-38 5-11 12-22 21-32 9-10 18-19 29-27 11-8 22-16 33-23 11-7 23-14 33-21 11-7 20-13 29-19 9-6 15-12 21-18 5-6 8-12 8-18 0-6-3-11-8-15-5-4-14-7-25-7-8 0-16 1-23 3-7 2-14 5-20 8-6 3-12 5-18 7-5 2-10 4-15 4-3 0-5 0-9-2-3-1-6-5-9-10l-22-41c17-14 36-25 58-33 22-8 45-12 68-12z"/>
		<path class="fil0" d="M2423 3631c14 0 27-4 38-12 11-8 21-19 28-33 8-14 14-30 18-49 4-19 6-38 6-59 0-29-5-50-14-63-9-13-23-19-42-19-14 0-26 4-38 12-11 8-21 19-29 33-8 14-14 30-18 49-4 19-6 38-6 59 0 29 5 50 14 63 9 13 23 20 42 20zm-9 76c-21 0-40-4-58-10-18-7-34-17-47-30-13-13-23-30-31-50-7-20-11-42-11-68 0-33 5-63 16-92 11-28 25-52 43-73 18-20 40-37 64-48 24-12 50-17 77-17 21 0 40 3 58 10 18 7 33 17 46 31 13 14 23 30 31 50 8 20 11 42 11 68 0 33-5 63-16 91-11 28-25 52-44 73-18 20-40 37-64 48-24 12-50 18-77 18z"/>
		<path class="fil0" d="M2708 3496c7-31 16-57 27-79 10-22 24-39 40-53 16-14 35-24 58-30 23-6 50-10 81-10l96 0-46 376-97 0 37-303-11 0c-13 0-24 2-33 5-9 3-18 9-25 17-7 8-13 19-18 32-5 13-10 30-14 51-8 39-17 72-27 98-10 26-22 47-34 63-13 16-27 27-42 34-15 7-32 10-50 10-15 0-25-1-30-4-6-2-8-7-8-14l7-56 11 0c11 0 20-2 27-7 7-4 14-12 19-23 6-11 11-25 16-42 5-18 10-39 17-66z"/>
		<path class="fil0" d="M3200 3631c14 0 27-4 38-12 11-8 21-19 28-33 8-14 14-30 18-49 4-19 6-38 6-59 0-29-5-50-14-63-9-13-23-19-42-19-14 0-26 4-38 12-11 8-21 19-29 33-8 14-14 30-18 49-4 19-6 38-6 59 0 29 5 50 14 63 9 13 23 20 42 20zm-9 76c-21 0-40-4-58-10-18-7-34-17-47-30-13-13-23-30-31-50-7-20-11-42-11-68 0-33 5-63 16-92 11-28 25-52 43-73 18-20 40-37 64-48 24-12 50-17 77-17 21 0 40 3 58 10 18 7 33 17 46 31 13 14 23 30 31 50 8 20 11 42 11 68 0 33-5 63-16 91-11 28-25 52-44 73-18 20-40 37-64 48-24 12-50 18-77 18z"/>
		<path class="fil0" d="M3525 3546c0 28 5 50 14 65 10 16 24 23 45 22 9 0 17-3 25-6 7-4 14-8 19-14 5-6 9-12 12-20 3-7 4-15 4-23 0-7-1-13-3-19-2-6-6-10-10-14-5-4-11-6-19-7-8-1-17-1-28 1l-58 14zm58-72c14-3 26-7 35-11 9-4 16-9 21-14 5-5 8-10 10-16 2-5 3-11 3-17 0-9-2-17-7-23-4-6-12-9-23-9-9 0-19 2-28 7-9 5-18 12-26 20-8 9-15 20-21 32-6 13-11 27-15 42l52-13zm69 20c12 1 23 3 33 7 10 4 19 9 27 15 7 6 13 14 18 23 4 9 6 20 6 32 0 17-4 33-11 49-7 16-18 31-32 44-14 13-31 23-52 31-20 8-43 12-69 12-24 0-45-4-63-11-18-7-33-17-46-31-12-13-22-29-28-48-6-19-9-40-9-64 0-21 2-42 7-61 5-20 12-38 20-56 9-17 19-33 32-48 12-14 26-27 42-37 15-10 32-18 50-24 18-6 37-9 56-9 17 0 32 2 45 6 13 4 24 10 32 17 9 7 15 15 20 25 5 10 7 20 7 31 0 19-7 37-21 54-14 17-35 31-64 41z"/>
		<path class="fil0" d="M3938 3631c14 0 27-4 38-12 11-8 21-19 28-33 8-14 14-30 18-49 4-19 6-38 6-59 0-29-5-50-14-63-9-13-23-19-42-19-14 0-26 4-38 12-11 8-21 19-29 33-8 14-14 30-18 49-4 19-6 38-6 59 0 29 5 50 14 63 9 13 23 20 42 20zm-9 76c-21 0-40-4-58-10-18-7-34-17-47-30-13-13-23-30-31-50-7-20-11-42-11-68 0-33 5-63 16-92 11-28 25-52 43-73 18-20 40-37 64-48 24-12 50-17 77-17 21 0 40 3 58 10 18 7 33 17 46 31 13 14 23 30 31 50 8 20 11 42 11 68 0 33-5 63-16 91-11 28-25 52-44 73-18 20-40 37-64 48-24 12-50 18-77 18z"/>
		<path class="fil0" d="M4375 3403c10-15 19-27 26-37 7-10 14-18 21-24 7-6 15-11 24-13 9-3 20-4 34-4l42 0-11 51c-1 7-4 12-7 14-3 2-7 4-11 5-4 1-8 3-13 5-5 2-10 6-14 13l-35 51c-4 5-7 10-11 14-4 4-7 8-11 11-4 3-8 6-12 8-4 2-9 4-15 5 16 3 29 9 38 17 9 8 17 21 23 37l54 148-57 0c-9 0-16-1-22-2-6-1-12-4-16-6-5-3-8-6-12-10-3-4-6-9-9-14l-35-102c-3-9-7-16-14-22-7-5-14-8-23-8l-30 6-19 158-97 0 46-376 97 0-19 155 17-4c5-1 9-2 12-3 3-1 6-2 9-4 3-1 5-3 7-5 2-2 4-5 7-9l37-52z"/>
		<polygon class="fil0" points="4805 3557 4910 3557 4910 3589 4805 3589 "/>
		<path class="fil0" d="M5207 3496c2-3 5-6 8-8 3-2 7-3 10-3l30 0-56 82c-3 5-7 10-11 13-4 3-8 6-14 8 7 2 13 5 17 9 5 4 9 9 13 15l57 89-26 0c-7 0-12-1-16-3-4-2-7-6-10-10l-42-67c-7-11-17-17-30-17l-23 0 0 97-38 0 0-216 38 0 0 93 20 0c11 0 20-5 27-14l46-68z"/>
		<path class="fil0" d="M5413 3604c-17 1-32 2-45 4-12 2-22 5-30 9-8 4-13 8-17 13-3 5-5 10-5 16 0 6 1 11 3 15 2 4 4 7 8 10 3 3 7 5 11 6 4 1 9 2 14 2 7 0 13-1 18-2 6-1 11-3 16-6 5-3 10-6 14-9 4-4 9-8 13-12l0-45zm-122-88c12-11 25-20 39-26 14-6 29-9 46-9 12 0 23 2 32 6 9 4 17 10 24 17 6 7 11 16 14 26 3 10 5 21 5 33l0 138-17 0c-4 0-7-1-9-2-2-1-4-4-5-7l-4-20c-6 5-11 10-17 14-5 4-11 7-17 10-6 3-12 5-19 6-7 1-14 2-23 2-8 0-16-1-24-4-7-2-14-6-19-11-5-5-10-11-13-18-3-7-5-16-5-25 0-9 2-17 7-25 5-8 12-15 23-21 11-6 24-11 41-15 17-4 38-6 62-7l0-17c0-17-4-29-11-38-7-9-18-13-32-13-9 0-17 1-24 3-6 2-12 5-16 8-5 3-9 6-12 8-3 2-7 4-10 4-3 0-5-1-7-2-2-1-3-3-5-5l-7-12z"/>
		<path class="fil0" d="M5546 3649c7 9 15 16 23 20 8 4 17 6 28 6 20 0 36-7 46-22 11-14 16-35 16-61 0-14-1-26-4-36-2-10-6-18-11-25-5-6-10-11-17-14-7-3-15-4-23-4-12 0-23 3-32 9-9 6-18 14-26 24l0 104zm-2-130c9-11 20-20 32-27 12-7 26-10 41-10 12 0 24 2 34 7 10 5 19 12 26 21 7 9 13 21 16 35 4 14 6 30 6 48 0 16-2 31-6 44-4 14-10 26-18 36-8 10-18 18-29 24-12 6-25 9-39 9-13 0-24-2-34-7-9-4-18-11-25-19l0 95-38 0 0-289 23 0c5 0 9 3 10 8l3 26z"/>
		<polygon class="fil0" points="5920 3514 5837 3514 5837 3701 5799 3701 5799 3514 5716 3514 5716 3485 5920 3485 "/>
		<path class="fil0" d="M6141 3485l0 216-38 0 0-147c0-3 0-6 0-9 0-3 1-7 1-10-1 3-3 5-4 8-1 2-3 5-4 7l-104 142c-2 2-3 4-6 6-2 2-5 3-8 3l-23 0 0-216 38 0 0 147c0 3 0 6 0 9 0 3-1 6-1 10 1-3 3-5 4-8 1-2 3-4 4-6l104-142c2-2 4-4 6-7 2-2 5-3 8-3l23 0z"/>
		<polygon class="fil0" points="6381 3485 6381 3701 6343 3701 6343 3600 6239 3600 6239 3701 6201 3701 6201 3485 6239 3485 6239 3571 6343 3571 6343 3485 "/>
		<path class="fil0" d="M6572 3496c2-3 5-6 8-8 3-2 7-3 10-3l30 0-56 82c-3 5-7 10-11 13-4 3-8 6-14 8 7 2 13 5 17 9 5 4 9 9 13 15l57 89-26 0c-7 0-12-1-16-3-4-2-7-6-10-10l-42-67c-7-11-17-17-30-17l-23 0 0 97-38 0 0-216 38 0 0 93 20 0c11 0 20-5 27-14l46-68z"/>
		<path class="fil0" d="M6778 3604c-17 1-32 2-45 4-12 2-22 5-30 9-8 4-13 8-17 13-3 5-5 10-5 16 0 6 1 11 3 15 2 4 4 7 8 10 3 3 7 5 11 6 4 1 9 2 14 2 7 0 13-1 18-2 6-1 11-3 16-6 5-3 10-6 14-9 4-4 9-8 13-12l0-45zm-122-88c12-11 25-20 39-26 14-6 29-9 46-9 12 0 23 2 32 6 9 4 17 10 24 17 6 7 11 16 14 26 3 10 5 21 5 33l0 138-17 0c-4 0-7-1-9-2-2-1-4-4-5-7l-4-20c-6 5-11 10-17 14-5 4-11 7-17 10-6 3-12 5-19 6-7 1-14 2-23 2-8 0-16-1-24-4-7-2-14-6-19-11-5-5-10-11-13-18-3-7-5-16-5-25 0-9 2-17 7-25 5-8 12-15 23-21 11-6 24-11 41-15 17-4 38-6 62-7l0-17c0-17-4-29-11-38-7-9-18-13-32-13-9 0-17 1-24 3-6 2-12 5-16 8-5 3-9 6-12 8-3 2-7 4-10 4-3 0-5-1-7-2-2-1-3-3-5-5l-7-12z"/>
	</g>
</svg>
