<?xml version="1.0" encoding="UTF-8"?>
<svg xmlns="http://www.w3.org/2000/svg" xmlns:xlink="http://www.w3.org/1999/xlink" xml:space="preserve" height="460px" viewBox="0 0 17254 9077" version="1.1" baseProfile="full" style="clip-rule:evenodd;fill-rule:evenodd;image-rendering:optimizeQuality;shape-rendering:geometricPrecision;text-rendering:optimizeLegibility">
	<defs>
		<style type="text/css"><![CDATA[
			.str4 {stroke:white;stroke-width:7.35467}
			.str3 {stroke:black;stroke-width:19.3036}
			.str2 {stroke:black;stroke-width:24.1295}
			.str0 {stroke:black;stroke-width:72.3884}
			.str1 {stroke:black;stroke-width:96.5179}
			.fil2 {fill:none}
			.fil1 {fill:black}
			.fil0 {fill:white}
			.fil4 {fill:black;fill-rule:nonzero}
			.fil3 {fill:white;fill-rule:nonzero}
		]]></style>
	</defs>
	<g>
		<g>
			<polygon class="fil0" points="9631 1387 9824 2469 9620 2506 9620 2663 9459 2663 9442 2784 8657 2678 7879 2818 7851 2664 7643 2664 7643 2542 7484 2520 7630 1430 7437 348 7642 311 7642 155 7802 155 7818 34 8603 139 9382 0 9427 251 9777 298 "/>
			<path class="fil1" d="M9824 2469l-194-1082 147-1089-350-47-45-251-779 139-785-106-16 121-161 0 0 156-205 37 194 1082-147 1090 159 21 0 122 208 0 28 154 779-139 785 106 16-121 161 0 0-157 205-37zm-2265-2036l83-15 0 479-83-464zm43 1997l41-302 0 308-41-6zm2057-2042l-30 225-166-167-16-88 212 29zm-220 185l-239 0 0-239 239 239zm-142-451l20 114-77-10-79-79 135-24zm-1334 2573l-6-32 185 0-179 32zm-216-137l-1-2298 1348-1 0 419 418 0 1 1879-1766 1zm1871-638l83 464-83 15 0-479zm-313-1106l-1335 1 0 105 1335-1 0-105zm0 287l-1335 1 0 105 1335-1 0-105zm0 287l-1335 1 0 105 1335-1 0-105zm0 287l-1335 1 0 105 1335-1 0-105zm-1335 288l0 105 1335-1 0-105-1335 1z"/>
		</g>
		<g>
			<rect class="fil0 str0" x="1770" y="5997" width="1793" height="2322"/>
			<line class="fil2 str1" x1="2274" y1="6290" x2="3057" y2="6290"/>
			<line class="fil2 str2" x1="2882" y1="6528" x2="3427" y2="6528"/>
			<line class="fil2 str2" x1="2959" y1="6630" x2="3427" y2="6630"/>
			<line class="fil2 str2" x1="1940" y1="6830" x2="3391" y2="6830"/>
			<line class="fil2 str2" x1="1940" y1="6917" x2="3391" y2="6917"/>
			<line class="fil2 str2" x1="1940" y1="7003" x2="3391" y2="7003"/>
			<line class="fil2 str2" x1="1940" y1="7089" x2="3391" y2="7089"/>
			<line class="fil2 str2" x1="1940" y1="7176" x2="3391" y2="7176"/>
			<line class="fil2 str2" x1="1940" y1="7262" x2="3391" y2="7262"/>
			<line class="fil2 str2" x1="1940" y1="7349" x2="3391" y2="7349"/>
			<line class="fil2 str2" x1="1940" y1="7435" x2="3391" y2="7435"/>
			<line class="fil2 str2" x1="1940" y1="7522" x2="3391" y2="7522"/>
			<line class="fil2 str2" x1="1940" y1="7608" x2="3391" y2="7608"/>
			<line class="fil2 str2" x1="1940" y1="7695" x2="3391" y2="7695"/>
			<line class="fil2 str2" x1="1940" y1="7781" x2="3391" y2="7781"/>
			<line class="fil2 str2" x1="1940" y1="7867" x2="3391" y2="7867"/>
			<line class="fil2 str2" x1="1940" y1="7954" x2="3391" y2="7954"/>
			<line class="fil2 str2" x1="1940" y1="8040" x2="3391" y2="8040"/>
			<line class="fil2 str2" x1="1940" y1="8127" x2="3391" y2="8127"/>
		</g>
		<g>
			<rect class="fil0 str0" x="5746" y="5997" width="1793" height="2322"/>
			<line class="fil2 str1" x1="6251" y1="6290" x2="7034" y2="6290"/>
			<line class="fil2 str2" x1="6859" y1="6528" x2="7403" y2="6528"/>
			<line class="fil2 str2" x1="6935" y1="6630" x2="7403" y2="6630"/>
			<line class="fil2 str2" x1="5917" y1="6830" x2="6554" y2="6830"/>
			<line class="fil2 str2" x1="5917" y1="6917" x2="6554" y2="6917"/>
			<line class="fil2 str2" x1="5917" y1="7003" x2="6554" y2="7003"/>
			<line class="fil2 str2" x1="5917" y1="7089" x2="6554" y2="7089"/>
			<line class="fil2 str2" x1="5917" y1="7176" x2="6554" y2="7176"/>
			<line class="fil2 str2" x1="5917" y1="7262" x2="6554" y2="7262"/>
			<line class="fil2 str2" x1="5917" y1="7349" x2="6554" y2="7349"/>
			<line class="fil2 str2" x1="5917" y1="7435" x2="6554" y2="7435"/>
			<line class="fil2 str2" x1="5917" y1="7522" x2="6554" y2="7522"/>
			<line class="fil2 str2" x1="5917" y1="7608" x2="6554" y2="7608"/>
			<line class="fil2 str2" x1="5917" y1="7695" x2="6554" y2="7695"/>
			<line class="fil2 str2" x1="5917" y1="7781" x2="6554" y2="7781"/>
			<line class="fil2 str2" x1="5917" y1="7867" x2="6554" y2="7867"/>
			<line class="fil2 str2" x1="5917" y1="7954" x2="6554" y2="7954"/>
			<line class="fil2 str2" x1="5917" y1="8040" x2="6554" y2="8040"/>
			<line class="fil2 str2" x1="5917" y1="8127" x2="6554" y2="8127"/>
			<line class="fil2 str2" x1="6767" y1="6830" x2="7403" y2="6830"/>
			<line class="fil2 str2" x1="6767" y1="6917" x2="7403" y2="6917"/>
			<line class="fil2 str2" x1="6767" y1="7003" x2="7403" y2="7003"/>
			<line class="fil2 str2" x1="6767" y1="7090" x2="7403" y2="7090"/>
			<line class="fil2 str2" x1="6767" y1="7176" x2="7403" y2="7176"/>
			<line class="fil2 str2" x1="6767" y1="7262" x2="7403" y2="7262"/>
			<line class="fil2 str2" x1="6767" y1="7349" x2="7403" y2="7349"/>
			<line class="fil2 str2" x1="6767" y1="7435" x2="7403" y2="7435"/>
			<line class="fil2 str2" x1="6767" y1="7522" x2="7403" y2="7522"/>
			<line class="fil2 str2" x1="6767" y1="7608" x2="7403" y2="7608"/>
			<line class="fil2 str2" x1="6767" y1="7695" x2="7403" y2="7695"/>
			<line class="fil2 str2" x1="6767" y1="7781" x2="7403" y2="7781"/>
			<line class="fil2 str2" x1="6767" y1="7867" x2="7403" y2="7867"/>
			<line class="fil2 str2" x1="6767" y1="7954" x2="7403" y2="7954"/>
			<line class="fil2 str2" x1="6767" y1="8040" x2="7403" y2="8040"/>
			<line class="fil2 str2" x1="6767" y1="8127" x2="7403" y2="8127"/>
		</g>
		<g>
			<rect class="fil0 str0" x="9723" y="5997" width="1793" height="2322"/>
			<line class="fil2 str1" x1="10227" y1="6290" x2="11010" y2="6290"/>
			<line class="fil2 str2" x1="10835" y1="6528" x2="11380" y2="6528"/>
			<line class="fil2 str2" x1="10912" y1="6630" x2="11380" y2="6630"/>
			<line class="fil2 str2" x1="9923" y1="6830" x2="10559" y2="6830"/>
			<line class="fil2 str2" x1="9923" y1="7003" x2="10559" y2="7003"/>
			<line class="fil2 str2" x1="9923" y1="7176" x2="10559" y2="7176"/>
			<line class="fil2 str2" x1="9923" y1="7349" x2="10559" y2="7349"/>
			<line class="fil2 str2" x1="9923" y1="7522" x2="10559" y2="7522"/>
			<line class="fil2 str2" x1="9923" y1="7695" x2="10559" y2="7695"/>
			<line class="fil2 str2" x1="9923" y1="7867" x2="10559" y2="7867"/>
			<line class="fil2 str2" x1="9923" y1="8040" x2="10559" y2="8040"/>
			<line class="fil2 str2" x1="10714" y1="6830" x2="11351" y2="6830"/>
			<line class="fil2 str2" x1="10714" y1="7003" x2="11351" y2="7003"/>
			<line class="fil2 str2" x1="10714" y1="7176" x2="11351" y2="7176"/>
			<line class="fil2 str2" x1="10714" y1="7349" x2="11351" y2="7349"/>
			<line class="fil2 str2" x1="10714" y1="7522" x2="11351" y2="7522"/>
			<line class="fil2 str2" x1="10714" y1="7695" x2="11351" y2="7695"/>
			<line class="fil2 str2" x1="10714" y1="7867" x2="11351" y2="7867"/>
			<line class="fil2 str2" x1="10714" y1="8040" x2="11351" y2="8040"/>
			<line class="fil2 str3" x1="9837" y1="6830" x2="9837" y2="8190"/>
			<line class="fil2 str3" x1="11401" y1="6830" x2="11401" y2="8190"/>
		</g>
		<g>
			<rect class="fil0 str0" x="14828" y="5997" width="1793" height="2322"/>
			<line class="fil2 str1" x1="15333" y1="6290" x2="16116" y2="6290"/>
			<line class="fil2 str2" x1="15508" y1="6528" x2="14964" y2="6528"/>
			<line class="fil2 str2" x1="15432" y1="6630" x2="14964" y2="6630"/>
			<line class="fil2 str2" x1="15028" y1="6830" x2="15665" y2="6830"/>
			<line class="fil2 str2" x1="15028" y1="6917" x2="15665" y2="6917"/>
			<line class="fil2 str2" x1="15028" y1="7003" x2="15665" y2="7003"/>
			<line class="fil2 str2" x1="15028" y1="7089" x2="15665" y2="7089"/>
			<line class="fil2 str2" x1="15028" y1="7176" x2="15665" y2="7176"/>
			<line class="fil2 str2" x1="15028" y1="7262" x2="15665" y2="7262"/>
			<line class="fil2 str2" x1="15028" y1="7349" x2="15665" y2="7349"/>
			<line class="fil2 str2" x1="15028" y1="7608" x2="15665" y2="7608"/>
			<line class="fil2 str2" x1="15028" y1="7695" x2="15665" y2="7695"/>
			<line class="fil2 str2" x1="15028" y1="7781" x2="15665" y2="7781"/>
			<line class="fil2 str2" x1="15028" y1="7867" x2="15665" y2="7867"/>
			<line class="fil2 str2" x1="15028" y1="7954" x2="15665" y2="7954"/>
			<line class="fil2 str2" x1="15028" y1="8040" x2="15665" y2="8040"/>
			<line class="fil2 str2" x1="15028" y1="8127" x2="15665" y2="8127"/>
			<line class="fil2 str2" x1="15820" y1="6830" x2="16457" y2="6830"/>
			<line class="fil2 str2" x1="15820" y1="6917" x2="16457" y2="6917"/>
			<line class="fil2 str2" x1="15820" y1="7003" x2="16457" y2="7003"/>
			<line class="fil2 str2" x1="15820" y1="7090" x2="16457" y2="7090"/>
			<line class="fil2 str2" x1="15820" y1="7176" x2="16457" y2="7176"/>
			<line class="fil2 str2" x1="15820" y1="7262" x2="16457" y2="7262"/>
			<line class="fil2 str2" x1="15820" y1="7349" x2="16457" y2="7349"/>
			<line class="fil2 str2" x1="15820" y1="7608" x2="16457" y2="7608"/>
			<line class="fil2 str2" x1="15820" y1="7695" x2="16457" y2="7695"/>
			<line class="fil2 str2" x1="15820" y1="7781" x2="16457" y2="7781"/>
			<line class="fil2 str2" x1="15820" y1="7867" x2="16457" y2="7867"/>
			<line class="fil2 str2" x1="15820" y1="7954" x2="16457" y2="7954"/>
			<line class="fil2 str2" x1="15820" y1="8040" x2="16457" y2="8040"/>
			<line class="fil2 str2" x1="15820" y1="8127" x2="16457" y2="8127"/>
			<line class="fil2 str3" x1="14942" y1="6830" x2="14942" y2="8190"/>
			<line class="fil2 str3" x1="16507" y1="6830" x2="16507" y2="8190"/>
			<line class="fil2 str0" x1="15028" y1="7484" x2="16457" y2="7484"/>
		</g>
		<g>
			<path class="fil1" d="M8609 5916c73-182 125 1087 131 1238 106-2 190-5 190-5 0 0-20-1555-45-1622l-532 0c0 0-74 1604-44 1622 11 7 95 8 197 8 4-133 32-1062 103-1242z"/>
			<g>
				<path class="fil0" d="M8627 3379c-226 0-409 183-409 409 0 226 183 409 409 409 226 0 409-183 409-409 0-226-183-409-409-409z"/>
				<circle class="fil1" cx="8464" cy="3831" r="55"/>
				<circle class="fil1" cx="8791" cy="3831" r="55"/>
				<path class="fil1" d="M8627 3989c-21 0-40 10-52 26-4 5-3 12 2 15 5 4 12 3 15-2 8-11 21-18 35-18 14 0 27 6 35 18 4 5 10 6 15 2 5-4 6-10 2-15-12-17-32-26-53-26z"/>
				<path class="fil1" d="M8894 3744l-207 0c-24 0-44 20-44 44l0 18c-5-1-10-2-16-2-6 0-11 1-16 2l0-18c0-24-20-44-44-44l-207 0c-24 0-44 20-44 44l0 87c0 24 20 44 44 44l207 0c24 0 44-20 44-44l0-47c4-2 9-3 16-3 7 0 12 1 16 3l0 47c0 24 20 44 44 44l207 0c24 0 44-20 44-44l0-87c0-24-20-44-44-44zm-305 131c0 12-10 22-22 22l-207 0c-12 0-22-10-22-22l0-87c0-12 10-22 22-22l207 0c12 0 22 10 22 22l0 28 0 26 0 33zm327 0c0 12-10 22-22 22l-207 0c-12 0-22-10-22-22l0-33 0-27 0-28c0-12 10-22 22-22l207 0c12 0 22 10 22 22l0 87z"/>
				<path class="fil1" d="M8627 3379c-226 0-409 183-409 409 0 226 183 409 409 409 226 0 409-183 409-409 0-226-183-409-409-409zm0 785c-207 0-376-169-376-376 0-19 1-37 4-55 189 1 444-36 536-130 0 18 45 129 208 129 3 18 4 37 4 56 0 207-169 376-376 376z"/>
			</g>
			<path class="fil1" d="M8362 4428c-533-247-485-1189-485-1189l203 0c-10 72 31 801 289 946 82 55 163 86 277 85 112-1 180-43 255-92 246-145 291-868 282-940l200 0c0 0 74 997-504 1208l6 98c0 0 29 849 2 940l-537 0c-28-91 3-946 3-946l9-111z"/>
			<path class="fil3" d="M8720 4526l-42 137-26 0-28-89c0-1-1-3-1-4 0-2-1-3-1-5 0 2-1 3-1 5 0 2-1 3-1 4l-28 89-26 0-42-137 24 0c2 0 5 1 6 2 2 1 3 3 3 5l21 77c1 2 1 4 2 7 1 2 1 5 2 8 1-3 1-5 2-8 1-2 1-5 2-7l25-77c1-2 2-3 3-4 2-1 4-2 6-2l8 0c2 0 4 1 6 2 2 1 3 3 3 4l25 77c1 2 1 4 2 7 1 2 1 5 2 8 1-3 1-5 1-8 0-2 1-5 1-7l21-77c0-2 2-3 3-4 2-1 4-2 6-2l22 0z"/>
			<path class="fil3" d="M8495 4865c3 0 5 1 7 2 2 2 2 4 2 6l0 15-95 0 0-8c0-2 0-3 1-5 1-2 2-4 3-5l41-41c3-3 6-7 9-10 3-3 5-6 7-9 2-3 3-6 4-9 1-3 1-6 1-10 0-6-2-11-5-14-3-3-8-5-13-5-3 0-5 0-7 1-2 1-4 2-6 3-2 1-3 3-4 4-1 2-2 4-3 6-1 3-3 5-5 6-2 1-5 1-8 1l-14-2c1-7 3-13 6-18 3-5 6-9 10-13 4-3 9-6 14-8 5-2 11-2 17-2 6 0 12 1 18 3 5 2 10 5 14 8 4 3 7 8 9 12 2 5 3 10 3 16 0 5-1 10-2 14-1 4-3 8-6 12-2 4-5 8-9 11-3 4-7 7-10 11l-29 30c3-1 6-2 10-2 3-1 6-1 9-1l31 0z"/>
			<path class="fil3" d="M8617 4820c0 12-1 22-4 31-3 9-6 16-11 22-5 6-10 10-16 13-6 3-13 4-20 4-7 0-14-1-20-4-6-3-11-7-16-13-4-6-8-13-10-22-3-9-4-19-4-31 0-12 1-22 4-31 3-9 6-16 10-22 4-6 10-10 16-13 6-3 13-4 20-4 7 0 14 1 20 4 6 3 12 7 16 13 5 6 8 13 11 22 3 9 4 19 4 31zm-27 0c0-10-1-18-2-24-1-6-3-11-5-15-2-4-5-6-8-8-3-1-6-2-9-2-3 0-6 1-9 2-3 1-5 4-7 8-2 4-4 9-5 15-1 6-2 14-2 24 0 10 1 18 2 24 1 6 3 11 5 15 2 4 5 6 7 8 3 1 6 2 9 2 3 0 6-1 9-2 3-1 5-4 8-8 2-4 4-9 5-15 1-6 2-14 2-24z"/>
			<path class="fil3" d="M8727 4820c0 12-1 22-4 31-3 9-6 16-11 22-5 6-10 10-16 13-6 3-13 4-20 4-7 0-14-1-20-4-6-3-11-7-16-13-4-6-8-13-10-22-3-9-4-19-4-31 0-12 1-22 4-31 3-9 6-16 10-22 4-6 10-10 16-13 6-3 13-4 20-4 7 0 14 1 20 4 6 3 12 7 16 13 5 6 8 13 11 22 3 9 4 19 4 31zm-27 0c0-10-1-18-2-24-1-6-3-11-5-15-2-4-5-6-8-8-3-1-6-2-9-2-3 0-6 1-9 2-3 1-5 4-7 8-2 4-4 9-5 15-1 6-2 14-2 24 0 10 1 18 2 24 1 6 3 11 5 15 2 4 5 6 7 8 3 1 6 2 9 2 3 0 6-1 9-2 3-1 5-4 8-8 2-4 4-9 5-15 1-6 2-14 2-24z"/>
			<path class="fil3" d="M8740 4790c1-7 3-13 6-18 3-5 6-9 10-13 4-3 9-6 14-8 5-2 11-2 17-2 7 0 12 1 18 3 5 2 10 4 13 8 4 3 6 7 8 11 2 4 3 9 3 14 0 4 0 8-1 11-1 3-2 6-4 9-2 2-4 5-7 6-3 2-6 3-9 4 16 5 24 16 24 31 0 7-1 13-4 18-3 5-6 10-10 13-4 4-9 6-15 8-6 2-12 3-18 3-7 0-13-1-18-2-5-2-10-4-13-7-4-3-7-7-10-11-3-5-5-10-7-16l11-5c3-1 6-2 8-1 3 1 4 2 6 4 1 2 3 5 4 7 1 2 3 4 5 5 2 1 4 3 6 3 2 1 5 1 8 1 4 0 7-1 10-2 3-1 5-3 7-5 2-2 3-4 4-6 1-2 1-5 1-7 0-3 0-6-1-9-1-3-2-5-4-7-2-2-5-3-9-4-4-1-9-1-16-1l0-18c6 0 10 0 14-1 4-1 7-2 9-4 2-2 4-4 4-6 1-2 1-5 1-8 0-6-2-11-5-14-3-3-8-5-13-5-3 0-5 0-7 1-2 1-4 2-6 3-2 1-3 3-4 4-1 2-2 4-3 6-1 3-3 5-5 6-2 1-5 1-8 1l-14-2z"/>
			<path class="fil3" d="M8539 5043c-2-3-5-5-8-6-3-1-6-2-9-2-3 0-6 1-9 2-3 1-5 3-7 6-2 3-3 6-4 10-1 4-2 9-2 14 0 5 0 10 1 14 1 4 2 7 4 9 2 2 3 4 6 5 2 1 5 2 7 2 5 0 8-1 12-3 3-2 6-4 9-8l0-43zm26-69l0 140-16 0c-3 0-5-2-6-5l-2-8c-2 2-4 4-6 6-2 2-5 3-7 5-3 1-5 2-8 3-3 1-6 1-9 1-5 0-10-1-14-3-4-2-8-5-11-10-3-4-6-9-7-16-2-6-3-13-3-21 0-7 1-14 3-20 2-6 5-12 8-16 4-5 8-8 13-11 5-3 11-4 17-4 5 0 10 1 13 2 4 2 7 4 10 6l0-50 26 0z"/>
			<path class="fil3" d="M8630 5016c7 0 14 1 20 3 6 2 11 6 15 10 4 4 8 10 10 16 2 6 3 13 3 21 0 8-1 15-3 21-2 6-6 11-10 16-4 4-9 8-15 10-6 2-13 3-20 3-7 0-14-1-20-3-6-2-11-6-15-10-4-4-8-10-10-16-2-6-4-13-4-21 0-8 1-15 4-21 2-6 6-11 10-16 4-4 9-8 15-10 6-2 13-3 20-3zm0 81c7 0 13-3 16-8 4-5 5-13 5-23 0-10-2-18-5-23-4-5-9-8-16-8-8 0-13 3-17 8-4 5-5 13-5 23 0 10 2 18 5 23 4 5 9 8 17 8z"/>
			<path class="fil3" d="M8766 5039c-1 1-2 2-2 2-1 1-2 1-3 1-1 0-2 0-4-1-1-1-3-2-4-2-2-1-3-2-5-2-2-1-5-1-8-1-4 0-7 1-10 2-3 1-5 3-7 6-2 3-3 6-4 10-1 4-1 8-1 13 0 10 2 18 6 23 4 5 9 8 16 8 2 0 4 0 6-1 2 0 3-1 5-2 1-1 2-1 3-2 1-1 2-1 3-2 1-1 2-1 3-2 1 0 2-1 3-1 2 0 4 1 5 2l7 9c-3 3-6 6-9 8-3 2-6 4-10 5-3 1-7 2-10 3-3 0-7 1-10 1-6 0-12-1-17-3-5-2-10-5-14-10-4-4-7-10-10-16-2-6-4-13-4-21 0-7 1-14 3-20 2-6 5-11 9-16 4-4 9-8 15-11 6-3 13-4 21-4 7 0 14 1 19 4 6 2 11 6 15 10l-7 9z"/>
		</g>
		<g>
			<path class="fil4" d="M2702 5790l-72 0 9-152 27-148 44-144 60-139 75-135 89-130 103-125 115-121 127-116 138-111 149-107 158-102 167-98 175-93 182-88 188-83 194-79 199-74 203-69 206-64 209-59 211-54 212-49 212-44 212-39 211-34 209-29 206-24 203-19 198-13 193-8 188-3 0 72-186 3-192 8-197 13-201 19-204 24-207 29-209 34-210 39-211 44-210 49-209 54-207 59-205 64-201 68-197 73-192 78-186 82-180 87-172 92-164 96-155 100-146 105-135 109-124 113-112 117-99 121-86 125-72 129-57 132-41 136-25 140-9 144zm-67 76l61-39-61 0 185-286 61 39-185 286-61 0zm0 0l61 0-30 47-30-47zm-155-305l30-20 185 286-61 39-185-286 30-20z"/>
		</g>
		<g>
			<path class="fil4" d="M6669 5790l-72-1-2-73-6-78-10-83-13-86-16-90-18-93-19-95-20-97-19-98-19-99-17-100-15-100-12-100-8-99-4-98 1-97 7-95 14-92 21-89 30-86 39-82 48-78 59-73 70-67 81-60 93-54 105-46 118-39 132-31 146-22 161-14 177-5 0 72-173 5-157 13-141 22-126 29-112 37-99 43-86 50-74 55-63 61-53 66-44 70-35 75-27 79-20 83-13 87-7 90-1 92 4 95 8 96 11 98 14 98 17 99 18 98 19 98 20 97 19 95 18 93 16 91 14 88 10 85 6 82 2 78zm-68 75l61-39-61-1 189-283 60 40-189 283-61-1zm0 0l61 1-31 46-30-47zm-151-307l31-19 182 288-61 39-182-288 31-19z"/>
		</g>
		<g>
			<path class="fil4" d="M15761 5790l-72 0-12-142-34-139-56-135-77-132-97-128-115-125-133-121-150-117-165-113-179-109-192-105-204-101-215-96-224-92-232-87-239-83-245-78-250-73-253-69-255-64-256-59-256-54-255-49-252-44-249-39-244-34-238-29-230-24-222-19-212-13-201-8-189-3 0-72 191 3 203 8 214 13 223 19 232 24 239 29 245 34 250 39 254 44 256 49 257 54 258 59 257 64 255 69 251 74 247 79 241 83 234 88 226 93 217 97 207 102 195 106 183 111 169 116 154 120 137 125 120 130 101 135 81 140 60 145 37 149 13 154zm-67 76l61-39-61 0 185-286 61 39-185 286-61 0zm0 0l61 0-30 47-30-47zm-155-305l30-20 185 286-61 39-185-286 30-20z"/>
		</g>
		<g>
			<path class="fil4" d="M10663 5789l-72 1 2-78 6-82 10-85 14-88 16-91 18-93 19-95 20-97 19-98 18-98 17-99 14-98 11-98 8-96 4-95-1-92-7-90-13-87-20-83-27-79-35-75-44-70-53-66-63-61-74-55-86-50-99-43-112-37-126-29-141-22-157-13-173-5 0-72 177 5 161 14 146 22 132 31 118 39 105 46 93 54 81 60 70 67 59 73 48 78 39 82 30 86 21 89 14 92 7 95 1 97-4 98-8 99-12 100-15 100-17 100-19 99-19 98-20 97-19 95-18 93-16 90-13 86-10 83-6 78-2 73zm-66 77l60-40-61 1 182-288 61 39-182 288-61 1zm0 0l61-1-30 47-31-46zm-159-303l30-20 189 283-60 40-189-283 30-20z"/>
		</g>
		<g>
			<circle class="fil1" cx="12859" cy="7158" r="77"/>
			<circle class="fil1" cx="13172" cy="7158" r="77"/>
			<circle class="fil1" cx="13485" cy="7158" r="77"/>
		</g>
		<path class="fil4" d="M2087 8730l0 241c0 9-1 17-4 25-2 8-6 15-11 20-5 6-12 10-20 14-8 3-18 5-29 5-5 0-9 0-13-1-4-1-8-2-12-3l2-21c0-1 1-2 1-3 1-1 2-1 3-1 1 0 3 0 5 0 2 0 4 0 7 0 12 0 20-3 25-8 5-5 7-14 7-26l0-241 39 0zm8-70c0 4-1 7-2 11-2 3-4 6-6 9-3 3-6 5-9 6-3 1-7 2-11 2-4 0-7-1-11-2-3-1-6-4-9-6-3-3-5-6-6-9-1-3-2-7-2-11 0-4 1-8 2-11 1-3 3-6 6-9 2-3 5-5 9-6 3-1 7-2 11-2 4 0 7 1 11 2 3 1 6 3 9 6 3 3 5 6 6 9 2 3 2 7 2 11z"/>
		<path class="fil4" d="M2246 8727c16 0 31 3 44 8 13 5 24 13 34 23 9 10 16 22 21 36 5 14 7 30 7 48 0 18-2 34-7 48-5 14-12 26-21 36-9 10-21 18-34 23-13 5-28 8-44 8-17 0-31-3-45-8-13-5-24-13-34-23-9-10-16-22-21-36-5-14-7-30-7-48 0-18 3-33 7-48 5-14 12-26 21-36 9-10 21-18 34-23 13-5 28-8 45-8zm0 200c22 0 39-7 50-22 11-15 16-35 16-62 0-27-5-48-16-62-11-15-27-22-50-22-11 0-21 2-29 6-8 4-15 9-21 17-6 7-10 16-12 27-3 11-4 22-4 36 0 27 6 47 17 62 11 15 28 22 50 22z"/>
		<path class="fil4" d="M2586 8730l0 224-23 0c-6 0-9-3-11-8l-3-24c-10 11-21 19-33 26-12 7-26 10-42 10-12 0-23-2-32-6-9-4-17-10-24-17-6-7-11-16-14-27-3-10-5-22-5-35l0-143 39 0 0 143c0 17 4 30 12 39 8 9 20 14 35 14 12 0 23-3 33-8 10-6 19-13 28-23l0-165 39 0z"/>
		<path class="fil4" d="M2686 8775c7-15 16-27 26-36 10-9 23-13 38-13 5 0 9 1 14 2 4 1 8 3 12 5l-3 29c-1 4-3 6-7 6-2 0-5 0-9-1-4-1-8-1-13-1-7 0-13 1-19 3-6 2-10 5-15 9-4 4-8 9-12 15-3 6-7 13-9 21l0 142-40 0 0-224 23 0c4 0 7 1 9 2 2 2 3 4 3 8l3 34z"/>
		<path class="fil4" d="M2847 8763c5-5 10-10 15-15 5-4 11-8 17-11 6-3 13-6 19-7 7-2 14-2 22-2 12 0 23 2 32 6 9 4 17 10 23 17 6 7 11 16 14 27 3 10 5 22 5 35l0 143-40 0 0-143c0-17-4-30-12-40-8-9-20-14-35-14-12 0-23 3-33 8-10 6-19 13-28 23l0 165-40 0 0-224 24 0c6 0 9 3 10 8l3 24z"/>
		<path class="fil4" d="M3179 8854c-18 1-34 2-46 4-13 2-23 5-31 9-8 4-14 8-17 13-4 5-5 11-5 17 0 6 1 11 3 15 2 4 5 8 8 10 3 3 7 5 12 6 4 1 9 2 14 2 7 0 13-1 19-2 6-1 11-3 16-6 5-3 10-6 15-10 5-4 9-8 14-13l0-46zm-127-92c12-12 26-21 40-27 14-6 30-9 48-9 13 0 24 2 33 6 10 4 18 10 25 17 7 7 12 16 15 27 3 10 5 22 5 35l0 143-17 0c-4 0-7-1-9-2-2-1-4-4-5-7l-4-21c-6 5-12 10-17 14-6 4-12 8-18 11-6 3-13 5-20 7-7 2-15 2-23 2-9 0-17-1-25-4-8-2-14-6-20-11-6-5-10-11-14-19-3-7-5-16-5-26 0-9 2-17 7-26 5-8 13-15 24-22 11-6 25-12 43-16 18-4 39-6 65-7l0-17c0-17-4-31-11-40-8-9-19-13-33-13-10 0-18 1-24 4-7 2-12 5-17 8-5 3-9 6-12 8-3 2-7 4-10 4-3 0-5-1-7-2-2-1-4-3-5-5l-7-13z"/>
		<polygon class="fil4" points="3318 8628 3318 8954 3278 8954 3278 8628 "/>
		<path class="fil4" d="M3476 8986l0 19-90 0 0-19 33 0 0-97 1-10-24 20c-1 1-3 2-4 2-1 0-3 0-4 0-1 0-2-1-3-1-1-1-2-1-2-2l-9-12 49-42 24 0 0 143 29 0z"/>
		<path class="fil4" d="M6052 8775c7-15 16-27 26-36 10-9 23-13 38-13 5 0 9 1 14 2 4 1 8 3 12 5l-3 29c-1 4-3 6-7 6-2 0-5 0-9-1-4-1-8-1-13-1-7 0-13 1-19 3-6 2-10 5-15 9-4 4-8 9-12 15-3 6-7 13-9 21l0 142-40 0 0-224 23 0c4 0 7 1 9 2 2 2 3 4 3 8l3 34z"/>
		<path class="fil4" d="M6317 8818c0-9-1-18-4-25-3-8-6-14-11-20-5-6-11-10-18-13-7-3-15-5-24-5-19 0-34 5-45 16-11 11-18 26-21 46l123 0zm32 105c-5 6-11 11-17 15-7 4-14 8-22 11-8 3-16 5-24 6-8 1-16 2-25 2-15 0-30-3-43-8-13-5-24-13-34-23-10-10-17-23-22-37-5-15-8-32-8-51 0-16 2-30 7-44 5-14 12-25 21-35 9-10 20-18 33-23 13-6 28-8 44-8 13 0 26 2 37 7 11 4 21 11 30 19 8 8 15 19 20 31 5 12 7 27 7 43 0 6-1 10-2 12-1 2-4 3-8 3l-150 0c0 14 2 26 6 37 3 10 8 19 14 26 6 7 14 12 22 16 9 3 18 5 29 5 10 0 18-1 26-3 7-2 13-5 18-7 5-3 10-5 13-7 3-2 6-3 9-3 3 0 6 1 8 4l11 14z"/>
		<path class="fil4" d="M6440 8900c7 10 15 17 24 21 9 4 18 6 29 6 21 0 37-7 48-22 11-15 17-36 17-64 0-15-1-27-4-38-3-10-6-19-11-26-5-7-11-12-18-15-7-3-15-5-24-5-13 0-24 3-34 9-10 6-19 14-27 25l0 108zm-2-135c9-12 20-21 33-28 12-7 27-11 42-11 13 0 25 2 35 7 10 5 19 12 27 22 7 10 13 22 17 36 4 14 6 31 6 49 0 17-2 32-7 46-4 14-11 27-19 37-8 10-19 19-31 25-12 6-26 9-41 9-14 0-25-2-35-7-10-5-19-11-26-19l0 99-40 0 0-300 24 0c6 0 9 3 10 8l4 27z"/>
		<path class="fil4" d="M6743 8727c16 0 31 3 44 8 13 5 24 13 34 23 9 10 16 22 21 36 5 14 7 30 7 48 0 18-2 34-7 48-5 14-12 26-21 36-9 10-21 18-34 23-13 5-28 8-44 8-17 0-31-3-45-8-13-5-24-13-34-23-9-10-16-22-21-36-5-14-7-30-7-48 0-18 3-33 7-48 5-14 12-26 21-36 9-10 21-18 34-23 13-5 28-8 45-8zm0 200c22 0 39-7 50-22 11-15 16-35 16-62 0-27-5-48-16-62-11-15-27-22-50-22-11 0-21 2-29 6-8 4-15 9-21 17-6 7-10 16-12 27-3 11-4 22-4 36 0 27 6 47 17 62 11 15 28 22 50 22z"/>
		<path class="fil4" d="M6937 8775c7-15 16-27 26-36 10-9 23-13 38-13 5 0 9 1 14 2 4 1 8 3 12 5l-3 29c-1 4-3 6-7 6-2 0-5 0-9-1-4-1-8-1-13-1-7 0-13 1-19 3-6 2-10 5-15 9-4 4-8 9-12 15-3 6-7 13-9 21l0 142-40 0 0-224 23 0c4 0 7 1 9 2 2 2 3 4 3 8l3 34z"/>
		<path class="fil4" d="M7129 8958c-18 0-31-5-41-15-10-10-14-24-14-43l0-137-27 0c-2 0-4-1-6-2-2-1-2-4-2-6l0-16 37-5 9-69c0-2 1-4 3-5 2-1 4-2 6-2l20 0 0 77 65 0 0 29-65 0 0 135c0 9 2 16 7 21 5 5 10 7 18 7 4 0 8-1 11-2 3-1 6-2 8-4 2-1 4-3 6-4 2-1 3-2 4-2 2 0 4 1 6 4l12 19c-7 6-15 11-25 15-10 4-19 5-30 5z"/>
		<path class="fil4" d="M7313 8986l0 19-90 0 0-19 33 0 0-97 1-10-24 20c-1 1-3 2-4 2-1 0-3 0-4 0-1 0-2-1-3-1-1-1-2-1-2-2l-9-12 49-42 24 0 0 143 29 0z"/>
		<path class="fil4" d="M10028 8775c7-15 16-27 26-36 10-9 23-13 38-13 5 0 9 1 14 2 4 1 8 3 12 5l-3 29c-1 4-3 6-7 6-2 0-5 0-9-1-4-1-8-1-13-1-7 0-13 1-19 3-6 2-10 5-15 9-4 4-8 9-12 15-3 6-7 13-9 21l0 142-40 0 0-224 23 0c4 0 7 1 9 2 2 2 3 4 3 8l3 34z"/>
		<path class="fil4" d="M10293 8818c0-9-1-18-4-25-3-8-6-14-11-20-5-6-11-10-18-13-7-3-15-5-24-5-19 0-34 5-45 16-11 11-18 26-21 46l123 0zm32 105c-5 6-11 11-17 15-7 4-14 8-22 11-8 3-16 5-24 6-8 1-16 2-25 2-15 0-30-3-43-8-13-5-24-13-34-23-10-10-17-23-22-37-5-15-8-32-8-51 0-16 2-30 7-44 5-14 12-25 21-35 9-10 20-18 33-23 13-6 28-8 44-8 13 0 26 2 37 7 11 4 21 11 30 19 8 8 15 19 20 31 5 12 7 27 7 43 0 6-1 10-2 12-1 2-4 3-8 3l-150 0c0 14 2 26 6 37 3 10 8 19 14 26 6 7 14 12 22 16 9 3 18 5 29 5 10 0 18-1 26-3 7-2 13-5 18-7 5-3 10-5 13-7 3-2 6-3 9-3 3 0 6 1 8 4l11 14z"/>
		<path class="fil4" d="M10416 8900c7 10 15 17 24 21 9 4 18 6 29 6 21 0 37-7 48-22 11-15 17-36 17-64 0-15-1-27-4-38-3-10-6-19-11-26-5-7-11-12-18-15-7-3-15-5-24-5-13 0-24 3-34 9-10 6-19 14-27 25l0 108zm-2-135c9-12 20-21 33-28 12-7 27-11 42-11 13 0 25 2 35 7 10 5 19 12 27 22 7 10 13 22 17 36 4 14 6 31 6 49 0 17-2 32-7 46-4 14-11 27-19 37-8 10-19 19-31 25-12 6-26 9-41 9-14 0-25-2-35-7-10-5-19-11-26-19l0 99-40 0 0-300 24 0c6 0 9 3 10 8l4 27z"/>
		<path class="fil4" d="M10719 8727c16 0 31 3 44 8 13 5 24 13 34 23 9 10 16 22 21 36 5 14 7 30 7 48 0 18-2 34-7 48-5 14-12 26-21 36-9 10-21 18-34 23-13 5-28 8-44 8-17 0-31-3-45-8-13-5-24-13-34-23-9-10-16-22-21-36-5-14-7-30-7-48 0-18 3-33 7-48 5-14 12-26 21-36 9-10 21-18 34-23 13-5 28-8 45-8zm0 200c22 0 39-7 50-22 11-15 16-35 16-62 0-27-5-48-16-62-11-15-27-22-50-22-11 0-21 2-29 6-8 4-15 9-21 17-6 7-10 16-12 27-3 11-4 22-4 36 0 27 6 47 17 62 11 15 28 22 50 22z"/>
		<path class="fil4" d="M10913 8775c7-15 16-27 26-36 10-9 23-13 38-13 5 0 9 1 14 2 4 1 8 3 12 5l-3 29c-1 4-3 6-7 6-2 0-5 0-9-1-4-1-8-1-13-1-7 0-13 1-19 3-6 2-10 5-15 9-4 4-8 9-12 15-3 6-7 13-9 21l0 142-40 0 0-224 23 0c4 0 7 1 9 2 2 2 3 4 3 8l3 34z"/>
		<path class="fil4" d="M11106 8958c-18 0-31-5-41-15-10-10-14-24-14-43l0-137-27 0c-2 0-4-1-6-2-2-1-2-4-2-6l0-16 37-5 9-69c0-2 1-4 3-5 2-1 4-2 6-2l20 0 0 77 65 0 0 29-65 0 0 135c0 9 2 16 7 21 5 5 10 7 18 7 4 0 8-1 11-2 3-1 6-2 8-4 2-1 4-3 6-4 2-1 3-2 4-2 2 0 4 1 6 4l12 19c-7 6-15 11-25 15-10 4-19 5-30 5z"/>
		<path class="fil4" d="M11284 8978c3 0 5 1 7 2 2 2 3 4 3 7l0 17-113 0 0-10c0-2 0-4 1-6 1-2 2-4 4-6l49-48c7-7 14-15 19-23 5-8 8-16 8-24 0-8-2-13-7-17-4-4-10-6-16-6-7 0-12 2-17 5-4 4-7 8-9 15-1 3-3 4-5 6-2 1-5 1-9 1l-16-3c2-16 8-27 19-35 10-8 23-12 38-12 8 0 15 1 21 3 6 2 12 5 16 9 4 4 8 9 10 14 2 6 4 12 4 19 0 6-1 11-3 16-2 5-4 10-7 15-3 5-7 9-11 13-4 4-8 9-13 13l-36 37c4-1 7-2 11-2 3-1 7-1 10-1l43 0z"/>
		<path class="fil4" d="M15131 8775c7-15 16-27 26-36 10-9 23-13 38-13 5 0 9 1 14 2 4 1 8 3 12 5l-3 29c-1 4-3 6-7 6-2 0-5 0-9-1-4-1-8-1-13-1-7 0-13 1-19 3-6 2-10 5-15 9-4 4-8 9-12 15-3 6-7 13-9 21l0 142-40 0 0-224 23 0c4 0 7 1 9 2 2 2 3 4 3 8l3 34z"/>
		<path class="fil4" d="M15396 8818c0-9-1-18-4-25-3-8-6-14-11-20-5-6-11-10-18-13-7-3-15-5-24-5-19 0-34 5-45 16-11 11-18 26-21 46l123 0zm32 105c-5 6-11 11-17 15-7 4-14 8-22 11-8 3-16 5-24 6-8 1-16 2-25 2-15 0-30-3-43-8-13-5-24-13-34-23-10-10-17-23-22-37-5-15-8-32-8-51 0-16 2-30 7-44 5-14 12-25 21-35 9-10 20-18 33-23 13-6 28-8 44-8 13 0 26 2 37 7 11 4 21 11 30 19 8 8 15 19 20 31 5 12 7 27 7 43 0 6-1 10-2 12-1 2-4 3-8 3l-150 0c0 14 2 26 6 37 3 10 8 19 14 26 6 7 14 12 22 16 9 3 18 5 29 5 10 0 18-1 26-3 7-2 13-5 18-7 5-3 10-5 13-7 3-2 6-3 9-3 3 0 6 1 8 4l11 14z"/>
		<path class="fil4" d="M15519 8900c7 10 15 17 24 21 9 4 18 6 29 6 21 0 37-7 48-22 11-15 17-36 17-64 0-15-1-27-4-38-3-10-6-19-11-26-5-7-11-12-18-15-7-3-15-5-24-5-13 0-24 3-34 9-10 6-19 14-27 25l0 108zm-2-135c9-12 20-21 33-28 12-7 27-11 42-11 13 0 25 2 35 7 10 5 19 12 27 22 7 10 13 22 17 36 4 14 6 31 6 49 0 17-2 32-7 46-4 14-11 27-19 37-8 10-19 19-31 25-12 6-26 9-41 9-14 0-25-2-35-7-10-5-19-11-26-19l0 99-40 0 0-300 24 0c6 0 9 3 10 8l4 27z"/>
		<path class="fil4" d="M15822 8727c16 0 31 3 44 8 13 5 24 13 34 23 9 10 16 22 21 36 5 14 7 30 7 48 0 18-2 34-7 48-5 14-12 26-21 36-9 10-21 18-34 23-13 5-28 8-44 8-17 0-31-3-45-8-13-5-24-13-34-23-9-10-16-22-21-36-5-14-7-30-7-48 0-18 3-33 7-48 5-14 12-26 21-36 9-10 21-18 34-23 13-5 28-8 45-8zm0 200c22 0 39-7 50-22 11-15 16-35 16-62 0-27-5-48-16-62-11-15-27-22-50-22-11 0-21 2-29 6-8 4-15 9-21 17-6 7-10 16-12 27-3 11-4 22-4 36 0 27 6 47 17 62 11 15 28 22 50 22z"/>
		<path class="fil4" d="M16016 8775c7-15 16-27 26-36 10-9 23-13 38-13 5 0 9 1 14 2 4 1 8 3 12 5l-3 29c-1 4-3 6-7 6-2 0-5 0-9-1-4-1-8-1-13-1-7 0-13 1-19 3-6 2-10 5-15 9-4 4-8 9-12 15-3 6-7 13-9 21l0 142-40 0 0-224 23 0c4 0 7 1 9 2 2 2 3 4 3 8l3 34z"/>
		<path class="fil4" d="M16209 8958c-18 0-31-5-41-15-10-10-14-24-14-43l0-137-27 0c-2 0-4-1-6-2-2-1-2-4-2-6l0-16 37-5 9-69c0-2 1-4 3-5 2-1 4-2 6-2l20 0 0 77 65 0 0 29-65 0 0 135c0 9 2 16 7 21 5 5 10 7 18 7 4 0 8-1 11-2 3-1 6-2 8-4 2-1 4-3 6-4 2-1 3-2 4-2 2 0 4 1 6 4l12 19c-7 6-15 11-25 15-10 4-19 5-30 5z"/>
		<path class="fil4" d="M16321 8906c5-5 10-10 16-13 6-3 13-5 21-5 6 0 12 1 17 3 5 2 9 5 12 9 3 4 6 9 7 14 2 5 2 11 2 17l0 73-28 0 0-73c0-7-2-12-5-16-3-4-8-6-15-6-5 0-9 1-13 3-4 2-8 5-12 9l0 83-28 0 0-115 15 0c2 0 4 0 5 1 1 1 2 2 3 5l2 10z"/>
	</g>
</svg>
